<?xml version="1.0" encoding="UTF-8"?>
<svg width="76px" height="78px" viewBox="0 0 76 78" version="1.1" xmlns="http://www.w3.org/2000/svg" xmlns:xlink="http://www.w3.org/1999/xlink">
    <title>1.1.2</title>
    <defs>
        <polygon id="path-1" points="0 0.141 53.859 0.141 53.859 53.94 0 53.94"></polygon>
        <path d="M21.427,0.227 C10.182,0.42 0.885,8.269 0.477,19.059 C0.072,29.848 8.488,38.929 19.278,39.33 C24.772,39.541 29.82,37.46 33.51,33.943 C37.062,30.555 36.916,24.593 34.092,27.298 C30.984,30.27 26.643,32.044 21.907,31.873 C12.874,31.549 5.828,24.257 6.167,15.588 C6.48,7.543 14.456,1.176 21.599,0.793 L21.785,0.225 C21.666,0.225 21.548,0.225 21.427,0.227" id="path-3"></path>
        <linearGradient x1="32.1461089%" y1="44.3976331%" x2="81.0070484%" y2="57.3660508%" id="linearGradient-5">
            <stop stop-color="#D8232A" offset="0%"></stop>
            <stop stop-color="#751719" offset="100%"></stop>
        </linearGradient>
        <path d="M9.998,0.797 C19.072,1.344 26.543,9.077 0.133,16.798 C6.861,18.121 11.83,21.275 11.83,21.275 C34.439,9.78 21.578,0.185 8.785,0.224875385 L8.599,0.793 C9.069,0.768 9.536,0.768 9.998,0.797" id="path-6"></path>
        <linearGradient x1="50.0011156%" y1="170.834735%" x2="50.0011156%" y2="82.4214817%" id="linearGradient-8">
            <stop stop-color="#D56C32" offset="0%"></stop>
            <stop stop-color="#F7C938" offset="100%"></stop>
        </linearGradient>
        <path d="M15.146,0.411 C28.727,12.6 13.631,25.269 0.439,24.664 C5.588,23.283 8.254,21.17 9.904,18.363 C10.746,16.713 10.904,15.113 10.578,13.585 C10.635,13.791 10.684,14 10.721,14.205 C9.877,9.253 9.404,2.825 15.146,0.411 Z" id="path-9"></path>
        <linearGradient x1="61.005403%" y1="56.0896825%" x2="68.3603483%" y2="72.2205255%" id="linearGradient-11">
            <stop stop-color="#FCD020" offset="0%"></stop>
            <stop stop-color="#D79229" offset="100%"></stop>
        </linearGradient>
        <path d="M20.736,18.722 C19.471,12.618 18.701,4.213 29.951,3.623 C16.479,-2.852 7.578,3.511 0.958,4.798 C6.859,5.546 19.301,12.096 20.736,18.722" id="path-12"></path>
        <linearGradient x1="50.0010347%" y1="-0.78349279%" x2="50.0010347%" y2="35.6565459%" id="linearGradient-14">
            <stop stop-color="#FCD020" offset="0%"></stop>
            <stop stop-color="#D79229" offset="100%"></stop>
        </linearGradient>
        <path d="M1.875,4.837 C4.716,2.47 8.25,0.974 11.599,0.793 C12.069,0.768 12.536,0.768 12.998,0.797 C17.447,1.066 21.506,3.063 21.381,5.939 L23.607,3.317 C20.635,1.349 16.207,0.213 11.785,0.225 C11.666,0.225 11.548,0.225 11.427,0.227 C7.26,0.298 3.365,1.424 0.09,3.355 L1.875,4.837" id="path-15"></path>
        <linearGradient x1="10.3193435%" y1="49.9973235%" x2="88.6511885%" y2="49.9973235%" id="linearGradient-17">
            <stop stop-color="#D7272D" offset="0%"></stop>
            <stop stop-color="#FCD020" offset="100%"></stop>
        </linearGradient>
    </defs>
    <g id="Page-2" stroke="none" stroke-width="1" fill="none" fill-rule="evenodd">
        <g id="1.1.2">
            <path d="M15.0353111,78 C6.76586784,78 0,71.056083 0,62.5690228 L0,15.4309772 C0,6.94391699 6.76586784,0 15.0353111,0 L60.9646889,0 C69.2341322,0 76,6.94391699 76,15.4309772 L76,62.5690228 C76,71.056083 69.2341322,78 60.9646889,78 L15.0353111,78 Z" id="Fill-1-Copy-10" fill="#FFFFFF"></path>
            <g id="Group" transform="translate(11.000000, 12.000000)">
                <g id="Group-3">
                    <mask id="mask-2" fill="white">
                        <use xlink:href="#path-1"></use>
                    </mask>
                    <g id="Clip-2"></g>
                    <path d="M53.859,27.07 C53.859,41.943 41.803,54 26.929,54 C12.057,54 0,41.943 0,27.07 C0,12.198 12.057,0.141 26.929,0.141 C41.803,0.141 53.859,12.198 53.859,27.07" id="Fill-1" fill="#123063" mask="url(#mask-2)"></path>
                </g>
                <g id="Group-6" transform="translate(5.000000, 7.000000)">
                    <mask id="mask-4" fill="white">
                        <use xlink:href="#path-3"></use>
                    </mask>
                    <g id="Clip-5"></g>
                    <path d="M21.427,0.227 C10.182,0.42 0.885,8.269 0.477,19.059 C0.072,29.848 8.488,38.929 19.278,39.33 C24.772,39.541 29.82,37.46 33.51,33.943 C37.062,30.555 36.916,24.593 34.092,27.298 C30.984,30.27 26.643,32.044 21.907,31.873 C12.874,31.549 5.828,24.257 6.167,15.588 C6.48,7.543 14.456,1.176 21.599,0.793 L21.785,0.225 C21.666,0.225 21.548,0.225 21.427,0.227" id="Fill-4" fill="url(#linearGradient-5)" mask="url(#mask-4)"></path>
                </g>
                <g id="Group-9" transform="translate(18.000000, 7.000000)">
                    <mask id="mask-7" fill="white">
                        <use xlink:href="#path-6"></use>
                    </mask>
                    <g id="Clip-8"></g>
                    <path d="M9.998,0.797 C19.072,1.344 26.543,9.077 0.133,16.798 C6.861,18.121 11.83,21.275 11.83,21.275 C34.439,9.78 21.578,0.185 8.785,0.224875385 L8.599,0.793 C9.069,0.768 9.536,0.768 9.998,0.797" id="Fill-7" fill="url(#linearGradient-8)" mask="url(#mask-7)"></path>
                </g>
                <g id="Group-12" transform="translate(27.000000, 24.000000)">
                    <mask id="mask-10" fill="white">
                        <use xlink:href="#path-9"></use>
                    </mask>
                    <g id="Clip-11"></g>
                    <polygon id="Fill-10" fill="url(#linearGradient-11)" mask="url(#mask-10)" points="-27 29.94 26.859 29.94 26.859 -23.859 -27 -23.859"></polygon>
                </g>
                <g id="Group-15" transform="translate(17.000000, 19.000000)">
                    <mask id="mask-13" fill="white">
                        <use xlink:href="#path-12"></use>
                    </mask>
                    <g id="Clip-14"></g>
                    <path d="M20.736,18.722 C19.471,12.618 18.701,4.213 29.951,3.623 C16.479,-2.852 7.578,3.511 0.958,4.798 C6.859,5.546 19.301,12.096 20.736,18.722" id="Fill-13" fill="url(#linearGradient-14)" mask="url(#mask-13)"></path>
                </g>
                <g id="Group-18" transform="translate(15.000000, 7.000000)">
                    <mask id="mask-16" fill="white">
                        <use xlink:href="#path-15"></use>
                    </mask>
                    <g id="Clip-17"></g>
                    <path d="M1.875,4.837 C4.716,2.47 8.25,0.974 11.599,0.793 C12.069,0.768 12.536,0.768 12.998,0.797 C17.447,1.066 21.506,3.063 21.381,5.939 L23.607,3.317 C20.635,1.349 16.207,0.213 11.785,0.225 C11.666,0.225 11.548,0.225 11.427,0.227 C7.26,0.298 3.365,1.424 0.09,3.355 L1.875,4.837" id="Fill-16" fill="url(#linearGradient-17)" mask="url(#mask-16)"></path>
                </g>
            </g>
        </g>
    </g>
</svg>