<svg width="561" height="79" viewBox="0 0 561 79" fill="none" xmlns="http://www.w3.org/2000/svg">
  <path d="M49.1682 47.8434L36.5065 17.6773L23.5147 47.8434H49.1682ZM50.7097 51.9168H21.8083L16.7435 63.6974C15.4956 66.5964 14.8718 68.7615 14.8718 70.1921C14.8718 71.3309 15.4129 72.3312 16.496 73.1924C17.5782 74.0558 19.918 74.6147 23.5147 74.8714V76.9083H0.00830078V74.8714C3.12706 74.3211 5.14622 73.6056 6.06401 72.7248C7.9357 70.9633 10.0083 67.3845 12.2846 61.9903L38.543 0.557609H40.4705L66.4536 62.6513C68.5459 67.6425 70.4449 70.8807 72.1518 72.3668C73.8577 73.8536 76.234 74.6887 79.2801 74.8714V76.9083H49.8289V74.8714C52.8011 74.7256 54.8107 74.2298 55.8564 73.3847C56.9024 72.5413 57.4253 71.5135 57.4253 70.3021C57.4253 68.6885 56.6911 66.1375 55.2234 62.6513L50.7097 51.9168Z" fill="#231F20"/>
  <path d="M128.061 23.4631L129.255 41.2265H128.061C126.467 35.9093 124.193 32.0818 121.239 29.7438C118.285 27.4059 114.739 26.2372 110.604 26.2372C107.135 26.2372 104.001 27.118 101.201 28.8774C98.4011 30.6368 96.1979 33.4431 94.5924 37.2959C92.987 41.1496 92.1844 45.9405 92.1844 51.6689C92.1844 56.3959 92.9417 60.4932 94.4576 63.9614C95.9735 67.4294 98.2532 70.0882 101.298 71.9376C104.342 73.787 107.816 74.7113 111.721 74.7113C115.112 74.7113 118.104 73.9862 120.7 72.5343C123.295 71.0842 126.146 68.2001 129.255 63.8845L130.449 64.6544C127.829 69.3048 124.771 72.7088 121.278 74.8662C117.784 77.0244 113.635 78.103 108.831 78.103C100.174 78.103 93.4684 74.8918 88.7159 68.4697C85.171 63.6918 83.3984 58.0662 83.3984 51.5914C83.3984 46.3777 84.5668 41.5867 86.9047 37.2198C89.2423 32.8528 92.4598 29.4681 96.5576 27.0659C100.655 24.6636 105.132 23.4631 109.987 23.4631C113.764 23.4631 117.489 24.3879 121.162 26.2372C122.241 26.8027 123.012 27.0854 123.475 27.0854C124.168 27.0854 124.771 26.8419 125.286 26.3525C125.954 25.6601 126.428 24.6962 126.711 23.4631H128.061" fill="#231F20"/>
  <path d="M178.85 24.6575L179.428 36.911H177.964C177.68 34.7536 177.294 33.2117 176.807 32.2874C176.01 30.7977 174.95 29.6995 173.627 28.9926C172.305 28.2859 170.564 27.9327 168.406 27.9327H161.046V67.8534C161.046 71.0642 161.393 73.0684 162.087 73.8645C163.062 74.9431 164.566 75.4825 166.596 75.4825H168.406V76.9083H146.249V75.4825H148.099C150.308 75.4825 151.875 74.8148 152.8 73.4787C153.365 72.6575 153.647 70.7815 153.647 67.8534V27.9327H147.366C144.925 27.9327 143.191 28.1128 142.163 28.4721C140.828 28.9609 139.685 29.8982 138.735 31.2848C137.784 32.6723 137.218 34.5483 137.039 36.911H135.575L136.192 24.6575H178.85" fill="#231F20"/>
  <path d="M219.041 26.0829V24.6575H237.538V26.0829H235.573C233.517 26.0829 231.937 26.944 230.833 28.6656C230.293 29.4611 230.023 31.311 230.023 34.2143V55.4073C230.023 60.647 229.503 64.713 228.463 67.6019C227.422 70.4922 225.38 72.9714 222.336 75.0396C219.291 77.107 215.149 78.1413 209.909 78.1413C204.205 78.1413 199.876 77.1513 196.923 75.1744C193.967 73.1968 191.874 70.5384 190.641 67.198C189.818 64.9118 189.408 60.6223 189.408 54.3277V33.9054C189.408 30.6946 188.965 28.5882 188.078 27.5856C187.191 26.5839 185.759 26.0829 183.782 26.0829H181.816V24.6575H204.398V26.0829H202.394C200.236 26.0829 198.694 26.7649 197.77 28.1258C197.127 29.0505 196.807 30.9774 196.807 33.9054V56.6786C196.807 58.7085 196.993 61.0321 197.366 63.6531C197.738 66.2737 198.411 68.3158 199.388 69.7789C200.365 71.2438 201.771 72.4517 203.607 73.402C205.444 74.3524 207.698 74.8278 210.371 74.8278C213.787 74.8278 216.845 74.0831 219.542 72.5922C222.24 71.1038 224.083 69.1952 225.072 66.8704C226.06 64.5455 226.555 60.6093 226.555 55.0606V33.9054C226.555 30.6433 226.195 28.6012 225.477 27.7791C224.475 26.6483 222.984 26.0829 221.006 26.0829H219.041" fill="#231F20"/>
  <path d="M273.413 56.5634L264.551 35.4473L255.457 56.5634H273.413ZM274.492 59.414H254.262L250.716 67.6599C249.843 69.6897 249.407 71.206 249.407 72.2073C249.407 73.0041 249.785 73.7035 250.543 74.3067C251.301 74.9118 252.939 75.3032 255.457 75.4825V76.9083H239.002V75.4825C241.186 75.0975 242.599 74.5965 243.241 73.9797C244.552 72.7467 246.003 70.2421 247.595 66.4659L265.976 23.4631H267.326L285.514 66.9283C286.978 70.4218 288.307 72.6888 289.502 73.7296C290.697 74.7699 292.359 75.3542 294.493 75.4825V76.9083H273.876V75.4825C275.957 75.3802 277.363 75.0336 278.096 74.4416C278.827 73.8513 279.194 73.1316 279.194 72.2842C279.194 71.1547 278.679 69.3693 277.653 66.9283L274.492 59.414" fill="#231F20"/>
  <path d="M340.62 62.4587L341.891 62.7288L337.42 76.9083H296.959V75.4825H298.924C301.134 75.4825 302.714 74.7639 303.664 73.3251C304.204 72.503 304.473 70.6023 304.473 67.6215V33.9054C304.473 30.6434 304.114 28.6013 303.394 27.7792C302.392 26.6483 300.902 26.0829 298.924 26.0829H296.959V24.6575H320.619V26.0829C317.846 26.0581 315.899 26.3147 314.781 26.8535C313.664 27.3929 312.898 28.0736 312.488 28.8957C312.078 29.7191 311.873 31.6837 311.873 34.7914V67.6215C311.873 69.7542 312.078 71.2191 312.488 72.0145C312.797 72.5539 313.271 72.9519 313.915 73.209C314.556 73.4664 316.561 73.5948 319.926 73.5948H323.741C327.748 73.5948 330.562 73.2989 332.18 72.7088C333.798 72.1168 335.275 71.0712 336.611 69.5685C337.947 68.0656 339.283 65.6948 340.62 62.4587Z" fill="#231F20"/>
  <path d="M365.359 7.66492L353.991 20.9578H352.68L356.727 7.66492H365.359ZM367.94 75.4825V76.9083H345.551V75.4825H347.401C349.559 75.4825 351.126 74.8531 352.101 73.5948C352.718 72.7727 353.028 70.7945 353.028 67.6599V33.9054C353.028 31.2601 352.86 29.5124 352.525 28.6656C352.269 28.0227 351.742 27.4703 350.945 27.008C349.816 26.3917 348.634 26.0829 347.401 26.0829H345.551V24.6576H367.94V26.0829H366.053C363.919 26.0829 362.365 26.7136 361.389 27.9714C360.747 28.7934 360.426 30.7716 360.426 33.9054V67.6599C360.426 70.3065 360.592 72.0528 360.926 72.901C361.183 73.5439 361.722 74.095 362.545 74.5582C363.65 75.1745 364.819 75.4825 366.053 75.4825H367.94" fill="#231F20"/>
  <path d="M417.381 23.4631L418.576 41.2265H417.381C415.788 35.9093 413.514 32.0818 410.561 29.7438C407.605 27.4059 404.061 26.2372 399.925 26.2372C396.457 26.2372 393.322 27.118 390.521 28.8774C387.722 30.6368 385.518 33.4431 383.914 37.2959C382.307 41.1496 381.505 45.9405 381.505 51.6689C381.505 56.3959 382.261 60.4932 383.779 63.9614C385.293 67.4294 387.574 70.0882 390.618 71.9376C393.663 73.787 397.137 74.7113 401.042 74.7113C404.434 74.7113 407.425 73.9862 410.021 72.5343C412.615 71.0842 415.467 68.2001 418.576 63.8845L419.77 64.6544C417.15 69.3048 414.092 72.7088 410.598 74.8662C407.104 77.0244 402.955 78.103 398.151 78.103C389.495 78.103 382.789 74.8918 378.038 68.4697C374.491 63.6918 372.718 58.0662 372.718 51.5914C372.718 46.3777 373.888 41.5867 376.226 37.2198C378.562 32.8528 381.78 29.4681 385.878 27.0659C389.976 24.6636 394.453 23.4631 399.308 23.4631C403.084 23.4631 406.808 24.3879 410.483 26.2372C411.562 26.8027 412.332 27.0854 412.794 27.0854C413.488 27.0854 414.092 26.8419 414.606 26.3525C415.274 25.6601 415.75 24.6962 416.033 23.4631H417.381" fill="#231F20"/>
  <path d="M438.999 27.5095V48.1631H450.482C453.462 48.1631 455.453 47.7138 456.455 46.8135C457.791 45.6331 458.536 43.5513 458.69 40.572H460.115V58.7594H458.69C458.33 56.2163 457.97 54.5852 457.611 53.8653C457.147 52.9672 456.39 52.2604 455.337 51.7458C454.283 51.2331 452.665 50.9751 450.482 50.9751H438.999V68.2001C438.999 70.5118 439.1 71.918 439.306 72.4191C439.512 72.9206 439.872 73.3185 440.387 73.6135C440.9 73.9088 441.875 74.0567 443.315 74.0567H452.178C455.132 74.0567 457.277 73.8513 458.613 73.4403C459.948 73.0294 461.233 72.2203 462.467 71.012C464.058 69.4205 465.689 67.0183 467.36 63.807H468.902L464.393 76.9083H424.123V75.4825H425.973C427.207 75.4825 428.376 75.1875 429.481 74.5965C430.302 74.185 430.861 73.5686 431.158 72.7467C431.452 71.9246 431.6 70.2421 431.6 67.699V33.7511C431.6 30.438 431.266 28.3955 430.599 27.6247C429.673 26.5974 428.132 26.0829 425.973 26.0829H424.123V24.6575H464.393L464.971 36.102H463.468C462.929 33.353 462.332 31.4653 461.676 30.438C461.021 29.4102 460.052 28.626 458.768 28.0872C457.74 27.7021 455.928 27.5095 453.334 27.5095H438.999" fill="#231F20"/>
  <path d="M506.897 23.4631V41.5345H505.471C505.009 38.0667 504.181 35.3061 502.985 33.2509C501.791 31.1957 500.089 29.5646 497.881 28.3563C495.67 27.1498 493.383 26.5461 491.02 26.5461C488.349 26.5461 486.139 27.3616 484.392 28.9926C482.645 30.6238 481.772 32.4802 481.772 34.56C481.772 36.1542 482.324 37.6047 483.429 38.9153C485.023 40.8416 488.811 43.4105 494.797 46.6213C499.678 49.2419 503.011 51.2521 504.797 52.6519C506.582 54.0524 507.956 55.703 508.92 57.6037C509.883 59.5045 510.364 61.4958 510.364 63.5756C510.364 67.5324 508.83 70.9424 505.761 73.8066C502.69 76.6712 498.74 78.103 493.911 78.103C492.395 78.103 490.968 77.9864 489.633 77.7564C488.836 77.6268 487.186 77.1591 484.682 76.3489C482.176 75.5398 480.59 75.1358 479.923 75.1358C479.28 75.1358 478.772 75.328 478.4 75.7143C478.027 76.0988 477.751 76.896 477.572 78.103H476.147V60.1852H477.572C478.24 63.9358 479.138 66.7421 480.269 68.6045C481.4 70.4675 483.127 72.0145 485.451 73.2481C487.776 74.4812 490.326 75.0975 493.102 75.0975C496.313 75.0975 498.849 74.2494 500.711 72.5539C502.574 70.8589 503.506 68.8546 503.506 66.5434C503.506 65.2589 503.152 63.9614 502.446 62.6513C501.739 61.3413 500.641 60.1213 499.151 58.9904C498.15 58.2206 495.414 56.5817 490.943 54.0776C486.473 51.5731 483.294 49.5759 481.407 48.0862C479.517 46.596 478.085 44.9519 477.109 43.1534C476.132 41.3553 475.646 39.3771 475.646 37.2198C475.646 33.4691 477.084 30.2388 479.962 27.5278C482.838 24.818 486.499 23.4631 490.943 23.4631C493.718 23.4631 496.659 24.1438 499.768 25.5052C501.207 26.148 502.221 26.4686 502.812 26.4686C503.481 26.4686 504.026 26.2699 504.45 25.8719C504.875 25.474 505.213 24.6701 505.471 23.4631H506.897Z" fill="#231F20"/>
  <path d="M531.097 27.5095V48.1631H542.58C545.56 48.1631 547.551 47.7138 548.553 46.8135C549.889 45.6331 550.634 43.5513 550.788 40.572H552.213V58.7594H550.788C550.428 56.2163 550.068 54.5852 549.709 53.8653C549.246 52.9672 548.488 52.2604 547.435 51.7458C546.382 51.2331 544.764 50.9751 542.58 50.9751H531.097V68.2001C531.097 70.5118 531.199 71.918 531.405 72.4191C531.611 72.9206 531.97 73.3185 532.485 73.6135C532.998 73.9088 533.973 74.0567 535.413 74.0567H544.276C547.23 74.0567 549.375 73.8513 550.711 73.4403C552.046 73.0294 553.331 72.2203 554.565 71.012C556.156 69.4205 557.787 67.0183 559.458 63.807H561L556.491 76.9083H516.222V75.4825H518.071C519.305 75.4825 520.474 75.1875 521.579 74.5965C522.401 74.185 522.96 73.5686 523.256 72.7467C523.55 71.9246 523.698 70.2421 523.698 67.699V33.7511C523.698 30.438 523.364 28.3955 522.697 27.6247C521.771 26.5974 520.23 26.0829 518.071 26.0829H516.222V24.6575H556.491L557.069 36.102H555.566C555.027 33.353 554.43 31.4653 553.774 30.438C553.12 29.4102 552.15 28.626 550.866 28.0872C549.838 27.7021 548.026 27.5095 545.432 27.5095H531.097" fill="#231F20"/>
</svg>
