<svg width="103" height="64" viewBox="0 0 103 64" fill="none" xmlns="http://www.w3.org/2000/svg">
  <path d="M29.1696 53.2886H34.0904C34.6597 53.2886 35.1213 52.8259 35.1213 52.255V27.6291C35.1213 27.0585 34.6597 26.5954 34.0904 26.5954H29.1696C28.6002 26.5954 28.1388 27.0585 28.1388 27.6291V52.255C28.1388 52.8259 28.6002 53.2886 29.1696 53.2886Z" fill="#00AAFF"/>
  <path d="M31.6253 16.5012C29.2509 16.5012 27.4695 18.2388 27.4695 20.5409C27.4695 22.883 29.2054 24.6477 31.5199 24.6477H31.5769C33.951 24.6477 35.7185 22.883 35.7185 20.5409C35.7185 18.2388 33.9653 16.5012 31.6253 16.5012Z" fill="#00AAFF"/>
  <path d="M41.3774 16.5012C39.0058 16.5012 37.2292 18.2388 37.2292 20.5409C37.2292 22.883 38.9678 24.6477 41.272 24.6477H41.3201C43.7014 24.6477 45.4782 22.883 45.4782 20.5409C45.4782 18.2388 43.711 16.5012 41.3774 16.5012Z" fill="#00AAFF"/>
  <path d="M38.5463 53.2886H44.2112C44.5733 53.2886 44.8667 52.9945 44.8667 52.6316V27.2528C44.8667 26.89 44.5733 26.5954 44.2112 26.5954H38.922C38.3525 26.5954 37.8911 27.0585 37.8911 27.6291V52.6316C37.8911 52.9945 38.1845 53.2886 38.5463 53.2886Z" fill="#00AAFF"/>
  <path d="M59.5155 47.3469C55.0314 47.3469 53.4371 43.3386 53.4371 39.8953C53.4371 35.0642 55.8425 31.95 59.5661 31.95C62.0144 31.95 63.9303 33.3787 64.6762 35.778L64.6811 35.8048C64.8106 36.1821 64.8727 36.6585 64.8727 37.3485V41.6912C64.8727 42.4296 64.7651 43.1201 64.5852 43.6105L64.5656 43.6684C63.8562 45.8925 61.8635 47.3469 59.5155 47.3469ZM65.6119 27.1716C65.5909 27.6385 65.072 27.9044 64.6824 27.6481C63.2911 26.7316 61.3999 26.042 58.8491 26.042C52.6668 26.042 46.3966 30.8734 46.3966 40.0949C46.3966 47.5655 51.4632 53.2091 58.1705 53.2091C60.3127 53.2091 62.2845 52.6723 63.9085 51.7127C64.3377 51.4586 64.8731 51.8162 64.8064 52.3115C64.3105 55.9975 62.1345 57.7944 58.1705 57.7944C54.6911 57.7944 52.4057 56.5711 51.5884 56.0393L50.9022 55.5981C50.5718 55.3852 50.1302 55.542 50.0067 55.9158L48.4655 60.5823C48.3792 60.8426 48.4797 61.1286 48.7094 61.2773L49.1299 61.5509C51.2068 62.9022 54.6145 63.7558 58.0266 63.7558C60.3455 63.7558 64.7051 63.3371 67.911 60.5315C70.6399 58.0378 71.8534 54.3226 71.8534 48.4983V34.4445C71.8534 31.3637 71.9061 29.5475 72.057 27.9542L72.1199 27.2528C72.1519 26.8999 71.8747 26.5954 71.5213 26.5954H66.2123C65.8908 26.5954 65.6261 26.8493 65.6119 27.1716Z" fill="#00AAFF"/>
  <path d="M86.6007 48.0422H86.5549C82.9748 48.0422 80.3829 44.6533 80.3829 39.998C80.3829 35.9297 82.3273 31.8472 86.704 31.8472C91.5814 31.8472 92.8831 37.0818 92.8831 39.8445C92.8831 44.5912 90.238 48.0422 86.6007 48.0422ZM86.8595 26.042C78.9081 26.042 73.3425 31.8472 73.3425 40.1475C73.3425 44.1632 74.6541 47.6043 77.1311 50.1148C79.5098 52.5288 82.8285 53.854 86.4371 53.854H86.4975C93.0076 53.854 100.015 49.42 100.015 39.6853C100.015 31.6546 94.6022 26.042 86.8595 26.042" fill="#00AAFF"/>
  <path d="M21.048 17.0846C21.048 17.0846 17.2655 13.3184 17.7895 14.3086C19.1868 16.8559 19.9709 19.482 21.3677 21.7282C21.3677 21.7282 22.529 2.9377 40.6388 1.51024C51.4261 0.668607 57.5172 7.53866 58.6999 14.1404C61.4053 13.5789 72.5629 11.5071 80.4259 21.4201C84.6891 19.3659 99.9617 19.5924 102.763 32.5706C99.9617 16.1537 80.3997 19.3804 81.0368 20.0572C81.0368 20.0572 74.2074 10.9644 60.8617 12.8889C60.8617 12.8889 58.1882 -0.390603 39.9991 0.26801C39.9991 0.26801 23.1929 1.82132 21.048 17.0846Z" fill="#00AAFF"/>
  <path d="M19.3654 35.8978C16.8332 34.7618 14.3491 33.5488 11.9084 32.2587C8.97233 30.7188 8.94348 28.1593 11.5358 26.1799C13.0434 25.035 14.7579 24.9358 16.412 24.4895C18.9324 23.8242 19.2426 23.4074 18.2279 21.133C17.9077 20.4265 17.5882 19.7198 17.268 18.9995C16.9702 18.3455 16.6358 17.7071 16.3475 17.0557C16.0996 16.5156 15.9191 15.8039 15.5439 15.3461C15.5175 15.305 15.4912 15.2662 15.4481 15.2473C15.0056 14.8756 14.0293 15.0835 13.5148 15.2181C12.1513 15.5851 10.8026 16.1728 9.47969 16.6698C4.02092 18.6713 0.601306 22.6816 0.132771 28.4105C-0.232952 33.1826 1.52744 38.642 7.4717 41.1109C10.1316 42.2299 12.9975 42.9698 15.371 44.8846C17.7761 46.8159 18.2037 49.0752 16.1501 51.3323C13.9114 53.8045 10.8719 53.953 7.89758 54.146C6.39682 54.2571 5.58416 54.3056 6.2791 56.28C6.9117 58.1053 7.29137 60.0825 7.71438 61.9995C8.00572 63.3333 8.61631 63.4949 9.66235 63.4365C14.729 63.1717 19.0335 61.436 22.8493 57.8429C28.9215 52.1038 27.565 39.5555 19.3654 35.8978Z" fill="#00AAFF"/>
</svg>
