<?xml version="1.0" encoding="UTF-8"?>
<svg width="105px" height="117px" viewBox="0 0 105 117" version="1.1" xmlns="http://www.w3.org/2000/svg" xmlns:xlink="http://www.w3.org/1999/xlink">
    <!-- Generator: Sketch 53.2 (72643) - https://sketchapp.com -->
    <title>cupon</title>
    <desc>Created with Sketch.</desc>
    <g id="PAGOS" stroke="none" stroke-width="1" fill="none" fill-rule="evenodd">
        <g id="cupon" transform="translate(-14.000000, -6.000000)" fill-rule="nonzero">
            <g id="discount-2-copy">
                <g id="discount" transform="translate(67.013394, 68.613492) rotate(19.000000) translate(-67.013394, -68.613492) translate(15.013394, 14.113492)">
                    <ellipse id="Oval" fill="#D9F5EC" cx="51.950324" cy="57.1313025" rx="51.950324" ry="51.6628151"></ellipse>
                    <path d="M92.6133909,89.2515958 C88.456128,94.4568894 83.3147513,98.8442545 77.4684104,102.132554 C73.6751764,104.266975 69.5880047,105.936609 65.2824562,107.067227 L63.1148939,107.067227 C58.7925316,107.067227 54.5380322,106.027422 50.706714,104.034581 L28.0727044,92.2504647 L23.0879188,89.5137213 L17.6544276,86.5296173 L45.065785,85.2616663 C48.162563,85.2616663 47.3941926,77.6788383 47.3941926,74.5891559 L62.2132285,48.9285714 L80.6243405,67.3107251 C83.1389154,69.8213449 85.1053198,72.7821893 86.4411054,76.0031366 C87.776891,79.224084 88.4836783,82.7047297 88.4836783,86.2571767 L92.6133909,89.2515958 Z" id="Path" fill="#FFCDA8"></path>
                    <g id="Group" transform="translate(7.235421, 38.567227)" fill="#EAB796">
                        <path d="M70.2209719,63.5015147 C66.4149104,65.6276338 62.3139172,67.2907735 57.9938086,68.4169941 L55.8189163,68.4169941 C51.4819371,68.4169941 47.2130503,67.3812338 43.3687757,65.3961441 L20.6582249,53.6578632 L15.6565823,50.9317647 L47.5039168,53.3127441 C47.5039168,53.3127441 53.6651631,63.5017162 70.2165002,63.5017162 C70.2187361,63.5015147 70.2187361,63.5015147 70.2209719,63.5015147 Z" id="Path"></path>
                        <path d="M10.3108189,0.214364706 L7.20133271,0.214364706 C7.04746416,0.204895588 6.89379887,0.197441176 6.74236946,0.197441176 C5.11160674,0.197441176 3.48348641,0.814545588 2.238513,2.04855294 C-0.248994682,4.51394853 -0.248994682,8.511125 2.238513,10.9767221 L5.7439516,14.4537015 C4.37214335,14.6134676 3.04403621,15.2134471 1.99195745,16.2562588 C-0.495550232,18.7218559 -0.495550232,22.72145 1.99195745,25.1870471 L3.83248549,27.0113632 C4.36482595,27.5388132 4.96769797,27.9550515 5.61467762,28.2550412 C5.6569559,28.225425 5.70106353,28.1998382 5.7439516,28.1716324 L5.7439516,28.3104456 C5.70106353,28.2915074 5.65715917,28.2749868 5.61467762,28.2550412 C5.30450139,28.4629588 5.00916321,28.7051265 4.73354134,28.9785221 C2.24603366,31.4463353 2.24603366,35.4437132 4.73354134,37.9093103 L6.57406938,39.7338279 C6.77428143,39.9298588 6.98425,40.1109809 7.20153597,40.2757838 L7.20153597,35.4336397 L10.3110222,35.4336397 C10.3108189,35.4336397 10.3108189,0.214364706 10.3108189,0.214364706 Z" id="Path"></path>
                    </g>
                    <path d="M56.5958085,7.12190359e-13 L20.1014867,7.12190359e-13 C16.9917045,7.12190359e-13 14.4708423,2.66063937 14.4708423,5.94550402 L14.4708423,86.1577 C14.4708423,89.440201 16.9917045,92.1008403 20.1014867,92.1008403 L54.8082992,92.1008403 C51.7898555,88.151353 56.8191709,82.9557789 58.1837564,78.3193215 L59.2381164,64.8633452 L62.1037392,61.1175824 L62.224622,57.8984523 L62.224622,5.94550402 C62.2244186,2.66063937 59.7055907,7.12190359e-13 56.5958085,7.12190359e-13 Z" id="Path" fill="#1FBE92"></path>
                    <path d="M70.5606576,64.7411205 L65.0300399,59.1824089 L65.0300399,51.7484426 L62.224622,48.9285714 L62.224622,59.7257203 L68.8875651,66.4225092 C69.6329086,67.1714361 70.9071274,66.6410897 70.9071274,65.5818148 C70.9069259,65.2664025 70.782366,64.9639551 70.5606576,64.7411205 Z" id="Path" fill="#EAB796"></path>
                    <path d="M18.5226782,38.4125937 L18.5226782,30.6423398 C18.5226782,25.6052105 21.8627529,23.7293197 26.2264804,23.7293197 C30.5361824,23.7293197 33.876257,25.604808 33.876257,30.6423398 L33.876257,38.4125937 C33.876257,43.4499243 30.5361824,45.3256139 26.2264804,45.3256139 C21.8627529,45.3256139 18.5226782,43.4501256 18.5226782,38.4125937 Z M29.2972366,30.6421385 C29.2972366,28.6593702 28.1119118,27.7483957 26.2264804,27.7483957 C24.341049,27.7483957 23.2095474,28.6591689 23.2095474,30.6421385 L23.2095474,38.4123925 C23.2095474,40.3951608 24.3408467,41.3063365 26.2264804,41.3063365 C28.1121141,41.3063365 29.2972366,40.3953621 29.2972366,38.4123925 L29.2972366,30.6421385 Z M50.630656,23.9972178 C50.630656,24.3188566 50.5770351,24.6402941 50.4153631,24.9619329 L31.0211984,63.8671446 C30.6978544,64.6172997 29.8358735,65.0462185 28.9202718,65.0462185 C27.4118053,65.0462185 26.3881524,63.8136052 26.3881524,62.6884733 C26.3881524,62.3668345 26.4960012,62.0453969 26.6038499,61.7774988 L45.9978123,22.7112665 C46.3749796,21.9611114 47.1291116,21.5861345 47.9372693,21.5861345 C49.176215,21.5859332 50.630656,22.5504471 50.630656,23.9972178 Z M42.8192073,56.15043 L42.8192073,48.3801761 C42.8192073,43.3428455 46.159282,41.4671559 50.5230095,41.4671559 C54.8327115,41.4671559 58.1727862,43.3426443 58.1727862,48.3801761 L58.1727862,56.15043 C58.1727862,61.2415012 54.8325092,63.0634502 50.5230095,63.0634502 C46.1594843,63.0632489 42.8192073,61.2412999 42.8192073,56.15043 Z M53.5937658,48.3801761 C53.5937658,46.3974077 52.4086433,45.486232 50.5232119,45.486232 C48.6375781,45.486232 47.5062789,46.3970052 47.5062789,48.3801761 L47.5062789,56.15043 C47.5062789,58.1331984 48.6373758,59.0443741 50.5232119,59.0443741 C52.4086433,59.0443741 53.5937658,58.1336009 53.5937658,56.15043 L53.5937658,48.3801761 Z" id="Shape" fill="#FFFFFF"></path>
                    <path d="M49.1287707,49.2163866 L49.1287707,49.8243285 L46.3709452,49.8243285 L46.3709452,49.4943952 C45.3044448,49.8194795 44.3002842,50.4005499 43.4562515,51.2374045 C43.1001402,51.5905725 42.7896632,51.9720263 42.5256356,52.3744923 L42.5256356,53.113761 L42.1027025,53.113761 C41.6251711,54.0815383 41.3866091,55.1359912 41.3866091,56.1922626 C41.3866091,57.9853781 42.0766257,59.7786956 43.4564552,61.1473226 L51.5940471,69.2174537 C53.7299002,71.3356535 54.3563546,74.5679083 53.0547555,77.2710174 C52.760984,77.8801715 52.5140693,78.5085196 52.3158448,79.1441412 L46.0718769,79.1441412 L46.0718769,79.1443432 L52.3152337,79.1443432 C50.9492575,83.5023716 51.7745475,88.3875254 54.7968081,92.1008403 L55.9943037,92.1008403 C59.4193286,92.1008403 62.1989527,89.3599496 62.224622,85.9692945 L62.224622,59.9413388 L59.9673489,57.7033286 L55.7345543,53.5051148 L55.7345543,55.9043539 L52.9767288,55.9043539 L52.9767288,53.1693223 L55.3959633,53.1693223 L53.4481485,51.2376066 C52.2418927,50.0393003 50.7060098,49.365695 49.1287707,49.2163866" id="Path" fill="#FFFFFF"></path>
                    <path d="M58.2731985,79.1524265 C56.9048662,83.5086059 51.8619454,88.3901031 54.888473,92.1008403 L51.0519203,92.1008403 C48.0251887,88.3880842 47.1982329,83.5086059 48.5667693,79.1524265 C48.7650429,78.5174826 49.0122729,77.8908162 49.3064194,77.2813104 C50.6109045,74.5810323 49.9820183,71.3513988 47.8442539,69.2333713 L39.6958632,61.1706943 C38.3146798,59.8016785 37.6241901,58.0105109 37.6241901,56.2195451 C37.6241901,54.4243397 38.3146798,52.6353929 39.6958632,51.268396 C42.4602699,48.5323834 46.9405997,48.5323834 49.7007227,51.268396 L56.2292674,57.7298839 L58.4886069,59.9637962 L59.3304536,66.509674 L58.2731985,79.1524265 Z" id="Path" fill="#1CB289"></path>
                    <g id="Group" transform="translate(42.544276, 48.928571)" fill="#E3E3E3">
                        <path d="M13.5566903,8.53651029 L11.0733934,6.09025441 L11.0733934,6.99969265 C11.0733934,8.98478235 9.87673964,9.89643676 7.97039718,9.89643676 C6.06405472,9.89643676 4.92078099,8.98498382 4.92078099,6.99969265 L4.92078099,0.661025 C3.4292076,-0.00423088235 1.74947467,-0.134783824 0.183046508,0.273597059 L0.183046508,6.99949118 C0.183046508,12.0960926 3.55948763,13.9192 7.97039718,13.9192 C11.2848684,13.9192 14.0332248,12.8624868 15.1572735,10.1110029 L13.5566903,8.53651029 Z" id="Path"></path>
                    </g>
                    <path d="M59.8600722,57.7124431 L53.3780665,51.2634555 C50.636809,48.5340302 46.1882148,48.5340302 43.4445269,51.2634555 C42.0727842,52.6283697 41.3866091,54.4142028 41.3866091,56.2048719 C41.3866091,57.993123 42.0725817,59.7813741 43.4445269,61.1462882 L51.5344265,69.1947279 C53.6577619,71.3071813 54.2805448,74.5304662 52.986574,77.2262421 C52.6947268,77.8337438 52.4490566,78.4603872 52.2519939,79.0942845 C50.8924031,83.4404903 51.7144766,88.3115855 54.7184169,92.0164388 L57.4442821,94.9789916 C60.5405765,94.9789916 65.6976242,91.109317 65.6976242,88.0311071 L62.1029009,59.9437775 L59.8600722,57.7124431 Z" id="Path" fill="#FFCDA8"></path>
                    <path d="M51.8868671,53.3429406 C50.2130683,51.6784035 47.4993424,51.6784035 45.8255435,53.3429406 C44.1517447,55.0074778 44.1517447,57.7061875 45.8255435,59.3707246 C47.4993424,61.0352617 48.9447098,59.7737178 50.6185086,58.1091807 C52.2921027,56.4448473 53.560666,55.0074778 51.8868671,53.3429406 Z" id="Path" fill="#F2E5E5"></path>
                </g>
            </g>
        </g>
    </g>
</svg>