<?xml version="1.0" encoding="UTF-8"?>
<svg width="76px" height="78px" viewBox="0 0 76 78" version="1.1" xmlns="http://www.w3.org/2000/svg" xmlns:xlink="http://www.w3.org/1999/xlink">
    <title>1.1.9</title>
    <g id="Page-2" stroke="none" stroke-width="1" fill="none" fill-rule="evenodd">
        <g id="1.1.9">
            <path d="M15.0353111,78 C6.76586784,78 0,71.056083 0,62.5690228 L0,15.4309772 C0,6.94391699 6.76586784,0 15.0353111,0 L60.9646889,0 C69.2341322,0 76,6.94391699 76,15.4309772 L76,62.5690228 C76,71.056083 69.2341322,78 60.9646889,78 L15.0353111,78 Z" id="Fill-1-Copy-20" fill="#FFFFFF"></path>
            <g id="Group-35" transform="translate(11.000000, 17.000000)" fill-rule="nonzero">
                <path d="M49.1009393,10.634571 C53.5904832,19.7156938 46.4990446,32.3170271 33.3365183,38.8472728 C20.1229744,45.3775184 5.78704457,43.3368166 1.34851825,34.2556938 C-3.14102561,25.174571 3.95041299,12.5732377 17.1129393,6.04299205 C30.2754656,-0.487253562 44.6113954,1.55344819 49.1009393,10.634571" id="Path" fill="#003998"></path>
                <path d="M11.1438867,15.2261499 C11.1438867,15.2261499 27.8266235,19.3075535 28.7449393,33.4904306 C29.7142726,33.6434833 29.7142726,33.4904306 29.7142726,33.4904306 C29.7142726,33.4904306 40.070834,3.44109731 57.8759569,0.0229218761 C57.8759569,0.0229218761 41.19322,-1.55862198 28.7959569,21.5523254 C20.6331498,12.6242552 11.1438867,15.2261499 11.1438867,15.2261499" id="Path" fill="#FFFFFF"></path>
                <path d="M24.0003077,34.2046763 C17.0109042,33.7455184 11.5010095,31.0926061 11.7050797,28.3376587 C11.9091498,25.5827113 17.7761674,23.7460798 24.7655709,24.2052377 C24.867606,24.2052377 25.0206586,24.2052377 25.1226937,24.2562552 C23.3880972,23.5930271 21.3473954,23.1338692 19.1536411,22.9808166 C12.5723779,22.5216587 7.01146562,24.9705008 6.7563779,28.4907113 C6.50129018,31.9599043 11.6030446,35.1740096 18.1843077,35.6331675 C21.5004481,35.8372377 24.5615007,35.3270622 26.8062726,34.3577289 C25.8879569,34.3067113 24.9696411,34.3067113 24.0003077,34.2046763" id="Path" fill="#FFFFFF"></path>
            </g>
        </g>
    </g>
</svg>