<?xml version="1.0" encoding="UTF-8"?>
<svg width="76px" height="78px" viewBox="0 0 76 78" version="1.1" xmlns="http://www.w3.org/2000/svg" xmlns:xlink="http://www.w3.org/1999/xlink">
    <title>1.1.10</title>
    <g id="Page-2" stroke="none" stroke-width="1" fill="none" fill-rule="evenodd">
        <g id="1.1.10">
            <path d="M15.0353111,78 C6.76586784,78 -7.10542736e-15,71.056083 -7.10542736e-15,62.5690228 L-7.10542736e-15,15.4309772 C-7.10542736e-15,6.94391699 6.76586784,0 15.0353111,0 L60.9646889,0 C69.2341322,0 76,6.94391699 76,15.4309772 L76,62.5690228 C76,71.056083 69.2341322,78 60.9646889,78 L15.0353111,78 Z" id="Fill-1-Copy-20" fill="#FFFFFF"></path>
            <path d="M59.606159,32 C60.2308648,32 60.7374068,32.5081215 60.7374068,33.1347754 C60.7374068,33.7614292 60.2308648,34.2695508 59.606159,34.2695508 L59.606159,34.2695508 L58.4749112,34.2695508 L58.4749112,51.5177645 L59.606159,51.5177645 C60.2308648,51.5177645 60.7374068,52.0258861 60.7374068,52.6525399 L60.7374068,52.6525399 L60.7374068,56.0567682 L61.8686546,56.0567682 C62.4933604,56.0567682 63,56.5648897 63,57.1914456 L63,57.1914456 L63,62.8652246 C63,63.4918785 62.493458,64 61.8687522,64 L61.8687522,64 L14.1312478,64 C13.506542,64 13,63.4917805 13,62.8652246 L13,62.8652246 L13,57.1914456 C13,56.5648897 13.506542,56.0567682 14.1312478,56.0566702 L14.1312478,56.0566702 L15.2623979,56.0566702 L15.2623979,52.652442 C15.2623979,52.0257881 15.7689399,51.5176666 16.3936457,51.5176666 L16.3936457,51.5176666 L17.5248935,51.5176666 L17.5248935,34.2695508 L16.3936457,34.2695508 C15.7689399,34.2695508 15.2623979,33.7614292 15.2623979,33.1347754 C15.2623979,32.5081215 15.7689399,32 16.3936457,32 L16.3936457,32 Z M58.4749112,53.7872174 L17.5247959,53.7872174 L17.5247959,56.0566702 L24.3812278,56.0566702 C25.0059336,56.0566702 25.5124756,56.5647917 25.5124756,57.1914456 C25.5124756,57.8180994 25.0059336,58.326221 24.3812278,58.326221 L24.3812278,58.326221 L15.2623979,58.326221 L15.2623979,61.7304492 L60.7375044,61.7304492 L60.7375044,58.326221 L28.240107,58.326221 C27.6154011,58.326221 27.1088592,57.8180994 27.1088592,57.1914456 C27.1088592,56.5647917 27.6154011,56.0566702 28.240107,56.0566702 L28.240107,56.0566702 L58.4749112,56.0566702 L58.4749112,53.7872174 Z M56.2125133,34.2695508 L53.9501153,34.2695508 L53.9501153,51.5177645 L56.2125133,51.5177645 L56.2125133,34.2695508 Z M51.6877174,34.2695508 L47.238312,34.2695508 L47.238312,51.5177645 L51.6877174,51.5177645 L51.6877174,34.2695508 Z M44.9758165,34.2695508 L42.7134185,34.2695508 L42.7134185,51.5177645 L44.9758165,51.5177645 L44.9758165,34.2695508 Z M40.4510206,34.2695508 L35.5489794,34.2695508 L35.5489794,51.5177645 L40.4510206,51.5177645 L40.4510206,34.2695508 Z M33.2864838,34.2695508 L31.0240859,34.2695508 L31.0240859,51.5177645 L33.2864838,51.5177645 L33.2864838,34.2695508 Z M28.7615903,34.2695508 L24.3121849,34.2695508 L24.3121849,51.5177645 L28.7615903,51.5177645 L28.7615903,34.2695508 Z M22.049787,34.2695508 L19.7872914,34.2695508 L19.7872914,51.5176666 L22.049787,51.5176666 L22.049787,34.2695508 Z M36.9045086,14.1751471 C37.2687275,13.9416176 37.7314179,13.9416176 38.0956368,14.1751471 L38.0956368,14.1751471 L59.4761281,27.8895526 C59.8984249,28.1604744 60.0942083,28.6841645 59.9562129,29.1736194 C59.8182175,29.6629756 59.3794927,30 58.880564,30 L58.880564,30 L16.1195814,30 C15.6206527,30 15.1820245,29.662877 15.0438359,29.1735207 C14.9057438,28.6840659 15.1015272,28.1604744 15.5239207,27.889454 L15.5239207,27.889454 Z M37.5000727,16.4925843 L20.0054852,27.7142329 L54.9946603,27.7142329 L37.5000727,16.4925843 Z" id="Combined-Shape" fill="#75A7FF" fill-rule="nonzero"></path>
        </g>
    </g>
</svg>