<svg width="76" height="78" fill="none" xmlns="http://www.w3.org/2000/svg">
    <path fill-rule="evenodd" clip-rule="evenodd" d="M15.035 78C6.765 78 0 71.056 0 62.569V15.431C0 6.944 6.766 0 15.035 0h45.93C69.235 0 76 6.944 76 15.431v47.138C76 71.056 69.234 78 60.965 78h-45.93z" fill="#fff"/>
    <path d="M49.15 15.006a170.435 170.435 0 00-26.79 5.338 2.38 2.38 0 00-1.574 2.792l1.632 6.355c.277 1.077 1.37 1.63 2.478 1.266 9.022-2.764 18.074-4.669 27.417-6.05 1.064-.146 1.647-1.251 1.254-2.356a464.643 464.643 0 00-2.085-5.818 2.283 2.283 0 00-2.332-1.527zm7.638 14.136c-14.284 1.833-28.22 5.352-41.41 11.184a2.591 2.591 0 00-1.341 2.72l1.311 6.835c.22 1.164 1.312 1.687 2.39 1.164 13.41-6.123 27.564-10.035 42.096-12.362.933-.146 1.4-1.193 1.05-2.283l-1.851-5.629c-.35-1.047-1.312-1.745-2.245-1.629zm-.19 15.184c-8.92 1.934-17.636 4.26-26.295 7.228a2.229 2.229 0 00-1.428 2.617l1.735 6.341c.32 1.193 1.676 1.804 2.915 1.324a259.946 259.946 0 0126.266-7.94c.86-.205 1.282-1.208.962-2.24a540.612 540.612 0 00-1.779-5.687c-.364-1.12-1.399-1.847-2.375-1.643z" fill="#000"/>
</svg>