<?xml version="1.0" encoding="UTF-8"?>
<svg width="76px" height="78px" viewBox="0 0 76 78" version="1.1" xmlns="http://www.w3.org/2000/svg" xmlns:xlink="http://www.w3.org/1999/xlink">
    <!-- Generator: Sketch 53.2 (72643) - https://sketchapp.com -->
    <title>1.2.1-h</title>
    <desc>Created with Sketch.</desc>
    <g id="Page-2" stroke="none" stroke-width="1" fill="none" fill-rule="evenodd">
        <g id="1.2.1-h">
            <path d="M15.0353111,78 C6.76586784,78 -7.10542736e-15,71.056083 -7.10542736e-15,62.5690228 L-7.10542736e-15,15.4309772 C-7.10542736e-15,6.94391699 6.76586784,0 15.0353111,0 L60.9646889,0 C69.2341322,0 76,6.94391699 76,15.4309772 L76,62.5690228 C76,71.056083 69.2341322,78 60.9646889,78 L15.0353111,78 Z" id="Fill-1-Copy-26" fill="#75A7FF"></path>
            <path d="M39,55.147879 C39.0000267,52.9232484 39.7092512,50.7546162 41.0192792,48.9504627 L41.0192792,32.6956995 C41.0192792,32.0860098 41.5296141,31.6614045 42.1397971,31.6614045 L46.4332668,31.6614045 C47.0434499,31.6614045 47.564879,32.0968971 47.564879,32.6956995 L47.564879,44.6826347 C48.2527217,44.519325 48.9627529,44.4322265 49.672784,44.4104518 L49.672784,27.0125204 C49.672784,26.413718 50.2053074,26 50.8154904,26 L55.1089602,26 C55.7191432,26 56.2183839,26.413718 56.2183839,27.0125204 L56.2183839,46.2939575 C59.2138278,48.3081111 61,51.6396298 61,55.2106696 C61,61.1660316 56.0741588,66 49.9945169,66 C43.9259693,66 39.0001281,61.1660316 39.0001281,55.1997823 C39.0000427,55.1825245 39,55.16527 39,55.1480188 L39,58.9054726 C39,59.5074627 38.4661017,60 37.8135593,60 L33.1864407,60 C32.5338983,60 32,59.5074627 32,58.9054726 L32,39.0945274 C32,38.4925373 32.5338983,38 33.1864407,38 L37.8135593,38 C38.4661017,38 39,38.4925373 39,39.0945274 L39,55.147879 Z M51.8916314,28.1774633 L51.8916314,44.5737616 C52.6127568,44.6826347 53.322788,44.8786064 53.9995365,45.139902 L53.9995365,28.1774633 L51.8916314,28.1774633 Z M43.2381266,33.8388677 L43.2381266,46.6750136 C43.8926866,46.1850844 44.6027177,45.7713664 45.3460316,45.4338596 L45.3460316,33.8388677 L43.2381266,33.8388677 Z M57.5607865,59.5873707 C60.0348014,55.4937398 58.6590051,50.2133914 54.4876829,47.7855199 C53.3449765,47.1105063 52.0469508,46.7076756 50.7156423,46.6096897 L50.7045481,46.6096897 C50.4715691,46.5879151 50.2496844,46.5770278 50.0167054,46.5770278 C48.9960356,46.5770278 47.9753658,46.7512248 47.0212614,47.0996189 C46.910319,47.1649428 46.7882824,47.2193794 46.6551516,47.2411541 C43.3712574,48.5694066 41.2300697,51.715841 41.2300697,55.1997823 C41.2300697,59.9466522 45.1574296,63.8116494 50.0056111,63.8116494 C53.1009033,63.8116494 55.9743106,62.2112139 57.5607865,59.5873707 Z M49.9878329,54.5879828 C51.6319625,54.5879828 53.1165871,55.4678112 53.7177986,56.8090129 C54.5153242,58.6008584 53.509215,60.6287554 51.4479182,61.3369099 L51.4479182,61.9270386 C51.4479182,62.5171674 50.8957851,63 50.2209558,63 C49.5461264,63 48.9939934,62.5171674 48.9939934,61.9270386 L48.9939934,61.444206 C47.2394371,61.0472103 46.0124747,59.6523605 46.0002051,58.0643777 L46.0002051,58.0536481 C45.9879354,57.4635193 46.5277989,56.9914163 47.2026282,56.9914163 C47.8774576,56.9914163 48.4295906,57.4742489 48.4295906,58.0643777 C48.4295906,58.804721 49.1166896,59.416309 49.9632937,59.416309 C50.8098977,59.416309 51.5092663,58.8154506 51.5092663,58.0751073 C51.5092663,57.3347639 50.8221674,56.723176 49.9755633,56.723176 C48.1596589,56.723176 46.5768774,55.6502146 46.1351709,54.1051502 C45.5830378,52.2381974 46.8713484,50.3283262 49.006263,49.8454936 L49.006263,49.0729614 C49.006263,48.4828326 49.5583961,48 50.2332254,48 C50.9080547,48 51.4601878,48.4828326 51.4601878,49.0729614 L51.4601878,49.9635193 C52.9938908,50.4892704 54,51.7875536 54,53.2253219 C53.9877304,53.8261803 53.4355973,54.2982833 52.7484983,54.2982833 C52.073669,54.2982833 51.5215359,53.8154506 51.5215359,53.2253219 C51.5215359,52.4849785 50.834437,51.8733906 49.9755633,51.8733906 C49.1166896,51.8841202 48.4418603,52.4849785 48.4418603,53.2360515 C48.4418603,53.9871245 49.1289592,54.5879828 49.9878329,54.5879828 Z M28.8135593,40 C29.4661017,40 30,40.4830508 30,41.0734463 L30,57.9265537 C30,58.5169492 29.4661017,59 28.8135593,59 L24.1864407,59 C23.5338983,59 23,58.5169492 23,57.9265537 L23,41.0734463 C23,40.4830508 23.5338983,40 24.1864407,40 L28.8135593,40 Z M27.6271186,56.960452 L27.6271186,42.1468927 L25.3728814,42.1468927 L25.3728814,56.960452 L27.6271186,56.960452 Z M36.6271186,57.8109453 L36.6271186,40.1890547 L34.3728814,40.1890547 L34.3728814,57.8109453 L36.6271186,57.8109453 Z M20.8135593,49 C21.4661017,49 22,49.4945055 22,50.0989011 L22,57.9010989 C22,58.5054945 21.4661017,59 20.8135593,59 L16.1864407,59 C15.5338983,59 15,58.5054945 15,57.9010989 L15,50.0989011 C15,49.4945055 15.5338983,49 16.1864407,49 L20.8135593,49 Z M19.6271186,56.9120879 L19.6271186,51.1978022 L17.3728814,51.1978022 L17.3728814,56.9120879 L19.6271186,56.9120879 Z M55.8963747,12 C56.5033686,12 57,12.49165 57,13.0794923 L56.9889637,20.4114896 C56.9889637,21.01002 56.5033686,21.50167 55.8853385,21.512358 C55.2673083,21.490982 54.7817132,21.01002 54.7817132,20.4114896 L54.7927494,15.6553106 L42.0569137,28 C41.8472249,28.2030728 41.5713186,28.3313293 41.2733397,28.3420174 C40.9753609,28.3313293 40.6884184,28.2137609 40.4897658,28 L36.307026,23.9171677 L15.8899583,43.6900468 C15.6802695,43.8931196 15.4043632,44 15.1063843,44 C14.8084055,44 14.5324992,43.8931196 14.3228104,43.6900468 C13.8923965,43.2839011 13.8923965,42.6105544 14.3228104,42.1937208 L35.5124158,21.6726787 C35.7221046,21.4802939 36.0090472,21.3841015 36.2959897,21.3947896 C36.5829323,21.3841015 36.8698749,21.4802939 37.0795637,21.6726787 L41.2623035,25.6913828 L53.2366378,14.1376086 L48.3475778,14.1482966 C48.3365415,14.1482966 48.3365415,14.1482966 48.3255053,14.1482966 C47.7185114,14.1376086 47.22188,13.6566466 47.2329163,13.0688043 C47.2439525,12.4809619 47.7405839,12 48.3475778,12.010688 L55.8963747,12 Z" id="Combined-Shape-Copy-15" fill="#FFFFFF" fill-rule="nonzero"></path>
        </g>
    </g>
</svg>