<?xml version="1.0" encoding="UTF-8"?>
<svg width="45px" height="45px" viewBox="0 0 45 45" version="1.1" xmlns="http://www.w3.org/2000/svg" xmlns:xlink="http://www.w3.org/1999/xlink">
    <!-- Generator: Sketch 53.2 (72643) - https://sketchapp.com -->
    <title>2.1.5</title>
    <desc>Created with Sketch.</desc>
    <g id="Page-2" stroke="none" stroke-width="1" fill="none" fill-rule="evenodd">
        <g id="2.1.5" transform="translate(-15.000000, -16.000000)">
            <path d="M15.0353111,78 C6.76586784,78 -7.10542736e-15,71.056083 -7.10542736e-15,62.5690228 L-7.10542736e-15,15.4309772 C-7.10542736e-15,6.94391699 6.76586784,0 15.0353111,0 L60.9646889,0 C69.2341322,0 76,6.94391699 76,15.4309772 L76,62.5690228 C76,71.056083 69.2341322,78 60.9646889,78 L15.0353111,78 Z" id="Fill-1-Copy-51"></path>
            <path d="M57.3632812,41.6860352 C59.0112305,43.723999 60,46.3160859 60,49.1347656 C60,55.677124 54.677124,61 48.1347656,61 C44.0296555,61 40.4051972,58.9040146 38.2738495,55.7265625 L16.3183594,55.7265625 C15.5901718,55.7265625 15,55.1363907 15,54.4082031 L15,20.0429688 C15,19.3147812 15.5901718,18.7246094 16.3183594,18.7246094 L22.9980469,18.7246094 L22.9980469,17.3183594 C22.9980469,16.5901718 23.5882187,16 24.3164062,16 C25.0445938,16 25.6347656,16.5901718 25.6347656,17.3183594 L25.6347656,18.7246094 L30.9082031,18.7246094 L30.9082031,17.3183594 C30.9082031,16.5901718 31.498375,16 32.2265625,16 C32.95475,16 33.5449219,16.5901718 33.5449219,17.3183594 L33.5449219,18.7246094 L38.8183594,18.7246094 L38.8183594,17.3183594 C38.8183594,16.5901718 39.4085312,16 40.1367188,16 C40.8649063,16 41.4550781,16.5901718 41.4550781,17.3183594 L41.4550781,18.7246094 L46.7285156,18.7246094 L46.7285156,17.3183594 C46.7285156,16.5901718 47.3186875,16 48.046875,16 C48.7750625,16 49.3652344,16.5901718 49.3652344,17.3183594 L49.3652344,18.7246094 L56.0449219,18.7246094 C56.7731094,18.7246094 57.3632812,19.3147812 57.3632812,20.0429688 L57.3632812,41.6860352 Z M22.9980469,21.3613281 L17.6367188,21.3613281 L17.6367188,26.6347656 L54.7265625,26.6347656 L54.7265625,21.3613281 L49.3652344,21.3613281 L49.3652344,22.6796875 C49.3652344,23.407875 48.7750625,23.9980469 48.046875,23.9980469 C47.3186875,23.9980469 46.7285156,23.407875 46.7285156,22.6796875 L46.7285156,21.3613281 L41.4550781,21.3613281 L41.4550781,22.6796875 C41.4550781,23.407875 40.8649063,23.9980469 40.1367188,23.9980469 C39.4085312,23.9980469 38.8183594,23.407875 38.8183594,22.6796875 L38.8183594,21.3613281 L33.5449219,21.3613281 L33.5449219,22.6796875 C33.5449219,23.407875 32.95475,23.9980469 32.2265625,23.9980469 C31.498375,23.9980469 30.9082031,23.407875 30.9082031,22.6796875 L30.9082031,21.3613281 L25.6347656,21.3613281 L25.6347656,22.6796875 C25.6347656,23.407875 25.0445938,23.9980469 24.3164063,23.9980469 C23.5882187,23.9980469 22.9980469,23.407875 22.9980469,22.6796875 L22.9980469,21.3613281 Z M17.6367188,53.0898438 L36.9482803,53.0898438 C36.6502762,52.2500763 36.4446259,51.3670502 36.3433457,50.453125 L34.9511719,50.453125 C34.2229843,50.453125 33.6328125,49.8629532 33.6328125,49.1347656 C33.6328125,48.4065781 34.2229843,47.8164063 34.9511719,47.8164063 L36.3433457,47.8164063 C36.4446259,46.902481 36.6506196,46.019455 36.9482803,45.1796875 L34.9511719,45.1796875 C34.2229843,45.1796875 33.6328125,44.5895157 33.6328125,43.8613281 C33.6328125,43.1331406 34.2229843,42.5429688 34.9511719,42.5429688 L37.5878906,42.5429688 C37.8014374,42.5429688 38.0022812,42.5948105 38.1804657,42.684761 C40.2980805,39.4280014 43.9688873,37.2695313 48.1347656,37.2695313 C50.5720139,37.2695313 52.8400039,38.0087051 54.7265625,39.2738495 L54.7265625,29.2714844 L17.6367188,29.2714844 L17.6367188,53.0898438 Z M48.1347656,58.3632813 C53.2234955,58.3632813 57.3632813,54.2234955 57.3632813,49.1347656 C57.3632813,44.0460357 53.2234955,39.90625 48.1347656,39.90625 C43.0460357,39.90625 38.90625,44.0460357 38.90625,49.1347656 C38.90625,54.2234955 43.0460357,58.3632813 48.1347656,58.3632813 Z M26.75,32 C27.4404297,32 28,32.6714844 28,33.5 C28,34.3285156 27.4404297,35 26.75,35 L24.25,35 C23.5595703,35 23,34.3285156 23,33.5 C23,32.6714844 23.5595703,32 24.25,32 L26.75,32 Z M26.75,37 C27.4404297,37 28,37.6714844 28,38.5 C28,39.3285156 27.4404297,40 26.75,40 L24.25,40 C23.5595703,40 23,39.3285156 23,38.5 C23,37.6714844 23.5595703,37 24.25,37 L26.75,37 Z M26.75,42 C27.4404297,42 28,42.6714844 28,43.5 C28,44.3285156 27.4404297,45 26.75,45 L24.25,45 C23.5595703,45 23,44.3285156 23,43.5 C23,42.6714844 23.5595703,42 24.25,42 L26.75,42 Z M35.25,35 C34.5595703,35 34,34.3285156 34,33.5 C34,32.6714844 34.5595703,32 35.25,32 L37.75,32 C38.4404297,32 39,32.6714844 39,33.5 C39,34.3285156 38.4404297,35 37.75,35 L35.25,35 Z M35.25,40 C34.5595703,40 34,39.3285156 34,38.5 C34,37.6714844 34.5595703,37 35.25,37 L37.75,37 C38.4404297,37 39,37.6714844 39,38.5 C39,39.3285156 38.4404297,40 37.75,40 L35.25,40 Z M26.75,48 C27.4404297,48 28,48.6714844 28,49.5 C28,50.3285156 27.4404297,51 26.75,51 L24.25,51 C23.5595703,51 23,50.3285156 23,49.5 C23,48.6714844 23.5595703,48 24.25,48 L26.75,48 Z M45.25,35 C44.5595703,35 44,34.3285156 44,33.5 C44,32.6714844 44.5595703,32 45.25,32 L47.75,32 C48.4404297,32 49,32.6714844 49,33.5 C49,34.3285156 48.4404297,35 47.75,35 L45.25,35 Z M52,51.2726154 C52,52.0662729 51.751481,52.7018049 51.2513469,53.1791167 C50.7542058,53.6564284 50.1486988,53.9728688 49.4381286,54.1255972 L49.4381286,55.0239774 L49.4381286,55.1016199 C49.4381286,55.5976795 48.9789671,56 48.4408534,56 C47.9027396,56 47.4611231,55.5976795 47.4611231,55.1016199 L47.4611231,54.1335509 C47.0195065,54.0398118 46.6187594,53.8896399 46.2619778,53.6830352 C45.8964237,53.4684769 45.642022,53.280904 45.4957798,53.1172867 L45.2823507,52.859741 C44.3756899,51.773788 45.8672165,50.6154003 46.7357945,51.4520452 C46.8410641,51.5511814 46.9522165,51.6746518 47.0809138,51.80333 C47.4435781,52.1734573 47.9759124,52.2322573 48.4086532,52.2322573 C49.2275893,52.2322573 49.6398955,51.9239599 49.6398955,51.301968 C49.6398955,51.0793614 49.481991,50.9076958 49.1719615,50.7844147 C48.861932,50.6637848 48.4846125,50.5538544 48.0430992,50.4571801 C47.5983865,50.3606951 47.1538801,50.2293657 46.7123668,50.0683997 C46.2678605,49.9048771 45.8906442,49.6259323 45.5806147,49.2290089 C45.2705852,48.8321801 45.1155705,48.3280722 45.1155705,47.7193363 C45.1155705,47.1079492 45.3289996,46.5636945 45.7472917,46.0729373 C46.1597011,45.5875772 46.7562292,45.2578808 47.478668,45.1291079 L47.478668,44.9226926 L47.478668,43.8982855 C47.478668,43.4049717 47.9202846,43 48.4583983,43 C48.999505,43 49.4381286,43.4049717 49.4381286,43.8982855 L49.4381286,44.2763664 L49.4381286,45.1424586 C49.7481581,45.2041939 50.0318701,45.2899793 50.2862718,45.4025609 C50.5436665,45.5124913 50.7191159,45.6036738 50.8186061,45.6761086 L50.9706278,45.7967384 C52.2574978,46.6816732 51.0144902,48.250335 49.9031728,47.3921964 C49.1515268,46.8130026 47.4435781,46.6843244 47.4435781,47.7488783 C47.4435781,47.9742309 47.5576203,48.1538501 47.7828148,48.2906713 C48.0110022,48.4273031 48.2917213,48.5213262 48.6251785,48.5668701 C48.9556427,48.6125087 49.3212999,48.6875 49.7219439,48.7947792 C50.1196981,48.9020583 50.4881419,49.0253394 50.8187093,49.1675577 C51.1520632,49.3096813 51.4327823,49.5618299 51.6609698,49.9238142 C51.8859579,50.2831474 52,50.7337577 52,51.2726154 Z" id="Combined-Shape" fill="#75A7FF" fill-rule="nonzero"></path>
        </g>
    </g>
</svg>