<?xml version="1.0" encoding="UTF-8"?>
<svg width="76px" height="78px" viewBox="0 0 76 78" version="1.1" xmlns="http://www.w3.org/2000/svg" xmlns:xlink="http://www.w3.org/1999/xlink">
    <!-- Generator: Sketch 53.2 (72643) - https://sketchapp.com -->
    <title>2.2.2-h</title>
    <desc>Created with Sketch.</desc>
    <g id="Page-2" stroke="none" stroke-width="1" fill="none" fill-rule="evenodd">
        <g id="2.2.2-h">
            <g id="Group-23">
                <path d="M15.0353111,78 C6.76586784,78 4.97379915e-14,71.056083 4.97379915e-14,62.5690228 L4.97379915e-14,15.4309772 C4.97379915e-14,6.94391699 6.76586784,0 15.0353111,0 L60.9646889,0 C69.2341322,0 76,6.94391699 76,15.4309772 L76,62.5690228 C76,71.056083 69.2341322,78 60.9646889,78 L15.0353111,78 Z" id="Fill-1-Copy-67" fill="#75A7FF"></path>
                <path d="M58.6687742,18 C60.5324903,18 62,18.9179677 62,21.3858908 L62,21.4760537 C62,23.9438558 60.4884674,24.8919585 58.5514584,24.8919585 L56.907739,24.8919585 L56.907739,28.3830192 C56.907739,28.7894181 56.4234868,29 55.9538695,29 C55.4696173,29 55,28.7892971 55,28.3830192 L55,18.6019738 L55.000118,18.6019738 C55.000118,18.2859799 55.2788906,18 55.7192379,18 L58.6687742,18 Z M60.092143,21.6266077 L60.092143,21.4460398 C60.092143,20.2723482 59.5052099,19.7155164 58.5513404,19.7155164 L56.907739,19.7155164 L56.907739,23.3571311 L58.5513404,23.3571311 C59.5052099,23.3571311 60.092143,22.8002993 60.092143,21.6266077 Z M42.7403854,21.4770661 C43.0865382,21.8254169 43.0865382,22.3903861 42.7403854,22.7387369 C42.5671874,22.9129123 42.3402677,23 42.1134695,23 C41.8866714,23 41.6597516,22.9129123 41.4865537,22.7387369 C38.9526371,20.1887308 35.583481,18.7843193 31.999924,18.7843193 C28.4163671,18.7843193 25.0473325,20.1887308 22.5132944,22.7387369 C22.1671416,23.0870877 21.6058586,23.0870877 21.2597058,22.7387369 C20.9134314,22.3902638 20.9134314,21.8254169 21.2597058,21.4770661 C24.1285933,18.5899621 27.9428378,17 32.0000456,17 C36.0572534,17 39.8714979,18.5899621 42.7403854,21.4770661 Z M38.752501,25.6374294 C39.0824997,25.9490992 39.0824997,26.4545778 38.752501,26.7662476 C38.5873859,26.9220825 38.371056,27 38.154842,27 C37.9385122,27 37.7222982,26.9220825 37.5572989,26.7662476 C34.492993,23.8722487 29.507094,23.8722487 26.442788,26.7662476 C26.1127894,27.0779175 25.5775845,27.0779175 25.2475859,26.7662476 C24.9174714,26.4545778 24.9174714,25.9490992 25.2475859,25.6374294 C28.9708462,22.1208569 35.0291248,22.1208569 38.752501,25.6374294 Z M35.7571737,29.4630699 C36.0809421,29.814735 36.0809421,30.3846324 35.7571737,30.7362975 C35.5953463,30.9120683 35.3831752,30.9999537 35.1711177,30.9999537 C34.9590602,30.9999537 34.746889,30.9121917 34.5850617,30.7362975 C33.4353372,29.4876334 31.5647764,29.4876334 30.415052,30.7362975 C30.0913972,31.0878391 29.5664811,31.0879626 29.2428263,30.7362975 C28.9190579,30.3846324 28.9190579,29.8146116 29.2428263,29.4630699 C31.0388374,27.51231 33.9611626,27.51231 35.7571737,29.4630699 Z M50.6757437,46.4493402 C51.4925006,46.9009523 52,47.7580123 52,48.6858897 C52,49.4104993 51.4139247,50 50.6935254,50 L26.6644369,50 C26.1804862,50 25.7880873,49.6053077 25.7880873,49.1185285 C25.7880873,48.6317494 26.1804862,48.2370571 26.6644369,48.2370571 L29.5758304,48.2370571 L29.5758304,41.7628221 L27.1939232,41.7628221 C24.8367662,41.7628221 22.6188591,42.6844153 20.9488208,44.3579301 C19.7939712,45.5152995 18.4777648,46.4837821 17.0370863,47.236187 C16.8615521,47.3277904 16.7525791,47.5078552 16.7525791,47.7061681 C16.7525791,47.998864 16.9893881,48.2370571 17.2803833,48.2370571 L20.9076105,48.2370571 C21.3915612,48.2370571 21.7839601,48.6317494 21.7839601,49.1185285 C21.7839601,49.6053077 21.3915612,50 20.9076105,50 L17.2803833,50 C16.0229285,50 15,48.971093 15,47.706289 C15,46.8474163 15.471095,46.0678204 16.2294606,45.6716779 C17.5117857,45.0019336 18.6834558,44.1397979 19.7119111,43.1090782 C21.7128333,41.1041959 24.3699965,40 27.1940433,40 L37.8331488,40 C39.95614,40 42.0082447,40.6317977 43.7674318,41.8272345 L49.5639066,45.76594 C49.9224242,46.0095712 50.2965609,46.2394257 50.6757437,46.4493402 Z M31.3287699,48.2371779 L50.1034852,48.2371779 C50.0340405,48.1389278 49.9416477,48.0550587 49.8313531,47.9940301 C49.4053131,47.7583748 48.9854006,47.5002417 48.5829093,47.2267608 L42.7864345,43.2880553 C41.3181223,42.2903273 39.6053118,41.7629429 37.8332689,41.7629429 L31.3287699,41.7629429 L31.3287699,48.2371779 Z M33.2139663,51 C33.6480414,51 34,51.4477653 34,52 C34,52.5522347 33.6480414,53 33.2139663,53 L30.7860337,53 C30.3519586,53 30,52.5522347 30,52 C30,51.4477653 30.3519586,51 30.7860337,51 L33.2139663,51 Z M68.250251,50.2247316 C68.7405127,51.0467433 68.9997617,51.9883859 69,52.9480815 L69,57.5012799 C69,59.2961057 67.5544724,60.7563498 65.7777352,60.7563498 L64.1291929,60.7563498 C63.8712544,61.6863182 63.3823032,62.5640533 62.6594798,63.2942355 C61.5705388,64.3942629 60.1227476,65 58.582861,65 C57.0428553,65 55.5953024,64.3941425 54.5063613,63.2942355 C53.783538,62.5640533 53.2944676,61.6863182 53.0365292,60.7563498 L24.1764935,60.7563498 C23.918555,61.6863182 23.4296038,62.5640533 22.7067804,63.2942355 C21.5828122,64.4295263 20.1066656,64.9972319 18.6302807,64.9972319 C17.1538959,64.9972319 15.6776302,64.4295263 14.553781,63.2942355 C13.7081242,62.4399693 13.1808098,61.3841115 12.9714806,60.2784276 L9.51022066,58.7244284 C8.59272229,58.3125801 8,57.3910365 8,56.3769413 L8,47.8751985 C8,45.9608621 9.34616466,44.2865098 11.2009387,43.8941587 L12.4485744,43.6302244 C14.6225249,43.1702348 16.6033492,42.0900658 18.1769524,40.5063394 C20.663765,38.0035967 23.9666876,36.6251927 27.4771524,36.6251927 L38.0270136,36.6251927 C40.6659681,36.6251927 43.2166398,37.4139869 45.4034574,38.9062449 L51.1512553,42.8286727 C52.1801497,43.5309331 53.7319503,44.5013401 55.3236628,44.8211183 L56.4769395,45.052798 L56.4769395,34.4762881 L49.8931352,34.4762881 C48.697802,34.4762881 47.7252608,33.4939661 47.7252608,32.2863432 L47.7252608,27.3820748 C47.7252608,26.8972925 48.1142535,26.5042193 48.5942692,26.5042193 C49.0742849,26.5042193 49.4632775,26.8972925 49.4632775,27.3820748 L49.4632775,32.2863432 C49.4632775,32.5258458 49.6561654,32.7206975 49.8932543,32.7206975 L66.8174714,32.7206975 C67.0545603,32.7206975 67.2474483,32.5258458 67.2474483,32.2863432 L67.2474483,15.189945 C67.2474483,14.9504423 67.0545603,14.7555906 66.8174714,14.7555906 L49.8933735,14.7555906 C49.6562845,14.7555906 49.4633966,14.9504423 49.4633966,15.189945 L49.4633966,21.6751716 C49.4633966,22.1599539 49.074404,22.5530271 48.5943883,22.5530271 C48.1143726,22.5530271 47.72538,22.1599539 47.72538,21.6751716 L47.72538,15.189945 C47.72538,13.9824423 48.697802,13 49.8932543,13 L66.8172331,13 C68.0125664,13 68.9851075,13.982322 68.9851075,15.189945 L68.9851075,32.2862228 C68.9851075,33.4937254 68.0126855,34.4761678 66.8172331,34.4761678 L61.0112949,34.4761678 L61.0112949,45.9635099 L63.2548232,46.4142322 C65.2205167,46.8092311 66.941258,48.0303336 67.975752,49.7645014 L68.250251,50.2247316 Z M58.2149562,34.4761678 L58.2149562,45.4017016 L59.2733974,45.6143655 L59.2733974,34.4761678 L58.2149562,34.4761678 Z M21.4777306,62.0529137 C22.8481998,60.6683717 23.0221444,58.5263272 21.9999219,56.9490999 C21.994918,56.9413973 21.9899141,56.9335743 21.9847911,56.9258717 C21.9548869,56.8804986 21.9239105,56.8357273 21.8921,56.7914373 C21.8778032,56.7715791 21.863149,56.7518412 21.8483756,56.7322236 C21.8221648,56.6970805 21.7955965,56.6619374 21.7680751,56.6273961 C21.7435323,56.596706 21.7179171,56.5664974 21.6924211,56.5364091 C21.6715716,56.5117367 21.6511986,56.4868237 21.6296343,56.4625123 C21.5805485,56.4072703 21.5300331,56.3527503 21.4776114,56.2997949 C21.4290022,56.2506909 21.3794399,56.2031514 21.3289245,56.1570562 C21.3211804,56.1499553 21.3130789,56.1433359 21.3052156,56.1363554 C21.2614912,56.0971203 21.2175284,56.0583666 21.1726126,56.0214182 C21.1708255,56.019974 21.1690384,56.0187705 21.1673704,56.0173262 C19.6962277,54.8098236 17.5718396,54.8083794 16.0989098,56.0125121 C16.0949781,56.0157616 16.0908082,56.0187705 16.0868766,56.02202 C16.0449393,56.0565613 16.0039551,56.0927876 15.9632091,56.1292546 C15.9524865,56.1388828 15.9412873,56.1479093 15.9306839,56.1576579 C15.8898188,56.1950877 15.8497877,56.2340821 15.8099949,56.273558 C15.8009402,56.2824641 15.7915282,56.2908888 15.7825926,56.2999153 C15.7785419,56.3040073 15.7748485,56.30834 15.7707978,56.312432 C15.7238565,56.3602122 15.6782259,56.4089552 15.6339057,56.458661 C15.6165113,56.4782786 15.6001891,56.4986183 15.583152,56.5184765 C15.553367,56.5533789 15.5234628,56.5882813 15.4948692,56.6240262 C15.4753302,56.6484579 15.4568634,56.6734913 15.4379202,56.698284 C15.4136156,56.7300573 15.3894301,56.7618305 15.3661978,56.7942055 C15.345944,56.8224884 15.3265241,56.8513732 15.3069851,56.8801376 C15.2872079,56.9091427 15.2676689,56.9382681 15.2487256,56.9677546 C15.2277569,57.0003703 15.2076222,57.0333471 15.1877258,57.0664442 C15.1723567,57.091959 15.1572259,57.1175942 15.1424526,57.1434702 C15.1210073,57.1810203 15.1000387,57.2188112 15.079904,57.2568428 C15.0689431,57.2773028 15.0584588,57.2978832 15.0479744,57.3185839 C15.0256952,57.3623924 15.0038926,57.4064417 14.9832813,57.4509723 C14.9778009,57.4630076 14.9725587,57.4751633 14.9670783,57.4871986 C14.291077,58.9875203 14.5624783,60.8203776 15.7825926,62.0529137 C16.5431834,62.8212479 17.5544451,63.2444094 18.6301616,63.2444094 C19.7058781,63.2444094 20.7171398,62.8212479 21.4777306,62.0529137 Z M61.4303108,62.0529137 C62.8007801,60.668492 62.9747247,58.5262069 61.9527404,56.9490999 C61.9477365,56.9413973 61.9427326,56.9336947 61.9376096,56.9259921 C61.9078246,56.880619 61.876729,56.835968 61.8449186,56.7915577 C61.8306218,56.7716994 61.8159675,56.7520819 61.8013133,56.7324643 C61.7749833,56.6972009 61.748415,56.6620578 61.7207745,56.6273961 C61.6963508,56.5968264 61.6708548,56.5667381 61.6453588,56.5367702 C61.6243901,56.5119774 61.6040172,56.486944 61.5823337,56.4626327 C61.5332479,56.4073906 61.4827325,56.3528707 61.4303108,56.2999153 C60.66972,55.5315811 59.6584584,55.1084196 58.5827419,55.1084196 C57.5070254,55.1084196 56.4958828,55.5315811 55.735292,56.2999153 C55.6828704,56.3528707 55.632355,56.4072703 55.5832692,56.4625123 C55.5614666,56.486944 55.5408553,56.5122182 55.5197675,56.5371312 C55.4943906,56.5669788 55.4691329,56.5968264 55.4447092,56.6272757 C55.4169495,56.6620578 55.3902621,56.6973212 55.3639322,56.732705 C55.3492779,56.7520819 55.3347428,56.7715791 55.3205652,56.791317 C55.2886356,56.8358476 55.25754,56.8807393 55.2276358,56.9262328 C55.2226319,56.9336947 55.2177472,56.9412769 55.2128624,56.9488592 C54.1905207,58.5259662 54.3644654,60.6683717 55.7351729,62.0529137 C56.4957637,62.8212479 57.5069062,63.2444094 58.5826227,63.2444094 C59.6583392,63.2444094 60.6696009,62.8212479 61.4303108,62.0529137 Z M67.2621025,57.5012799 L67.2621025,52.9480815 C67.2621025,52.3076827 67.0892301,51.6791988 66.7619521,51.1307498 L66.4874532,50.6705195 C65.7048215,49.3586707 64.4032152,48.4349607 62.9161077,48.136124 L54.9849473,46.5428897 C53.0852575,46.1611297 51.33211,45.0704899 50.1787141,44.2832603 L44.4309163,40.3608325 C42.532537,39.0654721 40.3183171,38.380663 38.027371,38.380663 L27.4775099,38.380663 C24.4300237,38.380663 21.5627966,39.5772135 19.4039769,41.7499479 C17.5913785,43.5741398 15.3096062,44.8184705 12.8052801,45.3483852 L11.5576443,45.6123195 C10.503373,45.8354542 9.73813579,46.7870861 9.73813579,47.8751985 L9.73813579,56.3769413 C9.73813579,56.697923 9.92578154,56.9896589 10.2162452,57.1201216 L12.9246585,58.3361693 C13.0180644,57.6827724 13.2217941,57.0528443 13.5247675,56.4704556 C13.526078,56.4681689 13.5272694,56.4657619 13.5284608,56.4634751 C13.570279,56.3831996 13.6140035,56.3037666 13.6596341,56.2254167 C13.6622552,56.2209637 13.6647572,56.2163902 13.6673783,56.2119372 C13.7607841,56.05271 13.861815,55.8974545 13.9707091,55.7468928 C13.9829805,55.7296823 13.9959668,55.7129532 14.0085957,55.6958631 C14.0491033,55.6411024 14.0905641,55.5869435 14.1330971,55.5333864 C14.1509682,55.51076 14.1691966,55.4883744 14.187425,55.466109 C14.2285284,55.4160421 14.270704,55.366577 14.3135945,55.3175933 C14.3313464,55.2974943 14.3486217,55.2771547 14.3666118,55.2571761 C14.4273733,55.1897783 14.4894454,55.1232231 14.5536619,55.0583527 C15.677511,53.923062 17.1538959,53.3553564 18.6301616,53.3553564 C19.7373311,53.3553564 20.8445006,53.6746532 21.8031023,54.3132467 C22.1225171,54.5261513 22.4256097,54.7745601 22.7065422,55.0583527 C22.7755243,55.1280372 22.8422428,55.1992862 22.9071742,55.2716184 C22.9175394,55.2831723 22.9270706,55.2950873 22.9373167,55.3066412 C22.9927168,55.3694655 23.0471639,55.4328916 23.0995855,55.4976415 C23.1032789,55.5023353 23.1068531,55.5070291 23.1105464,55.5117229 C23.9137894,56.5086076 24.3600884,57.7254977 24.3942817,59.0008795 L52.8185027,59.0008795 C52.8526959,57.7270623 53.2980418,56.5116164 54.0992594,55.5155742 C54.1042633,55.5093158 54.1089097,55.5029371 54.1139136,55.4967991 C54.1638333,55.4351783 54.2157785,55.374761 54.2684384,55.3148252 C54.2813055,55.3001421 54.2934578,55.2849776 54.3065633,55.2704149 C54.3619634,55.2086738 54.419389,55.1482565 54.4777677,55.088441 C54.487418,55.0784517 54.4963535,55.0681013 54.506123,55.0582324 C55.3228288,54.2333323 56.3412389,53.6863274 57.4491232,53.4643963 C57.8184577,53.3904995 58.1976809,53.3525883 58.5826227,53.3525883 C59.063949,53.3525883 59.5361014,53.4116817 59.9912168,53.5266189 C60.9923516,53.7793604 61.9105648,54.3020539 62.6592416,55.0582324 C62.6692493,55.0682217 62.678304,55.0788128 62.6881926,55.0889224 C62.746333,55.1483769 62.8035203,55.2086738 62.8588013,55.2701742 C62.8722642,55.2853387 62.884893,55.3009846 62.8982367,55.3161491 C62.9504201,55.3756035 63.0017695,55.435419 63.0513318,55.496438 C63.0568123,55.5031778 63.0619353,55.5101583 63.0672966,55.516898 C63.8679185,56.5128199 64.3127878,57.7275437 64.3468619,59.0007592 L65.777497,59.0007592 C66.5959899,59.0007592 67.2618642,58.3281057 67.2618642,57.5012799 L67.2621025,57.5012799 Z M20.268776,57.7322525 C21.2437413,58.7070087 21.2437413,60.2929913 20.268776,61.2677475 C19.7965378,61.7399973 19.1685807,62 18.5006493,62 C17.832605,62 17.2046479,61.7398844 16.7324096,61.2677475 C16.2601714,60.7956105 16,60.1677881 16,59.5 C16,58.8322119 16.2601714,58.2043895 16.7324096,57.7322525 C17.2046479,57.2601156 17.832605,57 18.5005364,57 C19.1684678,57 19.796312,57.2600027 20.268776,57.7322525 Z M19.1038766,60.1032108 C19.4365437,59.7706151 19.4365437,59.2293849 19.1038766,58.8966763 C18.9427374,58.7354588 18.7284122,58.6467215 18.5005364,58.6467215 C18.2725476,58.6467215 18.0583353,58.7355717 17.8971962,58.8966763 C17.7359441,59.0577809 17.6471877,59.2719473 17.6471877,59.4998871 C17.6471877,59.727827 17.736057,59.9419933 17.8971962,60.1030979 C18.0583353,60.2643154 18.2725476,60.3530527 18.5005364,60.3530527 C18.7284122,60.3530527 18.9427374,60.2643154 19.1038766,60.1032108 Z M60.2676909,57.7323654 C60.7399371,58.2045023 61,58.8323248 61,59.5001129 C61,60.167901 60.7399371,60.7957234 60.267578,61.2678604 C59.7953317,61.7399973 59.1674769,62 58.4994213,62 C57.8314786,62 57.2035108,61.7399973 56.7311517,61.2677475 C55.7562828,60.2929913 55.7562828,58.7070087 56.7311517,57.7322525 C57.2036237,57.2600027 57.8314786,57 58.4994213,57 C59.1674769,57 59.7954447,57.2601156 60.2676909,57.7323654 Z M59.1027717,60.1033237 C59.2641394,59.9421062 59.3527844,59.727827 59.3527844,59.5001129 C59.3527844,59.272173 59.2640265,59.0580067 59.1028846,58.8969021 C58.9416298,58.7356846 58.7274139,58.6469473 58.4994213,58.6469473 C58.2715416,58.6469473 58.0572127,58.7357975 57.8960708,58.8969021 C57.5633981,59.2294978 57.5633981,59.770728 57.8960708,60.1033237 C58.0572127,60.2644283 58.2715416,60.3531656 58.4994213,60.3531656 C58.7274139,60.3531656 58.9416298,60.2644283 59.1027717,60.1033237 Z" id="Combined-Shape-Copy-23" fill="#FFFFFF" fill-rule="nonzero"></path>
            </g>
        </g>
    </g>
</svg>