<?xml version="1.0" encoding="UTF-8"?>
<svg width="76px" height="78px" viewBox="0 0 76 78" version="1.1" xmlns="http://www.w3.org/2000/svg" xmlns:xlink="http://www.w3.org/1999/xlink">
    <!-- Generator: Sketch 53.2 (72643) - https://sketchapp.com -->
    <title>2.2.3-h</title>
    <desc>Created with Sketch.</desc>
    <g id="Page-2" stroke="none" stroke-width="1" fill="none" fill-rule="evenodd">
        <g id="2.2.3-h">
            <path d="M15.0353111,78 C6.76586784,78 4.97379915e-14,71.056083 4.97379915e-14,62.5690228 L4.97379915e-14,15.4309772 C4.97379915e-14,6.94391699 6.76586784,0 15.0353111,0 L60.9646889,0 C69.2341322,0 76,6.94391699 76,15.4309772 L76,62.5690228 C76,71.056083 69.2341322,78 60.9646889,78 L15.0353111,78 Z" id="Fill-1-Copy-69" fill="#75A7FF"></path>
            <path d="M48.9,55 C51.1612061,55 53,56.7939453 53,59 C53,61.2060548 51.1612061,63 48.9,63 L16.1,63 C13.8387939,63 12,61.2060548 12,59 C12,56.7939453 13.8387939,55 16.1,55 L48.9,55 Z M46.85,59 C46.85,57.8969726 45.9306031,57 44.8,57 C43.6693969,57 42.75,57.8969726 42.75,59 C42.75,60.1030274 43.6693969,61 44.8,61 C45.9306031,61 46.85,60.1030274 46.85,59 Z M18.15,59 C18.15,60.1030274 19.0693969,61 20.2,61 C21.3306031,61 22.25,60.1030274 22.25,59 C22.25,57.8969726 21.3306031,57 20.2,57 C19.0693969,57 18.15,57.8969726 18.15,59 Z M23.7299438,57 C24.0827881,57.5908203 24.3,58.2680664 24.3,59 C24.3,59.7319336 24.0827881,60.4091798 23.7289429,61 L28.9700562,61 C28.6172118,60.4091798 28.4,59.7319336 28.4,59 C28.4,58.2680664 28.6172118,57.5908203 28.9710571,57 L23.7299438,57 Z M30.45,59 C30.45,60.1030274 31.3693969,61 32.5,61 C33.6306031,61 34.55,60.1030274 34.55,59 C34.55,57.8969726 33.6306031,57 32.5,57 C31.3693969,57 30.45,57.8969726 30.45,59 Z M36.0299438,57 C36.3827881,57.5908203 36.6,58.2680664 36.6,59 C36.6,59.7319336 36.3827881,60.4091798 36.0289429,61 L41.2700562,61 C40.9172118,60.4091798 40.7,59.7319336 40.7,59 C40.7,58.2680664 40.9172118,57.5908203 41.2710571,57 L36.0299438,57 Z M14.05,59 C14.05,60.1030274 14.9693969,61 16.1,61 L16.6700562,61 C16.3172118,60.4091798 16.1,59.7319336 16.1,59 C16.1,58.2680664 16.3172118,57.5908203 16.6700562,57 L16.1,57 C14.9693969,57 14.05,57.8969726 14.05,59 Z M48.9,61 C50.0306031,61 50.95,60.1030274 50.95,59 C50.95,57.8969726 50.0306031,57 48.9,57 L48.3299438,57 C48.6827881,57.5908203 48.9,58.2680664 48.9,59 C48.9,59.7319336 48.6827881,60.4091798 48.3299438,61 L48.9,61 Z M63.2298828,24.0209961 C66.4474446,24.2358399 69,26.8320312 69,30 L69,34.8198242 C69,38.7788086 65.6704264,42 61.5794759,42 C58.7514323,42 56.2094726,40.4790039 54.9445476,38.0307617 L52.8612305,34 L54.5333333,34 C56.2422689,34 57.6333333,32.6538086 57.6333333,31 L57.6333333,29.480957 L48.5815755,22.4731445 L37.0236816,35 L43.3114746,35 C45.5204264,35 47.4871908,36.3598632 48.2001302,38.383789 L53.200293,52.5478515 C55.2568684,54.0048827 56.6,56.3510742 56.6,59 C56.6,63.4111327 52.8915038,67 48.3333333,67 L15.2666667,67 C10.7084962,67 7,63.4111327 7,59 C7,55.809082 8.94557292,53.0561524 11.7458659,51.7729492 C11.3659342,51.2749024 11.1333333,50.665039 11.1333333,50 L11.1333333,46 C11.1333333,44.5717774 12.1717122,43.3789062 13.5541993,43.0771485 L15.0900716,40.1049805 C15.4412434,39.4238281 16.1491373,39 16.9387695,39 L42.4597819,16.9482422 C42.2614909,16.4521485 42.1333333,15.9267578 42.1333333,15.3769531 C42.1333333,12.9628906 44.1626628,11 46.6561849,11 L46.9629557,11 C48.1083007,11 49.2011719,11.4160156 50.0402507,12.1689453 L63.2298828,24.0209961 Z M46.6561849,13 C45.3014486,13 44.2,14.065918 44.2,15.3769531 C44.2,16.1030274 44.5360351,16.7788086 45.1228353,17.2329101 L58.589974,27.6601562 L61.3110514,25.0268555 L48.6340495,13.6347656 C48.1784342,13.2260742 47.5850748,13 46.9629557,13 L46.6561849,13 Z M23.5333333,43 L23.5333333,41 L16.9387695,41 L15.9054361,43 L23.5333333,43 Z M54.5333333,59 C54.5333333,55.690918 51.7527181,53 48.3333333,53 L15.2666667,53 C11.8472819,53 9.06666667,55.690918 9.06666667,59 C9.06666667,62.309082 11.8472819,65 15.2666667,65 L48.3333333,65 C51.7527181,65 54.5333333,62.309082 54.5333333,59 Z M33.8666667,47 L33.8666667,51 L45.9185222,51 L44.7010254,47 L33.8666667,47 Z M33.8666667,45 L44.0935384,45 L42.8765462,41 L33.8666667,41 L33.8666667,45 Z M46.2449707,39.0297851 C45.8150879,37.815918 44.6369465,37 43.3114746,37 L32.9604818,37 C31.535612,37 30.2984375,37.9350586 29.9523111,39.2719726 L28.4734538,45 L14.2333333,45 C13.6631837,45 13.2,45.4492187 13.2,46 L13.2,50 C13.2,50.5507812 13.6631837,51 14.2333333,51 L31.8,51 L31.8,41 C31.8,39.8969726 32.7268717,39 33.8666667,39 L42.8765462,39 C43.7867675,39 44.6021321,39.5898437 44.8594564,40.4360351 L48.0729818,51 L48.3333333,51 C49.1123698,51 49.8636556,51.1118164 50.5786132,51.3081055 L46.2449707,39.0297851 Z M34.2521484,35 L46.964974,21.222168 L43.8311686,18.7949219 C43.760026,18.7387695 43.7080566,18.6689452 43.6409505,18.6098632 L20.0428059,39 L23.5333333,39 C24.6731283,39 25.6,39.8969726 25.6,41 L25.6,43 L26.8598795,43 L27.947705,38.7871094 C28.5244141,36.5571289 30.585026,35 32.9604818,35 L34.2521484,35 Z M61.5794759,40 C64.4675618,40 66.8132486,37.7709961 66.9146647,34.9990235 L62.8,34.9990235 L62.8,32.9990235 L66.9333333,32.9990235 L66.9333333,30.9990235 L62.8,30.9990235 L62.8,28.9990235 L66.7865071,28.9990235 C66.3576335,27.402832 64.9473958,26.184082 63.2081868,26.019043 L59.7,29.4140625 L59.7,31 C59.7,33.2338867 58.1787597,35.1298827 56.0853516,35.769043 L56.7922363,37.1362305 C57.7044759,38.902832 59.5390462,40 61.5794759,40 Z M48,16 C48,16.5522461 47.5522461,17 47,17 C46.4477539,17 46,16.5522461 46,16 C46,15.4477539 46.4477539,15 47,15 C47.5522461,15 48,15.4477539 48,16 Z" id="Combined-Shape-Copy-25" fill="#FFFFFF" fill-rule="nonzero"></path>
        </g>
    </g>
</svg>