<?xml version="1.0" encoding="UTF-8"?>
<svg width="76px" height="78px" viewBox="0 0 76 78" version="1.1" xmlns="http://www.w3.org/2000/svg" xmlns:xlink="http://www.w3.org/1999/xlink">
    <!-- Generator: Sketch 53.2 (72643) - https://sketchapp.com -->
    <title>2.3.3-h</title>
    <desc>Created with Sketch.</desc>
    <g id="Page-2" stroke="none" stroke-width="1" fill="none" fill-rule="evenodd">
        <g id="2.3.3-h">
            <path d="M15.0353111,78 C6.76586784,78 4.97379915e-14,71.056083 4.97379915e-14,62.5690228 L4.97379915e-14,15.4309772 C4.97379915e-14,6.94391699 6.76586784,0 15.0353111,0 L60.9646889,0 C69.2341322,0 76,6.94391699 76,15.4309772 L76,62.5690228 C76,71.056083 69.2341322,78 60.9646889,78 L15.0353111,78 Z" id="Fill-1-Copy-76" fill="#75A7FF"></path>
            <g id="Shape-4" transform="translate(7.000000, 8.000000)" fill="#FFFFFF" fill-rule="nonzero">
                <path d="M62,13.4858399 L62,8.51416013 L59.8579101,8.084961 C59.711914,7.64208987 59.5351563,7.211914 59.3251953,6.796875 L60.5361328,4.9799805 L57.0200195,1.46386725 L55.203125,2.67480475 C54.788086,2.46484375 54.3579101,2.28710938 53.915039,2.14208987 L53.4858399,0 L48.5131836,0 L48.0839844,2.14208987 C47.6411133,2.288086 47.2109375,2.46484375 46.7958985,2.67480475 L44.9799805,1.46386725 L43.711914,2.73193362 C39.709961,0.92578125 35.4399414,0 31,0 C25.3110351,0 19.8208007,1.54492188 15,4.459961 L15,3 L9,3 L9,17 L9.02587888,17 C8.39111325,17.8378906 8,18.8701172 8,20 L6,20 L6,0 L0,0 L0,22 L1.355957,22 C0.474121125,24.9091797 0,27.9257812 0,31 C0,42.3198242 6.12011725,52.6459961 16,58.118164 L16,60 C16,61.1030274 16.8969726,62 18,62 L44,62 C45.1030274,62 46,61.1030274 46,60 L46,58.118164 C55.8798827,52.6459961 62,42.3198242 62,31 C62,26.5620117 61.0742187,22.2910156 59.269043,18.2871094 L60.5361327,17.0200195 L59.3251952,15.203125 C59.5351562,14.788086 59.7128906,14.3579101 59.8579101,13.915039 L62,13.4858399 Z M31,2 C34.8989257,2 38.6591797,2.75488275 42.2011719,4.243164 L41.4638672,4.9799805 L42.6748047,6.796875 C42.4648437,7.211914 42.2871094,7.64208987 42.1420899,8.084961 L40,8.51416013 L40,13.4868164 L42.1420899,13.9160156 C42.288086,14.3588867 42.4648437,14.7890625 42.6748047,15.2041015 L41.4638672,17.0209961 L44.0410156,19.5981445 C44.0297851,19.7319336 44,19.8618164 44,20 L44,22 C44,23.6269531 44.7929687,25.0610351 46,25.9741211 L46,27.2451172 L41.9008789,28.4160156 C41.1430664,28.631836 40.4960937,29.0717774 40,29.6411133 C39.5039062,29.0717774 38.8569336,28.631836 38.0991211,28.4160156 L34,27.2460938 L34,25.9750976 C35.2070312,25.0610351 36,23.6269531 36,22.0009765 L36,20.0009765 C36,17.2441406 33.756836,15.0009765 31,15.0009765 C28.243164,15.0009765 26,17.2441406 26,20.0009765 L24,20.0009765 L24,9 L18,9 L18,20 C18,17.9550781 16.7631836,16.1982422 15,15.4238281 L15,6.8271485 C19.75,3.67578125 25.2661132,2 31,2 Z M48,11 C48,9.34619138 49.3461914,8 51,8 C52.6538086,8 54,9.34619138 54,11 C54,12.6538086 52.6538086,14 51,14 C49.3461914,14 48,12.6538086 48,11 Z M52,20 L52,22 C52,23.6538086 50.6538086,25 49,25 C47.3461914,25 46,23.6538086 46,22 L46,20 C46,18.3461914 47.3461914,17 49,17 C50.6538086,17 52,18.3461914 52,20 Z M57,43.8398438 C56.4121094,45.0307618 55.7451173,46.1801758 55,47.2788086 L55,33 L53,33 L53,40 L45,40 L45,33 L43,33 L43,42 L41,42 L41,32.2631836 C41,31.375 41.5961914,30.5839844 42.4511719,30.3398438 L46.2729493,29.2480469 C46.6601563,30.1621094 47.4970703,31 49,31 C50.5029298,31 51.3398438,30.1621094 51.7280274,29.2480469 L55.5498048,30.3398438 C56.4038086,30.5839844 57,31.375 57,32.2631836 L57,43.8398438 Z M27,49 L27,51 L20,51 C18.8969726,51 18,50.1030274 18,49 L18,44 L44,44 L44,49 C44,50.1030274 43.1030274,51 42,51 L35,51 L35,49 L27,49 Z M33,51 L33,53 L29,53 L29,51 L33,51 Z M9,40 L9,33 L7,33 L7,47.2788086 C6.25488275,46.1801758 5.58789063,45.0307618 5,43.8398438 L5,32.2631836 C5,31.375 5.59619138,30.5839844 6.45117188,30.3398438 L10.2729493,29.2480469 C10.6601563,30.1621094 11.4970703,31 13,31 C14.5029298,31 15.3398438,30.1621094 15.7280274,29.2480469 L19.5498048,30.3398438 C20.4038086,30.5839844 21,31.375 21,32.2631836 L21,42 L19,42 L19,33 L17,33 L17,40 L9,40 Z M16,20 L16,22 C16,23.6538086 14.6538086,25 13,25 C11.3461914,25 10,23.6538086 10,22 L10,20 C10,18.3461914 11.3461914,17 13,17 C14.6538086,17 16,18.3461914 16,20 Z M22,20 L20,20 L20,11 L22,11 L22,20 Z M18,22 L26,22 C26,23.6269531 26.7929688,25.0610351 28,25.9741211 L28,27.2451173 L23.9008789,28.4160156 C23.1430664,28.631836 22.4960938,29.0717774 22,29.6411133 C21.5039063,29.0717774 20.8569336,28.631836 20.0991211,28.4160156 L16,27.2460938 L16,25.9750976 C17.2070312,25.0610351 18,23.6269531 18,22 Z M39,42 L38,42 L38,40 C38,39.2631836 37.5952149,38.625 37,38.277832 L37,33 L35,33 L35,38 L27,38 L27,33 L25,33 L25,38.277832 C24.4047851,38.625 24,39.2631836 24,40 L24,42 L23,42 L23,32.2631836 C23,31.375 23.5961914,30.5839844 24.4511719,30.3398438 L28.2729492,29.2480469 C28.6601562,30.1621094 29.4970703,31 31,31 C32.5029298,31 33.3398438,30.1621094 33.7280274,29.2480469 L37.5498048,30.3398438 C38.4038086,30.5839844 39,31.375 39,32.2631836 L39,42 Z M26,40 L36,40 L36,42 L26,42 L26,40 Z M32,27.987793 C31.987793,28.4501953 31.8051758,29 31,29 C30.1948243,29 30.012207,28.4501953 30,27.987793 L30,26.8989258 C30.3232423,26.9648438 30.6582031,27 31,27 C31.3417969,27 31.6767578,26.9648438 32,26.8989258 L32,27.987793 Z M31,25 C29.3461914,25 28,23.6538086 28,22 L28,20 C28,18.3461914 29.3461914,17 31,17 C32.6538086,17 34,18.3461914 34,20 L34,22 C34,23.6538086 32.6538086,25 31,25 Z M13,27 C13.3417969,27 13.6767578,26.9648438 14,26.8989258 L14,27.987793 C13.987793,28.4501953 13.8051758,29 13,29 C12.1948243,29 12.012207,28.4501953 12,27.987793 L12,26.8989258 C12.3232423,26.9648438 12.6582031,27 13,27 Z M50,27.987793 C49.987793,28.4501953 49.8051758,29 49,29 C48.1948243,29 48.012207,28.4501953 48,27.987793 L48,26.8989258 C48.3232423,26.9648438 48.6582031,27 49,27 C49.3417969,27 49.6767578,26.9648438 50,26.8989258 L50,27.987793 Z M13,5 L13,15 C12.288086,15 11.6137695,15.1538086 11,15.4238281 L11,5 L13,5 Z M2,2 L4,2 L4,20 L2,20 L2,2 Z M3.44580075,22 L8,22 C8,23.6269531 8.79296875,25.0610351 10,25.9741211 L10,27.2451172 L5.90087888,28.4160156 C4.19287113,28.9038086 3,30.4858399 3,32.2631836 L3,38.540039 C2.35009763,36.1152344 2,33.5859375 2,31 C2,27.9179687 2.5,24.8979492 3.44580075,22 L3.44580075,22 Z M9,49.883789 L9,42 L12,42 L12,52.8989258 C10.921875,51.9638673 9.9208985,50.9560548 9,49.883789 L9,49.883789 Z M14,54.4990235 L14,42 L17,42 L17,42.277832 C16.4047851,42.625 16,43.2631836 16,44 L16,55.8149414 C15.3129883,55.3999024 14.644043,54.9638672 14,54.4990235 L14,54.4990235 Z M18,60 L18,52.4438476 C18.5908203,52.788086 19.2680664,53 20,53 L27,53 L27,55 L35,55 L35,53 L42,53 C42.7319336,53 43.4101563,52.788086 44.0009765,52.4428711 L44.0009765,60 L18,60 Z M46,49 L46,44 C46,43.2631836 45.5952149,42.625 45,42.277832 L45,42 L48,42 L48,54.4990235 C47.355957,54.9638672 46.6870118,55.3999024 46,55.8149414 L46,49 Z M50,52.8989258 L50,42 L53,42 L53,49.883789 C52.0791015,50.9560548 51.078125,51.9638673 50,52.8989258 Z M60,31 C60,33.5859375 59.6499024,36.1152344 59,38.540039 L59,32.2631836 C59,30.4858399 57.8071289,28.9047851 56.0991211,28.4169923 L52,27.2460938 L52,25.9750976 C53.2070313,25.0610351 54,23.6269531 54,22.0009765 L54,20.0009765 C54,19.940918 53.9838868,19.883789 53.9819336,19.8242188 C54.3999024,19.6831055 54.8100586,19.5239258 55.203125,19.3251953 L57.0200195,20.5361328 L57.7558594,19.7998048 C59.2441406,23.3427735 60,27.1030274 60,31 L60,31 Z M58.2539062,12.1958008 L58.0991211,12.8071289 C57.9257812,13.4902344 57.6557618,14.1401368 57.2978515,14.7421875 L56.9750976,15.2841798 L57.9628906,16.7661133 L56.7651368,17.9638673 L55.2832031,16.9760743 L54.741211,17.2988281 C54.3500976,17.5322265 53.9321289,17.7128906 53.5029298,17.868164 C53.1298828,17.0839844 52.5668945,16.4091798 51.8618164,15.913086 C54.2080078,15.5009765 56,13.4609375 56,11 C56,8.243164 53.756836,6 51,6 C48.243164,6 46,8.243164 46,11 C46,12.690918 46.8481445,14.1821289 48.137207,15.086914 C46.6831055,15.3417969 45.4550781,16.2270508 44.7231445,17.4501953 L44.038086,16.7651368 L45.0258789,15.2832031 L44.703125,14.741211 C44.3452149,14.1401368 44.0761719,13.4887695 43.9018555,12.8061524 L43.7470703,12.1948243 L42,11.847168 L42,10.1538086 L43.7460938,9.80419925 L43.9008789,9.19287113 C44.0742188,8.50976563 44.3442383,7.85986325 44.7021485,7.2578125 L45.0249024,6.71582025 L44.0371094,5.23388675 L45.2348633,4.03613275 L46.7167969,5.02392575 L47.258789,4.70117188 C47.8598633,4.3427735 48.5112305,4.07421875 49.1938476,3.89990238 L49.8051758,3.74511725 L50.152832,2 L51.8461914,2 L52.1958008,3.74609375 L52.8071289,3.90087888 C53.4902344,4.07421875 54.1401368,4.34423825 54.7421875,4.7021485 L55.2841798,5.02490238 L56.7661133,4.03710938 L57.9638673,5.23486325 L56.9760743,6.71679688 L57.2988281,7.258789 C57.6572265,7.85986325 57.9257813,8.5112305 58.1000976,9.19384763 L58.2548828,9.80517575 L60,10.152832 L60,11.8461914 L58.2539062,12.1958008 Z" id="Shape"></path>
            </g>
        </g>
    </g>
</svg>