<?xml version="1.0" encoding="UTF-8"?>
<svg width="76px" height="78px" viewBox="0 0 76 78" version="1.1" xmlns="http://www.w3.org/2000/svg" xmlns:xlink="http://www.w3.org/1999/xlink">
    <!-- Generator: Sketch 53.2 (72643) - https://sketchapp.com -->
    <title>2.4.5-h</title>
    <desc>Created with Sketch.</desc>
    <g id="Page-2" stroke="none" stroke-width="1" fill="none" fill-rule="evenodd">
        <g id="2.4.5-h">
            <path d="M15.0353111,78 C6.76586784,78 4.97379915e-14,71.056083 4.97379915e-14,62.5690228 L4.97379915e-14,15.4309772 C4.97379915e-14,6.94391699 6.76586784,0 15.0353111,0 L60.9646889,0 C69.2341322,0 76,6.94391699 76,15.4309772 L76,62.5690228 C76,71.056083 69.2341322,78 60.9646889,78 L15.0353111,78 Z" id="Fill-1-Copy-86" fill="#75A7FF"></path>
            <path d="M22.0152026,31.6874536 C21.2499968,31.6874536 20.6296296,31.0277828 20.6296296,30.2140972 C20.6296296,29.4004115 21.2499968,28.7407407 22.0152026,28.7407407 L25.72549,28.7407407 C26.250345,28.7407407 26.7301227,29.056039 26.9648388,29.5552122 C27.1995549,30.0543853 27.1488429,30.651684 26.8339483,31.0982092 L26.3887176,31.7293951 C25.4190012,33.1042331 24.884909,34.8080224 24.884909,36.5266436 C24.884909,37.3403292 24.2645418,38 23.499336,38 C22.7341302,38 22.113763,37.3403292 22.113763,36.5266436 C22.113763,34.8514373 22.4845424,33.186741 23.1773289,31.6874536 L22.0152026,31.6874536 Z M34.9782579,31.6874536 C34.2130522,31.6874536 33.5925926,31.0277828 33.5925926,30.2140972 C33.5925926,29.4004115 34.2129598,28.7407407 34.9781656,28.7407407 L38.6884529,28.7407407 C39.213308,28.7407407 39.6930857,29.056039 39.9278018,29.5552122 C40.1625178,30.0543853 40.1118059,30.651684 39.7969113,31.0982092 L39.3518653,31.7292969 C38.3820565,33.1043313 37.8479643,34.8080224 37.8479643,36.5266436 C37.8479643,37.3403292 37.2275971,38 36.4623914,38 C35.6971856,38 35.0768184,37.3403292 35.0768184,36.5266436 C35.0768184,34.8514373 35.4475053,33.186741 36.1403842,31.6874536 L34.9782579,31.6874536 Z M47.0152149,27.9838436 C46.2500023,27.9838436 45.6296296,27.3241519 45.6296296,26.5104403 C45.6296296,25.6967288 46.2500023,25.037037 47.0152149,25.037037 L50.7255351,25.037037 C51.2503949,25.037037 51.7300845,25.3523453 51.9648026,25.8514362 C52.1995208,26.3506252 52.1489007,26.9479429 51.8340034,27.3943841 L51.3883068,28.0262777 C50.4188589,29.4008647 49.8849467,31.1042172 49.8849467,32.8225983 C49.8849467,33.6363098 49.264574,34.2962963 48.4993615,34.2962963 C47.7341489,34.2962963 47.1137762,33.6368992 47.1137762,32.8231877 C47.1137762,31.1477317 47.4844664,29.4829824 48.1772591,27.9838436 L47.0152149,27.9838436 Z M45.3762433,56.5185185 C44.4934641,56.5185185 43.7777778,55.8966667 43.7777778,55.1296296 C43.7777778,54.3625926 44.4934641,53.7407407 45.3762433,53.7407407 L50.5126456,53.7407407 C51.3954248,53.7407407 52.1111111,54.3625926 52.1111111,55.1296296 C52.1111111,55.8966667 51.3954248,56.5185185 50.5126456,56.5185185 L45.3762433,56.5185185 Z M66,19.9563477 C66,21.5430664 65.0269531,22.9063477 63.6464844,23.4820312 L63.6464844,34.8619141 C63.6464844,37.4081055 61.5860352,39.4648438 59.0436523,39.4648438 L56.5859375,39.4648438 L56.5859375,61.5351562 C56.5859375,62.3441406 55.9300781,63 55.1210938,63 L17.4648438,63 C16.6558594,63 16,62.3441406 16,61.5351562 L16,18.3874023 C16,15.4070312 18.4121094,13 21.3874023,13 L51.1985352,13 C54.1789062,13 56.5859375,15.4121094 56.5859375,18.3874023 L56.5859375,36.5351562 L59.0436523,36.5351562 C59.9689453,36.5351562 60.7167969,35.7861328 60.7167969,34.8619141 L60.7167969,23.4820313 C59.3363281,22.9063477 58.3632812,21.5430664 58.3632812,19.9563477 C58.3632812,17.8508789 60.0761719,16.1379883 62.1816406,16.1379883 C64.2871094,16.1379883 66,17.8508789 66,19.9563477 Z M41.1041992,23.774707 L31.4817383,23.774707 L31.4817383,42.8112305 L41.1041992,42.8112305 L41.1041992,23.774707 Z M53.65625,23.774707 L44.0338867,23.774707 L44.0338867,42.8112305 L53.65625,42.8112305 L53.65625,23.774707 Z M28.5520508,42.8112305 L28.5520508,23.774707 L18.9296875,23.774707 L18.9296875,42.8112305 L28.5520508,42.8112305 Z M18.9296875,45.740918 L18.9296875,47.5182617 L53.65625,47.5182617 L53.65625,45.740918 L18.9296875,45.740918 Z M18.9296875,18.3874023 L18.9296875,20.8450195 L53.6563477,20.8450195 L53.6563477,18.3874023 C53.6563477,17.0282227 52.5561523,15.9296875 51.1986328,15.9296875 L21.3874023,15.9296875 C20.028125,15.9296875 18.9296875,17.0297852 18.9296875,18.3874023 Z M53.65625,60.0703125 L53.65625,50.4479492 L18.9296875,50.4479492 L18.9296875,60.0703125 L53.65625,60.0703125 Z M62.1816406,19.0677734 C61.6916016,19.0677734 61.2929688,19.4664063 61.2929688,19.9564453 C61.2929688,20.4464844 61.6916992,20.8451172 62.1816406,20.8451172 C62.671582,20.8451172 63.0703125,20.4464844 63.0703125,19.9564453 C63.0703125,19.4664063 62.6716797,19.0677734 62.1816406,19.0677734 Z" id="Combined-Shape" fill="#FFFFFF" fill-rule="nonzero"></path>
        </g>
    </g>
</svg>