<?xml version="1.0" encoding="UTF-8"?>
<svg width="76px" height="78px" viewBox="0 0 76 78" version="1.1" xmlns="http://www.w3.org/2000/svg" xmlns:xlink="http://www.w3.org/1999/xlink">
    <!-- Generator: Sketch 53.2 (72643) - https://sketchapp.com -->
    <title>2.4.4-h</title>
    <desc>Created with Sketch.</desc>
    <g id="Page-2" stroke="none" stroke-width="1" fill="none" fill-rule="evenodd">
        <g id="2.4.4-h">
            <g id="Group-25">
                <path d="M15.0353111,78 C6.76586784,78 4.97379915e-14,71.056083 4.97379915e-14,62.5690228 L4.97379915e-14,15.4309772 C4.97379915e-14,6.94391699 6.76586784,0 15.0353111,0 L60.9646889,0 C69.2341322,0 76,6.94391699 76,15.4309772 L76,62.5690228 C76,71.056083 69.2341322,78 60.9646889,78 L15.0353111,78 Z" id="Fill-1-Copy-84" fill="#75A7FF"></path>
                <path d="M60.4534255,20.5907461 C56.6839332,20.5907461 53.6173357,17.4478828 53.6173357,13.5849844 L53.6173357,12 L22.3825614,12 L22.3825614,13.5849844 C22.3825614,17.4480937 19.315861,20.5907461 15.5465745,20.5907461 L14,20.5907461 L14,31.131082 C14,38.7053203 16.226314,45.9985898 20.4385374,52.2223008 C24.6507609,58.4459063 30.5360388,63.1384219 37.4581638,65.7922266 L38,66 L38.5419391,65.7922266 C45.464167,63.1384219 51.3494449,58.4460117 55.5614626,52.2223008 C59.773686,45.9985898 62,38.7053203 62,31.131082 L62,20.5907461 L60.4534255,20.5907461 Z M58.9069539,31.131082 L58.906851,31.131082 C58.906851,38.056582 56.8711317,44.7249492 53.0197207,50.4155156 C49.278941,55.9429219 44.0943968,60.149543 37.9998971,62.6098125 C31.9055003,60.1494375 26.7208531,55.9429219 22.9800735,50.4155156 C19.1287654,44.7250547 17.093149,38.056582 17.093149,31.131082 L17.093149,23.6375273 C21.3321298,22.9551445 24.689662,19.5142266 25.3555082,15.1699687 L50.6445947,15.1699687 C51.310338,19.5142266 54.6678702,22.9551445 58.9069539,23.6375273 L58.9069539,31.131082 Z" id="Shape" fill="#FFFFFF" fill-rule="nonzero"></path>
                <path d="M44.4203276,27 L34.1545403,37.5177295 L30.5796724,33.8551642 L24,40.5963523 L34.1545403,51 L51,33.7411881 L44.4203276,27 Z M28.386517,40.5965638 L30.5797756,38.3495011 L34.1546435,42.0120663 L44.4204308,31.4943369 L46.6136894,33.7413996 L34.1546435,46.506086 L28.386517,40.5965638 Z" id="Shape" fill="#FFFFFF" fill-rule="nonzero"></path>
            </g>
        </g>
    </g>
</svg>