<?xml version="1.0" encoding="UTF-8"?>
<svg width="76px" height="78px" viewBox="0 0 76 78" version="1.1" xmlns="http://www.w3.org/2000/svg" xmlns:xlink="http://www.w3.org/1999/xlink">
    <!-- Generator: Sketch 53.2 (72643) - https://sketchapp.com -->
    <title>2.4.3-h</title>
    <desc>Created with Sketch.</desc>
    <g id="Page-2" stroke="none" stroke-width="1" fill="none" fill-rule="evenodd">
        <g id="2.4.3-h">
            <path d="M15.0353111,78 C6.76586784,78 4.97379915e-14,71.056083 4.97379915e-14,62.5690228 L4.97379915e-14,15.4309772 C4.97379915e-14,6.94391699 6.76586784,0 15.0353111,0 L60.9646889,0 C69.2341322,0 76,6.94391699 76,15.4309772 L76,62.5690228 C76,71.056083 69.2341322,78 60.9646889,78 L15.0353111,78 Z" id="Fill-1-Copy-82" fill="#75A7FF"></path>
            <g id="Group-26" transform="translate(7.000000, 4.000000)" fill="#FFFFFF" fill-rule="nonzero">
                <path d="M40.5,23 C39.67155,23 39,23.5505693 39,24.2294981 L39,26.7705019 C39,27.4494307 39.67155,28 40.5,28 C41.32845,28 42,27.4494307 42,26.7705019 L42,24.2294981 C42,23.5505693 41.32845,23 40.5,23 Z" id="XMLID_149_" transform="translate(40.500000, 25.500000) scale(-1, 1) translate(-40.500000, -25.500000) "></path>
                <path d="M35.5,23 C34.67155,23 34,23.5505693 34,24.2294981 L34,26.7705019 C34,27.4494307 34.67155,28 35.5,28 C36.32845,28 37,27.4494307 37,26.7705019 L37,24.2294981 C37,23.5505693 36.32845,23 35.5,23 Z" id="XMLID_666_" transform="translate(35.500000, 25.500000) scale(-1, 1) translate(-35.500000, -25.500000) "></path>
                <path d="M31.5,23 C30.67155,23 30,23.5505693 30,24.2294981 L30,26.7705019 C30,27.4494307 30.67155,28 31.5,28 C32.32845,28 33,27.4494307 33,26.7705019 L33,24.2294981 C33,23.5505693 32.32845,23 31.5,23 Z" id="XMLID_1082_" transform="translate(31.500000, 25.500000) scale(-1, 1) translate(-31.500000, -25.500000) "></path>
                <path d="M26.5,23 C25.67155,23 25,23.5505693 25,24.2294981 L25,26.7705019 C25,27.4494307 25.67155,28 26.5,28 C27.32845,28 28,27.4494307 28,26.7705019 L28,24.2294981 C28,23.5505693 27.32845,23 26.5,23 Z" id="XMLID_1380_" transform="translate(26.500000, 25.500000) scale(-1, 1) translate(-26.500000, -25.500000) "></path>
                <path d="M21.5,23 C20.67155,23 20,23.5505693 20,24.2294981 L20,26.7705019 C20,27.4494307 20.67155,28 21.5,28 C22.32845,28 23,27.4494307 23,26.7705019 L23,24.2294981 C23,23.5505693 22.32845,23 21.5,23 Z" id="XMLID_1437_" transform="translate(21.500000, 25.500000) scale(-1, 1) translate(-21.500000, -25.500000) "></path>
                <path d="M48.5,54 C48.1055,54 47.7185,54.1605 47.4395,54.43965 C47.1605,54.7185 47,55.1055 47,55.5 C47,55.89465 47.1605,56.2815 47.4395,56.5605 C47.7185,56.8395 48.1055,57 48.5,57 C48.8945,57 49.2815,56.83965 49.5605,56.5605 C49.8395,56.28135 50,55.89465 50,55.5 C50,55.1055 49.8395,54.7185 49.5605,54.43965 C49.2815,54.1605 48.8945,54 48.5,54 Z" id="XMLID_1438_" transform="translate(48.500000, 55.500000) scale(-1, 1) translate(-48.500000, -55.500000) "></path>
                <path d="M48.5,44 C47.67155,44 47,44.565797 47,45.2635037 L47,50.7364963 C47,51.434203 47.67155,52 48.5,52 C49.32845,52 50,51.434203 50,50.7364963 L50,45.2635037 C50,44.565797 49.32845,44 48.5,44 Z" id="XMLID_1439_" transform="translate(48.500000, 48.000000) scale(-1, 1) translate(-48.500000, -48.000000) "></path>
                <path d="M41.5,44 C40.67155,44 40,44.5670176 40,45.2662297 L40,55.7337703 C40,56.4329824 40.67155,57 41.5,57 C42.32845,57 43,56.4329824 43,55.7337703 L43,45.2662297 C43,44.5670176 42.32845,44 41.5,44 Z" id="XMLID_1455_" transform="translate(41.500000, 50.500000) scale(-1, 1) translate(-41.500000, -50.500000) "></path>
                <path d="M34.5,44 C33.67155,44 33,44.5670176 33,45.2662297 L33,55.7337703 C33,56.4329824 33.67155,57 34.5,57 C35.32845,57 36,56.4329824 36,55.7337703 L36,45.2662297 C36,44.5670176 35.32845,44 34.5,44 Z" id="XMLID_1456_" transform="translate(34.500000, 50.500000) scale(-1, 1) translate(-34.500000, -50.500000) "></path>
                <path d="M27.5,44 C26.67155,44 26,44.5670176 26,45.2662297 L26,55.7337703 C26,56.4329824 26.67155,57 27.5,57 C28.32845,57 29,56.4329824 29,55.7337703 L29,45.2662297 C29,44.5670176 28.32845,44 27.5,44 Z" id="XMLID_1471_" transform="translate(27.500000, 50.500000) scale(-1, 1) translate(-27.500000, -50.500000) "></path>
                <path d="M20.5,44 C19.67155,44 19,44.5670176 19,45.2662297 L19,55.7337703 C19,56.4329824 19.67155,57 20.5,57 C21.32845,57 22,56.4329824 22,55.7337703 L22,45.2662297 C22,44.5670176 21.32845,44 20.5,44 Z" id="XMLID_1480_" transform="translate(20.500000, 50.500000) scale(-1, 1) translate(-20.500000, -50.500000) "></path>
                <path d="M13.5,44 C13.1055,44 12.7185,44.1605 12.4395,44.43965 C12.1605,44.72015 12,45.1055 12,45.5 C12,45.89615 12.1605,46.2815 12.4395,46.5605 C12.7185,46.841 13.1055,47 13.5,47 C13.8945,47 14.2815,46.841 14.5605,46.5605 C14.8395,46.2815 15,45.896 15,45.5 C15,45.1055 14.8395,44.72015 14.5605,44.43965 C14.2815,44.1605 13.8945,44 13.5,44 Z" id="XMLID_1584_" transform="translate(13.500000, 45.500000) scale(-1, 1) translate(-13.500000, -45.500000) "></path>
                <path d="M13.5,49 C12.67155,49 12,49.5716565 12,50.276589 L12,55.723411 C12,56.4283435 12.67155,57 13.5,57 C14.32845,57 15,56.4283435 15,55.723411 L15,50.276589 C15,49.5716565 14.32845,49 13.5,49 Z" id="XMLID_1585_" transform="translate(13.500000, 53.000000) scale(-1, 1) translate(-13.500000, -53.000000) "></path>
                <path d="M43.5,33 C42.67155,33 42,33.5505693 42,34.2294981 L42,36.7705019 C42,37.4494307 42.67155,38 43.5,38 C44.32845,38 45,37.4494307 45,36.7705019 L45,34.2294981 C45,33.5505693 44.32845,33 43.5,33 Z" id="XMLID_1598_" transform="translate(43.500000, 35.500000) scale(-1, 1) translate(-43.500000, -35.500000) "></path>
                <path d="M38.5,33 C37.67155,33 37,33.5505693 37,34.2294981 L37,36.7705019 C37,37.4494307 37.67155,38 38.5,38 C39.32845,38 40,37.4494307 40,36.7705019 L40,34.2294981 C40,33.5505693 39.32845,33 38.5,33 Z" id="XMLID_1599_" transform="translate(38.500000, 35.500000) scale(-1, 1) translate(-38.500000, -35.500000) "></path>
                <path d="M33.5,33 C32.67155,33 32,33.5505693 32,34.2294981 L32,36.7705019 C32,37.4494307 32.67155,38 33.5,38 C34.32845,38 35,37.4494307 35,36.7705019 L35,34.2294981 C35,33.5505693 34.32845,33 33.5,33 Z" id="XMLID_1600_" transform="translate(33.500000, 35.500000) scale(-1, 1) translate(-33.500000, -35.500000) "></path>
                <path d="M28.5,33 C27.67155,33 27,33.5505693 27,34.2294981 L27,36.7705019 C27,37.4494307 27.67155,38 28.5,38 C29.32845,38 30,37.4494307 30,36.7705019 L30,34.2294981 C30,33.5505693 29.32845,33 28.5,33 Z" id="XMLID_1601_" transform="translate(28.500000, 35.500000) scale(-1, 1) translate(-28.500000, -35.500000) "></path>
                <path d="M23.5,33 C22.67155,33 22,33.5505693 22,34.2294981 L22,36.7705019 C22,37.4494307 22.67155,38 23.5,38 C24.32845,38 25,37.4494307 25,36.7705019 L25,34.2294981 C25,33.5505693 24.32845,33 23.5,33 Z" id="XMLID_1602_" transform="translate(23.500000, 35.500000) scale(-1, 1) translate(-23.500000, -35.500000) "></path>
                <path d="M18.5,33 C17.67155,33 17,33.5505693 17,34.2294981 L17,36.7705019 C17,37.4494307 17.67155,38 18.5,38 C19.32845,38 20,37.4494307 20,36.7705019 L20,34.2294981 C20,33.5505693 19.32845,33 18.5,33 Z" id="XMLID_1604_" transform="translate(18.500000, 35.500000) scale(-1, 1) translate(-18.500000, -35.500000) "></path>
                <path d="M60.7890625,43.0970438 L55.9453125,43.0970438 L55.9453125,40.4312423 C55.9453125,39.7621261 55.4031758,39.2195143 54.734375,39.2195143 L49.1640625,39.2195143 L49.1640625,30.9797641 L50.0117188,30.9797641 C50.6805195,30.9797641 51.2226562,30.4371524 51.2226562,29.7680362 C51.2226562,29.09892 50.6805195,28.5563082 50.0117188,28.5563082 L46.6210938,28.5563082 L46.6210938,22.249143 C47.2329805,22.1883143 47.7109375,21.6717546 47.7109375,21.0435948 C47.7109375,20.3744787 47.1688008,19.8318669 46.5,19.8318669 L45.4101562,19.8318669 L43.5129805,19.8318669 L43.5129805,18.7817834 C43.5129805,12.2863157 38.5445039,6.9308416 32.2109375,6.3192825 L32.2109375,1.21172796 C32.2109375,0.542611782 31.6688008,0 31,0 C30.3311992,0 29.7890625,0.542611782 29.7890625,1.21172796 L29.7890625,6.3192825 C23.455375,6.9308416 18.4870195,12.2863157 18.4870195,18.7817834 L18.4870195,19.8318669 L16.5898438,19.8318669 L15.5,19.8318669 C14.8311992,19.8318669 14.2890625,20.3744787 14.2890625,21.0435948 C14.2890625,21.6718758 14.7670195,22.1884354 15.3789062,22.249143 L15.3789062,28.5563082 L11.9882812,28.5563082 C11.3194805,28.5563082 10.7773438,29.09892 10.7773438,29.7680362 C10.7773438,30.4371524 11.3194805,30.9797641 11.9882812,30.9797641 L12.8359375,30.9797641 L12.8359375,39.2195143 L7.265625,39.2195143 C6.59682422,39.2195143 6.0546875,39.7621261 6.0546875,40.4312423 L6.0546875,43.0970438 L1.2109375,43.0970438 C0.542136719,43.0970438 0,43.6396556 0,44.3087717 L0,60.788272 C0,61.4573882 0.542136719,62 1.2109375,62 L60.7890625,62 C61.4578633,62 62,61.4573882 62,60.788272 L62,44.3087717 C62,43.6396556 61.4578633,43.0970438 60.7890625,43.0970438 Z M20.9088945,18.7817834 C20.9088945,13.2138934 25.4357422,8.68396962 31,8.68396962 C36.5642578,8.68396962 41.0911055,13.2138934 41.0911055,18.7817834 L41.0911055,19.8318669 L20.9088945,19.8318669 L20.9088945,18.7817834 Z M17.8007813,22.2553228 L19.697957,22.2553228 L42.3021641,22.2553228 L44.1992188,22.2553228 L44.1992188,28.5563082 L17.8007813,28.5563082 L17.8007813,22.2553228 Z M15.2578125,30.9797641 L46.7421875,30.9797641 L46.7421875,39.2195143 L15.2578125,39.2195143 L15.2578125,30.9797641 Z M2.421875,45.5204997 L6.0546875,45.5204997 L6.0546875,59.5765441 L2.421875,59.5765441 L2.421875,45.5204997 Z M8.4765625,44.3087717 L8.4765625,41.6429702 L53.5234375,41.6429702 L53.5234375,44.3087717 L53.5234375,59.5765441 L8.4765625,59.5765441 L8.4765625,44.3087717 Z M59.578125,59.5765441 L55.9453125,59.5765441 L55.9453125,45.5204997 L59.578125,45.5204997 L59.578125,59.5765441 Z" id="XMLID_1608_" transform="translate(31.000000, 31.000000) scale(-1, 1) translate(-31.000000, -31.000000) "></path>
            </g>
        </g>
    </g>
</svg>