<?xml version="1.0" encoding="UTF-8"?>
<svg width="76px" height="78px" viewBox="0 0 76 78" version="1.1" xmlns="http://www.w3.org/2000/svg" xmlns:xlink="http://www.w3.org/1999/xlink">
    <!-- Generator: Sketch 53.2 (72643) - https://sketchapp.com -->
    <title>2.4.1-h</title>
    <desc>Created with Sketch.</desc>
    <g id="Page-2" stroke="none" stroke-width="1" fill="none" fill-rule="evenodd">
        <g id="2.4.1-h">
            <path d="M15.0353111,78 C6.76586784,78 4.97379915e-14,71.056083 4.97379915e-14,62.5690228 L4.97379915e-14,15.4309772 C4.97379915e-14,6.94391699 6.76586784,0 15.0353111,0 L60.9646889,0 C69.2341322,0 76,6.94391699 76,15.4309772 L76,62.5690228 C76,71.056083 69.2341322,78 60.9646889,78 L15.0353111,78 Z" id="Fill-1-Copy-78" fill="#75A7FF"></path>
            <path d="M55.3307939,17.199375 C54.3904026,16.3872656 52.7429827,15.5506641 50.2223081,16.1730469 C48.8311082,16.5154688 47.3033614,17.2798828 45.6578562,18.45 L45.6578562,16.4998828 L50.7646666,9 L37.9991366,9 L25.2354017,9 L30.3401776,16.4998828 L30.3401776,18.45 C28.6965872,17.28 27.1670453,16.5154688 25.7776405,16.1730469 C23.2570856,15.5505469 21.6097853,16.3872656 20.6691547,17.199375 C18.5711655,19.0121484 17.643699,22.7566406 18.1241865,27.4723828 C18.5393325,31.5519141 19.9716999,35.7907031 21.9986032,39.0114844 C21.9929786,46.5094922 24.2143508,55.6060547 30.3400579,60.2496094 L25.235282,67.7494922 C25.235282,67.7494922 29.6406883,69 37.9990169,69 C46.3590209,69 50.7645469,67.7494922 50.7645469,67.7494922 L45.6578562,60.2496094 C51.7855978,55.6060547 54.0070897,46.5094922 54.001465,39.0114844 C56.0283684,35.7925781 57.4606161,31.5519141 57.8757621,27.4723828 C58.3563693,22.7566406 57.4289027,19.0121484 55.3307939,17.199375 Z M30.0054519,11.5003125 L37.9991366,11.5003125 L45.9946163,11.5003125 L44.2929845,13.9996875 L31.7069641,13.9996875 L30.0054519,11.5003125 Z M22.3482881,34.0659375 C21.4938221,31.9080469 20.9010812,29.5415625 20.6654449,27.2252344 C20.2784221,23.4330469 20.9272896,20.3103516 22.3576226,19.074375 C24.4219836,17.2918359 28.0924774,19.7592187 30.3400579,21.6332812 L30.3400579,23.9997656 C30.3400579,23.9997656 23.8440822,26.7070312 22.6063033,32.619375 C22.5091287,33.0808594 22.4230837,33.5641406 22.3482881,34.0659375 Z M48.2347772,53.2789453 C47.1035073,55.3680469 45.7103927,57.0489844 44.0967206,58.2720703 L42.2156987,59.6984766 L43.533898,61.6355859 L46.4976024,65.9880469 C44.4800335,66.2535938 41.6284628,66.4988672 37.9991366,66.4988672 C34.3716055,66.4988672 31.5199151,66.2534766 29.5023462,65.9880469 L32.4642555,61.6355859 L33.7843695,59.6984766 L31.903228,58.2720703 C30.2895559,57.0488672 28.896561,55.3680469 27.7652911,53.2789453 C27.0659215,51.9880078 26.4750954,50.5543359 25.9926931,48.9997266 L29.064941,48.9997266 L29.064941,39.0004688 L34.1695973,39.0004688 L34.1695973,41.4998438 L31.6172093,41.4998438 L31.6172093,48.9997266 L41.8285562,48.9997266 L41.8285562,39.0004688 L46.9351273,39.0004688 L46.9351273,41.4998438 L44.3827393,41.4998438 L44.3827393,48.9997266 L50.0073752,48.9997266 C49.5249729,50.5543359 48.932232,51.9880078 48.2347772,53.2789453 Z M51.4490771,39.3282422 C51.4284933,41.7471094 51.157314,44.2263281 50.6618674,46.5003516 L46.9351273,46.5003516 L46.9351273,43.9992188 L49.4875152,43.9992188 L49.4875152,36.4993359 L39.2762879,36.4993359 L39.2762879,46.5003516 L34.1695973,46.5003516 L34.1695973,43.9992188 L36.7237803,43.9992188 L36.7237803,36.4993359 L26.5106383,36.4993359 L26.5106383,39.0004688 L26.5106383,46.5003516 L25.3382009,46.5003516 C24.8426346,44.2263281 24.571575,41.7469922 24.5509912,39.3282422 C24.5323222,37.0926563 24.7248762,34.9457813 25.1063941,33.1210547 C26.0412804,28.6598438 31.1629302,26.3773828 31.3461497,26.2986328 L32.8944803,25.6678125 L32.8944803,23.9997656 L32.8944803,16.4998828 L43.1058273,16.4998828 L43.1058273,23.9997656 L43.0871583,25.6596094 L44.6540382,26.2986328 C44.8372577,26.3773828 49.9589076,28.6597266 50.8919988,33.1210547 C51.275192,34.9456641 51.4658313,37.0926563 51.4490771,39.3282422 Z M55.3345037,27.2252344 C55.0989871,29.5423828 54.5062462,31.9089844 53.6516605,34.0659375 C53.5768648,33.5651953 53.4908199,33.0808594 53.3936453,32.619375 C52.1557467,26.7070312 45.6578562,23.9997656 45.6578562,23.9997656 L45.6578562,21.6332813 C50.4860676,17.5958203 52.7262284,18.2833594 53.6405309,19.074375 C55.0728983,20.3103516 55.7216462,23.4330469 55.3345037,27.2252344 Z" id="Shape" fill="#FFFFFF" fill-rule="nonzero"></path>
        </g>
    </g>
</svg>