<?xml version="1.0" encoding="UTF-8"?>
<svg width="76px" height="78px" viewBox="0 0 76 78" version="1.1" xmlns="http://www.w3.org/2000/svg" xmlns:xlink="http://www.w3.org/1999/xlink">
    <!-- Generator: Sketch 53.2 (72643) - https://sketchapp.com -->
    <title>3.1.6-h</title>
    <desc>Created with Sketch.</desc>
    <g id="Page-2" stroke="none" stroke-width="1" fill="none" fill-rule="evenodd">
        <g id="3.1.6-h">
            <path d="M15.0353111,78 C6.76586784,78 4.97379915e-14,71.056083 4.97379915e-14,62.5690228 L4.97379915e-14,15.4309772 C4.97379915e-14,6.94391699 6.76586784,0 15.0353111,0 L60.9646889,0 C69.2341322,0 76,6.94391699 76,15.4309772 L76,62.5690228 C76,71.056083 69.2341322,78 60.9646889,78 L15.0353111,78 Z" id="Fill-1-Copy-62" fill="#75A7FF"></path>
            <path d="M52.5169385,35.1486169 C52.521615,35.1889436 52.524253,35.2291492 52.5249725,35.2693548 C52.5252123,35.2764997 52.5264114,35.2832814 52.5264114,35.2904264 L52.5264114,49.822563 C52.5264114,50.2386665 52.3148902,50.6255847 51.9661919,50.8473209 L45.7291936,54.8137464 C45.5344597,54.9376329 45.3126263,55 45.0903131,55 C44.8910227,55 44.6914925,54.9499852 44.5107881,54.8492291 C44.1285151,54.6360911 43.8912132,54.230039 43.8912132,53.7889886 L43.8912132,39.9614184 L25.7044647,29.521047 L15.5329797,35.9896644 L32.5850199,45.7787538 L40.8541329,40.5200579 C41.4144723,40.1635362 42.1550364,40.3335622 42.5076917,40.8995889 C42.8605868,41.4654945 42.6923531,42.2132941 42.1318938,42.5695736 L33.2554367,48.2145821 C33.060583,48.3384686 32.8387495,48.4008356 32.6165563,48.4008356 C32.4123496,48.4008356 32.2080229,48.3482778 32.024081,48.2425565 L12.6065763,37.095681 C12.2398916,36.8852073 12.0097843,36.4959882 12.0003114,36.0701966 C11.9907186,35.644405 12.203319,35.2448923 12.5601712,35.0180699 L25.0340479,27.0852187 C25.0368058,27.0834022 25.0396837,27.0815857 25.0425615,27.0797692 L31.2715259,23.1184298 C31.274044,23.1168555 31.276682,23.1151601 31.2792001,23.1135858 L43.7445633,15.1861841 C44.1186825,14.9484626 44.5919672,14.9375635 44.9760389,15.1582098 L64.3934237,26.3050852 C64.7601084,26.515559 64.9902157,26.904778 64.9996886,27.3305696 C65.0092814,27.7563612 64.796681,28.1558739 64.4398288,28.3826963 L55.5633718,34.0275837 C55.0029125,34.3839844 54.2625882,34.2140795 53.909813,33.6480527 C53.5569179,33.0821471 53.7251516,32.3343476 54.2856109,31.978068 L61.4671402,27.4109808 L44.4151,17.6221335 L34.2437349,24.0906298 L51.9094745,34.2320024 C51.9554,34.257797 51.999407,34.2875878 52.0420949,34.3195585 C52.0504886,34.3257347 52.0584027,34.3321531 52.0665566,34.3385714 C52.0984526,34.3638816 52.1290297,34.390766 52.1585275,34.419467 C52.1651226,34.4257642 52.1720774,34.4318193 52.1784326,34.4383588 C52.2123671,34.4728726 52.2447428,34.509324 52.2747203,34.5485608 C52.2784375,34.5534048 52.2814353,34.5586122 52.2851525,34.5635773 C52.3048177,34.5900985 52.3242431,34.6168618 52.3419898,34.6453206 C52.3464265,34.6524656 52.349784,34.6598527 52.3539808,34.6669977 C52.3618949,34.6801977 52.3689696,34.69364 52.3762841,34.7070822 C52.3930715,34.7378419 52.4085399,34.769086 52.4224494,34.8008145 C52.4278454,34.8131668 52.4333612,34.8252769 52.4383975,34.8378714 C52.4560242,34.8818311 52.4716125,34.9262753 52.4838433,34.9713249 C52.4839632,34.9719304 52.4842031,34.9724148 52.484323,34.9728992 C52.4973932,35.0210974 52.5066262,35.0699012 52.513581,35.1188261 C52.5150199,35.1286353 52.5157394,35.1386866 52.5169385,35.1486169 Z M46.2894131,51.5954837 L50.1280916,49.1542058 L50.1280916,37.4841735 L48.778025,38.3426595 C48.5796939,38.4688469 48.3585799,38.5290341 48.1403437,38.5290341 C47.7418828,38.5290341 47.3522952,38.3288539 47.1244662,37.9631285 C46.7715711,37.3972229 46.9398048,36.6494234 47.5002642,36.2931438 L48.9932635,35.3437109 L31.9413431,25.5547425 L28.0067365,28.0570554 L45.6827884,38.2042409 C46.0577469,38.4194376 46.2894131,38.8213723 46.2894131,39.2569731 L46.2894131,51.5954837 Z M63.2066925,31.1849087 C63.7533668,30.8313585 64.4757536,30.9999674 64.8199256,31.5612763 C65.1642146,32.122465 65.0000836,32.8640317 64.4532924,33.2173416 L55.7933075,38.8151788 C55.5998131,38.9403144 55.3840914,39 55.1711774,39 C54.7824338,39 54.4023472,38.8014883 54.1800744,38.4388112 C53.8357854,37.8776224 53.9999164,37.1360558 54.5467076,36.7827458 L63.2066925,31.1849087 Z M41.1434466,45.868866 C41.7094009,45.5010239 42.4573858,45.6764486 42.8135748,46.2605728 C43.1700061,46.8444471 43.0000866,47.6159909 42.4340112,47.983583 L33.468608,53.8078325 C33.2718018,53.9356526 33.0477454,54 32.8233257,54 C32.6170728,54 32.4106987,53.9457733 32.2249136,53.8366951 L12.6128367,42.3358828 C12.0312591,41.9949042 11.8279128,41.2321067 12.1584262,40.6322392 C12.4889396,40.0319969 13.2286889,39.8225868 13.8097821,40.1634405 L32.7914734,51.2945365 L41.1434466,45.868866 Z M63.2066925,36.1849372 C63.7533668,35.8313883 64.4757536,35.9998765 64.8199256,36.5613034 C65.1642146,37.1224901 65.0000836,37.864054 64.4532924,38.2173627 L55.7933075,43.8151795 C55.5998131,43.9403146 55.3840914,44 55.1711774,44 C54.7824338,44 54.4023472,43.801489 54.1800744,43.4388133 C53.8357854,42.8776265 53.9999164,42.1360626 54.5467076,41.7827539 L63.2066925,36.1849372 Z M41.1434466,49.868866 C41.7094009,49.5010239 42.4573858,49.6763236 42.8135748,50.2605728 C43.1700061,50.8444471 43.0000866,51.6159909 42.4340112,51.983583 L33.468608,57.8078325 C33.2718018,57.9356526 33.0477454,58 32.8233257,58 C32.6170728,58 32.4106987,57.9457733 32.2249136,57.8366951 L12.6128367,46.3358828 C12.0312591,45.9949042 11.8279128,45.2321067 12.1584262,44.6322392 C12.4889396,44.0319969 13.2286889,43.8225868 13.8097821,44.1634405 L32.7914734,55.2945365 L41.1434466,49.868866 Z M63.2066925,41.1848567 C63.7533668,40.8314243 64.4757536,40.9999141 64.8199256,41.5612268 C65.1642146,42.1224193 65.0000836,42.8639908 64.4532924,43.2173031 L55.7933075,48.8151776 C55.5998131,48.940314 55.3840914,49 55.1711774,49 C54.7824338,49 54.4023472,48.801487 54.1800744,48.4388075 C53.8357854,47.877615 53.9999164,47.1360434 54.5467076,46.7827311 L63.2066925,41.1848567 Z M41.1434466,54.868866 C41.7094009,54.5010239 42.4573858,54.6764486 42.8135748,55.2605728 C43.1700061,55.8444471 43.0000866,56.6159909 42.4340112,56.983583 L33.468608,62.8078325 C33.2718018,62.9356526 33.0477454,63 32.8233257,63 C32.6170728,63 32.4106987,62.9457733 32.2249136,62.8366951 L12.6128367,51.3358828 C12.0312591,50.9949042 11.8279128,50.2321067 12.1584262,49.6322392 C12.4889396,49.0319969 13.2286889,48.8225868 13.8097821,49.1634405 L32.7914734,60.2945365 L41.1434466,54.868866 Z" id="Combined-Shape" fill="#FFFFFF" fill-rule="nonzero"></path>
        </g>
    </g>
</svg>