<?xml version="1.0" encoding="UTF-8"?>
<svg width="76px" height="78px" viewBox="0 0 76 78" version="1.1" xmlns="http://www.w3.org/2000/svg" xmlns:xlink="http://www.w3.org/1999/xlink">
    <!-- Generator: Sketch 53.2 (72643) - https://sketchapp.com -->
    <title>3.2.2-h</title>
    <desc>Created with Sketch.</desc>
    <g id="Page-2" stroke="none" stroke-width="1" fill="none" fill-rule="evenodd">
        <g id="3.2.2-h">
            <path d="M15.0353111,78 C6.76586784,78 4.97379915e-14,71.056083 4.97379915e-14,62.5690228 L4.97379915e-14,15.4309772 C4.97379915e-14,6.94391699 6.76586784,0 15.0353111,0 L60.9646889,0 C69.2341322,0 76,6.94391699 76,15.4309772 L76,62.5690228 C76,71.056083 69.2341322,78 60.9646889,78 L15.0353111,78 Z" id="Fill-1-Copy-92" fill="#75A7FF"></path>
            <g id="Shape-Copy-5" transform="translate(10.000000, 9.000000)" fill="#FFFFFF" fill-rule="nonzero">
                <path d="M57,20.2881356 L57,18.3559322 L53.2,18.3559322 L53.2,4.83050847 C53.2001188,4.29709958 52.7749938,3.86452754 52.250475,3.86440678 C52.2503563,3.86440678 52.2501188,3.86440678 52.25,3.86440678 L31.35,3.86440678 C30.8254813,3.86428602 30.4001188,4.29661653 30.4,4.83002542 C30.4,4.83014619 30.4,4.83038771 30.4,4.83050847 L30.4,18.3559322 L27.55,18.3559322 L27.55,4.83050847 C27.5501188,4.29709958 27.1249938,3.86452754 26.600475,3.86440678 C26.6003563,3.86440678 26.6001188,3.86440678 26.6,3.86440678 L5.70000002,3.86440678 C5.17548127,3.86428602 4.75011877,4.29661653 4.75000002,4.83002542 C4.75000002,4.83014619 4.75000002,4.83038771 4.75000002,4.83050847 L4.75000002,18.3559322 L1.90000002,18.3559322 L1.90000002,0 L0,0 L2.48717332e-08,56.0338983 C-0.000118725128,56.5673072 0.425006275,56.9998792 0.949525024,57 C0.949643774,57 0.949881274,57 0.950000024,57 L57,57 L57,55.0677966 L53.2,55.0677966 L53.2,41.5423729 C53.2001188,41.008964 52.7749938,40.5763919 52.250475,40.5762712 C52.2503563,40.5762712 52.2501188,40.5762712 52.25,40.5762712 L31.35,40.5762712 C30.8254813,40.5761504 30.4001188,41.0084809 30.4,41.5418898 C30.4,41.5420106 30.4,41.5422521 30.4,41.5423729 L30.4,55.0677966 L27.55,55.0677966 L27.55,41.5423729 C27.5501188,41.008964 27.1249938,40.5763919 26.600475,40.5762712 C26.6003563,40.5762712 26.6001188,40.5762712 26.6,40.5762712 L5.70000002,40.5762712 C5.17548127,40.5761504 4.75011877,41.0084809 4.75000002,41.5418898 C4.75000002,41.5420106 4.75000002,41.5422521 4.75000002,41.5423729 L4.75000002,55.0677966 L1.90000002,55.0677966 L1.90000002,38.6440678 L57,38.6440678 L57,36.7118644 L53.2,36.7118644 L53.2,23.1864407 C53.2001188,22.6530318 52.7749938,22.2204597 52.250475,22.220339 C52.2503563,22.220339 52.2501188,22.220339 52.25,22.220339 L31.35,22.220339 C30.8254813,22.2202182 30.4001188,22.6525487 30.4,23.1859576 C30.4,23.1860784 30.4,23.1863199 30.4,23.1864407 L30.4,36.7118644 L27.55,36.7118644 L27.55,23.1864407 C27.5501188,22.6530318 27.1249938,22.2204597 26.600475,22.220339 C26.6003563,22.220339 26.6001188,22.220339 26.6,22.220339 L5.70000002,22.220339 C5.17548127,22.2202182 4.75011877,22.6525487 4.75000002,23.1859576 C4.75000002,23.1860784 4.75000002,23.1863199 4.75000002,23.1864407 L4.75000002,36.7118644 L1.90000002,36.7118644 L1.90000002,20.2881356 L57,20.2881356 Z M39.9,5.79661017 L43.7,5.79661017 L43.7,9.66101695 L39.9,9.66101695 L39.9,5.79661017 Z M32.3,5.79661017 L38,5.79661017 L38,10.6271186 C37.9998813,11.1605275 38.4250063,11.5930996 38.949525,11.5932203 C38.9496438,11.5932203 38.9498813,11.5932203 38.95,11.5932203 L44.65,11.5932203 C45.1745188,11.5933411 45.5998813,11.1610106 45.6,10.6276017 C45.6,10.6274809 45.6,10.6272394 45.6,10.6271186 L45.6,5.79661017 L51.3,5.79661017 L51.3,18.3559322 L32.3,18.3559322 L32.3,5.79661017 Z M14.25,5.79661017 L18.05,5.79661017 L18.05,9.66101695 L14.25,9.66101695 L14.25,5.79661017 Z M6.65000002,5.79661017 L12.35,5.79661017 L12.35,10.6271186 C12.3498813,11.1605275 12.7750063,11.5930996 13.299525,11.5932203 C13.2996438,11.5932203 13.2998813,11.5932203 13.3,11.5932203 L19,11.5932203 C19.5245188,11.5933411 19.9498813,11.1610106 19.95,10.6276017 C19.95,10.6274809 19.95,10.6272394 19.95,10.6271186 L19.95,5.79661017 L25.65,5.79661017 L25.65,18.3559322 L6.65000002,18.3559322 L6.65000002,5.79661017 Z M39.9,42.5084746 L43.7,42.5084746 L43.7,46.3728814 L39.9,46.3728814 L39.9,42.5084746 Z M32.3,42.5084746 L38,42.5084746 L38,47.3389831 C37.9998813,47.8723919 38.4250063,48.304964 38.949525,48.3050847 C38.9496438,48.3050847 38.9498813,48.3050847 38.95,48.3050847 L44.65,48.3050847 C45.1745188,48.3052055 45.5998813,47.872875 45.6,47.3394661 C45.6,47.3393453 45.6,47.3391038 45.6,47.3389831 L45.6,42.5084746 L51.3,42.5084746 L51.3,55.0677966 L32.3,55.0677966 L32.3,42.5084746 Z M14.25,42.5084746 L18.05,42.5084746 L18.05,46.3728814 L14.25,46.3728814 L14.25,42.5084746 Z M6.65000002,42.5084746 L12.35,42.5084746 L12.35,47.3389831 C12.3498813,47.8723919 12.7750063,48.304964 13.299525,48.3050847 C13.2996438,48.3050847 13.2998813,48.3050847 13.3,48.3050847 L19,48.3050847 C19.5245188,48.3052055 19.9498813,47.872875 19.95,47.3394661 C19.95,47.3393453 19.95,47.3391038 19.95,47.3389831 L19.95,42.5084746 L25.65,42.5084746 L25.65,55.0677966 L6.65000002,55.0677966 L6.65000002,42.5084746 Z M39.9,25.1186441 L43.7,25.1186441 L43.7,28.9830508 L39.9,28.9830508 L39.9,25.1186441 Z M32.3,24.1525424 L38,24.1525424 L38,29.9491525 C37.9998813,30.4825614 38.4250063,30.9151335 38.949525,30.9152542 C38.9496438,30.9152542 38.9498813,30.9152542 38.95,30.9152542 L44.65,30.9152542 C45.1745188,30.915375 45.5998813,30.4830445 45.6,29.9496356 C45.6,29.9495148 45.6,29.9492733 45.6,29.9491525 L45.6,24.1525424 L51.3,24.1525424 L51.3,36.7118644 L32.3,36.7118644 L32.3,24.1525424 Z M14.25,24.1525424 L18.05,24.1525424 L18.05,28.0169492 L14.25,28.0169492 L14.25,24.1525424 Z M6.65000002,24.1525424 L12.35,24.1525424 L12.35,28.9830508 C12.3498813,29.5164597 12.7750063,29.9490318 13.299525,29.9491525 C13.2996438,29.9491525 13.2998813,29.9491525 13.3,29.9491525 L19,29.9491525 C19.5245188,29.9492733 19.9498813,29.5169428 19.95,28.9835339 C19.95,28.9834131 19.95,28.9831716 19.95,28.9830508 L19.95,24.1525424 L25.65,24.1525424 L25.65,36.7118644 L6.65000002,36.7118644 L6.65000002,24.1525424 Z" id="Shape-Copy-4"></path>
            </g>
        </g>
    </g>
</svg>