<?xml version="1.0" encoding="UTF-8"?>
<svg width="54px" height="59px" viewBox="0 0 54 59" version="1.1" xmlns="http://www.w3.org/2000/svg" xmlns:xlink="http://www.w3.org/1999/xlink">
    <!-- Generator: Sketch 53.2 (72643) - https://sketchapp.com -->
    <title>3.2.1</title>
    <desc>Created with Sketch.</desc>
    <g id="Page-2" stroke="none" stroke-width="1" fill="none" fill-rule="evenodd">
        <g id="3.2.1" transform="translate(-11.000000, -9.000000)">
            <path d="M15.0353111,78 C6.76586784,78 4.97379915e-14,71.056083 4.97379915e-14,62.5690228 L4.97379915e-14,15.4309772 C4.97379915e-14,6.94391699 6.76586784,0 15.0353111,0 L60.9646889,0 C69.2341322,0 76,6.94391699 76,15.4309772 L76,62.5690228 C76,71.056083 69.2341322,78 60.9646889,78 L15.0353111,78 Z" id="Fill-1-Copy-91"></path>
            <path d="M65,48.0774944 L56.3851267,39.5295389 L57.3423349,38.5797661 L53.1171583,34.3874094 L51.2821977,36.2081165 L49.9323847,34.5344201 L51.599086,32.8811291 L50.6418779,31.9313562 L52.8367262,29.7535568 L56.2364977,24.185699 L54.9493145,22.9085143 L63.525862,14.3985867 L64.741535,10.7798966 L62.9477046,9 L59.3006854,10.20623 L50.7241379,18.7161576 L49.4364873,17.4385091 L44.0101267,20.6699627 L41.6353344,22.9947729 L41.6306606,22.9901354 L34.8862692,29.6821383 C33.6425529,28.851087 31.8622767,28.9262156 30.731668,29.941378 L12.7830805,46.0545895 C11.6496676,47.0716071 11,48.5259468 11,50.0424297 C11,51.4786829 11.5636684,52.8291411 12.5867782,53.8443036 L25.8881387,67.0423432 C26.5046219,67.6540378 27.3501246,68 28.2199315,68 C28.2451703,68 28.2690071,68 28.2937785,67.9990724 C29.1247923,67.9809859 29.9114042,67.6549653 30.5096593,67.0812987 L34.8801932,62.8931159 C35.520513,62.2804939 35.8874117,61.4225448 35.8874117,60.5404803 L35.8874117,60.4370627 C35.8874117,59.5628821 35.5448172,58.7415697 34.9213232,58.1243102 L33.4761632,56.689912 L37.6331013,53.2525507 C38.349138,52.6603338 38.7590361,51.7921821 38.7590361,50.8679159 C38.7590361,50.0396472 38.4337349,49.2610004 37.842958,48.6748125 L36.4866015,47.3289918 L44.9243352,39.5550455 L44.898629,39.5295389 L45.2113107,39.2188222 L46.8981096,40.5581503 L45.0631491,42.3788574 L49.2883257,46.5712141 L50.2455339,45.6214413 L58.8604071,54.1693968 L65,48.0774944 Z M60.334545,11.8664775 L62.4307747,11.1731619 L62.5513606,11.292811 L61.8526173,13.3727578 L53.5957624,21.5654761 L52.0776901,20.0591958 L60.334545,11.8664775 Z M53.826184,24.4801842 L51.970191,27.5511782 L46.0460635,21.6726038 L49.1406315,19.8310277 L53.826184,24.4801842 Z M44.502285,22.8268932 L50.806398,29.0820377 L49.2883257,30.5883181 L42.9842127,24.3331735 L44.502285,22.8268932 Z M24.400914,44.8349106 L20.8828936,41.3446809 L22.4766826,39.9130653 L25.9189863,43.3286303 L24.400914,44.8349106 Z M23.0473619,46.1779488 L22.4864977,46.7344563 C21.9831222,47.2339218 21.075457,47.2339218 20.5720814,46.7344563 L17.8677814,44.0511625 L19.4615704,42.6200107 L23.0473619,46.1779488 Z M27.2725384,41.9855921 L23.8984732,38.6377356 L25.4922621,37.2065838 L28.7906107,40.4793118 L27.2725384,41.9855921 Z M30.705027,38.5797661 L30.1441629,39.1362736 L26.9135854,35.9307903 L28.5073743,34.4996384 L30.705027,36.6802204 C30.9569485,36.9301849 31.101371,37.2766109 31.101371,37.6299932 C31.101371,37.9833755 30.9569485,38.3298014 30.705027,38.5797661 Z M23.6072912,62.0931363 L16.9760074,55.5133624 C17.7518695,55.0013755 18.6614042,54.7259043 19.6148733,54.7259043 C22.253739,54.7259043 24.400914,56.8564005 24.400914,59.4747685 C24.400914,60.4208313 24.1232862,61.3228372 23.6072912,62.0931363 Z M36.4894059,50.0178507 C36.7184254,50.2455549 36.8446199,50.5479241 36.8446199,50.8679159 C36.8446199,51.2259357 36.6857084,51.562159 36.4080805,51.7921821 L32.1170025,55.3403813 L31.809462,55.0356935 C31.3532925,54.5826035 31.101371,53.9792567 31.101371,53.3383456 C31.101371,52.6723916 31.3827378,52.0314803 31.874896,51.5783905 L35.0835064,48.6224081 L36.4894059,50.0178507 Z M30.5718218,50.1857304 C29.691265,50.9968402 29.1869547,52.1464919 29.1869547,53.3383456 C29.1869547,54.4866061 29.6375156,55.5671581 30.4563772,56.3791954 L33.5682384,59.4673484 C33.8295077,59.7256606 33.9729954,60.069304 33.9729954,60.4356715 L33.9729954,60.5395529 C33.9729954,60.9096303 33.8187577,61.269969 33.5509451,61.5264262 L29.1790091,65.7155366 C28.9294246,65.9557624 28.5989821,66.0916429 28.2507789,66.1004543 C27.8698587,66.0944254 27.5071665,65.9627186 27.2416908,65.6997689 L24.976267,63.4514785 C25.8404653,62.3078555 26.3153303,60.9286444 26.3153303,59.4747685 C26.3153303,55.8087752 23.3095658,52.8263586 19.6148733,52.8263586 C18.1491483,52.8263586 16.7596074,53.297535 15.6070315,54.1550203 L13.9403303,52.5012654 C13.2887931,51.8547892 12.9144163,50.9578845 12.9144163,50.0424297 C12.9144163,49.0615852 13.334597,48.1210875 14.0679269,47.4639449 L16.4473929,45.3278836 L19.2185293,48.0774944 C19.8359472,48.6901164 20.6562111,49.0272673 21.5292896,49.0272673 C22.4023681,49.0272673 23.2235667,48.6901164 23.8400499,48.0774944 L32.0585791,39.9228042 C32.6759971,39.3101822 33.0157873,38.4962899 33.0157873,37.6299932 C33.0157873,36.7636965 32.6759971,35.9488768 32.0585791,35.3371823 L29.9286976,33.2238448 L32.0165143,31.3502695 C32.2815226,31.1128263 32.6241171,30.9815834 32.9812006,30.9815834 C33.3649252,30.9815834 33.7257477,31.1295217 33.9977669,31.3994277 L42.1658184,39.5040323 L30.5718218,50.1857304 Z M36.2837557,30.9815834 L41.6306606,25.6762117 L48.8919817,32.8811291 L43.5450769,38.1865008 L36.2837557,30.9815834 Z M46.5728084,37.8683639 L48.5704196,35.8862697 L49.9202327,37.5595023 L48.2600748,39.2067646 L46.5728084,37.8683639 Z M47.7702534,42.3788574 L53.1171583,37.0734857 L54.6352306,38.5797661 L49.2883257,43.8851378 L47.7702534,42.3788574 Z M55.0315746,40.8725771 L62.2928957,48.0774944 L58.8604071,51.4833205 L51.599086,44.2784031 L55.0315746,40.8725771 Z" id="Shape" fill="#75A7FF" fill-rule="nonzero"></path>
        </g>
    </g>
</svg>