<?xml version="1.0" encoding="UTF-8"?>
<svg width="52px" height="52px" viewBox="0 0 52 52" version="1.1" xmlns="http://www.w3.org/2000/svg" xmlns:xlink="http://www.w3.org/1999/xlink">
    <!-- Generator: Sketch 53.1 (72631) - https://sketchapp.com -->
    <title>informacion-personal-hover</title>
    <desc>Created with Sketch.</desc>
    <g id="RESUMEN" stroke="none" stroke-width="1" fill="none" fill-rule="evenodd">
        <g id="informacion-personal-hover">
            <path d="M10.2873181,52 C4.629278,52 0,47.370722 0,41.7126819 L0,10.2873181 C0,4.629278 4.629278,0 10.2873181,0 L41.7126819,0 C47.370722,0 52,4.629278 52,10.2873181 L52,41.7126819 C52,47.370722 47.370722,52 41.7126819,52 L10.2873181,52 Z" id="Fill-1-Copy-9" fill="#FFFFFF"></path>
            <path d="M44.0481,11 L7.9519,11 C6.3244,11 5,12.29 5,13.8752273 L5,38.1247727 C5,39.71 6.3244,41 7.9519,41 L44.0481,41 C45.6756,41 47,39.71 47,38.1247727 L47,13.8752273 C47,12.29 45.6756,11 44.0481,11 Z M45.6,38.1247727 C45.6,38.9586364 44.9042,39.6363636 44.0481,39.6363636 L7.9519,39.6363636 C7.0958,39.6363636 6.4,38.9586364 6.4,38.1247727 L6.4,13.8752273 C6.4,13.0413636 7.0958,12.3636364 7.9519,12.3636364 L44.0481,12.3636364 C44.9042,12.3636364 45.6,13.0413636 45.6,13.8752273 L45.6,38.1247727 Z" id="Shape" fill="#75A7FF" fill-rule="nonzero"></path>
            <path d="M19.4647,29.0185521 L17.1,27.8249062 L17.1,27.5762836 C18.1582,27.005158 18.90245,26.0646319 19.3178,24.7726933 C19.94765,24.4424813 20.35,23.799403 20.35,23.0785899 L20.35,22.436154 C20.35,21.8412584 20.06985,21.289406 19.60185,20.9270721 C19.19625,18.4986645 17.48155,17.2677573 14.5,17.2677573 C14.35895,17.2677573 14.22115,17.2728968 14.0866,17.2831758 C13.525,17.3287887 12.70275,17.280606 11.991,16.8077732 C11.72515,16.6304609 11.5243,16.4582881 11.39625,16.2983215 C11.17785,16.0227165 10.8106,15.9263512 10.48495,16.0586929 C10.15865,16.1910347 9.9669,16.5135376 10.00785,16.8598105 C10.03515,17.1000815 10.0761,17.3795411 10.13785,17.6859831 C10.2633,18.312358 10.2633,18.312358 10.08715,18.6868982 C10.02085,18.8288765 9.93895,19.0016918 9.84275,19.234896 C9.6276,19.7559115 9.47485,20.3263946 9.3871,20.9354238 C8.9256,21.2984001 8.65,21.8470403 8.65,22.436154 L8.65,23.0785899 C8.65,23.799403 9.05235,24.4424813 9.6822,24.7726933 C10.09755,26.0652743 10.8418,27.0058005 11.9,27.5762836 L11.9,27.8178394 L9.45015,29.0114853 C8.55575,29.4933122 8,30.4184199 8,31.4257594 L8,32.2769869 C8,32.792863 8,34 14.5,34 C21,34 21,32.792863 21,32.2769869 L21,31.4771543 C21,30.4293413 20.41175,29.4881728 19.4647,29.0185521 Z M19.7,32.1317964 C19.2944,32.3759221 17.6447,32.7151282 14.5,32.7151282 C11.3553,32.7151282 9.7056,32.3759221 9.3,32.1317964 L9.3,31.4257594 C9.3,30.8893254 9.59575,30.3959347 10.0488,30.1524515 L12.55585,28.9311808 C12.94715,28.7423047 13.19935,28.3420671 13.19935,27.9109927 L13.19935,26.7526807 L12.80675,26.5856474 C11.8207,26.1654943 11.1798,25.3643768 10.847,24.1353969 L10.75405,23.7929786 L10.41215,23.6876191 C10.14045,23.60346 9.95,23.3535525 9.95,23.0785899 L9.95,22.436154 C9.95,22.2035922 10.08455,21.9877338 10.30165,21.8733802 L10.6065,21.7127712 L10.64225,21.3729226 C10.7066,20.7703178 10.84245,20.2146107 11.04655,19.7218624 C11.133,19.5130707 11.20645,19.3569588 11.26625,19.2291141 C11.4866,18.7614207 11.56655,18.5198648 11.5113,18.0245468 C12.2757,18.4562637 13.19415,18.6400003 14.1906,18.5648353 C14.29135,18.5564837 14.3947,18.5526291 14.50065,18.5526291 C16.93425,18.5526291 18.12245,19.4237721 18.3545,21.3780621 L18.3948,21.7134136 L18.69705,21.8714529 C18.91415,21.9858065 19.05,22.2023073 19.05,22.436154 L19.05,23.0785899 C19.05,23.3535525 18.85955,23.60346 18.5872,23.6869767 L18.2453,23.7923362 L18.15235,24.1347545 C17.81955,25.3637344 17.17865,26.1648519 16.1926,26.585005 L15.8,26.7526807 L15.8,27.9161321 C15.8,28.3459217 16.0405,28.7333106 16.4266,28.9279687 L18.88035,30.1672275 C19.38605,30.4164926 19.7,30.9188775 19.7,31.4771543 L19.7,32.1317964 Z" id="Shape" fill="#75A7FF" fill-rule="nonzero"></path>
            <path d="M25.75,22 L33.25,22 C33.66475,22 34,21.7765 34,21.5 C34,21.2235 33.66475,21 33.25,21 L25.75,21 C25.33525,21 25,21.2235 25,21.5 C25,21.7765 25.33525,22 25.75,22 Z" id="Path" fill="#75A7FF" fill-rule="nonzero"></path>
            <path d="M35.6666667,22 L36.3333333,22 C36.702,22 37,21.7765 37,21.5 C37,21.2235 36.702,21 36.3333333,21 L35.6666667,21 C35.298,21 35,21.2235 35,21.5 C35,21.7765 35.298,22 35.6666667,22 Z" id="Path" fill="#75A7FF" fill-rule="nonzero"></path>
            <path d="M26.3333333,31 L25.6666667,31 C25.298,31 25,31.2235 25,31.5 C25,31.7765 25.298,32 25.6666667,32 L26.3333333,32 C26.702,32 27,31.7765 27,31.5 C27,31.2235 26.702,31 26.3333333,31 Z" id="Path" fill="#75A7FF" fill-rule="nonzero"></path>
            <path d="M30.25,31 L28.75,31 C28.33525,31 28,31.2235 28,31.5 C28,31.7765 28.33525,32 28.75,32 L30.25,32 C30.66475,32 31,31.7765 31,31.5 C31,31.2235 30.66475,31 30.25,31 Z" id="Path" fill="#75A7FF" fill-rule="nonzero"></path>
            <path d="M35.3333333,31 L34.6666667,31 C34.298,31 34,31.2235 34,31.5 C34,31.7765 34.298,32 34.6666667,32 L35.3333333,32 C35.702,32 36,31.7765 36,31.5 C36,31.2235 35.702,31 35.3333333,31 Z" id="Path" fill="#75A7FF" fill-rule="nonzero"></path>
            <path d="M38.25,31 L36.75,31 C36.33525,31 36,31.2235 36,31.5 C36,31.7765 36.33525,32 36.75,32 L38.25,32 C38.66475,32 39,31.7765 39,31.5 C39,31.2235 38.66475,31 38.25,31 Z" id="Path" fill="#75A7FF" fill-rule="nonzero"></path>
            <path d="M40.145,31.1396226 C40.0545,31.234717 40,31.3660377 40,31.4968553 C40,31.627673 40.0545,31.7584906 40.145,31.8540881 C40.2395,31.9446541 40.37,32 40.5,32 C40.63,32 40.76,31.9446541 40.855,31.8540881 C40.945,31.7584906 41,31.627673 41,31.4968553 C41,31.3660377 40.945,31.234717 40.855,31.1396226 C40.665,30.9534591 40.33,30.9534591 40.145,31.1396226 Z" id="Path" fill="#75A7FF" fill-rule="nonzero"></path>
            <path d="M41.2916667,25 L25.7083333,25 C25.316625,25 25,25.2235 25,25.5 C25,25.7765 25.316625,26 25.7083333,26 L41.2916667,26 C41.683375,26 42,25.7765 42,25.5 C42,25.2235 41.683375,25 41.2916667,25 Z" id="Path" fill="#75A7FF" fill-rule="nonzero"></path>
            <path d="M41.2916667,28 L25.7083333,28 C25.316625,28 25,28.2235 25,28.5 C25,28.7765 25.316625,29 25.7083333,29 L41.2916667,29 C41.683375,29 42,28.7765 42,28.5 C42,28.2235 41.683375,28 41.2916667,28 Z" id="Path" fill="#75A7FF" fill-rule="nonzero"></path>
        </g>
    </g>
</svg>