<?xml version="1.0" encoding="UTF-8"?>
<svg width="54px" height="54px" viewBox="0 0 54 54" version="1.1" xmlns="http://www.w3.org/2000/svg" xmlns:xlink="http://www.w3.org/1999/xlink">
    <!-- Generator: Sketch 53.2 (72643) - https://sketchapp.com -->
    <title>3.1.3</title>
    <desc>Created with Sketch.</desc>
    <g id="Page-2" stroke="none" stroke-width="1" fill="none" fill-rule="evenodd">
        <g id="3.1.3" transform="translate(-9.000000, -11.000000)">
            <path d="M15.0353111,78 C6.76586784,78 4.97379915e-14,71.056083 4.97379915e-14,62.5690228 L4.97379915e-14,15.4309772 C4.97379915e-14,6.94391699 6.76586784,0 15.0353111,0 L60.9646889,0 C69.2341322,0 76,6.94391699 76,15.4309772 L76,62.5690228 C76,71.056083 69.2341322,78 60.9646889,78 L15.0353111,78 Z" id="Fill-1-Copy-57"></path>
            <path d="M32.2758621,37.9853204 C31.7478681,37.8988637 31.3449214,37.4407283 31.3448276,36.8885059 C31.3448276,36.7690606 31.3641194,36.650345 31.4018687,36.5369449 L33.7088538,29.6206897 L34.1679268,29.7735547 C34.0822844,29.4126202 34.1800334,29.0169612 34.4611737,28.7353875 L41.4382954,21.749186 L17.0689655,21.749186 C16.4405075,21.749186 15.9309989,22.2797502 15.9309989,22.9341794 L15.9309989,28.9212368 C16.3758201,28.5819332 17.0139613,28.6154796 17.4204577,29.0218758 L41.5862069,53.1874746 L41.5862069,52.8965517 L58.4918052,52.8965517 C59.3039755,52.8965517 60.0659903,53.1183216 60.7241498,53.5064177 L60.7241498,23.8701206 C60.7241498,22.6300061 59.7052286,21.6247155 58.4482996,21.6247155 L53.841789,21.6247155 L40.6007144,34.8830216 C40.3937066,35.0902987 40.113004,35.2067885 39.8201915,35.2068922 C39.7353357,35.2071323 39.6514701,35.1975182 39.5701222,35.1786796 L39.7241379,35.6407929 L38.2322496,36.137931 L49.0344828,36.137931 L49.0344828,38 L32.2758621,38 L32.2758621,37.9853204 Z M51.9213114,20.4214089 L48.9023951,17.4024926 L36.8028459,29.5169261 L39.8201915,32.5381984 L51.9213114,20.4214089 Z M50.4923673,15.8105645 L53.5112321,18.8294294 L55.8288288,16.5088317 C56.2406708,16.096661 56.2408778,15.4281921 55.8293463,15.0158141 C55.8291393,15.0156068 55.8289323,15.0155032 55.8288288,15.0152959 L54.3019393,13.4885958 C53.8850256,13.0896909 53.2283969,13.0896909 52.8114832,13.4885958 L50.4923673,15.8105645 Z M38.0201859,33.8622121 L35.4880176,31.3267486 L34.2194084,35.130597 L38.0201859,33.8622121 Z M43.805091,19.3793103 L51.2491953,11.9255185 C52.5401995,10.6914938 54.571981,10.6914938 55.8629851,11.9255185 L57.3888395,13.4532551 C58.662869,14.7281134 58.6635935,16.795807 57.3903921,18.0714944 C57.3898746,18.0720126 57.389357,18.0725308 57.3888395,18.073049 L56.0842759,19.3793103 L58.4482996,19.3793103 C60.9621577,19.3793103 63.0001067,21.3898916 63,23.8701206 L63,57.5516746 C63,60.1227532 60.9815772,62.2068966 58.4918052,62.2068966 L55.1106856,62.2068966 C54.4882426,62.2068966 53.9836105,61.6858062 53.9836105,61.0430625 L53.9836105,55.2241107 L43.6228556,55.2241107 L44.9781354,56.579382 C45.421099,57.0224492 45.421099,57.7407182 44.978029,58.1838918 L38.4943138,64.6675666 C38.2815551,64.880324 37.9930543,64.9998936 37.6921071,65 C37.3912663,65 37.1026592,64.8804304 36.8899005,64.6675666 L27.6206897,55.3984493 L27.6206897,55.6896552 L16.8779763,55.6896552 C15.0980822,55.6896552 13.6551724,54.2467454 13.6551724,52.4668512 L13.6551724,41.7241379 L13.9462404,41.7241379 L9.33222272,37.1101668 C8.88925909,36.6669932 8.88925909,35.9487243 9.33222272,35.505657 L13.6551724,31.1826633 L13.6551724,22.9341794 C13.6551724,20.9708919 15.1835916,19.3793103 17.0689655,19.3793103 L43.805091,19.3793103 Z M21.3807294,36.1910557 L18.7924953,38.7792898 L17.2015452,37.1883396 L19.7897776,34.6001072 L16.618251,31.4285873 L15.9309989,32.1158351 L15.9309989,32.4137931 L15.6330391,32.4137931 L11.7389492,36.3078587 L37.6921071,62.2608551 L42.5714089,57.3816901 L39.383171,54.1934589 L36.7950306,56.7815993 L35.2040805,55.1906492 L37.7922192,52.6025105 L34.8810286,49.6913261 L32.2930174,52.2793372 L30.7020672,50.6883871 L33.2900767,48.1003776 L30.3822241,45.1925312 L27.7954493,47.779306 L26.2044992,46.1883558 L28.7912723,43.6015827 L25.8822806,40.6925972 L23.2955867,43.2792912 L21.7046366,41.688341 L24.2913288,39.1016488 L21.3807294,36.1910557 Z M60.7241498,57.2273955 C60.5713476,56.0954088 59.6301247,55.2241107 58.4918052,55.2241107 L56.2377607,55.2241107 L56.2377607,59.8793376 L58.4918052,59.8793376 C59.7366736,59.8793376 60.7458212,58.8372954 60.7458498,57.5517241 L60.7241498,57.5517241 L60.7241498,57.2273955 Z M25.7633744,53.5411528 L15.8036748,43.5815536 L15.8036748,52.4668512 C15.8036748,53.0601493 16.2846783,53.5411528 16.8779763,53.5411528 L25.7633744,53.5411528 Z M51.8275862,36.137931 L53.6896552,36.137931 L53.6896552,38 L51.8275862,38 L51.8275862,36.137931 Z M56.4827586,36.137931 L58.3448276,36.137931 L58.3448276,38 L56.4827586,38 L56.4827586,36.137931 Z" id="Combined-Shape-Copy-21" fill="#75A7FF" fill-rule="nonzero"></path>
        </g>
    </g>
</svg>