<?xml version="1.0" encoding="UTF-8"?>
<svg width="57px" height="57px" viewBox="0 0 57 57" version="1.1" xmlns="http://www.w3.org/2000/svg" xmlns:xlink="http://www.w3.org/1999/xlink">
    <!-- Generator: Sketch 53.2 (72643) - https://sketchapp.com -->
    <title>3.2.2</title>
    <desc>Created with Sketch.</desc>
    <g id="Page-2" stroke="none" stroke-width="1" fill="none" fill-rule="evenodd">
        <g id="3.2.2" transform="translate(-10.000000, -9.000000)">
            <g id="Group-31">
                <path d="M15.0353111,78 C6.76586784,78 4.97379915e-14,71.056083 4.97379915e-14,62.5690228 L4.97379915e-14,15.4309772 C4.97379915e-14,6.94391699 6.76586784,0 15.0353111,0 L60.9646889,0 C69.2341322,0 76,6.94391699 76,15.4309772 L76,62.5690228 C76,71.056083 69.2341322,78 60.9646889,78 L15.0353111,78 Z" id="Fill-1-Copy-93"></path>
                <path d="M67,29.2881356 L67,27.3559322 L63.2,27.3559322 L63.2,13.8305085 C63.2001188,13.2970996 62.7749938,12.8645275 62.250475,12.8644068 C62.2503563,12.8644068 62.2501188,12.8644068 62.25,12.8644068 L41.35,12.8644068 C40.8254813,12.864286 40.4001188,13.2966165 40.4,13.8300254 C40.4,13.8301462 40.4,13.8303877 40.4,13.8305085 L40.4,27.3559322 L37.55,27.3559322 L37.55,13.8305085 C37.5501188,13.2970996 37.1249938,12.8645275 36.600475,12.8644068 C36.6003563,12.8644068 36.6001188,12.8644068 36.6,12.8644068 L15.7,12.8644068 C15.1754813,12.864286 14.7501188,13.2966165 14.75,13.8300254 C14.75,13.8301462 14.75,13.8303877 14.75,13.8305085 L14.75,27.3559322 L11.9,27.3559322 L11.9,9 L10,9 L10,65.0338983 C9.99988127,65.5673072 10.4250063,65.9998792 10.949525,66 C10.9496438,66 10.9498813,66 10.95,66 L67,66 L67,64.0677966 L63.2,64.0677966 L63.2,50.5423729 C63.2001188,50.008964 62.7749938,49.5763919 62.250475,49.5762712 C62.2503563,49.5762712 62.2501188,49.5762712 62.25,49.5762712 L41.35,49.5762712 C40.8254813,49.5761504 40.4001188,50.0084809 40.4,50.5418898 C40.4,50.5420106 40.4,50.5422521 40.4,50.5423729 L40.4,64.0677966 L37.55,64.0677966 L37.55,50.5423729 C37.5501188,50.008964 37.1249938,49.5763919 36.600475,49.5762712 C36.6003563,49.5762712 36.6001188,49.5762712 36.6,49.5762712 L15.7,49.5762712 C15.1754813,49.5761504 14.7501188,50.0084809 14.75,50.5418898 C14.75,50.5420106 14.75,50.5422521 14.75,50.5423729 L14.75,64.0677966 L11.9,64.0677966 L11.9,47.6440678 L67,47.6440678 L67,45.7118644 L63.2,45.7118644 L63.2,32.1864407 C63.2001188,31.6530318 62.7749938,31.2204597 62.250475,31.220339 C62.2503563,31.220339 62.2501188,31.220339 62.25,31.220339 L41.35,31.220339 C40.8254813,31.2202182 40.4001188,31.6525487 40.4,32.1859576 C40.4,32.1860784 40.4,32.1863199 40.4,32.1864407 L40.4,45.7118644 L37.55,45.7118644 L37.55,32.1864407 C37.5501188,31.6530318 37.1249938,31.2204597 36.600475,31.220339 C36.6003563,31.220339 36.6001188,31.220339 36.6,31.220339 L15.7,31.220339 C15.1754813,31.2202182 14.7501188,31.6525487 14.75,32.1859576 C14.75,32.1860784 14.75,32.1863199 14.75,32.1864407 L14.75,45.7118644 L11.9,45.7118644 L11.9,29.2881356 L67,29.2881356 Z M49.9,14.7966102 L53.7,14.7966102 L53.7,18.6610169 L49.9,18.6610169 L49.9,14.7966102 Z M42.3,14.7966102 L48,14.7966102 L48,19.6271186 C47.9998813,20.1605275 48.4250063,20.5930996 48.949525,20.5932203 C48.9496438,20.5932203 48.9498813,20.5932203 48.95,20.5932203 L54.65,20.5932203 C55.1745188,20.5933411 55.5998813,20.1610106 55.6,19.6276017 C55.6,19.6274809 55.6,19.6272394 55.6,19.6271186 L55.6,14.7966102 L61.3,14.7966102 L61.3,27.3559322 L42.3,27.3559322 L42.3,14.7966102 Z M24.25,14.7966102 L28.05,14.7966102 L28.05,18.6610169 L24.25,18.6610169 L24.25,14.7966102 Z M16.65,14.7966102 L22.35,14.7966102 L22.35,19.6271186 C22.3498813,20.1605275 22.7750063,20.5930996 23.299525,20.5932203 C23.2996438,20.5932203 23.2998813,20.5932203 23.3,20.5932203 L29,20.5932203 C29.5245188,20.5933411 29.9498813,20.1610106 29.95,19.6276017 C29.95,19.6274809 29.95,19.6272394 29.95,19.6271186 L29.95,14.7966102 L35.65,14.7966102 L35.65,27.3559322 L16.65,27.3559322 L16.65,14.7966102 Z M49.9,51.5084746 L53.7,51.5084746 L53.7,55.3728814 L49.9,55.3728814 L49.9,51.5084746 Z M42.3,51.5084746 L48,51.5084746 L48,56.3389831 C47.9998813,56.8723919 48.4250063,57.304964 48.949525,57.3050847 C48.9496438,57.3050847 48.9498813,57.3050847 48.95,57.3050847 L54.65,57.3050847 C55.1745188,57.3052055 55.5998813,56.872875 55.6,56.3394661 C55.6,56.3393453 55.6,56.3391038 55.6,56.3389831 L55.6,51.5084746 L61.3,51.5084746 L61.3,64.0677966 L42.3,64.0677966 L42.3,51.5084746 Z M24.25,51.5084746 L28.05,51.5084746 L28.05,55.3728814 L24.25,55.3728814 L24.25,51.5084746 Z M16.65,51.5084746 L22.35,51.5084746 L22.35,56.3389831 C22.3498813,56.8723919 22.7750063,57.304964 23.299525,57.3050847 C23.2996438,57.3050847 23.2998813,57.3050847 23.3,57.3050847 L29,57.3050847 C29.5245188,57.3052055 29.9498813,56.872875 29.95,56.3394661 C29.95,56.3393453 29.95,56.3391038 29.95,56.3389831 L29.95,51.5084746 L35.65,51.5084746 L35.65,64.0677966 L16.65,64.0677966 L16.65,51.5084746 Z M49.9,34.1186441 L53.7,34.1186441 L53.7,37.9830508 L49.9,37.9830508 L49.9,34.1186441 Z M42.3,33.1525424 L48,33.1525424 L48,38.9491525 C47.9998813,39.4825614 48.4250063,39.9151335 48.949525,39.9152542 C48.9496438,39.9152542 48.9498813,39.9152542 48.95,39.9152542 L54.65,39.9152542 C55.1745188,39.915375 55.5998813,39.4830445 55.6,38.9496356 C55.6,38.9495148 55.6,38.9492733 55.6,38.9491525 L55.6,33.1525424 L61.3,33.1525424 L61.3,45.7118644 L42.3,45.7118644 L42.3,33.1525424 Z M24.25,33.1525424 L28.05,33.1525424 L28.05,37.0169492 L24.25,37.0169492 L24.25,33.1525424 Z M16.65,33.1525424 L22.35,33.1525424 L22.35,37.9830508 C22.3498813,38.5164597 22.7750063,38.9490318 23.299525,38.9491525 C23.2996438,38.9491525 23.2998813,38.9491525 23.3,38.9491525 L29,38.9491525 C29.5245188,38.9492733 29.9498813,38.5169428 29.95,37.9835339 C29.95,37.9834131 29.95,37.9831716 29.95,37.9830508 L29.95,33.1525424 L35.65,33.1525424 L35.65,45.7118644 L16.65,45.7118644 L16.65,33.1525424 Z" id="Shape" fill="#75A7FF" fill-rule="nonzero"></path>
            </g>
        </g>
    </g>
</svg>