<?xml version="1.0" encoding="UTF-8"?>
<svg width="66px" height="45px" viewBox="0 0 66 45" version="1.1" xmlns="http://www.w3.org/2000/svg" xmlns:xlink="http://www.w3.org/1999/xlink">
    <!-- Generator: Sketch 53.2 (72643) - https://sketchapp.com -->
    <title>2.2.4</title>
    <desc>Created with Sketch.</desc>
    <g id="Page-2" stroke="none" stroke-width="1" fill="none" fill-rule="evenodd">
        <g id="2.2.4" transform="translate(-5.000000, -16.000000)">
            <path d="M15.0353111,78 C6.76586784,78 4.97379915e-14,71.056083 4.97379915e-14,62.5690228 L4.97379915e-14,15.4309772 C4.97379915e-14,6.94391699 6.76586784,0 15.0353111,0 L60.9646889,0 C69.2341322,0 76,6.94391699 76,15.4309772 L76,62.5690228 C76,71.056083 69.2341322,78 60.9646889,78 L15.0353111,78 Z" id="Fill-1-Copy-71"></path>
            <path d="M33.0867925,51 C32.4866155,51 32,50.5527344 32,50 C32,49.447754 32.4866155,49 33.0867925,49 L39.9132075,49 C40.5133845,49 41,49.447754 41,50 C41,50.5527344 40.5133845,51 39.9132075,51 L33.0867925,51 Z M33.1219553,53 L43.8780447,53 C44.4976402,53 45,53.447754 45,54 C45,54.5527344 44.4976402,55 43.8780447,55 L33.1219553,55 C32.5023598,55 32,54.5527344 32,54 C32,53.447754 32.5023598,53 33.1219553,53 Z M69.9831272,37.428587 C70.5709898,37.428587 70.9992823,37.9297712 70.9992823,38.5209382 L70.9992823,59.9494365 C71.0096778,60.2261863 70.9067629,60.495089 70.7149669,60.6933654 C70.522651,60.8921649 70.2586066,61.0030741 69.983647,60.9999351 L48.6937657,60.9999351 C48.6854493,60.9999351 48.6776527,60.9988889 48.6693364,60.9988889 C48.66102,60.9988889 48.6532234,60.9999351 48.644907,60.9999351 L27.3560654,60.9999351 C27.347749,60.9999351 27.3399524,60.9988889 27.331636,60.9988889 C27.3233197,60.9988889 27.3155231,60.9999351 27.3072067,60.9999351 L6.01732545,60.9999351 C5.74236584,61.0030741 5.47780167,60.8921649 5.28600566,60.6938885 C5.09368977,60.4956121 4.99077482,60.2267096 5.00065049,59.9499596 L5.00065049,38.5214613 C5.00065049,37.9297712 5.42946273,37.428587 6.01732545,37.428587 L15.6455911,37.428587 L15.6455911,17.0511104 C15.6409132,16.7717448 15.7490258,16.5023191 15.94498,16.3045659 C16.1409342,16.1062895 16.4080974,15.9969498 16.6856558,16.0000887 L37.9755371,16.0000887 C37.9838534,16.0000887 37.99165,16.0016582 37.9994467,16.0016582 C38.007763,16.0016582 38.0155596,16.0000887 38.023876,16.0000887 L59.3137573,16.0000887 C59.5918356,15.9964266 59.8589986,16.1062895 60.0549528,16.3040428 C60.250907,16.501796 60.3590196,16.7712217 60.3543417,17.0511104 L60.3543417,37.428587 L69.9831272,37.428587 Z M57.0277978,39.5714368 L57.0277978,42.3227179 L58.9530351,41.6426142 C59.1812152,41.5620482 59.4301863,41.5620482 59.6583664,41.6426142 L61.5518975,42.3227179 L61.5518975,39.5714368 L57.0277978,39.5714368 Z M35.7379165,39.5714368 L35.7379165,42.3227179 L37.6522386,41.6426142 C37.8762606,41.5625713 38.1205536,41.5625713 38.3445756,41.6426142 L40.2620163,42.3227179 L40.2620163,39.5714368 L35.7379165,39.5714368 Z M14.4480353,39.5714368 L14.4480353,42.3227179 L16.3498828,41.6426142 C16.5697466,41.5620482 16.8104012,41.5620482 17.030265,41.6426142 L18.972135,42.3227179 L18.972135,39.5714368 L14.4480353,39.5714368 Z M46.3828571,18.1429385 L46.3828571,20.8523671 L48.3028968,20.1717402 C48.528478,20.091174 48.77537,20.091174 49.001471,20.1717402 L50.9069569,20.8523671 L50.9069569,18.1429385 L46.3828571,18.1429385 Z M39.0644605,18.1429385 L39.0644605,37.428587 L58.2253536,37.428587 L58.2253536,18.1429385 L53.035945,18.1429385 L53.035945,22.3637667 C53.0437417,22.7080039 52.8836517,23.0344537 52.6071328,23.2374385 C52.435088,23.3656118 52.2261396,23.4351917 52.0119933,23.4351917 C51.8919258,23.4351917 51.7723781,23.4147886 51.6590677,23.3745055 L48.6682969,22.3182522 L45.6770062,23.3745055 C45.350589,23.4895999 44.9893471,23.4383307 44.7071106,23.2379616 C44.4243544,23.0370694 44.2559481,22.711666 44.253869,22.3637667 L44.253869,18.1429385 L39.0644605,18.1429385 Z M25.0929759,18.1429385 L25.0929759,20.8523671 L27.0010607,20.1717402 C27.2230036,20.091174 27.4657374,20.091174 27.6876802,20.1717402 L29.6170757,20.8523671 L29.6170757,18.1429385 L25.0929759,18.1429385 Z M17.7745792,18.1429385 L17.7745792,37.428587 L36.9359921,37.428587 L36.9359921,18.1429385 L31.7465835,18.1429385 L31.7465835,22.3637667 C31.7450243,22.711666 31.5760981,23.0375926 31.2933419,23.2384847 C31.0105857,23.4388538 30.6493439,23.4901232 30.3229268,23.3745055 L27.3337151,22.3182522 L24.3455431,23.3745055 C24.0248434,23.4895999 23.6687993,23.4383307 23.3928,23.2374385 C23.1162812,23.0344537 22.9561911,22.7080039 22.9639878,22.3637667 L22.9639878,18.1429385 L17.7745792,18.1429385 Z M26.2905317,58.8570853 L26.2905317,39.5714368 L21.1011232,39.5714368 L21.1011232,43.8346408 C21.0954058,44.1841094 20.9228412,44.5095129 20.6374861,44.7083125 C20.4524471,44.8370089 20.2320636,44.9060658 20.0070021,44.9060658 C19.8879742,44.9060658 19.7694661,44.8856626 19.6566755,44.8453794 L16.6700627,43.7891262 L13.6876081,44.8453794 C13.3674282,44.9625665 13.0098247,44.9107741 12.7348651,44.7077893 C12.4604253,44.5048045 12.3044935,44.1773084 12.3190471,43.8346408 L12.3190471,39.5714368 L7.12963859,39.5714368 L7.12963859,58.8570853 L26.2905317,58.8570853 Z M47.580413,58.8570853 L47.580413,39.5714368 L42.3910044,39.5714368 L42.3910044,43.8346408 C42.3946428,44.1804474 42.229875,44.5068972 41.9507571,44.7083125 C41.7740346,44.8370089 41.5614475,44.9060658 41.3436628,44.9060658 C41.2235955,44.9060658 41.1045676,44.8856626 40.9917769,44.8453794 L38.0020455,43.7891262 L35.0138735,44.8453794 C34.6895354,44.9609972 34.3293331,44.9097278 34.0496955,44.7083125 C33.7695382,44.5068972 33.60529,44.1809705 33.6089284,43.8346408 L33.6089284,39.5714368 L28.4195198,39.5714368 L28.4195198,58.8570853 L47.580413,58.8570853 Z M68.8702942,58.8570853 L68.8702942,39.5714368 L63.6808857,39.5714368 L63.6808857,43.8346408 C63.6933602,44.1773084 63.5374285,44.5037582 63.2640282,44.7083125 C62.9942662,44.9092046 62.6429,44.9604741 62.3273981,44.8453794 L59.3361074,43.7891262 L56.3437772,44.8453794 C56.0147612,44.9599508 55.6514402,44.9097278 55.3655654,44.709882 C55.0802103,44.510036 54.9066063,44.1846326 54.8988096,43.8346408 L54.8988096,39.5714368 L49.7094011,39.5714368 L49.7094011,58.8570853 L68.8702942,58.8570853 Z M54.0868565,51 C53.4866442,51 53,50.5527344 53,50 C53,49.447754 53.4866442,49 54.0868565,49 L60.9131435,49 C61.5133558,49 62,49.447754 62,50 C62,50.5527344 61.5133558,51 60.9131435,51 L54.0868565,51 Z M53.1219553,53 L63.8780447,53 C64.49764,53 65,53.447754 65,54 C65,54.5527344 64.49764,55 63.8780447,55 L53.1219553,55 C52.5023598,55 52,54.5527344 52,54 C52,53.447754 52.5023598,53 53.1219553,53 Z M12.0868565,51 C11.4866442,51 11,50.5527344 11,50 C11,49.447754 11.4866442,49 12.0868565,49 L18.9131435,49 C19.5133558,49 20,49.447754 20,50 C20,50.5527344 19.5133558,51 18.9131435,51 L12.0868565,51 Z M12.1220026,53 L22.8779974,53 C23.497619,53 24,53.447754 24,54 C24,54.5527344 23.497619,55 22.8779974,55 L12.1220026,55 C11.502381,55 11,54.5527344 11,54 C11,53.447754 11.502381,53 12.1220026,53 Z M22.0868565,29 C21.4866444,29 21,28.5527344 21,28 C21,27.447754 21.4866444,27 22.0868565,27 L28.9131435,27 C29.5133558,27 30,27.447754 30,28 C30,28.5527344 29.5133558,29 28.9131435,29 L22.0868565,29 Z M32.8780447,31 C33.4976402,31 34,31.447754 34,32 C34,32.5527344 33.4976402,33 32.8780447,33 L22.1219553,33 C21.50236,33 21,32.5527344 21,32 C21,31.447754 21.50236,31 22.1219553,31 L32.8780447,31 Z M44.0868565,29 C43.4866442,29 43,28.5527344 43,28 C43,27.447754 43.4866442,27 44.0868565,27 L50.9131435,27 C51.5133556,27 52,27.447754 52,28 C52,28.5527344 51.5133556,29 50.9131435,29 L44.0868565,29 Z M53.8779974,31 C54.4981668,31 55,31.447754 55,32 C55,32.5527344 54.4981668,33 53.8779974,33 L43.1220026,33 C42.502381,33 42,32.5527344 42,32 C42,31.447754 42.502381,31 43.1220026,31 L53.8779974,31 Z" id="Combined-Shape" fill="#75A7FF" fill-rule="nonzero"></path>
        </g>
    </g>
</svg>