<svg xmlns="http://www.w3.org/2000/svg" version="1.1" xmlns:xlink="http://www.w3.org/1999/xlink" xmlns:svgjs="http://svgjs.com/svgjs" width="64" height="64" x="0" y="0" viewBox="0 0 490 490" style="enable-background:new 0 0 512 512" xml:space="preserve" class=""><g><path d="M481.82 336H468V87.457A48.256 48.256 0 0 0 419.684 39H361V8.047a7.954 7.954 0 0 0-4.957-7.414 7.958 7.958 0 0 0-8.727 1.84l-15.89 16.363-15.899-16.363a7.993 7.993 0 0 0-11.476 0l-15.875 16.359-15.867-16.379A8.018 8.018 0 0 0 266.57 0a8.017 8.017 0 0 0-5.742 2.45l-15.875 16.37L229.082 2.47a8.011 8.011 0 0 0-5.742-2.43 8.011 8.011 0 0 0-5.742 2.43L201.73 18.824 185.86 2.473a8.011 8.011 0 0 0-5.743-2.43 8.011 8.011 0 0 0-5.742 2.43L158.52 18.824 142.672 2.477a7.952 7.952 0 0 0-8.723-1.844A7.953 7.953 0 0 0 129 8.047V39H70.316A48.256 48.256 0 0 0 22 87.457V336H8.18A8.183 8.183 0 0 0 0 344.035v31.266C.113 402.203 21.934 423.96 48.84 424h392.32c26.906-.04 48.727-21.797 48.84-48.7v-31.265a8.183 8.183 0 0 0-8.18-8.035zM419.684 55a32.226 32.226 0 0 1 22.925 9.492A32.227 32.227 0 0 1 452 87.457V336h-24V89.8a7.633 7.633 0 0 0-2.23-5.554A7.639 7.639 0 0 0 420.219 82H361V55zM129 257h-22.074a8 8 0 0 0 0 16h276.148a8 8 0 0 0 0-16H361V98h51v238H304.648a8.008 8.008 0 0 0-5.882 2.602l-8.254 8.914A32.715 32.715 0 0 1 266.5 358h-43a32.699 32.699 0 0 1-24.016-10.48l-8.25-8.946a7.995 7.995 0 0 0-5.882-2.574H78V98h51zm16-229.207 7.809 7.934A7.81 7.81 0 0 0 158.535 38h-.008a7.855 7.855 0 0 0 5.739-2.27l15.855-16.273 15.867 16.39a7.993 7.993 0 0 0 11.484.031l15.868-16.35 15.87 16.359a8.002 8.002 0 0 0 11.481.004l15.875-16.356 15.864 16.2A7.854 7.854 0 0 0 288.172 38a7.855 7.855 0 0 0 5.738-2.27l15.89-16.28 15.9 16.398a8.027 8.027 0 0 0 5.737 2.445 7.899 7.899 0 0 0 5.7-2.414L345 27.762V257H145zM38 87.457a32.227 32.227 0 0 1 9.39-22.965A32.226 32.226 0 0 1 70.317 55H129v27H69.781a7.639 7.639 0 0 0-5.55 2.246A7.633 7.633 0 0 0 62 89.801V336H38zm436 287.844c-.102 18.07-14.766 32.672-32.84 32.699H48.84c-18.074-.027-32.738-14.629-32.84-32.7V352h165.848l5.875 6.348A48.776 48.776 0 0 0 223.5 374h43a48.755 48.755 0 0 0 35.777-15.652l5.875-6.348H474zm0 0" fill="#77a5f6" data-original="#000000" class=""></path><path d="M208.504 202H281.5a8 8 0 0 0 0-16h-72.988c-4.422 0-8 3.582-8 8s3.578 8 8 8zM316.254 218H173.746a8 8 0 0 0 0 16h142.508a8 8 0 0 0 0-16zM245.023 142.27A8.04 8.04 0 0 0 243 142c-.172 0-.336.016-.5.027a13.4 13.4 0 0 1-10.871-13.132 8 8 0 0 0-16 0A29.434 29.434 0 0 0 235 156.515V162a8 8 0 0 0 16 0v-4.348c14.738-3.078 24.766-16.797 23.219-31.773-1.547-14.977-14.164-26.36-29.219-26.363-7.387 0-13.379-5.989-13.379-13.375S237.61 72.76 245 72.76c7.387 0 13.375 5.993 13.375 13.38a8 8 0 0 0 16 0c-.02-13.907-9.766-25.899-23.375-28.758V53a8 8 0 0 0-16 0v5.52c-13.418 4.851-21.406 18.644-18.941 32.699s14.671 24.304 28.941 24.3c7.344.055 13.266 6.024 13.273 13.364.004 7.344-5.91 13.316-13.25 13.387zm0 0" fill="#77a5f6" data-original="#000000" class=""></path></g></svg>
