<?xml version="1.0" encoding="UTF-8"?>
<svg width="54px" height="54px" viewBox="0 0 54 54" version="1.1" xmlns="http://www.w3.org/2000/svg" xmlns:xlink="http://www.w3.org/1999/xlink">
    <!-- Generator: Sketch 53.2 (72643) - https://sketchapp.com -->
    <title>1.3.2</title>
    <desc>Created with Sketch.</desc>
    <g id="Page-2" stroke="none" stroke-width="1" fill="none" fill-rule="evenodd">
        <g id="1.3.2" transform="translate(-11.000000, -12.000000)">
            <path d="M15.0353111,78 C6.76586784,78 -7.10542736e-15,71.056083 -7.10542736e-15,62.5690228 L-7.10542736e-15,15.4309772 C-7.10542736e-15,6.94391699 6.76586784,0 15.0353111,0 L60.9646889,0 C69.2341322,0 76,6.94391699 76,15.4309772 L76,62.5690228 C76,71.056083 69.2341322,78 60.9646889,78 L15.0353111,78 Z" id="Fill-1-Copy-40"></path>
            <path d="M56.0985322,50.9122557 L56.0985322,48 L65,48 L65,66 L56.0985322,65.9999987 L56.0985322,64.6420887 L53.4867686,65.6849108 C52.9660675,65.8932115 52.4110297,66.0004381 51.8507762,65.9999987 L39.3087472,65.9999987 C38.4807542,65.9999987 37.6697123,65.766649 36.9655923,65.3258776 L20.7595314,55.5221186 C19.662495,54.8796382 18.9905385,53.691357 19.0001007,52.4090328 C19.0001007,51.7810544 19.1622221,51.1636228 19.4708179,50.6182616 C19.8237472,49.9920408 20.3570529,49.4893065 20.9998884,49.1781737 C21.284579,49.0357909 21.5875244,48.9351562 21.900032,48.8793456 C22.7284596,48.7185058 23.5868775,48.8617675 24.3201186,49.2836425 L33.3624102,54.229687 C33.7561959,53.120068 34.6589473,52.2736813 35.7829315,51.9599118 L46.0630836,49.1698242 C46.7385172,48.9896484 47.4339443,48.8986815 48.132414,48.8999999 L51.5443535,48.8999999 C52.3497452,48.9004394 53.1403589,49.1210449 53.8314397,49.5389648 L56.0985322,50.9122557 Z M52.8326325,64.0110339 L56.0985322,62.7058583 L56.0985322,53.0102047 L52.9160837,51.0836423 C52.5018698,50.8327147 52.0276754,50.6999998 51.5443535,50.6999998 L48.132414,50.6999998 C47.5895462,50.6999998 47.0488516,50.7720701 46.5242387,50.9140135 L36.2484329,53.6935543 C35.5282312,53.8961421 35.0066608,54.5280757 34.9388567,55.2808588 C34.9319024,55.3573237 34.9388567,55.5752925 34.9388567,55.5752925 C34.9449417,55.6877925 34.9618927,55.7994135 34.9905791,55.9083978 C35.2022498,56.6923822 35.907239,57.2355462 36.7113267,57.2342278 C36.8195526,57.2249993 37.3432961,57.1168938 37.7492518,57.0224115 L46.9675735,54.5311519 L47.4265555,56.2700678 L38.1782433,58.7723136 C37.6975294,58.9023917 37.2068186,58.9911613 36.7113267,59.0368644 C35.1009781,59.0351066 33.6914343,57.9439446 33.2698315,56.3728997 C33.2554883,56.3179681 33.2554883,56.2639154 33.2441876,56.2089838 L23.4390992,50.8520505 C23.173533,50.698242 22.8727607,50.6173826 22.5667727,50.6182616 C22.4524619,50.6182616 22.3381511,50.6292479 22.2255788,50.6503416 C22.0712809,50.6775877 21.921764,50.7268064 21.7805054,50.7962401 C21.4601742,50.9500486 21.1933041,51.1992185 21.0159702,51.5099119 C20.860803,51.7841306 20.7786556,52.0943844 20.7773517,52.4099118 C20.7730053,53.0537106 21.1107222,53.6504878 21.6622828,53.972607 L37.8905104,63.7877918 C38.3155903,64.056737 38.8071703,64.1995594 39.3087472,64.1999988 L51.853384,64.1999988 C52.188493,64.1995594 52.5209941,64.1353992 52.8326325,64.0110339 Z M57.8788258,49.7999999 L57.8788258,64.1999988 L63.2197064,64.1999988 L63.2197064,49.7999999 L57.8788258,49.7999999 Z M48.1197266,19.2941432 L65,19.2941432 L65,43 L27.2,43 L27.2,31.3594306 C25.3723144,31.2917606 23.5982422,30.7130044 22.0746582,29.6881606 L21.5301757,29.3235442 L20,29.3235442 L20,32.0588353 L11,32.0588353 L11,12 L20,12.0000334 L20,13.7572265 L20.9145019,13.7897259 C21.3666993,13.8079789 21.8158203,13.7095904 22.2201172,13.5034641 L24.237207,12.4812915 C24.8625488,12.1660919 25.5511719,12.0009238 26.2494629,12.0000334 L37.5645019,12.0000334 C39.7138672,11.9938007 41.7762207,12.8592638 43.2918945,14.4036528 L48.1197266,19.2941432 Z M18.2,30.2353079 L18.2,13.8235609 L12.8,13.8235609 L12.8,30.2353079 L18.2,30.2353079 Z M23.0708984,28.1709288 C24.29917,28.9972147 25.7269531,29.4686785 27.2,29.5350128 L27.2,25.129342 C26.5373047,24.8827028 25.9181153,24.5292163 25.3666016,24.0826835 L24.8392578,23.6495068 L25.9734863,22.2328894 L26.4951172,22.6611691 C28.278418,24.1053886 30.8215332,24.0671016 32.5613281,22.5703489 L33.1915039,22.0232016 L38.501416,27.4025185 C39.2076172,28.1148339 40.3501953,28.112608 41.0537597,27.3971762 C41.7568847,26.6812992 41.7546875,25.5237866 41.0484863,24.8114712 L34.690918,18.3703591 L35.9631347,17.0815135 L38.1476563,19.2941432 L45.5744141,19.2941432 L42.0192382,15.6924985 C40.840625,14.4918017 39.2361816,13.8186637 37.5645019,13.8235609 L26.2494629,13.8235609 C25.8297851,13.8235609 25.4153809,13.9223947 25.0400879,14.1124938 L23.0247559,15.1346664 C22.3501953,15.4752423 21.6022462,15.63952 20.848584,15.6123629 L20,15.5816443 L20,27.5000167 L22.0698243,27.5000167 L23.0708984,28.1709288 Z M35.8734863,27.3174859 C35.0495118,28.3423297 33.8862793,29.0283784 32.6,29.2478607 L32.6,33.0462825 C34.8645019,33.4385013 36.6381347,35.2353169 37.025293,37.5294177 L55.174707,37.5294177 C55.5618653,35.2353169 57.3354981,33.4385013 59.6,33.0462825 L59.6,29.2478607 C57.3354981,28.8556419 55.5618653,27.0588263 55.174707,24.7647255 L43.1227051,24.7647255 C43.5524903,25.8398766 43.4426269,27.0588263 42.827832,28.0369245 C44.4973144,26.2418897 47.2658691,26.0945294 49.1120118,27.7025814 C50.9585938,29.3106335 51.2297363,32.105581 49.728125,34.0475309 C48.2265137,35.9890356 45.4830078,36.3910486 43.4997559,34.9597398 C41.5165039,33.528431 40.9953125,30.7704348 42.3163087,28.6980422 C40.9043457,30.1026392 38.6411621,30.1004131 37.2313965,28.6935902 L35.8734863,27.3174859 Z M43.4,31.1470716 C43.4,32.6576254 44.6089356,33.8823628 46.1,33.8823628 C47.5910644,33.8823628 48.8,32.6576254 48.8,31.1470716 C48.8,29.6365178 47.5910644,28.4117804 46.1,28.4117804 C44.6089356,28.4117804 43.4,29.6365178 43.4,31.1470716 Z M63.2,41.1764726 L63.2,21.1176707 L39.9476563,21.1176707 L41.7476563,22.9411981 L56.9,22.9411981 L56.9,23.8529618 C56.9,25.8670336 58.5119141,27.5000167 60.5,27.5000167 L61.4,27.5000167 L61.4,34.7941265 L60.5,34.7941265 C58.5119141,34.7941265 56.9,36.4271096 56.9,38.4411814 L56.9,39.3529451 L35.3,39.3529451 L35.3,38.4411814 C35.3,36.4271096 33.6880859,34.7941265 31.7,34.7941265 L30.8,34.7941265 L30.8,27.5000167 L31.7,27.5000167 C32.8395019,27.4977908 33.9100097,26.9479723 34.5854493,26.0184007 L33.05,24.4628818 C31.8494141,25.251326 30.4269043,25.6199492 29,25.5113211 L29,41.1764726 L63.2,41.1764726 Z" id="Combined-Shape" fill="#75A7FF" fill-rule="nonzero"></path>
        </g>
    </g>
</svg>