<svg xmlns="http://www.w3.org/2000/svg" xml:space="preserve" width="64" height="64" style="enable-background:new 0 0 512 512" viewBox="0 0 64 64" fill="#75A7FF">
   <path d="M59.217 37.95a4.234 4.234 0 0 0-6.14-.476 4.892 4.892 0 0 0-5.278-.694l-6.192 2.995a3.565 3.565 0 0 0-.611-.126L20.839 37.32a12.366 12.366 0 0 0-5.455.61L5.352 41.45A2.024 2.024 0 0 0 4 43.359V53.91a2.016 2.016 0 0 0 3.304 1.557 8.364 8.364 0 0 1 8.595-1.47l14.657 5.056a9.955 9.955 0 0 0 9.252-1.475l18.6-14.034a4.053 4.053 0 0 0 .81-5.595zm-10.549.631a2.875 2.875 0 0 1 2.655.093l-7.038 4.815a4.12 4.12 0 0 0 .007-.22 3.702 3.702 0 0 0-.785-2.19zm8.535 3.367-18.6 14.034a7.958 7.958 0 0 1-7.395 1.18l-14.642-5.05A10.77 10.77 0 0 0 6 53.911l.014-10.573 10.032-3.52a10.299 10.299 0 0 1 4.564-.51l20.162 2.329a1.728 1.728 0 0 1-.208 3.44H24.6a1 1 0 0 0 0 2h6.036l3.45 2.338a4.465 4.465 0 0 0 5.092-.01c.01-.003 14.383-9.842 14.391-9.845l1.159-.792a2.015 2.015 0 1 1 2.475 3.18zm-18.164 5.128-.995.68a2.48 2.48 0 0 1-2.833.005l-1.01-.685zM36 35.483a15.556 15.556 0 0 0 15.539-15.539c-.854-20.614-30.227-20.608-31.078 0A15.556 15.556 0 0 0 36 35.483zm0-29.077a13.554 13.554 0 0 1 13.539 13.538c-.744 17.961-26.337 17.956-27.078 0A13.554 13.554 0 0 1 36 6.406zM35 27.88v1.782a1 1 0 0 0 2 0V27.88a4.74 4.74 0 0 0 0-9.222v-5.231a2.66 2.66 0 0 1 1.658 2.46 1 1 0 0 0 2 0A4.662 4.662 0 0 0 37 11.341v-1.116a1 1 0 0 0-2 0v1.116a4.661 4.661 0 0 0 0 9.088v5.365a2.66 2.66 0 0 1-1.658-2.459 1.008 1.008 0 1 0-2 0A4.662 4.662 0 0 0 35 27.88zm3.658-4.678A2.673 2.673 0 0 1 37 25.795v-5.052a2.66 2.66 0 0 1 1.658 2.46zm-5.316-7.316A2.66 2.66 0 0 1 35 13.426v4.92a2.66 2.66 0 0 1-1.658-2.46z" data-original="url(#a)"/>
</svg>
