<svg xmlns="http://www.w3.org/2000/svg" xml:space="preserve" width="74" height="74" style="enable-background:new 0 0 512 512" viewBox="0 0 74 74" fill="#75A7FF">
   <path d="M25.642 49.284a23.643 23.643 0 1 1 16.717-6.925 23.492 23.492 0 0 1-16.717 6.925zm0-45.274a21.624 21.624 0 1 0 15.3 6.328 21.576 21.576 0 0 0-15.3-6.328z" data-original="#000000"/>
   <path d="M25.642 43.284a17.645 17.645 0 1 1 12.474-5.168 17.523 17.523 0 0 1-12.474 5.168zm0-33.284A15.642 15.642 0 1 0 36.7 14.581 15.54 15.54 0 0 0 25.642 10zm36.233 62a3.362 3.362 0 0 1-2.392-.991l-17.695-17.7a3.38 3.38 0 0 1 0-4.784l6.741-6.741a3.461 3.461 0 0 1 4.784 0l17.7 17.7a3.384 3.384 0 0 1 0 4.785l-6.741 6.741a3.362 3.362 0 0 1-2.397.99zM50.921 42.8a1.372 1.372 0 0 0-.978.406L43.2 49.943a1.381 1.381 0 0 0 0 1.956L60.9 69.6a1.417 1.417 0 0 0 1.956 0l6.744-6.746a1.383 1.383 0 0 0 0-1.956L51.9 43.2a1.37 1.37 0 0 0-.979-.4z" data-original="#000000"/>
   <path d="m43.254 39.618 1.414-1.414 4.423 4.422-1.414 1.414zm-5.056 5.062 1.414-1.414 4.423 4.422-1.414 1.414zm-12.552-9.744a5.349 5.349 0 0 1-5.518-5.147h2a3.352 3.352 0 0 0 3.518 3.147 3.352 3.352 0 0 0 3.517-3.147 3.351 3.351 0 0 0-3.517-3.147 5.349 5.349 0 0 1-5.518-5.142 5.349 5.349 0 0 1 5.518-5.147 5.348 5.348 0 0 1 5.517 5.147h-2a3.352 3.352 0 0 0-3.517-3.147 3.352 3.352 0 0 0-3.518 3.147 3.352 3.352 0 0 0 3.518 3.147 5.348 5.348 0 0 1 5.517 5.147 5.348 5.348 0 0 1-5.517 5.142z" data-original="#000000"/>
   <path d="M24.646 14.866h2v21.551h-2z" data-original="#000000"/>
</svg>
