<svg xmlns="http://www.w3.org/2000/svg" xml:space="preserve" width="64" height="64" style="enable-background:new 0 0 512 512" viewBox="0 0 64 64" fill="#75A7FF">
   <path d="M28 31.936c-6.065 0-11 4.934-11 11s4.935 11 11 11 11-4.935 11-11-4.935-11-11-11zm0 20c-4.962 0-9-4.038-9-9s4.038-9 9-9 9 4.037 9 9-4.038 9-9 9z" data-original="#000000"/>
   <path d="M28 38.936c.827 0 1.5.672 1.5 1.5a1 1 0 1 0 2 0c0-1.58-1.06-2.904-2.5-3.337v-.738a1 1 0 1 0-2 0v.738c-1.44.433-2.5 1.757-2.5 3.337 0 1.93 1.57 3.5 3.5 3.5a1.501 1.501 0 1 1-1.5 1.5 1 1 0 1 0-2 0c0 1.58 1.06 2.903 2.5 3.336v.739a1 1 0 1 0 2 0v-.739c1.44-.433 2.5-1.757 2.5-3.336 0-1.93-1.57-3.5-3.5-3.5-.827 0-1.5-.673-1.5-1.5s.673-1.5 1.5-1.5z" data-original="#000000"/>
   <path d="M49.555 38.148C56.417 38.148 62 32.565 62 25.703s-5.583-12.445-12.445-12.445c-4.093 0-7.72 1.995-9.99 5.053a24.387 24.387 0 0 0-2.632-1.828l1.886-8.385a4.978 4.978 0 0 0-.974-4.222A4.974 4.974 0 0 0 33.94 2h-7.693a1 1 0 1 0 0 2h7.693c.916 0 1.77.41 2.342 1.126.573.715.786 1.639.585 2.532l-1.769 7.861c-2.324-1.083-4.697-1.647-7.099-1.647-2.483 0-4.86.599-7.101 1.64l-1.767-7.854a2.983 2.983 0 0 1 .585-2.532A2.984 2.984 0 0 1 22.059 4a1 1 0 1 0 0-2c-1.527 0-2.95.684-3.904 1.876a4.978 4.978 0 0 0-.974 4.222l1.885 8.379C8.904 22.51 2 37.763 2 48.46c0 4.335 1.06 7.494 3.242 9.66 4.015 3.983 11.177 3.924 19.473 3.863 2.15-.015 4.42-.015 6.57 0 1.028.008 2.04.016 3.03.016 6.993 0 12.926-.39 16.443-3.88C52.94 55.955 54 52.796 54 48.461c0-2.455-.337-5.099-1.001-7.858a1 1 0 0 0-1.944.469c.627 2.605.945 5.091.945 7.389 0 3.774-.867 6.47-2.65 8.24-3.424 3.398-10.203 3.346-18.05 3.283a464.58 464.58 0 0 0-6.6 0c-7.842.06-14.625.114-18.05-3.284C4.867 54.93 4 52.235 4 48.461c0-12.87 10.752-32.589 24-32.589 3.561 0 7.09 1.402 10.498 4.142a12.355 12.355 0 0 0-1.39 5.69c0 6.861 5.584 12.444 12.447 12.444zm0-22.89c5.76 0 10.445 4.685 10.445 10.445s-4.686 10.445-10.445 10.445-10.446-4.685-10.446-10.445 4.686-10.445 10.446-10.445z" data-original="#000000"/>
   <path d="M49.555 28.146c1.654 0 3-1.345 3-3v-5.672c0-1.655-1.346-3-3-3s-3 1.345-3 3v5.672c0 1.655 1.345 3 3 3zm-1-8.672a1 1 0 0 1 2 0v5.672a1.001 1.001 0 0 1-2 0zm1 15.459c1.654 0 3-1.346 3-3s-1.346-3-3-3-3 1.345-3 3 1.345 3 3 3zm0-4a1 1 0 1 1-.002 1.998 1 1 0 0 1 .002-1.998z" data-original="#000000"/>
</svg>
