<?xml version="1.0" encoding="UTF-8"?>
<svg width="57px" height="57px" viewBox="0 0 57 57" version="1.1" xmlns="http://www.w3.org/2000/svg" xmlns:xlink="http://www.w3.org/1999/xlink">
    <!-- Generator: Sketch 53.2 (72643) - https://sketchapp.com -->
    <title>4.1.6</title>
    <desc>Created with Sketch.</desc>
    <g id="Page-2" stroke="none" stroke-width="1" fill="none" fill-rule="evenodd">
        <g id="4.1.6" transform="translate(-9.000000, -8.000000)">
            <path d="M15.0353111,78 C6.76586784,78 -7.10542736e-15,71.056083 -7.10542736e-15,62.5690228 L-7.10542736e-15,15.4309772 C-7.10542736e-15,6.94391699 6.76586784,0 15.0353111,0 L60.9646889,0 C69.2341322,0 76,6.94391699 76,15.4309772 L76,62.5690228 C76,71.056083 69.2341322,78 60.9646889,78 L15.0353111,78 Z" id="Fill-1-Copy-27"></path>
            <path d="M63.1599082,36.8146527 C64.7790645,37.0148968 66,38.3821679 66,39.994793 L66,45.5418847 C66,47.1546199 64.7789531,48.521891 63.1597969,48.7221351 L60.8456191,49.0085282 C59.8360957,51.7923612 58.1303262,54.270657 55.8699199,56.2353597 L55.8699199,61.8096274 C55.8699199,63.5688048 54.4217637,65 52.6418496,65 L46.1840391,65 C44.4040137,65 42.9558574,63.5688048 42.9558574,61.8096274 L42.9558574,60.5920992 L35.8292988,60.5920992 L35.8292988,61.8096274 C35.8292988,63.5688048 34.3811426,65 32.6011172,65 L26.1433066,65 C24.3633926,65 22.9152363,63.5688048 22.9152363,61.8096274 L22.9152363,58.1559427 C17.5426523,55.0097998 14.2324219,49.3014127 14.2324219,43.1016573 C14.2324219,42.3972821 14.2759512,41.7029192 14.358334,41.0201088 L13.9541016,41.0201088 C11.2224434,41.0201088 9,38.8238051 9,36.1240306 C9,33.424256 11.2224434,31.2279523 13.9541016,31.2279523 C14.5688555,31.2279523 15.0673828,31.7205308 15.0673828,32.3281946 C15.0673828,32.9358584 14.5688555,33.4284369 13.9541016,33.4284369 C12.4500586,33.4284369 11.2265625,34.6377132 11.2265625,36.1240306 C11.2265625,37.6103479 12.4500586,38.8196242 13.9541016,38.8196242 L14.7698027,38.8196242 C16.7074688,31.2386246 23.6660332,25.6112153 31.9301426,25.6112153 L33.3251953,25.6112153 C33.9399492,25.6112153 34.4384766,26.1037938 34.4384766,26.7114576 C34.4384766,27.3191214 33.9399492,27.8116999 33.3251953,27.8116999 L31.9301426,27.8116999 C23.399291,27.8116999 16.4589844,34.6707205 16.4589844,43.1016573 C16.4589844,48.7148735 19.5631465,53.8674182 24.5597754,56.5484887 C24.9184746,56.7409211 25.1419102,57.1119228 25.1419102,57.5153816 L25.1419102,61.8095174 C25.1419102,62.3553476 25.5912305,62.7994054 26.143418,62.7994054 L32.6013398,62.7994054 C33.1536387,62.7994054 33.602959,62.3553476 33.602959,61.8095174 L33.602959,59.4917469 C33.602959,58.8840831 34.1014863,58.3915046 34.7162402,58.3915046 L44.0693613,58.3915046 C44.6841152,58.3915046 45.1826426,58.8840831 45.1826426,59.4917469 L45.1826426,61.8095174 C45.1826426,62.3553476 45.6319629,62.7994054 46.1842617,62.7994054 L52.6420723,62.7994054 C53.1942598,62.7994054 53.6435801,62.3553476 53.6435801,61.8095174 L53.6435801,55.728038 C53.6435801,55.4004959 53.7913125,55.0898975 54.0465879,54.8808514 C56.3625469,52.9844738 58.0582969,50.4923149 58.9508145,47.6740443 C59.0810684,47.2626637 59.4423281,46.964388 59.8750605,46.9109162 L62.8834805,46.5387042 C63.3909141,46.4758804 63.7736602,46.047336 63.7736602,45.5418847 L63.7736602,39.994793 C63.7736602,39.4893417 63.3910254,39.0607973 62.8834805,38.9979735 L59.6369297,38.596275 C59.2223438,38.5450037 58.8715488,38.2684028 58.7289375,37.8802373 C57.9841523,35.8544712 56.8360254,34.0467731 55.3835273,32.5401013 C55.276875,32.4646247 55.1861426,32.3713241 55.113334,32.2659209 C53.1207832,30.3005581 50.5928555,28.8843262 47.758998,28.2218703 C47.1606094,28.0820295 46.790332,27.4893289 46.9318301,26.8979487 C47.0733281,26.3064584 47.6730527,25.9406279 48.2714414,26.0804687 C49.1010586,26.2744414 49.9145332,26.5304678 50.7058535,26.8412862 C51.8247012,23.9626122 54.6692461,22 57.8255098,22 C57.826957,22 57.827959,22 57.8294062,22 L58.0726582,22.00011 C58.4127656,22.0003301 58.7341699,22.1541439 58.945248,22.417762 C59.1563262,22.6813801 59.2338105,23.0258659 59.1556582,23.353078 L57.2542852,31.3137712 C58.6581328,32.8351863 59.787668,34.5935935 60.5738672,36.4945922 L63.1599082,36.8146527 Z M55.3846406,29.5629556 L56.6335195,24.334054 C54.8443652,24.7398234 53.3441074,26.0394296 52.7290195,27.7860643 C53.6646211,28.2967968 54.5541328,28.8915878 55.3846406,29.5629556 Z M52.7069,36.293 C52.8929,36.479 53,36.737 53,37 C53,37.263 52.8929,37.521 52.7069,37.707 C52.521,37.893 52.263,38 52,38 C51.737,38 51.4791,37.893 51.293,37.707 C51.1069,37.521 51,37.263 51,37 C51,36.737 51.107,36.479 51.293,36.293 C51.479,36.107 51.737,36 52,36 C52.263,36 52.521,36.107 52.7069,36.293 Z M42,14 C42.5523,14 43,14.5253666 43,15.1732171 L43,19.8267829 C43,20.4747507 42.5522,21 42,21 C41.4478,21 41,20.4747507 41,19.8267829 L41,15.1732171 C41,14.5252493 41.4478,14 42,14 Z M42.7069,10.293 C42.8929,10.48 43,10.737 43,11 C43,11.263 42.8929,11.521 42.7069,11.707 C42.521,11.893 42.263,12 42,12 C41.7369,12 41.479,11.893 41.293,11.707 C41.1069,11.521 41,11.264 41,11 C41,10.737 41.107,10.479 41.293,10.293 C41.479,10.107 41.7369,10 42,10 C42.263,10 42.521,10.107 42.7069,10.293 Z M33,8 C33.5523,8 34,8.484 34,9.08108108 L34,10.9189189 C34,11.516 33.5522,12 33,12 C32.4478,12 32,11.516 32,10.9189189 L32,9.08108108 C32,8.484 32.4478,8 33,8 Z M20.9998807,42.9770873 L20.9999806,43.016757 C21.0033804,43.5564024 20.558407,43.9965802 20.00624,44 C20.0040401,44 20.0019402,44 19.9999403,44 C19.4505731,44 19.0034998,43.5664664 19.0001,43.0289706 L19,42.9770873 C19,42.437442 19.4477733,42 19.9999403,42 C20.5521074,42 20.9998807,42.437442 20.9998807,42.9770873 Z M26.4607273,50.9026988 C26.9903019,51.227405 27.1585937,51.9231878 26.8362683,52.4567872 C26.6248651,52.8067144 26.2549375,53 25.8760283,53 C25.6771993,53 25.4759003,52.9467305 25.2935748,52.8349891 C22.9194142,51.3796357 21.0659591,49.1426577 20.0746204,46.5360732 C19.8527761,45.9527104 20.1423189,45.2987741 20.7212921,45.0752912 C21.300153,44.851582 21.9494068,45.1432634 22.1713634,45.7267393 C22.9857654,47.868036 24.5091486,49.7062282 26.4607273,50.9026988 Z M33,13 C35.7570238,13 38,15.2429762 38,18 C38,20.7570238 35.7570238,23 33,23 C30.2429762,23 28,20.7570238 28,18 C28,15.2429762 30.2429762,13 33,13 Z M33,20.6190476 C34.4441667,20.6190476 35.6190476,19.4441667 35.6190476,18 C35.6190476,16.5558333 34.4441667,15.3809524 33,15.3809524 C31.5558333,15.3809524 30.3809524,16.5558333 30.3809524,18 C30.3809524,19.4441667 31.5558333,20.6190476 33,20.6190476 Z M46.8666667,31.6190476 C47.4926067,31.6190476 48,32.1520238 48,32.8095238 C48,33.4670238 47.4924933,34 46.8666667,34 L32.1333333,34 C31.5075067,34 31,33.4670238 31,32.8095238 C31,32.1520238 31.5075067,31.6190476 32.1333333,31.6190476 L37.7414067,31.6190476 C37.2932867,30.8567857 37.03398,29.9597619 37.0340933,29 C37.0340933,26.2429762 39.1694067,24 41.7940933,24 C44.41878,24 46.5540933,26.2429762 46.5540933,29 C46.5540933,29.9597619 46.2947867,30.8567857 45.8466667,31.6190476 L46.8666667,31.6190476 Z M41.7940933,31.6190476 C43.1688267,31.6190476 44.2874267,30.4441667 44.2874267,29 C44.2874267,27.5558333 43.16894,26.3809524 41.7940933,26.3809524 C40.4192467,26.3809524 39.30076,27.5558333 39.30076,29 C39.30076,30.4441667 40.4192467,31.6190476 41.7940933,31.6190476 Z" id="Combined-Shape" fill="#75A7FF" fill-rule="nonzero"></path>
        </g>
    </g>
</svg>