<?xml version="1.0" encoding="UTF-8"?>
<svg width="76px" height="78px" viewBox="0 0 76 78" version="1.1" xmlns="http://www.w3.org/2000/svg" xmlns:xlink="http://www.w3.org/1999/xlink">
    <!-- Generator: Sketch 53.2 (72643) - https://sketchapp.com -->
    <title>3.1.2-h</title>
    <desc>Created with Sketch.</desc>
    <g id="Page-2" stroke="none" stroke-width="1" fill="none" fill-rule="evenodd">
        <g id="3.1.2-h">
            <g id="Group-22" transform="translate(0.000000, 0.000000)">
                <path d="M15.0353111,78 C6.76586784,78 4.97379915e-14,71.056083 4.97379915e-14,62.5690228 L4.97379915e-14,15.4309772 C4.97379915e-14,6.94391699 6.76586784,0 15.0353111,0 L60.9646889,0 C69.2341322,0 76,6.94391699 76,15.4309772 L76,62.5690228 C76,71.056083 69.2341322,78 60.9646889,78 L15.0353111,78 Z" id="Fill-1-Copy-55" fill="#75A7FF"></path>
                <path d="M49,34.047619 L49,42.952381 C49,43.5309244 48.5223959,44 47.9333333,44 L38.0666667,44 C37.4776041,44 37,43.5309244 37,42.952381 L37,34.047619 C37,33.4690755 37.4776041,33 38.0666667,33 L47.9333333,33 C48.5223959,33 49,33.4690755 49,34.047619 Z M39.1333333,35.0952381 L39.1333333,41.9047619 L46.8666667,41.9047619 L46.8666667,35.0952381 L39.1333333,35.0952381 Z M67.9326236,56.6608837 C68.5152031,56.6608837 69,57.0990665 69,57.707893 L69,61.8420992 C68.9979414,62.4649217 68.5275546,62.9752378 67.9326236,63 L9.10546031,63 C8.50280943,62.9784677 8.01955663,62.4724579 8,61.8420992 L8,57.707893 C8,57.0990665 8.52339528,56.6608837 9.10546031,56.6608837 L15.1144708,56.6608837 L15.1144708,28.0358119 L9.28095468,28.0045899 C8.8013043,28.0035133 8.37980892,27.6719155 8.24497165,27.1906681 C8.12094192,26.7126505 8.31753675,26.2061026 8.72513664,25.953636 L34.2243183,10.1542931 C34.5567798,9.94812109 34.9700408,9.9486595 35.301473,10.1553698 L61.0626096,26.2281732 C61.4702095,26.4811781 61.6647459,26.9882642 61.5386576,27.4657436 C61.4125691,27.9437612 60.9962203,28.273744 60.5227457,28.2726674 L60.5170845,28.2726674 L53.9805616,28.2435987 L53.9805616,35.7072406 L65.9188124,41.966149 C66.274433,42.1534802 66.4983042,42.5351406 66.4967603,42.9517912 L66.4967603,56.6608837 L67.9326236,56.6608837 Z M64.3887689,43.6322126 L53.9805616,38.1737684 L53.9805616,56.6608837 L64.3887689,56.6608837 L64.3887689,43.6322126 Z M34.7595505,12.3855802 L13.076986,25.8212123 L56.6654714,26.0537614 L34.7595505,12.3855802 Z M17.2224622,28.0471163 L17.2224622,56.6608837 L20.5161987,56.6608837 L20.5161987,33.452268 C20.508479,33.1707328 20.6129522,32.898349 20.8049153,32.7002516 C20.9963637,32.5016159 21.2583186,32.3955691 21.5274787,32.4068737 L32.3751941,32.4068737 C32.9572591,32.4068737 33.4276458,32.8434415 33.4276458,33.452268 L33.4276458,56.6608837 L51.8725702,56.6608837 L51.8725702,28.2322943 L17.2224622,28.0471163 Z M31.3196544,44.8046476 L31.3196544,34.6117837 L22.6241901,34.6117837 L22.6241901,56.6608837 L31.3196544,56.6608837 L31.3196544,46.7064901 C31.1621727,46.8146901 30.9779293,46.873904 30.7895686,46.8760572 L28.4520451,46.8760572 C27.8699801,46.8760572 27.3980494,46.3824287 27.3980494,45.7736022 C27.3980494,45.1647757 27.8699801,44.6711472 28.4520451,44.6711472 L30.7895686,44.6711472 C30.9748413,44.661996 31.1585702,44.7082904 31.3196544,44.8046476 Z M66.8920086,60.79509 L66.8920086,58.8657937 L10.1079914,58.8657937 L10.1079914,60.79509 L66.8920086,60.79509 Z" id="Combined-Shape-Copy-20" fill="#FFFFFF" fill-rule="nonzero"></path>
            </g>
        </g>
    </g>
</svg>