<?xml version="1.0" encoding="UTF-8"?>
<svg width="76px" height="78px" viewBox="0 0 76 78" version="1.1" xmlns="http://www.w3.org/2000/svg" xmlns:xlink="http://www.w3.org/1999/xlink">
    <!-- Generator: Sketch 53.2 (72643) - https://sketchapp.com -->
    <title>3.1.4-h</title>
    <desc>Created with Sketch.</desc>
    <g id="Page-2" stroke="none" stroke-width="1" fill="none" fill-rule="evenodd">
        <g id="3.1.4-h">
            <path d="M15.0353111,78 C6.76586784,78 4.97379915e-14,71.056083 4.97379915e-14,62.5690228 L4.97379915e-14,15.4309772 C4.97379915e-14,6.94391699 6.76586784,0 15.0353111,0 L60.9646889,0 C69.2341322,0 76,6.94391699 76,15.4309772 L76,62.5690228 C76,71.056083 69.2341322,78 60.9646889,78 L15.0353111,78 Z" id="Fill-1-Copy-58" fill="#75A7FF"></path>
            <path d="M60.9298834,50.6722593 C61.1457331,51.2048116 60.8465322,51.7958088 60.2615241,51.992304 L48.5201841,55.9362146 C48.3912277,55.9794436 48.2591719,56 48.1294407,56 C47.6700682,56 47.2384794,55.742944 47.0701166,55.3277849 C46.8542669,54.7952325 47.1534678,54.2042354 47.7384759,54.0077402 L59.4798159,50.0638295 C60.0648241,49.8673343 60.713923,50.1397069 60.9298834,50.6722593 Z M46.9236856,57.6048953 C47.158657,58.0840121 46.83283,58.6156187 46.1961178,58.7923978 L45.6548401,58.9426148 C45.5144598,58.9815062 45.3707055,59 45.2294817,59 C44.7294144,59 44.2594716,58.768646 44.0763144,58.3951434 C43.841343,57.9161173 44.16717,57.38442 44.8038822,57.2076409 L45.3451599,57.057424 C45.9819926,56.8806448 46.6888347,57.1256879 46.9236856,57.6048953 Z M60.9331495,46.77968 C61.1389446,47.3974036 60.8536809,48.0829191 60.2959234,48.3108398 L51.4493716,51.9260134 C51.3264222,51.976156 51.2005178,52 51.0768296,52 C50.6388554,52 50.2273707,51.7018329 50.0668505,51.2202773 C49.8610554,50.6025536 50.1463191,49.9170382 50.7040766,49.6891174 L59.5506284,46.0739438 C60.108386,45.8462569 60.7272489,46.1619563 60.9331495,46.77968 Z M60.9331495,42.77968 C61.1389446,43.3974036 60.8536809,44.0829191 60.2959234,44.3108398 L51.4493716,47.9260134 C51.3264222,47.976156 51.2005178,48 51.0768296,48 C50.6388554,48 50.2273707,47.7018329 50.0668505,47.2202773 C49.8610554,46.6025536 50.1463191,45.9170382 50.7040766,45.6891174 L59.5506284,42.0739438 C60.108386,41.8462569 60.7272489,42.1619563 60.9331495,42.77968 Z M64.2967344,21.991175 C64.7193477,22.1529794 65,22.5706732 65,23.0380352 L65,54.9619648 C65,55.4293268 64.7193477,55.8470206 64.2967344,56.008825 L38.3724102,65.9310772 L38.3719883,65.9304208 C38.2525977,65.9761505 38.1265625,66 37.9998945,66 C37.8744922,66 37.748457,65.9773539 37.6275898,65.9310772 L11.7032656,56.008825 C11.2806523,55.8470206 11,55.4292174 11,54.9619648 L11,23.0380352 C11,22.6731821 11.1720195,22.3313033 11.4606875,22.1225658 C11.536625,22.0677558 11.6182578,22.0246517 11.7031602,21.9920502 L11.7033711,21.991175 L37.6276953,12.0689228 C37.8679531,11.9770257 38.1320469,11.9770257 38.3724102,12.0689228 L64.2967344,21.991175 Z M36.9243242,63.2832397 L36.9241133,33.7380206 L31.7607852,31.7617971 L31.7607852,44.4581358 C31.7607852,44.8229888 31.5887656,45.1648676 31.3002031,45.3734957 C31.1172148,45.5057618 30.9020586,45.5739188 30.6850039,45.5739188 C30.5596016,45.5739188 30.4335664,45.5512727 30.3126992,45.504996 L18.6952109,41.0583838 C18.2725977,40.8965794 17.9919453,40.4787762 17.9919453,40.0115236 L17.9919453,26.4919408 L13.1513516,24.6391219 L13.1513516,54.184341 L36.9243242,63.2832397 Z M29.6095391,30.9383342 L20.1434023,27.3151849 L20.1434023,39.233681 L29.6095391,42.8568303 L29.6095391,30.9383342 Z M22.1751523,25.7052367 L30.6852148,28.9624389 L39.1952773,25.7052367 L30.6852148,22.4480344 L22.1751523,25.7052367 Z M38,31.7709868 L60.816793,23.0381446 L38,14.3051929 L15.183207,23.0380352 L19.0560195,24.5204216 L30.3128047,20.2117643 C30.5532734,20.1198673 30.8172617,20.1198673 31.057625,20.2117643 L42.6752188,24.6582671 C43.097832,24.8200715 43.3784844,25.2377653 43.3784844,25.7051273 C43.3784844,26.1724892 43.097832,26.5901831 42.6752188,26.7519875 L33.7811445,30.1562249 L38,31.7709868 Z M62.8486484,54.184341 L62.8486484,24.6391219 L39.0757812,33.7380206 L39.0757812,63.2831303 L62.8486484,54.184341 Z" id="Combined-Shape-Copy-22" fill="#FFFFFF" fill-rule="nonzero"></path>
        </g>
    </g>
</svg>