<svg width="64" height="64" viewBox="0 0 64 64" fill="none" xmlns="http://www.w3.org/2000/svg">
<path d="M6.7515 64C5.02262 64 3.29716 63.3406 1.9783 62.0217C-0.659433 59.3874 -0.659433 55.113 1.9783 52.4753L52.4744 1.97574C55.1122 -0.658579 59.3865 -0.658579 62.0243 1.97574C64.6586 4.61347 64.6586 8.88782 62.0243 11.5256L11.5247 62.0217C10.2058 63.3406 8.48037 64 6.7515 64V64Z" fill="white"/>
<path d="M57.2485 64C55.5196 64 53.7907 63.3406 52.4753 62.0217L1.97574 11.5256C-0.658578 8.88782 -0.658578 4.61688 1.97574 1.97574C4.61347 -0.658579 8.88782 -0.658579 11.5256 1.97574L62.0217 52.4753C64.6594 55.1096 64.6594 59.384 62.0217 62.0217C60.7028 63.3406 58.974 64 57.2485 64Z" fill="white"/>
</svg>
