<?xml version="1.0" encoding="UTF-8"?>
<svg width="76px" height="78px" viewBox="0 0 76 78" version="1.1" xmlns="http://www.w3.org/2000/svg" xmlns:xlink="http://www.w3.org/1999/xlink">
    <title>1.1.3</title>
    <g id="Page-2" stroke="none" stroke-width="1" fill="none" fill-rule="evenodd">
        <g id="1.1.3">
            <path d="M15.0353111,78 C6.76586784,78 -7.10542736e-15,71.056083 -7.10542736e-15,62.5690228 L-7.10542736e-15,15.4309772 C-7.10542736e-15,6.94391699 6.76586784,0 15.0353111,0 L60.9646889,0 C69.2341322,0 76,6.94391699 76,15.4309772 L76,62.5690228 C76,71.056083 69.2341322,78 60.9646889,78 L15.0353111,78 Z" id="Fill-1-Copy-9" fill="#FFFFFF"></path>
            <g id="Group-14" transform="translate(13.000000, 16.000000)">
                <g id="Group-31" transform="translate(0.818182, 18.000000)">
                    <path d="M43.7309411,0.506593473 C43.6192233,1.46176282 43.3161065,6.03793677 47.0323669,10.5122369 C53.90712,18.7892845 44.5992185,27.6629056 34.0040978,25.5129595 C34.0040978,25.5129595 29.7514276,26.3687 25.0740655,26.3687 C20.3934175,26.3687 16.1161036,25.5129595 16.1161036,25.5129595 C5.52016145,27.6629056 -3.97913891,18.7892845 2.89561418,10.5122369 C6.61105309,6.03793677 6.30711491,1.46176282 6.19457564,0.506593473 L43.7309411,0.506593473 Z" id="Fill-29" fill="#D8232A"></path>
                    <path d="M43.7309411,0.506593473 C43.6192233,1.46176282 43.3161065,6.03793677 47.0323669,10.5122369 C53.90712,18.7892845 44.5992185,27.6629056 34.0040978,25.5129595 C34.0040978,25.5129595 29.7514276,26.3687 25.0740655,26.3687 C20.3934175,26.3687 16.1161036,25.5129595 16.1161036,25.5129595 C5.52016145,27.6629056 -3.97913891,18.7892845 2.89561418,10.5122369 C6.61105309,6.03793677 6.30711491,1.46176282 6.19457564,0.506593473 L43.7309411,0.506593473 Z" id="Stroke-30" stroke="#1A1919" stroke-width="0.426"></path>
                </g>
                <g id="Group-34" transform="translate(13.909091, 36.818182)">
                    <path d="M20.1114491,4.9751469 C20.1114491,4.9751469 20.7086465,3.36309488 21.9424713,2.42422535 C22.5454189,1.96457048 23.5566295,2.13734855 23.0481491,3.05013837 C22.9101447,3.2987106 21.4446698,4.26447483 20.4613887,5.42665186 C20.2814902,5.63936449 20.1114491,4.9751469 20.1114491,4.9751469 Z M5.71956545,3.89202398 L5.71956545,3.89202398 C5.71956545,3.89202398 5.47312909,2.19276794 4.46274,1.01918103 C3.96904582,0.445427427 2.94387055,0.406307864 3.25027309,1.40385674 C3.33324,1.67524871 4.56377891,2.9221848 5.28173018,4.26284485 C5.41316291,4.50815711 5.71956545,3.89202398 5.71956545,3.89202398 Z M3.82693418,4.9751469 L3.82693418,4.9751469 C3.82693418,4.9751469 3.22973673,3.36309488 1.995912,2.42422535 C1.39296436,1.96457048 0.381753818,2.13734855 0.890234182,3.05013837 C1.02823855,3.2987106 2.492892,4.26447483 3.47617309,5.42665186 C3.65607164,5.63936449 3.82693418,4.9751469 3.82693418,4.9751469 Z M18.2188178,3.89202398 L18.2188178,3.89202398 C18.2188178,3.89202398 18.4652542,2.19276794 19.4756433,1.01918103 C19.9693375,0.445427427 20.9945127,0.406307864 20.6881102,1.40385674 C20.6051433,1.67524871 19.3746044,2.9221848 18.6566531,4.26284485 C18.5252204,4.50815711 18.2188178,3.89202398 18.2188178,3.89202398 Z" id="Fill-32" fill="#D8232A"></path>
                    <path d="M20.1114491,4.9751469 C20.1114491,4.9751469 20.7086465,3.36309488 21.9424713,2.42422535 C22.5454189,1.96457048 23.5566295,2.13734855 23.0481491,3.05013837 C22.9101447,3.2987106 21.4446698,4.26447483 20.4613887,5.42665186 C20.2814902,5.63936449 20.1114491,4.9751469 20.1114491,4.9751469 Z M5.71956545,3.89202398 L5.71956545,3.89202398 C5.71956545,3.89202398 5.47312909,2.19276794 4.46274,1.01918103 C3.96904582,0.445427427 2.94387055,0.406307864 3.25027309,1.40385674 C3.33324,1.67524871 4.56377891,2.9221848 5.28173018,4.26284485 C5.41316291,4.50815711 5.71956545,3.89202398 5.71956545,3.89202398 Z M3.82693418,4.9751469 L3.82693418,4.9751469 C3.82693418,4.9751469 3.22973673,3.36309488 1.995912,2.42422535 C1.39296436,1.96457048 0.381753818,2.13734855 0.890234182,3.05013837 C1.02823855,3.2987106 2.492892,4.26447483 3.47617309,5.42665186 C3.65607164,5.63936449 3.82693418,4.9751469 3.82693418,4.9751469 Z M18.2188178,3.89202398 L18.2188178,3.89202398 C18.2188178,3.89202398 18.4652542,2.19276794 19.4756433,1.01918103 C19.9693375,0.445427427 20.9945127,0.406307864 20.6881102,1.40385674 C20.6051433,1.67524871 19.3746044,2.9221848 18.6566531,4.26284485 C18.5252204,4.50815711 18.2188178,3.89202398 18.2188178,3.89202398 Z" id="Stroke-33" stroke="#1A1919" stroke-width="0.426"></path>
                </g>
                <g id="Group-37" transform="translate(19.636364, 22.090909)">
                    <path d="M11.1805036,18.413919 C11.1805036,18.413919 14.3316033,8.33655641 9.57127418,2.33577835 C9.14411782,2.25672423 8.70299673,1.99429715 8.22655309,1.67808068 C8.22655309,1.67808068 7.69917927,0.751436018 6.45796145,0.747361064 C5.21510073,0.751436018 4.27207091,1.67808068 4.27207091,1.67808068 C3.71758909,2.04645657 3.19432255,2.27791399 2.70966436,2.33496335 C-2.05148618,8.33492643 1.198188,18.4644484 1.198188,18.4644484 C6.21727527,16.5728545 11.0613927,18.3601296 11.1805036,18.413919 Z" id="Fill-35" fill="#FFF101"></path>
                    <path d="M11.1805036,18.413919 C11.1805036,18.413919 14.3316033,8.33655641 9.57127418,2.33577835 C9.14411782,2.25672423 8.70299673,1.99429715 8.22655309,1.67808068 C8.22655309,1.67808068 7.69917927,0.751436018 6.45796145,0.747361064 C5.21510073,0.751436018 4.27207091,1.67808068 4.27207091,1.67808068 C3.71758909,2.04645657 3.19432255,2.27791399 2.70966436,2.33496335 C-2.05148618,8.33492643 1.198188,18.4644484 1.198188,18.4644484 C6.21727527,16.5728545 11.0613927,18.3601296 11.1805036,18.413919 Z" id="Stroke-36" stroke="#1A1919" stroke-width="0.426"></path>
                </g>
                <g id="Group-40" transform="translate(28.636364, 31.909091)">
                    <path d="M0.724064727,1.57133054 C0.724064727,1.10108078 1.10850545,0.719665036 1.58248473,0.719665036 C2.056464,0.719665036 2.44090473,1.10108078 2.44090473,1.57133054 C2.44090473,2.04158029 2.056464,2.42299604 1.58248473,2.42299604 C1.10850545,2.42299604 0.724064727,2.04158029 0.724064727,1.57133054 Z" id="Fill-38" fill="#FFFFFE"></path>
                    <path d="M0.724064727,1.57133054 C0.724064727,1.10108078 1.10850545,0.719665036 1.58248473,0.719665036 C2.056464,0.719665036 2.44090473,1.10108078 2.44090473,1.57133054 C2.44090473,2.04158029 2.056464,2.42299604 1.58248473,2.42299604 C1.10850545,2.42299604 0.724064727,2.04158029 0.724064727,1.57133054 Z" id="Stroke-39" stroke="#1A1919" stroke-width="0.426"></path>
                </g>
                <g id="Group-43" transform="translate(7.363636, 24.545455)">
                    <path d="M1.84733345,0.568270227 L7.95731236,0.568270227 C8.92498582,0.568270227 9.70947491,1.34658655 9.70947491,2.30746083 L9.70947491,6.39464024 C9.70947491,7.35469953 8.92498582,8.13383084 7.95731236,8.13383084 L1.84733345,8.13383084 C0.878838545,8.13383084 0.0943494545,7.35469953 0.0943494545,6.39464024 L0.0943494545,2.30746083 C0.0943494545,1.34658655 0.878838545,0.568270227 1.84733345,0.568270227 Z" id="Fill-41" fill="#008AC4"></path>
                    <path d="M1.84733345,0.568270227 L7.95731236,0.568270227 C8.92498582,0.568270227 9.70947491,1.34658655 9.70947491,2.30746083 L9.70947491,6.39464024 C9.70947491,7.35469953 8.92498582,8.13383084 7.95731236,8.13383084 L1.84733345,8.13383084 C0.878838545,8.13383084 0.0943494545,7.35469953 0.0943494545,6.39464024 L0.0943494545,2.30746083 C0.0943494545,1.34658655 0.878838545,0.568270227 1.84733345,0.568270227 Z" id="Stroke-42" stroke="#1A1919" stroke-width="0.426"></path>
                </g>
                <g id="Group-46" transform="translate(8.181818, 25.363636)">
                    <path d="M1.72820945,0.730522473 L6.56904109,0.730522473 C7.29849273,0.730522473 7.88994,1.31731593 7.88994,2.04102785 L7.88994,5.02389458 C7.88994,5.74760651 7.29849273,6.33439996 6.56904109,6.33439996 L1.72820945,6.33439996 C0.997936364,6.33439996 0.407310545,5.74760651 0.407310545,5.02389458 L0.407310545,2.04102785 C0.407310545,1.31731593 0.997936364,0.730522473 1.72820945,0.730522473 Z" id="Fill-44" fill="#1A1919"></path>
                    <path d="M1.72820945,0.730522473 L6.56904109,0.730522473 C7.29849273,0.730522473 7.88994,1.31731593 7.88994,2.04102785 L7.88994,5.02389458 C7.88994,5.74760651 7.29849273,6.33439996 6.56904109,6.33439996 L1.72820945,6.33439996 C0.997936364,6.33439996 0.407310545,5.74760651 0.407310545,5.02389458 L0.407310545,2.04102785 C0.407310545,1.31731593 0.997936364,0.730522473 1.72820945,0.730522473 Z" id="Stroke-45" stroke="#1A1919" stroke-width="0.426"></path>
                </g>
                <g id="Group-49" transform="translate(12.272727, 25.363636)">
                    <path d="M3.79903091,4.27654792 C1.61396182,4.06057533 0.852473455,1.52106365 0.667646182,0.730522473 L2.478132,0.730522473 C3.20758364,0.730522473 3.79903091,1.31731593 3.79903091,2.04102785 L3.79903091,4.27654792 Z" id="Fill-47" fill="#EB8B2D"></path>
                    <path d="M3.79903091,4.27654792 C1.61396182,4.06057533 0.852473455,1.52106365 0.667646182,0.730522473 L2.478132,0.730522473 C3.20758364,0.730522473 3.79903091,1.31731593 3.79903091,2.04102785 L3.79903091,4.27654792 Z" id="Stroke-48" stroke="#1A1919" stroke-width="0.426"></path>
                </g>
                <g id="Group-52" transform="translate(8.181818, 25.363636)">
                    <path d="M3.56662473,0.730522473 C3.42451309,1.45341941 2.73695564,4.17304407 0.407310545,4.28795779 L0.407310545,2.04102785 C0.407310545,1.31731593 0.998757818,0.730522473 1.72820945,0.730522473 L3.56662473,0.730522473 Z" id="Fill-50" fill="#EB8B2D"></path>
                    <path d="M3.56662473,0.730522473 C3.42451309,1.45341941 2.73695564,4.17304407 0.407310545,4.28795779 L0.407310545,2.04102785 C0.407310545,1.31731593 0.998757818,0.730522473 1.72820945,0.730522473 L3.56662473,0.730522473 Z" id="Stroke-51" stroke="#1A1919" stroke-width="0.426"></path>
                </g>
                <g id="Group-55" transform="translate(34.363636, 24.545455)">
                    <path d="M2.03747891,0.568270227 L8.14745782,0.568270227 C9.11595273,0.568270227 9.90044182,1.34658655 9.90044182,2.30746083 L9.90044182,6.39464024 C9.90044182,7.35469953 9.11595273,8.13383084 8.14745782,8.13383084 L2.03747891,8.13383084 C1.06980545,8.13383084 0.284494909,7.35469953 0.284494909,6.39464024 L0.284494909,2.30746083 C0.284494909,1.34658655 1.06980545,0.568270227 2.03747891,0.568270227 Z" id="Fill-53" fill="#008AC4"></path>
                    <path d="M2.03747891,0.568270227 L8.14745782,0.568270227 C9.11595273,0.568270227 9.90044182,1.34658655 9.90044182,2.30746083 L9.90044182,6.39464024 C9.90044182,7.35469953 9.11595273,8.13383084 8.14745782,8.13383084 L2.03747891,8.13383084 C1.06980545,8.13383084 0.284494909,7.35469953 0.284494909,6.39464024 L0.284494909,2.30746083 C0.284494909,1.34658655 1.06980545,0.568270227 2.03747891,0.568270227 Z" id="Stroke-54" stroke="#1A1919" stroke-width="0.426"></path>
                </g>
                <g id="Group-58" transform="translate(35.181818, 25.363636)">
                    <path d="M1.91835491,0.730522473 L6.760008,0.730522473 C7.48945964,0.730522473 8.08090691,1.31731593 8.08090691,2.04102785 L8.08090691,5.02389458 C8.08090691,5.74760651 7.48945964,6.33439996 6.760008,6.33439996 L1.91835491,6.33439996 C1.18890327,6.33439996 0.598277455,5.74760651 0.598277455,5.02389458 L0.598277455,2.04102785 C0.598277455,1.31731593 1.18890327,0.730522473 1.91835491,0.730522473 Z" id="Fill-56" fill="#1A1919"></path>
                    <path d="M1.91835491,0.730522473 L6.760008,0.730522473 C7.48945964,0.730522473 8.08090691,1.31731593 8.08090691,2.04102785 L8.08090691,5.02389458 C8.08090691,5.74760651 7.48945964,6.33439996 6.760008,6.33439996 L1.91835491,6.33439996 C1.18890327,6.33439996 0.598277455,5.74760651 0.598277455,5.02389458 L0.598277455,2.04102785 C0.598277455,1.31731593 1.18890327,0.730522473 1.91835491,0.730522473 Z" id="Stroke-57" stroke="#1A1919" stroke-width="0.426"></path>
                </g>
                <g id="Group-61" transform="translate(40.090909, 25.363636)">
                    <path d="M3.171816,4.27654792 C0.986746909,4.06057533 0.225258545,1.52106365 0.0396098182,0.730522473 L1.85091709,0.730522473 C2.58036873,0.730522473 3.171816,1.31731593 3.171816,2.04102785 L3.171816,4.27654792 Z" id="Fill-59" fill="#EB8B2D"></path>
                    <path d="M3.171816,4.27654792 C0.986746909,4.06057533 0.225258545,1.52106365 0.0396098182,0.730522473 L1.85091709,0.730522473 C2.58036873,0.730522473 3.171816,1.31731593 3.171816,2.04102785 L3.171816,4.27654792 Z" id="Stroke-60" stroke="#1A1919" stroke-width="0.426"></path>
                </g>
                <g id="Group-64" transform="translate(35.181818, 25.363636)">
                    <path d="M3.75759164,0.730522473 C3.61548,1.45341941 2.92710109,4.17304407 0.598277455,4.28795779 L0.598277455,2.04102785 C0.598277455,1.31731593 1.18890327,0.730522473 1.91835491,0.730522473 L3.75759164,0.730522473 Z" id="Fill-62" fill="#EB8B2D"></path>
                    <path d="M3.75759164,0.730522473 C3.61548,1.45341941 2.92710109,4.17304407 0.598277455,4.28795779 L0.598277455,2.04102785 C0.598277455,1.31731593 1.18890327,0.730522473 1.91835491,0.730522473 L3.75759164,0.730522473 Z" id="Stroke-63" stroke="#1A1919" stroke-width="0.426"></path>
                </g>
                <g id="Group-67" transform="translate(16.363636, 39.272727)">
                    <path d="M3.30198545,0.641232409 C3.30198545,0.641232409 1.63525418,0.858019991 1.02162764,1.85882883 C0.408001091,2.86126765 1.11609491,4.05604432 1.85129673,4.23615731 C4.96953818,5.00061878 9.31503273,4.98187399 9.41607164,4.92889958 C9.51628909,4.98187399 14.0548255,5.11308753 17.0145262,4.23615731 C17.740692,4.02099971 18.4586433,2.86126765 17.8441953,1.85882883 C17.2313902,0.858019991 15.5646589,0.641232409 15.5646589,0.641232409 C15.4126898,-0.291932182 3.45231164,0.0960034909 3.30198545,0.641232409 Z" id="Fill-65" fill="#E7792B"></path>
                    <path d="M3.30198545,0.641232409 C3.30198545,0.641232409 1.63525418,0.858019991 1.02162764,1.85882883 C0.408001091,2.86126765 1.11609491,4.05604432 1.85129673,4.23615731 C4.96953818,5.00061878 9.31503273,4.98187399 9.41607164,4.92889958 C9.51628909,4.98187399 14.0548255,5.11308753 17.0145262,4.23615731 C17.740692,4.02099971 18.4586433,2.86126765 17.8441953,1.85882883 C17.2313902,0.858019991 15.5646589,0.641232409 15.5646589,0.641232409 C15.4126898,-0.291932182 3.45231164,0.0960034909 3.30198545,0.641232409 Z" id="Stroke-66" stroke="#1A1919" stroke-width="0.426"></path>
                </g>
                <path d="M19.6163345,39.88788 C19.6163345,39.88788 24.6855305,38.9750902 32.0030476,39.888695" id="Stroke-68" stroke="#1A1919" stroke-width="0.426"></path>
                <g id="Group-71" transform="translate(37.636364, 0.818182)">
                    <path d="M0.710777455,5.97210235 L0.706670182,1.03488742 L6.63921491,0.686071309 L6.88647273,8.49123925 C3.66719236,6.35514807 3.57929673,7.30053753 0.710777455,5.97210235 Z" id="Fill-69" fill="#D8232A"></path>
                    <path d="M0.710777455,5.97210235 L0.706670182,1.03488742 L6.63921491,0.686071309 L6.88647273,8.49123925 C3.66719236,6.35514807 3.57929673,7.30053753 0.710777455,5.97210235 Z" id="Stroke-70" stroke="#1A1919" stroke-width="1.087"></path>
                </g>
                <path d="M44.5491229,18.5065935 C44.4374051,19.4617628 44.1342884,24.0379368 47.8505487,28.5122369 C54.7253018,36.7892845 45.4174004,45.6629056 34.8222796,43.5129595 C34.8222796,43.5129595 30.5696095,44.3687 25.8922473,44.3687 C21.2115993,44.3687 16.9342855,43.5129595 16.9342855,43.5129595 C6.33834327,45.6629056 -3.16095709,36.7892845 3.713796,28.5122369 C7.42923491,24.0379368 7.12529673,19.4617628 7.01275745,18.5065935" id="Stroke-72" stroke="#1A1919" stroke-width="1.087"></path>
                <g id="Group-75">
                    <path d="M25.7361709,0.343706073 C25.2342622,0.343706073 24.1959436,0.670517427 24.1959436,0.670517427 C24.1959436,0.670517427 9.87388364,5.61017733 1.97724109,13.4454999 C-0.250543636,15.6557553 0.713844,18.5065935 3.52650436,18.5065935 C5.72060945,18.5065935 25.7369924,18.5065935 25.7369924,18.5065935 C25.7369924,18.5065935 45.7509109,18.5065935 47.945016,18.5065935 C50.7346756,18.5065935 51.7237069,15.6582002 49.4942793,13.4454999 C41.5992796,5.61017733 27.2763982,0.670517427 27.2763982,0.670517427 C27.2763982,0.670517427 26.2380796,0.343706073 25.7361709,0.343706073 Z" id="Fill-73" fill="#E7792B"></path>
                    <path d="M25.7361709,0.343706073 C25.2342622,0.343706073 24.1959436,0.670517427 24.1959436,0.670517427 C24.1959436,0.670517427 9.87388364,5.61017733 1.97724109,13.4454999 C-0.250543636,15.6557553 0.713844,18.5065935 3.52650436,18.5065935 C5.72060945,18.5065935 25.7369924,18.5065935 25.7369924,18.5065935 C25.7369924,18.5065935 45.7509109,18.5065935 47.945016,18.5065935 C50.7346756,18.5065935 51.7237069,15.6582002 49.4942793,13.4454999 C41.5992796,5.61017733 27.2763982,0.670517427 27.2763982,0.670517427 C27.2763982,0.670517427 26.2380796,0.343706073 25.7361709,0.343706073 Z" id="Stroke-74" stroke="#1A1919" stroke-width="1.087"></path>
                </g>
                <g id="Group-78" transform="translate(13.909091, 21.272727)">
                    <path d="M14.3891967,1.26562623 C15.6049495,1.91924894 16.6900909,2.88827313 17.3948989,3.90538178 C18.4430749,5.41800491 20.5566775,9.21423256 19.5224662,14.0878782 C19.5224662,14.0878782 20.8154356,15.357634 23.1664385,17.689323 C24.5275887,19.040578 22.3737349,21.1367346 21.3986684,22.4594648 L18.7872644,22.4594648 C18.7872644,22.4594648 19.7360444,21.2320885 19.1109175,20.0886563 C18.6722607,19.2842602 17.1279262,19.0291681 17.1279262,19.0291681 C17.1279262,19.0291681 17.8532705,17.4016312 16.6777691,17.0112506 C16.6777691,17.0112506 18.9367691,11.147391 16.43544,5.81572047 C15.6337004,4.10749953 14.3653745,2.49055756 12.3478822,2.18412098 C11.8640455,2.14418643 11.3744585,2.20612574 10.8750142,2.37890381 C9.07356436,3.00563182 8.15928545,4.29902239 7.33372364,6.04310294 C4.878396,11.2321501 7.26061418,17.0112506 7.26061418,17.0112506 C6.08511273,17.4016312 6.81045709,19.0291681 6.81045709,19.0291681 C6.81045709,19.0291681 5.26612255,19.2842602 4.82664436,20.0886563 C4.20151745,21.2320885 5.15029745,22.4594648 5.15029745,22.4594648 L2.53889345,22.4594648 C1.88172982,21.5670498 -0.240087273,19.0642127 0.450756,17.4766104 C1.30424727,15.9411675 4.41591709,14.0878782 4.41591709,14.0878782 C3.46549418,9.61194813 5.17083382,6.04473292 6.26747564,4.32102715 C7.11193091,2.99340695 8.59054909,1.76277068 10.1890996,1.07654834 C11.8205084,0.377286136 12.8144684,0.418850673 14.3891967,1.26562623 Z" id="Fill-76" fill="#008AC4"></path>
                    <path d="M14.3891967,1.26562623 C15.6049495,1.91924894 16.6900909,2.88827313 17.3948989,3.90538178 C18.4430749,5.41800491 20.5566775,9.21423256 19.5224662,14.0878782 C19.5224662,14.0878782 20.8154356,15.357634 23.1664385,17.689323 C24.5275887,19.040578 22.3737349,21.1367346 21.3986684,22.4594648 L18.7872644,22.4594648 C18.7872644,22.4594648 19.7360444,21.2320885 19.1109175,20.0886563 C18.6722607,19.2842602 17.1279262,19.0291681 17.1279262,19.0291681 C17.1279262,19.0291681 17.8532705,17.4016312 16.6777691,17.0112506 C16.6777691,17.0112506 18.9367691,11.147391 16.43544,5.81572047 C15.6337004,4.10749953 14.3653745,2.49055756 12.3478822,2.18412098 C11.8640455,2.14418643 11.3744585,2.20612574 10.8750142,2.37890381 C9.07356436,3.00563182 8.15928545,4.29902239 7.33372364,6.04310294 C4.878396,11.2321501 7.26061418,17.0112506 7.26061418,17.0112506 C6.08511273,17.4016312 6.81045709,19.0291681 6.81045709,19.0291681 C6.81045709,19.0291681 5.26612255,19.2842602 4.82664436,20.0886563 C4.20151745,21.2320885 5.15029745,22.4594648 5.15029745,22.4594648 L2.53889345,22.4594648 C1.88172982,21.5670498 -0.240087273,19.0642127 0.450756,17.4766104 C1.30424727,15.9411675 4.41591709,14.0878782 4.41591709,14.0878782 C3.46549418,9.61194813 5.17083382,6.04473292 6.26747564,4.32102715 C7.11193091,2.99340695 8.59054909,1.76277068 10.1890996,1.07654834 C11.8205084,0.377286136 12.8144684,0.418850673 14.3891967,1.26562623 Z" id="Stroke-77" stroke="#1A1919" stroke-width="0.426"></path>
                </g>
            </g>
        </g>
    </g>
</svg>