<?xml version="1.0" encoding="UTF-8"?>
<svg width="57px" height="58px" viewBox="0 0 57 58" version="1.1" xmlns="http://www.w3.org/2000/svg" xmlns:xlink="http://www.w3.org/1999/xlink">
    <!-- Generator: Sketch 53.2 (72643) - https://sketchapp.com -->
    <title>1.3.1</title>
    <desc>Created with Sketch.</desc>
    <g id="Page-2" stroke="none" stroke-width="1" fill="none" fill-rule="evenodd">
        <g id="1.3.1" transform="translate(-9.000000, -10.000000)">
            <path d="M15.0353111,78 C6.76586784,78 -7.10542736e-15,71.056083 -7.10542736e-15,62.5690228 L-7.10542736e-15,15.4309772 C-7.10542736e-15,6.94391699 6.76586784,0 15.0353111,0 L60.9646889,0 C69.2341322,0 76,6.94391699 76,15.4309772 L76,62.5690228 C76,71.056083 69.2341322,78 60.9646889,78 L15.0353111,78 Z" id="Fill-1-Copy-39"></path>
            <path d="M46.4998746,53 C48.9843189,53.0027574 50.9977439,55.0161825 51,57.5001253 C51,59.9855722 48.9855722,62 46.4998746,62 C44.0149291,62 42,59.9855722 42,57.5001253 C42,55.0146784 44.0149291,53 46.4998746,53 Z M46.4998746,59.9998607 C47.8808456,59.9998607 48.9998607,58.8810963 48.9998607,57.5001253 C48.9998607,56.1196557 47.8808456,54.9998886 46.4998746,54.9998886 C45.1196557,54.9998886 43.9998886,56.1196557 43.9998886,57.5001253 C43.9998886,58.8810963 45.1196557,59.9998607 46.4998746,59.9998607 Z M55.4997493,59 C57.9842366,59.0032585 59.9969921,61.0162647 60,63.5002507 C60,65.9849886 57.9849886,68 55.4997493,68 C53.0152621,68 51,65.9849886 51,63.5002507 C51,61.0150114 53.0152621,59 55.4997493,59 Z M55.4997493,65.9997771 C56.8808556,65.9997771 57.9997772,64.8808555 57.9997772,63.5002507 C57.9997772,62.1193951 56.8808556,60.9999722 55.4997493,60.9999722 C54.1193951,60.9999722 52.9999722,62.1193951 52.9999722,63.5002507 C52.9999722,64.8808555 54.1193951,65.9997771 55.4997493,65.9997771 Z M65.4654645,21.8193563 L65.4654645,21.8186217 C65.7826911,21.9763176 65.9884279,22.3041978 65.9995296,22.6685634 C66.0106313,23.0329291 65.8244998,23.3735425 65.5176664,23.5513176 L62.230603,25.45934 L62.230603,34.4208255 C62.6727834,34.4205807 63.0556758,34.7386661 63.151576,35.1857976 L65.0358031,43.9780784 C65.0979256,44.2670243 65.0298979,44.5704175 64.8510888,44.8008396 C64.6720435,45.0322411 64.4013498,45.1669193 64.1153025,45.1661847 L58.4616765,45.1661847 C58.1758654,45.1669193 57.9054079,45.0322411 57.7263626,44.8008396 C57.5473173,44.5704175 57.4790534,44.2670243 57.5414122,43.9780784 L59.4261116,35.1857976 C59.5215394,34.7386661 59.9041955,34.4205807 60.3461398,34.4208255 L60.3461398,26.5534165 L55.6347454,29.2886078 L55.6347454,44.1894007 C55.6347454,44.7293377 55.2128788,45.1661847 54.6922775,45.1661847 C51.2762449,45.1649604 47.9754816,46.4490555 45.404127,48.7809469 L42.1201344,51.7583139 C41.7651145,52.080562 41.2350649,52.080562 40.8802813,51.7583139 L39.8031752,50.781285 L41.0439731,49.3162314 L41.5000898,49.7293261 L44.1628567,47.3158932 C46.8336546,44.8909515 50.2066974,43.4579758 53.7498096,43.2412664 L53.7498096,30.3826843 L41.9599857,37.2294776 C41.6741746,37.3952542 41.3269496,37.3952542 41.0411386,37.2294776 L17.4834579,23.6103312 C17.176152,23.432556 16.9900205,23.0926772 17.0004136,22.7278218 C17.0103344,22.363701 17.2155987,22.035576 17.5328253,21.8771455 L41.0902698,10.0969683 C41.3486807,9.96767724 41.6498453,9.96767724 41.90802,10.0969683 L65.4654645,21.8193563 Z M62.9406427,43.2128615 L61.4771012,36.3743937 L61.100114,36.3743937 L59.6368087,43.2128615 L62.9406427,43.2128615 Z M61.4197027,23.6911381 L63.012686,22.765042 L41.5000898,12.0603312 L19.9865486,22.8189133 L41.5000898,35.2550956 L58.5804888,25.3364156 L44.1269531,23.7619053 C43.6323346,25.0878731 42.2892589,25.8516208 40.9454745,25.5724697 C39.6009816,25.2930737 38.6464671,24.0506063 38.6830793,22.629874 C38.7199277,21.2093866 39.7382181,20.0220149 41.0945215,19.8180387 C42.4515334,19.6140625 43.7532729,20.4515158 44.1782101,21.8024604 L61.3863975,23.680119 C61.3986803,23.6828125 61.408601,23.6911381 61.4197027,23.6911381 Z M42.4420851,22.6984375 C42.4420851,22.1589902 42.020691,21.7218984 41.5000898,21.7218984 C40.9797247,21.7218984 40.5576219,22.1589902 40.5576219,22.6984375 C40.5576219,23.2378848 40.9797247,23.6754664 41.5000898,23.6754664 C42.020691,23.6754664 42.4420851,23.2378848 42.4420851,22.6984375 Z M56.4997493,49 C58.984375,49.0032586 60.9974933,51.0160702 61,53.4998746 C61,55.9851831 58.985127,58 56.4997493,58 C54.0151237,58 52,55.9851831 52,53.4998746 C52,51.0145663 54.0151237,49 56.4997493,49 Z M56.4997493,55.9999721 C57.8806818,55.9999721 59.0001671,54.8810194 59.0001671,53.4998746 C59.0001671,52.119482 57.8806818,50.9997772 56.4997493,50.9997772 C55.1195688,50.9997772 53.9998329,52.119482 53.9998329,53.4998746 C53.9998329,54.8810194 55.1195688,55.9999721 56.4997493,55.9999721 Z M39.0876611,60.9857157 L41.112822,62.9587647 C41.9789407,63.8039507 42.2382898,65.074101 41.7692232,66.1768268 C41.3004,67.2802639 40.195612,68 38.9706378,68 L12.0292349,68 C10.8042607,68 9.69947271,67.2802639 9.23089269,66.1768268 C8.76182612,65.074101 9.02068858,63.8039507 9.88705069,62.9587647 L11.9117249,60.9857157 L11.9117249,52.8630141 C11.9202402,47.440212 15.3158637,42.56901 20.4845977,40.5641834 L17.8470714,35.6173321 C17.6169174,35.1840676 17.7631358,34.651202 18.1837873,34.3877336 L19.1545215,33.7808787 C20.6488197,32.8553005 22.5272756,32.7452651 24.1242429,33.4896642 C24.9957141,33.8928113 26.0063482,33.8928113 26.8773328,33.4896642 C28.4747867,32.7469251 30.352756,32.8567234 31.8475408,33.7808787 L32.8177884,34.3877336 C33.2386832,34.651202 33.3846583,35.1840676 33.1547476,35.6173321 L30.5145451,40.5641834 C35.684009,42.56901 39.0796325,47.440212 39.0876611,52.8630141 L39.0876611,60.9857157 Z M19.9761179,35.5115652 L22.365,39.9881575 C24.424465,39.4948952 26.5754077,39.4948952 28.6353593,39.9881575 L31.0235115,35.5115652 L30.7984666,35.370701 C29.870795,34.7987064 28.7078602,34.7306457 27.7176626,35.1916562 C26.3143556,35.8428572 24.6850305,35.8428572 23.2824533,35.1916562 C22.2922557,34.7306457 21.1288344,34.7987064 20.2014061,35.370701 L19.9761179,35.5115652 Z M38.9706378,66.1075803 C39.4107526,66.1078175 39.8075615,65.849329 39.976406,65.4528221 C40.1450073,65.0565522 40.0518265,64.6002847 39.740413,64.2967387 L37.4315739,62.0462295 C37.2488618,61.869082 37.1469225,61.6283794 37.1464359,61.3772426 L37.1464359,52.8630141 C37.1464359,46.5931289 31.931963,41.5103933 25.4995714,41.5103933 C19.0676663,41.5103933 13.8531934,46.5931289 13.8531934,52.8630141 L13.8531934,61.3772426 C13.8531934,61.6283794 13.7510109,61.869082 13.5682987,62.0462295 L11.2597029,64.2967387 C10.9482894,64.6002847 10.8551087,65.0565522 11.0234666,65.4528221 C11.1923111,65.849329 11.58912,66.1078175 12.0292349,66.1075803 L38.9706378,66.1075803 Z M26.0000313,52.0002149 C27.6574338,52.0002149 29,53.3432884 29,55.000197 C29,56.6566042 27.6574338,57.9999284 26.0000313,57.9999284 L26.0000313,60 L24.0002194,60 L24.0002194,57.9999284 L21.999906,57.9999284 L21.999906,56.0003581 L26.0000313,56.0003581 C26.5524988,56.0003581 27.000188,55.5524163 27.000188,55.000197 C27.000188,54.447727 26.5524988,54.0000358 26.0000313,54.0000358 L24.0002194,54.0000358 C22.3433182,54.0000358 21,52.6564609 21,51.0000537 C21,49.3431451 22.3433182,48.0000716 24.0002194,48.0000716 L24.0002194,46 L26.0000313,46 L26.0000313,48.0000716 L28.0003447,48.0000716 L28.0003447,49.9998926 L24.0002194,49.9998926 C23.4477518,49.9998926 23.0000627,50.4478344 23.0000627,51.0000537 C23.0000627,51.552273 23.4477518,52.0002149 24.0002194,52.0002149 L26.0000313,52.0002149 Z" id="Combined-Shape" fill="#75A7FF" fill-rule="nonzero"></path>
        </g>
    </g>
</svg>