<?xml version="1.0" encoding="UTF-8"?>
<svg width="58px" height="44px" viewBox="0 0 58 44" version="1.1" xmlns="http://www.w3.org/2000/svg" xmlns:xlink="http://www.w3.org/1999/xlink">
    <!-- Generator: Sketch 53.2 (72643) - https://sketchapp.com -->
    <title>3.1.1</title>
    <desc>Created with Sketch.</desc>
    <g id="Page-2" stroke="none" stroke-width="1" fill="none" fill-rule="evenodd">
        <g id="3.1.1" transform="translate(-9.000000, -17.000000)">
            <g id="Group-19" transform="translate(0.000000, 0.000000)">
                <path d="M15.0353111,78 C6.76586784,78 4.97379915e-14,71.056083 4.97379915e-14,62.5690228 L4.97379915e-14,15.4309772 C4.97379915e-14,6.94391699 6.76586784,0 15.0353111,0 L60.9646889,0 C69.2341322,0 76,6.94391699 76,15.4309772 L76,62.5690228 C76,71.056083 69.2341322,78 60.9646889,78 L15.0353111,78 Z" id="Fill-1-Copy-52"></path>
                <g id="Group-18" transform="translate(9.000000, 17.000000)" fill="#75A7FF" fill-rule="nonzero">
                    <path d="M55.7816239,16.3480663 L54.5175214,15.0353591 L50.0807692,3.30607735 C49.3247863,1.32486188 47.391453,0.0121546961 45.2350427,0 L13.5457265,0 C11.3893162,0 9.45598291,1.32486188 8.7,3.30607735 L4.32521368,14.8895028 L2.5034188,16.5425414 C0.917094017,17.8674033 0,19.8121547 0,21.8541436 L0,38.9436464 C0.0123931624,41.7392265 2.32991453,44 5.18034188,44 L8.45213675,44 C11.3025641,44 13.6200855,41.7392265 13.6324786,38.9436464 L13.6324786,36.4640884 L44.3675214,36.4640884 L44.3675214,38.9436464 C44.3799145,41.7392265 46.6974359,44 49.5478632,44 L52.8196581,44 C55.6700855,44 57.9876068,41.7392265 58,38.9436464 L58,21.4044199 C57.9876068,19.4961326 57.1944444,17.6729282 55.7816239,16.3480663 Z M11.0299145,4.13259669 C11.4264957,3.09944751 12.4303419,2.43093923 13.5457265,2.43093923 L45.2474359,2.43093923 C46.3628205,2.43093923 47.3666667,3.11160221 47.7632479,4.13259669 L51.6299145,14.3425414 L48.7423077,14.3425414 C48.0606838,9.78453039 43.7354701,6.63646409 39.0880342,7.31712707 C35.3824786,7.8519337 32.4700855,10.7082873 31.9247863,14.3425414 L7.16324786,14.3425414 L11.0299145,4.13259669 Z M46.2141026,14.3425414 L34.4282051,14.3425414 C35.1098291,11.1458564 38.307265,9.1038674 41.5666667,9.77237569 C43.8965812,10.2585635 45.7183761,12.0453039 46.2141026,14.3425414 Z M11.1538462,38.9436464 C11.141453,40.4022099 9.93931624,41.5690608 8.45213675,41.5690608 L5.18034188,41.5690608 C3.69316239,41.5690608 2.49102564,40.4022099 2.47863248,38.9436464 L2.47863248,35.759116 C3.22222222,36.2331492 4.20128205,36.4640884 5.18034188,36.4640884 L11.1538462,36.4640884 L11.1538462,38.9436464 Z M55.5213675,38.9436464 C55.5089744,40.4022099 54.3068376,41.5690608 52.8196581,41.5690608 L49.5478632,41.5690608 C48.0606838,41.5690608 46.858547,40.3900552 46.8461538,38.9436464 L46.8461538,36.4640884 L52.8196581,36.4640884 C53.7987179,36.4640884 54.7777778,36.2331492 55.5213675,35.759116 L55.5213675,38.9436464 Z M52.8196581,34.0331492 L5.18034188,34.0331492 C3.70555556,34.0453039 2.49102564,32.8906077 2.47863248,31.4320442 L2.47863248,21.8541436 C2.47863248,20.5171271 3.08589744,19.240884 4.12692308,18.3779006 C4.13931624,18.3657459 4.16410256,18.3414365 4.17649573,18.3292818 L5.86196581,16.7734807 L52.7948718,16.7734807 L53.9846154,18.0254144 C53.9970085,18.0497238 54.034188,18.0618785 54.0465812,18.0861878 C54.9760684,18.9491713 55.5089744,20.1524862 55.5089744,21.4044199 L55.5089744,31.4320442 L55.5213675,31.4320442 C55.5089744,32.878453 54.2944444,34.0453039 52.8196581,34.0331492 Z" id="Shape"></path>
                    <path d="M15.8421053,21 L7.15789474,21 C6.52105263,21 6,21.5625 6,22.25 L6,28.75 C6,29.4375 6.52105263,30 7.15789474,30 L15.8421053,30 C16.4789474,30 17,29.4375 17,28.75 L17,22.25 C17,21.5625 16.4789474,21 15.8421053,21 Z M14.6842105,27.5 L8.31578947,27.5 L8.31578947,23.5 L14.6842105,23.5 L14.6842105,27.5 Z" id="Shape"></path>
                    <path d="M50.8421053,21 L42.1578947,21 C41.5210526,21 41,21.5625 41,22.25 L41,28.75 C41,29.4375 41.5210526,30 42.1578947,30 L50.8421053,30 C51.4789474,30 52,29.4375 52,28.75 L52,22.25 C52,21.5625 51.4789474,21 50.8421053,21 Z M49.6842105,27.5 L43.3157895,27.5 L43.3157895,23.5 L49.6842105,23.5 L49.6842105,27.5 Z" id="Shape"></path>
                    <path d="M35.7135506,27 L23.2864494,27 C22.5789022,27 22,27.45 22,28 C22,28.55 22.5789022,29 23.2864494,29 L35.7135506,29 C36.4210978,29 37,28.55 37,28 C37,27.45 36.4210978,27 35.7135506,27 Z" id="Path"></path>
                    <path d="M35.7135506,23 L23.2864494,23 C22.5789022,23 22,23.45 22,24 C22,24.55 22.5789022,25 23.2864494,25 L35.7135506,25 C36.4210978,25 37,24.55 37,24 C37,23.45 36.4210978,23 35.7135506,23 Z" id="Path"></path>
                </g>
            </g>
        </g>
    </g>
</svg>