<?xml version="1.0" encoding="UTF-8"?>
<svg width="55px" height="64px" viewBox="0 0 55 64" version="1.1" xmlns="http://www.w3.org/2000/svg" xmlns:xlink="http://www.w3.org/1999/xlink">
    <!-- Generator: Sketch 53.2 (72643) - https://sketchapp.com -->
    <title>2.1.4</title>
    <desc>Created with Sketch.</desc>
    <g id="Page-2" stroke="none" stroke-width="1" fill="none" fill-rule="evenodd">
        <g id="2.1.4" transform="translate(-11.000000, -7.000000)">
            <path d="M15.0353111,78 C6.76586784,78 -7.10542736e-15,71.056083 -7.10542736e-15,62.5690228 L-7.10542736e-15,15.4309772 C-7.10542736e-15,6.94391699 6.76586784,0 15.0353111,0 L60.9646889,0 C69.2341322,0 76,6.94391699 76,15.4309772 L76,62.5690228 C76,71.056083 69.2341322,78 60.9646889,78 L15.0353111,78 Z" id="Fill-1-Copy-45"></path>
            <g id="Group-11" transform="translate(11.000000, 8.000000)" fill="#75A7FF" fill-rule="nonzero">
                <path d="M24.7072528,45.7075601 C25.0975824,45.3164681 25.0975824,44.683532 24.7072528,44.29244 C24.3165324,43.90252 23.6835654,43.90252 23.2924543,44.29244 C22.9025152,44.683532 22.9025152,45.3164681 23.2924543,45.7075601 C23.6835654,46.09748 24.3165324,46.09748 24.7072528,45.7075601 Z" id="Path"></path>
                <path d="M12.3736382,62.6843306 C12.7900279,63.1014423 13.4679205,63.1060305 13.8897669,62.6930899 L19.0979963,57.5943169 C19.9828245,56.7150455 20.2518827,55.4132401 19.8627766,54.281616 L20.9830833,53.2079707 C21.5862607,52.6290197 22.3804233,52.3099293 23.2199187,52.3099293 L37.5009947,52.3099293 C40.0345917,52.3099293 42.4292524,51.3430644 44.2446612,49.5874414 C44.3193762,49.5152811 43.677582,50.2664992 53.987425,38.0217691 C55.5165659,36.2240179 55.2878033,33.5244712 53.4770118,32.0032649 C51.6775534,30.4962404 48.9819337,30.7127214 47.4485953,32.4796064 L41.1095656,38.9540137 C40.3091067,37.9750526 39.0884804,37.3648182 37.7696332,37.3648182 L25.7904536,37.3648182 C24.0858582,36.6561455 22.2771653,36.2974296 20.4109671,36.2974296 C15.2379965,36.2974296 10.7210915,38.6716291 8.29704855,43.1230448 C7.27580243,42.9307563 6.19872978,43.2377505 5.42387547,44.0077387 L0.313447327,49.1010893 C-0.103781939,49.5169496 -0.10462138,50.1897506 0.311768336,50.6068623 L12.3736382,62.6843306 Z M20.4105473,38.432207 C22.0559583,38.432207 23.6468021,38.7613081 25.1398446,39.4103338 C25.2758429,39.4695638 25.4223349,39.5000129 25.5705058,39.5000129 L37.7696332,39.5000129 C38.934433,39.5000129 39.9183216,40.4439366 39.9183216,41.6347903 C39.9183216,42.8122966 38.9545809,43.769985 37.7696332,43.769985 L29.0048814,43.769985 C28.411778,43.769985 27.9307472,44.247995 27.9307472,44.8373738 C27.9307472,45.4271697 28.411778,45.9047625 29.0048814,45.9047625 L37.7696332,45.9047625 C40.1391089,45.9047625 42.0665904,43.9893858 42.0665904,41.6347903 C42.0665904,41.4470901 42.0531584,41.2610583 42.028813,41.076695 C48.1609071,34.8129291 49.0255875,33.9328235 49.0625253,33.8890268 C49.8281451,32.9909854 51.1872881,32.8771139 52.0914247,33.6345887 C52.9964006,34.3949832 53.1109918,35.7447565 52.3432733,36.6478034 L42.7079649,48.0941816 C41.3009706,49.4364469 39.4536609,50.1751517 37.5009947,50.1751517 L23.2199187,50.1751517 C21.8204798,50.1751517 20.4957561,50.7069691 19.4908802,51.6717484 L18.5779289,52.5472658 L10.1619875,44.184594 C12.1289253,40.5177653 15.8197667,38.432207 20.4105473,38.432207 L20.4105473,38.432207 Z M6.94420169,45.5164315 C7.29846875,45.1643893 7.84246177,45.1009883 8.27438212,45.3662713 C8.46033038,45.4788914 7.9264113,44.9958762 17.5789294,54.5744285 C18.0083313,55.0011337 17.9852451,55.6810257 17.5848059,56.0789503 L13.1447147,60.4256709 L2.58931929,49.8564784 L6.94420169,45.5164315 Z" id="Shape"></path>
                <path d="M30.3503933,9.92885896 C32.7054983,9.92669346 34.6145278,8.01896325 34.6188585,5.66429147 L34.6188585,4.26846521 C34.6188585,1.91119487 32.7080967,3.90798505e-14 30.3503933,3.90798505e-14 C27.993123,3.90798505e-14 26.0819281,1.91119487 26.0819281,4.26846521 L26.0819281,5.66429147 C26.0862589,8.01896325 27.9952884,9.92669346 30.3503933,9.92885896 Z M27.6340973,4.26846521 C27.6388612,2.76999832 28.8540918,1.55693311 30.3529919,1.55563383 L30.3534249,1.55563383 C31.8510256,1.55736616 33.064957,2.77086454 33.0666894,4.26846521 L33.0666894,5.66429147 C33.0666894,7.16405763 31.8505925,8.38058751 30.3503933,8.38058751 C28.8501941,8.38058751 27.6340973,7.16405763 27.6340973,5.66429147 L27.6340973,4.26846521 Z" id="Shape" stroke="#75A7FF" stroke-width="0.5"></path>
                <path d="M38.1785904,38 L36.627098,38 C37.1484044,37.9275248 37.6701313,37.9292522 38.1785904,38 Z M35.6347074,38 L34.0828783,38 L34.4665417,25.3374213 L26.5345475,25.3374213 L26.9436573,38 L25.3666545,38 L25.0489886,27.8688902 C24.6547006,28.09831 24.2080734,28.2230516 23.7518506,28.2300302 L23.7217557,28.240498 L23.7204472,28.240498 C22.2218037,28.240498 21.0363225,27.0000608 21.0363225,25.5014172 L21.0363225,15.8540082 C21.0363225,15.719235 21.0001212,15.5905679 21.0001212,15.4557947 C20.9913981,14.2825261 21.453727,13.155054 22.2837383,12.3259151 C23.1137496,11.4967762 24.2416576,11.0353195 25.4149264,11.0453512 L27.3785158,11.0453512 C27.5808937,11.0414258 27.7762931,11.1168813 27.9232789,11.2560162 L30.5009807,13.75172 L33.1829246,11.2420591 C33.3294742,11.1103389 33.5209481,11.0396812 33.7176561,11.0449151 L35.5682803,11.0449151 C35.7165743,11.0449151 35.8849319,11.0379365 36.03279,11.0527659 C38.4521659,11.2917812 40.2290792,13.4324514 40.017978,15.8540082 L40.017978,25.4988002 C40.0075102,27.0048586 38.7840832,28.2204346 37.2784611,28.2208709 C36.8152598,28.221307 36.3594733,28.1057248 35.9521005,27.8850281 L35.6347074,38 Z M31.3087479,38 L29.7455527,38 L29.7455527,29.102785 C29.7455527,28.6714235 30.0957887,28.3211875 30.5271503,28.3211875 C30.9589481,28.3211875 31.3087479,28.6714235 31.3087479,29.102785 L31.3087479,38 Z M24.8326536,25.4460249 L24.8326536,18.2707673 C24.8326536,17.8394056 25.1824534,17.4891697 25.6142512,17.4891697 C26.0456128,17.4891697 26.3958488,17.8394056 26.3958488,18.2707673 L26.3958488,22.6223293 C26.3958488,22.6563496 26.4281245,22.6676898 26.429433,22.7034548 L26.4856977,23.7742261 L34.5153915,23.7742261 L34.546795,23.1055938 L34.546795,18.2707673 C34.546795,17.8394056 34.897031,17.4891697 35.3283926,17.4891697 C35.7601904,17.4891697 36.1099901,17.8394056 36.1099901,18.2707673 L36.1099901,22.6170953 C36.1099901,22.6685621 36.123075,22.7213373 36.1213302,22.7754212 L36.1099901,23.1265295 L36.1099901,25.4988002 C36.1099901,26.1464969 36.635126,26.6711966 37.2823865,26.6711966 C37.9300831,26.6711966 38.4547829,26.1464969 38.4547829,25.4988002 L38.4547829,15.8164985 C38.4547829,15.790329 38.4377726,15.771138 38.4403897,15.7449684 C38.5895561,14.1665076 37.4346061,12.7646915 35.8570177,12.6085464 C35.7610626,12.5989508 35.6642352,12.6085464 35.5682803,12.6085464 L34.0273291,12.6085464 L31.0261166,15.4108703 C31.0200103,15.4165404 31.0139041,15.4065087 31.0082341,15.4117426 C30.9986385,15.4200297 30.9894792,15.4278805 30.9790114,15.4366037 C30.9685435,15.4448908 30.9572033,15.4531777 30.9467355,15.4605925 C30.9362677,15.4680072 30.9271084,15.4749857 30.915332,15.4824004 C30.9035558,15.4898152 30.8917795,15.4967937 30.8813117,15.5033361 C30.8704077,15.5098785 30.8612484,15.5146762 30.8490358,15.5207824 C30.8368235,15.5273248 30.8228664,15.533431 30.8123985,15.538665 C30.8019307,15.5434627 30.7910267,15.5482605 30.7796866,15.5526221 C30.767038,15.5574198 30.7543893,15.5622176 30.7413045,15.5665792 C30.7299643,15.5700685 30.7190604,15.5735578 30.7077203,15.5770471 C30.6946355,15.5805363 30.6815506,15.5840256 30.6680298,15.5870786 C30.6571257,15.5896957 30.6457856,15.5923126 30.6348817,15.5940572 C30.6213607,15.5966742 30.6078397,15.598855 30.5943188,15.6005996 C30.5825425,15.6019081 30.5712023,15.6032165 30.5598622,15.604525 C30.5467774,15.6053974 30.5336927,15.6067058 30.5201717,15.6067058 C30.5083954,15.6067058 30.4979276,15.607142 30.4848428,15.6067058 C30.471758,15.6067058 30.4573648,15.6062697 30.4455884,15.6053974 C30.433376,15.6049613 30.422472,15.6040889 30.4098234,15.6027804 C30.3967386,15.601472 30.3832177,15.5997272 30.3710052,15.5975465 C30.3592289,15.5958018 30.3478887,15.5940572 30.3352401,15.5914403 C30.3225916,15.5888233 30.3095067,15.5857701 30.2977304,15.5827171 C30.2859542,15.579664 30.2750502,15.5766108 30.2624015,15.5731215 C30.250189,15.5691961 30.2362319,15.5643984 30.2248919,15.560473 C30.2139878,15.5565475 30.2039562,15.5530583 30.1913076,15.5473881 C30.179095,15.5421543 30.1664464,15.5369203 30.154234,15.5308141 C30.1437662,15.5260163 30.1332983,15.5207824 30.1232666,15.5155485 C30.110618,15.50857 30.0979695,15.5015914 30.085757,15.4941767 C30.0761615,15.4885067 30.066566,15.4828366 30.0574067,15.4767304 C30.0451942,15.4684433 30.0329817,15.4605925 30.0212054,15.4514332 C30.0120461,15.4448908 30.0033229,15.4396568 29.9945997,15.4326783 C29.9832595,15.4230827 29.9719194,15.4165404 29.9610155,15.4065087 C29.9562177,15.4017109 29.9509838,15.4052002 29.946186,15.4008386 L27.0609918,12.6085464 L25.4149264,12.6085464 C24.6581899,12.6024401 23.9302399,12.8990285 23.3928916,13.4320153 C22.8555432,13.9654382 22.553721,14.6912074 22.5545932,15.4479439 C22.5545932,15.5447712 22.5685503,15.6420348 22.5781459,15.738426 C22.5807628,15.7641594 22.5995177,15.790329 22.5995177,15.8164985 L22.5995177,25.5005449 C22.5938476,25.8041119 22.7098659,26.0972109 22.9218395,26.3144183 C23.1338128,26.5316256 23.4238588,26.6550587 23.7274257,26.6563672 C23.7282981,26.6563672 23.7104156,26.6563672 23.7117241,26.6563672 C24.3419743,26.6493886 24.8326536,26.1063703 24.8326536,25.4460249 Z" id="Combined-Shape" stroke="#75A7FF" stroke-width="0.5"></path>
            </g>
        </g>
    </g>
</svg>