<?xml version="1.0" encoding="UTF-8"?>
<svg width="76px" height="78px" viewBox="0 0 76 78" version="1.1" xmlns="http://www.w3.org/2000/svg" xmlns:xlink="http://www.w3.org/1999/xlink">
    <title>1.1.13</title>
    <g id="Page-2" stroke="none" stroke-width="1" fill="none" fill-rule="evenodd">
        <g id="1.1.13">
            <path d="M15.0353111,78 C6.76586784,78 0,71.056083 0,62.5690228 L0,15.4309772 C0,6.94391699 6.76586784,0 15.0353111,0 L60.9646889,0 C69.2341322,0 76,6.94391699 76,15.4309772 L76,62.5690228 C76,71.056083 69.2341322,78 60.9646889,78 L15.0353111,78 Z" id="Fill-1-Copy-20" fill="#FFFFFF"></path>
            <g id="Group-44" transform="translate(18.000000, 14.000000)" fill="#0994DC" fill-rule="nonzero">
                <polyline id="path34-1" points="39.42357 19.99746 19.80314 -1.42108547e-14 0.1731 19.99746 4.73274 24.64286 19.80314 9.30073 30.29838 19.99746 19.80314 30.68327 15.32705 26.12854 10.75631 30.771 19.80314 39.98461 39.42357 19.99746"></polyline>
                <polyline id="path32-7-path" points="1.42108547e-14 30.52829 19.62043 50.52516 39.25269 30.52829 34.68566 25.87996 19.62043 41.21765 9.12593 30.52829 19.62043 19.84188 24.09874 24.39186 28.65912 19.74209 19.62043 10.54001 4.26325641e-14 30.52829"></polyline>
            </g>
        </g>
    </g>
</svg>