<?xml version="1.0" encoding="UTF-8"?>
<svg width="76px" height="78px" viewBox="0 0 76 78" version="1.1" xmlns="http://www.w3.org/2000/svg" xmlns:xlink="http://www.w3.org/1999/xlink">
    <title>4.1.2</title>
    <defs>
        <polygon id="path-1" points="2.80373832e-05 0.158864118 59.9742056 0.158864118 59.9742056 12.6439429 2.80373832e-05 12.6439429"></polygon>
        <polygon id="path-3" points="0.137046729 0.27760479 51.6966729 0.27760479 51.6966729 28.8829521 0.137046729 28.8829521"></polygon>
        <path d="M0.056635514,17.3623814 L34.4136449,17.3623814 L34.4136449,17.3618194 C34.3802804,7.88195302 26.7011215,0.208484569 17.2326168,0.208484569 L17.2326168,0.208484569 C7.76831776,0.208484569 0.0885981308,7.88251497 0.056635514,17.3623814" id="path-5"></path>
        <linearGradient x1="19.8660024%" y1="72.4046307%" x2="80.1319993%" y2="42.2501176%" id="linearGradient-7">
            <stop stop-color="#E2271B" offset="0%"></stop>
            <stop stop-color="#F19324" offset="100%"></stop>
        </linearGradient>
    </defs>
    <g id="Page-2" stroke="none" stroke-width="1" fill="none" fill-rule="evenodd">
        <g id="4.1.2">
            <path d="M15.0353111,78 C6.76586784,78 0,71.056083 0,62.5690228 L0,15.4309772 C0,6.94391699 6.76586784,0 15.0353111,0 L60.9646889,0 C69.2341322,0 76,6.94391699 76,15.4309772 L76,62.5690228 C76,71.056083 69.2341322,78 60.9646889,78 L15.0353111,78 Z" id="Fill-1-Copy-15" fill="#FFFFFF"></path>
            <g id="Group-36" transform="translate(8.000000, 15.000000)">
                <g id="Group-11">
                    <g id="Group-7" transform="translate(0.000000, 0.003372)">
                        <g id="Group-3" transform="translate(0.000000, 33.998158)">
                            <mask id="mask-2" fill="white">
                                <use xlink:href="#path-1"></use>
                            </mask>
                            <g id="Clip-2"></g>
                            <path d="M23.5564766,0.182466145 C21.4861963,0.0810336251 19.8381589,1.37914509 19.8381589,3.82111193 L19.8381589,8.66655182 C19.8381589,8.9095965 20.0649813,8.86745002 20.1232991,8.86745002 L20.9484393,8.86745002 C21.1287196,8.86745002 21.2215234,8.84440995 21.2215234,8.65222202 L21.2215234,3.7879567 C21.2215234,2.24680055 22.1459159,1.45697559 23.6184393,1.49659327 C23.7378785,1.49659327 23.8864766,1.44517457 23.8864766,1.24680516 L23.8864766,0.472433901 C23.8864766,0.25523906 23.7485327,0.177689544 23.5564766,0.182466145 M59.6391869,0.182466145 C57.5719907,0.0810336251 55.9261963,1.37914509 55.9261963,3.82111193 C55.9261963,3.82111193 55.9236729,8.42406909 55.9236729,8.66655182 C55.9236729,8.9095965 56.1521776,8.86745002 56.2116168,8.86745002 L57.0331121,8.86745002 C57.214514,8.86745002 57.3084393,8.84440995 57.3084393,8.65222202 L57.3084393,3.7879567 C57.3084393,2.24680055 58.2286262,1.45697559 59.7036729,1.49659327 C59.8225514,1.49659327 59.9742336,1.44517457 59.9742336,1.24680516 L59.9742336,0.472433901 C59.9742336,0.25523906 59.8295607,0.177689544 59.6391869,0.182466145 M53.3431121,0.376058959 L52.5106822,0.376058959 C52.3298411,0.376058959 52.2350748,0.394041456 52.2350748,0.588758176 L52.2350748,8.57270567 L52.2350748,8.67217135 C52.2350748,8.91381115 52.4661028,8.86745002 52.5252617,8.86745002 L53.3576916,8.86745002 C53.535729,8.86745002 53.6324579,8.84581483 53.6324579,8.65643667 L53.6324579,8.57270567 L53.6324579,0.571899585 C53.6324579,0.326326117 53.4025514,0.376058959 53.3431121,0.376058959 M39.3120841,3.07090465 C39.4329252,3.02229572 39.484514,2.89473238 39.4110561,2.76464026 C38.8051682,1.67978996 37.3225514,1.08440074 35.9010561,1.78515615 C34.209,2.62134224 34.2605888,4.44993736 34.400215,4.8871368 C34.4596542,5.07173837 34.6368505,5.0725813 34.7394673,5.03268263 C34.8440467,4.98913128 39.0017103,3.2054924 39.3120841,3.07090465 M37.1641402,0.165888531 C39.027785,0.165888531 40.7274112,1.26844035 41.2432991,3.40245693 C41.2892804,3.57497651 41.1827383,3.68596223 41.0276916,3.74777706 C41.0215234,3.74918194 36.0468505,5.88797513 35.051243,6.31253063 C34.9191869,6.36563519 34.8701215,6.49263657 34.9674112,6.66347029 C35.3072243,7.24171994 36.362271,7.78681437 37.2493738,7.78681437 C38.2895607,7.78681437 39.1926449,7.26447904 39.7475047,6.36366836 C39.7475047,6.36366836 39.8204019,6.2268328 39.9889065,6.2268328 L40.9155421,6.2268328 C41.1311495,6.2268328 41.1931121,6.42660709 41.1524579,6.52663473 C40.451243,8.14730723 39.0925514,9.05598526 37.2493738,9.05598526 C34.8154486,9.05598526 32.8682523,7.11331368 32.8682523,4.62920037 C32.8682523,1.86888715 34.8154486,0.165888531 37.1641402,0.165888531 M46.4358224,0.158864118 C44.411243,0.158864118 42.8958224,1.56374666 42.8958224,3.70675449 L42.8958224,8.57270567 C42.8958224,8.79523906 42.9261028,8.86801198 43.2014299,8.86801198 L43.9654486,8.86801198 C44.2015234,8.86801198 44.2831121,8.86801198 44.2831121,8.63704929 L44.2831121,3.6575836 C44.2831121,2.3861649 45.1183458,1.46484293 46.4358224,1.46484293 C47.7381589,1.46484293 48.5750748,2.3861649 48.5750748,3.6575836 L48.5750748,8.63704929 C48.5750748,8.82867526 48.6448879,8.86745002 48.8456355,8.86745002 L49.6449813,8.86745002 C49.9430187,8.86745002 49.961243,8.8019825 49.961243,8.55865684 L49.961243,3.70675449 C49.961243,1.56374666 48.4632056,0.158864118 46.4358224,0.158864118 M13.9127383,7.73090005 C15.4943271,7.73090005 16.7781589,6.34737172 16.7781589,4.64830677 C16.7781589,2.91468171 15.4943271,1.49659327 13.9127383,1.49659327 C12.3499346,1.49659327 11.0641402,2.91468171 11.0641402,4.64830677 C11.0641402,6.34737172 12.3499346,7.73090005 13.9127383,7.73090005 M13.9127383,0.158864118 C16.3332056,0.158864118 18.1763832,2.1720608 18.1763832,4.64830677 C18.1763832,7.08521603 16.3332056,9.08239705 13.9127383,9.08239705 C11.5149813,9.08239705 9.65217757,7.08521603 9.65217757,4.64830677 C9.65217757,2.1720608 11.5149813,0.158864118 13.9127383,0.158864118 M4.2636729,7.79580562 C5.82703738,7.79580562 7.10890654,6.40890557 7.10890654,4.62920037 C7.10890654,2.84893321 5.82703738,1.46484293 4.2636729,1.46484293 C2.71460748,1.46484293 1.4007757,2.86410594 1.4007757,4.62920037 C1.4007757,6.39710456 2.70086916,7.79580562 4.2636729,7.79580562 M4.2636729,0.158864118 C6.59806542,0.158864118 8.50713084,2.07259512 8.50713084,4.62920037 C8.50713084,7.17231875 6.63114953,9.08239705 4.28245794,9.08239705 C3.29750467,9.08239705 2.36778505,8.69633533 1.70834579,8.03772639 C1.52161682,7.84919116 1.34974766,7.94303731 1.34974766,8.11836665 L1.34974766,12.2931156 C1.34974766,12.6440553 1.32030841,12.6440553 0.997037383,12.6440553 L0.34488785,12.6440553 C0.0345140187,12.6440553 2.80373832e-05,12.6440553 2.80373832e-05,12.2931156 L2.80373832e-05,4.62920037 C2.80373832e-05,2.12345187 1.85946729,0.158864118 4.2636729,0.158864118 M31.937972,0.376058959 C32.0627383,0.376058959 32.1737664,0.45079871 32.1190935,0.617698756 C31.9096542,1.22741778 32.0484393,0.823373561 29.1905888,8.69942607 C29.1905888,8.69942607 29.130028,8.86801198 29.014514,8.86801198 L28.3988131,8.86801198 L28.3623645,8.86801198 L27.7449813,8.86801198 C27.6291869,8.86801198 27.5711495,8.69942607 27.5711495,8.69942607 C27.5711495,8.69942607 24.7180654,0.834331644 24.6415234,0.617698756 C24.5843271,0.45079871 24.6970374,0.376058959 24.8260093,0.376058959 L25.9121776,0.376058959 C25.9121776,0.376058959 26.0324579,0.359762322 26.0756355,0.484796868 C26.127785,0.647763243 28.2224579,6.57664855 28.2917103,6.77080332 C28.3048879,6.81800737 28.3343271,6.84217135 28.3623645,6.84694795 C28.370215,6.85200553 28.380028,6.84694795 28.380028,6.84694795 C28.3864766,6.84694795 28.393486,6.85200553 28.3971308,6.84694795 C28.4271308,6.84217135 28.4523645,6.81800737 28.4694673,6.77080332 C28.536757,6.57664855 30.6311495,0.647763243 30.6894673,0.484796868 C30.7281589,0.359762322 30.8470374,0.376058959 30.8470374,0.376058959 L31.937972,0.376058959" id="Fill-1" fill="#56742E" mask="url(#mask-2)"></path>
                        </g>
                        <g id="Group-6" transform="translate(3.925234, 0.000000)">
                            <mask id="mask-4" fill="white">
                                <use xlink:href="#path-3"></use>
                            </mask>
                            <g id="Clip-5"></g>
                            <path d="M51.6966729,28.8829521 C51.6966729,28.6792441 51.5763925,28.5058816 51.4025607,28.4266462 L51.4025607,28.4235555 L51.3927477,28.4190599 C51.3882617,28.4190599 51.3857383,28.418217 51.383215,28.418217 L47.056486,25.7348913 L51.4737757,22.5418743 L51.4751776,22.5418743 L51.4796636,22.5379406 L51.4796636,22.5368167 C51.6108785,22.4471852 51.6966729,22.2943339 51.6966729,22.1229383 C51.6966729,21.8689355 51.5077009,21.6587651 51.2592897,21.6258908 L51.2570467,21.6183045 L45.8113458,21.0661856 L50.5774206,15.2089493 C50.6696636,15.1193178 50.7291028,14.9942833 50.7291028,14.854076 C50.7291028,14.5812478 50.5062056,14.3584334 50.2331215,14.3584334 C50.2213458,14.3584334 50.2123738,14.3604003 50.199757,14.3604003 L50.1958318,14.3530949 L42.6490093,15.5801193 L44.887514,10.5885716 L44.8849907,10.5832331 C44.9065794,10.5256329 44.9208785,10.464099 44.9208785,10.3980696 C44.9208785,10.1151262 44.6929346,9.88416352 44.4066729,9.88416352 C44.3534019,9.88416352 44.2967664,9.89708844 44.2448972,9.91282312 L44.2392897,9.90888945 L39.2393832,12.1603542 L40.4444299,4.72065822 L40.4421869,4.72065822 C40.4469533,4.68413128 40.4522804,4.64929019 40.4522804,4.61276324 C40.4522804,4.32869599 40.2206916,4.09829526 39.9380748,4.09829526 C39.8346168,4.09829526 39.7426542,4.12948365 39.6621869,4.18062137 L39.660785,4.18062137 L39.6557383,4.18539797 C39.6254579,4.2042234 39.5991028,4.22726347 39.5755514,4.25255136 L33.7653645,8.99880654 L33.2200374,3.58747996 L33.2144299,3.58747996 C33.2177944,3.56640673 33.2211589,3.54477153 33.2211589,3.52650806 C33.2211589,3.25424182 33.0041495,3.03676601 32.7316262,3.03676601 C32.540972,3.03676601 32.3716262,3.14943759 32.2962056,3.31240396 L29.1089159,7.74368448 L26.423215,0.66082865 L26.4212523,0.66082865 C26.3735888,0.440824044 26.1806916,0.277576693 25.9468598,0.277576693 C25.7163925,0.277576693 25.5218131,0.440824044 25.4747103,0.66082865 L22.7906916,7.74424643 L19.6050841,3.32083326 L19.6022804,3.32167619 C19.5246168,3.1528093 19.3589159,3.03676601 19.1634953,3.03676601 C18.8923738,3.03676601 18.6728411,3.25424182 18.6728411,3.52650806 C18.6728411,3.55404376 18.6773271,3.58017457 18.6820935,3.60686734 L18.6773271,3.60911515 L18.1291963,8.99880654 L12.249757,4.18905067 C12.1662056,4.13426025 12.0655514,4.09829526 11.9553645,4.09829526 C11.6716262,4.09829526 11.4422804,4.32869599 11.4422804,4.61276324 C11.4422804,4.6551907 11.4476075,4.69733717 11.4579813,4.73639291 L11.4579813,4.7389217 L12.6577009,12.1617591 L7.6673271,9.91675679 L7.66676636,9.91872363 C7.60928972,9.89708844 7.55041121,9.88416352 7.48648598,9.88416352 C7.2055514,9.88416352 6.97424299,10.1151262 6.97424299,10.3980696 C6.97424299,10.4728093 6.99330841,10.5438964 7.01742056,10.6062731 L9.24975701,15.5829291 L1.71358879,14.3584334 L1.7091028,14.3629291 C1.692,14.3604003 1.67770093,14.3584334 1.662,14.3584334 C1.38835514,14.3584334 1.16882243,14.5812478 1.16882243,14.854076 C1.16882243,14.9968121 1.22629907,15.1257803 1.3255514,15.2173786 L6.08770093,21.0661856 L0.642280374,21.6183045 L0.642280374,21.6258908 C0.393869159,21.6528646 0.197327103,21.8650018 0.197327103,22.1229383 C0.197327103,22.3022013 0.290691589,22.4575813 0.429757009,22.544403 L4.84256075,25.7348913 L0.492,28.4047301 C0.468448598,28.4109116 0.446299065,28.4190599 0.422747664,28.4308609 L0.405084112,28.4373234 L0.412934579,28.4373234 C0.249476636,28.5190875 0.137046729,28.6893593 0.137046729,28.8829521 L51.6966729,28.8829521 Z" id="Fill-4" fill="#F19324" mask="url(#mask-4)"></path>
                        </g>
                    </g>
                    <g id="Group-10" transform="translate(12.616822, 11.523409)">
                        <mask id="mask-6" fill="white">
                            <use xlink:href="#path-5"></use>
                        </mask>
                        <g id="Clip-9"></g>
                        <path d="M0.056635514,17.3623814 L34.4136449,17.3623814 L34.4136449,17.3618194 C34.3802804,7.88195302 26.7011215,0.208484569 17.2326168,0.208484569 L17.2326168,0.208484569 C7.76831776,0.208484569 0.0885981308,7.88251497 0.056635514,17.3623814" id="Fill-8" fill="url(#linearGradient-7)" mask="url(#mask-6)"></path>
                    </g>
                </g>
            </g>
        </g>
    </g>
</svg>