<?xml version="1.0" encoding="UTF-8"?>
<svg width="52px" height="52px" viewBox="0 0 52 52" version="1.1" xmlns="http://www.w3.org/2000/svg" xmlns:xlink="http://www.w3.org/1999/xlink">
    <title>dian-hover</title>
    <g id="Page-1" stroke="none" stroke-width="1" fill="none" fill-rule="evenodd">
        <g id="dian-hover">
            <path d="M10.2873181,52 C4.629278,52 0,47.370722 0,41.7126819 L0,10.2873181 C0,4.629278 4.629278,0 10.2873181,0 L41.7126819,0 C47.370722,0 52,4.629278 52,10.2873181 L52,41.7126819 C52,47.370722 47.370722,52 41.7126819,52 L10.2873181,52 Z" id="Fill-1-Copy-5" fill="#FFFFFF"></path>
            <path d="M16.2068252,18.0000979 C12.7584559,18.0007669 10,18.0025693 10,18.0025693 L10.0023288,20.3314902 C10.0023288,20.3314902 21.8069074,20.3158924 27.7104476,20.3495861 C30.3816926,20.4484048 33.0984273,20.5651931 35.6674553,21.3602438 C37.4846284,21.8970126 39.1042013,23.2333009 39.7174971,25.0390094 C40.2899066,26.7414067 40.2671379,28.645843 39.6629291,30.3347633 C39.0564477,32.0169475 37.5412996,33.2589869 35.8331571,33.7575781 C33.205071,34.5369064 30.4338787,34.6380513 27.7081186,34.6807229 C22.7585942,34.6919581 12.8618476,34.6853383 12.8618476,34.6853383 L12.8688357,30.7367979 L10.0089838,30.7367979 L10.0226258,36.9984593 C16.5939769,36.9872241 23.1654475,37.0185444 29.7367995,36.9803652 C32.9918103,36.8837901 36.4510049,36.6951474 39.306238,34.9725386 C41.4414155,33.6878797 42.8181641,31.3251472 42.9589939,28.8681254 C43.0316814,27.2241221 43.0815832,25.5082813 42.4319428,23.9586061 C41.5869574,21.723929 39.6083066,20.0262345 37.3391125,19.2895779 C33.8773984,18.1239527 30.1751889,18.0161003 26.5521998,18.0048702 C23.7935043,18.0003728 19.6551945,17.999699 16.2068252,18.0000979 L16.2068252,18.0000979 Z" id="path8-copy-3" fill="#75A7FF" fill-rule="nonzero"></path>
        </g>
    </g>
</svg>
