<?xml version="1.0" encoding="UTF-8"?>
<svg width="326px" height="298px" viewBox="0 0 326 298" version="1.1" xmlns="http://www.w3.org/2000/svg" xmlns:xlink="http://www.w3.org/1999/xlink">
    <!-- Generator: Sketch 53.2 (72643) - https://sketchapp.com -->
    <title>elaboracion</title>
    <desc>Created with Sketch.</desc>
    <defs>
        <linearGradient x1="50%" y1="100%" x2="50%" y2="0%" id="linearGradient-1">
            <stop stop-color="#808080" stop-opacity="0.25" offset="0%"></stop>
            <stop stop-color="#808080" stop-opacity="0.12" offset="54%"></stop>
            <stop stop-color="#808080" stop-opacity="0.1" offset="100%"></stop>
        </linearGradient>
        <linearGradient x1="49.9972224%" y1="100%" x2="49.9972224%" y2="0%" id="linearGradient-2">
            <stop stop-color="#B3B3B3" stop-opacity="0.25" offset="0%"></stop>
            <stop stop-color="#B3B3B3" stop-opacity="0.1" offset="54%"></stop>
            <stop stop-color="#B3B3B3" stop-opacity="0.05" offset="100%"></stop>
        </linearGradient>
        <linearGradient x1="50.0056123%" y1="100%" x2="50.0056123%" y2="0%" id="linearGradient-3">
            <stop stop-color="#B3B3B3" stop-opacity="0.25" offset="0%"></stop>
            <stop stop-color="#B3B3B3" stop-opacity="0.1" offset="54%"></stop>
            <stop stop-color="#B3B3B3" stop-opacity="0.05" offset="100%"></stop>
        </linearGradient>
    </defs>
    <g id="PAGOS" stroke="none" stroke-width="1" fill="none" fill-rule="evenodd">
        <g id="elaboracion" transform="translate(-34.000000, -65.000000)" fill-rule="nonzero">
            <g id="Group-2" fill="#406094" opacity="0.1">
                <path d="M135.551073,97.6939083 C146.006227,84.3233073 162.417572,81.5990128 177.353767,82.6611738 C224.269045,85.9988564 266.615413,118.464932 303.243817,155.191255 C316.503849,168.487085 329.558418,182.827952 338.172419,201.126012 C355.69368,238.39984 350.487403,290.041527 326.11788,320.751163 C317.825787,331.202284 307.773948,339.211465 297.455545,346.315758 C279.109643,358.941404 259.318674,369.075851 238.493881,371.963482 C223.645316,374.021205 208.626526,372.345677 193.853216,369.485013 C152.613286,361.470598 112.134531,343.748071 78.2067556,313.40888 C63.3200233,300.105671 49.2950294,283.565091 43.1641349,262.029466 C37.0332404,240.493841 40.961913,213.228374 56.1584278,200.485729 C62.4445256,195.214478 69.9569711,192.835797 77.31473,190.597227 C88.1446888,187.309444 99.145313,184.063289 108.919655,177.375552 C119.01403,170.468173 130.965215,157.108752 128.969664,141.819994 C126.827574,125.429447 125.109257,111.022859 135.551073,97.6939083 Z" id="Path" transform="translate(194.456070, 227.665278) rotate(160.000000) translate(-194.456070, -227.665278) "></path>
                <path d="M162.483343,81.553172 C172.941171,68.18424 189.355554,65.4593779 204.294288,66.5204042 C251.217543,69.8545225 293.569243,102.312241 330.201708,139.029826 C343.46321,152.322493 356.519147,166.660028 365.13349,184.954347 C382.655443,222.220556 377.444978,273.853561 353.069251,304.559386 C344.775047,315.009211 334.720945,323.017633 324.400289,330.121341 C306.050383,342.74595 286.255316,352.879886 265.426705,355.768337 C250.575417,357.826645 235.554112,356.152363 220.778406,353.293138 C179.531785,345.282743 139.047089,327.565882 105.115319,297.234141 C90.2268324,283.934201 76.2004406,267.397399 70.0698434,245.865922 C63.9392462,224.334445 67.8703358,197.073486 83.0703123,184.332099 C89.3578421,179.061368 96.8717501,176.682625 104.230935,174.443979 C115.062993,171.156081 126.065744,167.909793 135.842217,161.222602 C145.938792,154.315787 157.892912,140.957938 155.897983,125.671975 C153.756561,109.284424 152.038858,94.8804598 162.483343,81.553172 Z" id="Path" transform="translate(221.389208, 211.497877) rotate(130.000000) translate(-221.389208, -211.497877) "></path>
            </g>
            <g id="Group-7" transform="translate(91.261994, 107.000000)">
                <rect id="Rectangle" fill="#E0E0E0" x="74.7380058" y="7" width="44" height="3"></rect>
                <rect id="Rectangle" fill="#E0E0E0" x="74.7380058" y="17" width="44" height="3"></rect>
                <rect id="Rectangle" fill="#E0E0E0" x="74.7380058" y="30" width="44" height="3"></rect>
                <rect id="Rectangle" fill="#6C63FF" opacity="0.5" x="74.7380058" y="41" width="44" height="3"></rect>
                <rect id="Rectangle" fill="#E0E0E0" x="74.7380058" y="51" width="44" height="3"></rect>
                <rect id="Rectangle" fill="#E0E0E0" x="74.7380058" y="64" width="44" height="3"></rect>
                <g id="Group" opacity="0.5" transform="translate(124.738006, 165.000000)" fill="url(#linearGradient-1)">
                    <circle id="Oval" cx="30.6122886" cy="30.4241294" r="30.3877114"></circle>
                </g>
                <circle id="Oval" fill="#2B2F94" cx="153.738006" cy="194" r="29"></circle>
                <path d="M121.631234,193.992918 C121.631234,178.376941 136.679454,163.97983 151.919051,163.97983 C154.253866,163.97983 156.518018,163.376431 158.690897,163.931558 C158.72034,163.249717 158.738006,159.243144 158.738006,158.555269 L158.738006,0 L26.8253899,0 L-0.261994184,28.5106232 L-0.261994184,213 L124.281087,213 C121.601791,208.643456 121.631234,199.526091 121.631234,193.992918 Z" id="Path" fill="url(#linearGradient-2)"></path>
                <path d="M121.858234,193.761479 C121.858234,174.473178 137.423375,158.836921 156.623949,158.836921 C157.672863,158.836921 158.703949,158.887666 159.738006,158.977216 L159.738006,78 L3.73800582,78 L3.73800582,206 L124.05412,206 C122.597607,202.085757 121.853804,197.940252 121.858234,193.761479 L121.858234,193.761479 Z" id="Path" fill="#FFFFFF"></path>
                <polygon id="Path" fill="#FFFFFF" points="159.738006 81 3.73800582 81 3.73800582 29.3263681 28.9651904 3 159.738006 3"></polygon>
                <rect id="Rectangle" fill="#E0E0E0" x="108.738006" y="20" width="44" height="3"></rect>
                <rect id="Rectangle" fill="#E0E0E0" x="108.738006" y="30" width="44" height="3"></rect>
                <rect id="Rectangle" fill="#E0E0E0" x="108.738006" y="44" width="44" height="3"></rect>
                <rect id="Rectangle" fill="#6C63FF" opacity="0.5" x="108.738006" y="54" width="44" height="3"></rect>
                <rect id="Rectangle" fill="#E0E0E0" x="23.7380058" y="44" width="44" height="3"></rect>
                <rect id="Rectangle" fill="#6C63FF" opacity="0.5" x="26.7380058" y="104" width="44" height="3"></rect>
                <rect id="Rectangle" fill="#E0E0E0" x="26.7380058" y="119" width="44" height="3"></rect>
                <rect id="Rectangle" fill="#A4D7F6" opacity="0.5" x="26.7380058" y="112" width="112" height="3"></rect>
                <rect id="Rectangle" fill="#6C63FF" opacity="0.5" x="26.7380058" y="132" width="44" height="3"></rect>
                <rect id="Rectangle" fill="#E0E0E0" x="26.7380058" y="149" width="44" height="3"></rect>
                <rect id="Rectangle" fill="#E0E0E0" x="26.7380058" y="142" width="112" height="3"></rect>
                <rect id="Rectangle" fill="#6C63FF" opacity="0.5" x="26.7380058" y="165" width="44" height="3"></rect>
                <rect id="Rectangle" fill="#E0E0E0" x="26.7380058" y="179" width="44" height="3"></rect>
                <rect id="Rectangle" fill="#E0E0E0" x="23.7380058" y="172" width="91" height="3"></rect>
                <polygon id="Path" fill="url(#linearGradient-3)" points="2.73800582 30 29.7380058 30 29.7380058 3"></polygon>
                <polygon id="Path" fill="#E8E8E8" points="2.73800582 30 29.7380058 30 29.7380058 3"></polygon>
                <rect id="Rectangle" fill="#6C63FF" opacity="0.5" x="23.7380058" y="61" width="44" height="3"></rect>
                <rect id="Rectangle" fill="#E0E0E0" x="23.7380058" y="78" width="44" height="3"></rect>
                <rect id="Rectangle" fill="#E0E0E0" x="26.7380058" y="68" width="112" height="3"></rect>
            </g>
            <g id="ok" transform="translate(203.261994, 204.000000)">
                <path d="M91.1279794,41.5454125 L80.1502588,62.3907038 C78.3897876,65.7209678 77.1824998,69.3130196 76.5756165,73.026685 C75.5985951,79.3451057 75.3156004,85.4155084 73.7151766,91.2026982 C73.0952327,93.6710868 71.9347466,95.9732415 70.3171726,97.9447229 L70.3209454,108.281267 C70.3153551,110.233758 68.7252141,111.814437 66.7610456,111.819202 L38.2730886,111.808792 C36.308916,111.802592 34.7176209,110.220749 34.7113931,108.268254 L34.7076849,98.1087115 L34.7966889,98.0382568 C34.228354,97.2775715 33.7663557,96.4440884 33.4240954,95.5597418 C33.0447697,94.5782661 32.4551156,93.6899132 31.6961254,92.9573531 L14.3845308,76.6857356 C13.7090802,76.0213436 13.3305701,75.1158376 13.3325891,74.1720943 L13.3275889,60.4725316 C13.3268853,58.5451006 14.8776354,56.9722385 16.8165801,56.9345708 C18.2063831,56.9154987 19.5813391,57.2324101 20.8224686,57.8562828 C21.3197026,58.0906384 21.7909556,58.3758918 22.2299221,58.7065585 C24.472034,60.3779222 25.791893,63.001308 25.7929098,65.7871156 L25.7935558,67.5571252 C25.7979014,68.67004 26.3253719,69.718141 27.2190661,70.3896614 L29.7661669,72.2843458 C30.7276279,72.9817364 31.8355513,73.4536216 33.0071973,73.6655112 L37.4917254,67.0484106 C37.9870067,66.2497377 38.133987,65.2849013 37.8996566,64.375532 L35.2430468,53.8618009 C34.9873968,52.8239804 34.1834669,52.0068196 33.1449478,51.729974 C32.1072164,51.4531286 30.9995776,51.7605177 30.2576818,52.5324719 L26.163849,56.742972 C24.3405835,58.56009 21.418402,58.6796334 19.4488979,57.0177676 C17.4793938,55.3559018 17.1230093,52.4697162 18.6302398,50.386198 L23.2920458,43.7863925 C23.7566533,43.1333817 24.4269592,42.6543145 25.1974163,42.4243381 L34.7572493,39.6310596 C37.282905,38.8942176 39.9739344,40.0973978 41.0967315,42.4653915 L46.4780947,53.7593926 C46.5506337,53.9090084 46.7184798,53.9881719 46.880768,53.9498547 C47.0430559,53.9115378 47.1572447,53.7659063 47.1548207,53.6006522 L47.1412157,16.3262822 C47.0905093,13.3940001 49.4414317,10.9779345 52.3912149,10.9296716 C55.3409983,10.8821916 57.7732317,13.2209027 57.8239379,16.1531849 L58.4259752,55.2854969 C58.4370857,55.5055774 58.6104828,55.6826416 58.8310942,55.7007356 C59.0517056,55.7188297 59.250984,55.5716627 59.2981781,55.3570858 L65.2350526,27.960917 L68.5058075,13.6438314 C69.0547019,10.7893042 71.7477388,8.85815838 74.6464666,9.23906478 C76.0923002,9.47063424 77.3784072,10.2824891 78.2037501,11.4842044 C79.0290933,12.6867026 79.3211489,14.172521 79.0112457,15.594681 L70.8179976,56.2110568 C70.7944223,56.3778676 70.8929652,56.5384575 71.052924,56.5941225 C71.2128826,56.6497875 71.3901308,56.5856306 71.4767442,56.4407722 L81.3874768,37.1880995 C82.6100846,34.5562444 85.6728855,33.3128745 88.4016691,34.341417 C89.7491409,34.9089392 90.8037153,36.0010915 91.3186942,37.3632472 C91.8344609,38.7246199 91.76568,40.2369349 91.1279794,41.5454125 L91.1279794,41.5454125 Z" id="Path" fill="#FDD7AD" transform="translate(52.494473, 60.505197) rotate(16.000000) translate(-52.494473, -60.505197) "></path>
                <g id="Group" transform="translate(46.183311, 82.559299) rotate(16.000000) translate(-46.183311, -82.559299) translate(24.516644, 65.035161)" fill="#CBB292">
                    <path d="M43.188469,24.792602 C40.7273497,33.1091421 37.5182898,35.0320327 34.1746003,35.0320327 C33.1920422,35.0320327 32.3952883,34.2492631 32.3952883,33.2839504 C32.3952883,32.3186377 33.1920422,31.5366416 34.1746003,31.5366416 C36.2381298,31.7114499 38.2599322,30.8923264 39.5975655,29.339163 C40.8005693,28.0489855 43.188469,24.792602 43.188469,24.792602 Z" id="Path"></path>
                    <path d="M0.0551115349,25.9427783 C4.10658915,32.4470366 6.20712209,35.0320327 9.54372567,35.0320327 C10.5262838,35.0320327 11.3230379,34.2492631 11.3230379,33.2839504 C11.3230379,32.3186377 10.5262838,31.5366416 9.54372567,31.5366416 C7.48019617,31.7114499 5.45839384,30.8923264 4.12076056,29.339163 C2.84375,28.1193727 1.48564685,26.9846664 0.0551115349,25.9427783 Z" id="Path"></path>
                    <path d="M34.3525314,12.3085101 C33.6754481,12.3123777 33.0542636,11.937236 32.7511507,11.3416506 C30.1750848,6.27298556 21.2863977,4.00047852 18.0781249,3.5510822 C17.4490674,3.4629045 16.9160611,3.05063559 16.6790818,2.47129334 C16.44289,1.89117744 16.5389414,1.23139246 16.9318071,0.740227705 C17.3246729,0.249062949 17.9545179,0.00154687645 18.5835756,0.0904980145 C19.1283915,0.167073349 32.0055717,2.05670391 35.9365915,9.77920538 C36.2113613,10.3198733 36.1822311,10.9618681 35.8602229,11.4762373 C35.5382147,11.9913803 34.968205,12.3061898 34.3525314,12.3085101 Z" id="Path"></path>
                    <path d="M25.4567588,26.2923948 C24.4742007,26.2923948 23.6774466,25.5096252 23.6774466,24.5443125 C23.6774466,13.6195719 15.9768047,10.4660625 15.8988613,10.4343493 C15.2957849,10.2115849 14.8627666,9.68483977 14.7667151,9.05908825 C14.6714511,8.43256329 14.9273256,7.80449106 15.4367127,7.41697376 C15.9460999,7.02945646 16.6294815,6.94282583 17.2223232,7.19034191 C17.6285732,7.35122735 27.2360706,11.2789981 27.2360706,24.5443125 C27.2360706,25.5096252 26.439317,26.2923948 25.4567588,26.2923948 L25.4567588,26.2923948 Z" id="Path"></path>
                </g>
            </g>
        </g>
    </g>
</svg>
