<svg id="Capa_1" data-name="Capa 1" xmlns="http://www.w3.org/2000/svg" xmlns:xlink="http://www.w3.org/1999/xlink" viewBox="0 0 254.45 55.94"><defs><style>.cls-1,.cls-3{fill:none;}.cls-10,.cls-2,.cls-8{fill:#3a7cd2;}.cls-2,.cls-3{clip-rule:evenodd;}.cls-4{opacity:0.28;}.cls-5{clip-path:url(#clip-path);}.cls-6{clip-path:url(#clip-path-2);}.cls-7{clip-path:url(#clip-path-3);}.cls-8{fill-rule:evenodd;}.cls-9{clip-path:url(#clip-path-4);}.cls-11{clip-path:url(#clip-path-5);}.cls-12{clip-path:url(#clip-path-6);}.cls-13{fill:#fff;}.cls-14{clip-path:url(#clip-path-10);}.cls-15{clip-path:url(#clip-path-11);}.cls-16{clip-path:url(#clip-path-12);}.cls-17{clip-path:url(#clip-path-13);}.cls-18{clip-path:url(#clip-path-14);}.cls-19{clip-path:url(#clip-path-15);}</style><clipPath id="clip-path"><path class="cls-1" d="M-172.19,92.3l54.43.33c20.34.12,31.53-5.91,37.83-16.22,5.74-9.39,9.78-20.73,2.5-28.09C-92.86,32.71-110,51.47-110,51.47s3.89-40.63-25.68-40.59C-167,10.92-167,69.52-167,69.52s-21.18-21.86-27-5.1c-1.67,4.83.07,9.7,3,14,6.23,9,16.6,13.89,18.75,13.9"/></clipPath><clipPath id="clip-path-2"><path class="cls-1" d="M-540.77,76.28-597.19,76c-21.09-.13-32.61-6.51-39-17.28-5.83-9.8-9.87-21.61-2.24-29.15,16.19-16,33.73,3.67,33.73,3.67S-608.26-9-577.61-8.57c32.42.43,31.72,61.17,31.72,61.17s22.23-22.4,28-5c1.68,5-.19,10-3.32,14.46-6.56,9.22-17.37,14.19-19.6,14.18"/></clipPath><clipPath id="clip-path-3"><path class="cls-1" d="M-590,365.71c14,.36,23,15.18,17.47,28-7.27,16.94-22.28,52.49-24.3,61.88-2.68,12.44-40.62-28.26-24.41-66,7.65-17.82,20.26-24.14,31.24-23.86"/></clipPath><clipPath id="clip-path-4"><path class="cls-2" d="M-172.19,92.3l54.43.33c20.34.12,31.53-5.91,37.83-16.22,5.74-9.39,9.78-20.73,2.5-28.09C-92.86,32.71-110,51.47-110,51.47s3.89-40.63-25.68-40.59C-167,10.92-167,69.52-167,69.52s-21.18-21.86-27-5.1c-1.67,4.83.07,9.7,3,14,6.23,9,16.6,13.89,18.75,13.9"/></clipPath><clipPath id="clip-path-5"><path class="cls-2" d="M-540.77,76.28-597.19,76c-21.09-.13-32.61-6.51-39-17.28-5.83-9.8-9.87-21.61-2.24-29.15,16.19-16,33.73,3.67,33.73,3.67S-608.26-9-577.61-8.57c32.42.43,31.72,61.17,31.72,61.17s22.23-22.4,28-5c1.68,5-.19,10-3.32,14.46-6.56,9.22-17.37,14.19-19.6,14.18"/></clipPath><clipPath id="clip-path-6"><path class="cls-2" d="M-590,365.71c14,.36,23,15.18,17.47,28-7.27,16.94-22.28,52.49-24.3,61.88-2.68,12.44-40.62-28.26-24.41-66,7.65-17.82,20.26-24.14,31.24-23.86"/></clipPath><clipPath id="clip-path-10"><path class="cls-3" d="M-159.76,297.68v-.45H-177a1.27,1.27,0,0,1-1.26-1.26V278.71a1.26,1.26,0,0,1,1.26-1.26h17.26a1.25,1.25,0,0,1,1.26,1.26V296a1.26,1.26,0,0,1-1.26,1.26v.9A2.16,2.16,0,0,0-157.6,296V278.71a2.16,2.16,0,0,0-2.16-2.16H-177a2.16,2.16,0,0,0-2.16,2.16V296a2.16,2.16,0,0,0,2.16,2.16h17.26v-.45"/></clipPath><clipPath id="clip-path-11"><path class="cls-3" d="M-167.88,294.72a1.51,1.51,0,0,1-1.17-.57l-7.51-9.58a1.65,1.65,0,0,1,.2-2.25,1.46,1.46,0,0,1,2.13.21l6.18,7.89,13.34-22.22a1.47,1.47,0,0,1,2.09-.5,1.65,1.65,0,0,1,.47,2.21L-166.61,294a1.5,1.5,0,0,1-1.18.74h-.09"/></clipPath><clipPath id="clip-path-12"><path class="cls-3" d="M-159.76,354.11v-.45H-177a1.27,1.27,0,0,1-1.26-1.26V335.14a1.26,1.26,0,0,1,1.26-1.26h17.26a1.25,1.25,0,0,1,1.26,1.26V352.4a1.26,1.26,0,0,1-1.26,1.26v.9a2.16,2.16,0,0,0,2.16-2.16V335.14a2.15,2.15,0,0,0-2.16-2.16H-177a2.16,2.16,0,0,0-2.16,2.16V352.4a2.16,2.16,0,0,0,2.16,2.16h17.26v-.45"/></clipPath><clipPath id="clip-path-13"><path class="cls-3" d="M-167.88,351.15a1.51,1.51,0,0,1-1.17-.57l-7.51-9.58a1.65,1.65,0,0,1,.2-2.25,1.46,1.46,0,0,1,2.13.21l6.18,7.89,13.34-22.22a1.47,1.47,0,0,1,2.09-.5,1.65,1.65,0,0,1,.47,2.21l-14.46,24.07a1.5,1.5,0,0,1-1.18.74h-.09"/></clipPath><clipPath id="clip-path-14"><path class="cls-3" d="M-159.76,465.61v-.46H-177a1.26,1.26,0,0,1-1.26-1.26V446.64a1.26,1.26,0,0,1,1.26-1.26h17.26a1.25,1.25,0,0,1,1.26,1.26v17.25a1.25,1.25,0,0,1-1.26,1.26v.91a2.16,2.16,0,0,0,2.16-2.17V446.64a2.16,2.16,0,0,0-2.16-2.17H-177a2.17,2.17,0,0,0-2.16,2.17v17.25a2.17,2.17,0,0,0,2.16,2.17h17.26v-.45"/></clipPath><clipPath id="clip-path-15"><path class="cls-3" d="M-167.88,462.65a1.49,1.49,0,0,1-1.17-.58l-7.51-9.58a1.63,1.63,0,0,1,.2-2.24,1.45,1.45,0,0,1,2.13.21l6.18,7.88,13.34-22.22a1.48,1.48,0,0,1,2.09-.49,1.64,1.64,0,0,1,.47,2.2l-14.46,24.08a1.53,1.53,0,0,1-1.18.74h-.09"/></clipPath></defs><title>Mesa de trabajo 3</title><g class="cls-4"><path class="cls-8" d="M-172.19,92.3l54.43.33c20.34.12,31.53-5.91,37.83-16.22,5.74-9.39,9.78-20.73,2.5-28.09C-92.86,32.71-110,51.47-110,51.47s3.89-40.63-25.68-40.59C-167,10.92-167,69.52-167,69.52s-21.18-21.86-27-5.1c-1.67,4.83.07,9.7,3,14,6.23,9,16.6,13.89,18.75,13.9"/><g class="cls-9"><rect class="cls-10" x="-1761.16" y="-314.06" width="2370.38" height="1675.03" transform="matrix(0.01, -1, 1, 0.01, -1096, -55.61)"/></g><path class="cls-8" d="M-540.77,76.28-597.19,76c-21.09-.13-32.61-6.51-39-17.28-5.83-9.8-9.87-21.61-2.24-29.15,16.19-16,33.73,3.67,33.73,3.67S-608.26-9-577.61-8.57c32.42.43,31.72,61.17,31.72,61.17s22.23-22.4,28-5c1.68,5-.19,10-3.32,14.46-6.56,9.22-17.37,14.19-19.6,14.18"/><g class="cls-11"><rect class="cls-10" x="-1356.09" y="-340.02" width="2457.07" height="1736.29" transform="translate(-654.92 397.45) rotate(-89.66)"/></g><path class="cls-8" d="M-590,365.71c14,.36,23,15.18,17.47,28-7.27,16.94-22.28,52.49-24.3,61.88-2.68,12.44-40.62-28.26-24.41-66,7.65-17.82,20.26-24.14,31.24-23.86"/><g class="cls-12"><rect class="cls-10" x="-1400.2" y="198.22" width="2282.99" height="1613.27" transform="translate(-1262.01 740.19) rotate(-89.66)"/></g></g><path class="cls-10" d="M127.22,0h0A21.77,21.77,0,0,1,149,21.77V50.59a0,0,0,0,1,0,0H105.46a0,0,0,0,1,0,0V21.77A21.77,21.77,0,0,1,127.22,0Z"/><path class="cls-10" d="M18.45,28.24H236a18.45,18.45,0,0,1,18.45,18.45v9.25a0,0,0,0,1,0,0H0a0,0,0,0,1,0,0V46.69A18.45,18.45,0,0,1,18.45,28.24Z"/><circle class="cls-13" cx="127.22" cy="21.62" r="10.7"/></svg>
