<?xml version="1.0" encoding="UTF-8"?>
<svg width="106px" height="102px" viewBox="0 0 106 102" version="1.1" xmlns="http://www.w3.org/2000/svg" xmlns:xlink="http://www.w3.org/1999/xlink">
    <!-- Generator: Sketch 53.2 (72643) - https://sketchapp.com -->
    <title>refiereç</title>
    <desc>Created with Sketch.</desc>
    <defs>
        <linearGradient x1="10.1577242%" y1="0%" x2="92.154533%" y2="100%" id="linearGradient-1">
            <stop stop-color="#5372A9" offset="0%"></stop>
            <stop stop-color="#304087" offset="100%"></stop>
        </linearGradient>
        <rect id="path-2" x="0" y="0" width="87" height="92" rx="8"></rect>
        <filter x="-8.0%" y="-5.4%" width="116.1%" height="115.2%" filterUnits="objectBoundingBox" id="filter-4">
            <feOffset dx="0" dy="2" in="SourceAlpha" result="shadowOffsetOuter1"></feOffset>
            <feGaussianBlur stdDeviation="2" in="shadowOffsetOuter1" result="shadowBlurOuter1"></feGaussianBlur>
            <feColorMatrix values="0 0 0 0 0   0 0 0 0 0   0 0 0 0 0  0 0 0 0.1 0" type="matrix" in="shadowBlurOuter1"></feColorMatrix>
        </filter>
        <rect id="path-5" x="6" y="6" width="87" height="92" rx="8"></rect>
        <filter x="-8.0%" y="-5.4%" width="116.1%" height="115.2%" filterUnits="objectBoundingBox" id="filter-6">
            <feOffset dx="0" dy="2" in="SourceAlpha" result="shadowOffsetOuter1"></feOffset>
            <feGaussianBlur stdDeviation="2" in="shadowOffsetOuter1" result="shadowBlurOuter1"></feGaussianBlur>
            <feComposite in="shadowBlurOuter1" in2="SourceAlpha" operator="out" result="shadowBlurOuter1"></feComposite>
            <feColorMatrix values="0 0 0 0 0   0 0 0 0 0   0 0 0 0 0  0 0 0 0.1 0" type="matrix" in="shadowBlurOuter1"></feColorMatrix>
        </filter>
        <path d="M1.32172727,3.7 C0.665,3.7 0.112636364,2.79933333 0.753454545,2.26 C1.91036364,1.28533333 3.54263636,0.440666667 5.11190909,0.440666667 C5.55736364,0.440666667 5.99836364,0.508666667 6.42218182,0.661333333 C7.29972727,0.978 6.97327273,2.30066667 6.18545455,2.30066667 C6.09954545,2.30066667 6.00790909,2.28466667 5.91118182,2.25 C5.64454545,2.154 5.36327273,2.11133333 5.07627273,2.11133333 C3.91363636,2.11133333 2.64918182,2.81066667 1.82381818,3.50533333 C1.66154545,3.642 1.48845455,3.7 1.32172727,3.7 Z" id="path-7"></path>
        <path d="M86.9989904,97.5981453 L0.368307692,97.5981453 L0.368307692,5.13651397 C30.4840385,-1.03584358 59.4778558,-1.6189162 86.9989904,5.13651397 C122.596587,15.7342011 122.596587,64.2984022 86.9989904,97.5981453" id="path-9"></path>
    </defs>
    <g id="Page-1" stroke="none" stroke-width="1" fill="none" fill-rule="evenodd">
        <g id="refiereç" transform="translate(4.000000, -1.000000)">
            <g id="Group" transform="translate(0.000000, 5.000000)">
                <mask id="mask-3" fill="white">
                    <use xlink:href="#path-2"></use>
                </mask>
                <g id="Mask">
                    <use fill="black" fill-opacity="1" filter="url(#filter-4)" xlink:href="#path-2"></use>
                    <use fill="url(#linearGradient-1)" fill-rule="evenodd" xlink:href="#path-2"></use>
                </g>
                <g mask="url(#mask-3)">
                    <g transform="translate(-6.000000, -6.000000)">
                        <g id="Rectangle">
                            <use fill="black" fill-opacity="1" filter="url(#filter-6)" xlink:href="#path-5"></use>
                            <rect stroke="#F1F1F1" stroke-width="1" stroke-linejoin="square" fill="url(#linearGradient-1)" fill-rule="evenodd" x="6.5" y="6.5" width="86" height="91" rx="8"></rect>
                        </g>
                        <g id="Group-182" stroke-width="1" fill-rule="evenodd" transform="translate(0.000000, 14.000000)">
                            <path d="M0.956596154,82.4298101 C0.956596154,82.4298101 23.7555,35.6755978 47.9382981,33.4199553 C67.8038942,31.5683575 77.6177596,40.840581 88.8577212,44.8071173 C91.549875,45.7575531 96.3597981,55.2586257 90.9119135,57.6927486 C87.5532981,59.1934078 79.9914808,54.737419 73.9472885,52.445095 C70.331625,68.6041453 74.1270577,100.704346 74.1270577,100.704346 L34.8332308,89.2985698 L38.1540288,50.7303687 C38.1540288,50.7303687 21.9808269,63.6877207 11.3788269,87.3747039 C5.87997115,85.0467933 0.956596154,82.4298101 0.956596154,82.4298101" id="Fill-144" fill="#FFFFFE"></path>
                            <path d="M42.0398942,83.5981453 L35.3237596,83.5981453 L38.1540288,50.7303687 C38.1540288,50.7303687 23.6957596,62.3140782 13.1584327,83.5981453 L10.5978173,83.5981453 C16.8601442,68.4333296 31.5814904,54.5529162 37.1800962,49.8029274 C37.7057019,49.3567263 38.1671827,49.1672961 38.568375,49.1672961 C40.0180385,49.1672961 40.6795673,51.6391955 40.7453365,53.385676 C40.8757788,56.8561899 40.9042788,60.3382011 40.8845481,63.812 C40.8478269,70.2356536 40.9821058,76.6302905 41.9461731,82.9937207 C41.9763173,83.1951955 42.0081058,83.3966704 42.0398942,83.5981453" id="Fill-146" fill="#F3F3F0"></path>
                            <polyline id="Fill-147" fill="#EFA67C" points="50.6463462 27.9527598 50.4737019 32.7881564 54.9827308 36.3681676 59.0801538 33.178514 58.0097596 26.9689274 50.6463462 27.9527598"></polyline>
                            <path d="M61.6621442,0.847273743 C62.8229712,5.52663687 64.2616731,10.9932849 64.3033269,15.4027374 C64.3948558,25.0516313 60.712875,28.0781341 55.8815769,29.4194749 C44.4519808,32.5943464 32.9697692,20.1948827 35.2941635,6.43217877 L61.6621442,0.847273743" id="Fill-148" fill="#F5C097"></path>
                            <path d="M32.4463558,14.4490168 C31.8204519,13.714838 31.2959423,12.7490726 30.8810481,11.6519106 C31.2964904,12.7496201 31.821,13.714838 32.4463558,14.4490168" id="Fill-150" fill="#5B72A9"></path>
                            <path d="M52.4928173,35.5611732 L57.2150481,35.7423911 C57.2150481,35.7423911 57.0281538,37.3541899 56.2570096,38.7245475 C55.6771442,39.7532737 54.7426731,40.4901899 53.7687404,38.7743687 C52.7454808,36.9720447 52.4928173,35.5611732 52.4928173,35.5611732" id="Fill-153" fill="#1F2F4C"></path>
                            <path d="M52.6112019,73.1011955 C52.6112019,73.1011955 54.9471058,76.8301229 55.8569135,76.9949162 C56.7661731,77.160257 58.8510577,72.3500447 58.8510577,72.3500447 C58.8510577,72.3500447 56.1961731,37.5627821 55.0534327,37.3558324 C53.9106923,37.1483352 52.6112019,73.1011955 52.6112019,73.1011955" id="Fill-154" fill="#1F2F4C"></path>
                            <path d="M48.8579712,33.3416648 L50.4737019,32.4021788 L50.4874038,32.412581 L50.4737019,32.7881564 L51.0141058,33.216838 C50.3092788,33.2442123 49.5896538,33.2852737 48.8579712,33.3416648" id="Fill-155" fill="#6D8CBA"></path>
                            <path d="M51.2141538,40.4556983 L47.9382981,33.8760112 L48.8579712,33.3416648 C49.5896538,33.2852737 50.3092788,33.2442123 51.0141058,33.216838 L54.0405865,35.6203017 L52.4928173,35.5611732 C52.4928173,35.5611732 52.6462788,36.4185363 53.1987404,37.6509274 L51.2141538,40.4556983" id="Fill-156" fill="#D9D9D5"></path>
                            <polyline id="Fill-157" fill="#CF8C68" points="54.6193558 35.6427486 54.0405865 35.6203017 51.0141058 33.216838 50.4737019 32.7881564 50.4874038 32.412581 54.6193558 35.6427486"></polyline>
                            <path d="M53.1987404,37.6509274 C52.6462788,36.4185363 52.4928173,35.5611732 52.4928173,35.5611732 L54.0405865,35.6203017 L54.6193558,35.6427486 L54.6199038,35.6427486 L53.1987404,37.6509274" id="Fill-158" fill="#19263F"></path>
                            <path d="M61.4571635,33.9176201 C60.5506442,33.7544693 59.6211058,33.6154078 58.6630673,33.5031732 L59.0801538,33.178514 L58.9135385,32.2127486 L61.4571635,33.9176201" id="Fill-159" fill="#6D8CBA"></path>
                            <path d="M58.2722885,40.1819553 L56.6170962,37.9766816 C57.0889904,36.8291508 57.2150481,35.7423911 57.2150481,35.7423911 L55.8541731,35.6898324 L58.6630673,33.5031732 C59.6211058,33.6154078 60.5506442,33.7544693 61.4571635,33.9176201 L58.2722885,40.1819553" id="Fill-160" fill="#D9D9D5"></path>
                            <polyline id="Fill-161" fill="#CF8C68" points="55.8541731 35.6898324 54.8725673 35.6520559 54.8544808 35.6279665 58.8307788 32.1574525 58.9135385 32.2127486 59.0801538 33.178514 55.8541731 35.6898324"></polyline>
                            <path d="M56.6170962,37.9766816 L54.8725673,35.6520559 L55.8541731,35.6898324 L57.2150481,35.7423911 C57.2150481,35.7423911 57.0889904,36.8291508 56.6170962,37.9766816" id="Fill-162" fill="#19263F"></path>
                            <polyline id="Fill-163" fill="#FFFFFE" points="47.9382981 33.8760112 50.4737019 31.9138212 54.6199038 35.6427486 51.4295481 39.6935978 47.9382981 33.8760112"></polyline>
                            <polyline id="Fill-164" fill="#FFFFFE" points="61.4571635 33.9176201 58.8307788 31.6685475 54.8544808 35.6279665 58.2722885 39.6935978 61.4571635 33.9176201"></polyline>
                        </g>
                        <g id="Group-185" stroke-width="1" fill-rule="evenodd" transform="translate(44.000000, 26.000000)">
                            <mask id="mask-8" fill="white">
                                <use xlink:href="#path-7"></use>
                            </mask>
                            <g id="Clip-184"></g>
                            <polygon id="Fill-183" fill="#F2B388" mask="url(#mask-8)" points="0.470909091 3.7 6.96181818 3.7 6.96181818 0.440666667 0.470909091 0.440666667"></polygon>
                        </g>
                        <g id="Group-200" stroke-width="1" fill-rule="evenodd" transform="translate(6.000000, 0.000000)">
                            <mask id="mask-10" fill="white">
                                <use xlink:href="#path-9"></use>
                            </mask>
                            <g id="Clip-187"></g>
                            <path d="M39.6358269,29.379743 C40.5220673,28.6680112 41.9969423,27.950257 43.156125,28.3488268 C43.9963269,28.6378994 44.4342404,27.3326927 43.5956827,27.0441676 C41.9476154,26.4775196 39.9931731,27.3288603 38.7134135,28.3570391 C38.0222885,28.9121899 38.94525,29.9343464 39.6358269,29.379743" id="Fill-186" fill="#54311D" mask="url(#mask-10)"></path>
                            <path d="M51.7154423,26.2508603 C51.1849038,26.2503128 50.6921827,25.6464358 51.1476346,25.1624581 C51.9598846,24.3001676 53.1705865,23.931162 54.3626538,23.931162 C54.8663365,23.931162 55.3667308,23.9968603 55.8325962,24.1194972 C56.6185385,24.3258994 56.4952212,25.5029944 55.7936827,25.5029944 C55.7361346,25.5029944 55.67475,25.4953296 55.6095288,25.4778101 C55.2160096,25.3748827 54.7501442,25.3048045 54.2787981,25.3048045 C53.5082019,25.3048045 52.7239038,25.4914972 52.2235096,26.0231061 C52.0722404,26.1835196 51.8919231,26.2508603 51.7154423,26.2508603" id="Fill-188" fill="#F2B388" mask="url(#mask-10)"></path>
                            <path d="M51.9845481,25.7701676 C52.7907692,24.9128045 54.3347019,24.9522235 55.3700192,25.224324 C56.2294038,25.4504358 56.44425,24.0893855 55.5930865,23.8660112 C54.0261346,23.4548492 52.0640192,23.6820559 50.9092212,24.9089721 C50.3014038,25.5539106 51.3789231,26.4129162 51.9845481,25.7701676" id="Fill-189" fill="#54311D" mask="url(#mask-10)"></path>
                            <path d="M49.7620962,34.2802905 C49.2699231,34.2802905 48.8007692,34.1165922 48.4658942,33.6846257 L48.4823365,33.6561564 C48.7240385,33.7426592 48.9915,33.7831732 49.2682788,33.7831732 C50.1923365,33.7831732 51.2221731,33.3320447 51.7549038,32.6214078 C51.7757308,32.593486 51.8097115,32.5759665 51.8420481,32.5759665 C51.8710962,32.5759665 51.8995962,32.5896536 51.9165865,32.6214078 C52.2947596,33.3112402 51.3937212,33.8308045 50.8681154,34.044324 C50.5184423,34.1866704 50.1336923,34.2802905 49.7620962,34.2802905" id="Fill-190" fill="#F0AC7E" mask="url(#mask-10)"></path>
                            <path d="M54.6942404,35.9490279 C54.777,36.5277207 54.784125,37.2482123 54.5698269,37.9561117 C54.2135769,39.1512737 53.7241442,40.3907821 51.3575481,40.8922793 C49.0660385,41.3768045 47.5445769,40.3896872 46.7367115,39.553676 C46.2100096,39.0094749 45.9178846,38.3497542 45.7551058,37.8011732 C45.5665673,37.1655419 45.9513173,36.5074637 46.5931154,36.3448603 C48.3370962,35.9090615 51.8047788,35.0621006 53.6030192,34.6284916 C54.2694808,34.4604134 54.5955865,35.2679553 54.6942404,35.9490279" id="Fill-191" fill="#351617" mask="url(#mask-10)"></path>
                            <path d="M42.93525,33.5800559 L42.7839808,33.6112626 C42.0057115,33.7722235 41.2444327,33.2729162 41.0832981,32.495486 L40.9797115,31.9956313 C40.8185769,31.2182011 41.3189712,30.457743 42.0966923,30.2967821 L42.2479615,30.2650279 C43.0262308,30.1046145 43.7875096,30.6039218 43.9486442,31.381352 L44.0522308,31.8812067 C44.2133654,32.6586369 43.7135192,33.419095 42.93525,33.5800559" id="Fill-192" fill="#FFFFFE" mask="url(#mask-10)"></path>
                            <path d="M42.7763077,33.1940782 L42.7763077,33.1940782 C42.1547885,33.3221899 41.5475192,32.9236201 41.4187212,32.3033184 L41.3639135,32.0388827 C41.2351154,31.4180335 41.6346635,30.811419 42.2556346,30.6827598 C42.8766058,30.5541006 43.4849712,30.9532179 43.6132212,31.5735196 L43.6680288,31.8379553 C43.7968269,32.458257 43.3972788,33.065419 42.7763077,33.1940782" id="Fill-193" fill="#54311D" mask="url(#mask-10)"></path>
                            <path d="M42.9790962,30.6362235 C43.3210962,30.633486 43.6011635,30.8951844 43.6033558,31.221486 C43.6060962,31.5472402 43.3309615,31.8138659 42.9889615,31.8160559 C42.6469615,31.8193408 42.3674423,31.557095 42.3647019,31.2313408 C42.3619615,30.9055866 42.6370962,30.6389609 42.9790962,30.6362235" id="Fill-194" fill="#FFFFFE" mask="url(#mask-10)"></path>
                            <path d="M54.584625,30.4139441 L54.4333558,30.4451508 C53.6550865,30.6061117 52.8938077,30.106257 52.7326731,29.3293743 L52.6290865,28.8289721 C52.4679519,28.0520894 52.9677981,27.2910838 53.7460673,27.1301229 L53.8978846,27.0989162 C54.6761538,26.9379553 55.4368846,27.4378101 55.5980192,28.2152402 L55.7021538,28.715095 C55.8632885,29.4925251 55.3628942,30.2529832 54.584625,30.4139441" id="Fill-195" fill="#FFFFFE" mask="url(#mask-10)"></path>
                            <path d="M54.4262308,30.0279665 L54.4262308,30.0279665 C53.8047115,30.1560782 53.1968942,29.7575084 53.0680962,29.1366592 L53.0132885,28.8727709 C52.8850385,28.2519218 53.2845865,27.6447598 53.9050096,27.5161006 C54.5265288,27.3879888 55.1343462,27.7871061 55.2625962,28.4074078 L55.3179519,28.6718436 C55.4462019,29.2921453 55.0466538,29.8993073 54.4262308,30.0279665" id="Fill-196" fill="#54311D" mask="url(#mask-10)"></path>
                            <path d="M54.6290192,27.4701117 C54.9710192,27.4673743 55.2499904,27.7290726 55.2527308,28.0548268 C55.2560192,28.3811285 54.9803365,28.6472067 54.6383365,28.6499441 C54.2963365,28.6532291 54.0168173,28.3909832 54.0140769,28.0652291 C54.0113365,27.7394749 54.2864712,27.4728492 54.6290192,27.4701117" id="Fill-197" fill="#FFFFFE" mask="url(#mask-10)"></path>
                            <path d="M50.1753462,41.0203911 C48.5327596,41.0203911 47.3965962,40.2363911 46.7367115,39.553676 C47.3511058,38.5386369 49.739625,36.926838 51.9713942,36.926838 C52.9140865,36.926838 53.8288269,37.2142682 54.5698269,37.9561117 C54.2135769,39.1512737 53.7241442,40.3907821 51.3575481,40.8922793 C50.9377212,40.9809721 50.5436538,41.0203911 50.1753462,41.0203911" id="Fill-198" fill="#942D30" mask="url(#mask-10)"></path>
                            <path d="M48.8002212,32.2743017 L48.7640481,32.260067 C48.6155192,32.0191732 49.2222404,31.7853966 49.3724135,31.7207933 C49.6365865,31.6063687 50.0224327,31.4864693 50.3693654,31.4864693 C50.5502308,31.4864693 50.7206827,31.5193184 50.8577019,31.6014413 C50.9070288,31.6315531 50.8971635,31.7076536 50.8418077,31.7235307 C50.5118654,31.8166034 50.1512308,31.7361229 49.8081346,31.8155084 C49.7029038,31.8395978 48.7881635,32.1604246 48.8320096,32.2529497 L48.8243365,32.2704693 L48.8002212,32.2743017" id="Fill-199" fill="#F0AC7E" mask="url(#mask-10)"></path>
                        </g>
                    </g>
                </g>
            </g>
            <g id="Group-4" transform="translate(23.530550, 0.499208)">
                <path d="M58.1219504,36.9534738 C56.7742292,37.4982224 52.0174696,40.2000659 52.7979311,41.4023453 C54.0174023,43.2780324 55.0538157,46.2300771 55.0538157,46.2300771 L60.0040465,44.2618648 L58.1219504,36.9534738" id="Fill-165" fill="#EFA67C"></path>
                <path d="M74.100585,24.5589374 L72.6120081,24.927943 L70.7085369,17.266971 L72.1976619,16.8979654 C74.3154311,16.3729263 76.4584119,17.6622559 76.9834696,19.7777419 C77.5090754,21.8937754 76.2183542,24.0338983 74.100585,24.5589374" id="Fill-166" fill="#F4F4F2"></path>
                <polyline id="Fill-167" fill="#DF4F59" points="57.5382484 40.0330827 53.0785465 41.1379095 50.7322292 31.3554291 55.1919311 30.2506022 57.5382484 40.0330827"></polyline>
                <polyline id="Fill-168" fill="#FFFFFE" points="77.2547677 33.2480883 58.8328061 28.5490157 56.8339696 20.499876 70.9195465 7.74345141 77.2547677 33.2480883"></polyline>
                <polyline id="Fill-169" fill="#F4F4F2" points="77.2547677 33.2480883 58.8328061 28.5490157 58.0359023 25.3407475 75.1600177 24.8157084 77.2547677 33.2480883"></polyline>
                <path d="M47.7841234,30.6179654 L47.7841234,30.6179654 C46.3032196,30.9853285 44.8047773,30.083619 44.4375657,28.6043117 L44.0818638,27.1731833 C43.7146523,25.693876 44.617335,24.1970492 46.0982388,23.829686 C47.5791427,23.4628704 49.077585,24.3645799 49.4447965,25.8438872 L49.8004984,27.2744682 C50.1682581,28.7543229 49.2650273,30.2511497 47.7841234,30.6179654" id="Fill-170" fill="#FFFFFE"></path>
                <path d="M49.4437004,25.8449821 L49.7988542,27.2733732 C50.1671619,28.7565129 49.262835,30.2495073 47.7824792,30.6168704 C46.3015754,30.983686 44.8036811,30.0858089 44.4353734,28.6026693 L44.0802196,27.1737307 C44.0533638,27.0653285 44.0341811,26.9547363 44.0237677,26.8463341 C44.5082677,28.1312838 45.8943542,28.8796972 47.2667388,28.5397084 C48.6385754,28.1997196 49.5133061,26.8906805 49.3406619,25.5279877 C49.3817677,25.6292726 49.4168446,25.7360324 49.4437004,25.8449821" id="Fill-171" fill="#F4F4F2"></path>
                <path d="M76.6277677,34.3660548 L76.6277677,34.3660548 C75.7579696,34.5817643 74.8783061,34.0523453 74.6623638,33.1834849 L68.6581811,9.01142906 C68.4422388,8.14256873 68.9722292,7.26385364 69.8420273,7.04814414 C70.7118254,6.83243465 71.5920369,7.36185364 71.8079792,8.23071398 L77.8116138,32.4027698 C78.0275561,33.2716302 77.4975657,34.1503453 76.6277677,34.3660548" id="Fill-172" fill="#E05A60"></path>
                <path d="M76.3422196,26.4888257 L77.8110657,32.4016749 C78.0275561,33.2710827 77.4981138,34.1487028 76.6277677,34.3644123 C75.7568734,34.5801218 74.8794023,34.0517978 74.6629119,33.1818425 L73.1946138,27.2695408 C73.40946,28.1351162 74.2885754,28.6672726 75.1589215,28.4515631 C76.0298157,28.2358536 76.5576138,27.3549486 76.3422196,26.4888257" id="Fill-173" fill="#DF4F59"></path>
                <path d="M58.0846811,30.7416972 L50.8637677,32.5314291 C49.7182869,32.8150268 48.5596523,32.1180771 48.2757484,30.9738313 L46.3657004,23.2860324 C46.0817965,22.1417866 46.7800465,20.9844011 47.9255273,20.7002559 L55.1458927,18.9110715 C56.2913734,18.6269263 57.4505561,19.3244235 57.73446,20.4686693 L59.64396,28.1559207 C59.9278638,29.3001665 59.2301619,30.4580995 58.0846811,30.7416972" id="Fill-174" fill="#E05A60"></path>
                <path d="M58.9391331,25.321038 L59.7820754,28.7143564 C59.9892484,29.5487251 59.4817292,30.3962335 58.6426234,30.6037307 L50.3058254,32.669943 C49.4700081,32.8774402 48.6210369,32.3666358 48.4138638,31.5317196 L47.5709215,28.1384011 C47.7780946,28.9733173 48.6270657,29.4841218 49.4628831,29.2771721 L57.7991331,27.2109598 C58.6387869,27.0029151 59.1463061,26.1559542 58.9391331,25.321038" id="Fill-175" fill="#DF4F59"></path>
                <path d="M53.5986715,32.9261665 C53.3016138,33.5776749 53.8787388,34.1853844 54.1566138,34.2954291 C55.0894407,34.6655296 57.4954984,33.5683676 58.0369984,33.0904123 C58.6404311,32.5577084 58.0353542,31.5881106 57.3486138,31.5037978 C56.0896811,31.3499542 53.9488927,32.159686 53.5986715,32.9261665" id="Fill-177" fill="#EFA67C"></path>
                <path d="M52.7979311,41.4023453 C50.2367677,39.0848369 49.0529215,35.0712168 51.1241042,33.7632726 C53.8020081,32.0720883 55.1519215,32.0945352 55.3941715,33.3668927 C55.6358734,34.6392503 52.9519407,35.1922112 53.3043542,36.0123453 C53.6578638,36.8324793 54.6159023,37.687105 54.8038927,38.9517978 C55.0856042,40.8499319 52.7979311,41.4023453 52.7979311,41.4023453" id="Fill-178" fill="#F5C097"></path>
                <path d="M54.3758446,34.7624346 C54.0787869,35.4133955 54.65646,36.021105 54.934335,36.1316972 C55.8671619,36.5012503 58.2732196,35.4040883 58.8141715,34.926133 C59.4176042,34.3934291 58.8130754,33.4243788 58.126335,33.3400659 C56.8668542,33.1856749 54.7266138,33.9954067 54.3758446,34.7624346" id="Fill-179" fill="#EFA67C"></path>
                <path d="M54.9885946,36.7941553 C54.6915369,37.4451162 55.2686619,38.0528257 55.5465369,38.1634179 C56.4793638,38.532971 58.8854215,37.4358089 59.4263734,36.9578536 C60.0298061,36.4251497 59.4247292,35.4560995 58.7385369,35.3717866 C57.4790561,35.2173955 55.3382677,36.0271274 54.9885946,36.7941553" id="Fill-180" fill="#EFA67C"></path>
                <path d="M55.8282484,38.5515855 C55.5964119,39.059105 56.0469311,39.5337754 56.2639696,39.6202782 C56.9918157,39.9088034 58.8700754,39.0525352 59.2920946,38.6796972 C59.7628927,38.2636078 59.2909984,37.5069821 58.7555273,37.4412838 C57.7728254,37.3208369 56.1017388,37.9526358 55.8282484,38.5515855" id="Fill-181" fill="#EFA67C"></path>
                <path d="M52.2898638,42.6139319 L59.5677773,40.6533844 C59.5677773,40.6533844 65.6103254,53.6977866 65.14446,64.1909039 C64.9937388,67.5749151 62.9050177,69.6559095 61.3813638,70.1935408 C58.2874696,71.2846805 55.1557581,67.9192838 55.2966138,64.6628369 C55.49721,60.033295 53.6573157,43.2928145 52.2898638,42.6139319" id="Fill-176" fill="#FFFFFE"></path>
                <path d="M5.77895998,10.3522224 C5.79211383,6.77221118 6.14397921,2.89710504 10.958835,1.50375308 C23.6917581,-2.18247038 27.3956619,5.9838313 30.4824311,7.12807711 C30.9137677,7.21129498 31.6180465,6.90415532 32.3776811,6.59646817 C34.2811523,5.82615532 36.5348446,5.05584247 35.7412292,10.4244905 C33.78021,23.6982894 19.4194984,26.7187698 10.4666619,18.8212838 C9.17374844,21.5729486 11.5304792,25.4091833 10.5017388,27.4507587 C8.88326767,30.3507922 4.8236619,29.0329933 3.0615946,27.1146022 C-1.16188617,22.5151721 -1.0188381,7.56223353 5.77895998,10.3522224" id="Fill-149" fill="#292F60"></path>
                <path d="M7.5289696,29.1408481 C5.88364267,29.1408481 4.08540229,28.2292838 3.0615946,27.1146022 C3.05830613,27.1107698 3.0544696,27.1069374 3.05118113,27.103105 L3.05063306,27.1025576 C3.04679652,27.0987251 3.04405613,27.0954402 3.04076767,27.0916078 C3.0402196,27.0910603 3.03967152,27.0905129 3.03912344,27.0899654 C3.03638306,27.0866805 3.0330946,27.0828481 3.02980613,27.0795631 C3.02925806,27.0790157 3.02870998,27.0784682 3.0281619,27.0779207 C3.02542152,27.0746358 3.02213306,27.0708034 3.0188446,27.0675184 C3.01829652,27.066971 3.01774844,27.0664235 3.01720036,27.065876 C3.01445998,27.0625911 3.01117152,27.0593062 3.00843113,27.0560212 C3.00788306,27.0549263 3.0067869,27.0538313 3.00623883,27.0532838 C3.00349844,27.0499989 3.00075806,27.0472615 2.99801767,27.0439765 C2.99692152,27.0428816 2.99582536,27.0417866 2.99472921,27.0406916 C2.99198883,27.0374067 2.98979652,27.0346693 2.98705613,27.0313844 C2.98595998,27.0302894 2.98486383,27.0291944 2.98376767,27.0280995 C2.98102729,27.025362 2.97883498,27.0226246 2.9760946,27.0193397 C2.97499844,27.0182447 2.97390229,27.0171497 2.97280613,27.0155073 C2.97061383,27.0127698 2.96787344,27.0100324 2.96513306,27.007295 C2.9640369,27.0056525 2.96294075,27.0045576 2.9618446,27.0029151 C2.95965229,27.0001777 2.9569119,26.9974402 2.9547196,26.9947028 C2.95307536,26.9930603 2.95197921,26.9919654 2.95033498,26.9903229 C2.94869075,26.988133 2.94704652,26.985943 2.94540229,26.9837531 C2.94320998,26.9815631 2.94101767,26.9793732 2.93937344,26.9771833 C2.93827729,26.9755408 2.93663306,26.9744458 2.9355369,26.9728034 C2.93279652,26.9695184 2.93060421,26.966781 2.92786383,26.9634961 C2.92731575,26.9629486 2.9262196,26.9618536 2.9262196,26.9618536 C2.92293113,26.9580212 2.91964267,26.9541888 2.91635421,26.9503564 L2.91580613,26.9498089 C2.29045036,26.2156302 1.76594075,25.2504123 1.35049844,24.1527028 C-0.620386174,18.9368034 -0.117251558,10.7310827 3.70942152,10.0740995 C2.83195036,10.7048034 2.26140229,11.1931609 1.79279652,12.6040324 C0.724046519,15.8248927 1.41297921,21.478781 4.94752729,22.1565687 C5.07139267,22.1801106 5.19525806,22.1916078 5.31747921,22.1916078 C6.32045998,22.1916078 7.24780613,21.4289598 7.62981575,20.4725017 C8.0441619,19.4361106 8.52756575,14.3275184 9.21211383,14.3275184 C9.23622921,14.3275184 9.26089267,14.3335408 9.28500806,14.3466805 C11.1572388,15.3403676 16.3201234,20.5195855 24.6185561,20.5195855 C26.6239696,20.5195855 28.8124407,20.2168257 31.1823254,19.4799095 C28.5581331,21.8997978 25.1189504,23.1250715 21.5553542,23.125619 C17.7171715,23.125619 13.7342965,21.7037978 10.4666619,18.8212838 C10.1734407,19.4448704 10.06821,20.1237531 10.06821,20.8250827 C10.0676619,22.6328816 10.7686523,24.5874067 10.7697484,26.1165352 C10.7702965,26.6125576 10.6968542,27.063686 10.5017388,27.4507587 C9.82376767,28.6656302 8.71610421,29.1408481 7.5289696,29.1408481" id="Fill-151" fill="#20244A"></path>
                <path d="M8.52263306,28.9426581 C8.1274696,28.5621553 7.70545036,28.2095743 7.26150806,27.8876525 C7.04172921,27.7283341 6.80112344,27.5712056 6.53037344,27.5597084 C6.20536383,27.5454738 5.90885421,27.7458536 5.68140229,27.9774402 C5.02754652,28.6415408 4.74693113,29.6155184 4.80612344,30.5451497 C4.86586383,31.474781 5.23800806,32.3622559 5.73895036,33.1478983 C6.26181575,33.9680324 6.95677729,34.7153508 7.8517869,35.0958536 C8.7473446,35.4763564 9.8659696,35.4270827 10.6080657,34.7991162" id="Fill-152" fill="#F5C097"></path>
            </g>
        </g>
    </g>
</svg>
