<?xml version="1.0" encoding="UTF-8"?>
<svg width="35px" height="36px" viewBox="0 0 35 36" version="1.1" xmlns="http://www.w3.org/2000/svg" xmlns:xlink="http://www.w3.org/1999/xlink">
    <!-- Generator: Sketch 53.2 (72643) - https://sketchapp.com -->
    <title>faq-3</title>
    <desc>Created with Sketch.</desc>
    <g id="PAGOS" stroke="none" stroke-width="1" fill="none" fill-rule="evenodd">
        <g id="faq-3" fill="#304087" fill-rule="nonzero">
            <path d="M27.1417779,5.51095312 C27.6156821,5.51095312 28,5.12191406 28,4.64203125 L28,1.90033594 C28,0.852539062 27.1585145,0 26.1239673,0 L7.96789579,0 C7.74031901,0 7.52204808,0.0916171875 7.36100122,0.25453125 L0.251396994,7.45277344 C0.0904890287,7.6156875 0,7.83675 0,8.06716406 L0,34.0995937 C6.94466835e-05,35.1474609 0.842041038,36 1.87700496,36 L26.1238978,36 C27.1584451,36 27.9999306,35.1474609 27.9999306,34.0996641 L27.9999306,20.8328203 C28,20.3530078 27.6157515,19.9638984 27.1417779,19.9638984 C26.6678737,19.9638984 26.2835558,20.3529375 26.2835558,20.8328203 L26.2835558,34.0996641 C26.2835558,34.1892422 26.2119562,34.2621562 26.1240367,34.2621562 L1.87707441,34.2621562 C1.78859933,34.2621562 1.71658312,34.1892422 1.71658312,34.0996641 L1.71658312,8.93622656 L6.9500852,8.93622656 C7.98470189,8.93622656 8.8262568,8.08403906 8.8262568,7.03659375 L8.8262568,1.73784375 L26.1239673,1.73784375 C26.2119562,1.73784375 26.2834863,1.81075781 26.2834863,1.90033594 L26.2834863,4.64203125 C26.2834863,5.12191406 26.6678043,5.51095312 27.1417779,5.51095312 Z M7.10981257,7.03652344 C7.10981257,7.12575 7.03814359,7.1983125 6.9500852,7.1983125 L2.93065005,7.1983125 L7.10981257,2.96690625 L7.10981257,7.03652344 Z" id="Shape"></path>
            <path d="M34.1432683,7.83248765 L33.1244285,6.83710959 C31.9820611,5.72089501 30.1233319,5.72103193 28.9808244,6.83710959 L20.8935164,14.7392708 L6.86588419,14.7392708 C6.38767901,14.7392708 6,15.1180745 6,15.5853319 C6,16.0525893 6.38767901,16.431393 6.86588419,16.431393 L19.1617481,16.431393 L13.9502575,21.5235743 L6.86588419,21.5235743 C6.38767901,21.5235743 6,21.902378 6,22.3696354 C6,22.8368928 6.38767901,23.2156965 6.86588419,23.2156965 L12.218419,23.2156965 L12.2044758,23.2293205 C12.0988152,23.3325622 12.0224425,23.4606557 11.9824344,23.601278 L10.6450014,28.3078778 L6.86588419,28.3078778 C6.38767901,28.3078778 6,28.6866815 6,29.1539389 C6,29.6211963 6.38767901,30 6.86588419,30 L11.303348,30 C11.3034181,30 11.4931587,29.9790504 11.5210452,29.9719303 C11.5255996,29.9707665 16.9860371,28.4902623 16.9860371,28.4902623 C17.1299541,28.4512386 17.2611189,28.3764774 17.3667094,28.2733042 L34.1433383,11.8809563 C35.2855656,10.7648787 35.2855656,8.94870224 34.1432683,7.83248765 Z M12.547242,27.9383851 L13.2540047,25.4514119 L15.0925548,27.2478711 L12.547242,27.9383851 Z M16.7544667,26.4786935 L14.0414142,23.8277523 L27.889956,10.296252 L30.6030785,12.9471932 L16.7544667,26.4786935 Z M32.9186426,10.6845036 L31.8276341,11.750535 L29.1145116,9.0995254 L30.2055201,8.03349391 C30.6727949,7.57698515 31.4328784,7.57705361 31.8998028,8.03349391 L32.9186426,9.0290089 C33.3857772,9.4854492 33.3857772,10.2281317 32.9186426,10.6845036 Z" id="Shape"></path>
        </g>
    </g>
</svg>
