<svg height="512" width="512" xmlns="http://www.w3.org/2000/svg" fill="#304087">
  <path d="M162.77 237.348c2.936 0 5.312-2.376 5.312-5.312s-2.376-5.312-5.312-5.312h-17.793c-2.936 0-5.312 2.376-5.312 5.312s2.376 5.312 5.312 5.312z"/>
  <path d="M21.157 32.199v173.968c0 17.191 13.985 31.182 31.177 31.182h46.215c2.936 0 5.312-2.376 5.312-5.312s-2.376-5.312-5.312-5.312H52.334c-11.335 0-20.553-9.223-20.553-20.558V32.199c0-11.335 9.218-20.558 20.553-20.558h407.327c11.335 0 20.558 9.223 20.558 20.558v173.968c0 11.335-9.223 20.558-20.558 20.558H184.127c-2.936 0-5.312 2.376-5.312 5.312s2.376 5.312 5.312 5.312H459.66c17.191 0 31.182-13.991 31.182-31.182V32.199c0-17.191-13.991-31.182-31.182-31.182H52.334c-17.191 0-31.177 13.991-31.177 31.182z"/>
  <path d="M256.047 191.533c39.861 0 72.288-32.468 72.288-72.376 0-39.861-32.427-72.288-72.288-72.288-39.907 0-72.376 32.427-72.376 72.288 0 39.907 32.468 72.376 72.376 72.376zm0-134.04c34.004 0 61.664 27.66 61.664 61.664 0 34.051-27.66 61.752-61.664 61.752-34.051 0-61.752-27.701-61.752-61.752 0-34.004 27.701-61.664 61.752-61.664zM133.881 119.183c0-15.63-12.72-28.344-28.35-28.344-15.651 0-28.381 12.715-28.381 28.344 0 15.651 12.73 28.381 28.381 28.381 15.631-.001 28.35-12.731 28.35-28.381zm-28.349 17.756c-9.789 0-17.757-7.968-17.757-17.757 0-9.773 7.968-17.72 17.757-17.72 9.773 0 17.726 7.947 17.726 17.72-.001 9.789-7.953 17.757-17.726 17.757zM434.854 119.183c0-15.63-12.72-28.344-28.35-28.344-15.651 0-28.381 12.715-28.381 28.344 0 15.651 12.73 28.381 28.381 28.381 15.63-.001 28.35-12.731 28.35-28.381zm-46.106 0c0-9.773 7.968-17.72 17.757-17.72 9.773 0 17.726 7.947 17.726 17.72 0 9.789-7.952 17.757-17.726 17.757-9.789-.001-17.757-7.969-17.757-17.757z"/>
  <path d="M256.036 124.51c4.85 0 8.793 3.974 8.793 8.86 0 4.85-3.942 8.793-8.793 8.793-2.957 0-5.706-1.452-7.356-3.891-1.639-2.423-4.938-3.071-7.377-1.421-2.428 1.644-3.066 4.949-1.421 7.377 2.604 3.848 6.476 6.525 10.842 7.761v3.812c0 2.936 2.376 5.312 5.312 5.312s5.312-2.376 5.312-5.312v-3.846c8.114-2.328 14.105-9.732 14.105-18.585 0-10.743-8.71-19.484-19.417-19.484-4.887 0-8.86-3.942-8.86-8.793 0-4.881 3.974-8.855 8.86-8.855 2.786 0 5.436 1.349 7.086 3.61 1.738 2.376 5.058 2.884 7.423 1.157 2.371-1.733 2.884-5.058 1.157-7.423-2.568-3.514-6.259-5.956-10.354-7.137V82.6c0-2.936-2.376-5.312-5.312-5.312s-5.312 2.376-5.312 5.312v3.843c-8.151 2.329-14.172 9.761-14.172 18.65 0 10.707 8.741 19.417 19.484 19.417zM242.103 371.149v-89.764c0-2.936-2.376-5.312-5.312-5.312s-5.312 2.376-5.312 5.312v84.452H211.86c-2.163 0-4.114 1.312-4.923 3.32-.814 2.008-.327 4.306 1.229 5.81l44.182 42.709c1.032.996 2.36 1.494 3.693 1.494s2.666-.498 3.693-1.494l44.104-42.709c1.556-1.51 2.044-3.808 1.229-5.81-.809-2.008-2.76-3.32-4.923-3.32h-19.619v-84.452c0-2.936-2.376-5.312-5.312-5.312s-5.312 2.376-5.312 5.312v89.764c0 2.936 2.376 5.312 5.312 5.312h11.812l-30.99 30.004L225 376.461h11.791c2.936 0 5.312-2.376 5.312-5.312zM95.541 322.532v135.124H75.922c-2.163 0-4.114 1.312-4.923 3.32-.814 2.008-.327 4.306 1.229 5.81l44.177 42.703c1.032.996 2.36 1.494 3.693 1.494s2.666-.498 3.693-1.494l44.109-42.703c1.556-1.504 2.044-3.802 1.229-5.81-.809-2.008-2.76-3.32-4.923-3.32h-19.619V322.532c0-2.936-2.376-5.312-5.312-5.312s-5.312 2.376-5.312 5.312v140.436c0 2.936 2.376 5.312 5.312 5.312h11.807l-30.99 29.999-31.03-29.999h11.791c2.936 0 5.312-2.376 5.312-5.312V322.532c0-2.936-2.376-5.312-5.312-5.312s-5.312 2.376-5.312 5.312zM378.041 462.968V322.532c0-2.936-2.376-5.312-5.312-5.312s-5.312 2.376-5.312 5.312v135.124h-19.619c-2.163 0-4.114 1.312-4.923 3.32-.814 2.008-.327 4.306 1.229 5.81l44.182 42.703c1.032.996 2.36 1.494 3.694 1.494 1.333 0 2.666-.498 3.693-1.494l44.104-42.703c1.556-1.51 2.044-3.808 1.229-5.81-.809-2.008-2.76-3.32-4.923-3.32h-19.619V322.532c0-2.936-2.376-5.312-5.312-5.312s-5.312 2.376-5.312 5.312v140.436c0 2.936 2.376 5.312 5.312 5.312h11.807l-30.985 29.999-31.037-29.999h11.791c2.937 0 5.313-2.376 5.313-5.312z"/>
</svg>
