<?xml version="1.0" encoding="UTF-8"?>
<svg width="431px" height="394px" viewBox="0 0 431 394" version="1.1" xmlns="http://www.w3.org/2000/svg" xmlns:xlink="http://www.w3.org/1999/xlink">
    <!-- Generator: Sketch 53.2 (72643) - https://sketchapp.com -->
    <title>pago-rechazado</title>
    <desc>Created with Sketch.</desc>
    <g id="PAGOS" stroke="none" stroke-width="1" fill="none" fill-rule="evenodd">
        <g id="pago-rechazado" transform="translate(-45.000000, -86.000000)" fill-rule="nonzero">
            <g id="Group-2-Copy" fill="#406094" opacity="0.1">
                <path d="M179.154387,129.095285 C192.972225,111.426304 214.663383,107.827334 234.405091,109.232206 C296.414706,113.646806 352.387761,156.555434 400.803544,205.093704 C418.330784,222.665748 435.58654,241.618838 446.973376,265.80117 C470.13471,315.06148 463.257503,383.307716 431.049992,423.889855 C420.090908,437.700792 406.80572,448.284464 393.168135,457.672267 C368.920797,474.356134 342.763272,487.747663 31538D39F8738,491.562141 C295.6131,494.280332 275.762176,492.064863 256.235616,488.283208 C201.72691,477.688559 148.223504,454.264295 103.377729,414.167099 C83.7004288,396.585175 65.1618581,374.724997 57.0567637,346.264283 C48.9516694,317.803569 54.1421576,281.771425 74.2268454,264.93269 C82.5349551,257.967008 92.4641949,254.824077 102.188992,251.866296 C116.503018,247.522209 131.042621,243.23315 143.961137,234.3958 C157.302633,225.268209 173.097821,207.614122 170.459031,187.409231 C167.626468,165.748268 165.354176,146.709223 179.154387,129.095285 Z" id="Path" transform="translate(257.022649, 300.862842) rotate(160.000000) translate(-257.022649, -300.862842) "></path>
                <path d="M214.752628,107.748609 C228.572228,90.0807277 250.265387,86.4813835 270.008768,87.8855084 C332.023638,92.2977608 388.000204,135.200883 436.418663,183.733398 C453.946871,201.303358 471.203529,220.254252 482.59059,244.434121 C505.75238,293.689412 498.872414,361.929929 466.660816,402.509557 C455.700342,416.319641 442.413663,426.902813 428.774594,436.290231 C404.524618,452.973415 378.364394,466.364607 350.837345,470.179625 C331.209913,472.898201 311.357332,470.683553 291.829193,466.902845 C237.31608,456.310844 183.808761,432.890313 138.960354,392.798025 C119.281898,375.218254 100.742407,353.360565 92.6375084,324.902583 C84.5326098,296.444601 89.7246903,260.415427 109.811658,243.577521 C118.120711,236.612182 128.050915,233.46921 137.776651,230.511378 C152.09206,226.167216 166.633064,221.87807 179.552983,213.041079 C192.895929,203.91386 208.69305,186.260808 206.05467,166.057758 C203.222547,144.398769 200.950659,125.361453 214.752628,107.748609 Z" id="Path" transform="translate(292.621463, 279.498602) rotate(130.000000) translate(-292.621463, -279.498602) "></path>
            </g>
            <g id="Group-Copy" transform="translate(232.000000, 132.000000)">
                <path d="M101,169.710123 L100.272567,173.970876 C100.272567,173.970876 101.36372,203.441102 93.3619249,194.209468 C85.3601302,184.977834 90.8158998,172.550629 90.8158998,172.550629 L92.9982113,169 L101,169.710123 Z" id="Path" fill="#FBBEBE"></path>
                <path d="M55.1437161,32 C55.1437161,32 53.7356923,46.9999971 53.0316776,47.7142863 C52.3276628,48.4285755 63.5918531,62 63.5918531,62 L73.4480081,52.7143107 C73.4480081,52.7143107 72.7439991,39.1428803 74.8560319,36.2857352 C76.9680647,33.4285901 55.1437161,32 55.1437161,32 Z" id="Path" fill="#FBBEBE"></path>
                <path d="M55.1437161,32 C55.1437161,32 53.7356923,46.9999971 53.0316776,47.7142863 C52.3276628,48.4285755 63.5918531,62 63.5918531,62 L73.4480081,52.7143107 C73.4480081,52.7143107 72.7439991,39.1428803 74.8560319,36.2857352 C76.9680647,33.4285901 55.1437161,32 55.1437161,32 Z" id="Path" fill="#000000" opacity="0.1"></path>
                <polygon id="Path" fill="#3F3D56" points="29 306.181927 29 319.272293 24.058619 320 17 317.818073 19.117238 304"></polygon>
                <path d="M22.2223059,312.066665 C22.2223059,312.066665 20.0667695,306.346872 16.4742068,307.061849 C12.881644,307.776826 12.163128,312.066665 12.163128,312.066665 C12.163128,312.066665 9.28908133,322.791268 4.97800252,326.366135 C0.666923719,329.941003 -3.64414919,339.235663 4.97800252,340.665605 C13.6001542,342.095548 20.7852797,338.520686 20.7852797,337.805715 C20.7852797,337.090744 22.940822,332.800899 26.5333847,332.085922 C30.1259475,331.370945 33,330.65598 33,327.796083 C33,324.936187 30.8444576,322.076297 30.8444576,322.076297 C30.8444576,322.076297 30.1259475,308.514317 28.6889212,310.290491 C27.6951281,311.693738 26.9648401,313.26442 26.5333847,314.926556 L22.2223059,312.066665 Z" id="Path" fill="#2F2E41"></path>
                <polygon id="Path" fill="#3F3D56" points="59.7501411 299.72209 57 310.555226 63.8750705 312 67.3126058 308.388955 68 299"></polygon>
                <path d="M59.4012248,309.09339 C59.4012248,309.09339 62.2462091,306.96537 63.6687041,306.96537 L65.8024438,306.96537 C65.8024438,306.96537 65.8024438,302 69.3586843,302 C72.9149249,302 72.2036686,305.546692 72.2036686,305.546692 C72.2036686,305.546692 80.0273884,317.605458 82.1611281,319.733466 C84.2948678,321.861474 95.6748223,328.245528 86.4286133,331.082884 C77.1824042,333.92024 70.7811735,333.920234 66.5136942,328.954864 C66.5136942,328.954864 62.2462091,326.82685 59.4012248,326.82685 C56.5562405,326.82685 53,325.408172 53,323.280158 C53,321.152144 55.1337397,316.89611 55.1337397,316.89611 C55.1337397,316.89611 56.5562347,304.12802 57.2674793,305.546692 C57.9787239,306.965364 59.4012248,309.09339 59.4012248,309.09339 Z" id="Path" fill="#2F2E41"></path>
                <path d="M27.9483141,135 L27.9483141,158.641953 C27.9483141,158.641953 20.024793,204.493017 20.024793,219.537885 C20.024793,234.582753 7.77934394,306.225043 13.5419127,307.657889 C19.3044816,309.090736 32.9905536,311.240003 33.710871,309.090736 C34.4311884,306.941469 39.473428,238.881275 40.1937513,238.164878 C40.9140747,237.448481 56.0407875,180.851059 56.0407875,180.851059 L58.9220689,181.567479 L60.3627037,246.045531 C60.3627037,246.045531 53.159506,304.075794 56.7611049,304.075794 C60.3627037,304.075794 75.4894224,303.359368 75.4894224,299.060834 C75.4894224,294.7623 83.4129434,215.239369 83.4129434,215.239369 C83.4129434,215.239369 92.7770756,152.194164 89.1755004,145.746358 C85.5739252,139.298551 85.5739016,135.716438 85.5739016,135.716438 L27.9483141,135 Z" id="Path" fill="#2F2E41"></path>
                <circle id="Oval" fill="#FBBEBE" cx="67.5" cy="28.5" r="14.5"></circle>
                <path d="M63.9830451,53.4039563 C63.9830451,53.4039563 54.9788079,45.8700539 54.2584656,43 C54.2584656,43 49.5762644,47.6638427 49.5762644,48.3813547 C49.5762644,49.0988667 29.4067749,51.2514144 24.3644084,56.9915281 C19.3220419,62.7316417 15,74.9293927 15,74.9293927 L27.2457716,97.8898531 C27.2457716,97.8898531 27.9661139,110.805116 27.9661139,112.24014 C27.9661139,113.675164 24.3644202,136.635654 25.805093,137.353148 C27.2457657,138.070643 41.6525524,145.24581 53.8983122,143.81078 C66.144072,142.37575 78.3898555,140.223208 81.9915255,140.223208 C85.5931956,140.223208 88.4745766,141.658238 88.4745766,140.223208 C88.4745766,138.788178 86.3135615,135.918118 86.3135615,134.483089 C86.3135615,133.048059 85.5932192,129.460487 85.5932192,127.307945 C85.5932192,125.155403 84.1525406,121.567831 84.1525406,118.697772 C84.1525406,115.827712 100,77.0819346 100,77.0819346 C100,77.0819346 99.2796577,64.8841777 87.7542284,59.1440699 C76.228799,53.4039622 74.7881322,51.2514144 74.7881322,51.2514144 C74.7881322,51.2514144 74.5635633,46.9463248 73.9555084,46.9463248 C73.3474535,46.9463248 71.1864621,53.4039563 65.4237238,54.1214742 L63.9830451,53.4039563 Z" id="Path" fill="#D0CDE1"></path>
                <polygon id="Path" fill="#FBBEBE" points="25 148.894928 30.0401891 157 43 154.052536 33.6400709 143"></polygon>
                <path d="M95.5396268,71 L99.7777101,76.7487764 C99.7777101,76.7487764 108.253871,118.427419 106.841176,133.517964 C105.428482,148.608508 104.015787,160.106061 104.015787,160.106061 C104.015787,160.106061 106.841176,170.885025 104.722132,170.885025 C102.603087,170.885025 89.888855,171.60362 89.888855,169.44783 C89.888855,167.292039 91.3015552,153.63869 91.3015552,153.63869 L87.7698105,122.020411 L80,111.241453 L95.5396268,71 Z" id="Path" fill="#D0CDE1"></path>
                <path d="M57.8306836,21.6212975 C58.7203994,21.2466005 59.7489608,21.5505609 60.7017996,21.3907256 C61.8207147,21.2030338 62.8218608,20.3793278 63.951773,20.483284 C64.4872285,20.5819324 65.0073993,20.7497456 65.4990504,20.9824539 C65.9975682,21.2152174 66.5701286,21.2355922 67.0841265,21.0388597 C67.3296363,20.9255921 67.5108732,20.7086306 67.5777009,20.447994 C67.6445286,20.1873574 67.5898625,19.9106765 67.428825,19.6944905 C68.3848114,19.6107865 69.2884827,19.2242666 70.0067608,18.5918512 C70.1499006,18.4441813 70.3160135,18.3203506 70.4987345,18.2251039 C70.9292679,18.1134607 71.387121,18.1843246 71.7630841,18.4207928 L73.4237696,19.1814338 C73.7978641,19.3127117 74.126891,19.5465823 74.37276,19.8559713 C74.5702906,20.1620035 74.6089532,20.5735132 74.8887356,20.8078438 C75.2457121,21.106826 75.7793449,20.9605166 76.2452676,20.9898235 C77.1208551,21.0744759 77.7941025,21.7968766 77.8118941,22.6708281 C77.8052935,23.1550633 77.6280354,23.7491446 78.0134816,24.0455104 C78.2370454,24.2174034 78.5544478,24.189896 78.8163585,24.2955511 C79.4951636,24.5693819 79.4978086,25.5083324 79.3975183,26.229414 C79.2972279,26.9504957 79.3468459,27.9017882 80.0445534,28.1238124 C80.5358183,28.2801434 81.0378777,27.9468761 81.5482713,27.8725464 C82.3182522,27.7604096 83.0307218,28.2389563 83.7161633,28.6051057 C84.4016049,28.9712552 85.3122008,29.2182415 85.9063057,28.7187994 C86.4591388,28.2540507 86.4236693,27.4038081 86.2716462,26.7002892 C86.0534407,25.6916292 85.6950578,24.7180415 85.2068051,23.8075275 C85.0261256,23.5395899 84.9196586,23.2290911 84.8981181,22.9072779 C84.9819281,22.4490499 85.2589965,22.048328 85.6594074,21.8062309 C86.4992549,21.1464978 87.4653546,20.4823132 87.7372377,19.4533999 C87.9368056,18.6982581 87.7123244,17.9018582 87.7296541,17.1213104 C87.7507487,16.1715214 88.1308155,15.2258169 87.9525745,14.2924365 C87.6294948,12.6005876 85.7345343,11.7863644 84.5113017,10.5664977 C82.830439,8.89025229 82.2847188,6.2091973 80.3010191,4.89996559 C78.7140665,3.85258378 76.6383153,3.97761302 74.8311706,3.37835229 C72.8459697,2.72005161 71.2479663,1.20765479 69.2897339,0.473952998 C67.1254876,-0.319104931 64.7177613,-0.109262821 62.7255023,1.04604967 C62.1412379,1.47652451 61.4890877,1.80760606 60.7956621,2.02578476 C60.2116608,2.09300807 59.621429,2.08620547 59.0391541,2.00554047 C57.8817455,1.9462187 56.7283532,2.18267992 55.6890929,2.69234889 C55.2913485,2.85031788 54.9601099,3.13897439 54.7505932,3.51020066 C54.3999969,4.28391749 54.9093361,5.49347268 54.1408207,5.86342237 C53.7825098,6.03590732 53.3594971,5.8706677 52.9614454,5.87935144 C52.1874016,5.89623944 51.5919087,6.56549689 51.2236015,7.24218317 C50.9364336,7.95755934 50.5241771,8.61682176 50.0058854,9.18950086 C49.0597247,10.0128872 47.3407355,10.1489561 47.0935273,11.3743102 C47.0890652,11.8931 47.118716,12.4116254 47.1822904,12.926574 C47.1108034,14.0124851 45.9412695,14.8377657 46.0023075,15.9243043 C46.0727163,17.177586 47.6752054,17.7899048 48.1035736,18.9707629 C48.4297511,19.8699174 48.0005132,20.8421171 47.7051645,21.7516897 C47.4098158,22.6612623 47.3207429,23.8271561 48.0835156,24.4094342 C48.3826054,24.6377507 48.7671461,24.731354 49.0721574,24.9517859 C49.8614458,25.5222015 49.8514793,26.6733501 49.7638303,27.6391865 C49.6612409,28.0462808 49.7686831,28.4774248 50.0505946,28.7899149 C50.3142321,28.9485069 50.6338232,28.9866398 50.9277524,28.8945755 C51.8855856,28.663787 52.7053033,28.050852 53.1937127,27.2002286 C53.4478968,26.7826338 53.4989803,26.4145783 53.9607329,26.1930039 C54.2740546,26.0426515 54.6545325,26.1768499 54.9734659,25.9817352 C56.4907723,25.0535993 55.9684642,22.4055272 57.8306836,21.6212975 Z" id="Path" fill="#2F2E41"></path>
                <path d="M17.8069221,72 L15.6237547,74.1540718 C15.6237547,74.1540718 2.52477402,112.927282 6.89107901,121.543557 C11.257384,130.159833 19.9900955,151.700504 22.9009835,150.982478 C25.8118714,150.264452 36,143.802254 36,143.084234 C36,142.366214 23.628698,122.261583 23.628698,122.261583 C23.628698,122.261583 22.173251,117.953445 22.9009715,117.235425 C23.628692,116.517405 23.628698,117.235425 22.9009715,115.79938 C22.1732451,114.363334 22.173251,115.79938 23.628698,114.363334 C25.0841449,112.927288 25.0841449,112.927288 25.0841449,112.209268 C25.0841449,111.491248 29.4504798,93.5406827 29.4504798,93.5406827 L17.8069221,72 Z" id="Path" fill="#D0CDE1"></path>
                <polygon id="Path" fill="#2F2E41" points="29 156.249897 44.8404255 151 47 156.249897 29.7204492 160"></polygon>
                <polygon id="Path" fill="#000000" opacity="0.1" points="29 156.249897 44.8404255 151 47 156.249897 29.7204492 160"></polygon>
                <polygon id="Path" fill="#000000" opacity="0.1" points="50 49 62.5260293 59 64 56.8569335"></polygon>
                <polygon id="Path" fill="#000000" opacity="0.1" points="75 51 66 55.8997702 66.7498974 58"></polygon>
            </g>
            <g id="Group-Copy-2" transform="translate(104.000000, 112.000000)">
                <circle id="Oval" fill="#304087" cx="102.5" cy="224.5" r="38.5"></circle>
                <path d="M82.4102328,167.422018 L82.4101835,167.422018 C67.6582896,172.385742 51.5612569,165.290305 45.2319324,151.034156 L3.4949525,57.0259511 C-1.13736148,46.5921677 -1.1660014,34.6826062 3.41607702,24.2265342 C7.99815544,13.7704623 16.7657367,5.73820013 27.5623525,2.1053575 L27.5624331,2.10532607 C38.4147231,-1.54625898 50.3019111,-0.411556333 60.2725056,5.22769663 C70.2431002,10.8669496 77.3619516,20.4818431 79.8615073,31.6850776 L102.266911,132.108141 C105.643592,147.24271 97.0707083,162.489054 82.4102328,167.422018 L82.4102328,167.422018 Z" id="Path" fill="#304087"></path>
                <circle id="Oval" fill="#000000" opacity="0.1" cx="102.5" cy="224.5" r="38.5"></circle>
                <path d="M82.4102328,167.422018 L82.4101835,167.422018 C67.6582896,172.385742 51.5612569,165.290305 45.2319324,151.034156 L3.4949525,57.0259511 C-1.13736148,46.5921677 -1.1660014,34.6826062 3.41607702,24.2265342 C7.99815544,13.7704623 16.7657367,5.73820013 27.5623525,2.1053575 L27.5624331,2.10532607 C38.4147231,-1.54625898 50.3019111,-0.411556333 60.2725056,5.22769663 C70.2431002,10.8669496 77.3619516,20.4818431 79.8615073,31.6850776 L102.266911,132.108141 C105.643592,147.24271 97.0707083,162.489054 82.4102328,167.422018 L82.4102328,167.422018 Z" id="Path" fill="#000000" opacity="0.1"></path>
                <circle id="Oval" fill="#304087" cx="101" cy="220" r="31"></circle>
                <path d="M79.0094463,156.552737 L79.0094013,156.552737 C65.4032835,161.105268 50.5565014,154.59762 44.7187729,141.522454 L6.22348994,55.3018988 C1.95097615,45.7324526 1.92456527,34.8094872 6.15075331,25.2196025 C10.3769413,15.6297177 18.4635401,8.26285023 28.4215792,4.93094623 L28.4216602,4.9309193 C38.4310561,1.58183349 49.3949693,2.62253779 58.5911503,7.79463386 C67.7873313,12.9667299 74.3532636,21.7851231 76.6586801,32.0602788 L97.3238515,124.164275 C100.438261,138.045088 92.5312379,152.028414 79.0094463,156.552737 L79.0094463,156.552737 Z" id="Path" fill="#304087"></path>
            </g>
        </g>
    </g>
</svg>
