<svg width="378" height="451" viewBox="0 0 378 451" fill="none" xmlns="http://www.w3.org/2000/svg">
<path d="M325.713 209.381L313.913 165.627C313.408 163.775 312.196 162.196 310.539 161.232C308.881 160.267 306.912 159.993 305.055 160.47C304.095 160.717 303.195 161.157 302.409 161.764C301.624 162.371 300.971 163.131 300.488 163.999C300.006 164.867 299.706 165.824 299.605 166.812C299.504 167.801 299.605 168.799 299.902 169.747L313.55 214.82L320.691 242.558C319.651 243.353 318.88 244.45 318.485 245.7C318.089 246.949 318.086 248.29 318.477 249.541C318.869 250.792 319.635 251.892 320.672 252.691C321.709 253.49 322.967 253.951 324.274 254.009C325.581 254.067 326.875 253.721 327.979 253.018C329.083 252.314 329.944 251.287 330.445 250.076C330.946 248.865 331.063 247.529 330.779 246.249C330.496 244.969 329.826 243.808 328.861 242.923L325.713 209.381Z" fill="#A0616A"/>
<path d="M226.419 199.958L262.272 172.316C263.787 171.14 264.781 169.415 265.038 167.512C265.294 165.609 264.794 163.682 263.645 162.145C263.05 161.35 262.3 160.685 261.44 160.19C260.581 159.695 259.63 159.38 258.645 159.265C257.66 159.151 256.662 159.238 255.712 159.522C254.762 159.806 253.879 160.282 253.118 160.919L216.754 190.775L193.895 207.984C192.764 207.325 191.458 207.031 190.154 207.142C188.85 207.253 187.612 207.763 186.607 208.603C185.603 209.444 184.881 210.573 184.54 211.839C184.199 213.104 184.255 214.444 184.701 215.677C185.146 216.909 185.96 217.975 187.031 218.728C188.102 219.481 189.378 219.886 190.686 219.887C191.995 219.888 193.272 219.486 194.344 218.734C195.417 217.983 196.232 216.919 196.68 215.688L226.419 199.958Z" fill="#A0616A"/>
<path d="M255.641 206.312L254.06 241.671L303.682 230.867C299.458 216.659 296.586 214.235 299.76 204.348L255.641 206.312Z" fill="#A0616A"/>
<path d="M286.152 141.49H269.618L262.517 153.662L259.134 153.475C257.479 153.383 255.823 153.631 254.267 154.202C252.711 154.773 251.287 155.657 250.084 156.798C248.88 157.939 247.921 159.314 247.266 160.839C246.61 162.364 246.272 164.007 246.272 165.667L250.441 172.14C250.441 172.14 242.986 185.156 253.725 191.56C253.725 191.56 251.81 203.625 253.725 203.495C255.641 203.366 260.053 200.91 255.641 203.366C251.229 205.821 251.558 206.151 252.129 206.722L252.699 207.294L299.091 215.098C299.091 215.098 300.448 206.088 300.594 204.481C300.74 202.874 299.76 206.803 300.74 202.874C301.721 198.946 303.192 200.419 301.721 198.946C300.25 197.472 311.25 179.22 306.73 172.14L313.976 165.06C313.976 158.269 303.088 152.763 296.309 152.763H295.441L286.152 141.49Z" fill="#E6E6E6"/>
<path d="M246.315 436.554H239.622L236.438 410.695L246.315 410.695L246.315 436.554Z" fill="#A0616A"/>
<path d="M226.116 446.446C226.119 447.197 226.418 447.916 226.948 448.448C227.477 448.979 228.195 449.28 228.944 449.285H241.542L241.932 448.475L243.714 444.791L244.404 448.475L244.557 449.285H249.309L249.241 448.469L247.974 433.247L246.316 433.145L239.155 432.72L237.396 432.613V437.158C236.061 438.58 225.584 443.958 226.116 446.446Z" fill="#2F2E41"/>
<path d="M345.772 418.994L340.144 422.621L323.501 402.599L331.808 397.246L345.772 418.994Z" fill="#A0616A"/>
<path d="M334.127 438.26C334.535 438.89 335.175 439.333 335.908 439.493C336.64 439.653 337.406 439.517 338.039 439.115L348.634 432.287L348.524 431.394L348.034 427.33L350.603 430.054L351.17 430.653L355.166 428.077L354.668 427.428L345.382 415.313L343.933 416.126L337.68 419.65L336.143 420.513L338.597 424.335C338.243 426.255 332.336 436.456 334.127 438.26Z" fill="#2F2E41"/>
<path d="M302.904 226.872C302.904 226.872 271.185 243.681 254.408 232.213C254.408 232.213 250.739 250.019 249.268 251.493C247.797 252.966 245.454 253.608 247.116 255.251C248.778 256.895 249.703 259.114 246.544 261.933C243.385 264.752 240.236 263.858 243.281 266.761C246.327 269.663 234.071 340.872 234.071 340.872C234.071 340.872 236.032 407.093 234.071 409.095C232.11 411.098 229.489 411.547 232.025 414.023C234.561 416.5 234.561 414.579 234.561 417.995V421.411L235.722 424.806H251.638C251.638 424.806 255.48 420.336 251.638 416.454C247.797 412.572 252.807 411.509 253.979 407.866C255.151 404.223 257.111 408.152 255.15 404.223C253.19 400.294 252.248 401.042 252.229 398.458C252.209 395.874 281.132 294.709 281.132 294.709L284.635 350.703L326.771 412.025L339.174 402.706C339.174 402.706 330.144 389.972 332.256 388.221C334.367 386.47 326.032 384.275 328.661 382.3C331.289 380.325 324.962 378.335 327.346 375.717C329.731 373.099 324.061 366.501 320.775 366.501C317.49 366.501 312.879 355.503 312.879 355.503L319.762 268.615L302.904 226.872Z" fill="#2F2E41"/>
<path d="M269.285 105.749C269.061 106.044 267.272 105.885 265.122 105.571C260.87 104.949 260.29 105.688 257.111 108.584C252.507 112.78 255.125 138.373 252.862 143.919L252.131 144.458C253.581 144.181 255.005 143.781 256.388 143.265C257.169 140.795 257.953 138.318 258.741 135.85C259.486 137.77 259.954 139.786 260.131 141.838C261.226 141.406 262.314 140.349 266.888 138.931C269.191 137.366 285.853 135.792 287.995 135.103C293.431 116.574 284.67 109.081 269.285 105.749Z" fill="#2F2E41"/>
<path d="M274.911 134.322C283.704 134.322 290.833 127.181 290.833 118.371C290.833 109.562 283.704 102.42 274.911 102.42C266.117 102.42 258.988 109.562 258.988 118.371C258.988 127.181 266.117 134.322 274.911 134.322Z" fill="#A0616A"/>
<path d="M284.935 104.343C284.038 104.211 283.174 103.907 282.39 103.449C282.002 103.214 281.687 102.875 281.483 102.469C281.278 102.064 281.191 101.608 281.232 101.156C281.428 100.022 282.707 99.3456 283.853 99.4146C284.994 99.5794 286.079 100.019 287.013 100.696C286.91 99.6003 286.443 98.5713 285.687 97.774C284.93 96.9767 283.928 96.4572 282.841 96.299C284.349 96.2176 285.916 96.1459 287.31 96.7267C288.704 97.3075 289.865 98.7456 289.614 100.237C291.957 99.9344 294.268 101.57 295.236 103.73C296.203 105.889 296.011 108.425 295.238 110.662C295.162 111.005 295.013 111.327 294.802 111.607C294.591 111.886 294.322 112.118 294.013 112.284C293.224 112.584 292.376 112.081 291.692 111.586C288.123 108.996 284.874 105.99 282.014 102.631" fill="#2F2E41"/>
<path d="M291.877 135.329C291.202 135.648 291.554 136.832 291.029 137.363C290.802 137.587 290.527 137.758 290.225 137.863C290.147 136.875 289.917 135.904 289.544 134.986C289.475 134.819 289.363 134.632 289.186 134.647C288.98 134.671 288.926 134.941 288.921 135.143C288.88 136.142 288.659 137.125 288.269 138.045C288.265 138.055 288.26 138.07 288.255 138.08C288.103 138.075 287.946 138.07 287.799 138.065C286.662 138.021 284.142 135.094 283.583 136.086C285.554 132.584 287.956 127.32 288.323 123.317C288.451 122.479 288.389 121.623 288.142 120.813C288.013 120.409 287.771 120.051 287.446 119.782C287.12 119.512 286.723 119.341 286.304 119.29C286.097 119.281 285.89 119.317 285.699 119.397C285.507 119.477 285.336 119.598 285.197 119.752C285.058 119.906 284.954 120.089 284.894 120.287C284.834 120.486 284.818 120.696 284.848 120.901L284.563 120.862C281.926 118.711 284.201 114.974 281.132 113.495C280.093 112.994 273.73 114.669 272.607 114.374C272.583 113.19 272.342 112.02 271.896 110.922C271.828 110.755 271.715 110.568 271.538 110.583C271.333 110.608 271.279 110.878 271.274 111.079C271.232 112.078 271.011 113.061 270.622 113.982C269.067 113.761 267.483 113.844 265.96 114.227C264.617 114.581 263.342 115.19 261.994 115.514C261.328 115.718 260.627 115.785 259.934 115.709C259.241 115.633 258.571 115.416 257.964 115.072C256.253 113.923 255.954 111.379 256.807 109.503C257.425 108.299 258.259 107.22 259.268 106.32C260.038 105.574 260.837 104.857 261.636 104.14C262.352 103.497 263.068 102.853 263.783 102.21C264.684 101.361 265.644 100.576 266.656 99.8626C268.271 98.8019 270.086 98.0831 271.988 97.7504C273.891 97.4176 275.842 97.478 277.72 97.9277C279.975 98.4679 282.99 97.7067 285.054 98.7625C286.132 99.3175 288.52 101.444 289.466 102.2C291.887 104.13 290.248 102.558 292.897 103.673C299.213 106.334 296.42 133.187 291.877 135.329Z" fill="#2F2E41"/>
<path d="M115.582 251.753C170.116 251.753 214.325 207.464 214.325 152.832C214.325 98.1995 170.116 53.9112 115.582 53.9112C61.0468 53.9112 16.8376 98.1995 16.8376 152.832C16.8376 207.464 61.0468 251.753 115.582 251.753Z" fill="white"/>
<path d="M115.582 252.74C60.5906 252.74 15.8521 207.921 15.8521 152.832C15.8521 97.7424 60.5906 52.9237 115.582 52.9237C170.572 52.9237 215.311 97.7424 215.311 152.832C215.311 207.921 170.572 252.74 115.582 252.74ZM115.582 54.8985C61.6776 54.8985 17.8233 98.8313 17.8233 152.832C17.8233 206.832 61.6776 250.765 115.582 250.765C169.485 250.765 213.34 206.832 213.34 152.832C213.34 98.8313 169.485 54.8985 115.582 54.8985Z" fill="#304087"/>
<path d="M102.111 204.316C100.406 204.316 98.7239 203.918 97.1988 203.154C95.6738 202.389 94.3473 201.28 93.3246 199.913L66.3857 163.93C65.5203 162.774 64.8907 161.458 64.5328 160.059C64.1748 158.659 64.0956 157.202 64.2996 155.772C64.5037 154.341 64.987 152.965 65.7219 151.722C66.4568 150.478 67.429 149.392 68.583 148.525C69.7369 147.658 71.05 147.028 72.4473 146.669C73.8446 146.31 75.2987 146.231 76.7266 146.435C78.1544 146.64 79.5282 147.124 80.7693 147.86C82.0104 148.596 83.0946 149.57 83.96 150.726L101.584 174.266L146.85 106.246C148.467 103.82 150.979 102.136 153.835 101.565C156.69 100.994 159.656 101.582 162.079 103.2C164.501 104.818 166.184 107.334 166.756 110.195C167.328 113.055 166.743 116.026 165.129 118.454L111.251 199.415C110.276 200.88 108.966 202.088 107.428 202.94C105.891 203.792 104.173 204.263 102.417 204.312C102.315 204.314 102.213 204.316 102.111 204.316Z" fill="#304087"/>
</svg>
