<?xml version="1.0" encoding="UTF-8"?>
<svg width="76px" height="78px" viewBox="0 0 76 78" version="1.1" xmlns="http://www.w3.org/2000/svg" xmlns:xlink="http://www.w3.org/1999/xlink">
    <title>4.1.1</title>
    <defs>
        <filter id="filter-1">
            <feColorMatrix in="SourceGraphic" type="matrix" values="0 0 0 0 0.000000 0 0 0 0 0.200000 0 0 0 0 0.627451 0 0 0 1.000000 0"></feColorMatrix>
        </filter>
    </defs>
    <g id="Page-2" stroke="none" stroke-width="1" fill="none" fill-rule="evenodd">
        <g id="4.1.1">
            <path d="M15.0353111,78 C6.76586784,78 -7.10542736e-15,71.056083 -7.10542736e-15,62.5690228 L-7.10542736e-15,15.4309772 C-7.10542736e-15,6.94391699 6.76586784,0 15.0353111,0 L60.9646889,0 C69.2341322,0 76,6.94391699 76,15.4309772 L76,62.5690228 C76,71.056083 69.2341322,78 60.9646889,78 L15.0353111,78 Z" id="Fill-1-Copy-13" fill="#FFFFFF"></path>
            <g filter="url(#filter-1)" id="Group-3">
                <g transform="translate(5.000000, 33.000000)">
                    <path d="M2.89417658,1.83333333 C4.32519307,1.83333333 5.41097892,2.0771109 6.19202672,2.54891304 C6.96180338,3.01717076 7.33333333,3.80324512 7.33333333,4.89807813 C7.33333333,5.97282609 6.95053225,6.76559546 6.1699019,7.24881853 C5.39636819,7.73243541 4.29471927,7.96754883 2.85117929,7.96754883 L2.16113546,7.96754883 L2.16113546,11 L-9.32587341e-15,11 L-9.32587341e-15,2.05978261 C0.469213108,1.98298677 0.975579211,1.92548834 1.50573993,1.89398236 C2.02755166,1.8439666 2.49217282,1.83333333 2.89417658,1.83333333 M3.0152369,3.57167612 C2.87246921,3.57167612 2.70548946,3.58191556 2.5739929,3.59530561 C2.40283866,3.59530561 2.28219578,3.60869565 2.16113546,3.61184625 L2.16113546,6.23826402 L2.85117929,6.23826402 C3.60843248,6.23826402 4.15779587,6.13547574 4.53683991,5.93265595 C4.91588395,5.74440769 5.11208516,5.40059861 5.11208516,4.88429427 C5.11208516,4.61728103 5.06533083,4.41091682 4.95136715,4.23960302 C4.87413901,4.08522369 4.73554582,3.95408003 4.54644124,3.84223377 C4.36067627,3.74259609 4.15069923,3.66540643 3.88770612,3.63153749 C3.63306199,3.59530561 3.35003131,3.57167612 3.0152369,3.57167612" id="Fill-71" fill="#75A7FF"></path>
                    <path d="M12.5033623,5.62389472 C12.3107785,5.57824388 12.1048992,5.52190006 11.8692056,5.48365207 C11.6266629,5.4252519 11.3676014,5.39975324 11.0904096,5.39975324 C10.9675267,5.39975324 10.8168439,5.41497018 10.6359441,5.43429981 C10.4554471,5.46226609 10.3386076,5.48365207 10.2463446,5.50462677 L10.2463446,11 L8.25,11 L8.25,4.19226815 C8.60696496,4.07135513 9.03322785,3.94715196 9.51428446,3.83652067 C10.0021903,3.72588937 10.5537535,3.66666667 11.1363397,3.66666667 C11.2596255,3.66666667 11.3841201,3.67859346 11.5331912,3.68393995 C11.6895145,3.70532593 11.833348,3.72259922 11.9812104,3.74727534 C12.1387424,3.77894304 12.2874106,3.78963603 12.4449426,3.8176023 C12.5924021,3.84597985 12.7297893,3.89985606 12.8333333,3.94386181 L12.5033623,5.62389472 Z" id="Fill-73" fill="#75A7FF"></path>
                    <path d="M20.1666667,7.32078921 C20.1666667,7.87750928 20.0854701,8.37688479 19.9115385,8.82170332 C19.7358974,9.28523848 19.4884615,9.66076568 19.1709402,9.9984614 C18.8594017,10.3090777 18.4645299,10.5571726 18.0196581,10.7371708 C17.5782051,10.9135849 17.0649573,11 16.4923077,11 C15.9606838,11 15.4542735,10.9135849 15.0012821,10.7371708 C14.5606838,10.5571726 14.1803419,10.3090777 13.8508547,9.9984614 C13.5260684,9.66076568 13.2820513,9.28523848 13.1017094,8.82170332 C12.9209402,8.37688479 12.8333333,7.87750928 12.8333333,7.32078921 C12.8333333,6.78039642 12.9209402,6.29137479 13.1017094,5.83341479 C13.2923077,5.37664947 13.5564103,4.99793646 13.8777778,4.68891302 C14.2004274,4.37311974 14.5880342,4.12343198 15.0316239,3.94144266 C15.4833333,3.76701964 15.9709402,3.66666667 16.4923077,3.66666667 C17.0354701,3.66666667 17.5346154,3.76701964 17.9884615,3.94144266 C18.4277778,4.12343198 18.817094,4.37311974 19.1504274,4.68891302 C19.4632479,4.99793646 19.7136752,5.37664947 19.892735,5.83341479 C20.0713675,6.29137479 20.1666667,6.78039642 20.1666667,7.32078921 M18.0051282,7.32078921 C18.0051282,6.72464476 17.8884615,6.24080007 17.617094,5.88956467 C17.3688034,5.54828491 16.9867521,5.37107431 16.4923077,5.37107431 C16.0264957,5.37107431 15.6547009,5.54828491 15.3918803,5.88956467 C15.1273504,6.24080007 14.9884615,6.72464476 14.9884615,7.32078921 C14.9884615,7.92888044 15.1273504,8.41591094 15.3918803,8.7878541 C15.6547009,9.13231967 16.0264957,9.31072495 16.4923077,9.31072495 C16.9867521,9.31072495 17.3688034,9.13231967 17.617094,8.7878541 C17.8884615,8.41591094 18.0051282,7.92888044 18.0051282,7.32078921" id="Fill-75" fill="#75A7FF"></path>
                    <path d="M22,2.15714823 L23.944853,1.83333333 L23.944853,3.88203938 L26.3152418,3.88203938 L26.3152418,5.52100421 L23.944853,5.52100421 L23.944853,7.97706462 C23.944853,8.38760144 24.0328949,8.70982511 24.173286,8.95407861 C24.3184362,9.21185754 24.6170647,9.33557552 25.0541014,9.33557552 C25.2627051,9.33557552 25.4732918,9.30653561 25.6969658,9.27630228 C25.9309509,9.22498517 26.1236913,9.17486149 26.3152418,9.10683649 L26.5833333,10.6368022 C26.3497447,10.7458013 26.0856191,10.8197934 25.7873872,10.8910009 C25.5026391,10.9689711 25.1623691,11 24.7360402,11 C24.2006504,11 23.7445776,10.9287925 23.4003418,10.7792171 C23.0438118,10.6368022 22.7598569,10.4327272 22.5552191,10.1856891 C22.3458222,9.91398689 22.2070174,9.6017084 22.1054916,9.22220052 C22.0348995,8.85900273 22,8.45164837 22,7.99735278 L22,2.15714823 Z" id="Fill-77" fill="#75A7FF"></path>
                    <path d="M27.5,7.39506173 C27.5,6.7737953 27.6008344,6.24054162 27.780226,5.77857427 C27.9639166,5.31660693 28.2101403,4.92313819 28.514207,4.63281561 C28.8233544,4.3046595 29.1598601,4.07726006 29.5702329,3.91955396 C29.9469942,3.76662684 30.3636202,3.66666667 30.7829821,3.66666667 C31.7420819,3.66666667 32.5026394,3.98048586 33.0634822,4.57984867 C33.6294057,5.18080446 33.9166667,6.07088809 33.9166667,7.25448029 C33.9166667,7.35762644 33.9061142,7.49064118 33.9061142,7.62644365 C33.8959526,7.76383911 33.885791,7.88610115 33.881101,7.99322979 L29.4897216,7.99322979 C29.5299773,8.390681 29.7132771,8.70967742 30.0572086,8.94384707 C30.3776901,9.19036241 30.8177661,9.31063321 31.3750914,9.31063321 C31.7276211,9.31063321 32.0731159,9.27518917 32.4127482,9.20430108 C32.7633238,9.13898845 33.0392506,9.06133015 33.2596794,8.96097172 L33.512938,10.5571485 C33.4027236,10.6152927 33.2831293,10.6694544 33.0959211,10.7240143 C32.9200471,10.7741935 32.7379198,10.8223815 32.533515,10.8594186 C32.3134771,10.9072083 32.0828867,10.9322979 31.8464338,10.9649542 C31.5931752,10.9884508 31.3567223,11 31.1081537,11 C30.5004111,11 29.9602824,10.9139785 29.5073091,10.7240143 C29.0418291,10.5436081 28.6881269,10.2907208 28.3735077,9.96256472 C28.0862468,9.63162087 27.8708988,9.2528873 27.7204288,8.82158503 C27.5801204,8.37714058 27.5,7.90123457 27.5,7.39506173 L27.5,7.39506173 Z M32.0367686,6.63799283 C32.0348144,6.47510952 32.0082379,6.30704898 31.9515674,6.15412186 C31.9195192,6.00119474 31.8464338,5.85344484 31.7385644,5.72441258 C31.6463282,5.60573477 31.5185264,5.49382716 31.3567223,5.41855834 C31.2066431,5.35603345 31.0249066,5.30187176 30.7974428,5.30187176 C30.5832673,5.30187176 30.3937142,5.35603345 30.2330826,5.41855834 C30.0900384,5.49382716 29.9469942,5.59378734 29.8531947,5.71604938 C29.7488427,5.83353246 29.6683315,5.99283154 29.611661,6.13898845 C29.5499097,6.30704898 29.5131715,6.47510952 29.4897216,6.63799283 L32.0367686,6.63799283 Z" id="Fill-79" fill="#75A7FF"></path>
                    <path d="M34.8333333,7.33512496 C34.8333333,6.8358579 34.9113033,6.36246991 35.0684127,5.91774798 C35.2216237,5.47302604 35.4598219,5.07568272 35.7607858,4.75318964 C36.0683773,4.42392819 36.4336665,4.16394303 36.8625012,3.97880811 C37.2956242,3.77137738 37.7841059,3.66666667 38.3427606,3.66666667 C38.6928457,3.66666667 39.0312352,3.71046202 39.3333688,3.77137738 C39.6456384,3.83627414 39.9310084,3.93979043 40.2101408,4.06042673 L39.8085956,5.63586514 C39.6456384,5.56459815 39.4296617,5.49333116 39.2132951,5.45232278 C39.0004371,5.39180556 38.75951,5.37229672 38.4920731,5.37229672 C37.9232823,5.37229672 37.4944476,5.55424652 37.2219426,5.90898891 C36.9435899,6.27766618 36.7958369,6.74946161 36.7958369,7.33512496 C36.7958369,7.9578153 36.9326741,8.45031399 37.1938735,8.79151963 C37.4480555,9.13750294 37.9131462,9.31109181 38.5782298,9.31109181 C38.8082412,9.31109181 39.0538465,9.28401831 39.3177748,9.24500063 C39.5902797,9.19722388 39.8347155,9.12914201 40.0471836,9.03478292 L40.3333333,10.6540167 C40.1150175,10.7352372 39.8245794,10.8220316 39.4959361,10.8932986 C39.1598856,10.9613805 38.7848502,11 38.372779,11 C37.7587657,11 37.2219426,10.9052428 36.7658184,10.7220986 C36.3225593,10.526612 35.9525919,10.2737934 35.6625437,9.94572633 C35.3767839,9.61168721 35.1682143,9.22748249 35.0329364,8.79151963 C34.901557,8.34878839 34.8333333,7.85947482 34.8333333,7.33512496" id="Fill-81" fill="#75A7FF"></path>
                    <path d="M41.25,7.33512496 C41.25,6.8358579 41.3291171,6.36246991 41.4873512,5.91774798 C41.6549391,5.47302604 41.883716,5.07568272 42.1830357,4.75318964 C42.4885913,4.42392819 42.8549461,4.16394303 43.2887259,3.97880811 C43.7158801,3.77137738 44.2042234,3.66666667 44.760771,3.66666667 C45.1243977,3.66666667 45.4599632,3.71046202 45.7592829,3.77137738 C46.0613308,3.83627414 46.3548044,3.93979043 46.6303501,4.06042673 L46.2382724,5.63586514 C46.051977,5.56459815 45.8528203,5.49333116 45.636515,5.45232278 C45.4241071,5.39180556 45.1809099,5.37229672 44.9225128,5.37229672 C44.3488166,5.37229672 43.9321854,5.55424652 43.645727,5.90898891 C43.3584892,6.27766618 43.2232497,6.74946161 43.2232497,7.33512496 C43.2232497,7.9578153 43.3444586,8.45031399 43.6090916,8.79151963 C43.881909,9.13750294 44.3359552,9.31109181 44.9989016,9.31109181 C45.2214427,9.31109181 45.4806193,9.28401831 45.7464215,9.24500063 C46.0024802,9.19722388 46.2616567,9.12914201 46.4845876,9.03478292 L46.75,10.6540167 C46.5325255,10.7352372 46.2526927,10.8220316 45.9194657,10.8932986 C45.5698696,10.9613805 45.2109198,11 44.8090986,11 C44.17928,11 43.645727,10.9052428 43.1990859,10.7220986 C42.7391936,10.526612 42.3728387,10.2737934 42.0902778,9.94572633 C41.7960247,9.61168721 41.5840065,9.22748249 41.4530541,8.79151963 C41.3197633,8.34878839 41.25,7.85947482 41.25,7.33512496" id="Fill-83" fill="#75A7FF"></path>
                    <path d="M50.4166667,2.0768787 C50.4166667,2.43267705 50.2681442,2.70954132 49.9953861,2.91421463 C49.731969,3.12245781 49.415308,3.23074427 49.0416667,3.23074427 C48.6568161,3.23074427 48.3280118,3.12245781 48.0650617,2.91421463 C47.796507,2.70954132 47.6666667,2.43267705 47.6666667,2.0768787 C47.6666667,1.7222703 47.796507,1.42755661 48.0650617,1.23121304 C48.3280118,1.01860666 48.6568161,0.916666667 49.0416667,0.916666667 C49.415308,0.916666667 49.731969,1.01860666 49.9953861,1.23121304 C50.2681442,1.42755661 50.4166667,1.7222703 50.4166667,2.0768787 L50.4166667,2.0768787 Z M47.8941208,11 L50.2125651,11 L50.2125651,4.06570027 L47.8941208,4.06570027 L47.8941208,11 Z" id="Fill-85" fill="#75A7FF"></path>
                    <path d="M58.6666667,7.23401023 C58.6666667,7.80386126 58.5667773,8.31501519 58.407125,8.77032535 C58.239362,9.2447936 57.9934804,9.62917809 57.6728952,9.97483881 C57.3450531,10.2927814 56.9642781,10.5467279 56.5194714,10.7309716 C56.0627122,10.9115467 55.5525933,11 55.0032016,11 C54.4606399,11 53.9599123,10.9115467 53.51724,10.7309716 C53.0660302,10.5467279 52.682694,10.2927814 52.3446068,9.97483881 C52.0317054,9.62917809 51.781555,9.2447936 51.5992782,8.77032535 C51.4310883,8.31501519 51.3333333,7.80386126 51.3333333,7.23401023 C51.3333333,6.68087156 51.4310883,6.18031572 51.6061082,5.71155414 C51.799057,5.24401542 52.050488,4.85636997 52.3732076,4.54005781 C52.7121486,4.21681613 53.0882279,3.96123916 53.5449871,3.77495739 C53.9872325,3.59642037 54.4789957,3.49370044 55.0032016,3.49370044 C55.5372257,3.49370044 56.0405146,3.59642037 56.4878825,3.77495739 C56.9322623,3.96123916 57.3292586,4.21681613 57.6425869,4.54005781 C57.9589033,4.85636997 58.211615,5.24401542 58.386208,5.71155414 C58.5667773,6.18031572 58.6666667,6.68087156 58.6666667,7.23401023 L58.6666667,7.23401023 Z M56.7478511,1.13032684 L54.418379,3.01230268 L53.4553428,2.18320611 L55.4582533,0 L56.7478511,1.13032684 Z M56.5160564,7.23401023 C56.5160564,6.62380494 56.3897006,6.12854814 56.1220482,5.76902839 C55.8548227,5.4196991 55.483866,5.23830875 55.0032016,5.23830875 C54.5332092,5.23830875 54.1605449,5.4196991 53.8843549,5.76902839 C53.6218251,6.12854814 53.489493,6.62380494 53.489493,7.23401023 C53.489493,7.85644408 53.6218251,8.35496183 53.8843549,8.73567776 C54.1605449,9.08826799 54.5332092,9.2708812 55.0032016,9.2708812 C55.483866,9.2708812 55.8548227,9.08826799 56.1220482,8.73567776 C56.3897006,8.35496183 56.5160564,7.85644408 56.5160564,7.23401023 L56.5160564,7.23401023 Z" id="Fill-87" fill="#75A7FF"></path>
                    <path d="M59.5833333,4.07485052 C59.9364117,3.96509716 60.4047722,3.86685351 60.959488,3.7916293 C61.5273911,3.69831839 62.1169893,3.66666667 62.7461493,3.66666667 C63.3663761,3.66666667 63.8904634,3.7406577 64.3201129,3.90508221 C64.7395529,4.05553064 65.0666821,4.27955904 65.3159639,4.57511211 C65.5524839,4.87272048 65.7371055,5.21061286 65.8392005,5.62290732 C65.9366161,6.02245889 66,6.46229447 66,6.94118087 L66,11 L63.8874856,11 L63.8874856,7.1935725 C63.8874856,6.54121824 63.8036827,6.06438714 63.6135309,5.80130792 C63.4369917,5.52466368 63.0992277,5.38408072 62.6112989,5.38408072 C62.4539026,5.38408072 62.3092681,5.40216741 62.1344305,5.41778774 C61.9608691,5.42806428 61.8204886,5.4436846 61.6686224,5.46505979 L61.6686224,11 L59.5833333,11 L59.5833333,4.07485052 Z" id="Fill-89" fill="#75A7FF"></path>
                </g>
            </g>
        </g>
    </g>
</svg>