<svg width="1575" height="343" fill="none" xmlns="http://www.w3.org/2000/svg">
  <path d="M443.132 45.476h-44.808v64.296h44.808c20.861 0 34.551-13.343 34.551-32.148 0-18.817-13.69-32.148-34.551-32.148zm36.941 201.11l-47.546-97.137h-34.203v97.136h-47.533V3.059h95.426c49.589 0 79 33.857 79 74.564 0 34.204-20.863 55.413-44.462 63.96l54.383 105.003h-55.065zM613.916 3.059h47.534v243.527h-47.534V3.059zm247.67 141.262h-49.6v59.848h49.6c21.542 0 31.801-13.677 31.801-30.093 0-16.413-10.259-29.755-31.8-29.755h-.001zm-3.084-98.845h-46.518v56.093h46.518c20.18 0 31.466-11.285 31.466-28.046s-11.286-28.047-31.466-28.047zm7.866 201.11H764.449V3.059h97.818c47.546 0 75.246 26.684 75.246 68.408 0 27.019-17.789 44.461-30.104 50.282 14.718 6.839 33.524 22.226 33.524 54.72 0 45.49-31.12 70.117-74.565 70.117zm246.172 2.055c-49.93 0-89.61-33.866-89.61-85.514V3.06h47.55v158.357c0 28.047 16.41 44.808 42.06 44.808 25.65 0 42.41-16.761 42.41-44.808V3.057h47.2V163.13c0 51.647-39.68 85.515-89.61 85.515v-.003zm279.61-203.165v201.109h-47.53V45.474h-63.63V3.058h174.79v42.416l-63.63.002zM1527.11 3.06h47.53v243.527h-47.53V3.059zM107.493 49.963C96.96 38.499 83.806 33.638 69.497 34.183c-12.695.467-24.948 5.165-32.696 14.95L13.538 30.718C26.685 14.111 43.537 1.687 67.908.274c26.68-1.547 45.166 11.913 61.433 29.614l-21.848 20.075z" fill="#006A65"/>
  <path d="M157.901 308.061c-57.37 0-106.219-37.403-122.33-90.25H.332c17.063 72.203 81.324 124.41 157.568 124.41 37.754 0 73.986-13.395 102.802-37.055l-24.253-24.249c-22.31 17.371-49.883 27.144-78.549 27.144" fill="#8BC8A9"/>
  <path d="M154.587 3.057H268.38v42.416h-66.26v201.112h-47.534l.001-243.528z" fill="#006A65"/>
</svg>