<?xml version="1.0" encoding="UTF-8"?>
<svg width="52px" height="50px" viewBox="0 0 52 50" version="1.1" xmlns="http://www.w3.org/2000/svg" xmlns:xlink="http://www.w3.org/1999/xlink">
    <!-- Generator: Sketch 53.2 (72643) - https://sketchapp.com -->
    <title>2.1.1</title>
    <desc>Created with Sketch.</desc>
    <g id="Page-2" stroke="none" stroke-width="1" fill="none" fill-rule="evenodd">
        <g id="2.1.1" transform="translate(-15.000000, -14.000000)">
            <g id="Group-7">
                <path d="M15.0353111,78 C6.76586784,78 -7.10542736e-15,71.056083 -7.10542736e-15,62.5690228 L-7.10542736e-15,15.4309772 C-7.10542736e-15,6.94391699 6.76586784,0 15.0353111,0 L60.9646889,0 C69.2341322,0 76,6.94391699 76,15.4309772 L76,62.5690228 C76,71.056083 69.2341322,78 60.9646889,78 L15.0353111,78 Z" id="Fill-1-Copy-43"></path>
                <path d="M60.8392152,43.9703777 C64.5817955,45.7 67,49.4333002 67,53.4813121 C67,59.2813121 62.1760831,64 56.2465563,64 C54.4637271,64 52.6969448,63.5631213 51.1372486,62.7363817 C49.4954898,61.8688867 48.14745,60.6207753 47.1809807,59.1380716 C44.3554087,59.6001988 41.4275633,59.8837972 38.4641709,59.9769384 C38.4628506,59.9769384 38.4617334,59.9769384 38.4605147,59.9769384 C37.7053971,59.9999006 36.9409357,60.0115308 36.1882556,60.0115308 L35.9354664,60.0111332 L35.689685,60.0115308 C34.9370048,60.0115308 34.172645,59.9999006 33.417629,59.9769384 C33.4163086,59.9769384 33.4149883,59.9769384 33.413668,59.9769384 C27.1297894,59.7790258 21.0006921,58.7264414 15.6892749,56.933002 C15.2639309,56.7893638 14.9843292,56.3904573 15.0006808,55.9502982 C15.1210324,52.7114314 16.0107204,49.8304175 17.6451667,47.3871769 C17.9547294,46.9246521 18.5886829,46.795328 19.0611519,47.0980119 C19.5337225,47.4007952 19.6659569,48.0212724 19.3565974,48.4838966 C18.0537529,50.4316103 17.2920337,52.7150099 17.0881976,55.2807157 C18.3408702,55.6813121 19.6387382,56.039662 20.9720514,56.3550696 L20.9720514,52.8562624 C20.9720514,52.3034791 21.429997,51.8552684 21.994888,51.8552684 C22.5597789,51.8552684 23.0177245,52.3033797 23.0177245,52.8562624 L23.0177245,56.7991054 C25.8902183,57.3689861 28.9009388,57.7427435 31.9665031,57.9088469 L31.2179871,55.8756461 C31.1557292,55.7063618 31.1411042,55.5238569 31.1758386,55.3472167 L33.226082,44.911332 L31.9343078,41.466501 C29.3504547,41.8650099 27.0235549,42.5856859 25.0094678,43.6149105 C24.8583427,43.6921471 24.696452,43.728827 24.5369988,43.728827 C24.1682252,43.728827 23.8119437,43.5329026 23.6294358,43.1907555 C23.3680138,42.7006958 23.5619982,42.0960239 24.0628032,41.8400596 C25.6456557,41.0312127 27.3962895,40.3978131 29.2912438,39.943837 C28.7145715,39.5883698 28.1641025,39.1882704 27.6491803,38.7461233 C25.7026323,37.0749503 24.4566628,35.0086481 24.035686,32.8030815 C23.005537,32.5272366 22.1113802,31.8355865 21.5523799,30.8477137 C20.7829419,29.4880716 20.7682154,27.8547714 21.5138877,26.5852883 C21.6963956,26.2746521 22.0345989,26.0832008 22.4006304,26.0832008 L23.8760297,26.0832008 L23.8760297,24.6267396 C23.8760297,21.4871769 25.2673352,18.6801193 27.7938054,16.7229622 C30.0275723,14.9924453 33.0728241,14 36.1486462,14 C39.6875935,14 42.9382048,15.305169 45.0668545,17.5808151 C47.0688556,19.7209742 48.06295,22.6436382 47.9702233,26.082008 L49.4963023,26.0803181 C49.4967086,26.0803181 49.4970133,26.0803181 49.4974195,26.0803181 C49.8635526,26.0803181 50.201959,26.2720676 50.3843654,26.583002 C51.1116548,27.8227634 51.0879908,29.4312127 50.3227169,30.7806163 C49.7403572,31.8074553 48.8120754,32.5236581 47.7463795,32.8031809 C47.2206917,35.5167992 45.4431437,38.0483101 42.7691031,39.793837 C42.6889703,39.8462227 42.607314,39.8959245 42.5261655,39.9464215 C45.8559955,40.7828032 48.8395988,42.2481113 51.1754361,44.2109344 C52.6869917,43.4166004 54.4137583,42.9652087 56.2464547,42.9652087 C57.8511431,42.9652087 59.3963159,43.3033797 60.8392152,43.9703777 Z M36.879795,43.8266402 L37.6575611,41.7532803 C37.0894202,41.838171 36.5200604,41.8824056 35.9555757,41.8824056 C35.932521,41.8824056 35.9095679,41.8823062 35.8864116,41.8822068 C35.3318801,41.878827 34.7751141,41.8350895 34.2209888,41.7533797 L34.9983486,43.8266402 L36.879795,43.8266402 Z M48.5340987,29.8088469 C48.8451848,29.260338 48.9391301,28.628827 48.8099426,28.0832008 L47.9098952,28.0841948 L47.9098952,30.5317097 C48.2317469,30.2851889 48.4346689,29.9841948 48.5340987,29.8088469 Z M25.9216012,24.6267396 L25.9216012,26.0597416 C26.3647186,25.9936382 26.9091955,25.8328032 27.2930004,25.4531809 C27.6946803,25.0557654 27.8939461,24.4403579 27.8851101,23.6238569 C27.8807429,23.2166004 28.1288603,22.8473161 28.5126652,22.6899602 C28.6403293,22.6375746 28.774595,22.6121272 28.907642,22.6121272 C29.1747515,22.6121272 29.4370876,22.7144135 29.6330018,22.9070577 C31.8058311,25.0442346 34.597075,26.0832008 38.1665927,26.0832008 L45.9237378,26.0832008 C46.0128081,23.1496024 45.2027452,20.6908549 43.5581427,18.9328032 C41.8159385,17.0703777 39.1152885,16.0021869 36.1486462,16.0021869 C31.1907683,16.0021869 25.9216012,19.0248509 25.9216012,24.6267396 Z M23.3419122,29.8777336 C23.4294591,30.032505 23.6027248,30.2920477 23.8759281,30.5153082 L23.8759281,28.0853877 L23.081912,28.0853877 C22.934951,28.6564612 23.0230057,29.3143141 23.3419122,29.8777336 Z M25.9216012,31.1267396 C25.9216012,34.7522863 28.9423764,38.1383698 32.8123161,39.3800199 C32.8341521,39.3843936 32.8557849,39.3890656 32.8772146,39.394831 C32.881074,39.3959245 32.8848318,39.3971173 32.8887927,39.3982107 C32.9180427,39.4063618 32.9466834,39.4156064 32.9749178,39.4262425 C32.9750193,39.4263419 32.9752225,39.4263419 32.975324,39.4264414 C32.9900506,39.4319085 33.0046756,39.4375746 33.019199,39.443837 C33.9433168,39.7199801 34.9130361,39.8738569 35.8993101,39.8799205 C35.9180992,39.8800199 35.9370914,39.8801193 35.9558804,39.8801193 C37.8884128,39.8801193 39.9023983,39.2590457 41.6338368,38.1282306 C44.0350804,36.5607356 45.5590266,34.2636183 45.8231908,31.8700795 C45.8235971,31.8638171 45.8244096,31.8577535 45.8249174,31.8514911 C45.8508159,31.6106362 45.8643237,31.3687873 45.8643237,31.1266402 L45.8643237,28.0852883 L38.1665927,28.0852883 C34.7552079,28.0852883 31.9380656,27.2494036 29.6108611,25.5385686 C29.4135251,26.0454274 29.125189,26.4874751 28.7471731,26.861332 C27.8823679,27.7168986 26.7552267,27.9965209 25.9216012,28.0766402 L25.9216012,31.1267396 Z M35.9354664,58.0090457 L36.1883571,58.0094433 C36.6909902,58.0094433 37.1991077,58.004175 37.7060064,57.9935388 L38.6402804,55.4555666 L36.7489825,45.828827 L35.1290596,45.828827 L33.2377617,55.4555666 L34.1720356,57.9935388 C34.6788328,58.0040755 35.1870519,58.0094433 35.689685,58.0094433 L35.9354664,58.0090457 Z M39.9114374,57.9090457 C42.0477043,57.7939364 44.1576664,57.57833 46.213902,57.2640159 C45.7467142,56.0767396 45.4959563,54.7979125 45.4959563,53.4813121 C45.4959563,50.2229622 47.0187853,47.3060636 49.4047945,45.3756461 C46.887668,43.4082505 43.5948067,42.0430417 39.9457656,41.462326 L38.6518586,44.9116302 L40.7022035,55.3472167 C40.7369379,55.5238569 40.7223129,55.7064612 40.660055,55.8756461 L39.9114374,57.9090457 Z M56.2464547,61.9979125 C61.0480278,61.9979125 64.9544285,58.177336 64.9544285,53.4814115 C64.9544285,50.204175 62.9962008,47.1814115 59.9656756,45.7809145 C58.7979093,45.2410537 57.5466586,44.9673956 56.2464547,44.9673956 C51.4466082,44.9673956 47.5415278,48.7866799 47.5415278,53.4813121 C47.5415278,54.9349901 47.9188327,56.332008 48.6042784,57.5610338 C48.6084425,57.5686879 48.6126065,57.5762425 48.616669,57.583996 C49.4086539,58.9941352 50.6075999,60.1812127 52.1101164,60.9751491 C53.3728437,61.6444334 54.8028445,61.9979125 56.2464547,61.9979125 Z M20.9925174,46 C20.6715551,46 20.3567953,45.84401 20.1658916,45.5560208 C19.8627496,45.0987133 19.9867041,44.4814666 20.4427463,44.1775822 L20.4594836,44.166426 C20.9156243,43.8623441 21.5309663,43.9866425 21.8341084,44.44395 C22.1372504,44.9012575 22.0132959,45.5184054 21.5572537,45.8223886 L21.5405164,45.8335448 C21.371765,45.9460946 21.1810582,46 20.9925174,46 Z M60,55.2726154 C60,56.0662729 59.751481,56.7018049 59.2513469,57.1791167 C58.7542058,57.6564284 58.1486988,57.9728688 57.4381286,58.1255972 L57.4381286,59.0239774 L57.4381286,59.1016199 C57.4381286,59.5976795 56.9789671,60 56.4408534,60 C55.9027396,60 55.4611231,59.5976795 55.4611231,59.1016199 L55.4611231,58.1335509 C55.0195065,58.0398118 54.6187594,57.8896399 54.2619778,57.6830352 C53.8964237,57.4684769 53.642022,57.280904 53.4957798,57.1172867 L53.2823507,56.859741 C52.3756899,55.773788 53.8672165,54.6154003 54.7357945,55.4520452 C54.8410641,55.5511814 54.9522165,55.6746518 55.0809138,55.80333 C55.4435781,56.1734573 55.9759124,56.2322573 56.4086532,56.2322573 C57.2275893,56.2322573 57.6398955,55.9239599 57.6398955,55.301968 C57.6398955,55.0793614 57.481991,54.9076958 57.1719615,54.7844147 C56.861932,54.6637848 56.4846125,54.5538544 56.0430992,54.4571801 C55.5983865,54.3606951 55.1538801,54.2293657 54.7123668,54.0683997 C54.2678605,53.9048771 53.8906442,53.6259323 53.5806147,53.2290089 C53.2705852,52.8321801 53.1155705,52.3280722 53.1155705,51.7193363 C53.1155705,51.1079492 53.3289996,50.5636945 53.7472917,50.0729373 C54.1597011,49.5875772 54.7562292,49.2578808 55.478668,49.1291079 L55.478668,48.9226926 L55.478668,47.8982855 C55.478668,47.4049717 55.9202846,47 56.4583983,47 C56.999505,47 57.4381286,47.4049717 57.4381286,47.8982855 L57.4381286,48.2763664 L57.4381286,49.1424586 C57.7481581,49.2041939 58.0318701,49.2899793 58.2862718,49.4025609 C58.5436665,49.5124913 58.7191159,49.6036738 58.8186061,49.6761086 L58.9706278,49.7967384 C60.2574978,50.6816732 59.0144902,52.250335 57.9031728,51.3921964 C57.1515268,50.8130026 55.4435781,50.6843244 55.4435781,51.7488783 C55.4435781,51.9742309 55.5576203,52.1538501 55.7828148,52.2906713 C56.0110022,52.4273031 56.2917213,52.5213262 56.6251785,52.5668701 C56.9556427,52.6125087 57.3212999,52.6875 57.7219439,52.7947792 C58.1196981,52.9020583 58.4881419,53.0253394 58.8187093,53.1675577 C59.1520632,53.3096813 59.4327823,53.5618299 59.6609698,53.9238142 C59.8859579,54.2831474 60,54.7337577 60,55.2726154 Z" id="Combined-Shape" fill="#75A7FF" fill-rule="nonzero"></path>
            </g>
        </g>
    </g>
</svg>