<?xml version="1.0" encoding="UTF-8"?>
<svg width="76px" height="78px" viewBox="0 0 76 78" version="1.1" xmlns="http://www.w3.org/2000/svg" xmlns:xlink="http://www.w3.org/1999/xlink">
    <title>1.1.6</title>
    <g id="Page-2" stroke="none" stroke-width="1" fill="none" fill-rule="evenodd">
        <g id="1.1.6">
            <path d="M15.0353111,78 C6.76586784,78 -7.10542736e-15,71.056083 -7.10542736e-15,62.5690228 L-7.10542736e-15,15.4309772 C-7.10542736e-15,6.94391699 6.76586784,0 15.0353111,0 L60.9646889,0 C69.2341322,0 76,6.94391699 76,15.4309772 L76,62.5690228 C76,71.056083 69.2341322,78 60.9646889,78 L15.0353111,78 Z" id="Fill-1-Copy-2" fill="#FFFFFF"></path>
            <g id="bcs" transform="translate(13.000000, 14.000000)">
                <path d="M24.9181818,0.986363636 C26.5181818,0.986363636 27.8181818,3.06818182 27.8181818,5.63636364 C27.8181818,8.20454545 26.5181818,10.2909091 24.9181818,10.2909091 C23.3181818,10.2909091 22.0181818,8.20909091 22.0181818,5.63636364 C22.0181818,3.06363636 23.3181818,0.986363636 24.9181818,0.986363636 Z M9.43636364,9.43636364 C10.5727273,8.30454545 12.6181818,8.52727273 14.0136364,9.89090909 C15.4090909,11.2545455 15.6136364,13.3318182 14.4681818,14.4681818 C13.3227273,15.6045455 11.2863636,15.3772727 9.89090909,14.0136364 C8.49545455,12.65 8.29090909,10.5727273 9.43636364,9.43636364 Z M9.43636364,40.4 C8.30454545,39.2636364 8.52727273,37.2181818 9.89090909,35.8227273 C11.2545455,34.4272727 13.3318182,34.2181818 14.4681818,35.3681818 C15.6045455,36.5181818 15.3772727,38.55 14.0136364,39.9454545 C12.65,41.3409091 10.5727273,41.5454545 9.43636364,40.4 L9.43636364,40.4 Z M40.3954545,40.4 C39.2636364,41.5318182 37.2136364,41.3090909 35.8227273,39.9454545 C34.4318182,38.5818182 34.2181818,36.5 35.3681818,35.3681818 C36.5181818,34.2363636 38.55,34.4590909 39.9454545,35.8227273 C41.3409091,37.1863636 41.5454545,39.2636364 40.4,40.4 L40.3954545,40.4 Z M0.986363636,24.9181818 C0.986363636,23.3181818 3.06818182,22.0181818 5.63636364,22.0181818 C8.20454545,22.0181818 10.2909091,23.3181818 10.2909091,24.9181818 C10.2909091,26.5181818 8.20909091,27.8181818 5.63636364,27.8181818 C3.06363636,27.8181818 0.986363636,26.5181818 0.986363636,24.9181818 Z M24.9181818,48.85 C23.3181818,48.85 22.0181818,46.7636364 22.0181818,44.1954545 C22.0181818,41.6272727 23.3181818,39.5454545 24.9181818,39.5454545 C26.5181818,39.5454545 27.8181818,41.6272727 27.8181818,44.1954545 C27.8181818,46.7636364 26.5181818,48.85 24.9181818,48.85 Z M48.85,24.9181818 C48.85,26.5181818 46.7636364,27.8181818 44.1954545,27.8181818 C41.6272727,27.8181818 39.5454545,26.5181818 39.5454545,24.9181818 C39.5454545,23.3181818 41.6318182,22.0181818 44.2,22.0181818 C46.7681818,22.0181818 48.8545455,23.3181818 48.8545455,24.9181818 L48.85,24.9181818 Z M40.3954545,9.43636364 C41.5318182,10.5727273 41.3045455,12.6181818 39.9409091,14.0136364 C38.5772727,15.4090909 36.4954545,15.6136364 35.3636364,14.4681818 C34.2318182,13.3227273 34.4545455,11.2863636 35.8181818,9.89090909 C37.1818182,8.49545455 39.2636364,8.30454545 40.3954545,9.43636364 Z" id="Shape" fill="#EB212F"></path>
                <path d="M24.9181818,14.6409091 C25.7355306,14.7155491 26.3422501,15.4314781 26.2818182,16.25 C26.3421547,17.0676342 25.7348442,17.7822362 24.9181818,17.8545455 C24.1015194,17.7822362 23.4942089,17.0676342 23.5545455,16.25 C23.4941135,15.4314781 24.1008331,14.7155491 24.9181818,14.6409091 L24.9181818,14.6409091 Z M17.6454545,17.65 C18.2930071,17.1802133 19.1859852,17.2508047 19.7516812,17.8165006 C20.3173772,18.3821966 20.3879685,19.2751747 19.9181818,19.9227273 C19.2706293,20.392514 18.3776511,20.3219226 17.8119552,19.7562267 C17.2462592,19.1905307 17.1756678,18.2975525 17.6454545,17.65 L17.6454545,17.65 Z M17.6454545,32.1954545 C17.1756678,31.547902 17.2462592,30.6549239 17.8119552,30.0892279 C18.3776511,29.5235319 19.2706293,29.4529406 19.9181818,29.9227273 C20.3879685,30.5702798 20.3173772,31.463258 19.7516812,32.0289539 C19.1859852,32.5946499 18.2930071,32.6652413 17.6454545,32.1954545 L17.6454545,32.1954545 Z M32.1909091,32.1954545 C31.5433565,32.6652413 30.6503784,32.5946499 30.0846824,32.0289539 C29.5189865,31.463258 29.4483951,30.5702798 29.9181818,29.9227273 C30.5657344,29.4529406 31.4587125,29.5235319 32.0244085,30.0892279 C32.5901044,30.6549239 32.6606958,31.547902 32.1909091,32.1954545 L32.1909091,32.1954545 Z M14.65,24.9227273 C14.72464,24.1053785 15.440569,23.498659 16.2590909,23.5590909 C17.0767251,23.4987544 17.7913271,24.1060649 17.8636364,24.9227273 C17.7913271,25.7393897 17.0767251,26.3467002 16.2590909,26.2863636 C15.440569,26.3467956 14.72464,25.740076 14.65,24.9227273 L14.65,24.9227273 Z M24.9272727,35.1954545 C24.1378896,35.0690996 23.5572,34.3880682 23.5572,33.5886364 C23.5572,32.7892045 24.1378896,32.1081731 24.9272727,31.9818182 C25.7166558,32.1081731 26.2973454,32.7892045 26.2973454,33.5886364 C26.2973454,34.3880682 25.7166558,35.0690996 24.9272727,35.1954545 L24.9272727,35.1954545 Z M35.2,24.9227273 C35.0736451,25.7121104 34.3926137,26.2928 33.5931818,26.2928 C32.79375,26.2928 32.1127185,25.7121104 31.9863636,24.9227273 C32.1127185,24.1333442 32.79375,23.5526546 33.5931818,23.5526546 C34.3926137,23.5526546 35.0736451,24.1333442 35.2,24.9227273 L35.2,24.9227273 Z M32.1909091,17.65 C32.6606958,18.2975525 32.5901044,19.1905307 32.0244085,19.7562267 C31.4587125,20.3219226 30.5657344,20.392514 29.9181818,19.9227273 C29.4483951,19.2751747 29.5189865,18.3821966 30.0846824,17.8165006 C30.6503784,17.2508047 31.5433565,17.1802133 32.1909091,17.65 L32.1909091,17.65 Z" id="Shape" fill="#EB212F"></path>
                <path d="M18.5954545,9.65 C19.6090909,9.23181818 20.8909091,10.0045455 21.4590909,11.3772727 C22.0272727,12.75 21.6681818,14.2045455 20.6545455,14.6227273 C19.6409091,15.0409091 18.3545455,14.2727273 17.7863636,12.9 C17.2181818,11.5272727 17.5772727,10.0727273 18.5954545,9.65 Z" id="Path" fill="#0093D2"></path>
                <path d="M9.65,18.5954545 C10.0727273,17.5818182 11.5272727,17.2318182 12.9,17.7863636 C14.2727273,18.3409091 15.0454545,19.6409091 14.6227273,20.6545455 C14.2,21.6681818 12.75,22.0181818 11.3772727,21.4590909 C10.0045455,20.9 9.23181818,19.6090909 9.65,18.5954545 Z" id="Path" fill="#0093D2"></path>
                <path d="M9.65,31.2409091 C9.23181818,30.2272727 10.0045455,28.9409091 11.3772727,28.3727273 C12.75,27.8045455 14.2045455,28.1681818 14.6227273,29.1818182 C15.0409091,30.1954545 14.2727273,31.4545455 12.9,32.05 C11.5272727,32.6454545 10.0727273,32.2727273 9.65,31.2409091 Z" id="Path" fill="#0093D2"></path>
                <path d="M18.5954545,40.1818182 C17.5772727,39.7636364 17.2318182,38.3090909 17.7863636,36.9363636 C18.3409091,35.5636364 19.6409091,34.7909091 20.6545455,35.2136364 C21.6681818,35.6363636 22.0181818,37.0863636 21.4590909,38.4590909 C20.9,39.8318182 19.6090909,40.6045455 18.5954545,40.1818182 Z" id="Path" fill="#0093D2"></path>
                <path d="M31.2409091,40.1818182 C30.2272727,40.6045455 28.9409091,39.8318182 28.3727273,38.4590909 C27.8045455,37.0863636 28.1818182,35.6318182 29.1818182,35.2136364 C30.1818182,34.7954545 31.4545455,35.5636364 32.05,36.9363636 C32.6454545,38.3090909 32.2727273,39.7636364 31.2409091,40.1818182 Z" id="Path" fill="#0093D2"></path>
                <path d="M40.1818182,31.2409091 C39.7636364,32.2545455 38.3090909,32.6045455 36.9363636,32.05 C35.5636364,31.4954545 34.7909091,30.1954545 35.2090909,29.1818182 C35.6272727,28.1681818 37.0863636,27.8181818 38.4590909,28.3727273 C39.8318182,28.9272727 40.6045455,30.2272727 40.1818182,31.2409091 Z" id="Path" fill="#0093D2"></path>
                <path d="M40.1818182,18.5954545 C40.6045455,19.6090909 39.8318182,20.8909091 38.4590909,21.4590909 C37.0863636,22.0272727 35.6318182,21.6681818 35.2090909,20.6545455 C34.7863636,19.6409091 35.5636364,18.3545455 36.9363636,17.7863636 C38.3090909,17.2181818 39.7636364,17.5772727 40.1818182,18.5954545 Z" id="Path" fill="#0093D2"></path>
                <path d="M31.2409091,9.65 C32.2545455,10.0727273 32.6045455,11.5272727 32.05,12.9 C31.4954545,14.2727273 30.1954545,15.0454545 29.1818182,14.6227273 C28.1681818,14.2 27.8181818,12.75 28.3727273,11.3772727 C28.9272727,10.0045455 30.2272727,9.23181818 31.2409091,9.65 Z" id="Path" fill="#0093D2"></path>
                <path d="M14.5454545,0.186363636 C15.4545455,-0.190909091 16.6272727,0.509090909 17.1454545,1.75 C17.6636364,2.99090909 17.3318182,4.31363636 16.4136364,4.69545455 C15.4954545,5.07727273 14.3318182,4.37727273 13.8136364,3.13181818 C13.2954545,1.88636364 13.6363636,0.568181818 14.5454545,0.186363636 Z" id="Path" fill="#0093D5"></path>
                <path d="M0.104545455,14.7590909 C0.486363636,13.85 1.80454545,13.5090909 3.04545455,14.0272727 C4.28636364,14.5454545 4.99090909,15.7045455 4.60909091,16.6227273 C4.22727273,17.5409091 2.91363636,17.8727273 1.66818182,17.3545455 C0.422727273,16.8363636 -0.277272727,15.6772727 0.104545455,14.7590909 Z" id="Path" fill="#0093D5"></path>
                <path d="M0.186363636,35.2772727 C-0.190909091,34.3681818 0.509090909,33.1954545 1.75,32.6818182 C2.99090909,32.1681818 4.31363636,32.4909091 4.69545455,33.4136364 C5.07727273,34.3363636 4.37727273,35.4954545 3.13181818,36.0090909 C1.88636364,36.5227273 0.568181818,36.2 0.186363636,35.2772727 Z" id="Path" fill="#0093D5"></path>
                <path d="M14.7590909,49.7318182 C13.85,49.35 13.5090909,48.0318182 14.0272727,46.7863636 C14.5454545,45.5409091 15.7045455,44.8409091 16.6227273,45.2227273 C17.5409091,45.6045455 17.8727273,46.9227273 17.3545455,48.1681818 C16.8363636,49.4136364 15.6772727,50.1090909 14.7590909,49.7318182 Z" id="Path" fill="#0093D5"></path>
                <path d="M35.2772727,49.6454545 C34.3681818,50.0272727 33.1954545,49.3272727 32.6818182,48.0818182 C32.1681818,46.8363636 32.4909091,45.5181818 33.4136364,45.1363636 C34.3363636,44.7545455 35.4954545,45.4590909 36.0090909,46.7045455 C36.5227273,47.95 36.2,49.2636364 35.2772727,49.6454545 Z" id="Path" fill="#0093D5"></path>
                <path d="M49.7318182,35.0772727 C49.35,35.9863636 48.0318182,36.3227273 46.7863636,35.8090909 C45.5409091,35.2954545 44.8409091,34.1272727 45.2227273,33.2090909 C45.6045455,32.2909091 46.9227273,31.9636364 48.1681818,32.4772727 C49.4136364,32.9909091 50.1090909,34.1545455 49.7318182,35.0772727 Z" id="Path" fill="#0093D5"></path>
                <path d="M49.6454545,14.5454545 C50.0272727,15.4545455 49.3272727,16.6272727 48.0818182,17.1454545 C46.8363636,17.6636364 45.5181818,17.3318182 45.1409091,16.4136364 C44.7636364,15.4954545 45.4590909,14.3318182 46.7045455,13.8136364 C47.95,13.2954545 49.2636364,13.6363636 49.6454545,14.5454545 Z" id="Path" fill="#0093D5"></path>
                <path d="M35.0772727,0.104545455 C35.9863636,0.486363636 36.3227273,1.80454545 35.8090909,3.04545455 C35.2954545,4.28636364 34.1272727,4.99090909 33.2090909,4.60909091 C32.2909091,4.22727273 31.9636364,2.91363636 32.4772727,1.66818182 C32.9909091,0.422727273 34.1545455,-0.277272727 35.0772727,0.104545455 Z" id="Path" fill="#0093D5"></path>
            </g>
        </g>
    </g>
</svg>