<?xml version="1.0"?>
<svg xmlns="http://www.w3.org/2000/svg" xmlns:xlink="http://www.w3.org/1999/xlink" xmlns:svgjs="http://svgjs.com/svgjs" version="1.1" width="54" height="54" x="0" y="0" viewBox="0 0 64 64" style="enable-background:new 0 0 512 512" xml:space="preserve" class=""><g><path xmlns="http://www.w3.org/2000/svg" d="m30.997 61.526.44.3c.17.116.366.174.563.174s.393-.058.563-.174l.439-.299c1.298-.882 2.54-1.846 3.733-2.849 2.154 2.053 5.062 3.322 8.265 3.322 6.617 0 12-5.383 12-12 0-4.549-2.544-8.515-6.284-10.549 1.787-4.372 2.952-9.01 3.449-13.808l.83-8.04c.044-.427-.189-.835-.581-1.013l-8.809-4.009c-3.421-1.561-6.502-3.734-9.16-6.459l-3.73-3.82c-.376-.385-1.055-.385-1.431 0l-3.73 3.82c-2.657 2.725-5.738 4.898-9.158 6.458l-8.81 4.01c-.391.178-.625.585-.581 1.013l.83 8.039c1.494 14.63 9.207 27.71 21.162 35.884zm1.003-1.736c-3.814-2.626-7.163-5.785-10-9.337v-7.263c0-4.849 3.858-8.804 8.664-8.983l-3.624 12.515c-.09.312-.023.649.18.903l4 5c.189.237.476.375.78.375s.591-.138.781-.375l.416-.52c.335 1.881 1.109 3.606 2.212 5.076-1.091.916-2.224 1.798-3.409 2.609zm0-35.6c2.29 0 4.436.981 5.957 2.689-.343 2.985-2.882 5.311-5.957 5.311s-5.614-2.326-5.957-5.311c1.521-1.708 3.667-2.689 5.957-2.689zm-5.537-.309c.907-2.166 3.046-3.691 5.537-3.691s4.63 1.526 5.537 3.691c-1.623-1.086-3.534-1.691-5.537-1.691s-3.914.605-5.537 1.691zm6.842 10.332c3.164.107 5.984 1.838 7.504 4.557-2.099.786-3.918 2.138-5.272 3.877zm.791 10.806c-.577 1.258-.942 2.63-1.051 4.075l-1.045 1.306-2.896-3.62 2.852-9.846zm20.904 4.981c0 5.514-4.486 10-10 10s-10-4.486-10-10 4.486-10 10-10 10 4.486 10 10zm-35.775-35.6c3.647-1.664 6.931-3.979 9.76-6.881l3.015-3.088 3.014 3.087c2.83 2.903 6.114 5.218 9.762 6.882l8.156 3.712-.756 7.325c-.474 4.578-1.581 9.004-3.295 13.219-1.22-.418-2.522-.656-3.881-.656-.754 0-1.489.078-2.205.212-1.309-2.604-3.572-4.529-6.262-5.437 2.092-1.445 3.467-3.856 3.467-6.585 0-4.411-3.589-8-8-8s-8 3.589-8 8c0 2.732 1.378 5.146 3.474 6.59-4.339 1.474-7.474 5.579-7.474 10.41v4.568c-4.485-6.519-7.343-14.164-8.175-22.321l-.756-7.325z" fill="#75a7ff" data-original="#000000" class=""/><path xmlns="http://www.w3.org/2000/svg" d="m42 44v3h-3c-.552 0-1 .448-1 1v4c0 .552.448 1 1 1h3v3c0 .552.448 1 1 1h4c.552 0 1-.448 1-1v-3h3c.552 0 1-.448 1-1v-4c0-.552-.448-1-1-1h-3v-3c0-.552-.448-1-1-1h-4c-.552 0-1 .448-1 1zm2 4v-3h2v3c0 .552.448 1 1 1h3v2h-3c-.552 0-1 .448-1 1v3h-2v-3c0-.552-.448-1-1-1h-3v-2h3c.552 0 1-.448 1-1z" fill="#75a7ff" data-original="#000000" class=""/><path xmlns="http://www.w3.org/2000/svg" d="m46 27c-.551 0-1-.449-1-1h-2c0 1.302.839 2.402 2 2.816v1.184h2v-1.184c1.161-.414 2-1.514 2-2.816 0-1.654-1.346-3-3-3-.551 0-1-.449-1-1s.449-1 1-1 1 .449 1 1h2c0-1.302-.839-2.402-2-2.816v-1.184h-2v1.184c-1.161.414-2 1.514-2 2.816 0 1.654 1.346 3 3 3 .551 0 1 .449 1 1s-.449 1-1 1z" fill="#75a7ff" data-original="#000000" class=""/></g></svg>
