<?xml version="1.0" encoding="UTF-8"?>
<svg width="54px" height="38px" viewBox="0 0 54 38" version="1.1" xmlns="http://www.w3.org/2000/svg" xmlns:xlink="http://www.w3.org/1999/xlink">
    <!-- Generator: Sketch 53.2 (72643) - https://sketchapp.com -->
    <title>1.2.2</title>
    <desc>Created with Sketch.</desc>
    <g id="Page-2" stroke="none" stroke-width="1" fill="none" fill-rule="evenodd">
        <g id="1.2.2" transform="translate(-11.000000, -20.000000)">
            <path d="M15.0353111,78 C6.76586784,78 -7.10542736e-15,71.056083 -7.10542736e-15,62.5690228 L-7.10542736e-15,15.4309772 C-7.10542736e-15,6.94391699 6.76586784,0 15.0353111,0 L60.9646889,0 C69.2341322,0 76,6.94391699 76,15.4309772 L76,62.5690228 C76,71.056083 69.2341322,78 60.9646889,78 L15.0353111,78 Z" id="Fill-1-Copy-28"></path>
            <path d="M64.9892409,41.0726289 C65,41.1375676 65,41.2133295 65,41.2782683 L65,53.1620621 C65,55.0994019 62.665272,56.2358302 60.7178721,56.8419254 C58.3401076,57.5887212 55.209205,58 51.8953975,58 C45.881052,58 39.4255828,56.6254628 38.8768679,53.6274566 C36.369994,53.6058103 34.0029886,53.3460553 31.9910341,52.8698377 C29.6993425,54.7530618 26.8374178,55.7704358 23.8786611,55.7704358 C16.7776449,55.7704358 11,49.9584164 11,42.8151524 C11,42.0034178 11.0753138,41.2025064 11.2259414,40.401595 C12.5493126,33.3773854 19.2952779,28.75591 26.2887029,30.0979778 L26.1703527,25.1626317 C26.1488344,25.0435773 26.1380753,24.9245229 26.1380753,24.8054685 C26.1380753,22.8681287 28.4728033,21.7425235 30.4202032,21.1364284 C32.7979677,20.4004557 35.9288703,20 39.2426778,20 C42.5672445,20 45.7304244,20.4004557 48.1512253,21.1364284 C50.7226539,21.9156935 52.1751345,22.97636 52.4763897,24.2859584 C52.5732218,24.4483053 52.6270173,24.6322985 52.6377764,24.8271148 L52.6377764,36.3753916 C55.6503288,36.4403304 58.4369396,36.8407861 60.6317992,37.5009969 C63.4614465,38.3668471 64.9246862,39.5682142 64.9892409,41.0726289 Z M50.3891213,30.8123042 C50.3891213,30.6607804 50.3783622,30.5200797 50.4967125,30.368556 L50.4967125,27.5328966 C49.7543335,27.9225292 48.9689181,28.2363999 48.1619845,28.4745087 C45.7411835,29.2104813 42.5672445,29.6109371 39.2534369,29.6109371 C36.0794979,29.6109371 33.0561865,29.2429507 30.7214585,28.5610937 C29.9145248,28.3446312 29.1398685,28.0415836 28.3974895,27.6627741 L28.4728033,30.714896 C29.6885834,31.1694674 30.8182905,31.818855 31.8404065,32.6305896 C31.8726838,32.6414127 31.894202,32.6414127 31.9264794,32.6522358 C33.9922295,33.1825691 36.5959354,33.4639704 39.2534369,33.4639704 C42.3305439,33.4639704 45.3538553,33.0743378 47.5379558,32.414127 C49.8726838,31.6998006 50.3891213,30.9530048 50.3891213,30.8123042 Z M31.0657501,23.2252919 C28.7955768,23.9179721 28.3006575,24.6106522 28.2898984,24.8162917 C28.2898984,24.8162917 28.3006575,24.8162917 28.3006575,24.8379379 C28.3544531,25.0760467 29,25.8120194 31.3132098,26.4830533 C33.4542738,27.1107946 36.273162,27.4571347 39.2426778,27.4571347 C42.3197848,27.4571347 45.3323371,27.0783253 47.5164375,26.4181145 C49.8511656,25.7146112 50.3783622,24.9678154 50.3783622,24.8162917 C50.3783622,24.675591 49.8619247,23.9396183 47.5271967,23.2252919 C45.3430962,22.554258 42.3197848,22.1754486 39.2426778,22.1754486 C36.1440526,22.1754486 33.2390915,22.554258 31.0657501,23.2252919 Z M31.0980275,50.8026203 C33.3359235,48.7570493 34.6162582,45.8672743 34.6054991,42.8259755 C34.6054991,42.100826 34.5301853,41.3648533 34.3903168,40.6505269 C33.5941423,36.8083167 30.7860132,33.6912561 27.0526001,32.5223583 C26.019725,32.2084876 24.9545726,32.0461407 23.8786611,32.0461407 C21.2104005,32.0461407 18.6282128,33.0418684 16.6592947,34.8493307 C12.2803347,38.8538878 11.9683204,45.6832811 15.9491931,50.0882939 C19.9300658,54.4933068 26.7190675,54.8071774 31.0980275,50.8026203 Z M33.8308428,51.0407291 C35.4769874,51.3113073 37.1446503,51.4628311 38.8123132,51.4844774 L38.7477585,47.8154372 L38.7477585,47.6206209 C37.7579199,47.6097978 36.8111178,47.5556821 35.8965929,47.4799203 C35.4016736,48.7678724 34.7023311,49.9692395 33.8308428,51.0407291 Z M36.7035266,41.5380234 C36.7358039,41.9709484 36.7573222,42.3930504 36.7573222,42.8151524 C36.7573222,43.6593563 36.6712493,44.5143834 36.5098625,45.3477642 C37.2199641,45.4018798 37.9623431,45.4343492 38.7154812,45.4451723 L38.6509265,41.6137852 C37.9838613,41.6029621 37.3275553,41.5813159 36.7035266,41.5380234 Z M39.350269,39.4599829 C41.1147639,37.51182 45.8595338,36.5377385 50.4751943,36.407861 L50.4751943,33.5722017 C49.7328153,33.9510111 48.958159,34.2648818 48.1512253,34.5029906 C45.7304244,35.2389633 42.5564854,35.639419 39.2319187,35.639419 C37.5965332,35.639419 35.9719068,35.5311877 34.3580395,35.3255483 C35.2295278,36.5377385 35.8750747,37.9014526 36.2839211,39.3517516 C37.209205,39.4166904 38.2098027,39.4599829 39.2426778,39.4599829 C39.2749552,39.4599829 39.3179916,39.4599829 39.350269,39.4599829 Z M40.7704722,41.1808602 C40.7704722,41.1808602 40.7704722,41.1808602 40.7919904,41.2241527 C40.8565451,41.4514383 41.4913329,42.1982341 43.8045427,42.869268 C45.9456067,43.4861863 48.7644949,43.8325263 51.7340108,43.8325263 C54.8003586,43.8325263 57.7053198,43.4753631 59.9109384,42.8151524 C62.299462,42.100826 62.8374178,41.3540302 62.8481769,41.1916833 L62.8481769,41.1808602 C62.8374178,41.0185132 62.299462,40.3041868 60.0077705,39.6115067 C57.8129109,38.9404728 54.8003586,38.5833096 51.7232516,38.5833096 L51.5403467,38.5833096 C48.678422,38.5833096 45.9563658,38.9080034 43.8690974,39.5032754 C41.6419605,40.1310168 40.8780634,40.8453432 40.7812313,41.1375676 C40.7704722,41.1592139 40.7704722,41.170037 40.7704722,41.1808602 Z M60.0938434,54.7855312 C62.3640167,54.0712048 62.858936,53.324409 62.858936,53.1728852 L62.8481769,53.1728852 L62.8481769,49.925947 C62.1273162,50.2939334 61.3741781,50.607804 60.5887627,50.8459128 C58.1787209,51.5818855 55.0263001,51.9823412 51.7017334,51.9823412 C48.7537358,51.9823412 45.881052,51.6468243 43.6216378,51.0515523 C42.6963539,50.8134435 41.8033473,50.4887496 40.9426181,50.0666477 L40.9964136,53.2053546 C40.9964136,53.2161777 40.9964136,53.2161777 40.9964136,53.2270009 C40.9964136,53.3893478 41.4698147,54.1144973 43.739988,54.8180006 C45.8918111,55.4782113 48.7967723,55.8461977 51.9061566,55.8461977 C55.0047818,55.8461977 57.9205021,55.4673882 60.0938434,54.7855312 Z M62.8696952,46.8197095 L62.8696952,43.9407576 C62.1165571,44.3303902 61.3311417,44.6442609 60.5134489,44.8715466 C58.1141662,45.585873 54.9940227,45.9755056 51.7232516,45.9755056 C48.5493126,45.9755056 45.5260012,45.6075192 43.1912732,44.9256622 C42.3843395,44.6983765 41.5989241,44.395329 40.845786,44.0165195 L40.8888225,46.5058388 L40.8995816,47.4149815 C41.7387926,48.4648248 45.7519426,49.8177158 51.7124925,49.8177158 C54.8218769,49.8177158 57.7591154,49.4497294 59.964734,48.7786955 C62.2887029,48.0643691 62.7943814,47.3283965 62.7943814,47.1768727 C62.7943814,47.0578183 62.858936,46.9279408 62.858936,46.8197095 L62.8696952,46.8197095 Z M27.8472145,45.1157895 C28.4508464,47.2315789 27.2118125,49.4210526 25.0832159,50.0210526 L25.0832159,50.9473684 C25.0832159,51.5263158 24.6066644,52 24.0242126,52 C23.4417608,52 22.9652093,51.5263158 22.9652093,50.9473684 L22.9652093,50.0315789 C21.2178538,49.5578947 20.01059,47.9894737 20,46.1894737 C20,45.6105263 20.4765515,45.1368421 21.0590033,45.1368421 C21.6414551,45.1368421 22.1180066,45.6105263 22.1180066,46.1894737 C22.1180066,47.2210526 22.9652093,48.0526316 24.0030325,48.0526316 C25.0408558,48.0526316 25.8774684,47.2105263 25.8774684,46.1789474 C25.8774684,45.1473684 25.0302657,44.3157895 23.9924425,44.3157895 C22.1815468,44.3157895 20.6036319,43.1052632 20.1376704,41.3684211 C19.5658086,39.2526316 20.8366126,37.0736842 22.9652093,36.5052632 L22.9652093,36.0526316 C22.9652093,35.4736842 23.4417608,35 24.0242126,35 C24.6066644,35 25.0832159,35.4736842 25.0832159,36.0526316 L25.0832159,36.5263158 C26.8093913,37.0105263 27.995475,38.5789474 27.995475,40.3578947 C27.995475,40.9368421 27.5189235,41.4105263 26.9364717,41.4105263 C26.3540199,41.4105263 25.8774684,40.9368421 25.8774684,40.3578947 C25.8774684,39.3263158 25.0302657,38.4842105 23.9924425,38.4842105 C22.9546192,38.4842105 22.1180066,39.3157895 22.1074166,40.3578947 C22.1074166,41.3894737 22.9546192,42.2210526 23.9924425,42.2210526 C25.7821581,42.2210526 27.360073,43.4 27.8472145,45.1157895 Z" id="Combined-Shape" fill="#75A7FF" fill-rule="nonzero"></path>
        </g>
    </g>
</svg>