<?xml version="1.0" encoding="UTF-8"?>
<svg width="51px" height="45px" viewBox="0 0 51 45" version="1.1" xmlns="http://www.w3.org/2000/svg" xmlns:xlink="http://www.w3.org/1999/xlink">
    <!-- Generator: Sketch 53.2 (72643) - https://sketchapp.com -->
    <title>3.2.3</title>
    <desc>Created with Sketch.</desc>
    <g id="Page-2" stroke="none" stroke-width="1" fill="none" fill-rule="evenodd">
        <g id="3.2.3" transform="translate(-13.000000, -16.000000)">
            <path d="M15.0353111,78 C6.76586784,78 4.97379915e-14,71.056083 4.97379915e-14,62.5690228 L4.97379915e-14,15.4309772 C4.97379915e-14,6.94391699 6.76586784,0 15.0353111,0 L60.9646889,0 C69.2341322,0 76,6.94391699 76,15.4309772 L76,62.5690228 C76,71.056083 69.2341322,78 60.9646889,78 L15.0353111,78 Z" id="Fill-1-Copy-95"></path>
            <path d="M49.5132075,40 C51.4362264,40 53,41.5179487 53,43.3846154 L53,48.6153846 C53,50.4820513 51.4362264,52 49.5132075,52 L42.4867925,52 C40.5637736,52 39,50.4820513 39,48.6153846 L39,43.3846154 C39,41.5179487 40.5637736,40 42.4867925,40 L49.5132075,40 Z M50.4641509,48.6153846 L50.4641509,43.3846154 C50.4641509,42.8820513 50.0415094,42.4615385 49.5132075,42.4615385 L42.4867925,42.4615385 C41.9690566,42.4615385 41.5358491,42.8717949 41.5358491,43.3846154 L41.5358491,48.6153846 C41.5358491,49.1179487 41.9584906,49.5384615 42.4867925,49.5384615 L49.5132075,49.5384615 C50.0309434,49.5384615 50.4641509,49.1282051 50.4641509,48.6153846 Z M64,30.7437398 C64,33.7767377 62.1867593,36.3779546 59.6023702,37.5258601 C59.6127912,37.567985 59.6127912,37.61011 59.6127912,37.6627662 L59.6127912,59.7362509 C59.6127912,60.4313129 59.0500613,61 58.3622803,61 L35.2903555,61 C35.2799346,61 35.2695137,61 35.2590928,61 L25.5676338,61 C25.5572129,61 25.546792,61 25.5363711,61 L18.6272987,61 C17.9395178,61 17.3767879,60.4313129 17.3767879,59.7362509 L17.3767879,37.5047976 C14.8028198,36.3568921 13,33.7662064 13,30.7437398 C13,30.5225837 13.0625255,30.3119588 13.1667348,30.1223964 L20.7427462,16.6424058 C20.9615856,16.2422186 21.3784226,16 21.8265223,16 L55.1630568,16 C55.6111565,16 56.0279935,16.2527498 56.2468329,16.6424058 L63.8332652,30.1223964 C63.9478954,30.3119588 64,30.5225837 64,30.7437398 Z M22.5559869,18.5380295 L16.6369023,29.0798034 L60.3630977,29.0798034 L54.4335922,18.5380295 L22.5559869,18.5380295 Z M49.2960768,31.5967704 L39.8338782,31.5967704 C40.2298733,33.8715188 42.1994279,35.5986426 44.5649775,35.5986426 C46.9305272,35.5986426 48.9000817,33.8715188 49.2960768,31.5967704 Z M37.1765427,31.5967704 L27.7039232,31.5967704 C28.1103392,33.8715188 30.0798937,35.5986426 32.4454434,35.5986426 C34.8109931,35.5986426 36.7805476,33.8715188 37.1765427,31.5967704 Z M15.584389,31.5967704 C15.9803841,33.8715188 17.9499387,35.6091739 20.3154884,35.5986426 C22.681038,35.5986426 24.6610135,33.8715188 25.0570086,31.5967704 L15.584389,31.5967704 Z M34.0085819,58.4725018 L34.0190029,58.4725018 L34.0190029,44.8345425 C34.0190029,43.8340744 33.2165917,43.0337 32.2370249,43.0337 L28.6001226,43.0337 C27.6101349,43.0337 26.8181447,43.8446057 26.8181447,44.8345425 L26.8181447,58.4725018 L34.0085819,58.4725018 Z M57.1117695,58.4725018 L57.1117695,38.1261409 C56.9658766,38.1261409 56.8304046,38.1366721 56.6845116,38.1366721 C54.1626481,38.1366721 51.9325705,36.8413293 50.6195341,34.8719869 C49.3064978,36.8413293 47.086841,38.1366721 44.5649775,38.1366721 C42.0535349,38.1366721 39.8234573,36.8413293 38.5104209,34.8719869 C37.1869636,36.8413293 34.9673069,38.1366721 32.4454434,38.1366721 C29.9235799,38.1366721 27.6935022,36.8413293 26.3804659,34.8719869 C25.0674295,36.8413293 22.8373519,38.1366721 20.3154884,38.1366721 C20.1695954,38.1366721 20.0237025,38.1366721 19.8778096,38.1261409 L19.8778096,58.483033 L24.3067021,58.483033 L24.3067021,44.8345425 C24.3067021,42.4439504 26.2345729,40.5062017 28.5897017,40.5062017 L32.226604,40.5062017 C34.5921537,40.5062017 36.5096036,42.4544816 36.5096036,44.8345425 L36.5096036,58.4725018 L57.1117695,58.4725018 Z M56.6845116,35.6091739 C59.0500613,35.6091739 61.0196159,33.8715188 61.4260319,31.6073017 L51.9534123,31.6073017 C52.3494074,33.8820501 54.318962,35.6091739 56.6845116,35.6091739 Z" id="Combined-Shape" fill="#75A7FF" fill-rule="nonzero"></path>
        </g>
    </g>
</svg>