<?xml version="1.0" encoding="UTF-8"?>
<svg width="61px" height="60px" viewBox="0 0 61 60" version="1.1" xmlns="http://www.w3.org/2000/svg" xmlns:xlink="http://www.w3.org/1999/xlink">
    <!-- Generator: Sketch 53.2 (72643) - https://sketchapp.com -->
    <title>2.4.2</title>
    <desc>Created with Sketch.</desc>
    <g id="Page-2" stroke="none" stroke-width="1" fill="none" fill-rule="evenodd">
        <g id="2.4.2" transform="translate(-8.000000, -7.000000)">
            <path d="M15.0353111,78 C6.76586784,78 4.97379915e-14,71.056083 4.97379915e-14,62.5690228 L4.97379915e-14,15.4309772 C4.97379915e-14,6.94391699 6.76586784,0 15.0353111,0 L60.9646889,0 C69.2341322,0 76,6.94391699 76,15.4309772 L76,62.5690228 C76,71.056083 69.2341322,78 60.9646889,78 L15.0353111,78 Z" id="Fill-1-Copy-80"></path>
            <g id="Group-21" transform="translate(8.000000, 7.500000)" fill="#75A7FF" fill-rule="nonzero">
                <path d="M47.7931122,18.140206 C45.0603342,16.9921562 42.1157888,16.4001775 39.1399927,16.4007966 C36.1708025,16.3995584 33.23299,16.9915371 30.507707,18.140206 C28.9630879,17.4892895 27.3456776,17.0161771 25.6885054,16.7306505 L30.6449049,12.7050469 C30.9831992,12.4301687 31.1013418,11.9742671 30.9375936,11.5758176 L28.9050329,6.62305729 C28.7508123,6.24664751 28.3768211,5.99987623 27.9609084,6.00000005 L14.7492632,6.00000005 C14.3334775,5.99987623 13.9593593,6.24664751 13.8051387,6.62305729 L11.7725779,11.5758176 C11.6088298,11.9742671 11.7269724,12.4301687 12.0652667,12.7050469 L17.223906,16.8950821 C5.4332749,19.3844632 -2.05442499,30.7187313 0.499741713,42.2108686 C3.05378138,53.703006 14.6824428,61.0011459 26.4730739,58.5117647 C27.8524204,58.2205424 29.1995001,57.7996816 30.4956387,57.2551256 C41.5774142,61.9108441 54.4332342,56.9288625 59.2098791,46.1275115 C63.9863969,35.3262842 58.8750147,22.7959245 47.7931122,18.140206 Z M27.7779779,9.21236036 L28.4893742,10.9527603 L26.7068184,10.9527603 L27.7779779,9.21236036 Z M26.1661572,7.98110416 L24.9120672,10.0186697 L23.6579772,7.98110416 L26.1661572,7.98110416 Z M21.7443212,8.7220371 L23.117316,10.9527603 L19.9129839,10.9527603 L21.7443212,8.7220371 Z M19.7483465,7.98110416 L17.9190418,10.2118274 L16.5440144,7.98110416 L19.7483465,7.98110416 L19.7483465,7.98110416 Z M14.9321937,9.21236036 L16.0033532,10.9527603 L14.2177486,10.9527603 L14.9321937,9.21236036 Z M15.5236689,12.9338644 L27.1865027,12.9338644 L23.5278933,15.9055206 L19.1822783,15.9055206 L15.5236689,12.9338644 Z M21.863226,57.0134309 C10.9183943,57.0030301 2.05439665,48.3467195 2.06494056,37.6789692 C2.07548447,27.0112188 10.9567588,18.3716238 21.9017176,18.3819007 C24.0050369,18.3838818 26.0946365,18.7122499 28.0921356,19.3546229 C27.3233195,19.7967805 26.5828321,20.2840083 25.8746117,20.813706 C16.2879117,18.6353583 6.70464167,24.4442031 4.46971405,33.7880807 C2.23478642,43.1319582 8.19450873,52.4726165 17.7810817,54.6509643 C27.3676547,56.8293121 36.9509247,51.0204672 39.1858524,41.6765896 C40.7948783,34.949503 38.1622039,27.932556 32.4803073,23.8041827 C33.1936091,23.4751956 33.9315557,23.1993269 34.6876683,22.9790528 C43.0310763,29.8783717 44.0563762,42.0637717 36.9779832,50.1958326 C33.2120292,54.5224401 27.6844801,57.0156597 21.863226,57.0134309 Z M23.8866403,22.4768429 C15.2566412,30.6636319 15.0697726,44.119291 23.4692031,52.5308114 C23.5982707,52.6600785 23.7288627,52.787612 23.8612332,52.913536 C15.2360615,53.9965808 7.34324687,48.0594594 6.23207129,39.6526441 C5.12089571,31.2458288 11.2122263,23.5528301 19.837271,22.4697853 C20.5090324,22.3854645 21.1857481,22.3433661 21.863099,22.3439852 C22.5399417,22.3465853 23.2157682,22.3909126 23.8866403,22.4768429 Z M30.5016094,50.5213528 C23.2353316,45.8873026 21.1990867,36.3892704 25.9535005,29.306947 C27.1398808,27.5395545 28.6884381,26.0303246 30.5016094,24.8739789 C37.7678872,29.5090196 39.8033697,39.0077947 35.0479397,46.0901181 C33.8618134,47.8566439 32.3140184,49.3652547 30.5016094,50.5213528 Z M37.1399529,22.4817957 L37.1419855,22.4817957 C45.7677924,21.4081611 53.653366,27.3533307 54.7548869,35.7607651 C55.8564078,44.1681995 49.7568199,51.8541405 41.1310131,52.9277752 C39.7951125,53.0940641 38.4428244,53.0925783 37.1073049,52.9234415 C45.7406069,44.7399957 45.9329379,31.2844604 37.5369374,22.8697207 C37.4064724,22.7387201 37.2741019,22.6094531 37.1399529,22.4817957 Z M54.2377272,50.2111861 C50.4729165,54.5277644 44.9528625,57.0149168 39.1401198,57.0135547 C37.0237158,57.0173931 34.9205236,56.6889013 32.9113372,56.0408326 C33.6814237,55.5980559 34.4229273,55.1097137 35.1319099,54.5787778 C44.722675,56.7589829 54.3108994,50.9484045 56.5477326,41.6004409 C58.7845657,32.2524774 52.8230649,22.9069902 43.2322998,20.7267851 C33.6415347,18.54658 24.0533102,24.3571584 21.8164771,33.7049981 C20.2057997,40.4361708 22.8402526,47.4576991 28.5259603,51.5881773 C27.8115151,51.9186502 27.0721712,52.1955095 26.3145341,52.4162788 C17.9790023,45.5096546 16.9661519,33.3245023 24.0521669,25.2001182 C31.138182,17.0756102 43.6398282,16.0884013 51.9753601,22.9950255 C60.3107648,29.9015259 61.3237423,42.0866782 54.2377272,50.2111861 Z" id="Shape"></path>
                <polygon id="Rectangle" transform="translate(34.507511, 4.498282) rotate(-45.000000) translate(-34.507511, -4.498282) " points="33.0763892 3.48029566 35.9220002 3.5038131 35.9386321 5.51626782 33.0930211 5.49275037"></polygon>
                <polygon id="Rectangle" transform="translate(8.130369, 4.497873) rotate(-45.000000) translate(-8.130369, -4.497873) " points="7.11238265 3.06675142 9.12483736 3.08338327 9.14835481 5.92899424 7.1359001 5.91236238"></polygon>
                <rect id="Rectangle" x="20" y="0" width="2" height="3"></rect>
            </g>
        </g>
    </g>
</svg>