<?xml version="1.0" encoding="UTF-8"?>
<svg width="50px" height="50px" viewBox="0 0 50 50" version="1.1" xmlns="http://www.w3.org/2000/svg" xmlns:xlink="http://www.w3.org/1999/xlink">
    <!-- Generator: Sketch 53.2 (72643) - https://sketchapp.com -->
    <title>5.1.4</title>
    <desc>Created with Sketch.</desc>
    <g id="Page-2" stroke="none" stroke-width="1" fill="none" fill-rule="evenodd">
        <g id="5.1.4" transform="translate(-15.000000, -12.000000)">
            <path d="M15.0353111,78 C6.76586784,78 4.97379915e-14,71.056083 4.97379915e-14,62.5690228 L4.97379915e-14,15.4309772 C4.97379915e-14,6.94391699 6.76586784,0 15.0353111,0 L60.9646889,0 C69.2341322,0 76,6.94391699 76,15.4309772 L76,62.5690228 C76,71.056083 69.2341322,78 60.9646889,78 L15.0353111,78 Z" id="Fill-1-Copy-103"></path>
            <path d="M48,45 C48.5519531,45 49,45.4480469 49,46 C49,46.5519531 48.5519531,47 48,47 C47.4480469,47 47,46.5519531 47,46 C47,45.4480469 47.4480469,45 48,45 Z M27,28 C26.4476562,28 26,27.5523438 26,27 L26,23 C26,22.4476562 26.4476562,22 27,22 C27.5523438,22 28,22.4476562 28,23 L28,27 C28,27.5523438 27.5523438,28 27,28 Z M61.09375,35.046875 C63.2475281,35.046875 65,36.7993469 65,38.953125 L65,47.7421875 C65,49.3577118 63.6858368,50.671875 62.0703125,50.671875 L61.09375,50.671875 L61.09375,53.2109375 C61.09375,55.9033508 58.9033508,58.09375 56.2109375,58.09375 L54.5500184,58.09375 C54.0964508,60.3200073 52.1234894,62 49.765625,62 L19.8828125,62 C17.1903992,62 15,59.8096008 15,57.1171875 L15,27.234375 C15,24.5419617 17.1903992,22.3515625 19.8828125,22.3515625 L20.859375,22.3515625 L20.859375,21.375 C20.859375,19.7594757 22.1735382,18.4453125 23.7890625,18.4453125 L26.71875,18.4453125 L26.71875,14.9296875 C26.71875,13.3141632 28.0329132,12 29.6484375,12 L47.8125,12 C49.4280243,12 50.7421875,13.3141632 50.7421875,14.9296875 L50.7421875,22.3515625 L56.2109375,22.3515625 C58.9033508,22.3515625 61.09375,24.5419617 61.09375,27.234375 L61.09375,35.046875 Z M63.046875,38.953125 C63.046875,37.8762359 62.1706391,37 61.09375,37 L61.09375,40.90625 C62.1725464,40.90625 63.046875,40.0319214 63.046875,38.953125 Z M56.2109375,24.3046875 L50.7421875,24.3046875 L50.7421875,30.2624816 C52.9684448,30.7160492 54.6484375,32.6890106 54.6484375,35.046875 L54.6484375,40.90625 L59.140625,40.90625 L59.140625,27.234375 C59.140625,25.6188507 57.8264618,24.3046875 56.2109375,24.3046875 Z M28.671875,14.9296875 L28.671875,18.4453125 L41.3671875,18.4453125 C42.9827118,18.4453125 44.296875,19.7594757 44.296875,21.375 L44.296875,30.1640625 L48.7890625,30.1640625 L48.7890625,14.9296875 C48.7890625,14.3910522 48.3511353,13.953125 47.8125,13.953125 L29.6484375,13.953125 C29.1098022,13.953125 28.671875,14.3910522 28.671875,14.9296875 Z M38.4375,30.1640625 L42.34375,30.1640625 L42.34375,21.375 C42.34375,20.8363647 41.9058228,20.3984375 41.3671875,20.3984375 L38.4375,20.3984375 L38.4375,30.1640625 Z M32.578125,30.1640625 L36.484375,30.1640625 L36.484375,20.3984375 L32.578125,20.3984375 L32.578125,30.1640625 Z M22.8125,21.375 L22.8125,30.1640625 L30.625,30.1640625 L30.625,20.3984375 L23.7890625,20.3984375 C23.2504272,20.3984375 22.8125,20.8363647 22.8125,21.375 Z M19.8828125,24.3046875 C18.2672882,24.3046875 16.953125,25.6188507 16.953125,27.234375 C16.953125,28.9952393 18.4778595,30.1640625 20.0918579,30.1640625 L20.859375,30.1640625 L20.859375,24.3046875 L19.8828125,24.3046875 Z M49.765625,60.046875 C51.3811493,60.046875 52.6953125,58.7327118 52.6953125,57.1171875 L52.6953125,50.671875 L45.859375,50.671875 C44.2438507,50.671875 42.9296875,49.3577118 42.9296875,47.7421875 L42.9296875,43.8359375 C42.9296875,42.2204132 44.2438507,40.90625 45.859375,40.90625 L52.6953125,40.90625 L52.6953125,35.046875 C52.6953125,33.4313507 51.3811493,32.1171875 49.765625,32.1171875 L20.0918579,32.1171875 C18.9230347,32.1171875 17.8263092,31.7307587 16.953125,31.0803527 L16.953125,57.1171875 C16.953125,58.7327118 18.2672882,60.046875 19.8828125,60.046875 L49.765625,60.046875 Z M59.140625,53.2109375 L59.140625,50.671875 L54.6484375,50.671875 L54.6484375,56.140625 L56.2109375,56.140625 C57.8264618,56.140625 59.140625,54.8264618 59.140625,53.2109375 Z M62.0703125,48.71875 C62.6089478,48.71875 63.046875,48.2808228 63.046875,47.7421875 L63.046875,42.33638 C62.4594116,42.6770324 61.7906952,42.859375 61.09375,42.859375 L45.859375,42.859375 C45.3207397,42.859375 44.8828125,43.2973022 44.8828125,43.8359375 L44.8828125,47.7421875 C44.8828125,48.2808228 45.3207397,48.71875 45.859375,48.71875 L62.0703125,48.71875 Z M56.0909091,45 C56.5930398,45 57,45.4476562 57,46 C57,46.5523438 56.5930398,47 56.0909091,47 L51.9090909,47 C51.4069602,47 51,46.5523438 51,46 C51,45.4476562 51.4069602,45 51.9090909,45 L56.0909091,45 Z M36,47.2726154 C36,48.0662729 35.751481,48.7018049 35.2513469,49.1791167 C34.7542058,49.6564284 34.1486988,49.9728688 33.4381286,50.1255972 L33.4381286,51.0239774 L33.4381286,51.1016199 C33.4381286,51.5976795 32.9789671,52 32.4408534,52 C31.9027396,52 31.4611231,51.5976795 31.4611231,51.1016199 L31.4611231,50.1335509 C31.0195065,50.0398118 30.6187594,49.8896399 30.2619778,49.6830352 C29.8964237,49.4684769 29.642022,49.280904 29.4957798,49.1172867 L29.2823507,48.859741 C28.3756899,47.773788 29.8672165,46.6154003 30.7357945,47.4520452 C30.8410641,47.5511814 30.9522165,47.6746518 31.0809138,47.80333 C31.4435781,48.1734573 31.9759124,48.2322573 32.4086532,48.2322573 C33.2275893,48.2322573 33.6398955,47.9239599 33.6398955,47.301968 C33.6398955,47.0793614 33.481991,46.9076958 33.1719615,46.7844147 C32.861932,46.6637848 32.4846125,46.5538544 32.0430992,46.4571801 C31.5983865,46.3606951 31.1538801,46.2293657 30.7123668,46.0683997 C30.2678605,45.9048771 29.8906442,45.6259323 29.5806147,45.2290089 C29.2705852,44.8321801 29.1155705,44.3280722 29.1155705,43.7193363 C29.1155705,43.1079492 29.3289996,42.5636945 29.7472917,42.0729373 C30.1597011,41.5875772 30.7562292,41.2578808 31.478668,41.1291079 L31.478668,40.9226926 L31.478668,39.8982855 C31.478668,39.4049717 31.9202846,39 32.4583983,39 C32.999505,39 33.4381286,39.4049717 33.4381286,39.8982855 L33.4381286,40.2763664 L33.4381286,41.1424586 C33.7481581,41.2041939 34.0318701,41.2899793 34.2862718,41.4025609 C34.5436665,41.5124913 34.7191159,41.6036738 34.8186061,41.6761086 L34.9706278,41.7967384 C36.2574978,42.6816732 35.0144902,44.250335 33.9031728,43.3921964 C33.1515268,42.8130026 31.4435781,42.6843244 31.4435781,43.7488783 C31.4435781,43.9742309 31.5576203,44.1538501 31.7828148,44.2906713 C32.0110022,44.4273031 32.2917213,44.5213262 32.6251785,44.5668701 C32.9556427,44.6125087 33.3212999,44.6875 33.7219439,44.7947792 C34.1196981,44.9020583 34.4881419,45.0253394 34.8187093,45.1675577 C35.1520632,45.3096813 35.4327823,45.5618299 35.6609698,45.9238142 C35.8859579,46.2831474 36,46.7337577 36,47.2726154 Z" id="Combined-Shape" fill="#75A7FF" fill-rule="nonzero"></path>
        </g>
    </g>
</svg>