<?xml version="1.0" encoding="UTF-8"?>
<svg width="49px" height="58px" viewBox="0 0 49 58" version="1.1" xmlns="http://www.w3.org/2000/svg" xmlns:xlink="http://www.w3.org/1999/xlink">
    <!-- Generator: Sketch 53.2 (72643) - https://sketchapp.com -->
    <title>5.1.2</title>
    <desc>Created with Sketch.</desc>
    <g id="Page-2" stroke="none" stroke-width="1" fill="none" fill-rule="evenodd">
        <g id="5.1.2" transform="translate(-9.000000, -10.000000)">
            <path d="M15.0353111,78 C6.76586784,78 4.97379915e-14,71.056083 4.97379915e-14,62.5690228 L4.97379915e-14,15.4309772 C4.97379915e-14,6.94391699 6.76586784,0 15.0353111,0 L60.9646889,0 C69.2341322,0 76,6.94391699 76,15.4309772 L76,62.5690228 C76,71.056083 69.2341322,78 60.9646889,78 L15.0353111,78 Z" id="Fill-1-Copy-99"></path>
            <path d="M56.7967487,35 C57.4610976,35 57.9995302,35.5089083 58,36.1368285 L58,39.6117047 C58,44.3171089 56.0586357,48.737862 52.5329826,52.0604209 L50.4055629,54.0654134 L50.4055629,66.8631715 C50.4055629,67.4910917 49.8671302,68 49.2027814,68 C48.5389024,68 48,67.4910917 48,66.8631715 L48,53.5933632 C48,53.2913931 48.1273256,53.001857 48.3537869,52.7887016 L50.8345236,50.450654 C53.9039654,47.5575143 55.5939673,43.7082839 55.5939673,39.6117047 L55.5939673,36.1368285 C55.5939673,35.5089083 56.1328698,35 56.7967487,35 Z M57,31 C57.2628907,31 57.5207032,31.1070312 57.7070313,31.2929688 C57.8929688,31.4792969 58,31.7371094 58,32 C58,32.2632812 57.8925782,32.5210938 57.7070313,32.7070312 C57.5207032,32.8929688 57.2628907,33 57,33 C56.7367188,33 56.4789063,32.8929688 56.2929688,32.7070312 C56.1070313,32.5210938 56,32.2632812 56,32 C56,31.7371094 56.1070313,31.4792969 56.2929688,31.2929688 C56.4789063,31.1070312 56.7367188,31 57,31 Z M10,10 C10.2628906,10 10.5210938,10.1066406 10.7070312,10.2929687 C10.89375,10.4789062 11,10.7367187 11,11 C11,11.2628906 10.89375,11.5207031 10.7070312,11.7066406 C10.5210938,11.8929687 10.2628906,12 10,12 C9.7371094,12 9.4789062,11.8925781 9.2929688,11.7066406 C9.1070312,11.5207031 9,11.2628906 9,11 C9,10.7367187 9.1070312,10.4789062 9.2929688,10.2929687 C9.4789062,10.1066406 9.7371094,10 10,10 Z M50.6524899,45.0047912 C50.0677294,45.6039429 49.2994217,45.9035186 48.5319777,45.9035186 C48.1061477,45.9035186 47.6807496,45.8110352 47.2864466,45.6273956 C47.1447912,45.9238739 46.9547656,46.201767 46.7146426,46.4482422 C46.1298821,47.0473937 45.3615743,47.3469696 44.5936984,47.3469696 C44.1095652,47.3469696 43.6254319,47.2274933 43.1870776,46.9894257 C43.0467177,47.2682037 42.8640341,47.5257416 42.6416179,47.7540741 C42.0568574,48.3532257 41.2885496,48.6528016 40.5202419,48.6528016 C39.7523659,48.6528016 38.9840581,48.3532257 38.3992977,47.7540741 L32.4057195,41.6125488 L30.9576385,40.12883 C29.0202419,38.1441955 27.9116156,35.3957978 27.9155024,32.5889893 L27.9176618,31.1446533 L26.8168093,30.0167084 L26.3313805,29.8600616 C26.0148152,29.7724457 25.6887486,29.7574005 25.3626822,29.8166962 C24.7679885,29.9242248 24.2518964,30.2645111 23.9107143,30.7751617 C23.5691002,31.2858124 23.4451518,31.9013367 23.5621901,32.5088959 L25.2711243,41.3877563 C25.8459516,44.3742218 27.2612099,47.0885468 29.364879,49.2373505 L32.8933078,52.8424377 C33.1010403,53.05484 33.2180787,53.3433533 33.2180787,53.6442566 L33.2180787,66.8671875 C33.2180787,67.4928895 32.7227167,68 32.1124756,68 C31.5018026,68 31.0068725,67.4928895 31.0068725,66.8671875 L31.0068725,54.1146393 L27.8032146,50.8418731 C25.3877309,48.373581 23.761717,45.256134 23.1013782,41.8262787 L21.392444,32.9469757 C21.1596627,31.7376099 21.406264,30.5114288 22.0864691,29.4945526 C22.6815946,28.6042328 23.5427557,27.9741059 24.5429811,27.6869201 L12.3239072,15.1671295 C11.8920309,14.7246246 11.8920309,14.0073242 12.3239072,13.5652618 C12.7557834,13.1227569 13.4554229,13.1227569 13.8872991,13.5652618 L28.1996771,28.2303162 C28.2001089,28.2303162 28.2005407,28.2307587 28.2005407,28.2312012 L29.8049609,29.8751068 C30.0131253,30.0879517 30.1293,30.3769073 30.128868,30.6778106 L30.1262768,32.5925293 C30.1232537,34.8015137 30.9960755,36.9644775 32.5205986,38.5269623 L39.9622578,46.1517639 C40.2697537,46.4663849 40.7698663,46.4668273 41.0769303,46.1517639 C41.2259276,45.9990997 41.3079841,45.7964325 41.3079841,45.5809326 C41.3079841,45.3986206 41.2492489,45.2264862 41.1412798,45.0853271 L38.9417343,42.8312072 C38.509858,42.3887023 38.509858,41.6714019 38.9417343,41.2293397 C38.9421661,41.2284546 38.9430299,41.2280121 38.9434618,41.227127 C38.9443256,41.2262421 38.9451893,41.225357 38.946053,41.2244721 C39.3779292,40.7819672 40.0780006,40.7819672 40.5098769,41.2244721 L42.6407541,43.4077911 C42.6861012,43.4538116 42.7288568,43.5016021 42.7707488,43.5507202 L44.0352824,44.8463745 C44.3423464,45.1609955 44.842891,45.1609955 45.149955,44.8463745 C45.4341295,44.5552062 45.4552914,44.0963287 45.2143045,43.7799377 L41.6150481,40.0921021 C41.1831719,39.6495972 41.1831719,38.9322968 41.6150481,38.4897919 C41.6159118,38.4889068 41.6167755,38.4884644 41.6176393,38.4875793 C41.6185031,38.4866943 41.618935,38.4858094 41.6197987,38.4849243 C42.0516749,38.0428619 42.7517463,38.0428619 43.1836226,38.4849243 L46.7137787,42.1019592 C46.7591257,42.1484223 46.8018815,42.1966553 46.8437735,42.2453309 L47.9735617,43.4029236 C48.2810575,43.7175445 48.7811702,43.7175445 49.0882343,43.4029236 C49.2372315,43.2502594 49.319288,43.0475922 49.319288,42.8316498 C49.319288,42.6161499 49.2372315,42.4134826 49.0886661,42.2608185 L47.9584461,41.1027832 C47.9109396,41.0598603 47.864297,41.0160522 47.81895,40.9695893 L44.2887937,37.3521118 C43.8569175,36.9100494 43.8569175,36.192749 44.2887937,35.7502441 C44.2896575,35.7493592 44.2905212,35.7484741 44.2918169,35.7471466 C44.2922487,35.7467041 44.2926807,35.7462616 44.2935444,35.7453766 C44.7254206,35.3033143 45.4250601,35.3033143 45.8569363,35.7453766 L49.4561927,39.4327697 C49.7649842,39.6796875 50.2132718,39.6584473 50.4974463,39.3672791 C50.8045103,39.0526581 50.8045103,38.5402374 50.4974463,38.2251739 L43.6129075,31.1712036 C43.1102036,30.6561279 43.0635609,29.8662567 43.5023472,29.2927704 C43.9411334,28.7192841 44.7012356,28.5767975 45.3097491,28.9546967 L47.1499738,30.0981293 C47.522251,30.3295594 48.0098393,30.2242432 48.2598956,29.8587342 C48.3890266,29.6697846 48.4373968,29.4410096 48.3959367,29.2144471 C48.3544765,28.9883271 48.2292324,28.7927398 48.04223,28.6644135 L43.7852261,25.7394561 C42.4338854,24.811081 40.8596965,24.320343 39.2328188,24.320343 L39.2211582,24.320343 L36.3297469,24.3247681 L36.3280194,24.3247681 C36.0347754,24.3247681 35.753624,24.2052918 35.5463234,23.9928895 L23.7919483,11.9487915 C23.3600721,11.5067291 23.3600721,10.7894287 23.7919483,10.3469238 C24.2238245,9.90441895 24.923464,9.90441895 25.3553402,10.3469238 L30.2951405,15.4082947 C31.0561063,14.0564423 32.4834573,13.1581573 34.0835587,13.1581573 C34.8864165,13.1581573 35.6383131,13.3820648 36.2852636,13.7701416 C36.6169445,11.636383 38.4247785,10 40.5997071,10 C42.7742038,10 44.5820377,11.636383 44.9137187,13.7701416 C45.5606693,13.3816223 46.3129976,13.1581573 47.1154237,13.1581573 C49.3952982,13.1581573 51.2718004,14.9569396 51.4665765,17.2424774 C52.1053215,16.8676758 52.8438299,16.6521759 53.6307083,16.6521759 C56.0401458,16.6521759 58,18.6602631 58,21.1289979 L58,27.1868896 C58,27.8125916 57.5050699,28.3197021 56.8943969,28.3197021 C56.2841558,28.3197021 55.7887937,27.8125916 55.7887937,27.1868896 L55.7887937,21.1289979 C55.7887937,19.9098969 54.8209592,18.9178009 53.6307083,18.9178009 C52.5160358,18.9178009 51.5961394,19.788208 51.4842834,20.9006652 L51.4842834,23.0273437 C51.4842834,23.6530457 50.9893533,24.1601562 50.3786803,24.1601562 C49.7684392,24.1601562 49.2730772,23.6530457 49.2730772,23.0273437 L49.2730772,17.6349793 C49.2730772,16.4158783 48.3052426,15.4237823 47.1149917,15.4237823 C46.0003192,15.4237823 45.0804229,16.2941895 44.968567,17.4066467 L44.968567,23.826065 C44.9845464,23.8366852 45.0009577,23.8468628 45.0169371,23.8579254 L49.273941,26.7828827 C49.9584648,27.2532654 50.418413,27.9692383 50.5700015,28.798935 C50.7211582,29.6286316 50.5440889,30.4667358 50.0716164,31.1579285 C49.5693443,31.8924865 48.8057872,32.3403016 47.9929962,32.4553527 L52.0612701,36.6233062 C53.230359,37.8216095 53.230359,39.771286 52.0612701,40.9695893 C51.821147,41.215622 51.5499286,41.4098816 51.2605716,41.5550233 C51.4372089,41.9506226 51.5309262,42.3833924 51.5309262,42.8316498 C51.5309262,43.6524963 51.2186796,44.4242248 50.6524899,45.0047912 Z M31.9811852,17.1353912 L36.2304153,21.4896393 L36.2304153,17.4070893 C36.1189913,16.2946319 35.198663,15.4237823 34.0839905,15.4237823 C33.073832,15.4237823 32.2036015,16.1463928 31.9811852,17.1353912 Z M39.2181351,22.054718 C39.2228857,22.054718 39.2280682,22.054718 39.2328188,22.054718 C40.4416404,22.054718 41.6267087,22.2693329 42.7461319,22.6821899 L42.7461319,17.6349793 C42.7461319,17.5309906 42.7508825,17.4283295 42.7573607,17.3261108 L42.7573607,14.4768219 C42.7573607,13.2577209 41.789526,12.265625 40.5997071,12.265625 C39.4094562,12.265625 38.4416216,13.2577209 38.4416216,14.4768219 L38.4416216,17.3274384 C38.4485316,17.4292144 38.4528504,17.5314331 38.4528504,17.6349793 L38.4528504,22.0560455 L39.2181351,22.054718 Z" id="Combined-Shape" fill="#75A7FF" fill-rule="nonzero"></path>
        </g>
    </g>
</svg>