<?xml version="1.0" encoding="UTF-8"?>
<svg width="76px" height="78px" viewBox="0 0 76 78" version="1.1" xmlns="http://www.w3.org/2000/svg" xmlns:xlink="http://www.w3.org/1999/xlink">
    <title>4.1.4</title>
    <defs>
        <polygon id="path-1" points="0 19.969846 67.8654167 19.969846 67.8654167 0.155122911 0 0.155122911"></polygon>
    </defs>
    <g id="Page-2" stroke="none" stroke-width="1" fill="none" fill-rule="evenodd">
        <g id="4.1.4">
            <path d="M15.0353111,78 C6.76586784,78 -7.10542736e-15,71.056083 -7.10542736e-15,62.5690228 L-7.10542736e-15,15.4309772 C-7.10542736e-15,6.94391699 6.76586784,0 15.0353111,0 L60.9646889,0 C69.2341322,0 76,6.94391699 76,15.4309772 L76,62.5690228 C76,71.056083 69.2341322,78 60.9646889,78 L15.0353111,78 Z" id="Fill-1-Copy-23" fill="#FFFFFF"></path>
            <g id="Group-42" transform="translate(4.000000, 28.000000)">
                <g id="Group-33" transform="translate(0.000000, 0.314815)">
                    <g id="Group-30" transform="translate(0.000000, 0.023179)">
                        <path d="M36.4643979,18.9165614 C36.3641688,19.0593814 36.2221479,19.1349816 36.0533875,19.1349816 C35.7955542,19.1349816 35.5860646,18.9190576 35.5860646,18.6535657 C35.5860646,18.382368 35.7913042,18.1700101 36.0533875,18.1700101 C36.2228563,18.1700101 36.3648771,18.2463234 36.4643979,18.3909265 L36.4643979,18.9165614 Z M36.4643979,18.143978 C36.3478771,18.040741 36.2016063,17.9884985 36.0291271,17.9884985 C35.6708875,17.9884985 35.3794083,18.2869763 35.3794083,18.6535657 C35.3794083,19.0203333 35.6708875,19.3186328 36.0291271,19.3186328 C36.2016063,19.3186328 36.3478771,19.2665686 36.4643979,19.1635099 L36.4643979,19.2863601 L36.6680438,19.2863601 L36.6680438,17.3537426 L36.4643979,17.3537426 L36.4643979,18.143978 Z" id="Fill-1" fill="#343A66"></path>
                        <path d="M38.0586615,18.5697101 L37.209724,18.5697101 C37.2377031,18.3671588 37.3825573,18.1672821 37.6485365,18.1672821 C37.8730781,18.1672821 38.0328073,18.3247229 38.0586615,18.5697101 M37.654026,17.9859487 C37.282151,17.9859487 37.001474,18.2719455 37.001474,18.6511942 C37.001474,19.0316911 37.282151,19.3187577 37.654026,19.3187577 C37.9276198,19.3187577 38.1521615,19.1784338 38.225651,18.9612618 L38.2309635,18.9464627 L38.0103177,18.9464627 L38.0073073,18.9527032 C37.9525885,19.0684214 37.8224323,19.1376026 37.6591615,19.1376026 C37.4215156,19.1376026 37.2423073,18.9762391 37.209724,18.734818 L38.2499115,18.734818 L38.2619531,18.7407019 L38.263724,18.724833 C38.2662031,18.700049 38.2662031,18.6722339 38.2662031,18.6454886 C38.263724,18.263387 38.0062448,17.9859487 37.654026,17.9859487" id="Fill-3" fill="#343A66"></path>
                        <mask id="mask-2" fill="white">
                            <use xlink:href="#path-1"></use>
                        </mask>
                        <g id="Clip-6"></g>
                        <polygon id="Fill-5" fill="#343A66" mask="url(#mask-2)" points="38.5887604 19.318508 38.7929375 19.318508 38.7929375 17.3857122 38.5887604 17.3857122"></polygon>
                        <path d="M40.9032396,18.9055958 C40.8037187,19.0516253 40.6510729,19.1318613 40.4732813,19.1318613 C40.2244792,19.1318613 40.02225,18.9232477 40.02225,18.6670275 C40.02225,18.3956515 40.2161563,18.1911389 40.4732813,18.1911389 C40.6510729,18.1911389 40.8037187,18.2711966 40.9032396,18.4175827 L40.9032396,18.9055958 Z M40.9032396,18.1706342 C40.7799896,18.0636528 40.6234479,18.0073093 40.449375,18.0073093 C40.0879479,18.0073093 39.8155938,18.2906315 39.8155938,18.6670275 C39.8155938,19.0247017 40.0999896,19.3158692 40.449375,19.3158692 C40.6234479,19.3158692 40.7799896,19.2593474 40.9032396,19.1521877 L40.9032396,19.3336994 L40.9004062,19.3336994 L40.9004062,19.3447541 C40.9004062,19.6077499 40.7358958,19.7776718 40.48125,19.7776718 C40.2685729,19.7776718 40.1070729,19.6658764 40.0700625,19.4934581 L40.0682917,19.484543 L39.8591563,19.484543 L39.8611042,19.4975591 C39.9055521,19.7798115 40.1547083,19.9698816 40.48125,19.9698816 C40.8556042,19.9698816 41.1070625,19.7186538 41.1070625,19.3447541 L41.1070625,18.0504585 L40.9032396,18.0504585 L40.9032396,18.1706342 Z" id="Fill-7" fill="#343A66" mask="url(#mask-2)"></path>
                        <path d="M41.6822115,18.246787 L41.6822115,18.0531508 L41.4783885,18.0531508 L41.4783885,19.3185615 L41.6822115,19.3185615 L41.6822115,18.4980148 C41.789701,18.3227438 41.957576,18.2234294 42.1548469,18.2180804 L42.165649,18.2179021 L42.165649,18.0208781 L42.1546698,18.0208781 C41.9674927,18.0208781 41.8012115,18.1009358 41.6822115,18.246787" id="Fill-8" fill="#343A66" mask="url(#mask-2)"></path>
                        <path d="M43.3831854,18.9055958 C43.2803,19.0457413 43.1271229,19.1295434 42.972175,19.1295434 C42.7463937,19.1295434 42.6064979,18.977095 42.6064979,18.7315729 L42.6064979,18.0128367 L42.4024979,18.0128367 L42.4024979,18.7424493 C42.4024979,19.0924565 42.6132271,19.3189003 42.9401229,19.3189003 C43.1079979,19.3189003 43.2640083,19.2584559 43.3831854,19.1482651 L43.3831854,19.2784257 L43.5868312,19.2784257 L43.5868312,18.0128367 L43.3831854,18.0128367 L43.3831854,18.9055958 Z" id="Fill-9" fill="#343A66" mask="url(#mask-2)"></path>
                        <path d="M44.1938906,18.3880024 C44.292526,18.2416163 44.4357865,18.1644114 44.6073802,18.1644114 C44.8653906,18.1644114 45.074526,18.3803354 45.074526,18.6454707 C45.074526,18.9125674 44.8653906,19.1293829 44.6073802,19.1293829 C44.4357865,19.1293829 44.292526,19.052178 44.1938906,18.9059702 L44.1938906,18.3880024 Z M44.6289844,17.9804035 C44.4595156,17.9804035 44.3100573,18.0358555 44.1938906,18.1405189 L44.1938906,18.0128545 L43.9898906,18.0128545 L43.9898906,19.9458286 L44.1938906,19.9458286 L44.1938906,19.1532754 C44.3100573,19.2581171 44.4595156,19.3133908 44.6289844,19.3133908 C44.9932448,19.3133908 45.2787031,19.0200836 45.2787031,18.6454707 C45.2787031,18.2788814 44.987401,17.9804035 44.6289844,17.9804035 L44.6289844,17.9804035 Z" id="Fill-10" fill="#343A66" mask="url(#mask-2)"></path>
                        <path d="M46.1922229,19.1294186 C45.9335042,19.1294186 45.7305667,18.9170606 45.7305667,18.6456847 C45.7305667,18.3801927 45.9335042,18.1724707 46.1922229,18.1724707 C46.4511187,18.1724707 46.6542333,18.3801927 46.6542333,18.6456847 C46.6542333,18.9170606 46.4511187,19.1294186 46.1922229,19.1294186 M46.1922229,17.9804392 C45.8175146,17.9804392 45.5237333,18.2726765 45.5237333,18.6456847 C45.5237333,19.0229721 45.8175146,19.3187755 46.1922229,19.3187755 C46.5656917,19.3187755 46.8580563,19.0229721 46.8580563,18.6456847 C46.8580563,18.2726765 46.5656917,17.9804392 46.1922229,17.9804392" id="Fill-11" fill="#343A66" mask="url(#mask-2)"></path>
                        <polygon id="Fill-12" fill="#D62A4F" mask="url(#mask-2)" points="47.8556552 16.4063161 48.6252594 16.4063161 48.6252594 17.5804361 50.1646448 17.5804361 50.1646448 16.4063161 50.934426 16.4063161 50.934426 19.3129985 50.1646448 19.3129985 50.1646448 18.0384944 48.6252594 18.0384944 48.6252594 19.3129985 47.8556552 19.3129985"></polygon>
                        <path d="M52.5666031,16.4063161 L53.4582177,16.4063161 L55.0041552,19.3129985 L54.1293635,19.3129985 L53.7913115,18.6463266 L52.194551,18.6463266 L51.8506552,19.3129985 L51.0327073,19.3129985 L52.5666031,16.4063161 Z M52.9326344,16.9893643 L52.9225406,16.9893643 L52.4120094,18.1886248 L53.4428115,18.1886248 L52.9326344,16.9893643 Z" id="Fill-13" fill="#D62A4F" mask="url(#mask-2)"></path>
                        <path d="M55.1824781,16.4063161 L56.5513323,16.4063161 C57.0561969,16.4063161 57.8135823,16.5145455 57.8135823,17.1516193 C57.8135823,17.4975255 57.4992594,17.7389467 57.0338844,17.8013525 L57.0338844,17.809911 C57.5669052,17.8471761 57.9313427,18.1137379 57.9313427,18.4715904 C57.9313427,19.2045908 57.0452177,19.3129985 56.5513323,19.3129985 L55.1824781,19.3129985 L55.1824781,16.4063161 Z M55.9680198,17.5804361 L56.2874781,17.5804361 C56.618624,17.5804361 57.0283948,17.5260539 57.0283948,17.2266845 C57.0283948,16.8891584 56.6297802,16.8641961 56.2708323,16.8641961 L55.9680198,16.8641961 L55.9680198,17.5804361 Z M55.9680198,18.8549402 L56.338124,18.8549402 C56.7027385,18.8549402 57.1459781,18.7878985 57.1459781,18.4507291 C57.1459781,18.0720152 56.7307177,18.0135321 56.338124,18.0135321 L55.9680198,18.0135321 L55.9680198,18.8549402 Z" id="Fill-14" fill="#D62A4F" mask="url(#mask-2)"></path>
                        <polygon id="Fill-15" fill="#D62A4F" mask="url(#mask-2)" points="58.2659062 19.3128024 59.0560521 19.3128024 59.0560521 16.40612 58.2659062 16.40612"></polygon>
                        <polygon id="Fill-16" fill="#D62A4F" mask="url(#mask-2)" points="60.5178042 16.864 59.4023562 16.864 59.4023562 16.40612 62.4145437 16.40612 62.4145437 16.864 61.2987417 16.864 61.2987417 19.3128024 60.5178042 19.3128024"></polygon>
                        <path d="M63.1666167,16.4063161 L64.0477833,16.4063161 L65.5756583,19.3129985 L64.7114917,19.3129985 L64.3766271,18.6463266 L62.7982833,18.6463266 L62.4581063,19.3129985 L61.6495437,19.3129985 L63.1666167,16.4063161 Z M63.5958667,16.9893643 L63.5850646,16.9893643 L63.0215854,18.1886248 L64.1591687,18.1886248 L63.5958667,16.9893643 Z" id="Fill-17" fill="#D62A4F" mask="url(#mask-2)"></path>
                        <polygon id="Fill-18" fill="#D62A4F" mask="url(#mask-2)" points="65.9402906 16.864 64.8131552 16.864 64.8131552 16.40612 67.8561552 16.40612 67.4743635 16.864 66.7291969 16.864 66.7291969 19.3128024 65.9402906 19.3128024"></polygon>
                        <path d="M16.5719187,11.6747642 L17.509575,11.6747642 C17.0914812,13.5884817 15.5200437,14.9027472 13.4038979,14.9027472 C10.9203042,14.9027472 8.93077292,12.937857 8.93077292,10.3861742 C8.93077292,7.83431321 10.9203042,5.86942301 13.4038979,5.86942301 C15.5200437,5.86942301 17.0914812,7.1836885 17.509575,9.09758427 L16.5719187,9.09758427 C16.2044708,7.66867047 15.0259812,6.7372198 13.4038979,6.7372198 C11.4019708,6.7372198 9.84346042,8.30645742 9.84346042,10.3861742 C9.84346042,12.4658911 11.4019708,14.035307 13.4038979,14.035307 C15.0259812,14.035307 16.2044708,13.103678 16.5719187,11.6747642" id="Fill-19" fill="#343A66" mask="url(#mask-2)"></path>
                        <path d="M23.9720542,11.7640045 C23.9720542,10.50109 23.0088979,9.46747217 21.7291167,9.46747217 C20.4491583,9.46747217 19.4861792,10.50109 19.4861792,11.7640045 C19.4861792,13.0654322 20.4491583,14.1117095 21.7291167,14.1117095 C23.0088979,14.1117095 23.9720542,13.0654322 23.9720542,11.7640045 M24.8335646,11.7640045 C24.8335646,13.5375764 23.4778146,14.902658 21.7291167,14.902658 C19.9676688,14.902658 18.6119188,13.5375764 18.6119188,11.7640045 C18.6119188,10.016108 19.9676688,8.66350757 21.7291167,8.66350757 C23.4778146,8.66350757 24.8335646,10.016108 24.8335646,11.7640045" id="Fill-20" fill="#343A66" mask="url(#mask-2)"></path>
                        <polygon id="Fill-21" fill="#343A66" mask="url(#mask-2)" points="26.3416771 14.9026758 27.2031875 14.9026758 27.2031875 5.84403278 26.3416771 5.84403278"></polygon>
                        <path d="M33.069799,8.86347348 L33.069799,9.61626536 L30.7129969,9.61626536 L30.7129969,14.9027472 L29.8513094,14.9027472 L29.8513094,9.61626536 L28.1408615,9.61626536 L28.1408615,8.86347348 L29.8513094,8.86347348 L29.8513094,7.46451445 C29.8513094,6.12475175 30.687674,5.24429551 31.9293823,5.24429551 C32.2716844,5.24429551 32.7152781,5.29564654 33.1459448,5.42295431 L33.0065802,6.17592448 C32.689601,6.09925454 32.3221531,6.04826011 32.0814969,6.04826011 C31.2578823,6.04826011 30.7129969,6.60955542 30.7129969,7.46451445 L30.7129969,8.86347348 L33.069799,8.86347348 Z" id="Fill-22" fill="#343A66" mask="url(#mask-2)"></path>
                        <path d="M38.7341281,11.7640045 C38.7341281,10.50109 37.7709719,9.46747217 36.4911906,9.46747217 C35.2112323,9.46747217 34.2482531,10.50109 34.2482531,11.7640045 C34.2482531,13.0654322 35.2112323,14.1117095 36.4911906,14.1117095 C37.7709719,14.1117095 38.7341281,13.0654322 38.7341281,11.7640045 M39.5956385,11.7640045 C39.5956385,13.5375764 38.2397115,14.902658 36.4911906,14.902658 C34.7297427,14.902658 33.3739927,13.5375764 33.3739927,11.7640045 C33.3739927,10.016108 34.7297427,8.66350757 36.4911906,8.66350757 C38.2397115,8.66350757 39.5956385,10.016108 39.5956385,11.7640045" id="Fill-23" fill="#343A66" mask="url(#mask-2)"></path>
                        <path d="M46.5649656,11.5089253 L46.5649656,14.9027293 L45.7032781,14.9027293 L45.7032781,11.5472603 C45.7032781,10.3223242 44.9809552,9.62070508 43.9166844,9.62070508 C43.1688615,9.62070508 42.4086427,10.0161794 41.9018302,10.7177985 L41.9018302,14.9027293 L41.0401427,14.9027293 L41.0401427,8.85810659 L41.9018302,8.85810659 L41.9018302,9.71003448 C42.4467156,9.14873917 43.2069344,8.81674048 44.0686219,8.81674048 C45.5385906,8.81674048 46.5649656,9.85053661 46.5649656,11.5089253" id="Fill-24" fill="#343A66" mask="url(#mask-2)"></path>
                        <path d="M53.001874,13.0655035 L53.001874,10.539318 C52.5076344,9.81220164 51.7982385,9.45470574 50.9999469,9.45470574 C49.7074156,9.45470574 48.7318635,10.5266585 48.7318635,11.8024108 C48.7318635,13.0655035 49.7074156,14.137278 50.9999469,14.137278 C51.7982385,14.137278 52.5076344,13.7799604 53.001874,13.0655035 L53.001874,13.0655035 Z M53.8637385,14.904869 L53.001874,14.904869 L53.001874,14.098943 C52.4697385,14.6094222 51.7603427,14.9027293 50.8857281,14.9027293 C49.213176,14.9027293 47.8576031,13.5251666 47.8576031,11.8024108 C47.8576031,10.0798332 49.213176,8.70227047 50.8857281,8.70227047 C51.7603427,8.70227047 52.4697385,8.99557758 53.001874,9.50605677 L53.001874,5.84390796 L53.8637385,5.84390796 L53.8637385,14.904869 Z" id="Fill-25" fill="#343A66" mask="url(#mask-2)"></path>
                        <path d="M60.7821365,11.7640045 C60.7821365,10.50109 59.8188031,9.46747217 58.539199,9.46747217 C57.2592406,9.46747217 56.2962615,10.50109 56.2962615,11.7640045 C56.2962615,13.0654322 57.2592406,14.1117095 58.539199,14.1117095 C59.8188031,14.1117095 60.7821365,13.0654322 60.7821365,11.7640045 M61.6436469,11.7640045 C61.6436469,13.5375764 60.2877198,14.902658 58.539199,14.902658 C56.777751,14.902658 55.422001,13.5375764 55.422001,11.7640045 C55.422001,10.016108 56.777751,8.66350757 58.539199,8.66350757 C60.2877198,8.66350757 61.6436469,10.016108 61.6436469,11.7640045" id="Fill-26" fill="#343A66" mask="url(#mask-2)"></path>
                        <path d="M63.4938135,12.8869339 C63.671251,13.6908985 64.2919281,14.1755238 65.432699,14.1755238 C66.382751,14.1755238 67.0292823,13.7672118 67.0292823,13.1294248 C67.0292823,12.6061079 66.6108344,12.2874819 66.0153031,12.1981525 L64.684876,11.9681426 C63.7091469,11.8151594 62.9489281,11.3815284 62.9489281,10.3860673 C62.9489281,9.32713051 63.8865844,8.63834913 65.2931573,8.63834913 C66.4843969,8.63834913 67.7259281,9.16130947 67.8273969,10.5135533 L67.0292823,10.5135533 C66.9150635,9.7482803 66.2814594,9.33978997 65.2931573,9.33978997 C64.368074,9.33978997 63.7976885,9.7482803 63.7976885,10.3224134 C63.7976885,10.7690604 64.1146677,11.1133619 64.9508552,11.2412046 L66.1167719,11.4451823 C66.9653552,11.5856844 67.8654698,11.9554832 67.8654698,13.0784304 C67.8654698,14.2265183 66.8390948,14.9028185 65.4070219,14.9028185 C63.8865844,14.9028185 62.8727823,14.2265183 62.6827719,12.8869339 L63.4938135,12.8869339 Z" id="Fill-27" fill="#343A66" mask="url(#mask-2)"></path>
                        <path d="M2.86023229,3.65596172 C0.296242708,5.92913641 -0.721632292,9.72305054 0.540971875,13.1403904 C1.61374271,16.0435068 3.63922188,17.7981787 6.25456562,18.4250892 C7.38913854,18.6968218 8.33919062,17.5061197 7.85752396,16.4560981 C7.69708646,16.1062692 7.39728437,15.820629 7.02895104,15.6979571 C4.47877396,14.8487038 2.65711771,13.0193232 1.86856563,10.5072236 C1.14004479,8.1853724 1.66899271,5.62263494 3.04191979,3.84175261 C3.11718021,3.74439961 3.03713854,3.62279751 2.94239896,3.62279751 C2.91495104,3.62279751 2.88661771,3.63278243 2.86023229,3.65596172" id="Fill-28" fill="#343A66" mask="url(#mask-2)"></path>
                        <path d="M4.43055417,7.57060426 C4.43055417,4.058051 7.23803333,1.69091105 10.7949292,1.83283959 C10.9303979,1.83836696 10.9500542,1.6138845 10.8163563,1.59106182 C6.23981458,0.829354834 2.38683542,4.0906803 2.31210625,8.20607329 C2.31210625,10.1862975 2.94199167,11.6273358 4.14261667,12.8681408 C4.66341875,13.4062568 5.53980417,13.3828992 6.01775208,12.8075181 C6.3140125,12.4509137 6.33845,11.9456052 6.08097083,11.5604725 C5.41318958,10.5614453 4.43055417,9.43992448 4.43055417,7.57060426" id="Fill-29" fill="#D62A4F" mask="url(#mask-2)"></path>
                    </g>
                    <path d="M8.04138958,3.07414382 C6.97729583,3.58212678 5.91692083,4.74982786 5.94153542,5.83978918 C5.95711875,6.53320642 6.6195875,6.8076135 7.10213958,6.58045651 C7.35288958,6.46242045 7.52342083,6.19710678 7.55511875,5.92038178 C7.60080625,5.52241127 7.71378542,4.62002386 8.47772292,3.89183769 C9.05926458,3.33767447 9.73041042,2.94826247 10.7736083,2.93488981 C10.9182854,2.93257188 10.9319208,2.72128378 10.7867125,2.68669315 C10.5766917,2.63694684 10.3310771,2.61055811 10.0640354,2.61055811 C9.44831667,2.61055811 8.71767083,2.75159515 8.04138958,3.07414382" id="Fill-31" fill="#343A66"></path>
                </g>
            </g>
        </g>
    </g>
</svg>