<svg width="169" height="322" viewBox="0 0 169 322" fill="none" xmlns="http://www.w3.org/2000/svg">
<path d="M111.322 31.0699C106.15 39.9796 115.889 54.992 106.074 58.1095L106.882 57.3009C112.807 50.0134 100.424 34.589 106.348 27.3015C107.269 26.2325 108.059 25.0579 108.702 23.8024" fill="#2F2E41"/>
<path d="M159.758 161.783C159.927 160.891 159.899 159.973 159.676 159.094C159.452 158.214 159.039 157.394 158.464 156.692C157.889 155.989 157.167 155.421 156.35 155.028C155.532 154.635 154.637 154.426 153.73 154.415L140.946 117.273L133.869 126.293L147.386 160.998C147.47 162.524 148.11 163.966 149.186 165.051C150.262 166.136 151.698 166.789 153.223 166.885C154.748 166.982 156.256 166.516 157.46 165.576C158.664 164.635 159.482 163.286 159.758 161.783L159.758 161.783Z" fill="#FFB8B8"/>
<path d="M103.562 72.107C103.562 72.107 103.164 58.662 115.187 66.3641C127.21 74.0662 153.387 146.216 153.387 146.216L140.36 153.264L110.787 87.2388L103.562 72.107Z" fill="#71D7BF"/>
<path d="M139.033 302.546L133.029 305.111L120.276 283.175L129.138 279.388L139.033 302.546Z" fill="#FFB6B6"/>
<path d="M146.646 311.593L142.341 313.433L139.836 309.697L139.604 314.603L128.185 319.482C127.638 319.716 127.03 319.769 126.451 319.633C125.871 319.497 125.35 319.179 124.964 318.726C124.578 318.273 124.347 317.709 124.304 317.115C124.261 316.521 124.41 315.93 124.727 315.426L131.155 305.232L129.399 301.122L139.235 297.596L146.646 311.593Z" fill="#2F2E41"/>
<path d="M44.9192 309.986L38.3985 309.667L36.524 284.363L46.1489 284.834L44.9192 309.986Z" fill="#FFB6B6"/>
<path d="M47.809 321.453L43.1326 321.224L42.5136 316.768L40.16 321.079L27.7569 320.473C27.1624 320.444 26.5927 320.225 26.131 319.85C25.6693 319.474 25.3399 318.96 25.1907 318.384C25.0415 317.808 25.0804 317.199 25.3017 316.647C25.5231 316.094 25.9152 315.627 26.421 315.313L36.6601 308.956L36.8782 304.493L47.2659 305.624L47.809 321.453Z" fill="#2F2E41"/>
<path d="M61.3923 145.501C61.3923 145.501 48.1314 181.64 47.9172 185.684C47.7029 189.728 43.921 240.869 40.7493 243.841C37.5776 246.812 27.8807 292.881 35.4258 296.484C42.9709 300.088 66.7753 294.118 66.7753 294.118L75.0563 239.7L77.8695 198.009C77.8695 198.009 86.4337 296.184 101.967 295.895C117.5 295.607 136.428 289.692 136.428 289.692L114.687 230.236C114.687 230.236 114.994 159.848 109.955 145.652C104.915 131.455 61.3923 145.501 61.3923 145.501Z" fill="#2F2E41"/>
<path d="M100.742 52.3921L82.9823 54.0188L80.1212 62.8012C80.1212 62.8012 65.259 70.9634 68.55 74.6715C71.8409 78.3796 67.8141 103.369 67.8141 103.369L68.7236 123.653C68.7236 123.653 67.7466 137.707 64.8228 140.945C61.8991 144.182 54.2499 152.122 59.6546 148.324C78.6055 135.005 111.73 146.243 111.73 146.243L106.998 117.26C106.998 117.26 117.746 69.8066 113.504 65.799C109.262 61.7914 105.26 61.2849 105.26 61.2849L100.742 52.3921Z" fill="#71D7BF"/>
<path d="M7.424 144.328C8.31624 144.162 9.16121 143.802 9.89938 143.274C10.6375 142.746 11.2509 142.062 11.6964 141.272C12.1419 140.481 12.4085 139.602 12.4776 138.697C12.5467 137.792 12.4165 136.883 12.0963 136.034L42.0496 110.622L31.0745 107.309L3.65773 132.517C2.2668 133.15 1.15623 134.271 0.536468 135.667C-0.0832965 137.064 -0.169188 138.64 0.295052 140.095C0.759292 141.551 1.74142 142.786 3.05533 143.566C4.36924 144.346 5.92364 144.617 7.424 144.328Z" fill="#FFB8B8"/>
<path d="M83.4943 77.8564C83.4943 77.8564 89.3959 65.7693 75.2675 67.834C61.139 69.8987 7.56152 124.856 7.56152 124.856L16.5278 136.645L70.6761 88.6673L83.4943 77.8564Z" fill="#71D7BF"/>
<path d="M60.4865 57.354L4.46995 129.118C3.5009 130.364 3.06515 131.943 3.25817 133.509C3.4512 135.075 4.25725 136.501 5.49971 137.474C18.5082 169.06 57.4261 192.482 103.207 213.741C104.453 214.711 106.032 215.148 107.598 214.955C109.165 214.761 110.591 213.955 111.563 212.711L167.58 140.947C168.55 139.702 168.986 138.123 168.793 136.556C168.6 134.99 167.793 133.564 166.55 132.591C128.131 110.897 95.1096 85.7631 68.8423 56.3242C67.5968 55.3552 66.0179 54.9195 64.4516 55.1125C62.8853 55.3055 61.4595 56.1116 60.4865 57.354Z" fill="#E6E6E6"/>
<path d="M163.648 139.314L146.597 161.159C136.182 174.422 120.941 183.025 104.203 185.088C87.4652 187.15 70.5914 182.506 57.2673 172.168L9.483 134.869C8.77512 134.316 8.31541 133.505 8.20471 132.614C8.094 131.723 8.34135 130.824 8.89249 130.115L63.0214 60.7689C63.5755 60.062 64.3873 59.6039 65.2788 59.4949C66.1703 59.3859 67.0686 59.6349 67.7767 60.1874C91.9485 91.4004 124.305 115.69 163.063 134.564C163.769 135.117 164.228 135.928 164.338 136.818C164.447 137.709 164.2 138.606 163.648 139.314Z" fill="white"/>
<path d="M59.369 96.5306L48.2645 110.757C47.9699 111.134 47.5376 111.378 47.0628 111.436C46.588 111.495 46.1095 111.362 45.7325 111.068C45.3554 110.773 45.1106 110.341 45.0519 109.867C44.9931 109.392 45.1253 108.913 45.4193 108.536L56.5238 94.3097C56.6695 94.1226 56.8507 93.9661 57.0569 93.8491C57.2632 93.7321 57.4905 93.6569 57.7258 93.6278C57.9612 93.5987 58.1999 93.6162 58.4285 93.6794C58.657 93.7427 58.8709 93.8503 59.0578 93.9962C59.2448 94.1421 59.4011 94.3234 59.5179 94.5298C59.6347 94.7362 59.7097 94.9635 59.7386 95.1989C59.7675 95.4343 59.7498 95.673 59.6863 95.9015C59.6229 96.13 59.5151 96.3438 59.369 96.5306H59.369Z" fill="#CCCCCC"/>
<path d="M80.1976 85.9779L55.8113 117.22C55.6655 117.407 55.4843 117.563 55.2781 117.68C55.0719 117.797 54.8446 117.872 54.6094 117.901C54.3742 117.93 54.1356 117.912 53.9072 117.849C53.6788 117.786 53.4651 117.678 53.2782 117.532C53.0914 117.386 52.9351 117.205 52.8184 116.999C52.7016 116.793 52.6265 116.565 52.5975 116.33C52.5685 116.095 52.5862 115.856 52.6494 115.628C52.7126 115.4 52.8202 115.186 52.9661 114.999L77.3524 83.757C77.498 83.5697 77.6792 83.413 77.8855 83.2959C78.0918 83.1787 78.3192 83.1033 78.5546 83.0741C78.7901 83.0449 79.029 83.0624 79.2576 83.1256C79.4863 83.1888 79.7003 83.2965 79.8873 83.4425C80.0743 83.5884 80.2307 83.7699 80.3476 83.9764C80.4644 84.1828 80.5394 84.4103 80.5682 84.6458C80.597 84.8813 80.5791 85.1202 80.5155 85.3488C80.452 85.5773 80.3439 85.7911 80.1976 85.9779H80.1976Z" fill="#CCCCCC"/>
<path d="M38.6061 138.089C45.171 138.089 50.4929 132.767 50.4929 126.202C50.4929 119.638 45.171 114.316 38.6061 114.316C32.0412 114.316 26.7194 119.638 26.7194 126.202C26.7194 132.767 32.0412 138.089 38.6061 138.089Z" fill="#71D7BF"/>
<path d="M81.4924 110.67L51.5411 149.041C51.2285 149.359 50.8098 149.551 50.3646 149.581C49.9195 149.61 49.4791 149.475 49.1275 149.2C48.7758 148.926 48.5375 148.531 48.4579 148.092C48.3783 147.653 48.463 147.201 48.6959 146.82L78.6471 108.449C78.9597 108.13 79.3785 107.938 79.8236 107.909C80.2687 107.88 80.7091 108.015 81.0608 108.29C81.4124 108.564 81.6508 108.958 81.7304 109.397C81.81 109.836 81.7253 110.289 81.4924 110.67Z" fill="#CCCCCC"/>
<path d="M100.922 101.909L59.1178 155.466C58.8052 155.784 58.3864 155.976 57.9413 156.006C57.4962 156.035 57.0558 155.899 56.7041 155.625C56.3525 155.351 56.1141 154.956 56.0345 154.517C55.9549 154.078 56.0396 153.625 56.2725 153.245L98.0772 99.6878C98.3898 99.3695 98.8085 99.1773 99.2537 99.148C99.6988 99.1186 100.139 99.2541 100.491 99.5286C100.842 99.8031 101.081 100.197 101.16 100.636C101.24 101.075 101.155 101.528 100.922 101.909Z" fill="#CCCCCC"/>
<path d="M100.777 125.723L70.826 164.094C70.5135 164.412 70.0947 164.604 69.6496 164.634C69.2044 164.663 68.764 164.528 68.4124 164.253C68.0607 163.979 67.8224 163.584 67.7428 163.145C67.6632 162.707 67.7479 162.254 67.9808 161.873L97.9321 123.502C98.2446 123.183 98.6634 122.991 99.1085 122.962C99.5537 122.933 99.994 123.068 100.346 123.343C100.697 123.617 100.936 124.011 101.015 124.45C101.095 124.889 101.01 125.342 100.777 125.723Z" fill="#CCCCCC"/>
<path d="M140.408 130.455L110.457 168.826C110.144 169.144 109.725 169.336 109.28 169.366C108.835 169.395 108.395 169.26 108.043 168.985C107.691 168.711 107.453 168.316 107.373 167.877C107.294 167.439 107.378 166.986 107.611 166.605L137.563 128.234C137.875 127.915 138.294 127.723 138.739 127.694C139.184 127.665 139.625 127.8 139.976 128.075C140.328 128.349 140.566 128.743 140.646 129.182C140.725 129.621 140.641 130.074 140.408 130.455Z" fill="#71D7BF"/>
<path d="M120.207 116.962L78.4027 170.519C78.0901 170.837 77.6713 171.029 77.2262 171.059C76.7811 171.088 76.3407 170.953 75.989 170.678C75.6374 170.404 75.399 170.009 75.3194 169.57C75.2398 169.131 75.3246 168.678 75.5574 168.298L117.362 114.741C117.675 114.423 118.093 114.23 118.539 114.201C118.984 114.172 119.424 114.307 119.776 114.582C120.127 114.856 120.366 115.25 120.445 115.689C120.525 116.128 120.44 116.581 120.207 116.962Z" fill="#CCCCCC"/>
<path d="M70.9673 29.7191C70.9662 32.6066 71.674 35.4502 73.0284 38.0004C74.3829 40.5505 76.3427 42.7291 78.7357 44.345C81.1287 45.9609 83.8818 46.9647 86.7533 47.2682C89.6248 47.5717 92.5269 47.1657 95.2049 46.0858C97.8828 45.0059 100.255 43.2851 102.112 41.0745C103.97 38.8639 105.257 36.2311 105.859 33.4072C106.462 30.5833 106.362 27.6546 105.569 24.8783C104.775 22.1019 103.312 19.5628 101.309 17.4838L101.224 17.3992C101.083 17.251 100.942 17.1028 100.793 16.9617C100.792 16.9617 100.792 16.9615 100.791 16.9611C100.79 16.9608 100.789 16.9603 100.788 16.9596C100.788 16.959 100.787 16.9582 100.787 16.9573C100.787 16.9564 100.786 16.9555 100.786 16.9546C100.603 16.7853 100.419 16.6159 100.229 16.4536C97.6799 14.2189 94.5408 12.7661 91.1875 12.2693C87.8342 11.7725 84.4087 12.2526 81.3212 13.6523C78.2338 15.052 75.6151 17.3119 73.7788 20.1614C71.9425 23.0109 70.9664 26.3292 70.9673 29.7191V29.7191Z" fill="#2F2E41"/>
<path d="M92.9536 48.5927C101.123 48.5927 107.746 41.97 107.746 33.8006C107.746 25.6311 101.123 19.0085 92.9536 19.0085C84.7841 19.0085 78.1615 25.6311 78.1615 33.8006C78.1615 41.97 84.7841 48.5927 92.9536 48.5927Z" fill="#FFB8B8"/>
<path d="M77.1845 37.7426C75.7386 31.2269 77.8285 23.927 82.3849 19.5771C84.6766 17.4325 87.5268 15.978 90.6081 15.3808C93.6894 14.7835 96.8766 15.0678 99.8036 16.2008C100.176 16.351 100.548 16.5153 100.913 16.6869L101.082 16.7669V16.7917C101.115 16.8146 101.148 16.8385 101.181 16.8628C101.25 16.9274 101.334 16.9738 101.426 16.9977C102.71 16.9641 103.987 17.2022 105.173 17.6966C106.359 18.1909 107.427 18.9303 108.307 19.8662C110.6 22.3538 111.679 26.3739 111.348 31.1859L111.338 31.3363L111.21 31.4164C109.474 32.5163 107.673 33.5093 105.816 34.39C99.3224 37.4434 93.3941 38.0092 87.6963 36.1175L87.5918 36.0828L85.2003 32.0749C84.7093 34.8391 84.9716 44.0082 82.1545 44.5049L77.2457 38.019L77.1845 37.7426Z" fill="#2F2E41"/>
<path d="M46.046 50.622C51.0797 48.0238 44.6058 38.5942 45.9067 33.0809C47.2076 27.5676 56.5756 25.7944 57.1724 20.1612C57.7691 14.528 59.1731 8.71803 62.8903 4.44355C65.2655 1.71216 68.7655 -0.304251 72.369 0.037873C73.5883 0.153626 74.7682 0.530794 75.8286 1.14369C76.8889 1.75658 77.8047 2.59081 78.5136 3.58954C79.2224 4.58827 79.7077 5.72804 79.9364 6.93123C80.165 8.13442 80.1317 9.37276 79.8386 10.5619C80.8646 9.10814 83.5198 9.42322 84.177 11.0768C84.7613 12.5469 83.4705 14.3275 81.9515 14.4576C79.9638 16.9123 77.6876 19.5174 74.5735 20.0126C74.0774 20.1266 73.5618 20.1263 73.0658 20.0118C72.5698 19.8973 72.1063 19.6716 71.7102 19.3517C70.9776 18.6482 70.9206 17.2416 71.7897 16.7158C67.8762 18.2704 65.5818 22.5016 65.0011 26.6723C64.4205 30.843 65.2239 35.0629 65.7532 39.2404C66.2826 43.4179 66.5107 47.8124 64.8727 51.6918C62.9375 56.2752 58.4818 59.5603 53.6193 60.6138C48.7568 61.6673 43.5783 60.6376 39.1769 58.3179C34.7755 55.9979 31.1051 52.4565 28.1068 48.486C33.2716 52.1534 40.4172 53.5274 46.046 50.622Z" fill="#2F2E41"/>
<path d="M88.6247 32.8444C83.4527 41.7541 93.1915 56.7666 83.3764 59.884L84.185 59.0754C90.1096 51.7879 77.7264 36.3635 83.6511 29.076C84.5716 28.007 85.3618 26.8324 86.005 25.5769" fill="#2F2E41"/>
<path d="M77.8752 37.6078C77.8752 37.6078 82.2571 21.2518 101.04 17.4768C101.062 17.4698 101.132 17.4415 101.224 17.3992C101.28 17.3639 101.351 17.3286 101.421 17.2934C101.21 17.1734 101.005 17.0676 100.793 16.9616C100.793 16.9617 100.792 16.9615 100.791 16.9611C100.79 16.9608 100.789 16.9603 100.788 16.9596C100.788 16.959 100.787 16.9582 100.787 16.9573C100.787 16.9564 100.786 16.9555 100.786 16.9546C100.603 16.7852 100.42 16.6159 100.229 16.4536L99.6927 16.4748C99.6927 16.4748 80.8459 13.4901 77.8752 37.6078Z" fill="#FD6584"/>
</svg>
