<?xml version="1.0" encoding="utf-8"?>
<!-- Generator: Adobe Illustrator 23.0.0, SVG Export Plug-In . SVG Version: 6.00 Build 0)  -->
<svg version="1.1" id="Capa_1" xmlns="http://www.w3.org/2000/svg" xmlns:xlink="http://www.w3.org/1999/xlink" x="0px" y="0px"
	 viewBox="0 0 1578.1 343" style="enable-background:new 0 0 1578.1 343;" xml:space="preserve">
<style type="text/css">
	.st0{fill:#C12A21;}
	.st1{fill-rule:evenodd;clip-rule:evenodd;fill:#C12A21;}
	.st2{fill-rule:evenodd;clip-rule:evenodd;fill:#0074C5;}
	.st3{fill-rule:evenodd;clip-rule:evenodd;fill:#F4CF00;}
	.st4{fill-rule:evenodd;clip-rule:evenodd;fill:#D98918;}
	.st5{fill:#302E2B;}
	.st6{fill:#262424;}
	.st7{fill-rule:evenodd;clip-rule:evenodd;fill:#302E2B;}
	.st8{fill:none;stroke:#302E2B;stroke-width:0.8569;stroke-miterlimit:3.86;}
</style>
<title>Davivienda</title>
<g>
	<g id="Layer_1">
		<path class="st0" d="M300.5,226.7c24.5,5.3,85.7,3.7,87.1-36.7c0-15.7-20.4-30.6-40.3-35c-21-5.3-43-5.3-64.2,0
			c-15.1,5.7-19.7-9.1-6-14.1c25.9-9.4,127.3-11.5,132.2,49c-4.3,60.1-92.8,55.8-112.7,51.8c-7.9-1.6-13.9-5.1-13.9-15.2V177
			c0-4.9,4-8.8,8.8-8.8c4.9,0,8.8,4,8.8,8.8l0,0L300.5,226.7z"/>
		<path class="st0" d="M490.8,156.2c-19.7,0-53,60-62.4,81.8c-2.7,5.2-9,7.2-14.2,4.6s-7.2-9-4.6-14.2l0,0
			c10.4-23.3,50-93.1,81-92.6c31.1,0.5,70.5,69.7,80.9,92.6c2.6,5.1,0.5,11.2-4.5,13.9c-5.1,2.6-11.2,0.5-13.9-4.5l0,0
			C543.5,216.2,510.5,156.2,490.8,156.2"/>
		<path class="st0" d="M629,224.1c19.8,0,52.8-60.2,62.6-81.3c1.3-5.6,7-9,12.5-7.7c5.6,1.3,9,7,7.7,12.5c-0.3,1.4-1,2.8-1.8,3.9
			c-10.5,23.3-50.1,93.2-81,92.6c-31-0.6-70.5-69.4-81-92.6c-3.2-4.8-1.9-11.2,2.9-14.4c4.8-3.2,11.2-1.9,14.4,2.9
			c0.6,0.8,1,1.7,1.3,2.8c9.8,21.5,42.6,81.8,62.4,81.8"/>
		<path class="st0" d="M743.3,146.5v87.6c0.6,5.4-3.3,10.3-8.8,10.9c-5.5,0.6-10.3-3.3-10.9-8.8c-0.1-0.7-0.1-1.4,0-2.2v-87.7
			c-0.6-5.4,3.3-10.3,8.8-10.9c5.4-0.6,10.3,3.3,10.9,8.8c0.1,0.7,0.1,1.4,0,2.2"/>
		<path class="st0" d="M838,224.1c19.7,0,53-60.2,62.8-81.8c2.6-5.1,8.8-7.1,13.9-4.5c5.1,2.6,7.1,8.8,4.5,13.9l0,0
			c-10.4,23.3-50.1,93.2-81,92.6c-31-0.6-70.5-69.4-80.9-92.6c-3.4-4.7-2.3-11.1,2.3-14.5c4.7-3.4,11.1-2.3,14.5,2.3
			c0.7,1,1.2,2.1,1.6,3.4c9.8,21.5,42.6,81.8,62.3,81.8"/>
		<path class="st0" d="M990.3,199.2c8.5,13.5,22.2,22.9,37.9,25.7c21,5.3,43,5.3,64.2,0c14.6-4.8,19.7,9.4,5.9,14.1
			c-27.1,9.2-126.7,12.2-132.4-49c3.2-58.1,82.7-56.5,113-52.5c14.9,1.8,12.2,17.5-3.6,14.3c-20.4-2.7-75.7-5.9-86.4,30.7h56.7
			c8.8,0,8.8,16.3,0,16.3L990.3,199.2z"/>
		<path class="st0" d="M1305.8,226.7c24.5,5.3,85.7,3.7,87-36.7c0-16-20.6-31-40.3-35.3c-21-5.3-43-5.3-64.2,0
			c-15.1,5.7-19.7-9.1-6-14.1c26.1-9.4,127.4-11.5,132.2,49c-4.2,60.1-92.8,55.8-112.6,51.8c-8-1.6-13.9-5.1-13.9-15.2V177
			c0-4.9,4-8.8,8.8-8.8s8.8,4,8.8,8.8l0,0L1305.8,226.7z"/>
		<path class="st0" d="M1496.1,156.2c-19.7,0-53,60.1-62.6,81.8c-2,5.4-8.1,8.1-13.4,6c-5.4-2-8.1-8.1-6-13.4c0.3-0.7,0.6-1.3,1-1.9
			c10.5-23.3,50.1-93.1,81-92.6c31,0.5,70.9,69.4,80.9,92.4c2.6,5.1,0.5,11.2-4.5,13.9c-5.1,2.6-11.2,0.5-13.9-4.5
			c-9.8-21.6-42.7-81.8-62.4-81.8"/>
		<path class="st0" d="M952.3,146.5v87.6c0.6,5.4-3.3,10.3-8.8,10.9c-5.4,0.6-10.3-3.3-10.9-8.8c-0.1-0.7-0.1-1.4,0-2.2v-87.7
			c-0.6-5.4,3.3-10.3,8.8-10.9c5.4-0.6,10.3,3.3,10.9,8.8c0.1,0.7,0.1,1.4,0,2.2"/>
		<path class="st0" d="M1190.7,208.1c-12.3-22.4-25.8-52.1-35.1-53c-22.7,0-12.2,45.1-12.9,80.2c-0.4,5.5-5.2,9.6-10.6,9.2
			s-9.6-5.2-9.2-10.6l0,0c0-44.8-9.6-97.9,33.2-97.9c12.2,0,24.5,18.8,35.1,36.7c12.2,22.4,26.8,52.2,36.7,52.8
			c22.7,0,12.2-44.1,12.2-79.4c0.4-5.5,5.1-9.6,10.6-9.3c5.5,0.4,9.6,5.1,9.3,10.6l0,0c0,44.9,10.2,97.9-32.6,97.9
			c-12.2,0-25.6-18.9-36.7-36.7"/>
		<path class="st1" d="M29.1,162.3c-0.1,12.9-4.4,25.4-12.2,35.6c-13.5,20.7,7.5,55.1,49,46.4c8.2,2.7,16.7,3.9,25.3,3.7
			c8.7,0.2,17.3-1,25.6-3.7c41.7,8.8,62.3-25.7,49-46.4c-7.9-10.2-12.2-22.7-12.2-35.6H29.1z"/>
		<path class="st2" d="M91.2,247.9c-40.6-1.1-48.1-19.8-36.7-23.8c6.5-2.3,15.2-6.1,15.2-6.1c-4.4-21.2,2.9-48.3,21.9-48.1
			c19.1,0.1,25.8,27.7,21.5,49c0,0,8.7,3.1,15.2,5.6c10.5,4.2,3.8,22.6-36.7,23.8"/>
		<path class="st3" d="M75.9,233c-10.7-30.2-1.3-58.6,15.4-58.5c16.7,0.1,26.5,27.5,15.4,58.6c-5.3-1-10.6-1.5-16-1.3
			C85.8,231.6,80.8,232.1,75.9,233"/>
		<path class="st4" d="M91.2,248.1c16.5,0,29.4-3.6,29.4-8.5s-12.2-8.4-29.4-8.4s-29.3,3.5-29.3,8.4
			C61.9,244.5,74.7,248.1,91.2,248.1"/>
		<path class="st2" d="M36.7,177.2h19.6c3.1-0.1,5.7,2.4,5.7,5.5v0.1V196c0,3.1-2.6,5.6-5.6,5.6h-0.1H36.7c-3.1,0.1-5.7-2.4-5.7-5.5
			V196v-13.3c0-3.1,2.6-5.6,5.6-5.6H36.7"/>
		<path class="st5" d="M39.2,180.3h15.5c2.3-0.1,4.2,1.7,4.3,4.1v0.1v9.8c0,2.3-1.8,4.2-4.2,4.2h-0.1H39.2c-2.3,0-4.2-1.8-4.3-4.2
			v-9.8C35.1,182.2,37,180.3,39.2,180.3"/>
		<path class="st3" d="M59.1,191.7c-6.9,0-9.4-8.8-10.2-11.4h5.7c2.3-0.1,4.2,1.7,4.3,4.1v0.1L59.1,191.7z"/>
		<path class="st3" d="M45.2,180.3c0,2.3-2.7,11.1-10.2,11.5v-7.3c0.1-2.3,1.9-4.2,4.3-4.2C39.2,180.3,45.2,180.3,45.2,180.3z"/>
		<path class="st2" d="M125.7,177.2h19.7c3.1-0.1,5.7,2.4,5.7,5.5v0.1V196c0,3.1-2.6,5.6-5.6,5.6h-0.1h-19.7c-3.1,0-5.6-2.6-5.6-5.6
			l0,0v-13.3C120,179.7,122.6,177.2,125.7,177.2L125.7,177.2"/>
		<path class="st5" d="M128,180.3h15.5c2.3-0.1,4.2,1.7,4.3,4.1v0.1v9.8c0,2.3-1.8,4.2-4.2,4.2h-0.1H128c-2.3,0-4.2-1.8-4.3-4.2
			v-9.8C123.8,182.2,125.7,180.3,128,180.3"/>
		<path class="st3" d="M147.9,191.7c-6.9-0.7-9.4-9-10.2-11.5h5.9c2.3-0.1,4.2,1.7,4.3,4.1v0.1V191.7z"/>
		<path class="st3" d="M133.9,180.3c0,2.3-2.6,11.1-10.2,11.5v-7.3c0.1-2.3,1.9-4.2,4.3-4.2C128,180.3,133.9,180.3,133.9,180.3z"/>
		<path class="st1" d="M132,111.1c-2-7.1-2.3-10.6,4.1-10.6h14.3c8.6,0,5,6.6,4.3,13.3c-1.1,8.7-1.1,11.2-1.1,11.2L132,111.1"/>
		<path class="st4" d="M91.2,161.6c-21.2,0-50.4,1.8-69.2,3.3C7.6,165.9-3.6,155,6,144.6c20.4-22,70.3-50,85.3-50s64.9,28,85.7,50
			c9.6,10.4,0,20.2-14.6,20.2s-49.7-3.3-70.9-3.3"/>
		<path class="st6" d="M102.7,211.1c-0.3-1.5,0.6-3.1,2.1-3.4c1.5-0.3,3.1,0.6,3.4,2.1c0.1,0.4,0.1,0.8,0,1.1
			c0.3,1.5-0.6,3.1-2.1,3.4c-1.5,0.3-3.1-0.6-3.4-2.1C102.6,211.8,102.6,211.4,102.7,211.1"/>
		<path class="st7" d="M91.3,230.8c-5.1,0-10.2,0.4-15.3,1.2c-10.2-29.4-0.8-57,15.3-57s25.3,27.7,15.3,57
			C101.6,231.2,96.5,230.8,91.3,230.8 M106.3,233.2c8.4,1.3,13.9,3.8,13.9,6.5c0,2.7-12.9,7.8-28.8,7.8s-28.9-3.5-28.9-7.8
			s5.5-5.1,14-6.5c0,0,9.1-1.1,14.9-1.1S106.3,233.2,106.3,233.2 M107.5,232.2c10.5-30.6,0-58.6-16.1-58.6s-26.8,28-16.1,58.6
			c-8.2,1.6-13.7,4.3-13.7,7.3c0.1,1.1,0.7,2.2,1.7,2.9c-13.9-5.9-15.1-15.8-7.4-18.5l14.3-5.4c-4.2-20.4,2.3-48.1,21.3-48.1
			s25.3,27.6,21.2,48.1c0,0,7.9,3.2,14.5,5.4c6.6,2.2,6.2,12.2-7.4,18.5c0.9-0.6,1.5-1.6,1.6-2.9
			C121.1,236.5,115.6,233.9,107.5,232.2 M133.1,110.8c-1.6-6.5-1.7-9.2,3.9-9.2h12.2c8.1,0,4.8,6.1,4.1,12.2c0,3.8-0.7,6.8-0.8,9.2
			C145.7,118.4,139.3,114.2,133.1,110.8 M118.8,244c39.1,6.6,58.2-26.2,45.7-45.9c-6.8-9.6-11.1-20.8-12.2-32.5
			c-25.6-1.3-43.3-2.7-61.2-3s-35.4,1.6-61.2,3c-1.1,11.7-5.4,23-12.2,32.5c-12.2,19.7,6.6,52.5,45.8,45.9
			c-16.6-6.2-18.6-17-9.8-20.4l15.2-5.6c-4.4-21.2,3.1-49,22.1-49s26.4,28,22.1,49l15.2,5.6c8.8,3.5,6.7,14.2-9.8,20.4 M91.3,160
			c-22,0-42.9,1.8-67.5,3.5C8.5,164.4,0,154.3,9.6,143.8c14.2-15.6,62.5-47.5,81.7-47.5s67.8,31.9,81.6,47.5
			c9.6,10.5,1.1,20.7-14.2,19.7C134.3,161.9,113.3,160.4,91.3,160 M130.2,109c-0.1-0.6-0.3-1.2-0.6-1.8c-1-3.8,0-8.1,6.5-8.1h14.2
			c8.5,0,7.5,5.9,6.1,11.4c-1.1,4.6-1.8,9.3-2.2,14c0,0,12.2,8.6,18.2,14c20.3,17.2,7.1,28.6-12.2,27.5h-5.7
			c0.5,10.3,4.3,20.2,10.8,28.3c22.6,27-7.3,61.2-49.6,51.4c-8,2.2-16.2,3.4-24.5,3.5c-8.3,0-16.5-1.2-24.5-3.5
			c-42.2,9.6-72.2-24.5-49.6-51.4c6.5-8.1,10.3-18,10.8-28.3h-5.7c-19.2,1.2-32.3-10.4-11.9-27.6c30.2-25.6,66.8-44.6,81-44.6
			C105.1,96.2,118.4,101.4,130.2,109"/>
		<path class="st8" d="M36.7,177.2h19.6c3.1-0.1,5.7,2.4,5.7,5.5v0.1V196c0,3.1-2.6,5.6-5.6,5.6h-0.1H36.7c-3.1,0.1-5.7-2.4-5.7-5.5
			V196v-13.3c0-3.1,2.6-5.6,5.6-5.6H36.7z"/>
		<path class="st8" d="M125.7,177.2h19.7c3.1-0.1,5.7,2.4,5.7,5.5v0.1V196c0,3.1-2.6,5.6-5.6,5.6h-0.1h-19.7c-3.1,0-5.6-2.6-5.6-5.6
			l0,0v-13.3C120,179.7,122.6,177.2,125.7,177.2L125.7,177.2z"/>
	</g>
</g>
</svg>
