<?xml version="1.0" encoding="UTF-8"?>
<svg width="148px" height="25px" viewBox="0 0 148 25" version="1.1" xmlns="http://www.w3.org/2000/svg" xmlns:xlink="http://www.w3.org/1999/xlink">
    <title>logo_dian</title>
    <defs>
        <linearGradient x1="99.9999939%" y1="63.6656781%" x2="27.2290252%" y2="45.6600135%" id="linearGradient-1">
            <stop stop-color="#19B3D8" offset="0%"></stop>
            <stop stop-color="#73BA72" offset="100%"></stop>
        </linearGradient>
        <linearGradient x1="57.8751558%" y1="48.7450757%" x2="58.2564647%" y2="51.2788304%" id="linearGradient-2">
            <stop stop-color="#0BB4DB" offset="0%"></stop>
            <stop stop-color="#0089B7" offset="100%"></stop>
        </linearGradient>
    </defs>
    <g id="Page-1" stroke="none" stroke-width="1" fill="none" fill-rule="evenodd">
        <g id="02-DIAN" transform="translate(-863.000000, -259.000000)" fill-rule="nonzero">
            <g id="logo_dian" transform="translate(863.000000, 259.000000)">
                <path d="M79.1231821,0.843199662 L81.3224955,0.843199662 L102.564311,24.1832418 L98.3132162,24.2160266 L80.3580761,4.29926361 L69.238566,16.585366 L84.2840554,16.585366 C84.2840554,16.585366 85.707462,18.1836249 86.4177993,18.9868515 C80.0739412,19.0005119 73.4596085,18.9243555 67.1157504,18.9462121 C67.1157504,18.9462121 62.198031,24.2273209 62.2444761,24.2078304 C60.8046771,24.2597396 59.359414,24.235151 57.9196151,24.1969021 C57.9196151,24.1969021 72.8329299,7.74579155 79.1231821,0.843199662 L79.1231821,0.843199662 Z" id="path6" fill="url(#linearGradient-1)"></path>
                <path d="M109.111044,1.07025641 C108.538674,1.0726538 108.080515,1.08625949 108.080515,1.08625949 L108.121336,24.1969044 L111.454644,24.1940972 L111.462656,4.97945211 L143.624735,24.1912961 L146.698309,24.1912961 L146.709108,1.08345639 L143.340583,1.08345639 L143.348595,20.3829444 C143.348595,20.3829444 122.992159,8.26883277 112.809749,2.22003769 C112.154053,1.84574595 111.53627,1.38688583 110.825932,1.12187607 C110.369677,1.07679698 109.683421,1.06785902 109.111054,1.07025026 L109.111044,1.07025641 Z M7.98443118,1.08606038 C3.83681296,1.0868742 0.519006446,1.08906669 0.519006446,1.08906669 L0.521807497,3.92211781 C0.521807497,3.92211781 14.7200795,3.90314361 21.82072,3.94413075 C25.0336312,4.06434031 28.3012565,4.20640913 31.3912234,5.17356065 C33.5768768,5.82652111 35.5248614,7.45206922 36.2625193,9.64865063 C36.951,11.7195577 36.9236145,14.036238 36.1968862,16.0907506 C35.4674245,18.137069 33.6450397,19.6479666 31.5905257,20.2544854 C28.4295249,21.2025111 25.0963995,21.3255504 21.8179188,21.377459 C15.8647462,21.3911261 3.96117,21.3830734 3.96117,21.3830734 L3.96957521,16.5798116 L0.529811905,16.5798116 L0.546220286,24.1969044 C8.4500882,24.1832372 16.3540998,24.2213373 24.2579689,24.1748935 C28.17302,24.0574133 32.3336587,23.8279361 35.7678664,21.7324425 C38.3360081,20.1696998 39.9919293,17.2955181 40.1613161,14.3066368 C40.2487429,12.3067641 40.3087636,10.2195036 39.5273913,8.33437778 C38.5110626,5.61597099 36.1311875,3.5507849 33.4018538,2.65466779 C29.2381847,1.23672531 24.7852534,1.1055267 20.4276065,1.09186569 C17.1095119,1.08639473 12.1320494,1.08557511 7.98443118,1.08606038 L7.98443118,1.08606038 Z M49.9427279,1.08786594 C49.2426373,1.08786594 48.6824824,1.08912816 48.6824824,1.08912816 L48.6988912,24.1969044 L52.0181921,24.1969044 L52.043004,1.09466879 C51.4829311,1.08919783 50.6428206,1.08786594 49.9427279,1.08786594 L49.9427279,1.08786594 Z" id="path8" fill="url(#linearGradient-2)"></path>
            </g>
        </g>
    </g>
</svg>
