<?xml version="1.0" encoding="UTF-8"?>
<svg width="48px" height="48px" viewBox="0 0 48 48" version="1.1" xmlns="http://www.w3.org/2000/svg" xmlns:xlink="http://www.w3.org/1999/xlink">
    <title>referidos-header</title>
    <defs>
        <linearGradient x1="11.878959%" y1="0%" x2="90.3334059%" y2="100%" id="linearGradient-1">
            <stop stop-color="#42E0C4" offset="0%"></stop>
            <stop stop-color="#1FBE92" offset="100%"></stop>
        </linearGradient>
        <rect id="path-2" x="0" y="0" width="37" height="40" rx="8"></rect>
        <filter x="-18.9%" y="-12.5%" width="137.8%" height="135.0%" filterUnits="objectBoundingBox" id="filter-4">
            <feOffset dx="0" dy="2" in="SourceAlpha" result="shadowOffsetOuter1"></feOffset>
            <feGaussianBlur stdDeviation="2" in="shadowOffsetOuter1" result="shadowBlurOuter1"></feGaussianBlur>
            <feColorMatrix values="0 0 0 0 0   0 0 0 0 0   0 0 0 0 0  0 0 0 0.1 0" type="matrix" in="shadowBlurOuter1"></feColorMatrix>
        </filter>
        <rect id="path-5" x="2.55172414" y="2.60869565" width="37" height="40" rx="8"></rect>
        <filter x="-18.9%" y="-12.5%" width="137.8%" height="135.0%" filterUnits="objectBoundingBox" id="filter-6">
            <feOffset dx="0" dy="2" in="SourceAlpha" result="shadowOffsetOuter1"></feOffset>
            <feGaussianBlur stdDeviation="2" in="shadowOffsetOuter1" result="shadowBlurOuter1"></feGaussianBlur>
            <feComposite in="shadowBlurOuter1" in2="SourceAlpha" operator="out" result="shadowBlurOuter1"></feComposite>
            <feColorMatrix values="0 0 0 0 0   0 0 0 0 0   0 0 0 0 0  0 0 0 0.1 0" type="matrix" in="shadowBlurOuter1"></feColorMatrix>
        </filter>
        <path d="M0.562113898,1.60869565 C0.282816092,1.60869565 0.0479028213,1.21710145 0.320434692,0.982608696 C0.812453501,0.55884058 1.50663845,0.191594203 2.1740303,0.191594203 C2.36347649,0.191594203 2.55102821,0.22115942 2.73127273,0.287536232 C3.10448171,0.425217391 2.96564472,1.00028986 2.63059561,1.00028986 C2.59405956,1.00028986 2.55508777,0.993333333 2.51395089,0.97826087 C2.40055381,0.936521739 2.28093208,0.917971014 2.15887461,0.917971014 C1.66442006,0.917971014 1.12666353,1.22202899 0.775646813,1.52405797 C0.706634274,1.58347826 0.633020899,1.60869565 0.562113898,1.60869565 Z" id="path-7"></path>
        <path d="M36.9995706,42.4339762 L0.156636605,42.4339762 L0.156636605,2.23326694 C12.9644761,-0.450366772 25.29518,-0.703876609 36.9995706,2.23326694 C52.1387782,6.84095701 52.1387782,27.9558271 36.9995706,42.4339762" id="path-9"></path>
    </defs>
    <g id="Page-1" stroke="none" stroke-width="1" fill="none" fill-rule="evenodd">
        <g id="1---PANEL-CONTROL---MI-CUENTA" transform="translate(-1301.000000, -20.000000)">
            <g id="referidos-header" transform="translate(1305.000000, 20.000000)">
                <g id="Group" transform="translate(0.000000, 2.000000)">
                    <mask id="mask-3" fill="white">
                        <use xlink:href="#path-2"></use>
                    </mask>
                    <g id="Mask">
                        <use fill="black" fill-opacity="1" filter="url(#filter-4)" xlink:href="#path-2"></use>
                        <use fill="url(#linearGradient-1)" fill-rule="evenodd" xlink:href="#path-2"></use>
                    </g>
                    <g mask="url(#mask-3)">
                        <g transform="translate(-2.551724, -2.608696)">
                            <g id="Rectangle">
                                <use fill="black" fill-opacity="1" filter="url(#filter-6)" xlink:href="#path-5"></use>
                                <rect stroke="#F1F1F1" stroke-width="1" stroke-linejoin="square" fill="#35D4B3" fill-rule="evenodd" x="3.05172414" y="3.10869565" width="36" height="39" rx="8"></rect>
                            </g>
                            <g id="Group-182" stroke-width="1" fill-rule="evenodd" transform="translate(0.000000, 6.086957)">
                                <path d="M0.406828249,35.8390479 C0.406828249,35.8390479 10.1029138,15.5111295 20.3875521,14.5304154 C28.8361389,13.7253728 33.0098518,17.7567744 37.7900653,19.4813554 C38.9350043,19.8945883 40.9806038,24.0254894 38.6636873,25.0838037 C37.2353107,25.7362643 34.0193654,23.7988778 31.4488468,22.8022152 C29.9111509,29.8278892 31.5253004,43.7844984 31.5253004,43.7844984 L14.8141326,38.8254651 L16.2264261,22.0566821 C16.2264261,22.0566821 9.34816777,27.6903133 4.83927122,37.9890017 C2.50067739,36.9768667 0.406828249,35.8390479 0.406828249,35.8390479" id="Fill-144" fill="#FFFFFE"></path>
                                <path d="M17.8790355,36.3470197 L15.0227483,36.3470197 L16.2264261,22.0566821 C16.2264261,22.0566821 10.077507,27.0930775 5.59611505,36.3470197 L4.50711771,36.3470197 C7.17040617,29.7536216 13.4312086,23.7186592 15.8122248,21.6534467 C16.0357583,21.4594462 16.2320202,21.3770853 16.4026422,21.3770853 C17.0191658,21.3770853 17.3005056,22.4518241 17.3284765,23.2111635 C17.3839519,24.7200826 17.3960726,26.2340005 17.3876814,27.7443478 C17.3720643,30.5372407 17.4291714,33.3175176 17.8391771,36.0842264 C17.851997,36.1718241 17.8655162,36.2594219 17.8790355,36.3470197" id="Fill-146" fill="#F3F3F0"></path>
                                <polyline id="Fill-147" fill="#EFA67C" points="21.5392507 12.1533738 21.4658273 14.2557202 23.3834602 15.8122468 25.1260424 14.4254409 24.6708173 11.7256206 21.5392507 12.1533738"></polyline>
                                <path d="M26.2241303,0.368379888 C26.7178153,2.4028856 27.3296771,4.77968909 27.3473919,6.69684236 C27.386318,10.8920136 25.8204181,12.2078844 23.7657281,12.791076 C18.9048654,14.1714549 14.021626,8.78038377 15.0101615,2.79659947 L26.2241303,0.368379888" id="Fill-148" fill="#F5C097"></path>
                                <path d="M14.1333193,6.2821812 C13.7334594,5.96297304 13.3983753,5.54307505 13.1333193,5.06604809 C13.3987255,5.54331309 13.7338095,5.96297304 14.1333193,6.2821812" id="Fill-150" fill="#5B72A9"></path>
                                <path d="M22.3245315,15.4613796 L24.3328365,15.54017 C24.3328365,15.54017 24.2533528,16.2409521 23.9253949,16.8367598 C23.6787855,17.2840321 23.2813667,17.6044304 22.8671655,16.8584212 C22.4319861,16.074802 22.3245315,15.4613796 22.3245315,15.4613796" id="Fill-153" fill="#1F2F4C"></path>
                                <path d="M22.374879,31.7831285 C22.374879,31.7831285 23.3683094,33.4044013 23.7552391,33.4760505 C24.1419357,33.5479378 25.0286107,31.4565412 25.0286107,31.4565412 C25.0286107,31.4565412 23.8995219,16.3316444 23.4135288,16.2416663 C22.9275358,16.1514501 22.374879,31.7831285 22.374879,31.7831285" id="Fill-154" fill="#1F2F4C"></path>
                                <path d="M20.7786774,14.496376 L21.4658273,14.0879038 L21.4716545,14.0924265 L21.4658273,14.2557202 L21.6956542,14.4421035 C21.3959002,14.4540053 21.0898528,14.4718581 20.7786774,14.496376" id="Fill-155" fill="#6D8CBA"></path>
                                <path d="M21.7807321,17.5894341 L20.3875521,14.7287005 L20.7786774,14.496376 C21.0898528,14.4718581 21.3959002,14.4540053 21.6956542,14.4421035 L22.9827782,15.4870877 L22.3245315,15.4613796 C22.3245315,15.4613796 22.3897968,15.8341462 22.6247517,16.3699684 L21.7807321,17.5894341" id="Fill-156" fill="#D9D9D5"></path>
                                <polyline id="Fill-157" fill="#CF8C68" points="23.2289214 15.4968472 22.9827782 15.4870877 21.6956542 14.4421035 21.4658273 14.2557202 21.4716545 14.0924265 23.2289214 15.4968472"></polyline>
                                <path d="M22.6247517,16.3699684 C22.3897968,15.8341462 22.3245315,15.4613796 22.3245315,15.4613796 L22.9827782,15.4870877 L23.2289214,15.4968472 L23.2291545,15.4968472 L22.6247517,16.3699684" id="Fill-158" fill="#19263F"></path>
                                <path d="M26.1369546,14.7467914 C25.7514234,14.6758562 25.3561025,14.6153947 24.9486608,14.566597 L25.1260424,14.4254409 L25.055183,14.0055429 L26.1369546,14.7467914" id="Fill-159" fill="#6D8CBA"></path>
                                <path d="M24.7824675,17.4704154 L24.0785351,16.5116007 C24.2792258,16.0126743 24.3328365,15.54017 24.3328365,15.54017 L23.7540736,15.5173184 L24.9486608,14.566597 C25.3561025,14.6153947 25.7514234,14.6758562 26.1369546,14.7467914 L24.7824675,17.4704154" id="Fill-160" fill="#D9D9D5"></path>
                                <polyline id="Fill-161" fill="#CF8C68" points="23.7540736 15.5173184 23.3366091 15.5008939 23.3289171 15.4904202 25.0199864 13.9815011 25.055183 14.0055429 25.1260424 14.4254409 23.7540736 15.5173184"></polyline>
                                <path d="M24.0785351,16.5116007 L23.3366091,15.5008939 L23.7540736,15.5173184 L24.3328365,15.54017 C24.3328365,15.54017 24.2792258,16.0126743 24.0785351,16.5116007" id="Fill-162" fill="#19263F"></path>
                                <polyline id="Fill-163" fill="#FFFFFE" points="20.3875521 14.7287005 21.4658273 13.8755744 23.2291545 15.4968472 21.8723365 17.258086 20.3875521 14.7287005"></polyline>
                                <polyline id="Fill-164" fill="#FFFFFE" points="26.1369546 14.7467914 25.0199864 13.7689337 23.3289171 15.4904202 24.7824675 17.258086 26.1369546 14.7467914"></polyline>
                            </g>
                            <g id="Group-185" stroke-width="1" fill-rule="evenodd" transform="translate(18.712644, 11.304348)">
                                <mask id="mask-8" fill="white">
                                    <use xlink:href="#path-7"></use>
                                </mask>
                                <g id="Clip-184"></g>
                                <polygon id="Fill-183" fill="#F2B388" mask="url(#mask-8)" points="0.200271682 1.60869565 2.96077325 1.60869565 2.96077325 0.191594203 0.200271682 0.191594203"></polygon>
                            </g>
                            <g id="Group-200" stroke-width="1" fill-rule="evenodd" transform="translate(2.551724, 0.000000)">
                                <mask id="mask-10" fill="white">
                                    <use xlink:href="#path-9"></use>
                                </mask>
                                <g id="Clip-187"></g>
                                <path d="M16.856616,12.7738013 C17.2335229,12.4643527 17.8607686,12.1522856 18.3537543,12.3255769 C18.7110816,12.4512606 18.8973206,11.8837795 18.5406926,11.7583337 C17.8397905,11.511965 17.0085908,11.8821132 16.4643253,12.3291474 C16.1703985,12.5705174 16.5629224,13.0149332 16.856616,12.7738013" id="Fill-186" fill="#54311D" mask="url(#mask-10)"></path>
                                <path d="M21.9939237,11.4134175 C21.7682924,11.4131795 21.5587444,11.1506242 21.7524423,10.9401992 C22.097882,10.5652903 22.6127782,10.404853 23.1197493,10.404853 C23.3339592,10.404853 23.5467706,10.4334175 23.7448972,10.4867379 C24.0791485,10.576478 24.0267032,11.0882584 23.7283478,11.0882584 C23.7038733,11.0882584 23.6777672,11.0849259 23.6500295,11.0773087 C23.4826708,11.0325577 23.2845441,11.0020889 23.0840865,11.0020889 C22.7563617,11.0020889 22.4228097,11.0832597 22.2099983,11.314394 C22.1456655,11.3841389 22.0689788,11.4134175 21.9939237,11.4134175" id="Fill-188" fill="#F2B388" mask="url(#mask-10)"></path>
                                <path d="M22.108371,11.2044207 C22.4512467,10.8316541 23.1078617,10.8487928 23.5481691,10.9670974 C23.9136545,11.0654068 24.0050259,10.4736459 23.6430368,10.3765266 C22.976632,10.1977605 22.1421691,10.296546 21.6510481,10.8299879 C21.3925511,11.1103959 21.8508064,11.4838766 22.108371,11.2044207" id="Fill-189" fill="#54311D" mask="url(#mask-10)"></path>
                                <path d="M21.1631903,14.9044741 C20.9538753,14.9044741 20.7543501,14.8333009 20.611932,14.6454894 L20.6189247,14.6331115 C20.7217175,14.6707214 20.8354655,14.6883362 20.9531761,14.6883362 C21.3461661,14.6883362 21.7841426,14.4921933 22.0107062,14.1832208 C22.0195637,14.1710809 22.0340153,14.1634637 22.0477676,14.1634637 C22.0601214,14.1634637 22.072242,14.1694146 22.0794678,14.1832208 C22.2403001,14.4831479 21.8570998,14.7090454 21.6335663,14.80188 C21.4848548,14.8637697 21.3212255,14.9044741 21.1631903,14.9044741" id="Fill-190" fill="#F0AC7E" mask="url(#mask-10)"></path>
                                <path d="M23.2607689,15.6300121 C23.2959655,15.8816177 23.2989957,16.1948749 23.2078574,16.5026573 C23.0563488,17.0222929 22.8481993,17.5612096 21.8417158,17.7792519 C20.8671658,17.989915 20.2201074,17.5607335 19.8765325,17.1972504 C19.6525328,16.9606412 19.5282958,16.6738062 19.459068,16.4352927 C19.3788849,16.1589313 19.5425143,15.8728103 19.8154629,15.8021132 C20.5571558,15.6126354 22.0319174,15.2443915 22.7966863,15.0558659 C23.080124,14.9827884 23.2188127,15.3338936 23.2607689,15.6300121" id="Fill-191" fill="#351617" mask="url(#mask-10)"></path>
                                <path d="M18.259819,14.6000243 L18.1954861,14.6135924 C17.864498,14.6835754 17.5407357,14.4664853 17.4722072,14.1284722 L17.4281532,13.911144 C17.3596247,13.5731309 17.572436,13.242497 17.903191,13.172514 L17.9675239,13.1587078 C18.2985119,13.0889628 18.6222742,13.306053 18.6908027,13.6440661 L18.7348568,13.8613942 C18.8033853,14.1994073 18.590807,14.5300413 18.259819,14.6000243" id="Fill-192" fill="#FFFFFE" mask="url(#mask-10)"></path>
                                <path d="M18.1922228,14.4322079 L18.1922228,14.4322079 C17.9278985,14.4879087 17.6696346,14.3146174 17.6148584,14.0449211 L17.5915494,13.929949 C17.5367732,13.6600146 17.706696,13.3962691 17.9707871,13.3403303 C18.2348783,13.2843915 18.4936084,13.4579208 18.5481515,13.7276172 L18.5714605,13.8425893 C18.6262367,14.1122856 18.456314,14.3762691 18.1922228,14.4322079" id="Fill-193" fill="#54311D" mask="url(#mask-10)"></path>
                                <path d="M18.2784662,13.3200879 C18.4239145,13.318907 18.5430235,13.4326889 18.5439559,13.5745591 C18.5451214,13.7161914 18.4281101,13.8321156 18.2826618,13.8330678 C18.1372135,13.834496 18.0183375,13.7204761 18.0171635,13.5788438 C18.0160066,13.4372116 18.1330179,13.3212873 18.2784662,13.3200879" id="Fill-194" fill="#FFFFFE" mask="url(#mask-10)"></path>
                                <path d="M23.2141509,13.223454 L23.149818,13.2370221 C22.8188299,13.3070051 22.4950676,13.0896769 22.4265391,12.7519019 L22.3824851,12.5343357 C22.3139566,12.1965606 22.5265348,11.8656886 22.8575229,11.7957056 L22.9220889,11.7821375 C23.2530769,11.7121545 23.5766061,11.9294826 23.6451346,12.2674957 L23.6894218,12.4848239 C23.7579503,12.822837 23.5451389,13.153471 23.2141509,13.223454" id="Fill-195" fill="#FFFFFE" mask="url(#mask-10)"></path>
                                <path d="M23.1467878,13.0556376 L23.1467878,13.0556376 C22.8824635,13.1113384 22.6239665,12.9380471 22.5691903,12.6681127 L22.5458813,12.5533787 C22.4913382,12.2834443 22.6612609,12.0194608 22.925119,11.963522 C23.1894433,11.9078212 23.4479403,12.0813505 23.5024834,12.3510469 L23.5260255,12.4660189 C23.5805686,12.7357153 23.4106459,12.9996988 23.1467878,13.0556376" id="Fill-196" fill="#54311D" mask="url(#mask-10)"></path>
                                <path d="M23.2330312,11.9435176 C23.3784794,11.9423367 23.4971223,12.0561185 23.4982878,12.1977508 C23.4996863,12.3396211 23.382442,12.4553073 23.2369937,12.4564974 C23.0915454,12.4579257 22.9726694,12.3439058 22.9714953,12.2022735 C22.9703385,12.0606412 23.0873498,11.944717 23.2330312,11.9435176" id="Fill-197" fill="#FFFFFE" mask="url(#mask-10)"></path>
                                <path d="M21.3389403,17.8349526 C20.640369,17.8349526 20.1571731,17.4940831 19.8765325,17.1972504 C20.1378266,16.7559291 21.1536336,16.055147 22.1027769,16.055147 C22.503692,16.055147 22.8927195,16.1801166 23.2078574,16.5026573 C23.0563488,17.0222929 22.8481993,17.5612096 21.8417158,17.7792519 C21.6631688,17.8178139 21.4955769,17.8349526 21.3389403,17.8349526" id="Fill-198" fill="#942D30" mask="url(#mask-10)"></path>
                                <path d="M20.754117,14.0323051 L20.7387331,14.0261161 C20.6755656,13.9213796 20.9335965,13.8197377 20.9974632,13.7916493 C21.1098127,13.7418994 21.2739082,13.6897692 21.4214542,13.6897692 C21.498374,13.6897692 21.5708651,13.7040515 21.6291376,13.7397571 C21.6501157,13.7528492 21.6459201,13.7859364 21.622378,13.7928394 C21.4820577,13.8333058 21.3286844,13.7983143 21.1827699,13.8328297 C21.1380166,13.8433034 20.7489891,13.9827933 20.7676363,14.0230216 L20.764373,14.0306388 L20.754117,14.0323051" id="Fill-199" fill="#F0AC7E" mask="url(#mask-10)"></path>
                            </g>
                        </g>
                    </g>
                </g>
                <g id="Group-4" transform="translate(11.000000, 0.000000)">
                    <path d="M24.5900559,16.1346153 C24.0198662,16.3724633 22.007391,17.5521415 22.3375862,18.0770803 C22.8535164,18.8960423 23.291999,20.1849632 23.291999,20.1849632 L25.3863274,19.3256029 L24.5900559,16.1346153" id="Fill-165" fill="#EFA67C"></path>
                    <path d="M31.3502475,10.7229163 L30.7204649,10.8840315 L29.9151502,7.5391 L30.5451647,7.37798488 C31.4411439,7.14874245 32.3477897,7.71168919 32.5699294,8.6353521 C32.7923011,9.55925406 32.2462268,10.4936739 31.3502475,10.7229163" id="Fill-166" fill="#F4F4F2"></path>
                    <polyline id="Fill-167" fill="#DF4F59" points="24.3431051 17.4792333 22.4563081 17.9616225 21.4636354 13.6903986 23.3504324 13.2080094 24.3431051 17.4792333"></polyline>
                    <polyline id="Fill-168" fill="#FFFFFE" points="32.6847094 14.5167709 24.8908026 12.4650632 24.045141 8.95065008 30.0044235 3.38094357 32.6847094 14.5167709"></polyline>
                    <polyline id="Fill-169" fill="#F4F4F2" points="32.6847094 14.5167709 24.8908026 12.4650632 24.553651 11.06427 31.798469 10.8350276 32.6847094 14.5167709"></polyline>
                    <path d="M20.2163599,13.3684074 L20.2163599,13.3684074 C19.5898237,13.5288054 18.9558673,13.1351013 18.8005086,12.4892065 L18.6500193,11.8643476 C18.4946606,11.2184529 18.8765648,10.5649088 19.503101,10.4045108 C20.1296373,10.2443519 20.7635936,10.638056 20.9189524,11.2839507 L21.0694416,11.9085706 C21.2250323,12.5547044 20.8428962,13.2082485 20.2163599,13.3684074" id="Fill-170" fill="#FFFFFE"></path>
                    <path d="M20.9184886,11.2844288 L21.068746,11.9080925 C21.2245685,12.5556605 20.8419686,13.2075313 20.2156643,13.3679293 C19.589128,13.5280883 18.9554036,13.1360574 18.7995811,12.4884894 L18.6493237,11.8645867 C18.6379616,11.8172561 18.6298459,11.7689694 18.6254402,11.7216388 C18.8304209,12.2826732 19.4168422,12.6094453 19.9974664,12.4609994 C20.5778588,12.3125536 20.9479372,11.7410013 20.8748954,11.1460228 C20.8922863,11.1902458 20.9071266,11.2368592 20.9184886,11.2844288" id="Fill-171" fill="#F4F4F2"></path>
                    <path d="M32.4194402,15.0048971 L32.4194402,15.0048971 C32.0514487,15.0990802 31.6792834,14.8679254 31.5879232,14.4885638 L29.047692,3.93456762 C28.9563318,3.55520606 29.1805585,3.17154173 29.54855,3.07735871 C29.9165415,2.98317569 30.2889387,3.21433046 30.3802989,3.59369202 L32.9202982,14.1476882 C33.0116584,14.5270498 32.7874317,14.9107141 32.4194402,15.0048971" id="Fill-172" fill="#E05A60"></path>
                    <path d="M32.2986314,11.5655436 L32.9200663,14.1472102 C33.0116584,14.5268108 32.7876635,14.909997 32.4194402,15.00418 C32.0509849,15.098363 31.6797471,14.8676864 31.588155,14.4878467 L30.966952,11.9064192 C31.0578485,12.2843465 31.4297819,12.5166965 31.7980053,12.4225135 C32.1664605,12.3283305 32.3897597,11.94371 32.2986314,11.5655436" id="Fill-173" fill="#DF4F59"></path>
                    <path d="M24.5742882,13.4224312 L21.5192863,14.2038634 C21.0346598,14.3276878 20.5444683,14.0233858 20.4243551,13.5237855 L19.6162578,10.1671409 C19.4961447,9.66754063 19.7915581,9.16220331 20.2761846,9.03813989 L23.3309546,8.25694672 C23.8155811,8.1328833 24.3060045,8.43742433 24.4261177,8.93702462 L25.2339831,12.2934302 C25.3540962,12.7930304 25.0589147,13.2986068 24.5742882,13.4224312" id="Fill-174" fill="#E05A60"></path>
                    <path d="M24.9357871,11.0556645 L25.2924165,12.5372542 C25.3800666,12.9015561 25.165347,13.2715949 24.8103407,13.3621923 L21.2832338,14.2643413 C20.9296188,14.3549387 20.5704387,14.1319114 20.4827885,13.7673705 L20.1261591,12.2857808 C20.2138093,12.6503217 20.5729894,12.873349 20.9266044,12.7829906 L24.4534794,11.8808416 C24.8087175,11.7900052 25.0234372,11.4202054 24.9357871,11.0556645" id="Fill-175" fill="#DF4F59"></path>
                    <path d="M22.676361,14.3762135 C22.5506828,14.6606749 22.794851,14.9260129 22.9124135,14.9740606 C23.3070711,15.1356538 24.3250186,14.6566112 24.5541147,14.4479265 C24.8094132,14.2153375 24.5534191,13.791992 24.2628751,13.7551793 C23.7302497,13.6880082 22.8245315,14.0415531 22.676361,14.3762135" id="Fill-177" fill="#EFA67C"></path>
                    <path d="M22.3375862,18.0770803 C21.2540171,17.0652105 20.7531591,15.3127848 21.6294287,14.7417106 C22.762388,14.0033061 23.3335053,14.0131069 23.4359956,14.5686433 C23.5382541,15.1241797 22.4027442,15.3656133 22.5518422,15.7237 C22.7014039,16.0817868 23.1067279,16.4549332 23.1862623,17.007123 C23.3054479,17.8358857 22.3375862,18.0770803 22.3375862,18.0770803" id="Fill-178" fill="#F5C097"></path>
                    <path d="M23.005165,15.1779644 C22.8794868,15.4621868 23.1238869,15.7275247 23.2414494,15.7758115 C23.636107,15.9371656 24.6540544,15.4581231 24.8829187,15.2494383 C25.1382172,15.0168493 24.882455,14.5937428 24.591911,14.5569302 C24.0590537,14.48952 23.1535674,14.8430649 23.005165,15.1779644" id="Fill-179" fill="#EFA67C"></path>
                    <path d="M23.2644054,16.0650537 C23.1387272,16.3492761 23.3828954,16.614614 23.5004579,16.6629008 C23.8951155,16.8242549 24.913063,16.3452124 25.1419272,16.1365276 C25.3972257,15.9039386 25.1412316,15.4808322 24.8509195,15.4440195 C24.3180622,15.3766093 23.412344,15.7301542 23.2644054,16.0650537" id="Fill-180" fill="#EFA67C"></path>
                    <path d="M23.6196436,16.8323824 C23.5215589,17.0539754 23.7121632,17.2612259 23.8039871,17.2989947 C24.111922,17.4249705 24.9065703,17.0511069 25.0851169,16.8883185 C25.2843007,16.7066457 25.0846532,16.376288 24.8581077,16.3476028 C24.4423492,16.2950133 23.735351,16.5708691 23.6196436,16.8323824" id="Fill-181" fill="#EFA67C"></path>
                    <path d="M22.1226347,18.6060829 L25.2017519,17.7500692 C25.2017519,17.7500692 27.7582146,23.4455125 27.5611177,28.0270144 C27.497351,29.5045404 26.6136613,30.4131436 25.9690385,30.647884 C24.6600833,31.1242971 23.3351284,29.6548986 23.3947212,28.2330696 C23.4795888,26.2117203 22.701172,18.9024965 22.1226347,18.6060829" id="Fill-176" fill="#FFFFFE"></path>
                    <path d="M2.44494461,4.51998441 C2.4505097,2.95688094 2.59937582,1.26493319 4.63643018,0.656568247 C10.0234361,-0.952909603 11.5904723,2.61265873 12.8964132,3.11225902 C13.0789017,3.14859358 13.3768658,3.01449035 13.6982497,2.88014807 C14.5035644,2.54381429 15.4570496,2.20748051 15.1212893,4.55153811 C14.2916273,10.3471404 8.21594165,11.6659418 4.42820311,8.21774363 C3.88120126,9.41917475 4.87827967,11.0941504 4.44304335,11.9855425 C3.75830555,13.2517543 2.04078004,12.6763774 1.29529002,11.83877 C-0.491567227,9.83056809 -0.431046887,3.30182027 2.44494461,4.51998441" id="Fill-149" fill="#292F60"></path>
                    <path d="M3.18533329,12.7234689 C2.48923344,12.7234689 1.72843943,12.3254619 1.29529002,11.83877 C1.29389875,11.8370967 1.2922756,11.8354234 1.29088433,11.8337501 L1.29065245,11.833511 C1.2890293,11.8318377 1.2878699,11.8304035 1.28647863,11.8287302 C1.28624675,11.8284911 1.28601487,11.8282521 1.28578299,11.8280131 C1.2846236,11.8265788 1.28323233,11.8249055 1.28184106,11.8234712 C1.28160918,11.8232322 1.2813773,11.8229931 1.28114542,11.8227541 C1.27998603,11.8213198 1.27859475,11.8196465 1.27720348,11.8182123 C1.2769716,11.8179732 1.27673973,11.8177342 1.27650785,11.8174951 C1.27534845,11.8160609 1.27395718,11.8146266 1.27279779,11.8131924 C1.27256591,11.8127143 1.27210215,11.8122362 1.27187027,11.8119972 C1.27071088,11.8105629 1.26955149,11.8093677 1.26839209,11.8079334 C1.26792833,11.8074553 1.26746458,11.8069772 1.26700082,11.8064992 C1.26584143,11.8050649 1.26491391,11.8038697 1.26375452,11.8024354 C1.26329076,11.8019573 1.262827,11.8014793 1.26236325,11.8010012 C1.26120385,11.799806 1.26027634,11.7986107 1.25911694,11.7971765 C1.25865319,11.7966984 1.25818943,11.7962203 1.25772567,11.7955032 C1.25679816,11.794308 1.25563876,11.7931127 1.25447937,11.7919175 C1.25401561,11.7912004 1.25355186,11.7907223 1.2530881,11.7900052 C1.25216058,11.78881 1.25100119,11.7876147 1.25007367,11.7864195 C1.24937804,11.7857024 1.24891428,11.7852243 1.24821865,11.7845072 C1.24752301,11.783551 1.24682737,11.7825948 1.24613174,11.7816387 C1.24520422,11.7806825 1.24427671,11.7797263 1.24358107,11.7787702 C1.24311731,11.778053 1.24242168,11.7775749 1.24195792,11.7768578 C1.24079853,11.7754235 1.23987101,11.7742283 1.23871162,11.7727941 C1.23847974,11.772555 1.23801598,11.7720769 1.23801598,11.7720769 C1.23662471,11.7704036 1.23523344,11.7687303 1.23384217,11.767057 L1.23361029,11.766818 C0.969036693,11.4462611 0.747128779,11.0248279 0.571364725,10.5455463 C-0.262471074,8.26818175 -0.0496064286,4.6854023 1.56937064,4.39855046 C1.19813285,4.67392823 0.956747122,4.88715476 0.758490835,5.50316908 C0.306327373,6.90946021 0.597798897,9.37805932 2.09318462,9.6739948 C2.14558921,9.68427365 2.19799379,9.68929356 2.24970274,9.68929356 C2.67404076,9.68929356 3.06637952,9.35630639 3.22799897,8.93869792 C3.40329927,8.48618915 3.60781628,6.25567707 3.89743277,6.25567707 C3.90763544,6.25567707 3.91806998,6.25830654 3.92827264,6.26404358 C4.72037027,6.69790698 6.90466761,8.95925563 10.415543,8.95925563 C11.2639871,8.95925563 12.1898788,8.82706475 13.1925223,8.5053126 C12.0822871,9.56188354 10.6272482,10.0968622 9.11957294,10.0971013 C7.49572641,10.0971013 5.81066391,9.47630607 4.42820311,8.21774363 C4.30414801,8.49001384 4.2596273,8.7864274 4.2596273,9.09264174 C4.25939542,9.88196238 4.55596828,10.7353466 4.55643203,11.4029942 C4.55666391,11.6195674 4.52559217,11.816539 4.44304335,11.9855425 C4.1562094,12.5159794 3.68758255,12.7234689 3.18533329,12.7234689" id="Fill-151" fill="#20244A"></path>
                    <path d="M3.60572937,12.6369352 C3.43854483,12.4708002 3.25999823,12.3168564 3.07217649,12.176299 C2.97919313,12.1067374 2.87739838,12.038132 2.7628503,12.0331121 C2.62534623,12.026897 2.49989986,12.1143868 2.4036702,12.2155021 C2.12703891,12.5054615 2.00831702,12.9307193 2.03335992,13.3366147 C2.0586347,13.74251 2.21608033,14.129999 2.42801746,14.473026 C2.64922974,14.8311127 2.94325193,15.1574067 3.32190984,15.3235417 C3.70079964,15.4896768 4.17406406,15.4681629 4.48802782,15.1939803" id="Fill-152" fill="#F5C097"></path>
                </g>
            </g>
        </g>
    </g>
</svg>
