<?xml version="1.0" encoding="UTF-8"?>
<svg width="260px" height="208px" viewBox="0 0 260 208" version="1.1" xmlns="http://www.w3.org/2000/svg" xmlns:xlink="http://www.w3.org/1999/xlink">
    <title>done</title>
    <defs>
        <polygon id="path-1" points="0 0.1672 5.7976 0.1672 5.7976 5.65253333 0 5.65253333"></polygon>
    </defs>
    <g id="Page-1" stroke="none" stroke-width="1" fill="none" fill-rule="evenodd">
        <g id="03-DIAN" transform="translate(-808.000000, -391.000000)">
            <g id="done" transform="translate(808.000000, 391.000000)">
                <path d="M260,200.5 C260,204.642453 203.140204,208 133,208 C62.8597961,208 6,204.642453 6,200.5 C6,196.358209 62.8597961,193 133,193 C203.140204,193 260,196.358209 260,200.5" id="Fill-1" fill="#F5F5F5"></path>
                <polygon id="Fill-3" fill="#FEBE9B" points="102 180.192461 97.734 183 90 173.807539 94.266 171"></polygon>
                <polygon id="Fill-5" fill="#000000" points="94.1350129 171 90 173.605724 93.8649871 178 98 175.394276"></polygon>
                <polygon id="Fill-7" fill="#FEBE9B" points="70 194.526402 65.0993201 195 60 183.473598 64.9006799 183"></polygon>
                <polygon id="Fill-9" fill="#000000" points="60 183.442961 62.7160451 189 68 189 65.0676083 183"></polygon>
                <path d="M33.8052408,39.4492316 C31.4247579,39.6676031 31.3643461,35.5976003 27.1882183,37.5149921 C21.8796902,39.9507731 23.6695511,43.72983 19.5281279,43.5691294 C15.3867048,43.4090767 12.6013342,46.6736323 13.5300053,49.1094133 C14.4580337,51.5451943 15.886709,53.8364743 12.9586637,54.8149338 C10.0306185,55.7933933 8.03124425,56.6571593 8.45991111,59.105252 C8.88793529,61.5526967 10.9592895,62.5395801 7.45990267,64.0979874 C3.96115848,65.6563948 4.31848797,72.4123013 7.7458948,72.4187812 C11.1733016,72.425261 7.88856952,75.7928465 10.9592895,79.209031 C14.0293669,82.6252154 18.7035709,83.1287009 20.6515307,81.4128328 C22.598848,79.6963168 24.7717455,78.3284174 28.4343728,80.9203631 C32.0963574,83.5123089 38.2949959,84.1602953 38.0167159,80.0565972 C37.7377932,75.9528992 34.1767092,73.2527397 37.5276372,71.1104966 C40.8792079,68.9689014 45.244926,67.9191634 43.8740918,63.7610345 C43.0084033,61.1366894 40.3837025,58.912152 42.5039003,56.9701367 C45.9409473,53.8228666 45.9582997,46.6943679 41.7442538,44.8877817 C39.2943616,43.8367477 41.6555641,38.7299667 33.8052408,39.4492316" id="Fill-11" fill="#263238"></path>
                <path d="M29,71.3128976 C28.8855657,73.223118 28.636541,74.9678762 28.3472042,76.7770165 C28.0435631,78.5694175 27.6462939,80.3476544 27.1755527,82.1181654 C26.7080624,83.8899641 26.1293888,85.6463111 25.4096229,87.3711107 C25.0572172,88.2351201 24.6560468,89.090116 24.2249675,89.9354545 C24.0097529,90.3578019 23.7789337,90.7762863 23.5390117,91.1921954 C23.4245774,91.4014376 23.289987,91.6055293 23.1657997,91.8115524 L22.9759428,92.1192994 C22.8686606,92.2783235 22.7230169,92.5049489 22.5507152,92.6884382 C22.2210663,93.0760192 21.7509753,93.4172449 21.2704811,93.6355007 C20.7808843,93.8634137 20.2971391,93.9535488 19.8647594,93.9883152 C18.9986996,94.0456154 18.3302991,93.8827284 17.7555267,93.7056773 C16.6105332,93.3329042 15.7308192,92.8332982 14.8959688,92.316309 C13.2457737,91.2700979 11.8205462,90.1170124 10.453186,88.9117772 C7.7496749,86.4729788 5.29583875,83.9073473 3,81.1389119 L4.82379714,79.4360022 C6.12093628,80.5691293 7.44603381,81.721571 8.78868661,82.8167125 C10.1183355,83.9298811 11.473342,85.0069956 12.8550065,86.0107144 C14.2256177,87.0182962 15.6215865,87.9956182 17.0182055,88.7321508 C17.7061118,89.0984857 18.4161248,89.4004383 18.9687906,89.5253398 C19.2405722,89.5935849 19.4590377,89.58264 19.4759428,89.5691197 C19.4817945,89.5620376 19.4395319,89.5652568 19.3459038,89.5961602 C19.2607282,89.6232008 19.1625488,89.7081853 19.1105332,89.7532528 C19.0975293,89.7725675 19.0871261,89.7783619 19.0786736,89.7848001 C19.0760728,89.7822248 19.0520156,89.82858 19.073472,89.7905945 L19.2158648,89.5304904 C19.3081925,89.3547269 19.4096229,89.1886208 19.496749,89.0070629 C19.6781534,88.6536045 19.8543563,88.2949956 20.0188557,87.9273731 C20.3485046,87.1921282 20.6579974,86.4420753 20.9297789,85.6675572 C21.4778934,84.1230278 21.9317295,82.5231296 22.3355007,80.9019853 C22.7340702,79.2782658 23.0448635,77.6229989 23.3140442,75.9593624 C23.5923277,74.313109 23.8010403,72.5818711 23.949935,71 L29,71.3128976 Z" id="Fill-13" fill="#FEBE9B"></path>
                <path d="M32.9628944,72.7580359 C32.6922703,74.2784678 31.3323842,77.1490683 30.2363566,79.2914951 C29.4380155,80.8370581 28.7885176,82 28.7885176,82 L27.8413333,81.6104679 L20,78.3685552 C20.595373,74.4418199 21.5628542,70.169532 26.2243543,68.2715052 C29.1538602,67.078406 33.4432522,70.0438764 32.9628944,72.7580359" id="Fill-15" fill="#407BFF"></path>
                <path d="M32.9628944,72.7580359 C32.6922703,74.2784678 31.3323842,77.1490683 30.2363566,79.2914951 C29.4380155,80.8370581 28.7885176,82 28.7885176,82 L27.8413333,81.6104679 L20,78.3685552 C20.595373,74.4418199 21.5628542,70.169532 26.2243543,68.2715052 C29.1538602,67.078406 33.4432522,70.0438764 32.9628944,72.7580359" id="Fill-17" fill="#E0ECFE"></path>
                <path d="M30,79.0374528 C29.3333333,80.7279808 28.7909605,82 28.7909605,82 L28,81.5732448 C28.1073446,79.8765319 28.3841808,77.2026114 29.1412429,76 C29.6101695,76.8734395 29.8700565,77.9447944 30,79.0374528" id="Fill-19" fill="#000000"></path>
                <path d="M5.38930793,81.9141328 L6,77 L1,78.8097786 C1,78.8097786 1.79793569,81.7835077 3.57708085,83 L5.38930793,81.9141328 Z" id="Fill-21" fill="#FEBE9B"></path>
                <g id="Group-25" transform="translate(0.000000, 73.000000)">
                    <mask id="mask-2" fill="white">
                        <use xlink:href="#path-1"></use>
                    </mask>
                    <g id="Clip-24"></g>
                    <polygon id="Fill-23" fill="#FEBE9B" mask="url(#mask-2)" points="3.5116 0.1672 -0.0004 2.09253333 0.7596 5.65253333 5.7976 3.99853333"></polygon>
                </g>
                <path d="M96.5209564,181.284942 L101.127092,178.076553 C101.294792,177.960013 101.514195,177.978041 101.654719,178.120336 L104.792645,181.2946 C105.118766,181.623616 105.04983,182.197945 104.658749,182.460643 C103.033444,183.551998 102.191627,184.000129 100.166624,185.410841 C98.9204685,186.279418 96.2949251,188.377136 94.57417,189.576017 C92.8911973,190.748498 91.5416375,189.185833 92.1474811,188.536815 C94.8644977,185.627181 95.5863399,183.644071 96.0165286,182.007361 C96.0940819,181.711826 96.2757024,181.456211 96.5209564,181.284942" id="Fill-26" fill="#263238"></path>
                <path d="M65.0825334,193 L71.1669967,193 C71.3887033,193 71.5881718,193.150328 71.6481471,193.360393 L72.9709737,198.049445 C73.1084453,198.536534 72.7405067,198.98358 72.2283579,198.988175 C70.0840714,199.006556 69.0678602,198.998022 66.3918824,198.998022 L58.2136736,198.998022 C55.9905432,198.998022 55.525566,196.808091 56.4454123,196.609841 C60.5702323,195.721002 62.9483551,194.49409 64.2213146,193.324288 C64.4504339,193.113567 64.7590709,193 65.0825334,193" id="Fill-28" fill="#263238"></path>
                <path d="M56,89.8974172 C52.2552577,91.0760276 44.298503,93.5773008 36.6049991,96 C23.1792096,69.5598399 25.094359,68.1586031 25.094359,68.1586031 C25.094359,68.1586031 28.1941369,66.3972354 31.4189589,64.9305202 C31.9059728,64.7078938 32.399568,64.4918152 32.8865819,64.2888323 C35.6770401,63.1233176 38.3819419,62.3834121 41.6923204,61.51255 C42.1332654,61.394689 42.5742105,61.2905784 43.0151555,61.1851582 C46.7862229,60.3208439 50.2742956,60 50.2742956,60 C50.5638715,63.6602401 50.8534473,66.7573663 51.1693483,69.4491815 C51.577387,72.9581666 52.018332,75.7671881 52.5119272,78.1964351 C53.4398862,82.7144416 54.5521207,85.922881 56,89.8974172" id="Fill-30" fill="#E0ECFE"></path>
                <path d="M56,89.8974172 C52.2552577,91.0760276 44.298503,93.5773008 36.6049991,96 C23.1792096,69.5598399 25.094359,68.1586031 25.094359,68.1586031 C25.094359,68.1586031 28.1941369,66.3972354 31.4189589,64.9305202 C31.9059728,64.7078938 32.399568,64.4918152 32.8865819,64.2888323 C35.6770401,63.1233176 38.3819419,62.3834121 41.6923204,61.51255 C42.1332654,61.394689 42.5742105,61.2905784 43.0151555,61.1851582 C46.7862229,60.3208439 50.2742956,60 50.2742956,60 C50.5638715,63.6602401 50.8534473,66.7573663 51.1693483,69.4491815 C51.577387,72.9581666 52.018332,75.7671881 52.5119272,78.1964351 C53.4398862,82.7144416 54.5521207,85.922881 56,89.8974172" id="Fill-32" fill="#E0ECFE"></path>
                <path d="M52,79 C50.2854105,76.3678571 48.6435244,70.285119 49.0676279,68 L50.7640415,70.2530357 C51.1396759,73.7619048 51.5456035,76.5708333 52,79" id="Fill-34" fill="#000000"></path>
                <path d="M37,72.9686394 C37,72.9686394 41.9889771,71.9417519 43.5915947,74 C45.7905818,71.9417519 45.0151,63.8755407 43.9525022,61 C43.1139623,61.070291 41.4885365,61.6658474 41.4885365,61.6658474 L37.9693522,66.8520448 L37,72.9686394 Z" id="Fill-36" fill="#FFFFFF"></path>
                <path d="M37,72.651836 C37,72.651836 33.922784,73.3735728 33.6167151,76 C29.3464428,72.651836 29.6310868,67.7424819 30.6001007,64.8478156 C31.2979377,64.4013937 32.9029626,64 32.9029626,64 L36.1154611,67.7141785 L37,72.651836 Z" id="Fill-38" fill="#FFFFFF"></path>
                <path d="M38.2615494,56.1993442 C38.9436645,58.5571285 40.0603068,60.8905529 41.8105455,61.6610958 C41.8105455,61.6610958 43.4580389,65.902287 37.0364537,73 C30.315908,68.697909 32.2616483,64.3753043 32.2616483,64.3753043 C35.4289169,62.6662633 34.5363165,60.4072007 33.1842161,58.4321236 L35.0479028,55.7480445 C35.8727197,54.5595365 37.8698327,54.844163 38.2615494,56.1993442" id="Fill-40" fill="#FEBE9B"></path>
                <path d="M38.2224063,56.1295707 C37.8911309,54.8522433 36.2046379,54.5851492 35.5059479,55.7062175 L35,56.5177959 L35,56.5232468 C35.0421623,57.0622802 35.0662551,57.5050144 35.0602319,57.7345578 C35.0120464,59.3092622 37.2105105,59.2365835 39,58.4795141 C38.6861918,57.7466709 38.4271947,56.9417548 38.2224063,56.1295707" id="Fill-42" fill="#000000"></path>
                <path d="M26.4382883,49.9237519 C28.1800545,54.4605623 28.8156817,56.4153233 32.0065705,58.0919289 C36.8063278,60.6151499 42.2739299,57.5842153 41.9893407,52.6439198 C41.7342844,48.1972702 38.9279937,41.5260169 33.6060422,41.0336499 C28.3626211,40.5489561 24.6965221,45.387581 26.4382883,49.9237519" id="Fill-44" fill="#FEBE9B"></path>
                <path d="M34.4072458,44.4178323 C35.685294,44.0340294 36.9192715,43.6561615 37.8256794,43.501849 C37.4270704,44.0162241 36.2536077,44.827354 34.4072458,44.4178323 M38.549227,43.0448466 C36.9482134,41.4931485 35.2741874,39.6934953 32.0392718,40.0443255 C28.472182,40.4320851 27.0658686,42.5944387 27.0658686,42.5944387 L24,49.3149465 C24,49.3149465 25.9022725,57.9669986 29.0411536,53.9238788 C30.846076,51.5986398 30.920404,48.0718735 30.2159318,45.4320744 C31.2190319,45.3364534 32.5325997,44.9757314 33.847483,44.5853339 C35.292605,45.1274061 36.9186138,45.1300439 38.1229917,44.0195213 C38.3854421,43.7775013 38.5788267,43.5862593 38.7163007,43.4359035 L38.8248329,43.3086287 C39.2023932,42.8522857 38.9037653,42.9017448 38.549227,43.0448466" id="Fill-46" fill="#263238"></path>
                <path d="M27.2576209,54.3836676 C27.768528,55.2207886 28.6402672,55.7578796 29.4545865,55.9504915 C30.6799804,56.2418787 31.2587474,55.1973295 30.8900853,54.1200609 C30.5586156,53.1502106 29.5217939,51.8303251 28.305535,52.0179982 C27.107546,52.2025846 26.6736339,53.4261642 27.2576209,54.3836676" id="Fill-48" fill="#FEBE9B"></path>
                <path d="M36.0294299,96.4451602 C36.0294299,96.4451602 35.3476916,135.765427 40.5466019,149.97067 C45.5311579,163.588693 60.3891205,187 60.3891205,187 L69,186.779955 C69,186.779955 55.3206582,157.139044 53.0761658,145.413534 C49.3554478,125.966284 50.1761558,92 50.1761558,92 L36.0294299,96.4451602 Z" id="Fill-50" fill="#65627D"></path>
                <path d="M44,99.9371121 L46.3355388,93.3107158 L50.4706994,92 C50.4706994,92 50.0935728,107.70873 51,124 C47.2512288,116.797683 43.9993385,103.55813 44,99.9371121" id="Fill-52" fill="#000000"></path>
                <polygon id="Fill-54" fill="#263238" points="59.5623928 187 70 186.769957 69.396012 184 58 184.466197"></polygon>
                <path d="M40,94.825469 C40,94.825469 53.4468874,125.509563 62.1413689,142.970891 C69.1633553,157.075001 91.0127429,176 91.0127429,176 L97,171.855658 C97,171.855658 80.5624367,149.443236 75.7135786,139.878011 C60.1952643,109.26589 64.0212036,96.6516228 55.0964177,90 L40,94.825469 Z" id="Fill-56" fill="#65627D"></path>
                <polygon id="Fill-58" fill="#263238" points="91.4567328 178 99 173.043132 97.2869002 170 89 175.791893"></polygon>
                <path d="M55.5835901,89.0674993 L56.9591545,90.4639108 C57.0659451,90.5721988 56.9534336,90.7516295 56.7366741,90.8189947 L37.0903854,96.9763005 C36.9213003,97.0291853 36.7553935,96.9907809 36.7108974,96.8887887 L36.0110377,95.2808379 C35.9627277,95.169402 36.0777818,95.026487 36.2627584,94.9685655 L55.2339781,89.0240582 C55.3731872,88.9799875 55.514939,88.9976158 55.5835901,89.0674993" id="Fill-60" fill="#263238"></path>
                <path d="M52.9553164,65 C53.7054831,65.5876864 54.3359758,66.132035 54.9922929,66.7249745 C55.6372724,67.3113477 56.2715443,67.9075703 56.8919592,68.5182388 C58.1220813,69.7527086 59.3024443,71.0423355 60.4229703,72.398939 C61.549165,73.7502894 62.5991464,75.1784659 63.565356,76.6854383 C63.8154115,77.0524961 64.0358635,77.4504156 64.2714322,77.8319193 C64.5057412,78.2140796 64.7356411,78.6008363 64.9453854,79.0053222 C65.1620582,79.4150611 65.3711727,79.7781791 65.5928844,80.2266593 L65.9267117,80.9561784 L66.1975528,81.6916072 C66.8519802,83.6647889 67.0006279,85.6077655 67,87.4693197 C66.9640958,89.3321871 66.7700981,91.1366142 66.4400499,92.8931071 C66.113781,94.6489433 65.6879937,96.3620985 65.1985903,98.0457051 C64.6732847,99.7273418 64.1284533,101.357105 63.4211174,103 L61.1435333,102.123395 C61.5340483,100.546163 61.9069271,98.890135 62.1853265,97.2590589 C62.4870308,95.6266697 62.7232293,93.9877141 62.8605394,92.3605778 C62.9947002,90.7340983 63.0614657,89.121408 62.9638369,87.5658447 C62.9140778,86.7923312 62.8290463,86.0332636 62.6967751,85.3076843 C62.5563157,84.5867015 62.3585388,83.9051166 62.1235999,83.2826286 L61.9340112,82.8295519 L61.7160787,82.4132467 C61.549165,82.1111956 61.3167456,81.7520174 61.1214881,81.4243576 C60.9243411,81.0861917 60.7051488,80.7578753 60.4802878,80.432842 C60.2535371,80.1084654 60.0482019,79.7742393 59.8063345,79.4583989 C58.8873647,78.1681153 57.8525,76.9513746 56.8157458,75.7366038 C55.7689137,74.5283994 54.6490176,73.377322 53.4982582,72.263016 C52.9288622,71.6989684 52.3462391,71.1493667 51.7566875,70.6115844 C51.1715449,70.0889046 50.5460911,69.5333932 50,69.0763768 L52.9553164,65 Z" id="Fill-62" fill="#FEBE9B"></path>
                <path d="M61.8271898,101 L58,103.604868 L62.9200737,106 C62.9200737,106 64.377718,103.602926 63.906045,101.60202 L61.8271898,101 Z" id="Fill-64" fill="#FEBE9B"></path>
                <polygon id="Fill-66" fill="#FEBE9B" points="58 107.709497 61.9225513 109 64 105.695409 59.1876993 103"></polygon>
                <path d="M49.8156193,61.0015092 C52.2384579,60.8907011 57,66.9185319 57,66.9185319 L52.0562706,74 C52.0562706,74 46.5008218,69.5286063 46.0706572,66.3971575 C45.7050174,63.7384044 46.7298212,61.1424212 49.8156193,61.0015092" id="Fill-68" fill="#407BFF"></path>
                <path d="M49.8156193,61.0015092 C52.2384579,60.8907011 57,66.9185319 57,66.9185319 L52.0562706,74 C52.0562706,74 46.5008218,69.5286063 46.0706572,66.3971575 C45.7050174,63.7384044 46.7298212,61.1424212 49.8156193,61.0015092" id="Fill-70" fill="#E0ECFE"></path>
                <path d="M96.6806091,182.348452 C96.1049338,182.425854 95.3405126,182.654461 95.2062932,183.053173 C95.1895158,183.103574 95.1748355,183.176476 95.2120604,183.29978 C95.2812673,183.526586 95.3709216,183.64719 95.4867907,183.67149 C95.7583752,183.727292 96.1972097,183.235878 96.6806091,182.348452 M95.5292586,184 C95.5072382,184 95.4857421,183.9973 95.4647703,183.9937 C95.2849373,183.956799 95.1433779,183.774093 95.0448105,183.450084 C94.9703607,183.204377 95.0023426,183.009971 95.0427133,182.891168 C95.2975204,182.134246 96.7382815,182.011842 96.9013371,182.000142 C96.9396106,181.997442 96.974214,182.033443 96.9904671,182.092845 C97.0072446,182.150446 97.0014773,182.219748 96.9763112,182.26925 C96.6428599,182.928069 96.0231439,184 95.5292586,184" id="Fill-72" fill="#407BFF"></path>
                <path d="M95.5183236,180.318772 C95.4294649,180.318772 95.3532185,180.36562 95.2867178,180.459316 C95.1886866,180.598092 95.199579,180.697092 95.2202171,180.767806 C95.3463391,181.196511 96.1603991,181.63759 96.6901114,181.680019 C96.4269751,181.177948 95.9368192,180.38153 95.5613197,180.322307 C95.5464144,180.319655 95.5320823,180.318772 95.5183236,180.318772 M96.7921555,182 C96.2618699,182 95.2236568,181.551849 95.0316074,180.898627 C94.9926243,180.764271 94.9547877,180.496441 95.1468371,180.225075 C95.2683728,180.051826 95.4145596,179.977576 95.5825311,180.005862 C96.2125677,180.104861 96.949808,181.673831 96.9807652,181.740126 C97.0019766,181.78609 97.0059896,181.847081 96.9910842,181.898348 C96.9756056,181.9505 96.9440751,181.985857 96.9073851,181.992045 C96.8729882,181.997348 96.8340051,182 96.7921555,182" id="Fill-74" fill="#407BFF"></path>
                <path d="M61.4862848,193.367504 C61.3906834,193.367504 61.3149473,193.391604 61.2665258,193.447138 C61.2429358,193.474381 61.2199666,193.516294 61.2243122,193.627362 C61.2330032,193.894555 61.2969444,194.099927 61.4198605,194.257099 C61.7482575,194.676225 62.5230013,194.731759 63.526816,194.418463 C62.837741,193.913416 61.9363564,193.367504 61.4862848,193.367504 M62.3789784,195 C61.946289,195 61.5421558,194.886836 61.2845286,194.557822 C61.1088455,194.33359 61.0132441,194.027628 61.0008284,193.649366 C60.9908957,193.367504 61.072219,193.214523 61.1411265,193.134889 C61.6501729,192.5544 63.5578555,194.01715 63.9359155,194.315777 C63.9793707,194.350355 64.0048231,194.427893 63.999236,194.508575 C63.9942697,194.588209 63.9588847,194.654221 63.9123256,194.670986 C63.5057092,194.823967 62.9196851,195 62.3789784,195" id="Fill-76" fill="#407BFF"></path>
                <path d="M62.4897851,192.211248 C62.464257,192.211248 62.4393516,192.213004 62.4138236,192.215931 C62.2961455,192.228808 62.2326367,192.261586 62.2251651,192.313095 C62.1834485,192.602245 63.0682133,193.364338 63.7145087,193.697973 C63.5669442,193.237322 63.1628538,192.211248 62.4897851,192.211248 M63.8876014,194 C63.8732807,194 63.8589601,193.997073 63.8452622,193.991805 C63.2107968,193.747725 61.9312812,192.783696 62.0028842,192.284999 C62.0184501,192.175543 62.0981475,192.038577 62.3870502,192.005799 C63.5053033,191.88171 63.9772608,193.789283 63.9971852,193.870643 C64.0065247,193.908689 63.9922041,193.949077 63.9604497,193.974831 C63.9399027,193.99122 63.913752,194 63.8876014,194" id="Fill-78" fill="#407BFF"></path>
                <path d="M157.808335,0 L62.4996715,0 C58.1707683,0 54.8006375,3.54045229 55.0091803,7.86767176 L63.9430764,193.132328 C64.1516192,197.459548 67.8634193,201 72.1916667,201 L167.500986,201 C171.828578,201 175.199364,197.459548 174.990821,193.132328 L166.056925,7.86767176 C165.848382,3.54045229 162.136582,0 157.808335,0" id="Fill-80" fill="#000000"></path>
                <path d="M161.808286,0 L66.4996664,0 C62.171421,0 58.8006359,3.54045229 59.0091786,7.86767176 L67.9430707,193.132328 C68.1516134,197.459548 71.8640676,201 76.192313,201 L171.500933,201 C175.829178,201 179.199964,197.459548 178.990765,193.132328 L170.057529,7.86767176 C169.84833,3.54045229 166.136532,0 161.808286,0" id="Fill-82" fill="#263238"></path>
                <path d="M75.633738,195 C74.2183989,195 72.964962,193.802083 72.8964146,192.38446 L64.0028883,7.61553975 C63.9349938,6.1979172 65.0728795,5 66.4882186,5 L161.366862,5 C162.782201,5 164.035638,6.1979172 164.104185,7.61553975 L172.997059,192.38446 C173.065606,193.802083 171.927068,195 170.511729,195 L75.633738,195 Z" id="Fill-84" fill="#29BF94"></path>
                <path d="M150.744181,24 L86,24 L92.311192,155.005281 C92.8437213,166.048137 102.220555,175 113.255819,175 L178,175 L171.688808,43.9947193 C171.156933,32.9518628 161.779445,24 150.744181,24" id="Fill-86" fill-opacity="0.2" fill="#000000"></path>
                <path d="M167.069528,24 L106.847287,24 L87,24 C97.9607818,24 107.275529,32.9752605 107.803846,44.0455142 L112.907007,150.954486 C113.435324,162.024739 122.749421,171 133.710853,171 L174.086456,171 C185.047887,171 193.504851,162.024739 192.976535,150.954486 L187.873374,44.0455142 C187.345057,32.9752605 178.030959,24 167.069528,24" id="Fill-88" fill="#FAFAFA"></path>
                <path d="M151.084683,151 C151.618424,162.045118 143.073974,171 132,171 L152.051719,171 L212.891613,171 C223.965587,171 232.510036,162.045118 231.976295,151 L151.084683,151 Z" id="Fill-90" fill="#E6E6E6"></path>
                <path d="M177.583255,90 L120.560145,90 C119.742302,90 119.041668,89.3253304 119.001725,88.5 C118.962438,87.6746696 119.598902,87 120.416745,87 L177.439855,87 C178.257698,87 178.958987,87.6746696 178.998275,88.5 C179.037562,89.3253304 178.401098,90 177.583255,90" id="Fill-92" fill="#29BF94"></path>
                <path d="M178.583895,100 L121.559508,100 C120.74231,100 120.041014,99.3251818 120.001726,98.4996695 C119.962437,97.6748182 120.598908,97 121.416105,97 L178.440492,97 C179.25769,97 179.958986,97.6748182 179.998274,98.4996695 C180.037563,99.3251818 179.401092,100 178.583895,100" id="Fill-94" fill="#29BF94"></path>
                <path d="M178.58384,109 L121.560161,109 C120.74231,109 120.041014,108.32533 120.001725,107.499339 C119.962437,106.67467 120.598907,106 121.416759,106 L178.440437,106 C179.257634,106 179.95893,106.67467 179.998218,107.499339 C180.038161,108.32533 179.401691,109 178.58384,109" id="Fill-96" fill="#29BF94"></path>
                <path d="M179.583255,118 L122.560145,118 C121.742302,118 121.041668,117.32533 121.001725,116.5 C120.962438,115.67467 121.598902,115 122.416745,115 L179.439855,115 C180.257698,115 180.958987,115.67467 180.998275,116.5 C181.037562,117.32533 180.401098,118 179.583255,118" id="Fill-98" fill="#29BF94"></path>
                <path d="M156.595766,128 L122.545774,128 C121.735802,128 121.040706,127.325182 121.001765,126.49967 C120.962175,125.674818 121.593667,125 122.40364,125 L156.453631,125 C157.264252,125 157.9587,125.674818 157.99829,126.49967 C158.037231,127.325182 157.406387,128 156.595766,128" id="Fill-100" fill="#29BF94"></path>
                <path d="M165.978759,58.000329 C166.457176,67.9413689 158.79593,76 148.866803,76 C138.937675,76 130.500315,67.9413689 130.021241,58.000329 C129.542824,48.059289 137.20407,40 147.133197,40 C157.062325,40 165.499685,48.059289 165.978759,58.000329" id="Fill-102" fill="#6ED5B8"></path>
                <path d="M161.98289,58.5003211 C162.103479,61.004274 161.581996,63.3560245 160.565326,65.4072237 C158.3402,69.9264123 153.703933,73 148.198526,73 C142.692477,73 137.760509,69.9264123 135.099851,65.4072237 C133.885621,63.3560245 133.137712,61.004274 133.017123,58.5003211 C132.631622,50.4901123 138.802194,44 146.802129,44 C154.802064,44 161.59739,50.4901123 161.98289,58.5003211" id="Fill-104" fill="#FFFFFF"></path>
                <path d="M161,65.0464178 C158.728168,69.7803565 153.994585,73 148.373618,73 C142.751996,73 137.716506,69.7803565 135,65.0464178 C138.603234,62.4920955 143.000202,61 147.810408,61 C152.619959,61 157.157074,62.4920955 161,65.0464178" id="Fill-106" fill="#6ED5B8"></path>
                <path d="M153.99231,52.5 C154.165301,56.0899284 151.398731,59 147.813035,59 C144.227338,59 141.180626,56.0899284 141.007634,52.5 C140.835289,48.9100716 143.601858,46 147.187555,46 C150.772606,46 153.819318,48.9100716 153.99231,52.5" id="Fill-108" fill="#6ED5B8"></path>
            </g>
        </g>
    </g>
</svg>
