<?xml version="1.0" encoding="UTF-8"?>
<svg width="253px" height="57px" viewBox="0 0 253 57" version="1.1" xmlns="http://www.w3.org/2000/svg" xmlns:xlink="http://www.w3.org/1999/xlink">
    <!-- Generator: Sketch 53.1 (72631) - https://sketchapp.com -->
    <title>Group 35</title>
    <desc>Created with Sketch.</desc>
    <defs>
        <polygon id="path-1" points="0 58 253.480236 58 253.480236 0.398886792 0 0.398886792"></polygon>
    </defs>
    <g id="LOGIN" stroke="none" stroke-width="1" fill="none" fill-rule="evenodd">
        <g id="03-recovery-msg" transform="translate(-810.000000, -216.000000)">
            <g id="Group-35" transform="translate(810.000000, 216.000000)">
                <polygon id="Fill-1" fill="#005858" points="24 1 43 1 43 7.79264077 31.9365752 7.79264077 31.9365752 40 24 40"></polygon>
                <g id="Group-34">
                    <path d="M71.158608,7.85161321 L63.9578417,7.85161321 L63.9578417,18.4240283 L71.158608,18.4240283 C74.511408,18.4240283 76.7113154,16.2304245 76.7113154,13.1378208 C76.7113154,10.0441226 74.511408,7.85161321 71.158608,7.85161321 L71.158608,7.85161321 Z M77.0957912,40.9220094 L69.4544017,24.9490283 L63.9578417,24.9490283 L63.9578417,40.9220094 L56.3191259,40.9220094 L56.3191259,0.876839623 L71.6543091,0.876839623 C79.6234922,0.876839623 84.3500312,6.44429245 84.3500312,13.1378208 C84.3500312,18.7621792 80.9972312,22.2498396 77.2048775,23.6555189 L85.9440817,40.9220094 L77.0957912,40.9220094 Z" id="Fill-2" fill="#005858"></path>
                    <mask id="mask-2" fill="white">
                        <use xlink:href="#path-1"></use>
                    </mask>
                    <g id="Clip-5"></g>
                    <polygon id="Fill-4" fill="#005858" mask="url(#mask-2)" points="98.6038695 40.922283 106.242585 40.922283 106.242585 0.876566038 98.6038695 0.876566038"></polygon>
                    <path d="M138.405402,24.1058396 L130.43408,24.1058396 L130.43408,33.9466887 L138.405402,33.9466887 C141.867288,33.9466887 143.515882,31.6978208 143.515882,28.9986321 C143.515882,26.2999906 141.867288,24.1058396 138.405402,24.1058396 M137.909701,7.85161321 L130.43408,7.85161321 L130.43408,17.0752547 L137.909701,17.0752547 C141.15288,17.0752547 142.966173,15.2198019 142.966173,12.4637075 C142.966173,9.70761321 141.15288,7.85161321 137.909701,7.85161321 M139.173819,40.9220094 L122.795364,40.9220094 L122.795364,0.876839623 L138.514488,0.876839623 C146.155343,0.876839623 150.607027,5.26459434 150.607027,12.1255566 C150.607027,16.5685755 147.748324,19.4368396 145.769263,20.3943868 C148.133869,21.5182736 151.156737,24.048934 151.156737,29.3920472 C151.156737,36.8724057 146.155343,40.9220094 139.173819,40.9220094" id="Fill-6" fill="#005858" mask="url(#mask-2)"></path>
                    <path d="M178.735201,41.2599415 C170.709871,41.2599415 164.333134,35.6908472 164.333134,27.1982245 L164.333134,0.876620755 L171.973989,0.876620755 L171.973989,26.9169792 C171.973989,31.5290736 174.611845,34.2851679 178.735201,34.2851679 C182.855883,34.2851679 185.549353,31.5290736 185.549353,26.9169792 L185.549353,0.876620755 L193.134595,0.876620755 L193.134595,27.1982245 C193.134595,35.6908472 186.758393,41.2599415 178.735201,41.2599415" id="Fill-7" fill="#005858" mask="url(#mask-2)"></path>
                    <polygon id="Fill-8" fill="#005858" mask="url(#mask-2)" points="223.668229 7.85161321 223.668229 40.9220094 216.029513 40.9220094 216.029513 7.85161321 205.80481 7.85161321 205.80481 0.876839623 233.892932 0.876839623 233.892932 7.85161321"></polygon>
                    <polygon id="Fill-9" fill="#005858" mask="url(#mask-2)" points="245.355444 40.922283 252.994695 40.922283 252.994695 0.876566038 245.355444 0.876566038"></polygon>
                    <path d="M17.2206653,8.58952642 C15.5276884,6.70452642 13.4144084,5.90511132 11.11504,5.99484717 C9.07501895,6.07090377 7.10504842,6.84460189 5.86018105,8.45328113 L2.12237053,5.4252434 C4.23458105,2.69431887 6.94302316,0.651186792 10.8594358,0.418639623 C15.1469558,0.16475283 18.1179537,2.37750755 20.7317474,5.28845094 L17.2206653,8.58952642 Z" id="Fill-10" fill="#005858" mask="url(#mask-2)"></path>
                    <path d="M25.3216076,51.0309717 C16.1022097,51.0309717 8.25173811,44.880783 5.66254232,36.1900849 L-0.000320842105,36.1900849 C2.74180968,48.0631226 13.0686476,56.648217 25.3216076,56.648217 C31.3892665,56.648217 37.2109465,54.4453113 41.8423023,50.554934 L37.9440707,46.5677075 C34.3591949,49.4233868 29.9283655,51.0309717 25.3216076,51.0309717" id="Fill-11" fill="#00EFAB" mask="url(#mask-2)"></path>
                </g>
            </g>
        </g>
    </g>
</svg>