<?xml version="1.0" encoding="UTF-8"?>
<svg width="431px" height="405px" viewBox="0 0 431 405" version="1.1" xmlns="http://www.w3.org/2000/svg" xmlns:xlink="http://www.w3.org/1999/xlink">
    <!-- Generator: Sketch 53.2 (72643) - https://sketchapp.com -->
    <title>pago-pendiente</title>
    <desc>Created with Sketch.</desc>
    <defs>
        <linearGradient x1="50%" y1="100%" x2="50%" y2="-3.43494416e-15%" id="linearGradient-1">
            <stop stop-color="#808080" stop-opacity="0.25" offset="0%"></stop>
            <stop stop-color="#808080" stop-opacity="0.12" offset="54%"></stop>
            <stop stop-color="#808080" stop-opacity="0.1" offset="100%"></stop>
        </linearGradient>
    </defs>
    <g id="PAGOS" stroke="none" stroke-width="1" fill="none" fill-rule="evenodd">
        <g id="pago-pendiente" transform="translate(-45.000000, -75.000000)" fill-rule="nonzero">
            <g id="Group-2-Copy" fill="#38D39F" opacity="0.1">
                <path d="M179.154387,129.095285 C192.972225,111.426304 214.663383,107.827334 234.405091,109.232206 C296.414706,113.646806 352.387761,156.555434 400.803544,205.093704 C418.330784,222.665748 435.58654,241.618838 446.973376,265.80117 C470.13471,315.06148 463.257503,383.307716 431.049992,423.889855 C420.090908,437.700792 406.80572,448.284464 393.168135,457.672267 C368.920797,474.356134 342.763272,487.747663 315.238738,491.562141 C295.6131,494.280332 275.762176,492.064863 256.235616,488.283208 C201.72691,477.688559 148.223504,454.264295 103.377729,414.167099 C83.7004288,396.585175 65.1618581,374.724997 57.0567637,346.264283 C48.9516694,317.803569 54.1421576,281.771425 74.2268454,264.93269 C82.5349551,257.967008 92.4641949,254.824077 102.188992,251.866296 C116.503018,247.522209 131.042621,243.23315 143.961137,234.3958 C157.302633,225.268209 173.097821,207.614122 170.459031,187.409231 C167.626468,165.748268 165.354176,146.709223 179.154387,129.095285 Z" id="Path" transform="translate(257.022649, 300.862842) rotate(160.000000) translate(-257.022649, -300.862842) "></path>
                <path d="M214.752628,107.748609 C228.572228,90.0807277 250.265387,86.4813835 270.008768,87.8855084 C332.023638,92.2977608 388.000204,135.200883 436.418663,183.733398 C453.946871,201.303358 471.203529,220.254252 482.59059,244.434121 C505.75238,293.689412 498.872414,361.929929 466.660816,402.509557 C455.700342,416.319641 442.413663,426.902813 428.774594,436.290231 C404.524618,452.973415 378.364394,466.364607 350.837345,470.179625 C331.209913,472.898201 311.357332,470.683553 291.829193,466.902845 C237.31608,456.310844 183.808761,432.890313 138.960354,392.798025 C119.281898,375.218254 100.742407,353.360565 92.6375084,324.902583 C84.5326098,296.444601 89.7246903,260.415427 109.811658,243.577521 C118.120711,236.612182 128.050915,233.46921 137.776651,230.511378 C152.09206,226.167216 166.633064,221.87807 179.552983,213.041079 C192.895929,203.91386 208.69305,186.260808 206.05467,166.057758 C203.222547,144.398769 200.950659,125.361453 214.752628,107.748609 Z" id="Path" transform="translate(292.621463, 279.498602) rotate(130.000000) translate(-292.621463, -279.498602) "></path>
            </g>
            <g id="Group-2-Copy-2" transform="translate(174.000000, 75.000000)">
                <circle id="Oval" fill="url(#linearGradient-1)" cx="124" cy="124" r="124"></circle>
                <circle id="Oval" fill="#1FBE92" cx="124" cy="124" r="122"></circle>
                <circle id="Oval" fill="#DDE1EC" cx="124" cy="124" r="97"></circle>
                <rect id="Rectangle" fill="#535461" opacity="0.3" x="122" y="44" width="5" height="86"></rect>
                <g id="Group" opacity="0.1" transform="translate(72.000000, 96.000000)" fill="#000000">
                    <rect id="Rectangle" x="57.7389873" y="26.3533621" width="77.2405063" height="6.72413793"></rect>
                    <polygon id="Rectangle" transform="translate(25.921081, 16.693042) rotate(-62.360000) translate(-25.921081, -16.693042) " points="22.3634664 -10.6643323 29.1115591 -10.618589 29.4786952 44.0504162 22.7306026 44.0046729"></polygon>
                    <ellipse id="Oval" cx="51.9288608" cy="29.715431" rx="10.2531646" ry="10.0862069"></ellipse>
                </g>
                <rect id="Rectangle" fill="#535461" x="130" y="121" width="77" height="7"></rect>
                <polygon id="Rectangle" fill="#535461" transform="translate(97.956204, 110.740099) rotate(27.640000) translate(-97.956204, -110.740099) " points="70.4638284 107.314684 125.44858 107.314684 125.44858 114.165513 70.4638284 114.165513"></polygon>
                <circle id="Oval" fill="#535461" cx="124.5" cy="124.5" r="10.5"></circle>
                <g id="Group" opacity="0.1" transform="translate(27.000000, 27.000000)" fill="#000000">
                    <path d="M7.86934334,109.065991 C7.86934334,55.3593833 51.370469,11.8237004 105.034447,11.8237004 C135.572739,11.796656 164.341271,26.1617953 182.684128,50.5969163 C166.148893,20.5239648 134.218311,0.140881057 97.4809756,0.140881057 C43.8169981,0.140881057 0.31587242,43.6765639 0.31587242,97.3831718 C0.284309714,118.481543 7.1406623,139.012645 19.8415947,155.852247 C11.9650654,141.519675 7.84611498,125.423265 7.86934334,109.065991 Z" id="Path"></path>
                </g>
                <path d="M195,78 C195,78 193.439212,81.0402802 194.217468,82" id="Path" fill="#000000" opacity="0.05"></path>
                <path d="M145.8607,77 C145.8607,77 146.487551,80.0402802 145.8607,81" id="Path" fill="#000000" opacity="0.05"></path>
            </g>
            <g id="Group-Copy" transform="translate(129.000000, 132.000000)">
                <path d="M111.084034,69.4 C111.084034,69.4 112.344538,78.4 109.193277,82 C106.042017,85.6 101,109.6 101,109.6 L101,124 C101,124 120.537815,97 124.319328,86.2 C128.10084,75.4 124.319328,67 124.319328,67 L111.084034,69.4 Z" id="Path" fill="#FFC1C7"></path>
                <path d="M108.801122,119.973495 C109.620353,119.17101 110.360452,118.292064 111.011251,117.348734 C111.711153,116.185392 112.269026,114.94286 112.673003,113.647572 L117.492082,100.026964 C118.256488,97.8741629 119.020894,95.7130817 119.98471,93.6265205 C120.981761,91.3577993 122.161604,89.188438 123.250052,86.9611168 C126.048012,81.2223214 128.212657,75.1978383 129.705956,68.9935066 C129.969724,68.1393944 130.057339,67.2409261 129.963528,66.3521851 C129.730883,64.9280243 128.642435,63.8102237 127.603841,62.7917831 C126.55959,61.6650713 125.369259,60.6821313 124.06431,59.8689415 C122.737879,59.0566391 121.142709,58.800628 119.627433,59.1568611 C117.500391,59.7861414 116.162681,61.9472227 115.672465,64.1248639 C115.182248,66.3025051 115.365041,68.5298264 115.157322,70.7488676 C114.858206,73.9283894 113.76145,76.9919911 113.49557,80.1797929 C113.354321,82.026234 113.49557,83.897515 113.271234,85.7356761 C112.862209,88.1468905 112.017661,90.4641662 110.778606,92.5749599 C108.094957,97.6159943 104.458163,102.092132 100.068617,105.756727 C98.8642735,106.642659 97.7805956,107.680837 96.8448195,108.845169 C96.0646868,110.010396 95.5356254,111.324243 95.2910818,112.703651 C94.7385389,114.807419 94.9779396,117.039983 95.9640911,118.979895 C97.3184186,121.273456 99.9190598,122.291897 102.403378,122.805257 C105.726881,123.492497 106.499596,122.316737 108.801122,119.973495 Z" id="Path" fill="#FFC1C7"></path>
                <path d="M95.5819784,62 L95.8351637,62.2878056 C98.9291792,65.8035941 101.357343,69.8640402 102.998647,74.2667896 C106.931959,84.8204881 115.386611,110.835612 112.35795,113.458717 C108.163957,117.091097 96.1811202,119.512684 95.5819784,118.907287 C94.9828365,118.301891 83,80.7672969 83,80.7672969 L95.5819784,62 Z" id="Path" fill="#3F3D56"></path>
                <path d="M75.4271837,318.569309 C75.4271837,318.569309 90.1263571,321.663369 90.7388226,318.569309 C91.1305064,316.645816 91.7473071,314.77624 92.5762193,313 C92.5762193,313 105.899085,313.560873 102.420733,325.362009 C102.071942,326.524969 101.310544,327.51692 100.28253,328.147666 C97.1096404,330.109473 89.6357109,334.736201 85.8390982,337.133671 C82.985468,338.935652 78.8853603,337.589185 75.9586262,336.150379 C73.8014518,335.08234 72.6290725,332.678281 73.1052472,330.299294 L75.4271837,318.569309 Z" id="Path" fill="#3F3D56"></path>
                <path d="M34.4519294,321.569307 C34.4519294,321.569307 19.8172087,324.663366 19.2074287,321.569307 C18.8174623,319.645815 18.2033662,317.776239 17.3780886,316 C17.3780886,316 4.13915437,316.55979 7.5667706,328.327969 C7.91904361,329.513259 8.69132738,330.524194 9.73467276,331.165797 C12.910023,333.137746 20.3172649,337.743526 24.0856689,340.133662 C27.1969557,342.107022 31.7965081,340.304621 34.7203241,338.740023 C36.3886193,337.856231 37.2838718,335.962814 36.9193555,334.089176 L34.4519294,321.569307 Z" id="Path" fill="#3F3D56"></path>
                <path d="M23.9159664,106.461538 C23.9159664,106.461538 22.6554622,115.692308 25.8067227,119.384615 C28.9579832,123.076923 34,137.230769 34,137.230769 L34,152 C34,152 14.4621849,134.769231 10.6806723,123.692308 C6.89915966,112.615385 10.6806723,104 10.6806723,104 L23.9159664,106.461538 Z" id="Path" fill="#FFC1C7" transform="translate(21.500000, 128.000000) rotate(-24.000000) translate(-21.500000, -128.000000) "></path>
                <circle id="Oval" fill="#FFC1C7" cx="59" cy="25" r="15"></circle>
                <path d="M70.5830904,29.4893617 C70.5830904,29.4893617 66.319242,49.4042553 70.5830904,51.893617 C74.8469388,54.3829787 45,51.893617 45,51.893617 C45,51.893617 51.7003332,35.0904255 48.6547272,29.4893617 C45.6091212,23.8882979 70.5830904,29.4893617 70.5830904,29.4893617 Z" id="Path" fill="#FFC1C7"></path>
                <path d="M84.0654092,159.541672 C84.0654092,159.541672 89.5255622,167.46363 87.7055112,191.838883 C85.8854602,216.214136 84.0654092,241.808152 84.0654092,241.808152 C84.0654092,241.808152 97.4124498,318.5902 93.1656642,320.418344 C88.9188785,322.246488 74.9651543,324.074632 73.1451033,322.246488 C71.3250523,320.418344 62.8314811,249.120728 62.8314811,249.120728 L54.9445935,190.62012 L42.8109202,257.652067 C42.8109202,257.652067 36.1373999,322.85587 31.2839306,325.902776 C27.8143068,328.080918 20.9342956,326.522048 17.2929682,325.456002 C15.8873513,325.050394 14.9409179,323.730927 15.0028708,322.263271 C15.4476245,312.009321 17.4445359,271.542086 22.1836757,246.683203 C27.6438287,218.04228 16.7235227,160.760435 26.4304613,159.541672 C36.1373999,158.32291 84.0654092,159.541672 84.0654092,159.541672 Z" id="Path" fill="#2F2E41"></path>
                <path d="M42.3092256,48.8922759 C42.3092256,48.8922759 44.7648512,37.8703265 53.973447,39.0949876 C63.1820427,40.3196486 69.3211066,39.7073181 71.1628257,45.8306233 C73.0045449,51.9539285 92.6495492,56.8525726 92.6495492,56.8525726 C92.6495492,56.8525726 97.5608003,57.4649032 96.9468939,65.4251999 C96.3329875,73.3854967 84.0548598,102.777362 84.0548598,102.777362 C84.0548598,102.777362 84.6687662,127.270582 87.7382981,138.292532 C90.8078301,149.314481 90.8078301,162.785753 84.0548598,165.847405 C77.3018896,168.909058 34.942349,179.931007 25.1198469,166.459736 C25.1198469,166.459736 19.5946894,146.865159 23.2781277,138.904862 C26.961566,130.944566 22.6642213,99.715709 22.6642213,99.715709 L11,73.9978272 C11,73.9978272 14.6834383,61.7512168 25.1198469,58.0772337 C31.296199,55.9316049 37.0965919,52.8322279 42.3092256,48.8922759 L42.3092256,48.8922759 Z" id="Path" fill="#3F3D56"></path>
                <path d="M16.1191993,70 L11.2122276,75.4117016 C11.2122276,75.4117016 -3.50868754,110.888412 0.784912705,114.496213 C5.07851295,118.104014 17.3459422,120.509215 17.9593137,119.907915 C18.5726851,119.306614 29,88.6403055 29,88.6403055 L16.1191993,70 Z" id="Path" fill="#3F3D56"></path>
                <path d="M76,15.2326011 C76,15.2326011 73.5345755,17.0769877 72.9182194,21.3805563 C72.3018633,25.6841249 68.5169805,18.9284075 67.6358193,27.8394258 C66.7546581,36.7504442 51.9621111,42.8983993 46.414906,38.5948307 C40.8677009,34.2912621 31.622359,7.24025945 44.5658376,2.93669084 C57.5093163,-1.36687776 70.4527949,-0.752082245 72.9182194,3.55148636 C75.3836439,7.85505496 76,15.2326011 76,15.2326011 Z" id="Path" fill="#2F2E41"></path>
                <path d="M63.1604042,27.8414611 C64.0252557,18.9297583 67.7402709,25.6860177 68.3452483,21.3821156 C68.9502257,17.0782135 71.3701354,15.233684 71.3701354,15.233684 C71.3701354,15.233684 70.765158,7.85556606 68.3452483,3.55166394 C67.1874304,1.49240664 63.6718884,0.280354019 58.9316906,0.0448383471 C65.4713091,-0.259656579 70.5376865,0.995146083 71.9751129,3.55166394 C74.3950226,7.85556606 75,15.233684 75,15.233684 C75,15.233684 72.5800903,17.0782135 71.9751129,21.3821156 C71.3701354,25.6860177 67.6551203,18.9297583 66.7902688,27.8414611 C66.0569393,35.3966538 55.5116322,40.9627183 49,39.8606242 C55.2055983,38.9945377 62.5526197,34.1031099 63.1604042,27.8414611 Z" id="Path" fill="#000000" opacity="0.1"></path>
            </g>
        </g>
    </g>
</svg>