<svg width="26" height="26" viewBox="0 0 26 26" fill="none" xmlns="http://www.w3.org/2000/svg">
    <path d="M19.134 12.278C19.4014 12.0199 19.4958 11.6412 19.3804 11.2896C19.265 10.938 18.9638 10.6865 18.5942 10.6334L15.3626 10.1685C15.2992 10.1594 15.2444 10.12 15.216 10.063L13.7708 7.16415C13.6055 6.83261 13.2709 6.62666 12.8974 6.62666C12.5239 6.62666 12.1893 6.83261 12.024 7.16415L10.5788 10.0631C10.5504 10.12 10.4956 10.1594 10.4321 10.1685L7.20063 10.6334C6.83106 10.6865 6.52982 10.938 6.41438 11.2896C6.29894 11.6412 6.39338 12.0199 6.66084 12.278L8.99921 14.5345C9.0451 14.5788 9.06607 14.6426 9.05523 14.7052L8.50321 17.8914C8.44009 18.2558 8.58853 18.6171 8.89066 18.8344C9.19279 19.0518 9.5859 19.0799 9.91641 18.9079L12.8068 17.4036C12.8635 17.374 12.9313 17.374 12.9881 17.4036L15.8785 18.9079C16.0222 18.9827 16.1778 19.0196 16.3326 19.0196C16.5337 19.0196 16.7335 18.9573 16.9041 18.8344C17.2063 18.6171 17.3547 18.2557 17.2916 17.8914L16.7396 14.7052C16.7288 14.6426 16.7497 14.5788 16.7956 14.5345L19.134 12.278ZM15.9717 14.8356L16.5237 18.0219C16.5422 18.1285 16.4757 18.1893 16.4462 18.2104C16.4167 18.2316 16.3378 18.2755 16.2411 18.2251L13.3507 16.7208C13.2088 16.647 13.0531 16.61 12.8975 16.61C12.7418 16.61 12.5861 16.647 12.4442 16.7207L9.55388 18.225C9.45713 18.2754 9.37818 18.2315 9.34873 18.2104C9.31928 18.1892 9.25276 18.1284 9.27125 18.0218L9.82327 14.8356C9.87747 14.5228 9.77279 14.2037 9.54315 13.9822L7.20478 11.7257C7.12652 11.6501 7.14424 11.5623 7.15551 11.528C7.16674 11.4937 7.20461 11.4123 7.31275 11.3968L10.5442 10.9319C10.8615 10.8863 11.1357 10.6891 11.2776 10.4044L12.7228 7.50551C12.7712 7.4085 12.8611 7.39802 12.8975 7.39802C12.9339 7.39802 13.0237 7.40848 13.0721 7.50551V7.50554L14.5173 10.4045C14.6592 10.6891 14.9334 10.8863 15.2507 10.9319L18.4822 11.3968C18.5903 11.4123 18.6282 11.4937 18.6394 11.528C18.6507 11.5623 18.6684 11.6502 18.5901 11.7257L16.2518 13.9822C16.0222 14.2037 15.9175 14.5228 15.9717 14.8356Z" fill="white"/>
    <path d="M17.1534 7.30402C16.9578 7.17837 16.6842 7.21672 16.5421 7.38966L16.0776 7.95521C15.9356 8.12815 15.9789 8.37025 16.1744 8.49591C16.2522 8.54581 16.3421 8.56985 16.4313 8.56985C16.5666 8.56985 16.7001 8.51451 16.7857 8.41029L17.2502 7.84475C17.3922 7.67177 17.3489 7.42967 17.1534 7.30402Z" fill="white"/>
    <path d="M9.21271 8.09546L8.74818 7.52991C8.60617 7.35702 8.33252 7.31867 8.13695 7.44427C7.94145 7.56992 7.89809 7.81203 8.04014 7.98497L8.50466 8.55053C8.59029 8.65483 8.72372 8.71014 8.85909 8.71014C8.94829 8.71014 9.03829 8.6861 9.11593 8.63617C9.31143 8.51054 9.35478 8.26844 9.21271 8.09546Z" fill="white"/>
    <path d="M6.73098 15.3912C6.66948 15.1849 6.46621 15.072 6.27691 15.139L5.65802 15.3582C5.46872 15.4252 5.36517 15.6468 5.42667 15.8531C5.47614 16.0191 5.61741 16.1246 5.7693 16.1246C5.8062 16.1246 5.84374 16.1183 5.88074 16.1052L6.49964 15.886C6.68891 15.819 6.79248 15.5975 6.73098 15.3912Z" fill="white"/>
    <path d="M12.8614 19.6913C12.6765 19.6913 12.5265 19.8489 12.5265 20.0433V20.6791C12.5265 20.8735 12.6765 21.0311 12.8614 21.0311C13.0464 21.0311 13.1964 20.8735 13.1964 20.6791V20.0433C13.1964 19.8489 13.0464 19.6913 12.8614 19.6913Z" fill="white"/>
    <path d="M19.8954 15.1244L19.2765 14.9052C19.0873 14.8382 18.8839 14.9511 18.8224 15.1574C18.7609 15.3637 18.8645 15.5852 19.0538 15.6522L19.6727 15.8714C19.7097 15.8845 19.7472 15.8907 19.7841 15.8907C19.936 15.8907 20.0773 15.7852 20.1267 15.6192C20.1882 15.413 20.0847 15.1914 19.8954 15.1244Z" fill="white"/>
</svg>