<?xml version="1.0" encoding="UTF-8"?>
<svg width="27px" height="23px" viewBox="0 0 27 23" version="1.1" xmlns="http://www.w3.org/2000/svg" xmlns:xlink="http://www.w3.org/1999/xlink">
    <!-- Generator: Sketch 53.2 (72643) - https://sketchapp.com -->
    <title>btn-refiere-active</title>
    <desc>Created with Sketch.</desc>
    <g id="Page-1" stroke="none" stroke-width="1" fill="none" fill-rule="evenodd">
        <g id="btn-refiere-active" fill="#304087" fill-rule="nonzero">
            <path d="M24.6521739,0 C23.3573478,0 22.3043478,1.03155 22.3043478,2.3 L22.3043478,3.028525 L4.08228261,8.654325 C3.95080435,7.667625 3.09678261,6.9 2.05434783,6.9 C0.921521739,6.9 0,7.80275 0,8.9125 L0,14.0875 C0,15.19725 0.921521739,16.1 2.05434783,16.1 C3.09678261,16.1 3.95080435,15.332375 4.08228261,14.345675 L5.33484783,14.732075 C5.14936957,14.931025 5.00086957,15.167925 4.91047826,15.440475 C4.57121739,16.4657 5.14643478,17.57085 6.19415217,17.9032 L12.8942609,20.02955 L12.8948478,20.02955 C13.0985217,20.09395 13.3045435,20.125 13.5076304,20.125 C14.349913,20.125 15.1346739,19.597725 15.4081957,18.77145 C15.5085652,18.4667 15.5203043,18.15735 15.471,17.86065 L22.3043478,19.971475 L22.3043478,20.7 C22.3043478,21.96845 23.3573478,23 24.6521739,23 C25.947,23 27,21.96845 27,20.7 L27,2.3 C27,1.03155 25.947,0 24.6521739,0 Z M14.2912174,18.417825 C14.1515217,18.84045 13.6866522,19.073325 13.2558261,18.9359 L6.55571739,16.80955 C6.12430435,16.6727 5.88658696,16.217875 6.02686957,15.79525 C6.16715217,15.3732 6.63084783,15.141475 7.06167391,15.27775 L13.7629565,17.4041 C14.1937826,17.54095 14.4303261,17.995775 14.2912174,18.417825 Z M2.93478261,14.0875 C2.93478261,14.563025 2.53976087,14.95 2.05434783,14.95 C1.56893478,14.95 1.17391304,14.563025 1.17391304,14.0875 L1.17391304,8.9125 C1.17391304,8.436975 1.56893478,8.05 2.05434783,8.05 C2.53976087,8.05 2.93478261,8.436975 2.93478261,8.9125 L2.93478261,9.008525 L2.93478261,13.991475 L2.93478261,14.0875 Z M4.10869565,13.14795 L4.10869565,9.85205 L22.3043478,4.233725 L22.3043478,18.7657 L4.10869565,13.14795 Z M25.826087,20.7 C25.826087,21.334225 25.299587,21.85 24.6521739,21.85 C24.0047609,21.85 23.4782609,21.334225 23.4782609,20.7 L23.4782609,20.333725 L23.4782609,2.666275 L23.4782609,2.3 C23.4782609,1.665775 24.0047609,1.15 24.6521739,1.15 C25.299587,1.15 25.826087,1.665775 25.826087,2.3 L25.826087,20.7 Z" id="Shape"></path>
        </g>
    </g>
</svg>
