<?xml version="1.0" encoding="UTF-8"?>
<svg width="61px" height="58px" viewBox="0 0 61 58" version="1.1" xmlns="http://www.w3.org/2000/svg" xmlns:xlink="http://www.w3.org/1999/xlink">
    <!-- Generator: Sketch 53.2 (72643) - https://sketchapp.com -->
    <title>cupon</title>
    <desc>Created with Sketch.</desc>
    <g id="PAGOS" stroke="none" stroke-width="1" fill="none" fill-rule="evenodd">
        <g id="cupon" transform="translate(30.646408, 29.228954) rotate(-40.000000) translate(-30.646408, -29.228954) translate(3.646408, 13.728954)" fill-rule="nonzero">
            <path d="M52.2580781,0 L12.1935586,0 L12.1935586,0.861105318 C12.1935586,1.337122 11.803957,1.72221064 11.3225977,1.72221064 C10.8411328,1.72221064 10.4516367,1.33701773 10.4516367,0.861105318 L10.4516367,0 L1.74192188,0 C0.779941406,0 0,0.77101147 0,1.72221064 L0,9.30271116 C0,9.73680918 0.215894531,10.1493222 0.589253906,10.3776851 C2.32516406,11.4392075 3.48384375,13.3335766 3.48384375,15.5 C3.48384375,17.6663191 2.32516406,19.5607925 0.589253906,20.6223149 C0.215894531,20.8506778 0,21.2632951 0,21.6972888 L0,29.2777894 C0,30.2288843 0.779941406,31 1.74192188,31 L10.4516367,31 L10.4516367,30.1388947 C10.4516367,29.662878 10.8412383,29.2777894 11.3225977,29.2777894 C11.8040625,29.2777894 12.1935586,29.6629823 12.1935586,30.1388947 L12.1935586,31 L52.2580781,31 C53.2200586,31 54,30.2288843 54,29.2777894 L54,1.72221064 C54,0.77101147 53.2200586,0 52.2580781,0 Z M12.1935586,26.6944734 C12.1935586,27.1704901 11.803957,27.5555787 11.3225977,27.5555787 C10.8411328,27.5555787 10.4516367,27.1703858 10.4516367,26.6944734 L10.4516367,24.9722628 C10.4516367,24.4962461 10.8412383,24.1111575 11.3225977,24.1111575 C11.8040625,24.1111575 12.1935586,24.4963504 12.1935586,24.9722628 L12.1935586,26.6944734 Z M12.1935586,21.5277372 C12.1935586,22.0037539 11.803957,22.3888425 11.3225977,22.3888425 C10.8411328,22.3888425 10.4516367,22.0036496 10.4516367,21.5277372 L10.4516367,19.8055266 C10.4516367,19.3295099 10.8412383,18.9444213 11.3225977,18.9444213 C11.8040625,18.9444213 12.1935586,19.3296142 12.1935586,19.8055266 L12.1935586,21.5277372 Z M12.1935586,16.3611053 C12.1935586,16.837122 11.803957,17.2222106 11.3225977,17.2222106 C10.8411328,17.2222106 10.4516367,16.8370177 10.4516367,16.3611053 L10.4516367,14.6388947 C10.4516367,14.162878 10.8412383,13.7777894 11.3225977,13.7777894 C11.8040625,13.7777894 12.1935586,14.1629823 12.1935586,14.6388947 L12.1935586,16.3611053 Z M12.1935586,11.1944734 C12.1935586,11.6704901 11.803957,12.0555787 11.3225977,12.0555787 C10.8411328,12.0555787 10.4516367,11.6703858 10.4516367,11.1944734 L10.4516367,9.47226277 C10.4516367,8.99624609 10.8412383,8.61115746 11.3225977,8.61115746 C11.8040625,8.61115746 12.1935586,8.99635036 12.1935586,9.47226277 L12.1935586,11.1944734 Z M12.1935586,6.02773723 C12.1935586,6.50375391 11.803957,6.88884254 11.3225977,6.88884254 C10.8411328,6.88884254 10.4516367,6.50364964 10.4516367,6.02773723 L10.4516367,4.30552659 C10.4516367,3.82950991 10.8412383,3.44442127 11.3225977,3.44442127 C11.8040625,3.44442127 12.1935586,3.82961418 12.1935586,4.30552659 L12.1935586,6.02773723 Z" id="Shape" fill="#FFC350"></path>
            <path d="M51.1363708,30 L14.8636292,30 C14.3866357,30 14,29.6082768 14,29.1250066 L14,2.87499338 C14,2.39172324 14.3866357,2 14.8636292,2 L51.1363708,2 C51.6133643,2 52,2.39172324 52,2.87499338 L52,29.1250066 C52,29.6082768 51.6133643,30 51.1363708,30 Z" id="Path" fill="#FFD164"></path>
            <path d="M32.5,21.902955 L28.0926949,24.7922119 C27.1214279,25.4289408 25.9025307,24.5042754 26.182286,23.3428526 L27.451842,18.0730123 L23.4584553,14.5888515 C22.5783122,13.8209491 23.043919,12.3247115 24.1881668,12.2437495 L29.3800637,11.8761412 L31.3193027,6.83348911 C31.7467096,5.7221703 33.2532904,5.7221703 33.6806973,6.83348911 L35.6199363,11.8761412 L40.8118332,12.2437495 C41.956081,12.324819 42.4216878,13.8210567 41.5415447,14.5888515 L37.548158,18.0730123 L38.817714,23.3428526 C39.0974693,24.5042754 37.878675,25.4290483 36.9073051,24.7922119 L32.5,21.902955 Z" id="Path" fill="#FFFFFF"></path>
            <path d="M38.4011281,20.3177517 C32.8420944,19.9901061 28.1290029,16.6721807 25.9753462,12 L24.1987949,12.1160933 C23.0443119,12.1916191 22.5745403,13.5855404 23.4625562,14.3008316 L27.4916635,17.5467371 L26.2106475,22.456213 C25.9283898,23.5382149 27.1580861,24.3996494 28.1381449,23.8064616 L32.5848732,21.1147791 L37.0314975,23.8064616 C38.0114524,24.3996494 39.2412526,23.5382149 38.958891,22.456213 L38.4011281,20.3177517 Z" id="Path" fill="#FFF6D8"></path>
        </g>
    </g>
</svg>