<?xml version="1.0" encoding="UTF-8"?>
<svg width="56px" height="56px" viewBox="0 0 56 56" version="1.1" xmlns="http://www.w3.org/2000/svg" xmlns:xlink="http://www.w3.org/1999/xlink">
    <!-- Generator: Sketch 53.2 (72643) - https://sketchapp.com -->
    <title>ganado</title>
    <desc>Created with Sketch.</desc>
    <g id="PAGOS" stroke="none" stroke-width="1" fill="none" fill-rule="evenodd">
        <g id="ganado" transform="translate(0.000000, -0.000000)" fill-rule="nonzero">
            <circle id="Oval" fill="#FFD164" cx="28" cy="28" r="28"></circle>
            <path d="M46.3924769,39.5333337 C48.8783494,35.5985473 50.1370536,30.8120669 49.6193369,25.7065025 C48.5924445,15.5791414 40.4197911,7.40679997 30.2924506,6.38045297 C25.187225,5.8630637 20.4011923,7.1217705 16.4665234,9.60742899 C15.7882794,10.035904 14.9139207,9.4622315 15.0825509,8.67788032 C15.5887702,6.32427927 16.3988523,4.08368262 17.4723918,2 C7.22635304,6.17086925 0.000219000304,16.2225656 0,27.9672472 C-0.000328500456,43.5237464 12.4764473,56.000438 28.0329149,56 C39.7775727,55.9996715 49.8290297,48.7736323 54,38.5273538 C51.9163216,39.601005 49.6757295,40.4109792 47.3220237,40.9171995 C46.5376741,41.086049 45.9640028,40.2115791 46.3924769,39.5333337 Z" id="Path" fill="#FFC350"></path>
            <circle id="Oval" fill="#FFEDB1" cx="28" cy="28" r="20"></circle>
            <path d="M14.7321352,18.2701127 C12.6873565,21.373642 11.6497708,25.1981195 12.1065076,29.2871283 C12.9563367,36.8944657 19.1042276,43.0428573 26.7114948,43.8933178 C30.8009462,44.350476 34.626077,43.3130011 37.7299386,41.2678084 C38.1906995,40.9642011 38.0306881,40.2468535 37.4860562,40.1581116 C26.3993084,38.3534115 17.6465458,29.600584 15.8417313,18.513888 C15.7532008,17.9693646 15.0357439,17.809248 14.7321352,18.2701127 Z" id="Path" fill="#FFE17D"></path>
            <path d="M31.7199786,28.595084 L31.7199786,19.7617044 C32.9325412,20.4167871 33.7272294,21.4204755 33.7272294,22.5246077 C33.7272294,23.1358468 34.2359222,23.6312055 34.8636147,23.6312055 C35.4913071,23.6312055 36,23.1358468 36,22.5246077 C36,20.23691 34.2463801,18.2626572 31.7200887,17.3358293 L31.7200887,16.1065978 C31.7200887,15.4953588 31.2113958,15 30.5837033,15 C29.9560109,15 29.447318,15.4953588 29.447318,16.1065978 L29.447318,16.8216038 C29.1363339,16.7913742 28.8216071,16.7704707 28.500055,16.7704707 C28.178503,16.7704707 27.8637761,16.7913742 27.5527921,16.8216038 L27.5527921,16.1065978 C27.5527921,15.4953588 27.0440992,15 26.4164067,15 C25.7887143,15 25.2800214,15.4953588 25.2800214,16.1065978 L25.2800214,17.3358293 C22.7538401,18.26255 21.0001101,20.2370172 21.0001101,22.5246077 C21.0001101,25.5799454 22.8717388,27.2421468 25.2800214,28.404916 L25.2800214,37.2382956 C24.0674588,36.5832129 23.2727706,35.5795245 23.2727706,34.4753923 C23.2727706,33.8641532 22.7640778,33.3687945 22.1363853,33.3687945 C21.5086929,33.3687945 21,33.8641532 21,34.4753923 C21,36.76309 22.75373,38.73745 25.2799113,39.6641707 L25.2799113,40.8934022 C25.2799113,41.5046412 25.7886042,42 26.4162967,42 C27.0439891,42 27.552682,41.5046412 27.552682,40.8934022 L27.552682,40.1783962 C27.8636661,40.2086258 28.1783929,40.2295293 28.499945,40.2295293 C28.821497,40.2295293 29.1362239,40.2086258 29.4472079,40.1783962 L29.4472079,40.8934022 C29.4472079,41.5046412 29.9559008,42 30.5835933,42 C31.2112857,42 31.7199786,41.5046412 31.7199786,40.8934022 L31.7199786,39.6641707 C34.24627,38.7373428 35.9998899,36.7629828 35.9998899,34.4753923 C35.9998899,31.4200546 34.1283713,29.7578532 31.7199786,28.595084 Z M28.500055,18.9836663 C28.822818,18.9836663 29.1387558,19.0072497 29.447318,19.0474487 L29.447318,27.6591443 C29.2592965,27.5912884 29.0708346,27.5240757 28.8818224,27.4583638 C28.4079157,27.2934943 27.9651624,27.132484 27.5527921,26.9721168 L27.5527921,19.0475559 C27.8613543,19.0072497 28.1772921,18.9836663 28.500055,18.9836663 Z M23.2728807,22.5246077 C23.2728807,21.4204755 24.0675689,20.4167871 25.2801315,19.7617044 L25.2801315,25.8775251 C23.9383316,25.0388134 23.2728807,24.0465951 23.2728807,22.5246077 Z M28.500055,38.0163337 C28.1772921,38.0163337 27.8613543,37.9927503 27.5527921,37.9525513 L27.5527921,29.3408557 C27.7408136,29.4087116 27.9292754,29.4759243 28.1182877,29.5416362 C28.5921944,29.7065057 29.0349476,29.867516 29.447318,30.0278832 L29.447318,37.9524441 C29.1387558,37.9927503 28.822818,38.0163337 28.500055,38.0163337 Z M31.7199786,37.2382956 L31.7199786,31.1224749 C33.0617785,31.9612938 33.7272294,32.9535121 33.7272294,34.4753923 C33.7272294,35.5795245 32.9325412,36.5832129 31.7199786,37.2382956 Z" id="Shape" fill="#E1A546"></path>
            <path d="M29,54 C15.2147855,54 4,42.7852145 4,29 C4,15.2147855 15.2147855,4 29,4 C42.7852145,4 54,15.2147855 54,29 C54,42.7852145 42.7852145,54 29,54 Z M29,5.78569884 C16.199212,5.78569884 5.78569884,16.199212 5.78569884,29 C5.78569884,41.800788 16.199212,52.2143012 29,52.2143012 C41.800788,52.2143012 52.2143012,41.800788 52.2143012,29 C52.2143012,16.199212 41.800788,5.78569884 29,5.78569884 Z" id="Shape" fill="#FFC350"></path>
            <path d="M47.4808184,40.682678 C43.3236871,47.0172822 36.1623123,51.2117676 28.0354697,51.2117676 C15.2165201,51.2117676 4.78823237,40.7834799 4.78823237,27.9645303 C4.78823237,19.8377959 8.98271783,12.6762046 15.317322,8.51907328 C15.5152446,7.66252773 15.7560431,6.82319755 16.0337627,6 C8.27353146,10.2572836 3,18.5058248 3,27.9645303 C3,41.7693031 14.2306969,53 28.0354697,53 C37.4941752,53 45.7427164,47.7264685 50,39.9661291 C49.1769107,40.2438486 48.3375805,40.4847554 47.4808184,40.682678 Z" id="Path" fill="#FFFFFF"></path>
        </g>
    </g>
</svg>