<?xml version="1.0" encoding="UTF-8"?>
<svg width="56px" height="56px" viewBox="0 0 56 56" version="1.1" xmlns="http://www.w3.org/2000/svg" xmlns:xlink="http://www.w3.org/1999/xlink">
    <!-- Generator: Sketch 53.2 (72643) - https://sketchapp.com -->
    <title>referidos</title>
    <desc>Created with Sketch.</desc>
    <g id="PAGOS" stroke="none" stroke-width="1" fill="none" fill-rule="evenodd">
        <g id="referidos" fill-rule="nonzero">
            <circle id="Oval" fill="#FFD164" cx="28" cy="28" r="28"></circle>
            <circle id="Oval" fill="#FFEDB1" cx="28" cy="28" r="24"></circle>
            <g id="boy" transform="translate(10.000000, 0.000000)">
                <path d="M34.9789147,48.9767155 L33.8488994,39.8977845 C33.6782699,38.5274052 32.739306,37.3771293 31.4347553,36.9403966 L27.0772884,35.4817069 C26.4789137,35.2813276 25.8225093,35.4089741 25.3610622,35.8037931 L24.0774915,35.3741207 C23.3484385,35.1300345 22.8566375,34.4448448 22.8566375,33.6730259 L22.8566375,30.7814224 L26.7023277,29.1722241 C28.6984353,28.3371983 29.9986337,26.378569 29.9986337,24.2068966 L29.9986337,23.3103448 C31.4778312,23.3103448 32.6769241,22.1061638 32.6769241,20.6206897 C32.6769241,19.9506293 32.4324185,19.3382845 32.0287778,18.8673707 C32.7866224,16.09725 34.9166445,7.33480172 32.6769241,3.5862069 L33.5696876,0 C33.5696876,0 24.1956711,0.224137931 19.285472,1.79310345 L21.0709989,0 C21.0709989,0 8.51651252,0 5.89480097,4.48197414 L5.89401981,4.48275862 C5.89401981,4.48275862 1.43020242,4.44543966 1.43020242,9.86206897 C1.43020242,11.844569 2.53131457,16.7948793 3.00403284,18.8292672 C2.58075135,19.3048879 2.3229659,19.9324741 2.3229659,20.6206897 C2.3229659,22.1061638 3.52205884,23.3103448 5.00125633,23.3103448 L5.00125633,24.2068966 C5.00125633,26.3784569 6.30145474,28.3370862 8.29756228,29.1724483 L12.1433641,30.7816466 L12.1433641,33.6731379 C12.1433641,34.4449569 11.6515631,35.1301466 10.9225101,35.3742328 L9.6389394,35.8039052 C9.17749228,35.4090862 8.52108793,35.2814397 7.92271321,35.481819 L3.56524628,36.9405086 C2.26058405,37.3772414 1.32162006,38.5275172 1.15110224,39.8978966 L0.0210868684,48.9768276 C-0.178780555,50.5821034 1.06762885,52 2.67862055,52 L2.70372952,52 L32.2961605,52 L32.3212695,52 C33.9322612,52 35.1787822,50.5821034 34.9789147,48.9767155 Z" id="Path" fill="#FFD7A3"></path>
                <path d="M23,31 L11.9248873,31.0001213 L11.9248873,34.1304816 C11.9248873,34.8292043 11.557332,35.4445753 11,35.7876884 C18.7403501,37.2124324 23,31 23,31 Z" id="Path" fill="#FDC88E"></path>
                <path d="M3.77208238,20 C3.77208238,20 2,12.5597727 2,10 C2,4.50761364 6.43020595,4.54545455 6.43020595,4.54545455 L6.43098124,4.54465909 C9.03295195,0 21.4929062,0 21.4929062,0 L19.7208238,1.81818182 C24.5940503,0.227272727 33.8974828,0 33.8974828,0 L33.0114416,3.63636364 C35.6695652,8.18181818 32.1254005,20 32.1254005,20 L3.77208238,20 Z" id="Path" fill="#734A3E"></path>
                <path d="M21.5555556,0 C21.5555556,0 9.05555556,0 6.44522222,4.54465909 L6.44444444,4.54545455 C6.44444444,4.54545455 2,4.50761364 2,10 C2,12.5597727 3.77777778,20 3.77777778,20 C3.77777778,20 22.2593333,11.5530682 34,0 C34,0 24.6666667,0.227272727 19.7777778,1.81818182 L21.5555556,0 Z" id="Path" fill="#623F33"></path>
                <path d="M30.3529412,17.3913043 L30.3529412,15.5652174 C30.3529412,13.043962 28.3776838,11 25.9411765,11 L10.0588235,11 C7.62231618,11 5.64705882,13.043962 5.64705882,15.5652174 L5.64705882,17.3913043 C4.18511029,17.3913043 3,18.6176359 3,20.1304348 C3,21.6432337 4.18511029,22.8695652 5.64705882,22.8695652 L5.64705882,23.7826087 C5.64705882,25.9941141 6.93209559,27.9887717 8.90492647,28.8395 L14.6061397,31.2976413 C15.6815074,31.7613533 16.8349632,32 17.9998897,32 L17.9998897,32 C19.1648162,32 20.3181618,31.7612391 21.3935294,31.2976413 L27.0950735,28.8393859 C29.0679044,27.9888859 30.3529412,25.9942283 30.3529412,23.7826087 L30.3529412,22.8695652 C31.8148897,22.8695652 33,21.6432337 33,20.1304348 C33,18.6176359 31.8148897,17.3913043 30.3529412,17.3913043 Z" id="Path" fill="#FFE1B2"></path>
                <path d="M11,22 L11,22 C10.45,22 10,21.55 10,21 L10,20 C10,19.45 10.45,19 11,19 L11,19 C11.55,19 12,19.45 12,20 L12,21 C12,21.55 11.55,22 11,22 Z" id="Path" fill="#623F33"></path>
                <path d="M24,22 L24,22 C23.45,22 23,21.55 23,21 L23,20 C23,19.45 23.45,19 24,19 L24,19 C24.55,19 25,19.45 25,20 L25,21 C25,21.55 24.55,22 24,22 Z" id="Path" fill="#623F33"></path>
                <path d="M17.5000247,28 C15.8999766,28 14.4033135,27.5664833 13.3938758,26.8103064 C12.9830359,26.5026334 12.8761636,25.8861727 13.1561692,25.433829 C13.4351623,24.9819808 13.995511,24.8643119 14.4063509,25.1721088 C15.113846,25.7018662 16.27043,26.0183333 17.5000247,26.0183333 C18.7296194,26.0183333 19.8862034,25.7018662 20.5936985,25.1721088 C21.0054384,24.8634449 21.5644371,24.9814853 21.8438802,25.433829 C22.1237733,25.8861727 22.0170134,26.5026334 21.6061736,26.8103064 C20.5968484,27.5664833 19.1000728,28 17.5000247,28 Z" id="Path" fill="#E4B07B"></path>
                <path d="M34.9789147,48.9061359 L33.8488993,39.6152541 C33.6783814,38.2128828 32.7393058,37.0357534 31.4347551,36.588825 L27.077288,35.0960817 C26.318439,34.8360902 25.4647339,35.1137432 25.0360958,35.8078184 C23.4534493,38.3703457 20.671933,40.0726189 17.4999442,40.0726189 C14.3279554,40.0726189 11.5464391,38.370231 9.96390415,35.8078184 C9.53526606,35.1137432 8.68156095,34.8360902 7.92271196,35.0960817 L3.56524483,36.588825 C2.26058254,37.0357534 1.32161852,38.2128828 1.15110068,39.6152541 L0.0210852626,48.9061359 C-0.17878217,50.5488875 1.06773889,52 2.67873066,52 L32.3213809,52 C33.9322611,52 35.1787821,50.5488875 34.9789147,48.9061359 Z" id="Path" fill="#3A7CD2"></path>
                <path d="M1.97441963,38 C1.56149206,38.5084146 1.2850445,39.12265 1.19913418,39.7911525 L0.0219651151,48.9500775 C-0.186242449,50.5696104 1.11229384,52 2.79050958,52 L8,52 L8,46.1134925 C8,45.2432974 7.67751659,44.4023839 7.09172211,43.7446217 L1.97441963,38 Z" id="Path" fill="#304087"></path>
                <path d="M33.0255804,38 C33.4385079,38.5084146 33.7149555,39.12265 33.8008658,39.7911525 L34.9780349,48.9500775 C35.1862424,50.5696104 33.8877062,52 32.2094904,52 L27,52 L27,46.1134925 C27,45.2432974 27.3224834,44.4023839 27.9082779,43.7446217 L33.0255804,38 Z" id="Path" fill="#304087"></path>
                <path d="M9.29759953,27.4736288 C8.58084336,26.7039508 8.1923885,25.6883081 8.1923885,24.6357873 L8.1923885,14.5956422 C11.0079952,14.3842299 19.8851784,13.6153271 25,12 L9.07688905,12 C8.77236167,12 8.47745444,12.0355492 8.19227792,12.0975664 L8.19227792,12.0892605 C6.17348474,12.4997924 4.6538334,14.2867743 4.6538334,16.4298015 L4.6538334,18.2017221 C3.18814333,18.2017221 2,19.3916775 2,20.859603 C2,22.3275284 3.18814333,23.5174839 4.6538334,23.5174839 L4.6538334,24.4034442 C4.6538334,26.5494615 5.94215893,28.4849525 7.92003885,29.3103353 L13.6357325,31.6955619 C13.9154908,31.8122872 14.200999,31.9128437 14.4901563,32 C11.9641492,30.1492289 10.2827246,28.5313547 9.29759953,27.4736288 Z" id="Path" fill="#FFD7A3"></path>
            </g>
        </g>
    </g>
</svg>
