<?xml version="1.0" encoding="UTF-8"?>
<svg width="61px" height="62px" viewBox="0 0 61 62" version="1.1" xmlns="http://www.w3.org/2000/svg" xmlns:xlink="http://www.w3.org/1999/xlink">
    <!-- Generator: Sketch 53.2 (72643) - https://sketchapp.com -->
    <title>2.3.2</title>
    <desc>Created with Sketch.</desc>
    <g id="Page-2" stroke="none" stroke-width="1" fill="none" fill-rule="evenodd">
        <g id="2.3.2" transform="translate(-8.000000, -8.000000)">
            <path d="M15.0353111,78 C6.76586784,78 4.97379915e-14,71.056083 4.97379915e-14,62.5690228 L4.97379915e-14,15.4309772 C4.97379915e-14,6.94391699 6.76586784,0 15.0353111,0 L60.9646889,0 C69.2341322,0 76,6.94391699 76,15.4309772 L76,62.5690228 C76,71.056083 69.2341322,78 60.9646889,78 L15.0353111,78 Z" id="Fill-1-Copy-75"></path>
            <path d="M67.2548557,24.2228004 L67.2548557,44.1259307 L59.3542083,44.1259307 L59.3542083,70 L12.9379046,70 C10.2153061,70 8,67.7681866 8,65.0242174 L8,27.2082699 C8,24.4647868 10.2153061,22.2324874 12.9379046,22.2324874 L17.8758093,22.2324874 L17.8758093,30.1937395 L23.8012949,30.1937395 L23.8012949,20.2421743 L21.0738741,20.2421743 L35.652266,8 L40.7502668,12.2809222 L61.8892245,12.2809222 L69,24.2228004 L67.2548557,24.2228004 Z M60.7704805,14.2712353 L43.1203646,14.2712353 L50.2311402,20.2421743 L47.5032372,20.2421743 L47.5032372,22.2324874 L65.510676,22.2324874 L60.7704805,14.2712353 Z M35.652266,10.5913914 L26.5291979,18.2518613 L44.7758164,18.2518613 L35.652266,10.5913914 Z M25.7764567,20.2421743 L25.7764567,30.1937395 L29.7267804,30.1937395 L29.7267804,27.2082699 C29.7267804,24.4647868 31.9420865,22.2324874 34.6646851,22.2324874 L36.6398469,22.2324874 C39.3629278,22.2324874 41.5777516,24.4647868 41.5777516,27.2082699 L41.5777516,30.1937395 L45.5280753,30.1937395 L45.5280753,20.2421743 L25.7764567,20.2421743 Z M34.6646851,30.1937395 L34.6646851,24.2228004 C33.0314152,24.2228004 31.7019423,25.5624716 31.7019423,27.2082699 L31.7019423,30.1937395 L34.6646851,30.1937395 Z M36.6398469,24.2228004 L36.6398469,30.1937395 L39.6025897,30.1937395 L39.6025897,27.2082699 C39.6025897,25.5624716 38.273599,24.2228004 36.6398469,24.2228004 Z M9.97516186,27.2082699 L9.97516186,61.0460211 C10.8007178,60.419675 11.8268761,60.0484349 12.9379046,60.0484349 L15.9006474,60.0484349 L15.9006474,24.2228004 L12.9379046,24.2228004 C11.3046348,24.2228004 9.97516186,25.5624716 9.97516186,27.2082699 Z M57.3790464,68.009687 L57.3790464,32.1840525 L17.8758093,32.1840525 L17.8758093,62.0387479 L12.9379046,62.0387479 C11.3046348,62.0387479 9.97516186,63.3784191 9.97516186,65.0242174 C9.97516186,66.6705019 11.3046348,68.009687 12.9379046,68.009687 L57.3790464,68.009687 Z M59.3542083,42.1356176 L65.2796939,42.1356176 L65.2796939,24.2228004 L47.5032372,24.2228004 L47.5032372,30.1937395 L59.3542083,30.1937395 L59.3542083,42.1356176 Z M25,65 C22.2431641,65 20,62.7573242 20,60 L20,38 C20,35.2431641 22.2431641,33 25,33 L51,33 C53.7573242,33 56,35.2431641 56,38 L56,60 C56,62.7573242 53.7573242,65 51,65 L25,65 Z M22,60 C22,61.654297 23.3461914,63 25,63 L34,63 L34,53 L22,53 L22,60 Z M42,35 L42,47 L22,47 L22,51 L36,51 L36,63 L40,63 L40,51 L54,51 L54,47 L46,47 L46,35 L42,35 Z M51,63 C52.6542969,63 54,61.654297 54,60 L54,53 L42,53 L42,63 L51,63 Z M54,38 C54,36.3461915 52.6542969,35 51,35 L48,35 L48,45 L54,45 L54,38 Z M25,35 C23.3461914,35 22,36.3461915 22,38 L22,45 L40,45 L40,35 L25,35 Z" id="Combined-Shape" fill="#75A7FF" fill-rule="nonzero"></path>
        </g>
    </g>
</svg>