<?xml version="1.0" encoding="UTF-8"?>
<svg width="76px" height="78px" viewBox="0 0 76 78" version="1.1" xmlns="http://www.w3.org/2000/svg" xmlns:xlink="http://www.w3.org/1999/xlink">
    <title>1.1.8</title>
    <g id="Page-2" stroke="none" stroke-width="1" fill="none" fill-rule="evenodd">
        <g id="1.1.8">
            <path d="M15.0353111,78 C6.76586784,78 -7.10542736e-15,71.056083 -7.10542736e-15,62.5690228 L-7.10542736e-15,15.4309772 C-7.10542736e-15,6.94391699 6.76586784,0 15.0353111,0 L60.9646889,0 C69.2341322,0 76,6.94391699 76,15.4309772 L76,62.5690228 C76,71.056083 69.2341322,78 60.9646889,78 L15.0353111,78 Z" id="Fill-1-Copy-18" fill="#FFFFFF"></path>
            <g id="Group-29" transform="translate(13.000000, 14.000000)">
                <g id="Group">
                    <path d="M9.10701754,0 L40.7052632,0.0206882731 C45.6763158,0.0206882731 49.7508772,4.11542512 49.7307764,9.08647775 L49.7307764,40.685162 C49.7307764,45.6562146 45.6561404,49.730776 40.6644737,49.730776 L9.04561404,49.710162 C4.0745614,49.6899865 0,45.6356006 0,40.6443725 L0.0407894737,9.04568827 C0.0407894737,4.07463564 4.11535088,-0.0201012006 9.10701754,0" id="Fill-3" fill="#292D78"></path>
                    <path d="M42.7425439,22.6755128 L39.1368421,22.6755128 L37.6495614,25.5070918 L40.1754386,25.5070918 L42.7425439,22.6755128 Z M45.1263158,27.2794602 L41.6223684,27.2794602 L41.6223684,34.8584076 C41.6223684,37.180776 40.0535088,37.832969 38.9122807,37.832969 C37.8122807,37.832969 36.6105263,37.4255128 36.6307018,35.4084076 L36.6307018,27.2794602 L33.1061404,27.2794602 L33.0859649,35.9176181 C33.0859649,39.2588462 35.0008772,40.7461269 37.6495614,40.7461269 C39.4828947,40.7667409 40.9092105,39.9518286 41.7035088,38.5461269 L41.7442982,38.5461269 L41.7442982,40.3794602 L45.1263158,40.3794602 L45.1263158,27.2794602 L45.1263158,27.2794602 Z" id="Fill-4" fill="#FFF101"></path>
                    <path d="M30.3557018,30.7430567 C30.3557018,27.503583 26.9535088,26.9127935 25.0587719,26.9127935 C22.3087719,26.9127935 19.4767544,27.503583 19.0486842,31.5171795 L22.4513158,31.5171795 C22.5530702,30.7430567 22.8789474,29.6838462 24.6311404,29.6838462 C25.5276316,29.6838462 26.9535088,29.7649865 26.9535088,31.2119163 C26.9535088,31.9452497 26.2609649,32.1689339 25.6903509,32.2505128 L22.5324561,32.7193725 C20.2916667,33.0250742 18.6210526,34.349197 18.6210526,36.9158637 C18.6210526,39.6259514 20.6991228,40.7461269 22.695614,40.7461269 C25.0995614,40.7461269 26.2403509,39.6461269 27.0144737,38.85139 C27.0960526,39.5645479 27.1574561,39.7478813 27.3609649,40.3794602 L30.3763158,40.3592848 C30.3763158,38.9127935 30.3557018,37.8531444 30.3557018,37.832969 L30.3557018,30.7430567" id="Fill-5" fill="#FFF101"></path>
                    <path d="M15.3815789,22.6755128 L11.8776316,22.6755128 L11.8776316,27.2592848 L10.0644737,27.2592848 L10.0644737,29.724197 L11.8570175,29.724197 L11.8570175,37.6904251 C11.8570175,39.3812146 12.4070175,40.5426181 15.4425439,40.5426181 L15.9114035,40.5426181 C16.4614035,40.5426181 17.0320175,40.5018286 17.5618421,40.4812146 L17.5618421,37.8531444 C17.3171053,37.8737584 17.052193,37.9145479 16.8280702,37.9145479 C15.402193,37.9145479 15.3614035,37.6290216 15.3614035,36.8347234 L15.3815789,29.724197 L17.5820175,29.724197 L17.5820175,27.2592848 L15.3815789,27.2592848 L15.3815789,22.6755128" id="Fill-6" fill="#FFF101"></path>
                    <polyline id="Fill-7" fill="#FFF101" points="8.43464912 22.6548988 4.64517544 22.6548988 4.6245614 40.3592848 8.41403509 40.3592848 8.43464912 22.6548988"></polyline>
                    <path d="M26.9535088,35.6934953 L26.9535088,34.0027058 C26.5868421,34.2676181 25.9960526,34.4917409 24.5495614,34.6952497 C23.2254386,34.9193725 22.145614,35.2658637 22.145614,36.6921795 C22.145614,37.8737584 23.1232456,38.2606006 23.795614,38.2606006 C25.3442982,38.2606006 26.9535088,37.282969 26.9535088,35.6934953" id="Fill-8" fill="#292D78"></path>
                </g>
            </g>
        </g>
    </g>
</svg>