<?xml version="1.0" encoding="UTF-8"?>
<svg width="76px" height="78px" viewBox="0 0 76 78" version="1.1" xmlns="http://www.w3.org/2000/svg" xmlns:xlink="http://www.w3.org/1999/xlink">
    <title>1.1.12</title>
    <defs>
        <polygon id="path-1" points="6.32926849e-06 0.0440855615 59.9503316 0.0440855615 59.9503316 45.8785027 6.32926849e-06 45.8785027"></polygon>
    </defs>
    <g id="Page-2" stroke="none" stroke-width="1" fill="none" fill-rule="evenodd">
        <g id="1.1.12">
            <path d="M15.0353111,78 C6.76586784,78 -7.10542736e-15,71.056083 -7.10542736e-15,62.5690228 L-7.10542736e-15,15.4309772 C-7.10542736e-15,6.94391699 6.76586784,0 15.0353111,0 L60.9646889,0 C69.2341322,0 76,6.94391699 76,15.4309772 L76,62.5690228 C76,71.056083 69.2341322,78 60.9646889,78 L15.0353111,78 Z" id="Fill-1-Copy-20" fill="#FFFFFF"></path>
            <g id="tuya-seeklogo.com" transform="translate(8.000000, 16.000000)">
                <mask id="mask-2" fill="white">
                    <use xlink:href="#path-1"></use>
                </mask>
                <g id="Clip-2"></g>
                <path d="M40.5666738,14.8641497 C40.4002139,15.3191872 40.2273369,15.772107 40.0683209,16.2297754 C39.0879786,19.0513155 37.9742246,21.8155508 36.2675936,24.2870374 C35.7335615,25.060492 35.0950588,25.8 34.3738396,26.3974332 C33.1081925,27.445861 30.2795936,27.0488984 29.287508,25.7408342 C29.0513583,25.4294118 28.8728984,24.9900321 28.8650053,24.6054545 C28.8422246,23.4945882 28.7591872,22.3472727 28.9882139,21.276 C29.6710588,18.0820107 30.5120856,14.9221604 31.2429305,11.7379251 C31.4049626,11.0322353 31.7134332,10.6364278 32.4345882,10.5469733 C33.0887487,10.4659251 33.7368128,10.275016 34.389754,10.2639144 C34.893369,10.2552513 35.4005134,10.450139 36.0340749,10.580984 C35.8883422,11.2236578 35.7818182,11.695893 35.6740749,12.1677433 C34.8548021,15.7546524 34.0180107,19.3376471 33.2259465,22.9303957 C32.9767059,24.0607701 33.0366417,24.3207273 33.311615,25.3857112 C33.6913155,25.0435508 34.056,24.7905882 34.3219251,24.4584385 C34.7601497,23.9109947 35.1694973,23.3334545 35.5298824,22.7319144 C37.6728128,19.1553369 39.1948877,15.3225882 40.1593155,11.2705027 C40.4077861,10.227016 40.608,9.15850267 39.8940963,8.20049198 C41.3828021,7.26814973 43.0094759,7.68160428 43.9615829,9.19828877 C44.712,10.3934759 45.0014759,11.7469733 44.9611765,13.1169626 C44.9077861,14.9301176 44.8486845,16.7719572 44.496385,18.5426952 C42.0069305,31.0585668 34.6643422,39.6060963 22.965369,44.4698182 C20.5500963,45.4739679 17.9785027,45.9468449 15.3297754,45.8752941 C11.5307166,45.7726845 8.44100535,44.2525989 6.13572193,41.2378396 C3.88447059,38.293861 2.75903743,34.9154439 2.50613904,31.2339465 C2.05219251,24.6233583 2.8113369,18.0981176 3.89390374,11.5960428 C4.00139037,10.9503529 4.11702674,10.3060107 4.26500535,9.45285561 C3.51728342,9.65845989 2.90406417,9.82318717 2.29328342,9.99670588 C2.01497326,10.0757647 1.74269519,10.1757433 1.46566845,10.2599358 C0.556812834,10.5361925 0.306352941,10.4821604 0.108449198,9.97315508 C-0.16626738,9.26675936 0.0891336898,8.53931551 0.781925134,8.22231016 C1.91011765,7.70618182 3.04838503,7.2100107 4.19788235,6.7435508 C4.70624599,6.53730481 4.98121925,6.23191444 5.10879144,5.68498396 C5.38106952,4.51771123 5.70231016,3.36006417 6.05698396,2.21499465 C6.15702674,1.89214973 6.38887701,1.44192513 6.65197861,1.36524064 C8.26530481,0.895572193 9.90494118,0.516449198 11.7872727,0.0440855615 C11.3533476,1.47593583 10.9917433,2.66945455 10.5531337,4.1168984 C11.5202567,3.7708877 12.2709947,3.50361497 13.0208342,3.23383957 C14.7404278,2.6151016 16.3544599,3.13899465 17.3290909,4.63354011 C17.9183743,5.53706952 17.7509519,6.09465241 16.702139,6.38213904 C15.909754,6.59935829 15.0783529,6.67238503 14.2658182,6.81786096 C13.0861604,7.02904813 11.9120856,7.27655615 10.7275508,7.45366845 C9.82928342,7.58797861 9.38470588,8.0217754 9.22665241,8.94879144 C8.80280214,11.4348449 8.21531551,13.8940749 7.82631016,16.3848128 C7.20725134,20.3484706 6.64479144,24.3225882 6.15535829,28.3042139 C5.71206417,31.9096043 5.80921925,35.4965134 7.08218182,38.9634866 C8.42785027,42.628492 11.0209412,44.8117861 14.890139,45.3943316 C18.0005775,45.8626524 20.8860963,45.1330267 23.5709519,43.5548663 C25.7321711,42.2845348 27.6103316,40.6506096 29.2229519,38.7511444 C30.7198717,36.9880428 32.1876578,35.1795722 33.4693476,33.2584171 C36.2082353,29.1526203 38.649754,24.8802353 39.8828021,20.032492 C40.3099893,18.3526203 40.7065668,16.6692834 40.8155294,14.9367914 C40.7326203,14.9125989 40.6496471,14.8883422 40.5666738,14.8641497" id="Fill-1" fill="#D82530" mask="url(#mask-2)"></path>
                <path d="M19.9213476,14.4915722 C18.2733048,19.6447701 16.6438717,24.8241497 16.308,30.3176471 C16.5211123,29.8400856 16.7379465,29.3641925 16.9466952,28.8847701 C18.8288342,24.563615 20.7051979,20.2398289 22.5942032,15.9216257 C22.9916791,15.0129626 23.4128342,14.1131551 23.8603636,13.228107 C24.5121497,11.9391016 24.7237861,11.8238503 26.0936471,12.1242995 C27.0115508,12.3256684 27.9548663,12.5140749 28.7274225,13.2312513 C26.9026524,17.738246 24.6370267,22.1544385 26.1178396,27.2337112 C25.056385,27.7767914 24.3813048,27.661861 23.965861,26.7121925 C23.6586096,26.0098396 23.4615401,25.2108449 23.4295187,24.4459251 C23.3536043,22.6328984 23.4051979,20.8145455 23.4051979,18.802139 C23.2049198,19.2365134 23.0485989,19.5557647 22.9087059,19.8820749 C21.2960214,23.6435936 19.695016,27.4099893 18.0665455,31.1645775 C17.7883636,31.8059037 17.4012193,32.4006417 17.0549519,33.0114866 C16.7344171,33.5771551 16.2320856,33.7870588 15.5963422,33.7451551 C14.4130267,33.667123 13.331615,33.3034011 12.3571765,32.6253048 C11.5255829,32.0466738 11.2236578,31.1871016 11.2748021,30.2461604 C11.366631,28.5562781 11.4130267,26.8445775 11.730738,25.1905027 C12.3615401,21.906738 13.1820321,18.6598075 13.8824599,15.3887487 C14.059123,14.5635722 14.5189733,14.1868235 15.3046845,14.1051337 C16.2072513,14.0113155 17.1084706,13.8735401 18.0134118,13.8417112 C18.6681497,13.818738 19.3307166,13.9287273 19.9213476,14.4915722" id="Fill-3" fill="#D82530" mask="url(#mask-2)"></path>
                <path d="M50.364385,17.5642781 C50.5859679,17.0765775 50.8175615,16.6989305 50.9340963,16.2886203 C51.6311872,13.8327914 52.3028663,11.3697112 52.9792299,8.90804278 C53.0334545,8.71084492 53.1538396,8.45345455 53.0779251,8.31439572 C52.8943957,7.97807487 52.6711444,7.58650267 52.3564492,7.41805348 C51.9569198,7.20429947 51.6940749,7.58772193 51.5060535,7.92423529 C51.4257754,8.0677861 51.3488342,8.21576471 51.2923636,8.3697754 C50.3920428,10.8254759 49.8786738,13.3601711 49.7837647,15.974246 C49.7647701,16.4958289 49.797754,17.0333904 50.364385,17.5642781 Z M56.3401925,14.2056257 C57.2050267,14.0028449 57.4468235,13.3914225 57.6351658,12.8326845 C58.0431016,11.6220321 58.3628663,10.3815401 58.7131765,9.15163636 C58.8036578,8.83405348 58.8535187,8.50395722 58.9572193,8.19131551 C59.1293904,7.67262032 59.4766203,7.79993583 59.9503957,7.97108021 C59.7567273,9.43129412 59.4569198,10.8354225 58.9611979,12.1816043 C58.6360428,13.0645989 58.2481925,13.9558075 57.7162139,14.7239358 C56.8660107,15.9514011 55.6999572,16.1360214 54.489369,15.2844064 C54.0872086,15.0016043 53.7811123,14.4958717 53.5855187,14.027615 C53.3519358,13.4683636 53.2840428,12.8399358 53.0860107,11.9909519 C52.7559144,13.3857754 52.5448556,14.5532406 52.1969198,15.6783529 C51.759016,17.0944813 51.2999358,18.5176043 50.6826738,19.8608342 C50.0412834,21.2566203 49.1050267,21.3990802 47.9041283,20.4582032 C47.0482781,19.787615 46.5127701,18.921369 46.4958289,17.8141604 C46.4379465,14.0417968 47.138631,10.4106738 48.7073583,6.97796791 C49.4945455,5.25529412 50.8842353,4.74 52.7063743,5.32337968 C54.3109091,5.83706952 55.2970267,7.04752941 56.0992299,8.42631016 C56.2690909,8.71841711 56.2420749,9.14746524 56.2401497,9.51298396 C56.2341818,10.6699893 56.1820107,11.8268663 56.1807273,12.9837433 C56.1802781,13.3721711 56.2790374,13.7605989 56.3401925,14.2056257 L56.3401925,14.2056257 Z" id="Fill-4" fill="#D82530" mask="url(#mask-2)"></path>
            </g>
        </g>
    </g>
</svg>