<?xml version="1.0" encoding="UTF-8"?>
<svg width="76px" height="78px" viewBox="0 0 76 78" version="1.1" xmlns="http://www.w3.org/2000/svg" xmlns:xlink="http://www.w3.org/1999/xlink">
    <title>1.1.7</title>
    <g id="Page-2" stroke="none" stroke-width="1" fill="none" fill-rule="evenodd">
        <g id="1.1.7">
            <path d="M15.0353111,78 C6.76586784,78 0,71.056083 0,62.5690228 L0,15.4309772 C0,6.94391699 6.76586784,0 15.0353111,0 L60.9646889,0 C69.2341322,0 76,6.94391699 76,15.4309772 L76,62.5690228 C76,71.056083 69.2341322,78 60.9646889,78 L15.0353111,78 Z" id="Fill-1" fill="#FFFFFF"></path>
            <g id="Group-2" transform="translate(18.000000, 18.000000)">
                <path d="M26.76,40.8056549 C19.8894118,40.8056549 -5.85152841e-14,35.2456549 -5.85152841e-14,28.3703608 C-5.85152841e-14,21.5138902 19.8894118,15.9444785 26.76,15.9444785 C33.6258824,15.9444785 39.1905882,21.5138902 39.1905882,28.3703608 C39.1905882,35.2456549 33.6258824,40.8056549 26.76,40.8056549" id="Fill-1" fill="#1C874E"></path>
                <path d="M20.6329412,20.6150667 C16.1623529,17.9044785 5.41882353,6.41741965 8.13176471,1.9515373 C10.8423529,-2.516698 25.9905882,1.71624318 30.4588235,4.43859612 C34.9247059,7.14447847 36.3552941,12.9703608 33.6376471,17.4409491 C30.9247059,21.9091844 25.1058824,23.3350667 20.6329412,20.6150667" id="Fill-2" fill="#ACCD53"></path>
                <path d="M16.8988235,17.6315373 C18.3270588,18.9515373 19.6564706,20.0315373 20.6729412,20.6362432 C25.0117647,23.2785961 30.5929412,22.003302 33.4305882,17.8644785 C31.5105882,16.6668314 29.2588235,15.9444785 26.8305882,15.9444785 C24.5505882,15.9444785 20.8423529,16.5656549 16.8988235,17.6315373" id="Fill-3" fill="#174932"></path>
            </g>
        </g>
    </g>
</svg>