<?xml version="1.0" encoding="UTF-8"?>
<svg width="76px" height="78px" viewBox="0 0 76 78" version="1.1" xmlns="http://www.w3.org/2000/svg" xmlns:xlink="http://www.w3.org/1999/xlink">
    <title>1.1.5</title>
    <g id="Page-2" stroke="none" stroke-width="1" fill="none" fill-rule="evenodd">
        <g id="1.1.5">
            <path d="M15.0353111,78 C6.76586784,78 -7.10542736e-15,71.056083 -7.10542736e-15,62.5690228 L-7.10542736e-15,15.4309772 C-7.10542736e-15,6.94391699 6.76586784,0 15.0353111,0 L60.9646889,0 C69.2341322,0 76,6.94391699 76,15.4309772 L76,62.5690228 C76,71.056083 69.2341322,78 60.9646889,78 L15.0353111,78 Z" id="Fill-1-Copy-5" fill="#FFFFFF"></path>
            <g id="Recurso-1" transform="translate(8.000000, 21.000000)">
                <path d="M0.012972973,18 C0.012972973,8.06108108 13.4221622,0 29.9545946,0 C46.487027,0 59.9091892,8.06108108 59.9091892,18 C59.9091892,27.9178378 46.5,35.9789189 29.9545946,35.9789189 C13.4091892,35.9789189 0.012972973,27.9227027 0.012972973,18" id="Path" fill="#FFFFFF"></path>
                <path d="M24.5156757,11.5427027 C25.9161205,11.1536232 27.3627287,10.9556146 28.8162162,10.9540541 C34.907027,10.9540541 39.7945946,14.112973 39.7945946,17.9659459 C39.7945946,20.0254054 38.2978378,22.38 35.3432432,24.5172973 C33.9418319,24.898967 32.4967508,25.0968412 31.0443243,25.1059459 C24.9518919,25.1059459 20.0627027,21.9194595 20.0627027,18.0681081 C20.0627027,16.0216216 21.5594595,13.667027 24.5156757,11.5427027 M50.7243243,5.09351351 C56.352973,8.36756757 59.8589189,12.9502703 59.8589189,18.0162162 C59.8589189,27.96 46.4610811,36.0162162 29.9302703,36.0162162 C23.7486486,36.0162162 18.0032432,34.8908108 13.2275676,32.9578378 C14.4291892,33.06 21.8643243,33.6372973 27.8027027,33.2902703 C35.4243243,32.8427027 54.0583784,29.2362162 54.0583784,19.7140541 C54.0583784,11.7681081 39.4637838,9.24648649 33.8043243,9.55297297 C30.948763,9.69767754 28.1193396,10.1705177 25.3718919,10.9621622 C27.7783784,9.41351351 30.9891892,8.00594595 34.9832432,6.99405405 C34.9832432,6.99405405 44.987027,4.61513514 50.7227027,5.10162162 M0,18.0162162 C0,8.08702703 13.3978378,0.0389189189 29.9302703,0.0389189189 C36.1086486,0.0389189189 41.8378378,1.16432432 46.6167568,3.08108108 C45.4118919,2.99189189 37.9783784,2.41621622 32.0545946,2.75675676 C24.432973,3.19135135 5.79567568,6.82540541 5.79567568,16.32 C5.79567568,24.2918919 20.3902703,26.7875676 26.0383784,26.4794595 C28.8982327,26.3452166 31.7325967,25.8771765 34.4837838,25.0848649 C32.0789189,26.6464865 28.8551351,28.0410811 24.8610811,29.052973 C24.8610811,29.052973 14.867027,31.4189189 9.12324324,30.9583784 C3.49297297,27.6908108 0,23.0967568 0,18.0162162" id="Shape" fill="#DF0D20" fill-rule="nonzero"></path>
            </g>
        </g>
    </g>
</svg>