<?xml version="1.0" encoding="utf-8"?>
<!-- Generator: Adobe Illustrator 23.0.0, SVG Export Plug-In . SVG Version: 6.00 Build 0)  -->
<svg version="1.1" id="Capa_1" xmlns="http://www.w3.org/2000/svg" xmlns:xlink="http://www.w3.org/1999/xlink" x="0px" y="0px"
	 viewBox="0 0 944 240.1" style="enable-background:new 0 0 944 240.1;" xml:space="preserve">
<style type="text/css">
	.st0{fill:#68813C;}
	.st1{fill-rule:evenodd;clip-rule:evenodd;fill:#F6921E;}
	.st2{fill:url(#SVGID_1_);}
	.st3{fill:#567529;}
	.st4{fill:#6B7073;}
</style>
<title>Recurso 3</title>
<g>
	<g id="Capa_1-2">
		<path class="st0" d="M319,58.7h-11.2c-0.7-0.1-1.3,0.4-1.5,1.1c-0.6,1.6-21.5,60.8-22.2,62.6c-0.1,0.3-0.3,0.6-0.7,0.8H283
			c-0.4-0.1-0.6-0.4-0.7-0.8c-0.8-1.9-21.6-60.8-22.1-62.6c-0.3-0.8-1.1-1.3-2-1.1h-10.6c-1.2,0-2.4,0.8-1.8,2.4
			s29.2,80.5,29.2,80.5s0.6,1.7,1.7,1.7h12.6c1.2,0,1.8-1.7,1.8-1.7c28.5-78.4,27.1-74.4,29.2-80.8c0.5-1.6-0.6-2.4-1.8-2.4"/>
		<path class="st0" d="M42.6,56.5C18.8,56.8-0.3,76.3,0,100.1c0,0.3,0,0.7,0,1V177c0,3.5,0,3.5,3.4,3.5H10c3.2,0,3.5,0,3.5-3.5
			v-41.2c0-1.7,1.7-2.7,3.6-0.8c6.9,6.7,16.1,10.5,25.7,10.4c23.6-0.3,42.4-19.6,42.2-43.2c0-0.4,0-0.7,0-1.1
			c0.9-23.7-17.6-43.7-41.4-44.5C43.2,56.5,42.9,56.5,42.6,56.5 M42.6,132.4c-16.5-1-29.2-15-28.6-31.5
			c-0.6-16.5,12.1-30.5,28.6-31.4C59,70.5,71.6,84.6,71,101.1c0.7,16.5-12,30.5-28.4,31.5"/>
		<path class="st0" d="M138.8,56.5c-24,0.5-43,20.3-42.5,44.3c0,0.1,0,0.3,0,0.4c0,23.5,19,42.5,42.5,42.5s42.5-19,42.5-42.5
			c0.8-23.9-17.9-43.9-41.8-44.7C139.3,56.5,139.1,56.5,138.8,56.5 M138.8,131.9c-16.2-0.7-28.8-14.2-28.4-30.4
			c-0.7-16.5,11.9-30.6,28.4-31.7c16.3,1.1,28.8,15,28.2,31.4c0.4,16.2-12.3,29.8-28.6,30.4"/>
		<path class="st0" d="M463.2,56.5c-18.7-0.8-34.5,13.7-35.3,32.4c0,1,0,2,0,2.9v48.4c0,2.3,0,3,3,3h7.6c2.4,0,3.1,0,3.1-2.3V91.1
			c0-11.8,9.6-21.4,21.4-21.4c11.8,0,21.4,9.6,21.4,21.4c0,0,0,0,0,0v49.6c0,1.9,0.7,2.3,2.7,2.3h7.6c3,0,3.1-0.7,3.1-3.1V91.8
			c0.9-18.6-13.4-34.4-31.9-35.3C465.1,56.5,464.2,56.5,463.2,56.5"/>
		<path class="st0" d="M370.8,56.6c-23.2-0.5-42.4,18-42.9,41.2c0,1.1,0,2.2,0.1,3.3c-0.3,24.1,19.1,43.8,43.1,44c0.2,0,0.4,0,0.5,0
			c17,0.8,32.7-9.4,39-25.2c0.4-1.2-0.3-2.5-1.5-2.9c-0.3-0.1-0.6-0.1-0.9-0.1h-9.3c-1,0-1.9,0.5-2.4,1.4
			c-5.2,8.8-14.7,14.2-25,14.1c-8.9-0.1-17.3-4.2-22.8-11.2c-1-1.7-0.5-3,0.8-3.5l59.6-25.5c1.5-0.6,2.6-1.7,2.1-3.4
			C407.4,69.7,390.2,56.1,370.8,56.6 M392.1,85.5L346.5,105c-1.3,0.6-2.7,0-3.3-1.2c0-0.1-0.1-0.1-0.1-0.2
			c-2.5-12.5,3.7-25.2,15.2-30.8c12.4-6.6,27.8-2.3,35,9.7c0.6,0.9,0.4,2.1-0.4,2.8c-0.2,0.1-0.4,0.2-0.5,0.3"/>
		<path class="st0" d="M532.2,58.7H524c-1.7,0-2.7,0-2.7,2.1v80.4c0,2.4,2.3,2,2.9,2h8.4c1.7,0,2.7,0,2.7-2.1V60.8
			c0-2.4-2.4-1.9-2.9-1.9"/>
		<path class="st0" d="M595,56.7c-18.4-2-35,11.3-37,29.8c-0.2,2.1-0.3,4.3-0.1,6.5v48.2c0,2.4,2.3,2.1,2.9,2.1h8.2
			c1.7,0,2.7,0,2.7-2.1V92.6c-1.2-11.5,7.2-21.7,18.6-22.9c1.7-0.2,3.5-0.1,5.2,0.1c1.3,0.2,2.5-0.8,2.7-2.1c0-0.1,0-0.3,0-0.4v-7.6
			c0-2.1-1.4-2.9-3.3-2.9"/>
		<path class="st0" d="M235.4,56.7c-18.5-2-35.1,11.4-37.1,29.8c-0.2,2.1-0.3,4.3-0.1,6.4v48.2c0,2.4,2.3,2.1,2.9,2.1h8.2
			c1.8,0,2.7,0,2.7-2.1V92.6c-1.1-11.5,7.4-21.7,18.9-22.8c1.5-0.1,2.9-0.1,4.4,0.1c1.3,0.2,2.5-0.7,2.6-2c0-0.2,0-0.3,0-0.5v-7.6
			c0-2.1-1.4-2.9-3.3-2.9"/>
		<path class="st1" d="M943.9,143.4c0-1-0.6-1.9-1.4-2.3l0,0l-21.8-13.4l22.2-16l0,0c0.7-0.5,1.1-1.2,1.1-2.1c0-1.3-0.9-2.4-2.2-2.5
			l0,0l-27.3-2.7L938.4,75c1-1,0.9-2.6,0-3.5c-0.4-0.4-1-0.7-1.6-0.7l0,0l-38,6.2L910,51.9l0,0c0.1-0.3,0.1-0.7,0-1
			c0-1.4-1.2-2.6-2.6-2.6h-0.8l0,0l-25.1,11.3l6.1-37.4l0,0c0-0.2,0-0.4,0-0.5c0-1.4-1.2-2.6-2.6-2.6c-0.5,0-1,0.1-1.4,0.5l0,0l0,0
			l-29.2,23.8l-2.7-27.1l0,0l0,0c0-1.4-1.1-2.5-2.5-2.5l0,0c-0.9,0-1.8,0.5-2.2,1.4l-16,22.2L817,1.9l0,0c-0.3-1.1-1.3-1.9-2.4-1.9
			c-1.1,0-2.1,0.8-2.4,1.9l-13.5,35.5l-16-22.2l0,0c-0.4-0.9-1.2-1.4-2.2-1.4c-1.3,0-2.4,1.1-2.4,2.4c0,0,0,0.1,0,0.1v0.5l0,0
			l-2.7,27l-29.5-24.1c-0.5-0.3-1-0.4-1.5-0.5c-1.4,0-2.6,1.2-2.6,2.6c0,0,0,0.5,0,0.6l0,0l6.1,37.2l-25.1-11.3l0,0
			c-0.3-0.1-0.6-0.1-0.9,0c-1.4,0-2.5,1.2-2.5,2.6c0,0.4,0,0.7,0,1.1l11.2,25l-38-6.2l0,0c-1.4,0-2.5,1.1-2.5,2.5c0,0,0,0,0,0
			c0,0.7,0.3,1.4,0.8,1.8l23.9,29.3l-27.3,2.7l0,0c-1.3,0.1-2.3,1.2-2.3,2.5c0,0.9,0.4,1.6,1.1,2.1l22.2,15.9L686.6,141l0,0l0,0
			c-0.9,0.4-1.4,1.3-1.4,2.2L943.9,143.4z"/>
		
			<linearGradient id="SVGID_1_" gradientUnits="userSpaceOnUse" x1="728.1157" y1="140.1998" x2="900.7975" y2="140.1998" gradientTransform="matrix(1 0 0 -1 0 240.4944)">
			<stop  offset="0" style="stop-color:#F6921E"/>
			<stop  offset="0.29" style="stop-color:#F26D21"/>
			<stop  offset="0.58" style="stop-color:#EF4E23"/>
			<stop  offset="0.83" style="stop-color:#EE3B24"/>
			<stop  offset="1" style="stop-color:#ED3425"/>
		</linearGradient>
		<path class="st2" d="M728.1,143.4h172.7c0-47.7-38.7-86.3-86.4-86.3C766.8,57.2,728.1,95.8,728.1,143.4"/>
		<path class="st3" d="M319,59h-10.6c-0.7,0-1.3,0.5-1.5,1.1c-0.6,1.6-21.5,60.8-22.1,62.4c0,0.5-0.5,0.8-0.8,0.8l0,0
			c-0.4-0.1-0.7-0.4-0.8-0.8c-0.7-1.9-21.5-60.7-22-62.4c-0.3-0.7-0.9-1.2-1.7-1.1h-11.2c-1.2,0-2.4,0.8-1.7,2.4
			c0.6,1.7,29.2,80.3,29.2,80.3s0.5,1.7,1.7,1.7h12.6c1.2,0,1.7-1.7,1.7-1.7C320.3,63.5,319,67.5,321,61.4c0.5-1.7-0.5-2.4-1.8-2.4"
			/>
		<path class="st3" d="M43.6,56.9C19.9,57.1,0.9,76.5,1.1,100.2c0,0.4,0,0.7,0,1.1v75.9c0,3.5,0,3.5,3.4,3.5h6.5
			c3.2,0,3.5,0,3.5-3.5V136c0-1.7,1.7-2.7,3.6-0.8c6.8,6.7,16,10.4,25.6,10.4c23.5-0.2,42.4-19.5,42.2-43c0-0.4,0-0.8,0-1.2
			c0.8-23.7-17.8-43.6-41.5-44.4C44.1,56.9,43.9,56.9,43.6,56.9 M43.6,132.8c-16.4-1.1-29.1-15-28.4-31.5
			c-0.6-16.4,12-30.4,28.4-31.4c16.5,0.8,29.1,14.8,28.3,31.3c0,0.1,0,0.1,0,0.2C72.8,117.8,60.2,131.9,43.6,132.8
			C43.7,132.8,43.6,132.8,43.6,132.8"/>
		<path class="st3" d="M139.8,56.9c-23.9,0.5-42.9,20.2-42.5,44.1c0,0.2,0,0.3,0,0.5c0,23.4,19,42.5,42.4,42.5
			c23.4,0,42.5-19,42.5-42.4c0,0,0,0,0,0c0.8-23.9-18-43.8-41.8-44.6C140.2,56.9,140,56.9,139.8,56.9 M139.8,132.1
			c-16.2-0.7-28.8-14.2-28.4-30.4c-0.7-16.5,11.9-30.5,28.4-31.6c16.4,1,29,14.9,28.5,31.3c0.4,16.2-12.3,29.8-28.5,30.4"/>
		<path class="st3" d="M463.6,56.9C445,56,429.2,70.4,428.4,89c0,1,0,2.1,0,3.1v48.4c0,2.2,0,3,3,3h7.6c2.4,0,3.1,0,3.1-2.3V91.7
			c-0.7-11.8,8.3-21.9,20.1-22.7c11.8-0.7,21.9,8.3,22.7,20.1c0.1,0.8,0.1,1.7,0,2.5v49.5c0,1.9,0.8,2.3,2.7,2.3h7.6
			c3,0,3.2-0.7,3.2-3.1V92.1c0.9-18.6-13.4-34.3-32-35.2c-1-0.1-2.1-0.1-3.1,0"/>
		<path class="st3" d="M371.3,57c-23.2-0.5-42.4,17.9-42.9,41.1c0,1.1,0,2.2,0.1,3.3c-0.3,24,19,43.7,43.1,44c0.2,0,0.4,0,0.6,0
			c17,0.8,32.6-9.3,38.9-25.1c0.4-1.2-0.3-2.5-1.5-2.9c-0.3-0.1-0.6-0.1-0.9-0.1h-9.3c-1,0-1.9,0.5-2.4,1.4
			c-5.2,8.8-14.6,14.2-24.8,14.1c-8.9-0.1-17.3-4.2-22.8-11.2c-1-1.7-0.5-3,0.8-3.5l59.9-25.4c1.6-0.3,2.6-1.9,2.2-3.4
			c0,0,0,0,0-0.1C408.2,69.8,390.9,56.3,371.3,57 M392.7,85.8l-45.6,19.5c-1.3,0.6-2.7,0-3.3-1.2c0-0.1-0.1-0.1-0.1-0.2
			c-2.5-12.5,3.7-25.2,15.2-30.8c12.4-6.6,27.7-2.3,34.9,9.7c0.7,0.9,0.5,2.1-0.4,2.8c-0.2,0.1-0.3,0.2-0.5,0.3"/>
		<path class="st3" d="M532.4,59H524c-1.8,0-2.8,0-2.8,2.1v80.3c0,2.4,2.3,2,2.9,2h8.3c1.8,0,2.8,0,2.8-2.1V60.8c0-2.4-2.4-2-2.9-2"
			/>
		<path class="st3" d="M595.1,57.1c-18.4-2-35,11.4-36.9,29.8c-0.2,2.1-0.2,4.3-0.1,6.4v48.1c0,2.4,2.3,2.1,2.9,2.1h8.6
			c1.7,0,2.7,0,2.7-2.2V92.9c-1.1-11.5,7.3-21.8,18.8-22.9c1.7-0.2,3.4-0.1,5.1,0.1c1.3,0.2,2.5-0.7,2.6-2c0-0.1,0-0.3,0-0.4v-7.6
			c0-2.1-1.4-2.9-3.3-2.9"/>
		<path class="st3" d="M235.4,57.1c-18.4-2-35,11.4-36.9,29.8c-0.2,2.1-0.2,4.3-0.1,6.4v48.1c0,2.4,2.3,2.1,2.8,2.1h8.2
			c1.8,0,2.7,0,2.7-2.2V92.9c-1.1-11.5,7.3-21.8,18.8-22.9c1.7-0.2,3.4-0.1,5,0.1c1.3,0.2,2.5-0.8,2.7-2.1c0-0.1,0-0.2,0-0.3v-7.6
			c0-2.1-1.4-2.9-3.3-2.9"/>
		<path class="st4" d="M224,230.2c-3.2-0.1-6.2-1.1-8.9-2.8c-0.5-0.3-0.9-1-0.8-1.6c0.1-1.1,1-1.9,2.1-1.8c0.4,0,0.8,0.2,1.2,0.5
			c2,1.3,4.3,2,6.7,2c3.7,0,7.1-1.8,7.1-4.3s-3.8-4.4-7.2-5.8c-3.4-1.4-10-4.2-10-9.6c0.7-5.2,5.4-8.9,10.6-8.4c3.1,0,6.1,1,8.5,3
			c0.5,0.4,0.7,1,0.8,1.6c-0.1,1.1-1.1,1.9-2.1,1.8c-0.4,0-0.7-0.2-1-0.4c-1.7-1.3-3.9-2-6.1-2.1c-3.6,0-6.7,2.1-6.7,4.6
			s4.3,4.5,7.1,5.6c4.4,1.8,10.1,4.6,10.1,9.6S228.7,230.2,224,230.2"/>
		<path class="st4" d="M240.8,214.2c0-8.8,7.1-15.9,15.9-15.9c8.8,0,15.9,7.1,15.9,15.9c0,8.8-7.1,15.9-15.9,15.9l0,0
			C248,230.2,240.8,223,240.8,214.2C240.8,214.2,240.8,214.2,240.8,214.2 M244.6,214.2c-0.1,6.7,5.3,12.2,12,12.3
			c6.7,0.1,12.2-5.3,12.3-12c0.1-6.7-5.3-12.2-12-12.3c-0.1,0-0.1,0-0.2,0C250.1,202.2,244.7,207.6,244.6,214.2 M252.7,193.7
			c-0.2,0.1-0.4,0.1-0.6,0c-0.7,0-1.3-0.6-1.3-1.4c0.1-0.4,0.3-0.8,0.6-1.1l7-5.8c0.3-0.3,0.8-0.4,1.2-0.4c1.5,0.1,2.6,1.3,2.6,2.8
			c0,0.8-0.4,1.6-1.1,1.9L252.7,193.7z"/>
		<path class="st4" d="M280,225.7v-35.3c0-0.3-0.2-0.6-0.5-0.8c-0.7-0.3-1.1-1-1.1-1.7c0-1.1,1-1.9,2-1.9c0,0,0,0,0,0
			c2.2,0,3.3,1.9,3.3,4.2v35.3c0,0.3,0.2,0.6,0.5,0.8c0.7,0.3,1.1,1,1.1,1.7c0,1.1-1,1.9-2,1.9c0,0,0,0,0,0
			C281.1,229.9,280,228,280,225.7"/>
		<path class="st4" d="M292.3,214.2c0-8.8,7.1-15.9,15.9-15.9c8.8,0,15.9,7.1,15.9,15.9c0,8.8-7.1,15.9-15.9,15.9c0,0-0.1,0-0.1,0
			C299.4,230.2,292.3,223.1,292.3,214.2C292.3,214.3,292.3,214.2,292.3,214.2 M296.1,214.2c-0.1,6.7,5.3,12.2,12,12.3
			c6.7,0.1,12.2-5.3,12.3-12c0.1-6.7-5.3-12.2-12-12.3c-0.1,0-0.2,0-0.2,0C301.6,202.3,296.3,207.6,296.1,214.2"/>
		<path class="st4" d="M373.1,225.7v-13.1c0.6-4.9-2.9-9.3-7.8-9.8c-0.6-0.1-1.1-0.1-1.7,0c-4.8-0.3-8.8,3.4-9.1,8.2
			c0,0.1,0,0.3,0,0.4v14.6c0,2.2-0.8,4.1-3,4.2c-1.1,0-2.1-0.8-2.1-2c0-0.1,0-0.2,0-0.3c0-0.8,0.4-1.5,1.1-1.7
			c0.3-0.1,0.5-0.4,0.5-0.8v-34.9c0-0.3-0.2-0.6-0.5-0.8c-0.7-0.3-1.2-1-1.1-1.7c0-1,0.8-1.9,1.9-1.9c0.1,0,0.1,0,0.2,0
			c2.2,0,3.3,1.9,3.3,4.2v13.4c2-3.1,5.4-5,9.1-4.9c9.2,0,13.4,5.2,13.4,14.2v12.6c-0.1,0.2-0.1,0.5,0,0.8c0.7,0.3,1.1,1,1.1,1.7
			c0,1.1-1,1.9-2,1.9c0,0,0,0,0,0c-2.2,0-3.3-1.9-3.3-4.2"/>
		<path class="st4" d="M405.8,227.1c-0.1-0.6-0.1-1.2,0-1.7c-2.2,3.1-5.8,4.9-9.6,4.9c-5.7,0.7-10.9-3.4-11.6-9.1
			c0-0.3-0.1-0.6-0.1-0.8c0-7.6,6.4-11.3,13.7-11.3c2.7,0,5.3,0.6,7.6,2v-1.7c0.1-1.2,0.1-2.4,0-3.6c-1-2.7-4.4-3.4-7.6-3.4
			c-2.3,0-4.7,0.4-6.9,1.1h-0.8c-1,0-1.8-0.7-1.8-1.7c0-0.1,0-0.2,0-0.2c0-0.8,0.6-1.5,1.3-1.7c2.6-0.9,5.3-1.4,8-1.4
			c4.8-0.7,9.4,1.7,11.7,5.9c0.5,1.5,0.7,3.2,0.6,4.8v16.4c-0.1,0.2-0.1,0.5,0,0.8c0.7,0.3,1.2,1,1.2,1.7c0,1.2-0.9,2.1-2.1,2.2
			c-1.7,0-2.8-1.4-3.3-3.1 M406.3,214.4c-2.3-1.3-4.9-2-7.6-1.9c-4.9,0-9.6,2.2-9.6,7.6s3.9,6.3,7.6,6.3c4.7,0.4,8.8-3,9.4-7.6
			L406.3,214.4z"/>
		<path class="st4" d="M416.8,203.4c-0.1-0.4-0.5-0.6-0.8-0.7c-0.9-0.2-1.5-1-1.5-2c0-1.1,0.9-2.1,2-2.1c0.1,0,0.2,0,0.3,0
			c1.5,0.1,2.9,1.1,3.3,2.6l7.6,19.2l1.5,5.2l0,0l1.6-5.2l7.6-19.2c0.5-1.5,1.9-2.6,3.5-2.6c1.1-0.1,2.1,0.8,2.2,1.9
			c0,0.1,0,0.1,0,0.2c0.1,0.9-0.6,1.7-1.5,1.9c-0.3,0.1-0.6,0.4-0.8,0.7l-10.5,26.9c-1,3.3-2.9,6.3-5.4,8.7c-1.2,0.8-2.6,1.3-4,1.3
			c-1.6-0.1-3.2-0.4-4.6-1c-0.7-0.4-1.2-1.1-1.2-1.9c0.1-0.9,0.8-1.7,1.7-1.8c1.1,0,2.4,0.8,3.8,0.8c0.6,0,1.3-0.2,1.8-0.5
			c1.4-1.4,2.6-3.1,3.3-4.9c0,0,0-0.5,0-0.8L416.8,203.4z"/>
		<path class="st4" d="M492.8,225.1c-2.1,2.9-5.4,4.7-9,4.8c-6.7,0.9-12.8-3.9-13.7-10.6c-0.1-1-0.1-2.1,0-3.1v-13.1
			c0.1-0.2,0.1-0.5,0-0.8c-0.7-0.3-1.1-1-1.1-1.7c0-1.1,0.9-2,2-2c0,0,0.1,0,0.1,0c2.2,0,3.3,2,3.3,4.3v13.3c0,6.8,3.1,9.9,9.9,9.9
			c4.6,0.4,8.6-3,8.9-7.6c0-0.2,0-0.5,0-0.7v-15.2c0-2.3,1.1-4.3,3.3-4.3c1.1,0,2,0.9,2.1,2c0,0.8-0.4,1.4-1.1,1.7
			c-0.3,0.1-0.5,0.4-0.5,0.8v22.3c0,0.3,0.2,0.6,0.5,0.8c0.7,0.3,1.1,1,1.1,1.7c0,1.1-1,1.9-2,1.9c0,0,0,0,0,0
			c-2.6,0-3.5-2.5-3.3-4.8"/>
		<path class="st4" d="M530,225.7v-13.1c0.7-4.7-2.6-9.1-7.3-9.8c-0.7-0.1-1.5-0.1-2.2,0c-4.8-0.2-8.9,3.5-9.1,8.3
			c0,0.2,0,0.4,0,0.6v14.2c0,2.3-1.1,4.2-3.3,4.2c-1.1,0-2-0.8-2.1-1.9c0,0,0,0,0,0c0-0.8,0.4-1.4,1.1-1.7c0.3-0.1,0.5-0.4,0.5-0.8
			v-22.4c0-0.3-0.2-0.6-0.5-0.8c-0.7-0.3-1.2-1-1.1-1.8c0-1.1,0.9-2,2-2.1c2.1,0,3.4,1.4,3.4,3.9v1.1c2-3.1,5.4-5,9.1-5
			c6.8-0.6,12.8,4.4,13.4,11.2c0.1,0.9,0.1,1.8-0.1,2.7v12.6c-0.1,0.2-0.1,0.5,0,0.8c0.7,0.3,1.1,1,1.1,1.7c0,1-0.8,1.9-1.9,1.9
			c-0.1,0-0.1,0-0.2,0c-2.2,0-3.3-1.9-3.3-4.2"/>
		<path class="st4" d="M540.9,214.2c0-8.8,7.1-15.9,15.9-15.9c8.8,0,15.9,7.1,15.9,15.9c0,8.8-7.1,15.9-15.9,15.9l0,0
			C548.1,230.2,540.9,223,540.9,214.2 M544.7,214.2c-0.1,6.7,5.3,12.2,12,12.3c6.7,0.1,12.2-5.3,12.3-12c0.1-6.7-5.3-12.2-12-12.3
			c-0.1,0-0.1,0-0.2,0C550.2,202.2,544.8,207.6,544.7,214.2"/>
	</g>
</g>
</svg>
