<svg xmlns="http://www.w3.org/2000/svg" width="2000" height="470" viewBox="0 0 26.458 3.44">
  <path d="M23.924.006a.307.307 0 00-.303.306c0 .171.137.307.303.307a.306.306 0 100-.612zM2.422.151A11.67 11.67 0 00.584.518.164.164 0 00.476.71l.112.437c.019.074.094.112.17.087.619-.19 1.24-.321 1.881-.416.073-.01.113-.086.086-.162-.056-.16-.085-.24-.143-.4a.157.157 0 00-.16-.105zm12.777.018c-.157 0-.457.088-.595.191v2.552h.595zm6.707 0a1.28 1.28 0 00-.595.191v2.437c.197.092.524.155.863.155.694 0 1.12-.417 1.12-1.14 0-.518-.241-.927-.828-.927-.185 0-.39.08-.56.226zM4.973.265a5.56 5.56 0 00-.855.08v2.567h.97c.528 0 .993-.31.993-.775 0-.353-.154-.572-.513-.676.233-.091.363-.258.363-.509 0-.437-.426-.687-.958-.687zm0 .5c.249 0 .363.116.363.279 0 .17-.11.27-.347.27h-.268V.786c.083-.012.17-.02.252-.02zm6.605.116c-.623 0-1.103.366-1.103 1.062 0 .644.398 1.01 1.005 1.01.177 0 .401-.04.618-.128l-.106-.477a1.09 1.09 0 01-.367.072c-.374 0-.524-.195-.524-.513 0-.314.162-.52.56-.52.063 0 .173.015.24.035.09-.1.173-.275.197-.473a2.224 2.224 0 00-.52-.068zm1.663 0c-.603 0-1.029.398-1.029 1.034 0 .628.402 1.037 1.029 1.037.622 0 1.028-.397 1.028-1.037 0-.62-.402-1.034-1.028-1.034zm3.322 0c-.603 0-1.029.398-1.029 1.034 0 .628.402 1.037 1.029 1.037.622 0 1.028-.397 1.028-1.037 0-.62-.402-1.034-1.028-1.034zm-7.18.004c-.327 0-.73.091-.977.258l-.004 1.77h.595V1.422a.995.995 0 01.252-.032c.24 0 .378.107.378.318v1.205h.591V1.497c0-.385-.382-.612-.835-.612zm9.426 0c-.311 0-.682.091-.918.258l-.004 1.77h.595V1.422a.994.994 0 01.252-.032c.236 0 .37.107.37.318v1.205h.588V1.736a.835.835 0 00-.048-.286.81.81 0 01.304-.06c.236 0 .37.107.37.318v1.205h.587V1.497c0-.381-.334-.612-.764-.612-.236 0-.516.087-.717.219a.92.92 0 00-.615-.22zm5.119 0a.76.76 0 00-.3.056v1.972h.596V.94a.742.742 0 00-.296-.056zM7.15.889c-.26 0-.5.064-.745.155l.047.143c.063.175.138.235.233.235.04 0 .343-.052.457-.052.217 0 .315.064.327.31-.65.02-1.198.16-1.198.728 0 .377.343.548.757.548.465 0 .808-.087 1.02-.25V1.66c0-.556-.33-.771-.898-.771zm18.248 0c-.26 0-.5.064-.745.155l.047.143c.063.175.138.235.233.235.04 0 .343-.052.457-.052.216 0 .315.064.327.31-.65.02-1.198.16-1.198.728 0 .377.343.548.757.548.465 0 .807-.087 1.02-.25V1.66c0-.556-.33-.771-.898-.771zm-22.452.234c-.98.126-1.936.368-2.841.769a.178.178 0 00-.092.187l.09.47c.015.08.09.116.164.08.92-.421 1.891-.69 2.888-.85.064-.01.096-.082.072-.157L3.1 1.235c-.024-.072-.09-.12-.154-.112zm19.268.267c.303 0 .492.131.492.497 0 .318-.15.588-.496.588-.095 0-.197-.008-.304-.024v-.998a.718.718 0 01.308-.063zm-8.973.008c.276 0 .433.19.433.517 0 .342-.157.52-.433.52-.272 0-.433-.178-.433-.52 0-.326.165-.517.433-.517zm3.322 0c.276 0 .433.19.433.517 0 .342-.157.52-.433.52-.272 0-.434-.178-.434-.52 0-.326.166-.517.434-.517zM4.72 1.81h.315c.264 0 .398.088.398.299 0 .194-.145.298-.402.298h-.31zm2.634.25h.114v.343a.547.547 0 01-.339.1c-.193 0-.287-.053-.287-.196 0-.186.244-.246.512-.246zm18.248 0h.114v.343a.547.547 0 01-.339.1c-.193 0-.288-.053-.288-.196 0-.186.245-.246.513-.246zm-22.669.107c-.612.133-1.21.293-1.804.497a.153.153 0 00-.098.18l.119.436c.022.082.115.124.2.091a17.803 17.803 0 011.802-.546c.059-.014.088-.083.066-.154a37.15 37.15 0 00-.122-.391c-.025-.077-.096-.127-.163-.113z"/>
</svg>
