<?xml version="1.0" encoding="utf-8"?>
<!-- Generator: Adobe Illustrator 23.0.0, SVG Export Plug-In . SVG Version: 6.00 Build 0)  -->
<svg version="1.1" id="Capa_1" xmlns="http://www.w3.org/2000/svg" xmlns:xlink="http://www.w3.org/1999/xlink" x="0px" y="0px"
	 viewBox="0 0 1506.4 380" style="enable-background:new 0 0 1506.4 343;" xml:space="preserve">
<style type="text/css">
	.st0{fill:#0033A0;}
</style>
<g>
	<g>
		<path class="st0" d="M63.9,76.4c31.8,0,56.2,5.6,73.2,16.8s25.6,29.5,25.6,55c0,25.7-8.6,44.3-25.8,55.7
			c-17.2,11.4-41.8,17.1-73.8,17.1H48v71.5H0V82c10.4-2.1,21.6-3.5,33.3-4.4C44.9,76.8,55.2,76.4,63.9,76.4 M67.1,117.4
			c-3.5,0-6.9,0.1-10.4,0.3c-3.4,0.2-6.3,0.4-8.7,0.6v61.7h15.1c16.6,0,29.2-2.3,37.5-6.8c8.4-4.5,12.6-12.9,12.6-25.3
			c0-6-1-10.9-3.2-14.8s-5.2-7-9.2-9.4s-8.9-4-14.6-4.9C80.4,117.9,74,117.4,67.1,117.4"/>
		<path class="st0" d="M289.5,171.1c-4.1-1-8.9-2.1-14.4-3.2c-5.5-1.1-11.5-1.7-17.9-1.7c-2.8,0-6.3,0.3-10.3,0.8
			c-4,0.5-7,1-9.1,1.7v124h-45.9V139c8.3-2.8,17.9-5.6,29.1-8.2c11.2-2.6,23.7-3.9,37.3-3.9c2.5,0,5.4,0.2,8.9,0.5
			c3.5,0.3,6.9,0.8,10.5,1.2c3.5,0.5,6.9,1.1,10.4,1.8c3.5,0.8,6.5,1.6,8.9,2.7L289.5,171.1z"/>
		<path class="st0" d="M467,211.2c0,12.7-1.9,24.4-5.5,35c-3.7,10.6-9,19.7-16,27.2c-6.9,7.5-15.3,13.3-25.1,17.4
			c-9.7,4.1-20.6,6.2-32.8,6.2c-11.9,0-22.7-2.1-32.5-6.2c-9.8-4.1-18-9.9-25.1-17.4c-6.9-7.5-12.4-16.5-16.3-27.2
			c-3.9-10.5-5.8-22.2-5.8-35c0-12.7,2-24.4,6-34.9c4-10.5,9.5-19.5,16.6-26.9c7-7.4,15.5-13.1,25.3-17.3c9.7-4.2,20.3-6.2,31.8-6.2
			c11.7,0,22.4,2.1,32.1,6.2c9.8,4.1,18.1,9.9,25.1,17.3c6.9,7.4,12.4,16.3,16.3,26.9C465.1,186.7,467,198.4,467,211.2 M420.3,211.2
			c0-14.2-2.9-25.3-8.5-33.4c-5.6-8.1-13.7-12.2-24.1-12.2s-18.6,4.1-24.3,12.2c-5.7,8.2-8.6,19.3-8.6,33.4
			c0,14.2,2.9,25.5,8.6,33.8c5.7,8.4,13.9,12.4,24.3,12.4s18.5-4.2,24.1-12.4C417.4,236.6,420.3,225.3,420.3,211.2"/>
		<path class="st0" d="M497.8,89.9l45.9-7.4v47.8h55.1v38.3h-55.1v57.1c0,9.7,1.7,17.4,5,23.2c3.4,5.8,10.2,8.6,20.4,8.6
			c4.9,0,10-0.5,15.2-1.4c5.2-0.9,10-2.2,14.3-3.9l6.5,35.8c-5.5,2.2-11.7,4.3-18.4,5.9c-6.7,1.7-15.1,2.5-24.9,2.5
			c-12.5,0-22.9-1.7-31.1-5.1c-8.2-3.4-14.7-8.1-19.7-14.2c-4.9-6.1-8.4-13.4-10.4-22c-2-8.6-2.9-18.2-2.9-28.7L497.8,89.9
			L497.8,89.9z"/>
		<path class="st0" d="M619,212.7c0-14.4,2.2-27,6.7-37.8c4.4-10.8,10.2-19.8,17.4-27c7.2-7.2,15.5-12.6,24.8-16.3
			c9.3-3.7,18.9-5.6,28.8-5.6c23,0,41.1,7,54.4,21.1c13.3,14.1,20,34.8,20,62.1c0,2.7-0.1,5.6-0.3,8.8c-0.2,3.1-0.4,6-0.7,8.5H666
			c1,9.5,5.4,17,13.2,22.5c7.8,5.5,18.2,8.4,31.3,8.4c8.5,0,16.7-0.8,24.8-2.3c8.1-1.5,14.7-3.4,19.9-5.7l6.2,37.3
			c-2.5,1.2-5.7,2.5-9.9,3.7c-4.1,1.2-8.6,2.3-13.7,3.2c-5,1-10.4,1.7-16.1,2.3c-5.7,0.7-11.5,1-17.2,1c-14.5,0-27.3-2.2-38-6.5
			c-10.7-4.3-19.7-10.3-26.8-17.8c-7-7.5-12.3-16.4-15.7-26.7C620.7,235.8,619,224.7,619,212.7 M726.8,195.1
			c-0.2-3.9-0.9-7.7-2-11.4c-1.1-3.7-2.8-7-5.2-9.9c-2.4-2.9-5.3-5.2-8.9-7.1c-3.6-1.9-8.1-2.8-13.4-2.8c-5.1,0-9.6,0.9-13.2,2.7
			c-3.7,1.7-6.7,4.1-9.2,6.9c-2.5,2.8-4.4,6.2-5.7,10c-1.3,3.8-2.3,7.7-2.9,11.6C666,195.1,726.8,195.1,726.8,195.1z"/>
		<path class="st0" d="M795.6,211.4c0-11.7,1.9-22.8,5.7-33.2s9.3-19.5,16.4-27.2s15.9-13.9,26.1-18.3c10.3-4.5,21.9-6.7,35.1-6.7
			c8.6,0,16.5,0.8,23.7,2.3c7.1,1.5,14.2,3.7,20.9,6.7l-9.5,36.7c-4.3-1.6-9-3-14.2-4.3c-5.1-1.2-10.9-1.9-17.2-1.9
			c-13.6,0-23.7,4.2-30.3,12.6c-6.7,8.5-10,19.6-10,33.3c0,14.6,3.1,25.9,9.4,33.9c6.3,8.1,17.2,12.1,32.8,12.1
			c5.5,0,11.5-0.5,17.9-1.5s12.3-2.7,17.5-4.9l6.5,37.6c-5.3,2.3-12,4.2-20,5.8c-8,1.6-16.8,2.5-26.5,2.5c-14.7,0-27.5-2.2-38.1-6.7
			c-10.6-4.4-19.5-10.4-26.3-18c-6.9-7.6-11.9-16.6-15.1-27C797.2,234.8,795.6,223.6,795.6,211.4"/>
		<path class="st0" d="M938.7,211.4c0-11.7,1.9-22.8,5.7-33.2s9.3-19.5,16.4-27.2c7.2-7.7,15.9-13.9,26.1-18.3
			c10.3-4.5,21.9-6.7,35.1-6.7c8.6,0,16.5,0.8,23.7,2.3c7.2,1.5,14.2,3.7,20.9,6.7l-9.5,36.7c-4.3-1.6-9-3-14.2-4.3
			s-10.8-1.9-17.2-1.9c-13.6,0-23.7,4.2-30.3,12.6c-6.6,8.5-10,19.6-10,33.3c0,14.6,3.1,25.9,9.4,33.9c6.3,8.1,17.2,12.1,32.8,12.1
			c5.5,0,11.5-0.5,17.9-1.5s12.2-2.7,17.6-4.9l6.5,37.6c-5.3,2.3-12,4.2-20,5.8c-8,1.6-16.8,2.5-26.4,2.5c-14.8,0-27.5-2.2-38.2-6.7
			c-10.6-4.4-19.5-10.4-26.3-18s-11.9-16.6-15.1-27C940.3,234.8,938.7,223.6,938.7,211.4"/>
		<path class="st0" d="M1147.3,83.5c0,8.5-2.8,15.1-8.2,19.9c-5.4,4.8-11.9,7.2-19.2,7.2c-7.4,0-13.8-2.4-19.2-7.2
			c-5.4-4.8-8.2-11.5-8.2-19.9c0-8.5,2.8-15,8.2-19.9c5.4-4.8,11.9-7.2,19.2-7.2c7.4,0,13.8,2.4,19.2,7.2
			C1144.6,68.4,1147.3,75,1147.3,83.5 M1142.9,292.6h-45.9V130.3h45.9V292.6z"/>
		<path class="st0" d="M1334.4,211.2c0,12.7-1.9,24.4-5.5,35c-3.7,10.6-9,19.7-16,27.2c-6.9,7.5-15.3,13.3-25.1,17.4
			s-20.7,6.2-32.8,6.2c-11.9,0-22.7-2.1-32.5-6.2c-9.7-4.1-18.1-9.9-25.1-17.4c-7-7.5-12.4-16.5-16.3-27.2
			c-3.9-10.5-5.8-22.2-5.8-35c0-12.7,2-24.4,6-34.9c4-10.5,9.5-19.5,16.6-26.9s15.5-13.1,25.3-17.3c9.7-4.2,20.3-6.2,31.8-6.2
			c11.7,0,22.4,2.1,32.1,6.2c9.7,4.1,18.1,9.9,25.1,17.3c6.9,7.4,12.3,16.3,16.3,26.9C1332.4,186.7,1334.4,198.4,1334.4,211.2
			 M1292.9,72.1l-50.6,42.8l-21.1-18.8l43.5-50L1292.9,72.1z M1287.5,211.2c0-14.2-2.8-25.3-8.5-33.4c-5.7-8.1-13.7-12.2-24.1-12.2
			c-10.4,0-18.5,4.1-24.3,12.2c-5.8,8.2-8.6,19.3-8.6,33.4c0,14.2,2.8,25.5,8.6,33.8c5.7,8.4,13.9,12.4,24.3,12.4
			c10.5,0,18.5-4.2,24.1-12.4C1284.8,236.6,1287.5,225.3,1287.5,211.2"/>
		<path class="st0" d="M1366.7,135.9c7.8-2.3,17.9-4.4,30.1-6.4c12.3-2,25.3-2.9,38.8-2.9c13.8,0,25.2,1.8,34.3,5.4
			s16.3,8.6,21.8,15.3c5.3,6.7,9.1,14.4,11.4,23.5c2.3,9,3.4,19.1,3.4,30.2v91.6h-45.9v-86.1c0-14.8-1.9-25.3-5.8-31.4
			c-3.9-6.2-11.2-9.3-21.9-9.3c-3.3,0-6.7,0.2-10.4,0.5c-3.7,0.3-7,0.7-9.9,1.1v125.2h-45.9V135.9L1366.7,135.9z"/>
	</g>
</g>
</svg>
