<?xml version="1.0" encoding="UTF-8"?>
<svg width="76px" height="78px" viewBox="0 0 76 78" version="1.1" xmlns="http://www.w3.org/2000/svg" xmlns:xlink="http://www.w3.org/1999/xlink">
    <title>1.1.11</title>
    <defs>
        <filter id="filter-1">
            <feColorMatrix in="SourceGraphic" type="matrix" values="0 0 0 0 0.070588 0 0 0 0 0.262745 0 0 0 0 0.439216 0 0 0 1.000000 0"></feColorMatrix>
        </filter>
    </defs>
    <g id="Page-2" stroke="none" stroke-width="1" fill="none" fill-rule="evenodd">
        <g id="1.1.11">
            <path d="M15.0353111,78 C6.76586784,78 -7.10542736e-15,71.056083 -7.10542736e-15,62.5690228 L-7.10542736e-15,15.4309772 C-7.10542736e-15,6.94391699 6.76586784,0 15.0353111,0 L60.9646889,0 C69.2341322,0 76,6.94391699 76,15.4309772 L76,62.5690228 C76,71.056083 69.2341322,78 60.9646889,78 L15.0353111,78 Z" id="Fill-1-Copy-20" fill="#FFFFFF"></path>
            <g id="mesfix-logo-header-01-2" transform="translate(4.000000, 29.983871)">
                <g filter="url(#filter-1)" id="mesfix-logo-header-01">
                    <g transform="translate(0.000000, 0.016129)">
                        <g id="XMLID_161_" fill="#FFFFFF" fill-rule="nonzero">
                            <g id="XMLID_162_">
                                <path d="M3.31774194,9.81818182 L3.31774194,17.0181818 L0.137096774,17.0181818 L0.137096774,6.05454545 L3.31774194,5.72727273 L3.31774194,6.76363636 C4.03064516,6.08181818 4.93548387,5.78181818 6.03225806,5.78181818 C7.48548387,5.78181818 8.55483871,6.21818182 9.32258065,7.06363636 C10.1451613,6.21818182 11.4064516,5.78181818 13.0516129,5.78181818 C14.5048387,5.78181818 15.5741935,6.21818182 16.3419355,7.06363636 C17.1096774,7.93636364 17.466129,8.91818182 17.466129,10.0363636 L17.466129,17.0181818 L14.2854839,17.0181818 L14.2854839,10.8 C14.2854839,10.0363636 14.1209677,9.46363636 13.7919355,9.05454545 C13.4354839,8.64545455 12.8596774,8.29090909 12.1467742,8.4 C11.433871,8.50909091 10.9677419,8.86363636 10.5290323,9.62727273 L10.5290323,9.62727273 L10.4741935,16.9636364 L7.29354839,16.9636364 L7.29354839,10.8 C7.29354839,10.0363636 7.12903226,9.46363636 6.8,9.05454545 C6.44354839,8.64545455 5.97741935,8.34545455 5.15483871,8.4 C4.44193548,8.45454545 3.81129032,8.89090909 3.31774194,9.81818182 Z" id="XMLID_170_"></path>
                                <path d="M30.1064516,11.3454545 C30.1064516,9.70909091 29.6129032,8.34545455 28.6258065,7.30909091 C27.666129,6.24545455 26.3225806,5.72727273 24.65,5.72727273 C23.0048387,5.72727273 21.633871,6.24545455 20.5919355,7.30909091 C19.5225806,8.37272727 19.0016129,9.70909091 19.0016129,11.3454545 C19.0016129,12.9818182 19.5225806,14.3454545 20.5919355,15.3818182 C21.6612903,16.4454545 23.0048387,16.9636364 24.65,16.9636364 C26.9258065,16.9636364 28.4612903,16.4181818 29.283871,15.2727273 L27.4741935,13.5 C26.6516129,14.1272727 25.7193548,14.4 24.65,14.4 C24.0193548,14.4 23.5258065,14.2363636 23.0596774,13.9090909 C22.6209677,13.5545455 22.3467742,13.0909091 22.2645161,12.5181818 L30.0516129,12.5181818 L30.0516129,11.3727273 L30.1064516,11.3727273 L30.1064516,11.3454545 Z M22.4016129,10.2545455 C22.4016129,9.62727273 22.6483871,9.16363636 23.0870968,8.86363636 C23.5258065,8.50909091 24.0467742,8.37272727 24.6774194,8.37272727 C25.3080645,8.37272727 25.8016129,8.53636364 26.2677419,8.86363636 C26.7064516,9.21818182 26.9532258,9.68181818 26.9532258,10.2545455 L22.4016129,10.2545455 Z" id="XMLID_167_"></path>
                                <path d="M43.3774194,16.9909091 L43.3774194,7.99090909 L41.6774194,7.99090909 L41.6774194,5.45454545 L43.3774194,5.45454545 L43.3774194,3.92727273 C43.3774194,2.80909091 43.7612903,1.88181818 44.5016129,1.17272727 C45.2693548,0.463636364 46.2564516,0.0818181818 47.5725806,0.0818181818 C48.916129,0.0818181818 49.9854839,0.463636364 50.7532258,1.2 L49.0806452,3.08181818 C48.8612903,2.83636364 48.5048387,2.72727273 47.9564516,2.72727273 C47.5451613,2.72727273 47.216129,2.83636364 46.9967742,3.08181818 C46.7225806,3.32727273 46.6129032,3.76363636 46.6129032,4.33636364 L46.6129032,5.4 L48.3129032,5.4 L48.3129032,7.90909091 L46.6129032,7.93636364 L46.6129032,16.9363636 L43.4048387,16.9363636 L43.4048387,16.9909091 L43.3774194,16.9909091 Z" id="XMLID_166_"></path>
                                <path d="M52.0145161,1.90909091 C52.316129,1.60909091 52.7274194,1.44545455 53.2483871,1.44545455 C53.7693548,1.44545455 54.2080645,1.58181818 54.5096774,1.90909091 C54.8112903,2.20909091 54.9483871,2.59090909 54.9483871,3.05454545 C54.9483871,3.49090909 54.8112903,3.87272727 54.5096774,4.17272727 C54.2080645,4.47272727 53.7967742,4.60909091 53.2758065,4.60909091 C52.7548387,4.60909091 52.3435484,4.47272727 52.0419355,4.17272727 C51.7403226,3.87272727 51.6032258,3.49090909 51.6032258,3.05454545 C51.5209677,2.59090909 51.7129032,2.20909091 52.0145161,1.90909091 Z" id="XMLID_165_"></path>
                                <rect id="XMLID_164_" x="51.6580645" y="5.75454545" width="3.18064516" height="11.2636364"></rect>
                                <path d="M60.7612903,6.87272727 L62.1322581,8.78181818 L64.1887097,5.78181818 L67.3967742,5.78181818 L63.75,11.1272727 L67.7806452,16.9636364 C67.7806452,16.9636364 67.3145161,16.9636364 66.3274194,16.9636364 C64.8193548,16.9636364 64.5177419,16.8272727 63.9145161,16.0909091 C63.6403226,15.6818182 62.1322581,13.4454545 62.1322581,13.4454545 L59.7193548,16.9636364 L56.483871,16.9636364 L60.5145161,11.1272727 L56.8403226,5.75454545 C56.8403226,5.75454545 58.0193548,5.75454545 58.7048387,5.75454545 C59.4177419,5.75454545 60.1032258,6.08181818 60.7612903,6.87272727 Z" id="XMLID_163_"></path>
                            </g>
                        </g>
                        <g id="XMLID_157_" transform="translate(31.258065, 4.363636)" fill="#FFFFFF" fill-rule="nonzero">
                            <path d="M3.07096774,12.6818182 C3.01612903,12.9272727 2.98870968,13.1727273 2.93387097,13.4454545 C2.71451613,13.2 2.55,13.0090909 2.41290323,12.7909091 C2.2483871,12.5454545 2.02903226,12.3818182 1.75483871,12.2727273 C0.109677419,11.3727273 -0.740322581,9 0.85,7.09090909 C1.61774194,6.19090909 2.63225806,5.7 3.78387097,5.42727273 C4.11290323,5.34545455 4.44193548,5.26363636 4.74354839,5.12727273 C4.90806452,5.04545455 5.1,4.90909091 5.23709677,4.77272727 C5.4016129,4.60909091 5.48387097,4.39090909 5.37419355,4.11818182 C5.29193548,3.87272727 5.07258065,3.73636364 4.82580645,3.70909091 C4.46935484,3.68181818 4.11290323,3.73636364 3.83870968,3.87272727 C3.34516129,4.11818182 2.87903226,4.39090909 2.35806452,4.66363636 C2.30322581,4.69090909 2.2483871,4.74545455 2.19354839,4.77272727 C1.48064516,3.92727273 0.822580645,3.10909091 0.0822580645,2.26363636 C1.67258065,0.927272727 3.48225806,0.518181818 5.51129032,0.790909091 C5.53870968,0.627272727 5.53870968,0.463636364 5.56612903,0.245454545 C5.73064516,0.409090909 5.89516129,0.572727273 6.03225806,0.736363636 C6.2516129,0.981818182 6.44354839,1.14545455 6.74516129,1.25454545 C7.54032258,1.63636364 8.1983871,2.18181818 8.55483871,3 C9.32258065,4.55454545 8.66451613,6.6 7.15645161,7.44545455 C6.33387097,7.90909091 5.45645161,8.15454545 4.5516129,8.26363636 C4.38709677,8.29090909 4.19516129,8.34545455 4.03064516,8.42727273 C3.81129032,8.53636364 3.7016129,8.72727273 3.7016129,8.97272727 C3.72903226,9.24545455 3.83870968,9.40909091 4.08548387,9.49090909 C4.44193548,9.62727273 4.7983871,9.6 5.18225806,9.54545455 C5.89516129,9.43636364 6.52580645,9.19090909 7.12903226,8.75454545 C7.15645161,8.72727273 7.18387097,8.72727273 7.23870968,8.7 C7.78709677,9.38181818 8.39032258,10.0363636 8.96612903,10.7181818 C8.1983871,11.5090909 7.32096774,12.0545455 6.2516129,12.3545455 C5.20967742,12.7636364 4.16774194,12.7909091 3.07096774,12.6818182 Z M2.27580645,4.2 C2.35806452,4.14545455 2.41290323,4.09090909 2.49516129,4.06363636 C3.15322581,3.6 3.81129032,3.21818182 4.63387097,3.13636364 C5.20967742,3.08181818 5.75806452,3.35454545 5.97741935,3.87272727 C6.2516129,4.39090909 6.11451613,4.93636364 5.67580645,5.37272727 C5.29193548,5.75454545 4.82580645,5.91818182 4.33225806,6.08181818 C4.00322581,6.16363636 3.67419355,6.21818182 3.37258065,6.32727273 C2.44032258,6.65454545 1.61774194,7.11818182 1.04193548,7.96363636 C0.0822580645,9.46363636 0.79516129,11.1818182 1.97419355,11.9181818 C2.11129032,12 2.27580645,12.0272727 2.44032258,12 C2.76935484,11.9454545 3.12580645,11.9181818 3.50967742,11.8909091 C3.42741935,12.0545455 3.34516129,12.1909091 3.23548387,12.3545455 C5.23709677,12.6 7.12903226,12.4090909 8.63709677,10.9090909 C8.14354839,10.3636364 7.67741935,9.79090909 7.18387097,9.27272727 C6.74516129,9.49090909 6.36129032,9.70909091 5.95,9.9 C5.37419355,10.1454545 4.77096774,10.2818182 4.14032258,10.1727273 C3.64677419,10.0909091 3.31774194,9.79090909 3.20806452,9.32727273 C3.12580645,8.91818182 3.29032258,8.45454545 3.7016129,8.20909091 C3.97580645,8.07272727 4.25,7.93636364 4.5516129,7.90909091 C5.4016129,7.8 6.22419355,7.55454545 6.99193548,7.11818182 C8.11612903,6.49090909 8.74677419,5.01818182 8.47258065,3.79090909 C8.22580645,2.80909091 7.62258065,2.12727273 6.74516129,1.63636364 C6.4983871,1.5 6.27903226,1.41818182 6.00483871,1.52727273 C5.78548387,1.58181818 5.56612903,1.58181818 5.29193548,1.60909091 C5.37419355,1.44545455 5.4016129,1.28181818 5.45645161,1.14545455 C3.7016129,0.654545455 1.34354839,1.44545455 0.493548387,2.50909091 C1.09677419,3 1.7,3.57272727 2.27580645,4.2 Z" id="XMLID_158_"></path>
                        </g>
                    </g>
                </g>
            </g>
        </g>
    </g>
</svg>