<?xml version="1.0" encoding="UTF-8"?>
<svg width="76px" height="78px" viewBox="0 0 76 78" version="1.1" xmlns="http://www.w3.org/2000/svg" xmlns:xlink="http://www.w3.org/1999/xlink">
    <title>1.1.4</title>
    <defs>
        <polygon id="path-1" points="0.00132616067 0 59.9875279 0 59.9875279 17.9698369 0.00132616067 17.9698369"></polygon>
    </defs>
    <g id="Page-2" stroke="none" stroke-width="1" fill="none" fill-rule="evenodd">
        <g id="1.1.4">
            <path d="M15.0353111,78 C6.76586784,78 0,71.056083 0,62.5690228 L0,15.4309772 C0,6.94391699 6.76586784,0 15.0353111,0 L60.9646889,0 C69.2341322,0 76,6.94391699 76,15.4309772 L76,62.5690228 C76,71.056083 69.2341322,78 60.9646889,78 L15.0353111,78 Z" id="Fill-1-Copy-7" fill="#FFFFFF"></path>
            <g id="Group-10" transform="translate(8.000000, 30.000000)">
                <mask id="mask-2" fill="white">
                    <use xlink:href="#path-1"></use>
                </mask>
                <g id="Clip-2"></g>
                <path d="M31.2137891,2.2773687 C30.8229879,2.2773687 30.4321867,2.27730193 30.0413855,2.27743546 C30.0035517,2.27743546 29.9654953,2.27565505 29.9281066,2.27977226 C29.8154953,2.29214615 29.7331511,2.37936425 29.7398276,2.49264318 C29.7431659,2.54861499 29.7643084,2.60727968 29.7910146,2.65759867 C30.0678692,3.18092953 30.3473944,3.70290282 30.6264745,4.22514318 C32.9634923,8.59951261 35.3007327,12.9738375 37.6377505,17.3481625 C37.7209849,17.503704 37.8011036,17.6609592 37.8885665,17.8139859 C37.9718009,17.9593791 38.1362668,18.0079177 38.2795903,17.9389043 C38.3563707,17.9020052 38.3979879,17.8359073 38.4360443,17.7642678 C38.8571125,16.9750319 39.2786259,16.1861966 39.7003618,15.3973168 C41.7249167,11.6081699 43.7494716,7.81906751 45.774249,4.02996514 C46.0235072,3.56327374 46.27143,3.09575891 46.5233588,2.63044733 C46.6292935,2.43449036 46.4846348,2.27365208 46.3239523,2.27478112 C45.4960591,2.28068472 44.6683885,2.27779155 43.8404953,2.27727968 C43.7147535,2.27721291 43.6235072,2.33227226 43.5636407,2.44116692 C43.5373796,2.48899333 43.5126763,2.53764318 43.4873054,2.5859592 C41.807706,5.78305119 40.1281066,8.98012092 38.4485072,12.1771016 C38.4269196,12.2179177 38.4073351,12.2606254 38.3795161,12.2969236 C38.2573351,12.4566936 38.0227653,12.4551135 37.9019196,12.2941417 C37.8767713,12.2608479 37.8578544,12.2227248 37.8382698,12.1856476 C37.5665339,11.6690823 37.2950205,11.1523168 37.0232846,10.6356625 C35.5949463,7.91861499 34.1659404,5.2017233 32.7389374,2.4837411 C32.6643825,2.34133012 32.5617861,2.27347404 32.3988781,2.2756773 C32.0038484,2.28099629 31.6088187,2.27741321 31.2137891,2.2773687" id="Fill-1" fill="#0C5E82" mask="url(#mask-2)"></path>
                <path d="M58.5146793,15.6926877 C58.901252,15.6926877 59.2878247,15.6927545 59.6746199,15.6926209 C59.7122312,15.6926209 59.7505101,15.694201 59.7878989,15.6903064 C59.9365635,15.6747055 60.0235814,15.5382144 59.9732846,15.3979844 C59.957706,15.3548984 59.9341155,15.3144607 59.9125279,15.273845 C58.8636407,13.3105141 57.814976,11.3473613 56.7660888,9.38420846 C55.1354508,6.33202003 53.5048128,3.27985386 51.8739523,0.227687689 C51.8561481,0.19434941 51.8396793,0.159898371 51.8183143,0.128963653 C51.7008069,-0.0407321928 51.4553321,-0.0435140919 51.3344864,0.123911724 C51.3102282,0.157717362 51.2922015,0.196330122 51.2723944,0.233340508 C50.1658662,2.30371885 49.059338,4.37414169 47.9530324,6.44467582 C46.3795903,9.38932715 44.8063707,12.3340675 43.2329285,15.2788079 C43.2151244,15.3121461 43.1959849,15.3449726 43.1812965,15.3797352 C43.1187594,15.5288004 43.2062223,15.6760185 43.3660146,15.6907737 C43.4036259,15.694201 43.4416822,15.6926877 43.4795161,15.6926877 C43.9542193,15.6927545 44.4291452,15.6926877 44.904071,15.6926877 C45.2107475,15.6926877 45.5176466,15.686701 45.8243232,15.69498 C46.0032549,15.6998094 46.1227653,15.6313079 46.1908662,15.4682886 C46.1926466,15.4644384 46.1948722,15.4608776 46.1968751,15.457161 C47.5617861,12.8583999 48.9266971,10.2595497 50.2916081,7.66081083 C50.625436,7.0251135 50.9610443,6.39012834 51.2933143,5.75367434 C51.3547386,5.63603339 51.4404211,5.55713873 51.5759552,5.55522478 C51.7172757,5.55322181 51.8091897,5.63262834 51.8695012,5.75623368 C51.9137891,5.84679006 51.9627505,5.93496514 52.0097089,6.02416395 C53.6648276,9.17240579 55.320614,12.3203806 56.9732846,15.4699577 C57.0556288,15.626701 57.1644567,15.6981847 57.3422757,15.6949132 C57.7328544,15.6878583 58.1238781,15.6926877 58.5146793,15.6926877" id="Fill-3" fill="#0C5E82" mask="url(#mask-2)"></path>
                <path d="M5.40648937,4.54234644 C5.40648937,4.54185683 5.40648937,4.54138947 5.40648937,4.54092211 C4.60423417,4.54092211 3.8018677,4.54748739 2.99972379,4.53738353 C2.71292112,4.53377819 2.58809174,4.66802152 2.59015789,4.94480935 C2.59848491,6.04942359 2.59356652,7.15419362 2.59370005,8.25885238 C2.59370005,8.30084793 2.5926318,8.34308828 2.59692705,8.38470549 C2.61221637,8.531523 2.71975346,8.63941618 2.8667045,8.65653042 C2.89579204,8.65991321 2.9254137,8.65917879 2.95481281,8.65917879 C4.45011696,8.65929006 5.94546563,8.66073665 7.44079204,8.65842211 C7.87532468,8.6577322 8.30378165,8.60534347 8.71503536,8.45612241 C9.22325494,8.27169362 9.61643744,7.95353339 9.83042112,7.44720549 C10.0580917,6.90851855 10.0941674,6.34702003 9.96673417,5.78020253 C9.87869263,5.38873368 9.64648195,5.09062537 9.29387067,4.89417879 C9.18809174,4.83529155 9.07643744,4.78408235 8.96253536,4.74304377 C8.54674159,4.59324407 8.11269856,4.54697552 7.67467186,4.5438598 C6.9186407,4.53845178 6.16254278,4.54234644 5.40648937,4.54234644 Z M5.4439226,15.6985185 C6.14963477,15.6985185 6.85534693,15.6975171 7.56103684,15.6989378 C7.92283951,15.6996758 8.28272824,15.6774874 8.63965702,15.6177099 C8.99725346,15.5578212 9.3439226,15.4617678 9.66713477,15.2924948 C10.2043751,15.0111669 10.5501318,14.57975 10.6826615,13.9850467 C10.7981437,13.4669236 10.779249,12.9495349 10.6424463,12.4388672 C10.4992342,11.9042752 10.1693677,11.5177915 9.66624456,11.2876951 C9.49924159,11.211293 9.32338106,11.1492901 9.1459404,11.1019755 C8.61887067,10.9614785 8.07811399,10.9264266 7.53555465,10.9253583 C6.02329204,10.9224429 4.51107394,10.9243791 2.99883358,10.9243791 C2.96943447,10.9243791 2.93999085,10.9236002 2.91063625,10.9246461 C2.72200123,10.9311892 2.60536177,11.0409295 2.58969411,11.2274058 C2.58688996,11.2608331 2.58749085,11.2945497 2.58749085,11.328155 C2.58740147,12.6555883 2.5872683,13.9829993 2.58784693,15.3103657 C2.58786919,15.3605512 2.58951607,15.4117159 2.59919708,15.4606773 C2.62481281,15.5906476 2.72907839,15.6831847 2.86060658,15.6960482 C2.9022683,15.7001654 2.94455316,15.698474 2.98654871,15.698474 C3.80565109,15.6985631 4.62479797,15.6985185 5.4439226,15.6985185 Z M10.8991155,9.51878561 C10.9352579,9.53472033 10.9564226,9.54509125 10.9782995,9.55363724 C12.0491971,9.97094437 12.7512817,10.7383034 13.1171348,11.8193049 C13.3164523,12.4081773 13.3669716,13.0165007 13.3309181,13.63475 C13.3049018,14.0809444 13.2406733,14.5201283 13.1088113,14.9478509 C12.7661259,16.0596313 12.0566526,16.8520497 11.010436,17.3489859 C10.5063781,17.5883628 9.97416741,17.7368717 9.42591073,17.8324577 C8.84480539,17.9338301 8.25878165,17.9681663 7.66968669,17.9681663 C5.25780242,17.9672574 2.84591815,17.967747 0.434033876,17.9676803 C0.383603609,17.9676803 0.333017555,17.9694829 0.28280984,17.9661447 C0.122973045,17.9555289 0.0208884752,17.8552693 0.00517630904,17.694253 C0.00150420221,17.6567085 0.00197156126,17.6186743 0.00197156126,17.5809073 C0.0018380301,12.6100764 0.00188254049,7.63924555 0.00188254049,2.6684592 C0.00188254049,2.66425297 0.0021496028,2.66000223 0.0018380301,2.65584051 C-0.0180136019,2.40215356 0.123930018,2.27360757 0.379642184,2.27414004 C2.94277275,2.27939392 5.50594782,2.27656751 8.06907839,2.2778138 C8.88192705,2.27821439 9.66510954,2.426523 10.3979953,2.78747997 C11.4079137,3.28486128 12.1163855,4.05457938 12.4444493,5.14161202 C12.7091526,6.01877819 12.6975131,6.89961647 12.3885888,7.76641172 C12.1266006,8.50143398 11.6655621,9.07739837 10.9786778,9.46259125 C10.954887,9.47594437 10.9338336,9.49403784 10.8991155,9.51878561 L10.8991155,9.51878561 Z" id="Fill-4" fill="#0C5E82" mask="url(#mask-2)"></path>
                <path d="M21.6440561,4.5423687 C21.6440561,4.54190134 21.6440561,4.54138947 21.6440561,4.54092211 C20.8417564,4.54092211 20.0395012,4.54092211 19.2372238,4.54094437 C19.1994345,4.54094437 19.1615339,4.53967582 19.1238336,4.54183457 C18.9581659,4.55140431 18.8433736,4.66621885 18.8339152,4.83184199 C18.8317564,4.86956454 18.8329805,4.90744288 18.8329805,4.94525445 C18.832936,6.04995772 18.8329137,7.15468324 18.832936,8.25936425 C18.832936,8.29717582 18.8317119,8.33507641 18.834338,8.3727322 C18.844798,8.52604822 18.9522683,8.63957196 19.1048722,8.6564414 C19.1506066,8.66153784 19.1971867,8.65933457 19.2433662,8.65933457 C20.6169122,8.65944585 21.990436,8.6605141 23.3639374,8.65839985 C23.6071867,8.65802152 23.8508811,8.64960905 24.0936852,8.6350319 C24.3925725,8.61716098 24.6841155,8.55582567 24.9651986,8.45187166 C25.5235814,8.24525445 25.9268454,7.87742063 26.1246941,7.30684199 C26.2847089,6.84506899 26.3134181,6.36940876 26.2306288,5.89016543 C26.1676466,5.52544733 25.9918306,5.22066247 25.6900502,4.99617434 C25.5407179,4.88500965 25.3760294,4.80304377 25.2006585,4.74161944 C24.7835962,4.59546959 24.3502876,4.54713131 23.9123054,4.54390431 C23.1562965,4.53836276 22.400065,4.5423687 21.6440561,4.5423687 Z M21.6842713,15.6985185 C22.3479879,15.6985185 23.0116377,15.6972277 23.6752876,15.6990972 C24.0200205,15.6999874 24.3638633,15.690707 24.705703,15.6439711 C25.0900502,15.5914043 25.4650502,15.5039637 25.8173499,15.3368272 C26.3810739,15.0694088 26.7618603,14.6436224 26.9096348,14.0315823 C27.0433885,13.4773835 27.0231362,12.9220052 26.8608959,12.3762411 C26.7186852,11.8972426 26.4186852,11.5394904 25.9684627,11.3213227 C25.7808514,11.2304548 25.58189,11.1569904 25.380703,11.1021313 C24.8626021,10.9609444 24.3298128,10.9266714 23.7956882,10.9254918 C22.2667564,10.9221536 20.7377134,10.9268272 19.2087371,10.9214599 C18.9992713,10.9207515 18.80643,11.0206773 18.826749,11.305655 C18.8273276,11.3139785 18.826749,11.3224355 18.826749,11.3308257 C18.826749,12.6539859 18.82666,13.9771461 18.8270606,15.3003509 C18.8270606,15.3505809 18.826838,15.4016788 18.8351837,15.4508628 C18.8582846,15.5871536 18.9641748,15.6836298 19.101022,15.696204 C19.1427282,15.6999874 19.1849463,15.698474 19.2269419,15.698474 C20.0460443,15.6985631 20.8651466,15.6985631 21.6842713,15.6985185 Z M27.1364152,9.51871885 C27.1689078,9.53287315 27.1862668,9.54117434 27.2042935,9.54811796 C28.307706,9.97762092 29.0200947,10.7714637 29.3784033,11.8910779 C29.5466526,12.4169236 29.595614,12.9593939 29.5749167,13.5088301 C29.5562223,13.9973761 29.4914597,14.4791343 29.3465784,14.9479177 C29.010525,16.0354622 28.3235072,16.8213598 27.304887,17.3214785 C26.784338,17.5769236 26.2328544,17.7332886 25.6637891,17.8324132 C25.0909404,17.9321832 24.5134181,17.9679923 23.9327802,17.9679923 C21.5082327,17.9673687 19.083752,17.9677915 16.6592268,17.9676358 C16.6046793,17.9676358 16.5496867,17.9692604 16.4955843,17.9634518 C16.362298,17.9489414 16.2646422,17.8524429 16.2466155,17.719023 C16.2410294,17.6776061 16.2413855,17.6352545 16.2413855,17.5932812 C16.2412054,12.6140601 16.2412054,7.63483902 16.2412054,2.65561796 C16.2412054,2.61782864 16.2404508,2.57975 16.24439,2.54231677 C16.2601911,2.39167137 16.3671273,2.28865208 16.5169938,2.27861499 C16.5504656,2.27634496 16.5842045,2.27745772 16.6178321,2.27745772 C19.1809627,2.27741321 21.7441155,2.27679006 24.3073351,2.27776929 C25.0809256,2.27805861 25.8284775,2.41406009 26.5339671,2.7389414 C27.467795,3.16897849 28.1634923,3.8391046 28.5620828,4.7973687 C28.7866377,5.33667879 28.8732104,5.90133754 28.8600799,6.48404526 C28.8487297,6.99805119 28.7548128,7.49400816 28.5493974,7.96599629 C28.2689819,8.60990579 27.8347831,9.11850371 27.2165339,9.46259125 C27.1927208,9.4758776 27.1715784,9.49388205 27.1364152,9.51871885 L27.1364152,9.51871885 Z" id="Fill-5" fill="#0C5E82" mask="url(#mask-2)"></path>
                <path d="M31.2137891,2.27739095 C31.6088187,2.27741321 32.0038484,2.28099629 32.3988781,2.2756773 C32.5617861,2.27347404 32.6643825,2.34133012 32.7389374,2.4837411 C34.1659404,5.2017233 35.5949463,7.91861499 37.0232846,10.6356625 C37.2950205,11.1523168 37.5665339,11.6690823 37.8382698,12.1856476 C37.8578544,12.2227248 37.8767713,12.2608479 37.9019196,12.2941417 C38.0227653,12.4551135 38.2573351,12.4566936 38.3795161,12.2969236 C38.4073351,12.2606254 38.4269196,12.2179177 38.4485072,12.1771016 C40.1281066,8.98012092 41.807706,5.78305119 43.4873054,2.5859592 C43.5126763,2.53764318 43.5373796,2.48899333 43.5636407,2.44116692 C43.6235072,2.33227226 43.7147535,2.27721291 43.8404953,2.27727968 C44.6683885,2.27779155 45.4960591,2.28068472 46.3239523,2.27478112 C46.4846348,2.27365208 46.6292935,2.43449036 46.5233588,2.63044733 C46.27143,3.09575891 46.0235072,3.56327374 45.774249,4.02996514 C43.7494716,7.81906751 41.7249167,11.6081699 39.7003618,15.3973168 C39.2786259,16.1861966 38.8571125,16.9750319 38.4360443,17.7642678 C38.3979879,17.8359073 38.3563707,17.9020052 38.2795903,17.9389043 C38.1362668,18.0079177 37.9718009,17.9593791 37.8885665,17.8139859 C37.8011036,17.6609592 37.7209849,17.503704 37.6377505,17.3481625 C35.3007327,12.9738375 32.9634923,8.59951261 30.6264745,4.22514318 C30.3473944,3.70290282 30.0678692,3.18092953 29.7910146,2.65759867 C29.7643084,2.60727968 29.7431659,2.54861499 29.7398276,2.49264318 C29.7331511,2.37936425 29.8154953,2.29214615 29.9281066,2.27977226 C29.9654953,2.27565505 30.0035517,2.27743546 30.0413855,2.27743546 C30.4321867,2.27730193 30.8229879,2.2773687 31.2137891,2.27739095" id="Fill-6" fill="#0C5E82" mask="url(#mask-2)"></path>
                <path d="M58.5146793,15.6926877 C58.1238781,15.6926877 57.7328544,15.6878583 57.3422757,15.6949132 C57.1644567,15.6981847 57.0556288,15.626701 56.9732846,15.4699577 C55.320614,12.3203806 53.6648276,9.17240579 52.0097089,6.02416395 C51.9627505,5.93496514 51.9137891,5.84679006 51.8695012,5.75623368 C51.8091897,5.63262834 51.7172757,5.55322181 51.5759552,5.55522478 C51.4404211,5.55713873 51.3547386,5.63603339 51.2933143,5.75367434 C50.9610443,6.39012834 50.625436,7.0251135 50.2916081,7.66081083 C48.9266971,10.2595497 47.5617861,12.8583999 46.1968751,15.457161 C46.1948722,15.4608776 46.1926466,15.4644384 46.1908662,15.4682886 C46.1227653,15.6313079 46.0032549,15.6998094 45.8243232,15.69498 C45.5176466,15.686701 45.2107475,15.6926877 44.904071,15.6926877 C44.4291452,15.6926877 43.9542193,15.6927545 43.4795161,15.6926877 C43.4416822,15.6926877 43.4036259,15.694201 43.3660146,15.6907737 C43.2062223,15.6760185 43.1187594,15.5288004 43.1812965,15.3797352 C43.1959849,15.3449726 43.2151244,15.3121461 43.2329285,15.2788079 C44.8063707,12.3340675 46.3795903,9.38932715 47.9530324,6.44467582 C49.059338,4.37414169 50.1658662,2.30371885 51.2723944,0.233340508 C51.2922015,0.196330122 51.3102282,0.157717362 51.3344864,0.123911724 C51.4553321,-0.0435140919 51.7008069,-0.0407321928 51.8183143,0.128963653 C51.8396793,0.159898371 51.8561481,0.19434941 51.8739523,0.227687689 C53.5048128,3.27985386 55.1354508,6.33202003 56.7660888,9.38420846 C57.814976,11.3473613 58.8636407,13.3105141 59.9125279,15.273845 C59.9341155,15.3144607 59.957706,15.3548984 59.9732846,15.3979844 C60.0235814,15.5382144 59.9365635,15.6747055 59.7878989,15.6903064 C59.7505101,15.694201 59.7122312,15.6926209 59.6746199,15.6926209 C59.2878247,15.6927545 58.901252,15.6926877 58.5146793,15.6926877" id="Fill-7" fill="#0C5E82" mask="url(#mask-2)"></path>
            </g>
        </g>
    </g>
</svg>