<?xml version="1.0" encoding="UTF-8"?>
<svg width="76px" height="78px" viewBox="0 0 76 78" version="1.1" xmlns="http://www.w3.org/2000/svg" xmlns:xlink="http://www.w3.org/1999/xlink">
    <!-- Generator: Sketch 53.2 (72643) - https://sketchapp.com -->
    <title>1.2.4-h</title>
    <desc>Created with Sketch.</desc>
    <g id="Page-2" stroke="none" stroke-width="1" fill="none" fill-rule="evenodd">
        <g id="1.2.4-h">
            <path d="M15.0353111,78 C6.76586784,78 0,71.056083 0,62.5690228 L0,15.4309772 C0,6.94391699 6.76586784,0 15.0353111,0 L60.9646889,0 C69.2341322,0 76,6.94391699 76,15.4309772 L76,62.5690228 C76,71.056083 69.2341322,78 60.9646889,78 L15.0353111,78 Z" id="Fill-1-Copy-32" fill="#75A7FF"></path>
            <path d="M22.7069,58.293 C22.893,58.479 23,58.737 23,59 C23,59.263 22.8929,59.521 22.7069,59.7069 C22.521,59.893 22.263,60 22,60 C21.737,60 21.479,59.8929 21.293,59.7069 C21.1069,59.521 21,59.263 21,59 C21,58.737 21.107,58.4791 21.293,58.293 C21.479,58.1069 21.737,58 22,58 C22.263,58 22.521,58.1069 22.7069,58.293 Z M56.7062322,33.293 C56.8930481,33.479 57,33.737 57,34 C57,34.263 56.8930481,34.521 56.7062322,34.7069 C56.5203159,34.893 56.2634315,35 55.9995502,35 C55.7366685,35 55.4787845,34.8929 55.2928682,34.7069 C55.1069519,34.521 55,34.263 55,34 C55,33.737 55.1070518,33.479 55.2928682,33.293 C55.4787845,33.1069 55.7366685,33 55.9995502,33 C56.2634315,33 56.5203159,33.1069 56.7062322,33.293 Z M60.736841,16.2631518 C60.9053023,16.4316085 60.9998203,16.6601706 61,16.8984357 L61,61.1015643 C61,61.5976805 60.5976695,62 60.1015397,62 L32.9799878,62 C31.885753,62 30.8291636,61.6039695 30.0044669,60.8848616 L28.9361976,59.9532735 C28.6450965,61.12699 27.5829367,61.9999102 26.3203304,61.9999102 L17.6952911,61.9999102 C16.209058,61.9999102 15,60.7907953 15,59.3046029 L15,44.6604596 C15,43.1743571 16.209058,41.9652423 17.6952911,41.9652423 L26.3202406,41.9652423 C27.2432288,41.9652423 28.0592105,42.4318898 28.5451877,43.1414743 L32.3635542,39.3232123 L27.9496882,22.8511116 C27.8212084,22.371886 28.1056609,21.8792737 28.5849895,21.7507974 L37.1014049,19.4688604 L37.1014049,16.8996037 C37.1014049,16.4034875 37.5036456,16.001168 37.9997754,16.001168 L60.10136,16 C60.3397215,16 60.5682898,16.0946951 60.736841,16.2631518 Z M27.218611,59.3046928 L27.2187009,59.3046928 L27.2187009,44.6605495 C27.2187009,44.165152 26.8156516,43.7621137 26.3202406,43.7621137 L22.9061812,43.7621137 L22.9061812,54.1116443 C22.9061812,54.6077605 22.5038507,55.0100801 22.0077209,55.0100801 C21.5115911,55.0100801 21.1092606,54.6077605 21.1092606,54.1116443 L21.1092606,43.7621137 L17.6952012,43.7621137 C17.1997902,43.7621137 16.7967409,44.165152 16.7967409,44.6605495 L16.7967409,59.3046928 C16.7967409,59.8000902 17.1997902,60.2031285 17.6952012,60.2031285 L26.3201507,60.2031285 C26.8155617,60.2031285 27.218611,59.8000004 27.218611,59.3046928 Z M29.9178553,23.2538804 L34.137564,39.0021113 C34.2068353,39.0948299 34.2585866,39.2014742 34.288146,39.3171927 L35.2174235,42.9526231 L37.0206333,42.9526231 L33.5185249,29.9847813 C33.4562616,29.7544224 33.4883366,29.50879 33.6073826,29.30206 C33.7264286,29.09524 33.9229219,28.9444825 34.1533769,28.8826702 C35.4418589,28.5374013 36.2092338,27.2083453 35.8639555,25.9198986 C35.8022313,25.6897194 35.8345759,25.4445362 35.9537117,25.2381656 C36.0728476,25.0317949 36.2689814,24.8813069 36.4992568,24.8195843 L37.1014049,24.6582253 L37.1014049,21.3290716 L29.9178553,23.2538804 Z M37.1014049,28.7783618 C36.7074301,29.4096027 36.1472401,29.938422 35.4627032,30.2918666 L37.1014049,36.3594524 L37.1014049,28.7783618 Z M50.0090452,60.2030387 C50.7025667,60.2030387 51.2667997,59.638821 51.2668896,58.945588 C51.2668896,58.2519956 50.7026565,57.687778 50.0090452,57.687778 L43.1328588,57.687778 C42.6367291,57.687778 42.2343985,57.2854584 42.2343985,56.7893422 C42.2343985,56.293226 42.6367291,55.8909065 43.1328588,55.8909065 L53.0736933,55.8909065 C53.7673046,55.8909065 54.3315377,55.3266888 54.3315377,54.6330964 C54.3315377,53.939504 53.7673046,53.3752864 53.0736933,53.3752864 L43.1328588,53.3752864 C42.6367291,53.3752864 42.2343985,52.9729668 42.2343985,52.4768506 C42.2343985,51.9807344 42.6367291,51.5784149 43.1328588,51.5784149 L54.9961288,51.5784149 C55.6897402,51.5784149 56.2539732,51.0141972 56.2539732,50.3206048 C56.2539732,49.6270124 55.6897402,49.0627948 54.9961288,49.0627948 L43.1328588,49.0627948 C42.6367291,49.0627948 42.2343985,48.6604753 42.2343985,48.1643591 C42.2343985,47.6682428 42.6367291,47.2659233 43.1328588,47.2659233 L52.183948,47.2659233 C52.8775594,47.2659233 53.4417925,46.7017057 53.4417925,46.0081133 C53.4417925,45.3145209 52.8775594,44.7503032 52.183948,44.7503032 L34.5198589,44.7492251 C34.1093524,44.7492251 33.7511363,44.4710694 33.6494306,44.0733319 L32.9380297,41.2899779 L29.0155316,45.2123687 L29.0155316,57.638364 L31.1852235,59.5305595 C31.6826111,59.9642344 32.319889,60.2030387 32.9798081,60.2030387 L50.0090452,60.2030387 Z M59.2030794,60.2030387 L59.2030794,17.7968715 L38.8984154,17.7978598 L38.8984154,42.9534317 L40.6532881,42.9534317 L40.6532881,25.0683612 C40.6532881,24.572245 41.0556186,24.1699254 41.5517484,24.1699254 C42.8856026,24.1699254 43.9707629,23.0847948 43.9707629,21.7508872 C43.9707629,21.254771 44.3730935,20.8524515 44.8692232,20.8524515 L53.2317324,20.8524515 C53.7278622,20.8524515 54.1301928,21.254771 54.1301928,21.7508872 C54.1301928,23.0847049 55.2152633,24.1699254 56.5492073,24.1699254 C57.0453371,24.1699254 57.4476676,24.572245 57.4476676,25.0683612 L57.4476676,28.6637214 C57.4476676,29.1598376 57.0453371,29.5621571 56.5492073,29.5621571 C56.0530775,29.5621571 55.650747,29.1598376 55.650747,28.6637214 L55.650747,25.8704846 C54.0457375,25.5207236 52.7792678,24.2543784 52.4295871,22.649323 L45.6712788,22.649323 C45.321598,24.2543784 44.0551284,25.5207236 42.4501189,25.8704846 L42.4501189,42.9535216 L47.3613725,42.9535216 C45.8278804,42.2958666 44.7507163,40.7715805 44.7507163,38.9999551 C44.7507163,36.629073 46.6796208,34.7002213 49.0504778,34.7002213 C51.4214248,34.7002213 53.3502394,36.629073 53.3502394,38.9999551 C53.3502394,40.7715805 52.2731651,42.2958666 50.7395832,42.9535216 L52.1838582,42.9535216 C53.8682017,42.9535216 55.2385334,44.3237259 55.2385334,46.0081133 C55.2385334,46.4564327 55.1406911,46.8820217 54.9664796,47.2659233 L54.9959491,47.2659233 C55.2207439,47.2659233 55.4396987,47.2910795 55.6508368,47.337349 L55.6508368,37.1138689 C55.6508368,36.6177527 56.0531674,36.2154332 56.5492972,36.2154332 C57.0454269,36.2154332 57.4477575,36.6177527 57.4477575,37.1138689 L57.4477575,48.5006436 C57.8262788,49.0091582 58.0507142,49.6390515 58.0507142,50.3204252 C58.0507142,51.7249498 57.0975376,52.9104357 55.8041142,53.2656772 C56.0111194,53.6773405 56.1283685,54.1415622 56.1283685,54.6328269 C56.1283685,56.3171244 54.7580368,57.6874186 53.0736933,57.6874186 L52.7916666,57.6874186 C52.965878,58.0713202 53.0637204,58.4969092 53.0637204,58.9452286 C53.0637204,59.3935481 52.965878,59.8191371 52.7916666,60.2030387 L59.2030794,60.2030387 Z M49.0506575,41.5028174 C50.4307824,41.5028174 51.5534984,40.3799524 51.5534984,38.9999551 C51.5534984,37.6199578 50.4306926,36.4971826 49.0506575,36.4971826 C47.6706225,36.4971826 46.5478166,37.6200476 46.5478166,39.0000449 C46.5478166,40.3800422 47.6705327,41.5028174 49.0506575,41.5028174 Z" id="Combined-Shape" fill="#FFFFFF" fill-rule="nonzero"></path>
        </g>
    </g>
</svg>