<?xml version="1.0" encoding="UTF-8"?>
<svg width="76px" height="78px" viewBox="0 0 76 78" version="1.1" xmlns="http://www.w3.org/2000/svg" xmlns:xlink="http://www.w3.org/1999/xlink">
    <!-- Generator: Sketch 55.2 (78181) - https://sketchapp.com -->
    <title>1.2.4-h</title>
    <desc>Created with Sketch.</desc>
    <defs>
        <polygon id="path-1" points="0 0.0536544503 42.7858897 0.0536544503 42.7858897 55.999912 0 55.999912"></polygon>
    </defs>
    <g id="Page-2" stroke="none" stroke-width="1" fill="none" fill-rule="evenodd">
        <g id="1.2.4-h">
            <path d="M15.0353111,78 C6.76586784,78 0,71.056083 0,62.5690228 L0,15.4309772 C0,6.94391699 6.76586784,0 15.0353111,0 L60.9646889,0 C69.2341322,0 76,6.94391699 76,15.4309772 L76,62.5690228 C76,71.056083 69.2341322,78 60.9646889,78 L15.0353111,78 Z" id="Fill-1-Copy-32" fill="#75A7FF"></path>
            <g id="Group-8" transform="translate(16.000000, 11.000000)">
                <path d="M23.6012346,23.8948521 L17.245416,23.8948521 L17.245416,16.1054335 L23.6012346,16.1054335 C25.8917294,16.1054335 27.7548886,17.8524407 27.7548886,19.9998572 C27.7548886,22.1475593 25.8917294,23.8948521 23.6012346,23.8948521 M30,19.9998572 C30,16.691482 27.1295713,14 23.6012346,14 L15,14 L15,26 L23.6012346,26 C27.1295713,26 30,23.3082324 30,19.9998572" id="Fill-1" fill="#FFFFFF"></path>
                <path d="M25.3084579,39.911023 L17.1504882,39.911023 L17.1504882,31.088977 L25.3084579,31.088977 C27.8122072,31.088977 29.8492201,33.0680079 29.8492201,35.5001417 C29.8492201,37.9322754 27.8122072,39.911023 25.3084579,39.911023 M32,35.5001417 C32,31.9158402 28.9980095,29 25.3084579,29 L15,29 L15,42 L25.3084579,42 C28.9980095,42 32,39.0841598 32,35.5001417" id="Fill-3" fill="#FFFFFF"></path>
                <g id="Group-7">
                    <mask id="mask-2" fill="white">
                        <use xlink:href="#path-1"></use>
                    </mask>
                    <g id="Clip-6"></g>
                    <path d="M24.8402697,45.6929801 L24.8402697,53.8387812 L21.6253524,53.8387812 L21.6253524,45.6346346 L19.9100972,45.7228859 C19.5521593,45.7413571 19.0619593,45.7346136 18.6734766,45.7264042 C18.3104972,45.7196607 17.9359524,45.7120377 17.5599248,45.7208335 L15.9677386,45.7574827 L15.9677386,53.8387812 L12.7528214,53.8387812 L12.7528214,45.9571476 L11.2149041,45.8712419 C8.58093172,45.7240586 5.92946276,45.4458178 3.32692483,45.043556 L3.95620759,41.7427812 C5.04900069,41.9336503 6.19161448,42.1075141 7.36032483,42.2599749 L9.20339379,42.5003937 L9.20339379,13.4865298 L2.18609034,13.4865298 L2.18609034,10.4091686 L12.7528214,10.4091686 L12.7528214,2.21469738 L15.9677386,2.21469738 L15.9677386,10.4091686 L21.6253524,10.4091686 L21.6253524,2.21469738 L24.8402697,2.21469738 L24.8402697,10.4091686 L28.1067869,10.4088754 L28.6242697,10.4543204 C33.5728283,10.8879539 37.4493524,14.4655037 37.4493524,18.5995351 C37.4493524,20.6712419 36.4968283,22.6561634 34.7676352,24.1881005 L33.0532697,25.7065508 L35.070711,26.8016293 C38.5329524,28.6801215 40.5999179,31.9002681 40.5999179,35.4159539 C40.5999179,38.1054199 39.4750972,40.6072419 37.432449,42.4608126 C35.3040972,44.3920796 32.2641455,45.5501948 28.8739662,45.7225927 C28.7600903,45.7278702 28.5225524,45.7346136 28.035911,45.7346136 C27.3852766,45.7346136 26.6608007,45.7234723 26.4982903,45.7208335 L24.8402697,45.6929801 Z M36.7726214,25.2808335 C38.6234007,23.4090848 39.6355317,21.057378 39.6355317,18.5995351 C39.6355317,13.430823 35.2305524,9.08686492 29.3241317,8.35476021 L29.3241317,8.2480377 L27.0261524,8.2480377 L27.0261524,0.0535664921 L19.4388766,0.0535664921 L19.4388766,8.2480377 L18.1542145,8.2480377 L18.1542145,0.0535664921 L10.5666421,0.0535664921 L10.5666421,8.2480377 L-8.89655172e-05,8.2480377 L-8.89655172e-05,15.6479539 L7.01721448,15.6479539 L7.01721448,40.0325822 C5.7651731,39.8595979 4.54990414,39.6619853 3.39809724,39.4441424 C3.08731103,39.3855037 2.76911103,39.4508859 2.50518,39.6282681 C2.23146276,39.8121005 2.04671103,40.0918073 1.98473172,40.4160796 L0.996028276,45.6012105 C0.934938621,45.9184461 1.00492483,46.2403728 1.19353172,46.5080586 C1.3877731,46.7836607 1.68076621,46.9666136 2.01942828,47.0232 C4.82984897,47.4928963 7.70313862,47.8206869 10.5666421,47.9983623 L10.5666421,55.999912 L18.1542145,55.999912 L18.1542145,47.8793257 C18.3063455,47.8810848 18.45818,47.8843099 18.607049,47.8869487 L18.6159455,47.4471581 L18.6636903,47.8881215 C18.9172421,47.8931058 19.1752421,47.8975037 19.4388766,47.8972105 L19.4388766,55.999912 L27.0261524,55.999912 L27.0261524,47.8898806 C27.614511,47.8972105 28.5622903,47.9033675 28.9851731,47.881378 C36.9816903,47.4747183 42.7860972,42.2321215 42.7860972,35.4159539 C42.7860972,31.3376293 40.5498007,27.5882681 36.7726214,25.2808335 L36.7726214,25.2808335 Z" id="Fill-5" fill="#FFFFFF" mask="url(#mask-2)"></path>
                </g>
            </g>
        </g>
    </g>
</svg>