<?xml version="1.0" encoding="UTF-8"?>
<svg width="76px" height="78px" viewBox="0 0 76 78" version="1.1" xmlns="http://www.w3.org/2000/svg" xmlns:xlink="http://www.w3.org/1999/xlink">
    <!-- Generator: Sketch 53.2 (72643) - https://sketchapp.com -->
    <title>2.1.4-h</title>
    <desc>Created with Sketch.</desc>
    <g id="Page-2" stroke="none" stroke-width="1" fill="none" fill-rule="evenodd">
        <g id="2.1.4-h">
            <g id="Group-15" transform="translate(0.000000, 0.000000)">
                <g id="Group-13" transform="translate(0.000000, 0.000000)">
                    <path d="M35.7072528,48.7075601 C36.0975824,48.3164681 36.0975824,47.683532 35.7072528,47.29244 C35.3165324,46.90252 34.6835654,46.90252 34.2924543,47.29244 C33.9025152,47.683532 33.9025152,48.3164681 34.2924543,48.7075601 C34.6835654,49.09748 35.3165324,49.09748 35.7072528,48.7075601 Z" id="Path" fill="#75A7FF" fill-rule="nonzero"></path>
                    <path d="M17.9442017,48.5164315 C18.2984687,48.1643893 18.8424618,48.1009883 19.2743821,48.3662713 C19.4603304,48.4788914 18.9264113,47.9958762 28.5789294,57.5744285 C29.0083313,58.0011337 28.9852451,58.6810257 28.5848059,59.0789503 L24.1447147,63.4256709 L13.5893193,52.8564784 L17.9442017,48.5164315 Z" id="Path" fill="#FFFFFF" fill-rule="nonzero"></path>
                    <g id="2.1.2-h-copy" transform="translate(0.000000, 0.000000)" fill="#75A7FF">
                        <path d="M15.0353111,78 C6.76586784,78 4.97379915e-14,71.056083 4.97379915e-14,62.5690228 L4.97379915e-14,15.4309772 C4.97379915e-14,6.94391699 6.76586784,0 15.0353111,0 L60.9646889,0 C69.2341322,0 76,6.94391699 76,15.4309772 L76,62.5690228 C76,71.056083 69.2341322,78 60.9646889,78 L15.0353111,78 Z" id="Fill-1-Copy-44"></path>
                    </g>
                    <path d="M35.7072528,53.7075601 C36.0975824,53.3164681 36.0975824,52.683532 35.7072528,52.29244 C35.3165324,51.90252 34.6835654,51.90252 34.2924543,52.29244 C33.9025152,52.683532 33.9025152,53.3164681 34.2924543,53.7075601 C34.6835654,54.09748 35.3165324,54.09748 35.7072528,53.7075601 Z" id="Path" fill="#FFFFFF" fill-rule="nonzero"></path>
                    <path d="M23.3736382,70.6843306 C23.7900279,71.1014423 24.4679205,71.1060305 24.8897669,70.6930899 L30.0979963,65.5943169 C30.9828245,64.7150455 31.2518827,63.4132401 30.8627766,62.281616 L31.9830833,61.2079707 C32.5862607,60.6290197 33.3804233,60.3099293 34.2199187,60.3099293 L48.5009947,60.3099293 C51.0345917,60.3099293 53.4292524,59.3430644 55.2446612,57.5874414 C55.3193762,57.5152811 54.677582,58.2664992 64.987425,46.0217691 C66.5165659,44.2240179 66.2878033,41.5244712 64.4770118,40.0032649 C62.6775534,38.4962404 59.9819337,38.7127214 58.4485953,40.4796064 L52.1095656,46.9540137 C51.3091067,45.9750526 50.0884804,45.3648182 48.7696332,45.3648182 L36.7904536,45.3648182 C35.0858582,44.6561455 33.2771653,44.2974296 31.4109671,44.2974296 C26.2379965,44.2974296 21.7210915,46.6716291 19.2970485,51.1230448 C18.2758024,50.9307563 17.1987298,51.2377505 16.4238755,52.0077387 L11.3134473,57.1010893 C10.8962181,57.5169496 10.8953786,58.1897506 11.3117683,58.6068623 L23.3736382,70.6843306 Z M31.4105473,46.432207 C33.0559583,46.432207 34.6468021,46.7613081 36.1398446,47.4103338 C36.2758429,47.4695638 36.4223349,47.5000129 36.5705058,47.5000129 L48.7696332,47.5000129 C49.934433,47.5000129 50.9183216,48.4439366 50.9183216,49.6347903 C50.9183216,50.8122966 49.9545809,51.769985 48.7696332,51.769985 L40.0048814,51.769985 C39.411778,51.769985 38.9307472,52.247995 38.9307472,52.8373738 C38.9307472,53.4271697 39.411778,53.9047625 40.0048814,53.9047625 L48.7696332,53.9047625 C51.1391089,53.9047625 53.0665904,51.9893858 53.0665904,49.6347903 C53.0665904,49.4470901 53.0531584,49.2610583 53.028813,49.076695 C59.1609071,42.8129291 60.0255875,41.9328235 60.0625253,41.8890268 C60.8281451,40.9909854 62.1872881,40.8771139 63.0914247,41.6345887 C63.9964006,42.3949832 64.1109918,43.7447565 63.3432733,44.6478034 L53.7079649,56.0941816 C52.3009706,57.4364469 50.4536609,58.1751517 48.5009947,58.1751517 L34.2199187,58.1751517 C32.8204798,58.1751517 31.4957561,58.7069691 30.4908802,59.6717484 L29.5779289,60.5472658 L21.1619875,52.184594 C23.1289253,48.5177653 26.8197667,46.432207 31.4105473,46.432207 L31.4105473,46.432207 Z M17.9442017,53.5164315 C18.2984687,53.1643893 18.8424618,53.1009883 19.2743821,53.3662713 C19.4603304,53.4788914 18.9264113,52.9958762 28.5789294,62.5744285 C29.0083313,63.0011337 28.9852451,63.6810257 28.5848059,64.0789503 L24.1447147,68.4256709 L13.5893193,57.8564784 L17.9442017,53.5164315 Z" id="Shape" fill="#FFFFFF" fill-rule="nonzero"></path>
                    <path d="M41.3503933,17.928859 C43.7054983,17.9266935 45.6145278,16.0189632 45.6188585,13.6642915 L45.6188585,12.2684652 C45.6188585,9.91119487 43.7080967,8 41.3503933,8 C38.993123,8 37.0819281,9.91119487 37.0819281,12.2684652 L37.0819281,13.6642915 C37.0862589,16.0189632 38.9952884,17.9266935 41.3503933,17.928859 Z M38.6340973,12.2684652 C38.6388612,10.7699983 39.8540918,9.55693311 41.3529919,9.55563383 L41.3534249,9.55563383 C42.8510256,9.55736616 44.064957,10.7708645 44.0666894,12.2684652 L44.0666894,13.6642915 C44.0666894,15.1640576 42.8505925,16.3805875 41.3503933,16.3805875 C39.8501941,16.3805875 38.6340973,15.1640576 38.6340973,13.6642915 L38.6340973,12.2684652 Z" id="Shape" stroke="#FFFFFF" stroke-width="0.5" fill="#FFFFFF" fill-rule="nonzero"></path>
                    <path d="M49.1785904,46 L47.627098,46 C48.1484044,45.9275248 48.6701313,45.9292522 49.1785904,46 Z M46.6347074,46 L45.0828783,46 L45.4665417,33.3374213 L37.5345475,33.3374213 L37.9436573,46 L36.3666545,46 L36.0489886,35.8688902 C35.6547006,36.09831 35.2080734,36.2230516 34.7518506,36.2300302 L34.7217557,36.240498 L34.7204472,36.240498 C33.2218037,36.240498 32.0363225,35.0000608 32.0363225,33.5014172 L32.0363225,23.8540082 C32.0363225,23.719235 32.0001212,23.5905679 32.0001212,23.4557947 C31.9913981,22.2825261 32.453727,21.155054 33.2837383,20.3259151 C34.1137496,19.4967762 35.2416576,19.0353195 36.4149264,19.0453512 L38.3785158,19.0453512 C38.5808937,19.0414258 38.7762931,19.1168813 38.9232789,19.2560162 L41.5009807,21.75172 L44.1829246,19.2420591 C44.3294742,19.1103389 44.5209481,19.0396812 44.7176561,19.0449151 L46.5682803,19.0449151 C46.7165743,19.0449151 46.8849319,19.0379365 47.03279,19.0527659 C49.4521659,19.2917812 51.2290792,21.4324514 51.017978,23.8540082 L51.017978,33.4988002 C51.0075102,35.0048586 49.7840832,36.2204346 48.2784611,36.2208709 C47.8152598,36.221307 47.3594733,36.1057248 46.9521005,35.8850281 L46.6347074,46 Z M42.3087479,46 L40.7455527,46 L40.7455527,37.102785 C40.7455527,36.6714235 41.0957887,36.3211875 41.5271503,36.3211875 C41.9589481,36.3211875 42.3087479,36.6714235 42.3087479,37.102785 L42.3087479,46 Z M35.8326536,33.4460249 L35.8326536,26.2707673 C35.8326536,25.8394056 36.1824534,25.4891697 36.6142512,25.4891697 C37.0456128,25.4891697 37.3958488,25.8394056 37.3958488,26.2707673 L37.3958488,30.6223293 C37.3958488,30.6563496 37.4281245,30.6676898 37.429433,30.7034548 L37.4856977,31.7742261 L45.5153915,31.7742261 L45.546795,31.1055938 L45.546795,26.2707673 C45.546795,25.8394056 45.897031,25.4891697 46.3283926,25.4891697 C46.7601904,25.4891697 47.1099901,25.8394056 47.1099901,26.2707673 L47.1099901,30.6170953 C47.1099901,30.6685621 47.123075,30.7213373 47.1213302,30.7754212 L47.1099901,31.1265295 L47.1099901,33.4988002 C47.1099901,34.1464969 47.635126,34.6711966 48.2823865,34.6711966 C48.9300831,34.6711966 49.4547829,34.1464969 49.4547829,33.4988002 L49.4547829,23.8164985 C49.4547829,23.790329 49.4377726,23.771138 49.4403897,23.7449684 C49.5895561,22.1665076 48.4346061,20.7646915 46.8570177,20.6085464 C46.7610626,20.5989508 46.6642352,20.6085464 46.5682803,20.6085464 L45.0273291,20.6085464 L42.0261166,23.4108703 C42.0200103,23.4165404 42.0139041,23.4065087 42.0082341,23.4117426 C41.9986385,23.4200297 41.9894792,23.4278805 41.9790114,23.4366037 C41.9685435,23.4448908 41.9572033,23.4531777 41.9467355,23.4605925 C41.9362677,23.4680072 41.9271084,23.4749857 41.915332,23.4824004 C41.9035558,23.4898152 41.8917795,23.4967937 41.8813117,23.5033361 C41.8704077,23.5098785 41.8612484,23.5146762 41.8490358,23.5207824 C41.8368235,23.5273248 41.8228664,23.533431 41.8123985,23.538665 C41.8019307,23.5434627 41.7910267,23.5482605 41.7796866,23.5526221 C41.767038,23.5574198 41.7543893,23.5622176 41.7413045,23.5665792 C41.7299643,23.5700685 41.7190604,23.5735578 41.7077203,23.5770471 C41.6946355,23.5805363 41.6815506,23.5840256 41.6680298,23.5870786 C41.6571257,23.5896957 41.6457856,23.5923126 41.6348817,23.5940572 C41.6213607,23.5966742 41.6078397,23.598855 41.5943188,23.6005996 C41.5825425,23.6019081 41.5712023,23.6032165 41.5598622,23.604525 C41.5467774,23.6053974 41.5336927,23.6067058 41.5201717,23.6067058 C41.5083954,23.6067058 41.4979276,23.607142 41.4848428,23.6067058 C41.471758,23.6067058 41.4573648,23.6062697 41.4455884,23.6053974 C41.433376,23.6049613 41.422472,23.6040889 41.4098234,23.6027804 C41.3967386,23.601472 41.3832177,23.5997272 41.3710052,23.5975465 C41.3592289,23.5958018 41.3478887,23.5940572 41.3352401,23.5914403 C41.3225916,23.5888233 41.3095067,23.5857701 41.2977304,23.5827171 C41.2859542,23.579664 41.2750502,23.5766108 41.2624015,23.5731215 C41.250189,23.5691961 41.2362319,23.5643984 41.2248919,23.560473 C41.2139878,23.5565475 41.2039562,23.5530583 41.1913076,23.5473881 C41.179095,23.5421543 41.1664464,23.5369203 41.154234,23.5308141 C41.1437662,23.5260163 41.1332983,23.5207824 41.1232666,23.5155485 C41.110618,23.50857 41.0979695,23.5015914 41.085757,23.4941767 C41.0761615,23.4885067 41.066566,23.4828366 41.0574067,23.4767304 C41.0451942,23.4684433 41.0329817,23.4605925 41.0212054,23.4514332 C41.0120461,23.4448908 41.0033229,23.4396568 40.9945997,23.4326783 C40.9832595,23.4230827 40.9719194,23.4165404 40.9610155,23.4065087 C40.9562177,23.4017109 40.9509838,23.4052002 40.946186,23.4008386 L38.0609918,20.6085464 L36.4149264,20.6085464 C35.6581899,20.6024401 34.9302399,20.8990285 34.3928916,21.4320153 C33.8555432,21.9654382 33.553721,22.6912074 33.5545932,23.4479439 C33.5545932,23.5447712 33.5685503,23.6420348 33.5781459,23.738426 C33.5807628,23.7641594 33.5995177,23.790329 33.5995177,23.8164985 L33.5995177,33.5005449 C33.5938476,33.8041119 33.7098659,34.0972109 33.9218395,34.3144183 C34.1338128,34.5316256 34.4238588,34.6550587 34.7274257,34.6563672 C34.7282981,34.6563672 34.7104156,34.6563672 34.7117241,34.6563672 C35.3419743,34.6493886 35.8326536,34.1063703 35.8326536,33.4460249 Z" id="Combined-Shape" stroke="#FFFFFF" stroke-width="0.5" fill="#FFFFFF" fill-rule="nonzero"></path>
                </g>
            </g>
        </g>
    </g>
</svg>