<?xml version="1.0" encoding="UTF-8"?>
<svg width="76px" height="78px" viewBox="0 0 76 78" version="1.1" xmlns="http://www.w3.org/2000/svg" xmlns:xlink="http://www.w3.org/1999/xlink">
    <!-- Generator: Sketch 53.2 (72643) - https://sketchapp.com -->
    <title>2.1.5-h</title>
    <desc>Created with Sketch.</desc>
    <g id="Page-2" stroke="none" stroke-width="1" fill="none" fill-rule="evenodd">
        <g id="2.1.5-h">
            <path d="M15.0353111,78 C6.76586784,78 4.97379915e-14,71.056083 4.97379915e-14,62.5690228 L4.97379915e-14,15.4309772 C4.97379915e-14,6.94391699 6.76586784,0 15.0353111,0 L60.9646889,0 C69.2341322,0 76,6.94391699 76,15.4309772 L76,62.5690228 C76,71.056083 69.2341322,78 60.9646889,78 L15.0353111,78 Z" id="Fill-1-Copy-50" fill="#75A7FF"></path>
            <path d="M58.3632812,41.6860352 C60.0112305,43.723999 61,46.3160859 61,49.1347656 C61,55.677124 55.677124,61 49.1347656,61 C45.0296555,61 41.4051972,58.9040146 39.2738495,55.7265625 L17.3183594,55.7265625 C16.5901718,55.7265625 16,55.1363907 16,54.4082031 L16,20.0429688 C16,19.3147812 16.5901718,18.7246094 17.3183594,18.7246094 L23.9980469,18.7246094 L23.9980469,17.3183594 C23.9980469,16.5901718 24.5882187,16 25.3164062,16 C26.0445938,16 26.6347656,16.5901718 26.6347656,17.3183594 L26.6347656,18.7246094 L31.9082031,18.7246094 L31.9082031,17.3183594 C31.9082031,16.5901718 32.498375,16 33.2265625,16 C33.95475,16 34.5449219,16.5901718 34.5449219,17.3183594 L34.5449219,18.7246094 L39.8183594,18.7246094 L39.8183594,17.3183594 C39.8183594,16.5901718 40.4085312,16 41.1367188,16 C41.8649063,16 42.4550781,16.5901718 42.4550781,17.3183594 L42.4550781,18.7246094 L47.7285156,18.7246094 L47.7285156,17.3183594 C47.7285156,16.5901718 48.3186875,16 49.046875,16 C49.7750625,16 50.3652344,16.5901718 50.3652344,17.3183594 L50.3652344,18.7246094 L57.0449219,18.7246094 C57.7731094,18.7246094 58.3632812,19.3147812 58.3632812,20.0429688 L58.3632812,41.6860352 Z M23.9980469,21.3613281 L18.6367188,21.3613281 L18.6367188,26.6347656 L55.7265625,26.6347656 L55.7265625,21.3613281 L50.3652344,21.3613281 L50.3652344,22.6796875 C50.3652344,23.407875 49.7750625,23.9980469 49.046875,23.9980469 C48.3186875,23.9980469 47.7285156,23.407875 47.7285156,22.6796875 L47.7285156,21.3613281 L42.4550781,21.3613281 L42.4550781,22.6796875 C42.4550781,23.407875 41.8649063,23.9980469 41.1367188,23.9980469 C40.4085312,23.9980469 39.8183594,23.407875 39.8183594,22.6796875 L39.8183594,21.3613281 L34.5449219,21.3613281 L34.5449219,22.6796875 C34.5449219,23.407875 33.95475,23.9980469 33.2265625,23.9980469 C32.498375,23.9980469 31.9082031,23.407875 31.9082031,22.6796875 L31.9082031,21.3613281 L26.6347656,21.3613281 L26.6347656,22.6796875 C26.6347656,23.407875 26.0445938,23.9980469 25.3164063,23.9980469 C24.5882187,23.9980469 23.9980469,23.407875 23.9980469,22.6796875 L23.9980469,21.3613281 Z M18.6367188,53.0898438 L37.9482803,53.0898438 C37.6502762,52.2500763 37.4446259,51.3670502 37.3433457,50.453125 L35.9511719,50.453125 C35.2229843,50.453125 34.6328125,49.8629532 34.6328125,49.1347656 C34.6328125,48.4065781 35.2229843,47.8164063 35.9511719,47.8164063 L37.3433457,47.8164063 C37.4446259,46.902481 37.6506196,46.019455 37.9482803,45.1796875 L35.9511719,45.1796875 C35.2229843,45.1796875 34.6328125,44.5895157 34.6328125,43.8613281 C34.6328125,43.1331406 35.2229843,42.5429688 35.9511719,42.5429688 L38.5878906,42.5429688 C38.8014374,42.5429688 39.0022812,42.5948105 39.1804657,42.684761 C41.2980805,39.4280014 44.9688873,37.2695313 49.1347656,37.2695313 C51.5720139,37.2695313 53.8400039,38.0087051 55.7265625,39.2738495 L55.7265625,29.2714844 L18.6367188,29.2714844 L18.6367188,53.0898438 Z M49.1347656,58.3632813 C54.2234955,58.3632813 58.3632813,54.2234955 58.3632813,49.1347656 C58.3632813,44.0460357 54.2234955,39.90625 49.1347656,39.90625 C44.0460357,39.90625 39.90625,44.0460357 39.90625,49.1347656 C39.90625,54.2234955 44.0460357,58.3632813 49.1347656,58.3632813 Z M27.75,32 C28.4404297,32 29,32.6714844 29,33.5 C29,34.3285156 28.4404297,35 27.75,35 L25.25,35 C24.5595703,35 24,34.3285156 24,33.5 C24,32.6714844 24.5595703,32 25.25,32 L27.75,32 Z M27.75,37 C28.4404297,37 29,37.6714844 29,38.5 C29,39.3285156 28.4404297,40 27.75,40 L25.25,40 C24.5595703,40 24,39.3285156 24,38.5 C24,37.6714844 24.5595703,37 25.25,37 L27.75,37 Z M27.75,42 C28.4404297,42 29,42.6714844 29,43.5 C29,44.3285156 28.4404297,45 27.75,45 L25.25,45 C24.5595703,45 24,44.3285156 24,43.5 C24,42.6714844 24.5595703,42 25.25,42 L27.75,42 Z M36.25,35 C35.5595703,35 35,34.3285156 35,33.5 C35,32.6714844 35.5595703,32 36.25,32 L38.75,32 C39.4404297,32 40,32.6714844 40,33.5 C40,34.3285156 39.4404297,35 38.75,35 L36.25,35 Z M36.25,40 C35.5595703,40 35,39.3285156 35,38.5 C35,37.6714844 35.5595703,37 36.25,37 L38.75,37 C39.4404297,37 40,37.6714844 40,38.5 C40,39.3285156 39.4404297,40 38.75,40 L36.25,40 Z M27.75,48 C28.4404297,48 29,48.6714844 29,49.5 C29,50.3285156 28.4404297,51 27.75,51 L25.25,51 C24.5595703,51 24,50.3285156 24,49.5 C24,48.6714844 24.5595703,48 25.25,48 L27.75,48 Z M46.25,35 C45.5595703,35 45,34.3285156 45,33.5 C45,32.6714844 45.5595703,32 46.25,32 L48.75,32 C49.4404297,32 50,32.6714844 50,33.5 C50,34.3285156 49.4404297,35 48.75,35 L46.25,35 Z M53,51.2726154 C53,52.0662729 52.751481,52.7018049 52.2513469,53.1791167 C51.7542058,53.6564284 51.1486988,53.9728688 50.4381286,54.1255972 L50.4381286,55.0239774 L50.4381286,55.1016199 C50.4381286,55.5976795 49.9789671,56 49.4408534,56 C48.9027396,56 48.4611231,55.5976795 48.4611231,55.1016199 L48.4611231,54.1335509 C48.0195065,54.0398118 47.6187594,53.8896399 47.2619778,53.6830352 C46.8964237,53.4684769 46.642022,53.280904 46.4957798,53.1172867 L46.2823507,52.859741 C45.3756899,51.773788 46.8672165,50.6154003 47.7357945,51.4520452 C47.8410641,51.5511814 47.9522165,51.6746518 48.0809138,51.80333 C48.4435781,52.1734573 48.9759124,52.2322573 49.4086532,52.2322573 C50.2275893,52.2322573 50.6398955,51.9239599 50.6398955,51.301968 C50.6398955,51.0793614 50.481991,50.9076958 50.1719615,50.7844147 C49.861932,50.6637848 49.4846125,50.5538544 49.0430992,50.4571801 C48.5983865,50.3606951 48.1538801,50.2293657 47.7123668,50.0683997 C47.2678605,49.9048771 46.8906442,49.6259323 46.5806147,49.2290089 C46.2705852,48.8321801 46.1155705,48.3280722 46.1155705,47.7193363 C46.1155705,47.1079492 46.3289996,46.5636945 46.7472917,46.0729373 C47.1597011,45.5875772 47.7562292,45.2578808 48.478668,45.1291079 L48.478668,44.9226926 L48.478668,43.8982855 C48.478668,43.4049717 48.9202846,43 49.4583983,43 C49.999505,43 50.4381286,43.4049717 50.4381286,43.8982855 L50.4381286,44.2763664 L50.4381286,45.1424586 C50.7481581,45.2041939 51.0318701,45.2899793 51.2862718,45.4025609 C51.5436665,45.5124913 51.7191159,45.6036738 51.8186061,45.6761086 L51.9706278,45.7967384 C53.2574978,46.6816732 52.0144902,48.250335 50.9031728,47.3921964 C50.1515268,46.8130026 48.4435781,46.6843244 48.4435781,47.7488783 C48.4435781,47.9742309 48.5576203,48.1538501 48.7828148,48.2906713 C49.0110022,48.4273031 49.2917213,48.5213262 49.6251785,48.5668701 C49.9556427,48.6125087 50.3212999,48.6875 50.7219439,48.7947792 C51.1196981,48.9020583 51.4881419,49.0253394 51.8187093,49.1675577 C52.1520632,49.3096813 52.4327823,49.5618299 52.6609698,49.9238142 C52.8859579,50.2831474 53,50.7337577 53,51.2726154 Z" id="Combined-Shape" fill="#FFFFFF" fill-rule="nonzero"></path>
        </g>
    </g>
</svg>