<?xml version="1.0" encoding="UTF-8"?>
<svg width="76px" height="78px" viewBox="0 0 76 78" version="1.1" xmlns="http://www.w3.org/2000/svg" xmlns:xlink="http://www.w3.org/1999/xlink">
    <!-- Generator: Sketch 53.2 (72643) - https://sketchapp.com -->
    <title>2.1.2-h</title>
    <desc>Created with Sketch.</desc>
    <g id="Page-2" stroke="none" stroke-width="1" fill="none" fill-rule="evenodd">
        <g id="2.1.2-h">
            <path d="M15.0353111,78 C6.76586784,78 4.97379915e-14,71.056083 4.97379915e-14,62.5690228 L4.97379915e-14,15.4309772 C4.97379915e-14,6.94391699 6.76586784,0 15.0353111,0 L60.9646889,0 C69.2341322,0 76,6.94391699 76,15.4309772 L76,62.5690228 C76,71.056083 69.2341322,78 60.9646889,78 L15.0353111,78 Z" id="Fill-1-Copy-44" fill="#75A7FF"></path>
            <path d="M35.7072528,48.7075601 C35.3165324,49.09748 34.6835654,49.09748 34.2924543,48.7075601 C33.9025152,48.3164681 33.9025152,47.683532 34.2924543,47.29244 C34.6835654,46.90252 35.3165324,46.90252 35.7072528,47.29244 C36.0975824,47.683532 36.0975824,48.3164681 35.7072528,48.7075601 Z M32,23.4997958 C32,17.1588136 37.1589052,12 43.5,12 C49.8410948,12 55,17.1588136 55,23.4997958 C55,29.840778 49.8410948,35 43.5,35 C37.1589052,35 32,29.840778 32,23.4997958 Z M52.9093137,23.4997958 C52.9093137,18.3119794 48.688317,14.0910577 43.5,14.0910577 C38.311683,14.0910577 34.0906862,18.3119794 34.0906862,23.4997958 C34.0906862,28.6880206 38.311683,32.9089423 43.5,32.9089423 C48.688317,32.9089423 52.9093137,28.6880206 52.9093137,23.4997958 Z M47,25.2726154 C47,26.0662729 46.751481,26.7018049 46.2513469,27.1791167 C45.7542058,27.6564284 45.1486988,27.9728688 44.4381286,28.1255972 L44.4381286,29.0239774 L44.4381286,29.1016199 C44.4381286,29.5976795 43.9789671,30 43.4408534,30 C42.9027396,30 42.4611231,29.5976795 42.4611231,29.1016199 L42.4611231,28.1335509 C42.0195065,28.0398118 41.6187594,27.8896399 41.2619778,27.6830352 C40.8964237,27.4684769 40.642022,27.280904 40.4957798,27.1172867 L40.2823507,26.859741 C39.3756899,25.773788 40.8672165,24.6154003 41.7357945,25.4520452 C41.8410641,25.5511814 41.9522165,25.6746518 42.0809138,25.80333 C42.4435781,26.1734573 42.9759124,26.2322573 43.4086532,26.2322573 C44.2275893,26.2322573 44.6398955,25.9239599 44.6398955,25.301968 C44.6398955,25.0793614 44.481991,24.9076958 44.1719615,24.7844147 C43.861932,24.6637848 43.4846125,24.5538544 43.0430992,24.4571801 C42.5983865,24.3606951 42.1538801,24.2293657 41.7123668,24.0683997 C41.2678605,23.9048771 40.8906442,23.6259323 40.5806147,23.2290089 C40.2705852,22.8321801 40.1155705,22.3280722 40.1155705,21.7193363 C40.1155705,21.1079492 40.3289996,20.5636945 40.7472917,20.0729373 C41.1597011,19.5875772 41.7562292,19.2578808 42.478668,19.1291079 L42.478668,18.9226926 L42.478668,17.8982855 C42.478668,17.4049717 42.9202846,17 43.4583983,17 C43.999505,17 44.4381286,17.4049717 44.4381286,17.8982855 L44.4381286,18.2763664 L44.4381286,19.1424586 C44.7481581,19.2041939 45.0318701,19.2899793 45.2862718,19.4025609 C45.5436665,19.5124913 45.7191159,19.6036738 45.8186061,19.6761086 L45.9706278,19.7967384 C47.2574978,20.6816732 46.0144902,22.250335 44.9031728,21.3921964 C44.1515268,20.8130026 42.4435781,20.6843244 42.4435781,21.7488783 C42.4435781,21.9742309 42.5576203,22.1538501 42.7828148,22.2906713 C43.0110022,22.4273031 43.2917213,22.5213262 43.6251785,22.5668701 C43.9556427,22.6125087 44.3212999,22.6875 44.7219439,22.7947792 C45.1196981,22.9020583 45.4881419,23.0253394 45.8187093,23.1675577 C46.1520632,23.3096813 46.4327823,23.5618299 46.6609698,23.9238142 C46.8859579,24.2831474 47,24.7337577 47,25.2726154 Z M23.3736382,65.6843306 L11.3117683,53.6068623 C10.8953786,53.1897506 10.8962181,52.5169496 11.3134473,52.1010893 L16.4238755,47.0077387 C17.1987298,46.2377505 18.2758024,45.9307563 19.2970485,46.1230448 C21.7210915,41.6716291 26.2379965,39.2974296 31.4109671,39.2974296 C33.2771653,39.2974296 35.0858582,39.6561455 36.7904536,40.3648182 L48.7696332,40.3648182 C50.0884804,40.3648182 51.3091067,40.9750526 52.1095656,41.9540137 L58.4485953,35.4796064 C59.9819337,33.7127214 62.6775534,33.4962404 64.4770118,35.0032649 C66.2878033,36.5244712 66.5165659,39.2240179 64.987425,41.0217691 C54.677582,53.2664992 55.3193762,52.5152811 55.2446612,52.5874414 C53.4292524,54.3430644 51.0345917,55.3099293 48.5009947,55.3099293 L34.2199187,55.3099293 C33.3804233,55.3099293 32.5862607,55.6290197 31.9830833,56.2079707 L30.8627766,57.281616 C31.2518827,58.4132401 30.9828245,59.7150455 30.0979963,60.5943169 L24.8897669,65.6930899 C24.4679205,66.1060305 23.7900279,66.1014423 23.3736382,65.6843306 Z M31.4105473,41.432207 C26.8197667,41.432207 23.1289253,43.5177653 21.1619875,47.184594 L29.5779289,55.5472658 L30.4908802,54.6717484 C31.4957561,53.7069691 32.8204798,53.1751517 34.2199187,53.1751517 L48.5009947,53.1751517 C50.4536609,53.1751517 52.3009706,52.4364469 53.7079649,51.0941816 L63.3432733,39.6478034 C64.1109918,38.7447565 63.9964006,37.3949832 63.0914247,36.6345887 C62.1872881,35.8771139 60.8281451,35.9909854 60.0625253,36.8890268 C60.0255875,36.9328235 59.1609071,37.8129291 53.028813,44.076695 C53.0531584,44.2610583 53.0665904,44.4470901 53.0665904,44.6347903 C53.0665904,46.9893858 51.1391089,48.9047625 48.7696332,48.9047625 L40.0048814,48.9047625 C39.411778,48.9047625 38.9307472,48.4271697 38.9307472,47.8373738 C38.9307472,47.247995 39.411778,46.769985 40.0048814,46.769985 L48.7696332,46.769985 C49.9545809,46.769985 50.9183216,45.8122966 50.9183216,44.6347903 C50.9183216,43.4439366 49.934433,42.5000129 48.7696332,42.5000129 L36.5705058,42.5000129 C36.4223349,42.5000129 36.2758429,42.4695638 36.1398446,42.4103338 C34.6468021,41.7613081 33.0559583,41.432207 31.4105473,41.432207 Z M17.9442017,48.5164315 L13.5893193,52.8564784 L24.1447147,63.4256709 L28.5848059,59.0789503 C28.9852451,58.6810257 29.0083313,58.0011337 28.5789294,57.5744285 C18.9264113,47.9958762 19.4603304,48.4788914 19.2743821,48.3662713 C18.8424618,48.1009883 18.2984687,48.1643893 17.9442017,48.5164315 Z" id="Combined-Shape-Copy-17" fill="#FFFFFF" fill-rule="nonzero"></path>
        </g>
    </g>
</svg>