<?xml version="1.0" encoding="UTF-8"?>
<svg width="76px" height="78px" viewBox="0 0 76 78" version="1.1" xmlns="http://www.w3.org/2000/svg" xmlns:xlink="http://www.w3.org/1999/xlink">
    <!-- Generator: Sketch 53.2 (72643) - https://sketchapp.com -->
    <title>2.2.1-h</title>
    <desc>Created with Sketch.</desc>
    <g id="Page-2" stroke="none" stroke-width="1" fill="none" fill-rule="evenodd">
        <g id="2.2.1-h">
            <path d="M15.0353111,78 C6.76586784,78 4.97379915e-14,71.056083 4.97379915e-14,62.5690228 L4.97379915e-14,15.4309772 C4.97379915e-14,6.94391699 6.76586784,0 15.0353111,0 L60.9646889,0 C69.2341322,0 76,6.94391699 76,15.4309772 L76,62.5690228 C76,71.056083 69.2341322,78 60.9646889,78 L15.0353111,78 Z" id="Fill-1-Copy-64" fill="#75A7FF"></path>
            <path d="M56.0566733,11.9842027 L63.7634394,21.2771714 C64.0179176,21.5910419 64.0717302,22.02155 63.9022457,22.3879826 C63.7337671,22.7514115 63.3716638,22.9866891 62.9698296,22.9936975 L59.0998502,22.9936975 L59.0998502,67.9187237 C59.0998502,68.484892 58.6743787,69 58.1055748,69 L18.8948124,69 C18.3255055,69 17.9005371,68.484892 17.9005371,67.9187237 L17.9005371,22.9936975 L14.0300547,22.9936975 C13.6272148,22.9841862 13.2656143,22.7464055 13.0981416,22.3819754 C12.9281541,22.0145418 12.9819667,21.5835331 13.236445,21.2686613 L20.9432109,11.9842027 C21.1363327,11.7424173 21.4270212,11.5972459 21.7373236,11.5882353 L25.6651391,11.5882353 L27.5390238,8.4985885 C27.7251047,8.19072509 28.0595474,8.00150178 28.4206449,8 L48.5792394,8 C48.9408399,8.00150178 49.2747796,8.19072509 49.4608604,8.4985885 L51.3352481,11.5882353 L55.2630636,11.5882353 C55.573366,11.5977466 55.8635516,11.7424173 56.0566733,11.9842027 Z M29.0015189,10.0504202 L25.6123324,15.6890756 L51.387552,15.6890756 L47.9988683,10.0504202 L29.0015189,10.0504202 Z M34.637758,66.9495798 L34.637758,57.060908 C34.637758,54.4067752 32.4762023,52.2552358 29.8097135,52.2552358 C27.1432247,52.2552358 24.981669,54.4067752 24.981669,57.060908 L24.981669,66.9495798 L34.637758,66.9495798 Z M57.0398845,66.9495798 L57.0398845,22.9936975 L19.9605027,22.9936975 L19.9605027,66.9495798 L22.9217033,66.9495798 L22.9217033,57.060908 C22.9217033,53.2744386 26.0056168,50.2048156 29.8097135,50.2048156 C33.6138102,50.2048156 36.6977237,53.2744386 36.6977237,57.060908 L36.6977237,66.9495798 L57.0398845,66.9495798 Z M16.2187682,20.9432773 L60.7811161,20.9432773 L54.7782474,13.6386555 L52.5804813,13.6386555 L54.0952803,16.1571281 C54.2873963,16.4830127 54.2934313,16.8849872 54.1108708,17.2163784 C53.9283104,17.5387589 53.585821,17.7389952 53.2136592,17.7394958 L23.7862251,17.7394958 C23.4125545,17.7339893 23.0700652,17.5297482 22.8890135,17.2043642 C22.7069559,16.8769777 22.7124881,16.4780068 22.905107,16.1566276 L24.4194029,13.6386555 L22.2216369,13.6386555 L16.2187682,20.9432773 Z M32,27.1267606 L32,34.8732394 C32,35.4954886 31.5459397,36 30.9859155,36 L24.0140845,36 C23.4540603,36 23,35.4954886 23,34.8732394 L23,27.1267606 C23,26.5045114 23.4540603,26 24.0140845,26 L30.9859155,26 C31.5459397,26 32,26.5045114 32,27.1267606 Z M25.028169,28.2535211 L25.028169,33.7464789 L29.971831,33.7464789 L29.971831,28.2535211 L25.028169,28.2535211 Z M43,27.1267606 L43,34.8732394 C43,35.4954886 42.5459397,36 41.9859155,36 L35.0140845,36 C34.4540603,36 34,35.4954886 34,34.8732394 L34,27.1267606 C34,26.5045114 34.4540603,26 35.0140845,26 L41.9859155,26 C42.5459397,26 43,26.5045114 43,27.1267606 Z M36.028169,28.2535211 L36.028169,33.7464789 L40.971831,33.7464789 L40.971831,28.2535211 L36.028169,28.2535211 Z M54,27.1267606 L54,34.8732394 C54,35.4954886 53.5459397,36 52.9859155,36 L46.0140845,36 C45.4540603,36 45,35.4954886 45,34.8732394 L45,27.1267606 C45,26.5045114 45.4540603,26 46.0140845,26 L52.9859155,26 C53.5459397,26 54,26.5045114 54,27.1267606 Z M47.028169,28.2535211 L47.028169,33.7464789 L51.971831,33.7464789 L51.971831,28.2535211 L47.028169,28.2535211 Z M32,39.1267606 L32,46.8732394 C32,47.4954886 31.5459397,48 30.9859155,48 L24.0140845,48 C23.4540603,48 23,47.4954886 23,46.8732394 L23,39.1267606 C23,38.5045114 23.4540603,38 24.0140845,38 L30.9859155,38 C31.5459397,38 32,38.5045114 32,39.1267606 Z M25.028169,40.2535211 L25.028169,45.7464789 L29.971831,45.7464789 L29.971831,40.2535211 L25.028169,40.2535211 Z M43,39.1267606 L43,46.8732394 C43,47.4954886 42.5459397,48 41.9859155,48 L35.0140845,48 C34.4540603,48 34,47.4954886 34,46.8732394 L34,39.1267606 C34,38.5045114 34.4540603,38 35.0140845,38 L41.9859155,38 C42.5459397,38 43,38.5045114 43,39.1267606 Z M36.028169,40.2535211 L36.028169,45.7464789 L40.971831,45.7464789 L40.971831,40.2535211 L36.028169,40.2535211 Z M54,39.1267606 L54,46.8732394 C54,47.4954886 53.5459397,48 52.9859155,48 L46.0140845,48 C45.4540603,48 45,47.4954886 45,46.8732394 L45,39.1267606 C45,38.5045114 45.4540603,38 46.0140845,38 L52.9859155,38 C53.5459397,38 54,38.5045114 54,39.1267606 Z M47.028169,40.2535211 L47.028169,45.7464789 L51.971831,45.7464789 L51.971831,40.2535211 L47.028169,40.2535211 Z M54,52.1267606 L54,59.8732394 C54,60.4954886 53.5459397,61 52.9859155,61 L46.0140845,61 C45.4540603,61 45,60.4954886 45,59.8732394 L45,52.1267606 C45,51.5045114 45.4540603,51 46.0140845,51 L52.9859155,51 C53.5459397,51 54,51.5045114 54,52.1267606 Z M47.028169,53.2535211 L47.028169,58.7464789 L51.971831,58.7464789 L51.971831,53.2535211 L47.028169,53.2535211 Z" id="Combined-Shape-Copy-24" fill="#FFFFFF" fill-rule="nonzero"></path>
        </g>
    </g>
</svg>