<?xml version="1.0" encoding="UTF-8"?>
<svg width="76px" height="78px" viewBox="0 0 76 78" version="1.1" xmlns="http://www.w3.org/2000/svg" xmlns:xlink="http://www.w3.org/1999/xlink">
    <!-- Generator: Sketch 53.2 (72643) - https://sketchapp.com -->
    <title>1.2.3-h</title>
    <desc>Created with Sketch.</desc>
    <g id="Page-2" stroke="none" stroke-width="1" fill="none" fill-rule="evenodd">
        <g id="1.2.3-h">
            <path d="M15.0353111,78 C6.76586784,78 -7.10542736e-15,71.056083 -7.10542736e-15,62.5690228 L-7.10542736e-15,15.4309772 C-7.10542736e-15,6.94391699 6.76586784,0 15.0353111,0 L60.9646889,0 C69.2341322,0 76,6.94391699 76,15.4309772 L76,62.5690228 C76,71.056083 69.2341322,78 60.9646889,78 L15.0353111,78 Z" id="Fill-1-Copy-30" fill="#75A7FF"></path>
            <path d="M42.8847584,45 C43.4981413,45 44,45.45 44,46 C44,46.55 43.4981413,47 42.8847584,47 L33.1152416,47 C32.5018587,47 32,46.55 32,46 C32,45.45 32.5018587,45 33.1152416,45 L42.8847584,45 Z M48.7958115,49 C49.4581152,49 50,49.45 50,50 C50,50.55 49.4581152,51 48.7958115,51 L28.2041885,51 C27.5418848,51 27,50.55 27,50 C27,49.45 27.5418848,49 28.2041885,49 L48.7958115,49 Z M48.7958115,54 C49.4581152,54 50,54.45 50,55 C50,55.55 49.4581152,56 48.7958115,56 L28.2041885,56 C27.5418848,56 27,55.55 27,55 C27,54.45 27.5418848,54 28.2041885,54 L48.7958115,54 Z M55.2808353,11.0802597 C55.7280197,11.2557012 56.02222,11.6884569 55.998684,12.156301 L55.998684,65.8180163 C56.010452,66.2975564 55.7162517,66.7303122 55.2690673,66.9057537 C55.1396192,66.9642342 55.0101711,66.9876264 54.868955,66.9876264 C54.5394507,66.9876264 54.2217144,66.8589693 53.9981222,66.6133512 L51.491536,63.8998556 L48.9849498,66.6133512 C48.9614138,66.6367434 48.9378778,66.6601356 48.9143418,66.6835278 C48.4436214,67.1162836 47.6904687,67.0928914 47.2550523,66.6133512 L44.7484661,63.8998556 L42.24188,66.6133512 C42.2183439,66.6367434 42.1948079,66.6601356 42.1712719,66.6835278 C41.7005515,67.1162836 40.9473988,67.0928914 40.5119824,66.6133512 L38.0053963,63.8998556 L35.4988101,66.6133512 C35.4752741,66.6367434 35.451738,66.6601356 35.428202,66.6835278 C34.9574816,67.1162836 34.2043289,67.0928914 33.7689126,66.6133512 L31.2623264,63.8998556 L28.7557402,66.6133512 C28.7322042,66.6367434 28.7086682,66.6601356 28.6851321,66.6835278 C28.2026437,67.1162836 27.4612591,67.0928914 27.0258427,66.6133512 L24.5192565,63.8998556 L22.0126703,66.6250473 C21.7890781,66.8706654 21.4713418,67.0110186 21.1300695,66.9993225 C20.494597,66.9876264 19.9885725,66.4613019 20.0003406,65.8297124 L20.0003406,12.1679971 C19.9885725,11.6884569 20.2827728,11.2557012 20.7299572,11.0802597 C21.1771416,10.9048181 21.683166,11.0334752 22.0009023,11.3843583 L24.5192565,14.0978539 L27.0258427,11.3843583 C27.0493787,11.3609661 27.0729147,11.3375739 27.0964507,11.3141817 C27.5671712,10.8814259 28.3203238,10.9048181 28.7557402,11.3843583 L31.2623264,14.0978539 L33.7689126,11.3843583 C33.7924486,11.3609661 33.8159846,11.3375739 33.8395206,11.3141817 C34.310241,10.8814259 35.0633937,10.9048181 35.4988101,11.3843583 L38.0053963,14.0978539 L40.5119824,11.3843583 C40.5355185,11.3609661 40.5590545,11.3375739 40.5825905,11.3141817 C41.0533109,10.8814259 41.8064636,10.9048181 42.24188,11.3843583 L44.7484661,14.10955 L47.2550523,11.3960544 C47.2785883,11.3726622 47.3021244,11.34927 47.3256604,11.3258778 C47.8081488,10.893122 48.5495335,10.9165142 48.9849498,11.3960544 L51.491536,14.10955 L53.9981222,11.3843583 C54.3276265,11.0217791 54.8336509,10.9048181 55.2808353,11.0802597 Z M51.503304,60.9875262 C51.8328083,60.9875262 52.1387766,61.1278794 52.3506008,61.3734976 L53.6568499,62.8121181 L53.6568499,15.1621992 L52.3388328,16.6125158 C52.1270086,16.858134 51.8210403,16.9984872 51.491536,16.9984872 C51.1620317,16.9984872 50.8442955,16.858134 50.6207033,16.6125158 L48.1141171,13.8873241 L45.6075309,16.6008197 C45.5839949,16.6242119 45.5604588,16.6476041 45.5369228,16.6709963 C45.0662024,17.1037521 44.3130498,17.0803599 43.8776334,16.6008197 L41.3710472,13.8873241 L38.864461,16.6008197 C38.840925,16.6242119 38.817389,16.6476041 38.7938529,16.6709963 C38.3231325,17.1037521 37.5699799,17.0803599 37.1345635,16.6008197 L34.6279773,13.8873241 L32.1213911,16.6008197 C32.0978551,16.6242119 32.0743191,16.6476041 32.0507831,16.6709963 C31.5800627,17.1037521 30.82691,17.0803599 30.3914936,16.6008197 L27.8849074,13.8873241 L25.3783212,16.6125158 C25.1547291,16.858134 24.8369928,16.9984872 24.5074885,16.9984872 C24.1779842,16.9984872 23.8720159,16.858134 23.6601917,16.6125158 L22.3539426,15.1738953 L22.3539426,62.8238142 L23.6601917,61.3734976 C23.8720159,61.1278794 24.1779842,60.9875262 24.5074885,60.9875262 C24.8369928,60.9875262 25.1547291,61.1278794 25.3783212,61.3734976 L27.8849074,64.0986893 L30.4032616,61.3851937 C30.4267977,61.3618015 30.4503337,61.3384092 30.4738697,61.315017 C30.9445901,60.8822613 31.6977428,60.9056535 32.1331591,61.3851937 L34.6397453,64.0986893 L37.1463315,61.3851937 C37.1698675,61.3618015 37.1934036,61.3384092 37.2169396,61.315017 C37.68766,60.8822613 38.4408126,60.9056535 38.876229,61.3851937 L41.3828152,64.0986893 L43.8894014,61.3851937 C43.9129374,61.3618015 43.9364734,61.3384092 43.9600095,61.315017 C44.4307299,60.8822613 45.1838825,60.9056535 45.6192989,61.3851937 L48.1258851,64.0986893 L50.6324713,61.3734976 C50.8560635,61.1278794 51.1737997,60.9875262 51.503304,60.9875262 Z M41.8073346,31.0200286 C42.4817417,33.0994278 41.3291186,35.3369099 39.2323257,36.0057225 L39.2323257,36.7839771 C39.2323257,37.4527897 38.6805381,38 38.006131,38 C37.3317239,38 36.7799363,37.4527897 36.7799363,36.7839771 L36.7799363,36.0057225 C35.1245734,35.4706724 34.0087362,33.9506438 34.0087362,32.2360515 C34.0087362,31.5672389 34.5605238,31.0200286 35.2349309,31.0200286 C35.909338,31.0200286 36.4611256,31.5672389 36.4611256,32.2360515 C36.4611256,33.0872675 37.1600566,33.7682403 38.006131,33.7682403 C38.0183929,33.7682403 38.0183929,33.7682403 38.0183929,33.7804006 C38.8767292,33.7682403 39.5633983,33.0872675 39.5511363,32.2360515 C39.5388744,31.3848355 38.8399434,30.7038627 37.993869,30.7160229 C36.2649345,30.7160229 34.7199291,29.5972818 34.1926654,27.9678112 C33.5182583,25.888412 34.6708814,23.6509299 36.7676743,22.9821173 L36.7676743,22.2160229 C36.7676743,21.5472103 37.3194619,21 37.993869,21 C38.6682761,21 39.2200637,21.5472103 39.2200637,22.2160229 L39.2200637,22.9821173 C40.8754266,23.5050072 41.9912638,25.037196 41.9912638,26.7517883 C41.9912638,27.4206009 41.4394762,27.9678112 40.7650691,27.9678112 C40.090662,27.9678112 39.5388744,27.4206009 39.5388744,26.7517883 C39.5388744,26.739628 39.5388744,26.739628 39.5388744,26.739628 C39.5388744,25.888412 38.8399434,25.195279 37.993869,25.2074392 C37.1477947,25.2195994 36.4611256,25.888412 36.4611256,26.739628 C36.4611256,27.5908441 37.1477947,28.2718169 38.006131,28.2718169 C39.7350655,28.2718169 41.2800709,29.3783977 41.8073346,31.0200286 Z" id="Combined-Shape-Copy-16" fill="#FFFFFF" fill-rule="nonzero"></path>
        </g>
    </g>
</svg>