<?xml version="1.0" encoding="UTF-8"?>
<svg width="76px" height="78px" viewBox="0 0 76 78" version="1.1" xmlns="http://www.w3.org/2000/svg" xmlns:xlink="http://www.w3.org/1999/xlink">
    <!-- Generator: Sketch 53.2 (72643) - https://sketchapp.com -->
    <title>2.3.1-h</title>
    <desc>Created with Sketch.</desc>
    <g id="Page-2" stroke="none" stroke-width="1" fill="none" fill-rule="evenodd">
        <g id="2.3.1-h">
            <g id="Group-20" transform="translate(0.000000, 0.000000)">
                <path d="M15.0353111,78 C6.76586784,78 4.97379915e-14,71.056083 4.97379915e-14,62.5690228 L4.97379915e-14,15.4309772 C4.97379915e-14,6.94391699 6.76586784,0 15.0353111,0 L60.9646889,0 C69.2341322,0 76,6.94391699 76,15.4309772 L76,62.5690228 C76,71.056083 69.2341322,78 60.9646889,78 L15.0353111,78 Z" id="Fill-1-Copy-53" fill="#75A7FF"></path>
                <path d="M64.7816239,33.3480663 C66.1944444,34.6729282 66.9876068,36.4961326 67,38.4044199 L67,55.9436464 C66.9876068,58.7392265 64.6700855,61 61.8196581,61 L58.5478632,61 C55.6974359,61 53.3799145,58.7392265 53.3675214,55.9436464 L53.3675214,53.4640884 L22.6324786,53.4640884 L22.6324786,55.9436464 C22.6200855,58.7392265 20.3025641,61 17.4521368,61 L14.1803419,61 C11.3299145,61 9.01239316,58.7392265 9,55.9436464 L9,38.8541436 C9,36.8121547 9.91709402,34.8674033 11.5034188,33.5425414 L13.3252137,31.8895028 L17.7,20.3060773 C18.4559829,18.3248619 20.3893162,17 22.5457265,17 L54.2350427,17 C56.391453,17.0121547 58.3247863,18.3248619 59.0807692,20.3060773 L63.5175214,32.0353591 L64.7816239,33.3480663 Z M20.0299145,21.1325967 L16.1632479,31.3425414 L40.9247863,31.3425414 C41.4700855,27.7082873 44.3824786,24.8519337 48.0880342,24.3171271 C52.7354701,23.6364641 57.0606838,26.7845304 57.7423077,31.3425414 L60.6299145,31.3425414 L56.7632479,21.1325967 C56.3666667,20.1116022 55.3628205,19.4309392 54.2474359,19.4309392 L22.5457265,19.4309392 C21.4303419,19.4309392 20.4264957,20.0994475 20.0299145,21.1325967 Z M55.2141026,31.3425414 C54.7183761,29.0453039 52.8965812,27.2585635 50.5666667,26.7723757 C47.307265,26.1038674 44.1098291,28.1458564 43.4282051,31.3425414 L55.2141026,31.3425414 Z M20.1538462,55.9436464 L20.1538462,53.4640884 L14.1803419,53.4640884 C13.2012821,53.4640884 12.2222222,53.2331492 11.4786325,52.759116 L11.4786325,55.9436464 C11.4910256,57.4022099 12.6931624,58.5690608 14.1803419,58.5690608 L17.4521368,58.5690608 C18.9393162,58.5690608 20.141453,57.4022099 20.1538462,55.9436464 Z M64.5213675,55.9436464 L64.5213675,52.759116 C63.7777778,53.2331492 62.7987179,53.4640884 61.8196581,53.4640884 L55.8461538,53.4640884 L55.8461538,55.9436464 C55.858547,57.3900552 57.0606838,58.5690608 58.5478632,58.5690608 L61.8196581,58.5690608 C63.3068376,58.5690608 64.5089744,57.4022099 64.5213675,55.9436464 Z M61.8196581,51.0331492 C63.2944444,51.0453039 64.5089744,49.878453 64.5213675,48.4320442 L64.5089744,48.4320442 L64.5089744,38.4044199 C64.5089744,37.1524862 63.9760684,35.9491713 63.0465812,35.0861878 C63.034188,35.0618785 62.9970085,35.0497238 62.9846154,35.0254144 L61.7948718,33.7734807 L14.8619658,33.7734807 L13.1764957,35.3292818 C13.1641026,35.3414365 13.1393162,35.3657459 13.1269231,35.3779006 C12.0858974,36.240884 11.4786325,37.5171271 11.4786325,38.8541436 L11.4786325,48.4320442 C11.4910256,49.8906077 12.7055556,51.0453039 14.1803419,51.0331492 L61.8196581,51.0331492 Z M24.8421053,38 C25.4789474,38 26,38.5625 26,39.25 L26,45.75 C26,46.4375 25.4789474,47 24.8421053,47 L16.1578947,47 C15.5210526,47 15,46.4375 15,45.75 L15,39.25 C15,38.5625 15.5210526,38 16.1578947,38 L24.8421053,38 Z M23.6842105,44.5 L23.6842105,40.5 L17.3157895,40.5 L17.3157895,44.5 L23.6842105,44.5 Z M59.8421053,38 C60.4789474,38 61,38.5625 61,39.25 L61,45.75 C61,46.4375 60.4789474,47 59.8421053,47 L51.1578947,47 C50.5210526,47 50,46.4375 50,45.75 L50,39.25 C50,38.5625 50.5210526,38 51.1578947,38 L59.8421053,38 Z M58.6842105,44.5 L58.6842105,40.5 L52.3157895,40.5 L52.3157895,44.5 L58.6842105,44.5 Z M44.7135506,44 C45.4210978,44 46,44.45 46,45 C46,45.55 45.4210978,46 44.7135506,46 L32.2864494,46 C31.5789022,46 31,45.55 31,45 C31,44.45 31.5789022,44 32.2864494,44 L44.7135506,44 Z M44.7135506,40 C45.4210978,40 46,40.45 46,41 C46,41.55 45.4210978,42 44.7135506,42 L32.2864494,42 C31.5789022,42 31,41.55 31,41 C31,40.45 31.5789022,40 32.2864494,40 L44.7135506,40 Z" id="Combined-Shape" fill="#FFFFFF" fill-rule="nonzero"></path>
            </g>
        </g>
    </g>
</svg>