<?xml version="1.0" encoding="UTF-8"?>
<svg width="59px" height="58px" viewBox="0 0 59 58" version="1.1" xmlns="http://www.w3.org/2000/svg" xmlns:xlink="http://www.w3.org/1999/xlink">
    <!-- Generator: Sketch 53.2 (72643) - https://sketchapp.com -->
    <title>2.4.6</title>
    <desc>Created with Sketch.</desc>
    <g id="Page-2" stroke="none" stroke-width="1" fill="none" fill-rule="evenodd">
        <g id="2.4.6" transform="translate(-9.000000, -7.000000)">
            <path d="M15.0353111,78 C6.76586784,78 4.97379915e-14,71.056083 4.97379915e-14,62.5690228 L4.97379915e-14,15.4309772 C4.97379915e-14,6.94391699 6.76586784,0 15.0353111,0 L60.9646889,0 C69.2341322,0 76,6.94391699 76,15.4309772 L76,62.5690228 C76,71.056083 69.2341322,78 60.9646889,78 L15.0353111,78 Z" id="Fill-1-Copy-88"></path>
            <g id="Shape-6" transform="translate(9.000000, 7.000000)" fill="#75A7FF" fill-rule="nonzero">
                <path d="M58.2551265,7.34697129 L41.0468651,0.0970202972 C40.5429462,-0.115607172 39.9504122,0.0293918481 39.6037879,0.452267896 L34.6870924,6.49385596 C34.4535128,6.77898294 34.365013,7.15122261 34.4461378,7.5088491 C34.5223076,7.8495968 34.7485122,8.129966 35.0558417,8.29671487 L19.6126219,13.9903053 C18.3170443,14.4688021 17.2083765,15.3750459 16.497958,16.5399092 L11.394468,24.9014815 C10.3079252,26.6825906 10.2218453,28.8550837 11.1682633,30.7110712 L11.5272177,31.4166953 L6.14589815,31.4166953 C5.46739948,31.4166953 4.91669548,31.9580627 4.91669548,32.6250582 L4.91669548,55.5832741 L1.22920268,55.5832741 C0.550704003,55.5832741 0,56.1246416 0,56.7916371 C0,57.4586326 0.550704003,58 1.22920268,58 L43.0208261,58 C43.6993248,58 44.2500288,57.4586326 44.2500288,56.7916371 C44.2500288,56.1246416 43.6993248,55.5832741 43.0208261,55.5832741 L39.3333333,55.5832741 L39.3333333,38.6667596 C39.3333333,38.5748891 39.2988783,38.4951397 39.2817084,38.4106324 C41.587659,36.8760217 44.2229488,34.5077799 46.5215244,30.8489335 C50.4278468,24.6381044 52.6230574,19.6381304 53.5253408,17.3881534 L53.6630456,17.4557819 C54.1890895,17.7144012 54.7521235,17.8424082 55.3150424,17.8424082 C55.986166,17.8424082 56.6548698,17.6611594 57.2497085,17.2962829 C58.3461614,16.6316663 59,15.4789241 59,14.2126749 L59,8.45621379 C59,7.97284597 58.7074205,7.53784891 58.2551265,7.34697129 Z M36.8750432,55.5832741 L7.37510083,55.5832741 L7.37510083,33.8334212 L13.5381689,33.8334212 C13.5676688,33.8334212 13.5971688,33.8358001 13.6290886,33.8334212 L23.3738645,33.8334212 C22.2651967,34.4955456 20.9032443,35.32929 19.1799176,36.4071538 C17.8695901,37.2263982 16.972377,38.4975185 16.6527175,39.9910084 C16.330638,41.4844984 16.6281726,43.009367 17.4958858,44.2853583 C18.5947586,45.9117262 20.4065851,46.7962203 22.2601264,46.7962203 C23.2631245,46.7962203 24.2808725,46.535222 25.2027457,45.9963468 L33.6495241,41.0156304 C34.1338533,40.8996312 35.3212259,40.5637546 36.8748127,39.8025097 L36.8750432,55.5832741 L36.8750432,55.5832741 Z M20.55662,28.3645792 C22.4372413,27.5719557 24.9521114,26.1364654 26.2279839,24.6743542 C27.208857,25.2398503 28.7526489,25.9672243 30.6824752,26.339464 C29.3107279,28.0093316 27.9340255,30.0393179 27.3514017,31.4773004 C27.2505718,31.4506795 27.152277,31.4169219 27.0416523,31.4169219 L21.9923223,31.4169219 C21.7316626,30.2156956 21.129449,29.1548239 20.55662,28.3645792 Z M44.4368234,29.5776999 C39.5890379,37.2867767 33.0153906,38.6812595 32.9515509,38.6932672 C32.8138461,38.722267 32.6786764,38.7730167 32.5582567,38.8431373 L23.9442735,43.9229741 C22.4447316,44.809847 20.5124853,44.3820999 19.5389872,42.9466096 C19.0472831,42.2192356 18.8776584,41.3492415 19.0596132,40.4961261 C19.2439878,39.645503 19.7552817,38.9180157 20.5026904,38.4516399 C27.1082576,34.316789 28.3004701,33.862421 28.2759252,33.8358001 C28.9568438,33.8358001 29.5025928,33.3524322 29.5025928,32.6854367 C29.6279675,31.9290629 31.8675432,28.3910869 34.0627538,26.2329804 C34.4143332,25.8873616 34.5200029,25.3678573 34.3282533,24.9158682 C34.1389236,24.4639923 33.6890494,24.1691232 33.1925055,24.1691232 C29.3673079,24.1691232 26.6140183,22.0400165 26.5869383,22.0182667 C26.218189,21.7306475 25.724065,21.5953906 25.2963158,21.7983892 C24.8685667,21.999009 24.6080222,22.3470066 24.6080222,22.8110035 C24.1728981,23.8477465 19.4553272,26.4698498 18.4375792,26.5833569 C17.9311251,26.5833569 17.481251,26.8854759 17.2968764,27.3494728 C17.1125017,27.8134697 17.2354566,28.3403372 17.6066258,28.6785927 C17.6213757,28.6930926 18.9095783,29.8965845 19.4356222,31.4166953 L14.2780873,31.4166953 L13.3709641,29.6283363 C12.8030902,28.5142227 12.8522952,27.2117237 13.5061338,26.1434888 L18.6096238,17.7819164 C19.037373,17.08105 19.7011217,16.5397959 20.4779151,16.2521767 L38.0353359,9.78034937 L51.3176849,16.3076842 C50.5040166,18.3499047 48.3332357,23.3789918 44.4368234,29.5776999 Z M56.5415946,14.2174327 C56.5415946,14.8264285 56.1335505,15.1381764 55.9589708,15.2445468 C55.784391,15.3509172 55.3149271,15.5684157 54.7642231,15.2976754 L37.5559618,6.83947472 L40.9386603,2.6852528 L56.5417099,9.25857946 L56.5417099,14.2174327 L56.5415946,14.2174327 Z" id="Shape"></path>
            </g>
        </g>
    </g>
</svg>