<?xml version="1.0" encoding="UTF-8"?>
<svg width="76px" height="78px" viewBox="0 0 76 78" version="1.1" xmlns="http://www.w3.org/2000/svg" xmlns:xlink="http://www.w3.org/1999/xlink">
    <!-- Generator: Sketch 53.2 (72643) - https://sketchapp.com -->
    <title>2.4.2-h</title>
    <desc>Created with Sketch.</desc>
    <g id="Page-2" stroke="none" stroke-width="1" fill="none" fill-rule="evenodd">
        <g id="2.4.2-h">
            <path d="M15.0353111,78 C6.76586784,78 4.97379915e-14,71.056083 4.97379915e-14,62.5690228 L4.97379915e-14,15.4309772 C4.97379915e-14,6.94391699 6.76586784,0 15.0353111,0 L60.9646889,0 C69.2341322,0 76,6.94391699 76,15.4309772 L76,62.5690228 C76,71.056083 69.2341322,78 60.9646889,78 L15.0353111,78 Z" id="Fill-1-Copy-81" fill="#75A7FF"></path>
            <path d="M55.7931122,25.140206 C66.8750147,29.7959245 71.9863969,42.3262842 67.2098791,53.1275115 C62.4332342,63.9288625 49.5774142,68.9108441 38.4956387,64.2551256 C37.1995001,64.7996816 35.8524204,65.2205424 34.4730739,65.5117647 C22.6824428,68.0011459 11.0537814,60.703006 8.49974171,49.2108686 C5.94557501,37.7187313 13.4332749,26.3844632 25.223906,23.8950821 L20.0652667,19.7050469 C19.7269724,19.4301687 19.6088298,18.9742671 19.7725779,18.5758176 L21.8051387,13.6230573 C21.9593593,13.2466475 22.3334775,12.9998762 22.7492632,13 L35.9609084,13 C36.3768211,12.9998762 36.7508123,13.2466475 36.9050329,13.6230573 L38.9375936,18.5758176 C39.1013418,18.9742671 38.9831992,19.4301687 38.6449049,19.7050469 L33.6885054,23.7306505 C35.3456776,24.0161771 36.9630879,24.4892895 38.507707,25.140206 C41.23299,23.9915371 44.1708025,23.3995584 47.1399927,23.4007966 C50.1157888,23.4001775 53.0603342,23.9921562 55.7931122,25.140206 Z M35.7779779,16.2123604 L34.7068184,17.9527603 L36.4893742,17.9527603 L35.7779779,16.2123604 Z M34.1661572,14.9811042 L31.6579772,14.9811042 L32.9120672,17.0186697 L34.1661572,14.9811042 Z M29.7443212,15.7220371 L27.9129839,17.9527603 L31.117316,17.9527603 L29.7443212,15.7220371 Z M27.7483465,14.9811042 L24.5440144,14.9811042 L25.9190418,17.2118274 L27.7483465,14.9811042 Z M22.9321937,16.2123604 L22.2177486,17.9527603 L24.0033532,17.9527603 L22.9321937,16.2123604 Z M23.5236689,19.9338644 L27.1822783,22.9055206 L31.5278933,22.9055206 L35.1865027,19.9338644 L23.5236689,19.9338644 Z M29.863226,64.0134309 C35.6844801,64.0156597 41.2120292,61.5224401 44.9779832,57.1958326 C52.0563762,49.0637717 51.0310763,36.8783717 42.6876683,29.9790528 C41.9315557,30.1993269 41.1936091,30.4751956 40.4803073,30.8041827 C46.1622039,34.932556 48.7948783,41.949503 47.1858524,48.6765896 C44.9509247,58.0204672 35.3676547,63.8293121 25.7810817,61.6509643 C16.1945087,59.4726165 10.2347864,50.1319582 12.469714,40.7880807 C14.7046417,31.4442031 24.2879117,25.6353583 33.8746117,27.813706 C34.5828321,27.2840083 35.3233195,26.7967805 36.0921356,26.3546229 C34.0946365,25.7122499 32.0050369,25.3838818 29.9017176,25.3819007 C18.9567588,25.3716238 10.0754845,34.0112188 10.0649406,44.6789692 C10.0543966,55.3467195 18.9183943,64.0030301 29.863226,64.0134309 Z M31.8866403,29.4768429 C31.2157682,29.3909126 30.5399417,29.3465853 29.863099,29.3439852 C29.1857481,29.3433661 28.5090324,29.3854645 27.837271,29.4697853 C19.2122263,30.5528301 13.1208957,38.2458288 14.2320713,46.6526441 C15.3432469,55.0594594 23.2360615,60.9965808 31.8612332,59.913536 C31.7288627,59.787612 31.5982707,59.6600785 31.4692031,59.5308114 C23.0697726,51.119291 23.2566412,37.6636319 31.8866403,29.4768429 Z M38.5016094,57.5213528 C40.3140184,56.3652547 41.8618134,54.8566439 43.0479397,53.0901181 C47.8033697,46.0077947 45.7678872,36.5090196 38.5016094,31.8739789 C36.6884381,33.0303246 35.1398808,34.5395545 33.9535005,36.306947 C29.1990867,43.3892704 31.2353316,52.8873026 38.5016094,57.5213528 Z M45.1399529,29.4817957 C45.2741019,29.6094531 45.4064724,29.7387201 45.5369374,29.8697207 C53.9329379,38.2844604 53.7406069,51.7399957 45.1073049,59.9234415 C46.4428244,60.0925783 47.7951125,60.0940641 49.1310131,59.9277752 C57.7568199,58.8541405 63.8564078,51.1681995 62.7548869,42.7607651 C61.653366,34.3533307 53.7677924,28.4081611 45.1419855,29.4817957 L45.1399529,29.4817957 Z M62.2377272,57.2111861 C69.3237423,49.0866782 68.3107648,36.9015259 59.9753601,29.9950255 C51.6398282,23.0884013 39.138182,24.0756102 32.0521669,32.2001182 C24.9661519,40.3245023 25.9790023,52.5096546 34.3145341,59.4162788 C35.0721712,59.1955095 35.8115151,58.9186502 36.5259603,58.5881773 C30.8402526,54.4576991 28.2057997,47.4361708 29.8164771,40.7049981 C32.0533102,31.3571584 41.6415347,25.54658 51.2322998,27.7267851 C60.8230649,29.9069902 66.7845657,39.2524774 64.5477326,48.6004409 C62.3108994,57.9484045 52.722675,63.7589829 43.1319099,61.5787778 C42.4229273,62.1097137 41.6814237,62.5980559 40.9113372,63.0408326 C42.9205236,63.6889013 45.0237158,64.0173931 47.1401198,64.0135547 C52.9528625,64.0149168 58.4729165,61.5277644 62.2377272,57.2111861 Z M40.7757301,11.7904125 L42.8045103,9.79489107 L44.2392912,11.2061509 L42.210511,13.2016724 L40.7757301,11.7904125 Z M14.3985882,11.205742 L15.8333691,9.79448216 L17.8621492,11.7900036 L16.4273684,13.2012635 L14.3985882,11.205742 Z M28,7 L30,7 L30,10 L28,10 L28,7 Z" id="Combined-Shape" fill="#FFFFFF" fill-rule="nonzero"></path>
        </g>
    </g>
</svg>