<?xml version="1.0" encoding="UTF-8"?>
<svg width="54px" height="54px" viewBox="0 0 54 54" version="1.1" xmlns="http://www.w3.org/2000/svg" xmlns:xlink="http://www.w3.org/1999/xlink">
    <!-- Generator: Sketch 53.2 (72643) - https://sketchapp.com -->
    <title>3.1.5</title>
    <desc>Created with Sketch.</desc>
    <g id="Page-2" stroke="none" stroke-width="1" fill="none" fill-rule="evenodd">
        <g id="3.1.5" transform="translate(-14.000000, -12.000000)">
            <path d="M15.0353111,78 C6.76586784,78 -7.10542736e-15,71.056083 -7.10542736e-15,62.5690228 L-7.10542736e-15,15.4309772 C-7.10542736e-15,6.94391699 6.76586784,0 15.0353111,0 L60.9646889,0 C69.2341322,0 76,6.94391699 76,15.4309772 L76,62.5690228 C76,71.056083 69.2341322,78 60.9646889,78 L15.0353111,78 Z" id="Fill-1-Copy-52"></path>
            <g id="Group-16" transform="translate(14.000000, 12.000000)" fill="#75A7FF" fill-rule="nonzero">
                <path d="M43.9386792,15.6884766 C44.5247406,15.6884766 45,15.216293 45,14.6337891 L45,3.1640625 C45,1.41939844 43.5716745,0 41.8160377,0 L3.18396226,0 C1.42832547,0 0,1.41939844 0,3.1640625 L0,50.8359375 C0,52.5806016 1.42832547,54 3.18396226,54 L41.8160377,54 C43.5716745,54 45,52.5806016 45,50.8359375 L45,43.0658437 C45,42.4833398 44.5247406,42.0111562 43.9386792,42.0111562 C43.3526179,42.0111562 42.8773585,42.4833398 42.8773585,43.0658437 L42.8773585,50.8359375 C42.8773585,51.4174922 42.40125,51.890625 41.8160377,51.890625 L3.18396226,51.890625 C2.59875,51.890625 2.12264151,51.4174922 2.12264151,50.8359375 L2.12264151,3.1640625 C2.12264151,2.58250781 2.59875,2.109375 3.18396226,2.109375 L41.8160377,2.109375 C42.40125,2.109375 42.8773585,2.58250781 42.8773585,3.1640625 L42.8773585,14.6337891 C42.8773585,15.216293 43.3526179,15.6884766 43.9386792,15.6884766 Z" id="Path"></path>
                <path d="M22,5 C16.4859783,5 12,9.48600264 12,15.0000543 C12,17.8606134 13.2076087,20.4441057 15.1393478,22.2684634 C15.1755435,22.3071593 15.2140217,22.3437899 15.256087,22.3771597 C17.0355435,24.0053207 19.4036957,25 21.9998913,25 C24.596087,25 26.9642391,24.005212 28.7436957,22.3771597 C28.7857609,22.3437899 28.8242391,22.3070506 28.8604348,22.2684634 C30.7923913,20.4441057 32,17.8606134 32,15.0000543 C32,9.48600264 27.5140217,5 22,5 Z M22,22.8261838 C20.2251087,22.8261838 18.5870652,22.231398 17.2727174,21.2318273 C18.2280435,19.5377964 20.0107609,18.4783341 22,18.4783341 C23.9892391,18.4783341 25.7719565,19.5377964 26.7272826,21.2318273 C25.4128261,22.231398 23.7748913,22.8261838 22,22.8261838 Z M20.2608696,14.5652694 L20.2608696,13.8587438 C20.2608696,12.8998255 21.041087,12.1196039 22,12.1196039 C22.958913,12.1196039 23.7391304,12.8998255 23.7391304,13.8587438 L23.7391304,14.5652694 C23.7391304,15.5241876 22.958913,16.3044093 22,16.3044093 C21.041087,16.3044093 20.2608696,15.5241876 20.2608696,14.5652694 Z M28.2978261,19.6395361 C27.4961957,18.4506166 26.3852174,17.5259376 25.0953261,16.955065 C25.6072826,16.2934309 25.9130435,15.4646221 25.9130435,14.5652694 L25.9130435,13.8587438 C25.9130435,11.7010147 24.1577174,9.94567905 22,9.94567905 C19.8422826,9.94567905 18.0869565,11.7010147 18.0869565,13.8587438 L18.0869565,14.5652694 C18.0869565,15.4646221 18.3927174,16.2934309 18.9046739,16.955065 C17.6147826,17.5259376 16.5038043,18.4506166 15.7021739,19.6395361 C14.7425,18.3402899 14.173913,16.7356073 14.173913,15.0000543 C14.173913,10.6847048 17.6846739,7.17392486 22,7.17392486 C26.3153261,7.17392486 29.826087,10.6847048 29.826087,15.0000543 C29.826087,16.7356073 29.2575,18.3402899 28.2978261,19.6395361 Z" id="Shape"></path>
                <path d="M28.9189189,47 L23.0810811,47 C22.4841081,47 22,47.4477 22,48 C22,48.5523 22.4841081,49 23.0810811,49 L28.9189189,49 C29.5158919,49 30,48.5523 30,48 C30,47.4477 29.5158919,47 28.9189189,47 Z" id="Path"></path>
                <path d="M27.9506173,41 L13.0493827,41 C12.4699136,41 12,41.4477 12,42 C12,42.5523 12.4699136,43 13.0493827,43 L27.9506173,43 C28.5300864,43 29,42.5523 29,42 C29,41.4477 28.5300864,41 27.9506173,41 Z" id="Path"></path>
                <path d="M27.9506173,34 L13.0493827,34 C12.4699136,34 12,34.4477 12,35 C12,35.5523 12.4699136,36 13.0493827,36 L27.9506173,36 C28.5300864,36 29,35.5523 29,35 C29,34.4477 28.5300864,34 27.9506173,34 Z" id="Path"></path>
                <path d="M9.70704648,29.293 C9.52123938,29.107 9.26336832,29 8.99950025,29 C8.73653173,29 8.47866067,29.107 8.29285357,29.293 C8.10694653,29.479 8,29.737 8,30 C8,30.263 8.10684658,30.521 8.29285357,30.707 C8.47976012,30.893 8.73653173,31 8.99950025,31 C9.26336832,31 9.52023988,30.893 9.70704648,30.707 C9.89295352,30.521 10,30.263 10,30 C10,29.737 9.89305347,29.479 9.70704648,29.293 Z" id="Path"></path>
                <path d="M9.70704648,34.293 C9.52023988,34.107 9.26336832,34 8.99950025,34 C8.73653173,34 8.47976012,34.107 8.29285357,34.293 C8.10694653,34.479 8,34.737 8,35 C8,35.263 8.10684658,35.521 8.29285357,35.707 C8.47976012,35.893 8.73653173,36 8.99950025,36 C9.26336832,36 9.52023988,35.893 9.70704648,35.707 C9.89295352,35.521 10,35.263 10,35 C10,34.737 9.89305347,34.479 9.70704648,34.293 Z" id="Path"></path>
                <path d="M9.70704648,41.293 C9.52023988,41.107 9.26336832,41 8.99950025,41 C8.73653173,41 8.47976012,41.107 8.29285357,41.293 C8.10694653,41.479 8,41.737 8,42 C8,42.263 8.10684658,42.521 8.29285357,42.707 C8.47866067,42.893 8.73653173,43 8.99950025,43 C9.26336832,43 9.52123938,42.893 9.70704648,42.707 C9.89295352,42.521 10,42.263 10,42 C10,41.737 9.89305347,41.479 9.70704648,41.293 Z" id="Path"></path>
                <path d="M27.9506173,29 L13.0493827,29 C12.4699136,29 12,29.4477 12,30 C12,30.5523 12.4699136,31 13.0493827,31 L27.9506173,31 C28.5300864,31 29,30.5523 29,30 C29,29.4477 28.5300864,29 27.9506173,29 Z" id="Path"></path>
                <path d="M51.7481884,14.5927193 C50.7060202,14.0037611 49.4918915,13.8473075 48.3292544,14.1521294 C47.1668318,14.4570563 46.1951427,15.1868227 45.5935493,16.2069207 L32.0939572,39.0935517 C32.0200453,39.2190295 31.9732738,39.3581576 31.9568608,39.5021159 L31.0066265,47.8334237 C30.9594259,48.247973 31.1673232,48.6506571 31.5363462,48.8592968 C31.7029429,48.9533789 31.8879908,49 32.0726096,49 C32.2970271,49 32.5205864,48.9312234 32.7088525,48.7954554 L39.6048632,43.8242233 C39.7240448,43.7383314 39.8238098,43.6292339 39.8977216,43.5037561 L53.3972065,20.6171251 C54.639441,18.5111977 53.8996786,15.8086467 51.7481884,14.5927193 Z M33.4108545,45.6811902 L33.9071047,41.3307321 L37.0118328,43.0853217 L33.4108545,45.6811902 Z M38.5761043,41.5443069 L34.4884232,39.2342548 L45.3215021,20.8682908 L49.4091831,23.1783429 L38.5761043,41.5443069 Z M51.5392184,19.5669965 L50.4818172,21.3597019 L46.3941362,19.0496498 L47.4515374,17.2569444 C47.7667088,16.7225874 48.2756173,16.3403787 48.8845053,16.1806701 C49.4936079,16.0208565 50.129529,16.1029684 50.6753398,16.4114653 C51.2212579,16.7199623 51.6117357,17.2180935 51.7748997,17.814087 C51.9380637,18.4100804 51.8543898,19.0326394 51.5392184,19.5669965 Z" id="Shape"></path>
            </g>
        </g>
    </g>
</svg>