<?xml version="1.0" encoding="UTF-8"?>
<svg width="76px" height="78px" viewBox="0 0 76 78" version="1.1" xmlns="http://www.w3.org/2000/svg" xmlns:xlink="http://www.w3.org/1999/xlink">
    <!-- Generator: Sketch 53.2 (72643) - https://sketchapp.com -->
    <title>4.1.5-h</title>
    <desc>Created with Sketch.</desc>
    <g id="Page-2" stroke="none" stroke-width="1" fill="none" fill-rule="evenodd">
        <g id="4.1.5-h">
            <path d="M15.0353111,78 C6.76586784,78 0,71.056083 0,62.5690228 L0,15.4309772 C0,6.94391699 6.76586784,0 15.0353111,0 L60.9646889,0 C69.2341322,0 76,6.94391699 76,15.4309772 L76,62.5690228 C76,71.056083 69.2341322,78 60.9646889,78 L15.0353111,78 Z" id="Fill-1-Copy-24" fill="#75A7FF"></path>
            <path d="M57.1067668,42.2592059 C57.254034,41.6881951 56.2973851,41.7115293 55.7741416,41.7115293 C52.5117623,41.7115293 49.4267081,45.525144 49.4267081,48.5690694 C49.4267081,50.1762525 50.0933566,51.2785383 51.4970126,51.2785383 C54.2878683,51.2785383 55.6361102,49.6375376 56.4056945,45.6227079 L57.1067668,42.2592059 Z M56.6113984,37.7844564 C58.5858196,37.7844564 60.6609938,38.1544213 62,38.5908379 C62,38.5908379 58.7127683,52.5759519 58.7784256,54.6285133 L54.4304336,54.8642222 C53.0798408,54.9881638 51.7606493,55 49.8540684,55 C46.9119154,55 44.9003835,52.7098697 44.9003835,49.2728144 C44.9003835,43.7147169 48.5823987,37.7844564 56.6113984,37.7844564 Z M38.9136454,37.672351 C43.5743072,37.9611536 44.6973664,40.6467811 44.7438806,43.4174599 C44.7561389,44.1360847 44.629694,45.3078657 44.4967001,46.0897295 L42.9205887,54.4242548 L37.6873145,54.4242548 L39.3992744,45.5895666 C39.4953255,45.0356338 39.5571207,44.4149111 39.5483887,43.8291896 C39.5317645,42.6876754 39.0310225,41.7583667 37.6873145,41.7583667 C35.2321339,41.7583667 34.100007,43.8291896 33.3959121,47.3496055 L32.0611039,54.4242548 L26.8286693,54.4242548 L28.6077978,45.392748 C29.7338795,38.7795403 34.4999961,37.3975827 38.9136454,37.672351 Z M29.4186908,40.510496 L27.1411712,40.510496 L24.1113632,54.373021 L19.0285467,54.373021 L21.9115913,40.510496 L19,40.510496 L20.3494174,36.485521 L22.6734512,36.485521 L22.8183675,35.5719376 C23.2181886,33.4121743 24.053934,31.1846067 25.8362531,29.6831037 C27.2874309,28.4766596 29.1748688,28 30.9185659,28 C32.15514,28 34.4271182,28.5566383 35.0109813,28.8146668 L32.7697327,32.607991 C32.2978733,32.4284193 31.757166,32.3176666 31.0992494,32.3176666 C29.3941743,32.3176666 28.3409705,33.8166333 28.0140273,35.609137 L27.8679356,36.485521 L31.3549939,36.485521 L29.4186908,40.510496 Z M35.7057127,59.5511547 L35.5098999,58.0222169 L34.7862669,59.5511547 L35.7057127,59.5511547 Z M37,61 L35.8903361,61 L35.7793173,60.1127598 L34.5084575,60.1127598 L34.0899078,61 L33,61 L35.1128546,57 L36.2338826,57 L37,61 Z M42,57 L41.3349261,61 L40.2127644,61 L40.4703856,59.4455347 L38.3844131,59.4455347 L38.1266067,61 L37,61 L37.6589621,57 L38.7901989,57 L38.5485054,58.4777233 L40.6254028,58.4777233 L40.8659851,57 L42,57 Z M45.0067985,58.8454125 C45.0067985,58.650954 44.9702274,58.4824544 44.8963038,58.333696 C44.8226928,58.1871138 44.7204814,58.0737963 44.5907635,57.9937434 C44.4619833,57.9133797 44.313511,57.8732756 44.1412831,57.8732756 C43.9034149,57.8732756 43.6980542,57.9371624 43.5239509,58.0708429 C43.3471907,58.2035907 43.2174728,58.3692923 43.1255763,58.5699685 C43.0361804,58.7735981 42.9938267,58.9745852 42.9938267,59.1788365 C42.9938267,59.4443322 43.0722826,59.6661485 43.2259123,59.8505032 C43.3826678,60.0312828 43.6003751,60.1267244 43.8734078,60.1267244 C44.0453231,60.1267244 44.2053606,60.0908172 44.343518,60.0219562 C44.4848011,59.9496755 44.6052981,59.8537675 44.7040713,59.7340769 C44.8050324,59.6091012 44.8805189,59.4713792 44.932406,59.3207555 C44.9796046,59.1668674 45.0067985,59.0089379 45.0067985,58.8454125 Z M46,58.7773287 C46,59.0955194 45.9518637,59.3885283 45.853872,59.6577546 C45.7541611,59.9268255 45.61069,60.1652742 45.4186137,60.3645514 C45.2291943,60.5661602 45.0036727,60.7220689 44.7404861,60.8324331 C44.4760491,60.9440407 44.1825428,61 43.8566852,61 C43.5611471,61 43.2734235,60.9417091 42.9874189,60.8243501 C42.7000078,60.7041931 42.4669844,60.5108227 42.2775651,60.245327 C42.0923654,59.9787432 42,59.637858 42,59.2284226 C42,58.8705942 42.0554818,58.5531807 42.1753536,58.2733844 C42.2967883,57.9903237 42.4566695,57.756072 42.6640619,57.5679866 C42.8659842,57.3763261 43.1001016,57.2325419 43.358756,57.1411417 C43.6194421,57.0453892 43.8946628,57 44.1889505,57 C44.5312183,57 44.8405095,57.0704154 45.1182308,57.2135779 C45.394233,57.3572067 45.6125654,57.561458 45.7685395,57.8355031 C45.9217004,58.1016205 46,58.4185676 46,58.7773287 Z M48.7120414,58.1597463 C48.7120414,58.005624 48.652442,57.8701687 48.5336034,57.755295 C48.4111636,57.6389853 48.1680846,57.5813889 47.8009453,57.5813889 L47.6298897,57.5813889 L47.4503714,58.7365083 L47.8837722,58.7365083 C48.1895116,58.7365083 48.406302,58.6768378 48.5276615,58.5570181 C48.652442,58.4365602 48.7120414,58.3041363 48.7120414,58.1597463 Z M50,61 L48.8035111,61 L48.3767725,60.1649316 C48.2496511,59.9131666 48.1369345,59.7244226 48.0503264,59.599657 C47.9552555,59.4713813 47.8756696,59.3947988 47.8056268,59.3643253 C47.7357641,59.33449 47.6365519,59.3209286 47.5220347,59.3209286 L47.3553005,59.3209286 L47.0846725,61 L46,61 L46.6217421,57 L48.2939455,57 C48.9030835,57 49.3164979,57.1241275 49.5347288,57.3766902 C49.7524195,57.6262215 49.8629755,57.8972917 49.8629755,58.1883052 C49.8629755,58.4935184 49.7743867,58.7304455 49.5885663,58.9013203 C49.4083277,59.0701209 49.1585865,59.1779746 48.8319604,59.2177017 C48.9997749,59.3057716 49.1245555,59.4083603 49.2171056,59.5277013 C49.3071348,59.6502333 49.4131893,59.8333932 49.5347288,60.0843604 L50,61 Z M52.7121819,58.1597463 C52.7121819,58.005624 52.6521955,57.8701687 52.5313218,57.755295 C52.4108084,57.6389853 52.1659986,57.5813889 51.7990543,57.5813889 L51.6293628,57.5813889 L51.4497636,58.7365083 L51.8835397,58.7365083 C52.1876154,58.7365083 52.405224,58.6768378 52.526458,58.5570181 C52.6502139,58.4365602 52.7121819,58.3041363 52.7121819,58.1597463 Z M54,61 L52.8024319,61 L52.3751407,60.1649316 C52.2483224,59.9131666 52.1389777,59.7244226 52.0463859,59.599657 C51.9563161,59.4713813 51.8716505,59.3947988 51.8013961,59.3643253 C51.7313218,59.33449 51.63873,59.3209286 51.5209187,59.3209286 L51.3555506,59.3209286 L51.0835397,61 L50,61 L50.6218419,57 L52.2944382,57 C52.900608,57 53.3179914,57.1241275 53.5350597,57.3766902 C53.7526683,57.6262215 53.8602117,57.8972917 53.8602117,58.1883052 C53.8602117,58.4935184 53.7681603,58.7304455 53.5903625,58.9013203 C53.4082414,59.0701209 53.1582076,59.1779746 52.8344967,59.2177017 C52.9980635,59.3057716 53.1270435,59.4083603 53.2144112,59.5277013 C53.304481,59.6502333 53.4105832,59.8333932 53.5350597,60.0843604 L54,61 Z M57.0015603,58.8454125 C57.0015603,58.650954 56.9686379,58.4824544 56.8935871,58.333696 C56.8196286,58.1871138 56.719613,58.0737963 56.5872991,57.9937434 C56.4570136,57.9133797 56.3098767,57.8732756 56.137931,57.8732756 C55.903105,57.8732756 55.694024,57.9371624 55.5245748,58.0708429 C55.347012,58.2035907 55.2168825,58.3692923 55.1270089,58.5699685 C55.0369792,58.7735981 54.9931347,58.9745852 54.9931347,59.1788365 C54.9931347,59.4443322 55.0725542,59.6661485 55.2282727,59.8505032 C55.3835232,60.0312828 55.5977532,60.1267244 55.8750195,60.1267244 C56.0455609,60.1267244 56.2008114,60.0908172 56.3406148,60.0219562 C56.4783898,59.9496755 56.5991574,59.8537675 56.7016695,59.7340769 C56.8030894,59.6091012 56.8781401,59.4713792 56.9288501,59.3207555 C56.9783117,59.1668674 57.0015603,59.0089379 57.0015603,58.8454125 Z M58,58.7773287 C58,59.0955194 57.9477298,59.3885283 57.8480262,59.6577546 C57.7505071,59.9268255 57.6058667,60.1652742 57.4156655,60.3645514 C57.2239039,60.5661602 57.0015603,60.7220689 56.739585,60.8324331 C56.4748011,60.9440407 56.1833359,61 55.8550476,61 C55.5624902,61 55.2710251,60.9417091 54.9862693,60.8243501 C54.7010454,60.7041931 54.4657513,60.5108227 54.2791387,60.245327 C54.092058,59.9787432 54,59.637858 54,59.2284226 C54,58.8705942 54.0597597,58.5531807 54.1770947,58.2733844 C54.295678,57.9903237 54.4584178,57.756072 54.663442,57.5679866 C54.8711187,57.3763261 55.0993915,57.2325419 55.3608987,57.1411417 C55.6211577,57.0453892 55.8942113,57 56.1884849,57 C56.5292557,57 56.8358558,57.0704154 57.1142144,57.2135779 C57.3899204,57.3572067 57.6068029,57.561458 57.7631456,57.8355031 C57.9179279,58.1016205 58,58.4185676 58,58.7773287 Z M62.0812809,31.8497535 C54.7319015,27.9126767 44.0575559,23.8185977 40.7133558,22.7216155 C28.4253646,25.2388991 15.7588826,30.6670723 14.2435812,31.1985421 C12.9748089,31.6394013 12.6292666,30.5850993 13.4282285,30.0890269 C17.9753037,27.2800955 35.6613473,18.5963733 40.247894,17.25669 C41.2507359,16.9465812 41.4813761,16.9123693 41.9836334,17.1818303 C45.7526531,19.1981299 57.3555808,27.0214739 62.5636352,30.7890157 C63.3018847,31.3221791 63.0786035,32.3946033 62.0812809,31.8497535 Z" id="Combined-Shape-Copy-11" fill="#FFFFFF"></path>
        </g>
    </g>
</svg>