<?xml version="1.0" encoding="UTF-8"?>
<svg width="76px" height="78px" viewBox="0 0 76 78" version="1.1" xmlns="http://www.w3.org/2000/svg" xmlns:xlink="http://www.w3.org/1999/xlink">
    <title>4.1.3</title>
    <defs>
        <polygon id="path-1" points="0.0266763425 0.0758591773 8.77800677 0.0758591773 8.77800677 8.17610063 0.0266763425 8.17610063"></polygon>
        <polygon id="path-3" points="0.0440638607 0.0662278777 8.79539429 0.0662278777 8.79539429 12.5786164 0.0440638607 12.5786164"></polygon>
    </defs>
    <g id="Page-2" stroke="none" stroke-width="1" fill="none" fill-rule="evenodd">
        <g id="4.1.3">
            <path d="M15.0353111,78 C6.76586784,78 0,71.056083 0,62.5690228 L0,15.4309772 C0,6.94391699 6.76586784,0 15.0353111,0 L60.9646889,0 C69.2341322,0 76,6.94391699 76,15.4309772 L76,62.5690228 C76,71.056083 69.2341322,78 60.9646889,78 L15.0353111,78 Z" id="Fill-1-Copy-17" fill="#FFFFFF"></path>
            <g id="Group-41" transform="translate(8.000000, 18.000000)">
                <g id="Group-18" transform="translate(0.000000, 28.301887)">
                    <path d="M4.24716776,12.5786164 C2.11290977,12.5786164 0.68059612,11.3964004 0.566037736,9.85799238 L2.98673937,9.85799238 C3.04397087,10.413576 3.54531881,10.7839019 4.21845662,10.7839019 C4.8487662,10.7839019 5.17813347,10.4989483 5.17813347,10.1428511 C5.17813347,8.86093933 0.823865639,9.78675398 0.823865639,6.86673836 C0.823865639,5.51358816 1.98404351,4.40251572 4.07528249,4.40251572 C6.13781033,4.40251572 7.28368033,5.54204558 7.44125772,7.10891099 L5.17813347,7.10891099 C5.10649871,6.56765091 4.6911888,6.21155376 4.00364773,6.21155376 C3.43066504,6.21155376 3.11560563,6.43940281 3.11560563,6.82405224 C3.11560563,8.09173533 7.44125772,7.1943781 7.48427673,10.1571747 C7.48427673,11.5387823 6.25236871,12.5786164 4.24716776,12.5786164" id="Fill-1" fill="#414141"></path>
                    <polygon id="Fill-3" fill="#414141" points="8.74213836 0 11.2703887 0 11.2703887 6.57191145 13.178244 4.28753498 16.1993841 4.28753498 12.9661616 7.85421392 16.918239 12.5786164 13.7837717 12.5786164 11.2703887 9.20063645 11.2703887 12.5786164 8.74213836 12.5786164"></polygon>
                    <g id="Group-7" transform="translate(16.289308, 4.402516)">
                        <mask id="mask-2" fill="white">
                            <use xlink:href="#path-1"></use>
                        </mask>
                        <g id="Clip-6"></g>
                        <path d="M4.52091921,2.27250488 C3.59106918,2.27250488 2.55478471,2.85592135 2.55478471,4.11184559 C2.55478471,5.3678638 3.59106918,5.97947372 4.52091921,5.97947372 C5.46537978,5.97947372 6.29353653,5.38196053 6.29353653,4.12603629 C6.29353653,2.87001807 5.46537978,2.27250488 4.52091921,2.27250488 M3.79445573,0.0758591773 C5.00045477,0.0758591773 5.85763909,0.612192583 6.29353653,1.30358997 L6.29353653,0.188820935 L8.77800677,0.188820935 L8.77800677,8.06325164 L6.29353653,8.06325164 L6.29353653,6.94838864 C5.8431253,7.63988 4.98584422,8.17611942 3.77994194,8.17611942 C1.80393807,8.17611942 0.0266763425,6.59550061 0.0266763425,4.11184559 C0.0266763425,1.62819056 1.80393807,0.0758591773 3.79445573,0.0758591773" id="Fill-5" fill="#414141" mask="url(#mask-2)"></path>
                    </g>
                    <path d="M32.6528972,8.18612598 C32.6528972,7.08440725 32.0341467,6.47552713 31.0766384,6.47552713 C30.1191301,6.47552713 29.5002815,7.08440725 29.5002815,8.18612598 L29.5002815,12.5786164 L26.9811321,12.5786164 L26.9811321,4.4894986 L29.5002815,4.4894986 L29.5002815,5.56225521 C30.0012075,4.88087327 30.8850386,4.40251572 31.9899993,4.40251572 C33.8903982,4.40251572 35.1572327,5.6782002 35.1572327,7.85267553 L35.1572327,12.5786164 L32.6528972,12.5786164 L32.6528972,8.18612598 Z" id="Fill-8" fill="#414141"></path>
                    <g id="Group-12" transform="translate(36.415094, 0.000000)">
                        <mask id="mask-4" fill="white">
                            <use xlink:href="#path-3"></use>
                        </mask>
                        <g id="Clip-11"></g>
                        <path d="M4.53830672,6.45323973 C3.6084567,6.45323973 2.76578616,7.05857345 2.76578616,8.3616791 C2.76578616,9.66488226 3.6084567,10.2994686 4.53830672,10.2994686 C5.4827673,10.2994686 6.31082729,9.67950856 6.31082729,8.37640291 C6.31082729,7.07319975 5.4827673,6.45323973 4.53830672,6.45323973 M3.81184325,4.17407245 C4.88702467,4.17407245 5.8168747,4.67185413 6.31082729,5.41867291 L6.31082729,0.0662278777 L8.79539429,0.0662278777 L8.79539429,12.461528 L6.31082729,12.461528 L6.31082729,11.2901565 C5.86051282,12.0368778 5.0033285,12.5786359 3.81184325,12.5786359 C1.82132559,12.5786359 0.0440638607,10.9386378 0.0440638607,8.3616791 C0.0440638607,5.78472039 1.82132559,4.17407245 3.81184325,4.17407245" id="Fill-10" fill="#414141" mask="url(#mask-4)"></path>
                    </g>
                    <path d="M46.725875,12.5786164 L49.374754,12.5786164 L49.374754,4.3967838 L46.725875,4.3967838 L46.725875,12.5786164 Z M46.4779874,1.38010982 C46.4779874,0.608473766 47.1131283,0 48.0580513,0 C48.9873975,0 49.6226415,0.608473766 49.6226415,1.38010982 C49.6226415,2.13702074 48.9873975,2.74539568 48.0580513,2.74539568 C47.1131283,2.74539568 46.4779874,2.13702074 46.4779874,1.38010982 L46.4779874,1.38010982 Z" id="Fill-13" fill="#414141"></path>
                    <path d="M55.4023241,6.61972798 C54.4667683,6.61972798 53.4242222,7.20860681 53.4242222,8.4762899 C53.4242222,9.74406785 54.4667683,10.3614041 55.4023241,10.3614041 C56.3525802,10.3614041 57.1857215,9.75829656 57.1857215,8.49061347 C57.1857215,7.22283552 56.3525802,6.61972798 55.4023241,6.61972798 M54.6714029,4.40251572 C55.8847049,4.40251572 56.7471492,4.94387066 57.1857215,5.6417414 L57.1857215,4.51653511 L59.6855346,4.51653511 L59.6855346,12.4646918 L57.1857215,12.4646918 L57.1857215,11.3393907 C56.7326437,12.0373563 55.8701994,12.5786164 54.6568,12.5786164 C52.6686707,12.5786164 50.8805031,10.9831987 50.8805031,8.4762899 C50.8805031,5.96938113 52.6686707,4.40251572 54.6714029,4.40251572" id="Fill-15" fill="#414141"></path>
                </g>
                <g id="Group-39" transform="translate(16.981132, 0.000000)" fill="#00C83C">
                    <path d="M22.3084648,24.2613137 L1.77631246,3.72925418 C0.400169631,2.35311757 1.37462068,0 3.32098843,0 L22.4298594,0 C24.422352,0 26.0377358,1.61537656 26.0377358,3.60786018 L26.0377358,22.7166447 C26.0377358,24.6630037 23.6846076,25.6377038 22.3084648,24.2613137" id="Fill-16"></path>
                    <path d="M10.1886792,20.9433962 C10.1886792,23.7571131 7.90778798,26.0377358 5.09433962,26.0377358 C2.28089127,26.0377358 0,23.7571131 0,20.9433962 C0,18.1296793 2.28089127,15.8490566 5.09433962,15.8490566 C7.90778798,15.8490566 10.1886792,18.1296793 10.1886792,20.9433962" id="Fill-17"></path>
                </g>
            </g>
        </g>
    </g>
</svg>