<?xml version="1.0" encoding="UTF-8"?>
<svg width="76px" height="78px" viewBox="0 0 76 78" version="1.1" xmlns="http://www.w3.org/2000/svg" xmlns:xlink="http://www.w3.org/1999/xlink">
    <!-- Generator: Sketch 53.2 (72643) - https://sketchapp.com -->
    <title>5.1.5-h</title>
    <desc>Created with Sketch.</desc>
    <g id="Page-2" stroke="none" stroke-width="1" fill="none" fill-rule="evenodd">
        <g id="5.1.5-h">
            <path d="M15.0353111,78 C6.76586784,78 4.97379915e-14,71.056083 4.97379915e-14,62.5690228 L4.97379915e-14,15.4309772 C4.97379915e-14,6.94391699 6.76586784,0 15.0353111,0 L60.9646889,0 C69.2341322,0 76,6.94391699 76,15.4309772 L76,62.5690228 C76,71.056083 69.2341322,78 60.9646889,78 L15.0353111,78 Z" id="Fill-1-Copy-105" fill="#75A7FF"></path>
            <g id="Group-30" transform="translate(15.000000, 11.000000)" fill="#FFFFFF" fill-rule="nonzero">
                <path d="M34.3833809,14.4653934 C32.6239561,8.8427604 27.4187887,5.01097989 21.5252638,5.00002356 C15.6317388,4.98906722 10.4123342,8.8011941 8.63177961,14.4172759 C6.85122502,20.0333577 8.92126945,26.1548993 13.7453091,29.5392773 L13.7453091,29.5344204 C13.7775123,29.5622065 13.8116364,29.5877337 13.8475684,29.6105499 C18.4712703,32.8119459 24.6006131,32.7950031 29.2064619,29.568193 L29.2132416,29.568193 C34.0499365,26.2018873 36.1429187,20.0880264 34.3833809,14.4653934 Z M15.7056367,28.5068969 L15.7056367,28.5020399 C15.8099299,28.3908952 15.9297032,28.2954509 16.0614538,28.2186436 L19.1623397,26.6986498 C19.7983812,26.3805772 20.2018817,25.7324591 20.2066274,25.0215398 L20.2066274,24.6552368 C20.2045935,24.1147619 19.8953298,23.6224046 19.4092309,23.3858833 C18.2652828,22.8199942 17.4296944,21.7778999 17.1259674,20.5387045 C17.0399792,20.2210838 16.7978337,19.969201 16.4838242,19.870707 C16.2518482,19.7687114 16.112075,19.5290274 16.1377246,19.2769188 L16.1377246,18.4768804 C16.111623,18.2622718 16.2030349,18.0502611 16.3768192,17.9217218 C16.6623543,17.7704792 16.8530876,17.4865181 16.8849518,17.165057 C16.9513921,16.4412611 17.1265323,15.7315843 17.4046098,15.0599723 C17.6673202,14.4778181 17.8237034,13.853307 17.866415,13.2161453 C18.8683301,13.7169741 19.9910354,13.926161 21.1061702,13.8195344 C21.1978081,13.8118537 21.2990504,13.8118537 21.395434,13.8118537 C25.1654685,13.836929 25.8568769,15.6027062 26.0390228,17.1805314 C26.0754067,17.4958931 26.2646712,17.7730771 26.5452345,17.9217218 C26.7497531,18.0294779 26.8731422,18.2461197 26.8615038,18.4768804 L26.8615038,19.2769188 C26.8729162,19.5468738 26.7004878,19.7905111 26.4420713,19.8696904 C26.124107,19.9677326 25.8791367,20.222778 25.7941654,20.5443521 C25.515071,21.7724782 24.7061492,22.8140078 23.5851388,23.3887071 C23.1014128,23.6256802 22.7940699,24.1166821 22.792601,24.6552368 L22.792601,25.0600564 C22.792827,25.7606971 23.187175,26.4016992 23.8127081,26.7178516 L26.7757416,28.2407822 C26.9358537,28.3238018 27.0829715,28.4296377 27.2125752,28.5550144 C23.6454774,30.6018159 19.2554465,30.5834047 15.7056367,28.5068969 Z M28.8266901,27.4514742 C28.5014943,27.0632585 28.1010446,26.7448471 27.6494089,26.5155547 L24.7191435,25.0601694 L24.7191435,24.9638214 C26.0629774,24.2027515 27.0657964,22.9580214 27.5230819,21.4833213 C28.309857,21.0276733 28.792453,20.1859557 28.7881593,19.2770317 L28.7881593,18.4769934 C28.7983287,17.7205544 28.4675962,16.9995824 27.8875996,16.5136633 C27.5019521,14.3045499 26.0314522,11.8871532 21.4601794,11.8871532 C21.2914798,11.8871532 21.1226672,11.8871532 20.9597303,11.8996908 C20.0891139,11.9942316 19.2117179,11.7962269 18.4662986,11.3368515 C18.2033622,11.1636962 17.9643806,10.9565424 17.7556812,10.7209247 C17.437491,10.3355328 16.9023529,10.2077842 16.4443894,10.4077091 C15.9963694,10.5923855 15.7222468,11.0484853 15.7694781,11.530564 C15.7952407,11.8328233 15.8384043,12.1335013 15.8986299,12.4307907 C16.0007762,13.0649027 15.9075564,13.7149409 15.6315128,14.294836 C15.3299327,15.01129 15.1228152,15.7640015 15.0153582,16.5338817 C14.4751354,17.0340327 14.1792049,17.7442743 14.2044025,18.4799301 L14.2044025,19.2799685 C14.1796569,20.1752253 14.6332136,21.0160393 15.395243,21.4871617 C15.8881215,22.9719145 16.9204319,24.2176611 18.2878815,24.9782793 L15.1725324,26.5059538 C14.7646252,26.7305022 14.4042883,27.0323097 14.1118607,27.3946594 C10.361713,24.283625 8.965111,19.1562861 10.6197906,14.5742791 C12.2744702,9.99215902 16.6254053,6.93884305 21.4987103,6.93974666 C26.3897552,6.9356804 30.7544755,10.0077464 32.3994377,14.6122309 C34.0443998,19.2167154 32.6137867,24.3574956 28.8266901,27.4514742 Z" id="Shape"></path>
                <path d="M27.0769564,35 L16.9230436,35 C16.4132224,35 16,35.4476737 16,36 C16,36.5523263 16.4132224,37 16.9230436,37 L27.0769564,37 C27.5867776,37 28,36.5523263 28,36 C28,35.4476737 27.5867776,35 27.0769564,35 Z" id="Path"></path>
                <path d="M27.0769564,45 L16.9230436,45 C16.4132224,45 16,45.4477909 16,46 C16,46.5522091 16.4132224,47 16.9230436,47 L27.0769564,47 C27.5867776,47 28,46.5523263 28,46 C28,45.4476737 27.5867776,45 27.0769564,45 Z" id="Path"></path>
                <path d="M27.0454901,39 L7.95450986,39 C7.427309,39 7,39.4476737 7,40 C7,40.5523263 7.427309,41 7.95450986,41 L27.0454901,41 C27.572691,41 28,40.5523263 28,40 C28,39.4476737 27.572691,39 27.0454901,39 Z" id="Path"></path>
                <path d="M49.9998894,33.8333711 C49.9998894,33.2994766 49.577462,32.8667422 49.0565308,32.8667422 L43.3961576,32.8667422 L43.3961576,2.9 C43.3961576,1.29842969 42.1289858,0 40.565971,0 L2.83018659,0 C1.26717183,0 0,1.29831641 0,2.9 L0,51.2333711 C0,52.8349414 1.26717183,54.1333711 2.83018659,54.1333711 L34.4462452,54.1333711 C35.8355794,55.5991172 37.4193784,56.8571055 39.1509882,57.8705195 C39.4428512,58.0431602 39.8024839,58.0431602 40.0943469,57.8705195 C48.7453208,52.7471484 49.8414653,44.7238906 49.9792158,42.6367969 C49.9880602,42.6026992 49.9949145,42.5682617 50,42.5333711 C50,42.514 49.9906029,42.4985937 49.9896079,42.4792227 C49.999005,42.2945742 50,42.177668 50,42.1399453 L50,33.8333711 L49.9998894,33.8333711 Z M2.83018659,52.2 C2.30914482,52.2 1.88682791,51.7671523 1.88682791,51.2333711 L1.88682791,2.9 C1.88682791,2.36610547 2.30914482,1.93337109 2.83018659,1.93337109 L40.565971,1.93337109 C41.0870128,1.93337109 41.5093297,2.36610547 41.5093297,2.9 L41.5093297,32.8666289 L30.1885833,32.8666289 C29.6675415,32.8666289 29.2452246,33.2993633 29.2452246,33.8332578 L29.2452246,42.139832 C29.2452246,42.1775547 29.2452246,42.2944609 29.2556167,42.4791094 C29.2556167,42.4984805 29.2452246,42.5138867 29.2452246,42.5332578 C29.2501996,42.5681484 29.2571645,42.6025859 29.2660088,42.6366836 C29.566495,46.1037695 30.8061389,49.416 32.8451998,52.1998867 L2.83018659,52.1998867 L2.83018659,52.2 Z M38.6791431,34.8 L38.6791431,41.5666289 L31.131942,41.5666289 L31.131942,34.8 L38.6791431,34.8 Z M39.6226123,55.9081484 C38.183971,55.0143594 36.8666076,53.9301445 35.7046833,52.6833711 C35.6457579,52.5792656 35.5675961,52.4879609 35.4745095,52.414668 C33.242421,49.9338086 31.7753672,46.8323945 31.2575315,43.5 L38.6792536,43.5001133 L38.6792536,51.2334844 C38.6792536,51.7673789 39.1015705,52.2001133 39.6226123,52.2001133 C40.1436541,52.2001133 40.565971,51.7672656 40.565971,51.2334844 L40.565971,43.5 L47.9876931,43.5 C47.1596424,48.713543 44.0882266,53.2694883 39.6226123,55.9081484 Z M48.1131721,41.5666289 L40.565971,41.5666289 L40.565971,34.8 L48.1131721,34.8 L48.1131721,41.5666289 Z" id="Shape"></path>
            </g>
        </g>
    </g>
</svg>