<?xml version="1.0" encoding="UTF-8"?>
<svg width="61px" height="59px" viewBox="0 0 61 59" version="1.1" xmlns="http://www.w3.org/2000/svg" xmlns:xlink="http://www.w3.org/1999/xlink">
    <!-- Generator: Sketch 53.2 (72643) - https://sketchapp.com -->
    <title>5.1.1</title>
    <desc>Created with Sketch.</desc>
    <g id="Page-2" stroke="none" stroke-width="1" fill="none" fill-rule="evenodd">
        <g id="5.1.1" transform="translate(-8.000000, -10.000000)">
            <path d="M15.0353111,78 C6.76586784,78 4.97379915e-14,71.056083 4.97379915e-14,62.5690228 L4.97379915e-14,15.4309772 C4.97379915e-14,6.94391699 6.76586784,0 15.0353111,0 L60.9646889,0 C69.2341322,0 76,6.94391699 76,15.4309772 L76,62.5690228 C76,71.056083 69.2341322,78 60.9646889,78 L15.0353111,78 Z" id="Fill-1-Copy-96"></path>
            <path d="M68.9260966,43.060401 C69.4875419,47.0123173 66.7892239,50.6786525 62.8991371,51.2490402 C59.0090503,51.8194278 55.4003217,49.0781328 54.8388763,45.1260874 C54.277431,41.174042 56.975749,37.5078359 60.8658357,36.9374482 L60.8658357,35.0628378 C60.8658357,31.0182238 57.9012823,27.729651 54.2576063,27.729651 C50.7176286,27.729651 47.7510419,30.9190708 47.6493768,34.8387108 L47.6493768,55.1433755 C47.6493768,62.7791853 41.9490164,69 34.9412432,69 C27.93347,69 22.2331096,62.7864152 22.2331096,55.1433755 L22.2331096,53.3803121 C20.7589661,53.3803121 19.1831576,52.2947939 19.1831576,49.2489393 L19.1831576,46.6513386 C12.6613434,44.9605743 8,39.2665097 8,32.8060754 L8,30.6577615 L10.0333014,30.6577615 L10.0333014,17.2307998 C10.0400367,14.7195706 11.8240045,12.5773247 14.2605349,12.1543754 C14.5431638,11.2680668 15.2016993,10.5570833 16.0551776,10.2163742 C17.6302236,9.58775999 19.408854,10.375432 20.027613,11.9755644 C20.6463721,13.5756967 19.8711759,15.3826559 18.2960028,16.0112701 C16.7208296,16.6398843 14.9423263,15.8523414 14.3235673,14.2520799 C12.996584,14.6149952 12.0724485,15.834783 12.0666027,17.2307998 L12.0666027,30.6577615 L15.1165548,30.6577615 L15.1165548,32.841192 C15.1947098,36.4309677 17.5602018,39.5524781 20.9561964,40.5472352 C22.7753657,41.133632 24.7286058,41.133632 26.5477751,40.5472352 C29.9477092,39.5558349 32.3185386,36.433808 32.3996165,32.841192 L32.3996165,30.6577615 L34.4329179,30.6577615 L34.3871686,17.2215042 C34.3766208,15.845757 33.4743434,14.6419782 32.1718867,14.2655069 C31.8372816,15.1111473 31.1514236,15.7630004 30.2985808,16.0458704 C28.7057433,16.5741697 26.9930681,15.6905723 26.4731784,14.0724943 C25.9531616,12.4542872 26.8229062,10.7143337 28.4156166,10.1861635 C30.0084541,9.65786423 31.7211292,10.5414616 32.241019,12.1595396 C34.6512436,12.6025002 36.4087785,14.7270587 36.4235199,17.2153071 L36.4662192,30.6577615 L38.4995206,30.6577615 L38.4995206,32.8112396 C38.4995206,39.264444 33.8412272,44.9564429 27.3163631,46.6513386 L27.3163631,49.2489393 C27.3163631,52.2947939 25.7405545,53.3803121 24.266411,53.3803121 L24.266411,55.1433755 C24.266411,61.6430578 29.0548357,66.9343136 34.9412432,66.9343136 C40.8276507,66.9343136 45.6160754,61.6502877 45.6160754,55.1433755 L45.6160754,34.7891343 L45.6750412,34.7788059 L45.6160754,34.7788059 C45.7553566,29.7509252 49.6298123,25.660866 54.2576063,25.660866 C59.0226481,25.660866 62.8991371,29.8789977 62.8991371,35.0597393 L62.8991371,36.9374482 C66.0220339,37.3953851 68.4753391,39.8877648 68.9260966,43.060401 Z M29.3496644,14.1322701 C29.9111098,14.1322701 30.3663151,13.6698146 30.3663151,13.0994269 C30.3663151,12.5290392 29.9111098,12.0665837 29.3496644,12.0665837 C28.7882191,12.0665837 28.3330137,12.5290392 28.3330137,13.0994269 C28.3330137,13.6698146 28.7882191,14.1322701 29.3496644,14.1322701 Z M17.1498562,12.0665837 C16.5884108,12.0665837 16.1332055,12.5290392 16.1332055,13.0994269 C16.1332055,13.6698146 16.5884108,14.1322701 17.1498562,14.1322701 C17.7113015,14.1322701 18.1665069,13.6698146 18.1665069,13.0994269 C18.1665069,12.5290392 17.7113015,12.0665837 17.1498562,12.0665837 Z M10.0333014,32.8060754 C10.0333014,38.5517821 14.3926995,43.6075497 20.4031384,44.8283703 C20.8669853,44.9257158 21.3356612,44.9977566 21.807133,45.0442346 C23.2393396,45.1896073 24.6850169,45.1175664 26.0963822,44.830436 C32.1068211,43.6075497 36.4662192,38.5517821 36.4662192,32.8060754 L36.4662192,32.7234479 L34.4329179,32.7234479 L34.4329179,32.841192 C34.3552712,37.3318652 31.4128299,41.2496977 27.1699654,42.511703 C24.947694,43.2265596 22.5623774,43.2265596 20.340106,42.511703 C16.0992748,41.2480194 13.1595022,37.3303159 13.0832534,32.841192 L13.0832534,32.7234479 L10.0333014,32.7234479 L10.0333014,32.8060754 Z M22.2331096,51.3146257 L24.2653943,51.3146257 C25.18038,51.3146257 25.282045,49.8686452 25.282045,49.2489393 L25.282045,47.057246 C25.2017296,47.0675744 25.1183643,47.070673 25.0380489,47.0799685 C24.9333338,47.0913298 24.8255689,47.0995926 24.7239038,47.1088882 C24.246078,47.1522676 23.7621523,47.18222 23.2741599,47.18222 L23.2233274,47.18222 C22.7343184,47.1811872 22.249376,47.1522676 21.7685003,47.1088882 C21.6668352,47.0995926 21.5651701,47.0913298 21.4635051,47.0799685 C21.3811563,47.0717058 21.297791,47.0675744 21.2164589,47.057246 L21.2164589,49.2489393 C21.2164589,49.8686452 21.318124,51.3146257 22.2331096,51.3146257 Z M61.8824864,49.2489393 C64.6884423,49.2455825 66.9624358,46.9354996 66.9657399,44.0847232 C66.9657399,41.2326558 64.6898402,38.9205072 61.8824864,38.9205072 C59.0751326,38.9205072 56.799233,41.2326558 56.799233,44.0847232 C56.799233,46.9367907 59.0751326,49.2489393 61.8824864,49.2489393 Z M62,41 C63.656875,41 65,42.343125 65,44 C65,45.656875 63.656875,47 62,47 C60.343125,47 59,45.656875 59,44 C59,42.343125 60.343125,41 62,41 Z M62,45 C62.55225,45 63,44.55225 63,44 C63,43.44775 62.55225,43 62,43 C61.44775,43 61,43.44775 61,44 C61,44.55225 61.44775,45 62,45 Z" id="Combined-Shape" fill="#75A7FF" fill-rule="nonzero"></path>
        </g>
    </g>
</svg>