<?xml version="1.0" encoding="UTF-8"?>
<svg width="1053px" height="594px" viewBox="0 0 1053 594" version="1.1" xmlns="http://www.w3.org/2000/svg" xmlns:xlink="http://www.w3.org/1999/xlink">
    <!-- Generator: Sketch 53.2 (72643) - https://sketchapp.com -->
    <title>404</title>
    <desc>Created with Sketch.</desc>
    <g id="PAGOS" stroke="none" stroke-width="1" fill="none" fill-rule="evenodd">
        <g id="404" fill-rule="nonzero">
            <path d="M724.516853,197.170732 C704.100223,96.6965854 616.600384,21 510.149359,21 C425.566181,21 352.649647,69.0491463 316.184267,138.920732 C228.684427,147.658232 160.15,221.919878 160.15,312.25 C160.15,408.348293 238.885628,487 335.14968,487 L714.315652,487 C794.516725,487 860.148718,421.461646 860.148718,341.375 C860.468529,264.964324 800.9065,201.63777 724.516853,197.170732 Z" id="Shape" fill="#1FBE92"></path>
            <polygon id="Path" fill="#1FBE92" opacity="0.1" transform="translate(649.000000, 458.950000) rotate(90.000000) translate(-649.000000, -458.950000) " points="651 474.95 651 450.65 662.2 461.85 665 458.95 649 442.95 633 458.95 635.8 461.74 647 450.65 647 474.95"></polygon>
            <polygon id="Path-Copy" fill="#1FBE92" opacity="0.1" transform="translate(258.150000, 377.000000) rotate(90.000000) translate(-258.150000, -377.000000) " points="260.15 393 260.15 368.7 271.35 379.9 274.15 377 258.15 361 242.15 377 244.95 379.79 256.15 368.7 256.15 393"></polygon>
            <polygon id="Path-Copy-4" fill="#1FBE92" opacity="0.1" transform="translate(1036.150000, 318.000000) rotate(90.000000) translate(-1036.150000, -318.000000) " points="1038.15 334 1038.15 309.7 1049.35 320.9 1052.15 318 1036.15 302 1020.15 318 1022.95 320.79 1034.15 309.7 1034.15 334"></polygon>
            <polygon id="Path-Copy-12" fill="#1FBE92" opacity="0.1" transform="translate(80.000000, 318.000000) rotate(90.000000) translate(-80.000000, -318.000000) " points="82 334 82 309.7 93.2 320.9 96 318 80 302 64 318 66.8 320.79 78 309.7 78 334"></polygon>
            <polygon id="Path" fill="#1FBE92" opacity="0.1" transform="translate(407.000000, 538.950000) rotate(90.000000) translate(-407.000000, -538.950000) " points="409 554.95 409 530.65 420.2 541.85 423 538.95 407 522.95 391 538.95 393.8 541.74 405 530.65 405 554.95"></polygon>
            <polygon id="Path-Copy-13" fill="#1FBE92" opacity="0.1" transform="translate(178.000000, 128.000000) rotate(90.000000) translate(-178.000000, -128.000000) " points="180 144 180 119.7 191.2 130.9 194 128 178 112 162 128 164.8 130.79 176 119.7 176 144"></polygon>
            <polygon id="Path-Copy-10" fill="#1FBE92" opacity="0.1" transform="translate(407.150000, 469.000000) rotate(90.000000) translate(-407.150000, -469.000000) " points="409.15 485 409.15 460.7 420.35 471.9 423.15 469 407.15 453 391.15 469 393.95 471.79 405.15 460.7 405.15 485"></polygon>
            <polygon id="Path-Copy-11" fill="#1FBE92" opacity="0.1" transform="translate(64.150000, 578.000000) rotate(90.000000) translate(-64.150000, -578.000000) " points="66.15 594 66.15 569.7 77.35 580.9 80.15 578 64.15 562 48.15 578 50.95 580.79 62.15 569.7 62.15 594"></polygon>
            <polygon id="Path-Copy-2" fill="#1FBE92" opacity="0.1" transform="translate(16.150000, 409.000000) rotate(90.000000) translate(-16.150000, -409.000000) " points="18.15 425 18.15 400.7 29.35 411.9 32.15 409 16.15 393 0.15 409 2.95 411.79 14.15 400.7 14.15 425"></polygon>
            <polygon id="Path-Copy-5" fill="#1FBE92" opacity="0.1" transform="translate(794.150000, 398.000000) rotate(90.000000) translate(-794.150000, -398.000000) " points="796.15 414 796.15 389.7 807.35 400.9 810.15 398 794.15 382 778.15 398 780.95 400.79 792.15 389.7 792.15 414"></polygon>
            <polygon id="Path-Copy-8" fill="#1FBE92" opacity="0.1" transform="translate(851.150000, 560.000000) rotate(90.000000) translate(-851.150000, -560.000000) " points="853.15 576 853.15 551.7 864.35 562.9 867.15 560 851.15 544 835.15 560 837.95 562.79 849.15 551.7 849.15 576"></polygon>
            <polygon id="Path" fill="#1FBE92" opacity="0.1" transform="translate(588.000000, 571.000000) rotate(90.000000) translate(-588.000000, -571.000000) " points="590 587 590 562.7 601.2 573.9 604 571 588 555 572 571 574.8 573.79 586 562.7 586 587"></polygon>
            <polygon id="Path-Copy-3" fill="#1FBE92" opacity="0.1" transform="translate(194.150000, 480.000000) rotate(90.000000) translate(-194.150000, -480.000000) " points="196.15 496 196.15 471.7 207.35 482.9 210.15 480 194.15 464 178.15 480 180.95 482.79 192.15 471.7 192.15 496"></polygon>
            <polygon id="Path-Copy-6" fill="#1FBE92" opacity="0.1" transform="translate(972.150000, 421.000000) rotate(90.000000) translate(-972.150000, -421.000000) " points="974.15 437 974.15 412.7 985.35 423.9 988.15 421 972.15 405 956.15 421 958.95 423.79 970.15 412.7 970.15 437"></polygon>
            <polygon id="Path-Copy-9" fill="#1FBE92" opacity="0.1" transform="translate(940.000000, 213.000000) rotate(90.000000) translate(-940.000000, -213.000000) " points="942 229 942 204.7 953.2 215.9 956 213 940 197 924 213 926.8 215.79 938 204.7 938 229"></polygon>
            <polygon id="Path-Copy-14" fill="#1FBE92" opacity="0.1" transform="translate(48.000000, 181.000000) rotate(90.000000) translate(-48.000000, -181.000000) " points="50 197 50 172.7 61.2 183.9 64 181 48 165 32 181 34.8 183.79 46 172.7 46 197"></polygon>
            <g id="Group" transform="translate(708.150000, 0.000000)">
                <path d="M132.29019,128.03296 L132.29019,156.16363 L117.84471,172.88998 C117.84471,172.88998 111.7624,170.60911 111.7624,155.40335 L109.48154,133.35498 L132.29019,128.03296 Z" id="Path" fill="#FFB9B9"></path>
                <path d="M117.84471,156.16363 C117.84471,156.16363 141.41365,140.19763 142.17394,134.87556 C142.93423,129.55349 176.38694,105.22431 171.06494,120.43008 C165.74294,135.63585 149.01658,142.47844 149.01658,142.47844 C149.01658,142.47844 136.09167,177.45171 124.68735,176.69144 C113.28303,175.93117 113.28298,161.48565 117.84471,156.16363 Z" id="Path" fill="#FFB9B9"></path>
                <polygon id="Path" fill="#FFB9B9" points="104.15959 327.22821 101.87859 340.91421 114.04359 337.87221 114.04359 327.22821"></polygon>
                <path d="M106.44038,334.83141 C106.44038,334.83141 120.50011,326.50177 121.07313,330.28641 C121.64615,334.07105 127.72846,348.51656 130.76961,350.03714 C133.81076,351.55772 137.61221,368.28406 130.76961,367.52377 C125.46995,366.93492 106.03204,356.76856 97.53544,352.21369 C95.3636383,351.043058 94.486816,348.378181 95.53922,346.14669 C96.0375535,345.224905 96.3812594,344.227596 96.55664,343.19451 C96.55664,341.67401 106.44038,334.83141 106.44038,334.83141 Z" id="Path" fill="#2F2E41"></path>
                <path d="M99.59779,180.49286 C99.59779,180.49286 155.09879,206.34267 149.77679,226.11017 C144.45479,245.87767 124.68732,329.50939 124.68732,329.50939 C124.68732,329.50939 102.63895,334.83139 101.11838,329.50939 C99.59781,324.18739 115.56386,241.31594 114.04328,238.27478 C112.5227,235.23362 84.39203,215.46613 84.39203,215.46613 L26.6101,191.13686 L50.93932,168.32825 L99.59779,180.49286 Z" id="Path" fill="#2F2E41"></path>
                <polygon id="Path" fill="#FFB9B9" points="141.41359 331.79021 148.25659 349.27721 136.09159 354.59921 128.48859 340.91421"></polygon>
                <path d="M100.35808,55.8055603 C100.35808,55.8055603 93.51548,64.9290203 98.8375,69.4907603 C104.15952,74.0525003 100.35808,90.7788303 100.35808,90.7788303 L93.51548,109.78604 L66.1451,104.46404 L66.1451,73.2922003 L67.66568,58.0864303 C67.66568,58.0864303 81.35087,45.1615303 82.87144,35.2777803 C84.39201,25.3940303 100.35808,55.8055603 100.35808,55.8055603 Z" id="Path" fill="#FFB9B9"></path>
                <path d="M100.35808,55.8055603 C100.35808,55.8055603 93.51548,64.9290203 98.8375,69.4907603 C104.15952,74.0525003 100.35808,90.7788303 100.35808,90.7788303 L93.51548,109.78604 L66.1451,104.46404 L66.1451,73.2922003 L67.66568,58.0864303 C67.66568,58.0864303 81.35087,45.1615303 82.87144,35.2777803 C84.39201,25.3940303 100.35808,55.8055603 100.35808,55.8055603 Z" id="Path" fill="#000000" opacity="0.1"></path>
                <path d="M54.74077,174.41056 C54.74077,174.41056 90.47433,213.94556 90.47433,215.46613 C90.47433,216.9867 109.48154,248.15853 109.48154,248.15853 L146.73567,331.02997 C146.73567,331.02997 132.29019,350.79747 126.20788,349.27689 C120.12557,347.75631 76.78914,259.56289 76.78914,259.56289 C76.78914,259.56289 69.18625,239.79539 48.65847,235.23366 C28.13069,230.67193 12.16462,214.70587 19.76747,196.45895 C27.37032,178.21203 54.74077,174.41056 54.74077,174.41056 Z" id="Path" fill="#2F2E41"></path>
                <circle id="Oval" fill="#FFB9B9" cx="100.35808" cy="36.7983503" r="24.32923"></circle>
                <path d="M99.59779,76.3333503 C99.59779,76.3333503 96.55664,93.8199803 93.51548,95.3405603 C90.47432,96.8611403 88.19348,102.18316 81.35087,94.5802703 C74.50826,86.9773803 68.42596,71.7716203 68.42596,71.7716203 L44.85702,100.66262 L42.57616,180.49286 C42.57616,180.49286 69.18625,173.65027 77.54942,180.49286 C85.91259,187.33545 104.15952,186.57517 104.15952,186.57517 L100.35808,171.3694 L103.39923,145.5196 L102.63894,121.95066 L101.87865,105.22431 L99.59779,76.3333503 Z" id="Path" fill="#F2F2F2"></path>
                <path d="M96.91942,63.5361903 C96.91942,63.5361903 107.20067,68.7304703 107.96096,71.7716203 C108.72125,74.8127703 122.40644,80.8950803 122.40644,80.8950803 C122.40644,80.8950803 127.72844,86.2170803 127.72844,89.2582503 C127.72844,92.2994203 109.48152,127.27267 109.48152,127.27267 C109.48152,127.27267 105.68008,150.84167 107.20065,155.40335 C108.72122,159.96503 104.1595,177.45171 104.1595,177.45171 L113.28296,188.09571 L104.91979,188.09571 C104.91979,188.09571 95.79633,183.53398 95.79633,181.25311 C95.79633,178.97224 97.3169,163.00619 98.07719,156.16359 C98.83748,149.32099 98.83748,124.99177 97.3169,116.62859 C95.79632,108.26541 96.55662,86.2170503 96.55662,80.8950303 C96.55662,75.5730103 96.91942,63.5361903 96.91942,63.5361903 Z" id="Path" fill="#3F3D56"></path>
                <path d="M73.36784,51.9916103 C73.36784,51.9916103 69.94654,52.7644103 60.06284,55.8055603 C50.17914,58.8467103 34.97332,63.4084503 29.6513,69.4907603 C25.9157636,73.9889053 22.6069184,78.8249111 19.76756,83.9362303 L22.80871,138.677 C22.80871,138.677 16.7264,150.08133 17.48671,156.16363 C18.24702,162.24593 24.32931,163.00623 19.76758,175.93113 C15.20585,188.85603 6.08238,200.26036 14.44558,201.78094 C22.80878,203.30152 44.85711,197.9795 54.74086,201.02065 C64.62461,204.0618 76.02894,189.61632 76.02894,189.61632 C76.02894,189.61632 60.82317,191.1369 63.10403,185.05459 C65.38489,178.97228 90.47442,110.54633 85.1524,95.3405903 C79.83038,80.1348503 73.36784,51.9916103 73.36784,51.9916103 Z" id="Path" fill="#3F3D56"></path>
                <path d="M123.92702,85.4568603 L127.72846,88.4980203 C127.72846,88.4980203 138.37246,126.51244 135.33134,130.31388 C132.29022,134.11532 107.96096,142.47849 106.44034,137.15647 C104.91972,131.83445 123.92702,85.4568603 123.92702,85.4568603 Z" id="Path" fill="#3F3D56"></path>
                <path d="M11.40432,112.06691 C11.40432,112.06691 -1.42108547e-14,144.75931 -1.42108547e-14,153.88277 C-1.42108547e-14,163.00623 1.52057,216.22642 1.52057,216.22642 C1.52057,216.22642 2.28086,239.03507 18.24692,229.91161 C34.21298,220.78815 18.24692,214.70584 18.24692,214.70584 C18.24692,214.70584 19.00721,154.64306 25.08951,146.27989 C31.17181,137.91672 33.45269,125.7521 33.45269,125.7521 L11.40432,112.06691 Z" id="Path" fill="#FFB9B9"></path>
                <path d="M136.09163,348.5166 C136.09163,348.5166 147.49596,342.4343 149.77682,346.99603 C152.05768,351.55776 164.2223,376.64728 162.70173,379.68843 C161.18116,382.72958 152.81798,394.8942 142.93423,391.85304 C133.05048,388.81188 132.29023,372.84583 132.29023,372.84583 L131.52994,354.59891 L136.09163,348.5166 Z" id="Path" fill="#2F2E41"></path>
                <path d="M105.12211,30.9215803 C103.44621,31.7104503 101.45806,32.1817903 100.40497,33.7055803 C99.62464,34.8346803 99.54707,36.3019603 98.9777,37.5508003 C97.6877394,40.1174324 94.6238583,41.237898 91.98243,40.1089803 C91.67151,38.5944724 90.7909337,37.2571647 89.5225,36.3731503 C88.2072653,35.508095 86.4814559,35.6028391 85.26882,36.6066703 C83.70176,38.1006703 84.25638,40.7059003 83.52518,42.7437703 C82.8387393,44.1774265 81.8942859,45.4724941 80.73902,46.5642503 C79.07494,48.4842503 77.74922,50.7360603 75.74524,52.2980203 C73.74126,53.8599803 70.70224,54.5369103 68.7113,52.9583403 C67.0372,51.6309703 66.6902,49.1821003 67.09672,47.0846603 C67.50324,44.9872203 68.51147,43.0557503 69.08007,40.9963303 C70.92769,34.3045403 67.98207,27.1602403 68.89346,20.2781503 C70.06121,11.4597603 77.5564,4.49415031 85.92234,1.47120031 C89.4037198,0.0535062282 93.2151569,-0.350318241 96.91632,0.306380309 C100.74226,1.16067031 104.0107,3.59645031 107.67497,4.98953031 C111.59351,6.47927031 115.85454,6.73940031 119.95524,7.61032031 C124.05594,8.48124031 128.27587,10.1651403 130.6555,13.6164603 C132.31523,16.0236703 132.88572,19.0131903 134.26121,21.5933903 C135.844585,24.5385011 138.409246,26.8361985 141.51,28.0876303 L137.17519,27.8405603 C137.901808,29.7754852 139.086984,31.5052543 140.62904,32.8814703 C138.596326,33.2960324 136.4833,33.0167191 134.62812,32.0882303 C134.695926,33.8891169 135.505743,35.5817139 136.86546,36.7644903 C133.52982,36.6640103 130.01226,36.5102703 127.19373,34.7234903 C125.81314,33.8483003 124.6873,32.6293303 123.38814,31.6372803 C120.61894,29.5227003 117.18336,28.5189903 113.83426,27.5578003 C112.07566,27.0530903 109.9589,26.3512703 108.36847,27.4823003 C107.04398,28.4242003 106.83488,30.1153603 105.12211,30.9215803 Z" id="Path" fill="#2F2E41"></path>
                <path d="M31.17183,74.8127703 L19.76751,83.9362303 L4.56174,118.9095 C4.56174,118.9095 25.84981,135.63585 31.17183,133.35498 C36.49385,131.07411 45.61732,90.7788603 45.61732,90.7788603 L31.17183,74.8127703 Z" id="Path" fill="#3F3D56"></path>
                <path d="M202.21881,116.54402 L154.23167,142.9027 C153.668584,143.276843 152.96874,143.382475 152.32031,143.191195 C151.671881,142.999915 151.141418,142.531355 150.87155,141.9115 L139.11613,117.3398 C138.65573,115.892114 139.324407,114.32552 140.68829,113.6565 L180.52967,93.1205003 C181.545842,92.5093736 182.859063,92.760422 183.57816,93.7032803 L203.47934,112.45228 C203.875234,113.15796 203.964481,113.995099 203.726258,114.768381 C203.488035,115.541664 202.943179,116.183456 202.21881,116.54402 L202.21881,116.54402 Z" id="Path" fill="#2F2E41"></path>
                <polygon id="Path" fill="#1FBE92" points="199.01659 112.91421 154.02959 138.62721 142.05759 117.05121 180.65059 96.0642103"></polygon>
                <ellipse id="Oval" fill="#F2F2F2" transform="translate(160.837641, 105.120129) rotate(-50.158480) translate(-160.837641, -105.120129) " cx="160.837641" cy="105.120129" rx="1" ry="1"></ellipse>
                <ellipse id="Oval" fill="#F2F2F2" transform="translate(177.540811, 127.194755) rotate(-50.158480) translate(-177.540811, -127.194755) " cx="177.540811" cy="127.194755" rx="1" ry="1"></ellipse>
            </g>
        </g>
    </g>
</svg>