<?xml version="1.0" encoding="UTF-8"?>
<svg width="62px" height="63px" viewBox="0 0 62 63" version="1.1" xmlns="http://www.w3.org/2000/svg" xmlns:xlink="http://www.w3.org/1999/xlink">
    <!-- Generator: Sketch 53.2 (72643) - https://sketchapp.com -->
    <title>calendario</title>
    <desc>Created with Sketch.</desc>
    <g id="PAGOS" stroke="none" stroke-width="1" fill="none" fill-rule="evenodd">
        <g id="calendario" fill-rule="nonzero">
            <g id="Group">
                <polygon id="Path" fill="#B4F7D6" points="46.5 4 46.5 8 39.5 8 39.5 4 15.5 4 15.5 8 8.5 8 8.5 4 0.5 4 0.5 15 54.5 15 54.5 4"></polygon>
                <polygon id="Path" fill="#FFFFFF" points="8.5 15 0.5 15 0.5 58 54.5 58 54.5 15 46.5 15 39.5 15 15.5 15"></polygon>
                <path d="M37.5,22 L35.5,22 L28.5,22 L26.5,22 L19.5,22 L17.5,22 L8.5,22 L8.5,31 L8.5,33 L8.5,40 L8.5,42 L8.5,51 L17.5,51 L19.5,51 L26.5,51 L28.5,51 L35.5,51 L37.5,51 L46.5,51 L46.5,42 L46.5,40 L46.5,33 L46.5,31 L46.5,22 L37.5,22 Z M28.5,24 L35.5,24 L35.5,31 L28.5,31 L28.5,24 Z M35.5,40 L28.5,40 L28.5,33 L35.5,33 L35.5,40 Z M19.5,33 L26.5,33 L26.5,40 L19.5,40 L19.5,33 Z M19.5,24 L26.5,24 L26.5,31 L19.5,31 L19.5,24 Z M10.5,24 L17.5,24 L17.5,31 L10.5,31 L10.5,24 Z M10.5,33 L17.5,33 L17.5,40 L10.5,40 L10.5,33 Z M17.5,49 L10.5,49 L10.5,42 L17.5,42 L17.5,49 Z M26.5,49 L19.5,49 L19.5,42 L26.5,42 L26.5,49 Z M35.5,49 L28.5,49 L28.5,42 L35.5,42 L35.5,49 Z M44.5,49 L37.5,49 L37.5,42 L44.5,42 L44.5,49 Z M44.5,40 L37.5,40 L37.5,33 L44.5,33 L44.5,40 Z M37.5,31 L37.5,24 L44.5,24 L44.5,31 L37.5,31 Z" id="Shape" fill="#E0E0E0"></path>
                <rect id="Rectangle" fill="#E0E0E0" x="8.5" y="0" width="7" height="8"></rect>
                <rect id="Rectangle" fill="#E0E0E0" x="39.5" y="0" width="7" height="8"></rect>
                <rect id="Rectangle" fill="#B5B1FF" x="19.5" y="33" width="7" height="7"></rect>
            </g>
            <g id="Group" transform="translate(37.000000, 39.000000)">
                <circle id="Oval" fill="#33D2AF" cx="12.5" cy="12" r="12"></circle>
                <path d="M18.5714746,7.17956808 C18.1164746,6.86356808 17.4944746,6.97556808 17.1794746,7.42956808 L11.5834746,15.4695681 L7.63447458,12.2275681 C7.20847458,11.8765681 6.57747458,11.9395681 6.22747458,12.3665681 C5.87647458,12.7935681 5.93847458,13.4235681 6.36647458,13.7735681 L11.1524746,17.7025681 C11.3324746,17.8495681 11.5564746,17.9295681 11.7864746,17.9295681 C11.8314746,17.9295681 11.8774746,17.9265681 11.9234746,17.9205681 C12.1994746,17.8815681 12.4474746,17.7305681 12.6074746,17.5015681 L18.8214746,8.57256808 C19.1364746,8.11856808 19.0244746,7.49556808 18.5714746,7.17956808 Z" id="Path" fill="#FFFFFF"></path>
            </g>
        </g>
    </g>
</svg>