<?xml version="1.0" encoding="UTF-8"?>
<svg width="13px" height="14px" viewBox="0 0 13 14" version="1.1" xmlns="http://www.w3.org/2000/svg" xmlns:xlink="http://www.w3.org/1999/xlink">
    <title>Shape 2 Copy</title>
    <g id="1---DESCARGA" stroke="none" stroke-width="1" fill="none" fill-rule="evenodd">
        <g transform="translate(-533.000000, -637.000000)" fill="#FFFFFF" fill-rule="nonzero" id="Group-11">
            <g transform="translate(413.000000, 176.000000)">
                <g id="Group-5" transform="translate(0.000000, 377.000000)">
                    <g id="Group-28-Copy-3" transform="translate(110.000000, 75.000000)">
                        <g id="Shape-2-Copy" transform="translate(16.500000, 16.000000) rotate(180.000000) translate(-16.500000, -16.000000) translate(10.000000, 9.000000)">
                            <path d="M5.80371094,4.13808594 C5.8953125,4.04648437 6.01699219,4 6.13867187,4 C6.26035156,4 6.38066406,4.04648437 6.47363281,4.13808594 L8.60371094,6.26953125 C8.78828125,6.45410156 8.78828125,6.75351562 8.60371094,6.93808594 C8.51484375,7.02695312 8.39589844,7.07617187 8.27011719,7.07617187 C8.14433594,7.07617187 8.02539062,7.02695312 7.93652344,6.93808594 L6.61171875,5.61328125 L6.61171875,13.5128906 C6.61171875,13.7740234 6.39980469,13.9859375 6.13867187,13.9859375 C5.87753906,13.9859375 5.665625,13.7740234 5.665625,13.5128906 L5.665625,5.61328125 L4.34082031,6.93808594 C4.15625,7.12265625 3.85683594,7.12265625 3.67363281,6.93808594 C3.4890625,6.75351562 3.4890625,6.45410156 3.67226562,6.26953125 L5.80371094,4.13808594 Z M0.473046875,5.24726562 C0.734179687,5.24726562 0.94609375,5.03535156 0.94609375,4.77421875 L0.94609375,2.10273437 C0.94609375,1.94824219 1.071875,1.82109375 1.22773437,1.82109375 L11.0236328,1.82109375 C11.178125,1.82109375 11.3052734,1.946875 11.3052734,2.10273437 L11.3052734,4.77558594 C11.3052734,5.03671875 11.5171875,5.24863281 11.7783203,5.24863281 C12.0394531,5.24863281 12.25,5.03535156 12.25,4.77558594 L12.25,1.728125 C12.25,1.25917969 11.8685547,0.879101562 11.4009766,0.879101562 L0.849023437,0.879101562 C0.380078125,0.879101562 -9.09494702e-13,1.26054687 -9.09494702e-13,1.728125 L-9.09494702e-13,4.77558594 C-9.09494702e-13,5.03535156 0.211914062,5.24726562 0.473046875,5.24726562 Z" id="Shape"></path>
                        </g>
                    </g>
                </g>
            </g>
        </g>
    </g>
</svg>
