<svg id="Capa_1" data-name="Capa 1" xmlns="http://www.w3.org/2000/svg" xmlns:xlink="http://www.w3.org/1999/xlink" viewBox="0 0 87.84 103.8"><defs><style>.cls-1,.cls-3{fill:none;}.cls-10,.cls-2,.cls-8{fill:#3cb28d;}.cls-2,.cls-3{clip-rule:evenodd;}.cls-4{opacity:0.28;}.cls-5{clip-path:url(#clip-path);}.cls-6{clip-path:url(#clip-path-2);}.cls-7{clip-path:url(#clip-path-3);}.cls-8{fill-rule:evenodd;}.cls-9{clip-path:url(#clip-path-4);}.cls-11{clip-path:url(#clip-path-5);}.cls-12{clip-path:url(#clip-path-6);}.cls-13{clip-path:url(#clip-path-10);}.cls-14{clip-path:url(#clip-path-11);}.cls-15{fill:#00635b;}.cls-16{fill:#5fba93;}.cls-17{fill:#25303f;}.cls-18{fill:#fff;}.cls-19{fill:#23615b;}.cls-20{fill:#00a285;}.cls-21{clip-path:url(#clip-path-12);}.cls-22{clip-path:url(#clip-path-13);}</style><clipPath id="clip-path"><path id="SVGID" class="cls-1" d="M-326.39-560.45l54.43.33c20.34.12,31.53-5.91,37.83-16.22,5.74-9.39,9.78-20.73,2.5-28.09-15.43-15.61-32.57,3.15-32.57,3.15s3.89-40.63-25.68-40.59c-31.28,0-31.3,58.64-31.3,58.64s-21.18-21.86-27-5.1c-1.67,4.83.07,9.7,3,14,6.23,9,16.6,13.89,18.75,13.9"/></clipPath><clipPath id="clip-path-2"><path id="SVGID-2" data-name="SVGID" class="cls-1" d="M-695-576.47l-56.42-.34c-21.09-.12-32.61-6.5-39-17.27-5.83-9.8-9.87-21.61-2.23-29.15,16.18-16,33.72,3.67,33.72,3.67s-3.54-42.16,27.11-41.76c32.42.43,31.72,61.17,31.72,61.17s22.23-22.4,28-5c1.68,5-.19,10.05-3.32,14.46-6.56,9.22-17.36,14.19-19.6,14.18"/></clipPath><clipPath id="clip-path-3"><path id="SVGID-3" data-name="SVGID" class="cls-1" d="M-744.23-287c14,.36,23,15.18,17.47,28-7.27,16.94-22.28,52.49-24.3,61.87-2.68,12.45-40.62-28.25-24.41-66,7.65-17.82,20.27-24.14,31.24-23.86"/></clipPath><clipPath id="clip-path-4"><path id="SVGID-4" data-name="SVGID" class="cls-2" d="M-326.39-560.45l54.43.33c20.34.12,31.53-5.91,37.83-16.22,5.74-9.39,9.78-20.73,2.5-28.09-15.43-15.61-32.57,3.15-32.57,3.15s3.89-40.63-25.68-40.59c-31.28,0-31.3,58.64-31.3,58.64s-21.18-21.86-27-5.1c-1.67,4.83.07,9.7,3,14,6.23,9,16.6,13.89,18.75,13.9"/></clipPath><clipPath id="clip-path-5"><path id="SVGID-5" data-name="SVGID" class="cls-2" d="M-695-576.47l-56.42-.34c-21.09-.12-32.61-6.5-39-17.27-5.83-9.8-9.87-21.61-2.23-29.15,16.18-16,33.72,3.67,33.72,3.67s-3.54-42.16,27.11-41.76c32.42.43,31.72,61.17,31.72,61.17s22.23-22.4,28-5c1.68,5-.19,10.05-3.32,14.46-6.56,9.22-17.36,14.19-19.6,14.18"/></clipPath><clipPath id="clip-path-6"><path id="SVGID-6" data-name="SVGID" class="cls-2" d="M-744.23-287c14,.36,23,15.18,17.47,28-7.27,16.94-22.28,52.49-24.3,61.87-2.68,12.45-40.62-28.25-24.41-66,7.65-17.82,20.27-24.14,31.24-23.86"/></clipPath><clipPath id="clip-path-10"><path class="cls-3" d="M23.28-355.07v-.45H6a1.27,1.27,0,0,1-1.26-1.26V-374A1.27,1.27,0,0,1,6-375.3H23.28A1.25,1.25,0,0,1,24.54-374v17.26a1.26,1.26,0,0,1-1.26,1.26v.9a2.17,2.17,0,0,0,2.17-2.16V-374a2.16,2.16,0,0,0-2.17-2.16H6A2.16,2.16,0,0,0,3.86-374v17.26A2.16,2.16,0,0,0,6-354.62H23.28v-.45"/></clipPath><clipPath id="clip-path-11"><path class="cls-3" d="M15.16-358A1.51,1.51,0,0,1,14-358.6l-7.51-9.58a1.67,1.67,0,0,1,.2-2.25,1.46,1.46,0,0,1,2.13.21L15-362.33l13.34-22.22a1.47,1.47,0,0,1,2.09-.5,1.66,1.66,0,0,1,.46,2.21L16.44-358.77a1.51,1.51,0,0,1-1.19.74h-.09"/></clipPath><clipPath id="clip-path-12"><path id="SVGID-10" data-name="SVGID" class="cls-1" d="M1289.23-560.45l54.42.33c20.35.12,31.54-5.91,37.84-16.22,5.74-9.39,9.77-20.73,2.5-28.09-15.43-15.61-32.58,3.15-32.58,3.15s3.9-40.63-25.67-40.59c-31.28,0-31.3,58.64-31.3,58.64s-21.19-21.86-27-5.1c-1.68,4.83.06,9.7,3,14,6.23,9,16.59,13.89,18.75,13.9"/></clipPath><clipPath id="clip-path-13"><path id="SVGID-11" data-name="SVGID" class="cls-2" d="M1289.23-560.45l54.42.33c20.35.12,31.54-5.91,37.84-16.22,5.74-9.39,9.77-20.73,2.5-28.09-15.43-15.61-32.58,3.15-32.58,3.15s3.9-40.63-25.67-40.59c-31.28,0-31.3,58.64-31.3,58.64s-21.19-21.86-27-5.1c-1.68,4.83.06,9.7,3,14,6.23,9,16.59,13.89,18.75,13.9"/></clipPath></defs><title>Mesa de trabajo 9</title><g class="cls-4"><path id="SVGID-13" data-name="SVGID" class="cls-8" d="M-326.39-560.45l54.43.33c20.34.12,31.53-5.91,37.83-16.22,5.74-9.39,9.78-20.73,2.5-28.09-15.43-15.61-32.57,3.15-32.57,3.15s3.89-40.63-25.68-40.59c-31.28,0-31.3,58.64-31.3,58.64s-21.18-21.86-27-5.1c-1.67,4.83.07,9.7,3,14,6.23,9,16.6,13.89,18.75,13.9"/><g class="cls-9"><rect id="SVGID-14" data-name="SVGID" class="cls-10" x="-1915.36" y="-966.81" width="2370.38" height="1675.03" transform="matrix(0.01, -1, 1, 0.01, -596.55, -858.68)"/></g><path id="SVGID-15" data-name="SVGID" class="cls-8" d="M-695-576.47l-56.42-.34c-21.09-.12-32.61-6.5-39-17.27-5.83-9.8-9.87-21.61-2.23-29.15,16.18-16,33.72,3.67,33.72,3.67s-3.54-42.16,27.11-41.76c32.42.43,31.72,61.17,31.72,61.17s22.23-22.4,28-5c1.68,5-.19,10.05-3.32,14.46-6.56,9.22-17.36,14.19-19.6,14.18"/><g class="cls-11"><rect id="SVGID-16" data-name="SVGID" class="cls-10" x="-1510.29" y="-992.77" width="2457.07" height="1736.29" transform="translate(-155.46 -405.63) rotate(-89.66)"/></g><path id="SVGID-17" data-name="SVGID" class="cls-8" d="M-744.23-287c14,.36,23,15.18,17.47,28-7.27,16.94-22.28,52.49-24.3,61.87-2.68,12.45-40.62-28.25-24.41-66,7.65-17.82,20.27-24.14,31.24-23.86"/><g class="cls-12"><rect id="SVGID-18" data-name="SVGID" class="cls-10" x="-1554.4" y="-454.53" width="2282.99" height="1613.27" transform="translate(-762.56 -62.88) rotate(-89.66)"/></g></g><polygon class="cls-15" points="30.84 103.81 21.44 96.47 10.25 97.2 29.61 36.8 50.2 43.41 30.84 103.81"/><polygon class="cls-15" points="57 103.81 66.41 96.47 77.59 97.2 58.23 36.8 37.64 43.41 57 103.81"/><path class="cls-16" d="M87.4,42.85l-4-4a5,5,0,0,1-1.07-5.38l2.17-5.21a1.55,1.55,0,0,0,0-1.16,1.5,1.5,0,0,0-.82-.82l-5.21-2.15a5,5,0,0,1-3.06-4.57V14a1.38,1.38,0,0,0-.09-.53,1.51,1.51,0,0,0-1.42-1H68.27a4.92,4.92,0,0,1-4.56-3.05L61.55,4.15a1.5,1.5,0,0,0-.82-.82,1.53,1.53,0,0,0-1.15,0L54.36,5.5A5,5,0,0,1,49,4.43l-4-4a1.51,1.51,0,0,0-2.14,0l-4,4A5,5,0,0,1,33.48,5.5L28.27,3.33a1.55,1.55,0,0,0-1.16,0,1.53,1.53,0,0,0-.82.82L24.14,9.37a5,5,0,0,1-4.57,3.05H14a1.6,1.6,0,0,0-.53.09,1.52,1.52,0,0,0-1,1.42v5.64a5,5,0,0,1-3.05,4.57L4.15,26.29a1.53,1.53,0,0,0-.82.82,1.55,1.55,0,0,0,0,1.16L5.5,33.48a5,5,0,0,1-1.07,5.38l-4,4A1.51,1.51,0,0,0,.44,45l4,4A5,5,0,0,1,5.5,54.36l-2.16,5.2a1.58,1.58,0,0,0-.12.52,1.5,1.5,0,0,0,.93,1.47l5.22,2.16a4.92,4.92,0,0,1,3.05,4.56v5.62a1.6,1.6,0,0,0,.09.53,1.51,1.51,0,0,0,1.42,1h5.64a5,5,0,0,1,4.57,3.06l2.15,5.2a1.28,1.28,0,0,0,.21.38,1.52,1.52,0,0,0,1.77.45l5.21-2.17a5,5,0,0,1,5.38,1.07l4,4a1.49,1.49,0,0,0,1.07.44A1.47,1.47,0,0,0,45,87.4l4-4a5,5,0,0,1,5.38-1.07l5.22,2.17a1.53,1.53,0,0,0,1.15,0,1.47,1.47,0,0,0,.82-.82l2.16-5.21a4.93,4.93,0,0,1,4.56-3.06h5.64a1.4,1.4,0,0,0,.41,0,1.52,1.52,0,0,0,1.1-1.46V68.27a4.93,4.93,0,0,1,3.06-4.56l5.21-2.16a1.49,1.49,0,0,0,.93-1.46,1.37,1.37,0,0,0-.12-.53l-2.16-5.2A5,5,0,0,1,83.41,49l4-4A1.51,1.51,0,0,0,87.4,42.85ZM69.22,69.22A35.77,35.77,0,1,1,18.63,18.63,35.77,35.77,0,0,1,69.22,69.22Z"/><circle class="cls-17" cx="43.92" cy="43.92" r="37.35"/><circle class="cls-18" cx="43.92" cy="43.92" r="25.42"/><path class="cls-18" d="M27,21.24a2.89,2.89,0,0,1-3,2.58c-1-.07-1.65-.83-2.34-1.62a3.55,3.55,0,0,1-1.26-2.54,2.76,2.76,0,0,1,4.51-1.89l-1.3,1.12a.91.91,0,0,0-1.26.06.86.86,0,0,0-.32.67c0,.26.1.5.93,1.46s1.06,1.09,1.31,1.14A.84.84,0,0,0,25,22a1,1,0,0,0,.4-.7,1.05,1.05,0,0,0-.28-.74L25,20.49l-.77.67-.93-1.08,2.06-1.78L26,19A3,3,0,0,1,27,21.24Z"/><path class="cls-18" d="M32,19.06l-.78-.75-1.88,1,.2,1.07L28,21.26l-1.1-7.32L28,13.31l5.55,4.9Zm-3.26-3.14.34,1.93,1.07-.58Z"/><path class="cls-18" d="M37.32,17.18,35.43,15l-.56.15.71,2.49-1.64.47L32,11.46l2.64-.76a2.22,2.22,0,0,1,2.9,1.5A2,2,0,0,1,37,14.26l2.25,2.37Zm-2.3-5-.93.26.39,1.35.93-.26A.7.7,0,1,0,35,12.2Z"/><path class="cls-18" d="M43.63,16.37l-.38-1-2.14.13-.28,1.05-1.78.11,2.1-7.09,1.32-.08,2.94,6.79ZM42,12.14,41.5,14,42.71,14Z"/><path class="cls-18" d="M49.65,17,48,13.16l-.57,3.44-1.68-.27L46.9,9.47l1.47.24L50,13.52l.57-3.45,1.69.28-1.14,6.86Z"/><path class="cls-18" d="M56.93,13.63l-2,5L53.33,18l2-5-1.59-.63L54.32,11l4.76,1.9-.56,1.41Z"/><path class="cls-18" d="M57.12,19.75l3.53-6,1.47.87-3.52,6Zm5-5.95-.83-.49L62.54,12l1.42.83Z"/><path class="cls-18" d="M62.59,23.65l.42-1-1.65-1.37-.92.58-1.37-1.14L65.46,17l1,.84-2.5,7Zm1.72-4.18-1.67,1,.93.78Z"/><path class="cls-18" d="M20.61,68.66a2.57,2.57,0,0,1-1.75-.87L17.13,66l4.93-4.67,1.73,1.83a2.51,2.51,0,0,1,.78,1.79c0,1.12-.72,1.65-1.5,2.39S21.73,68.69,20.61,68.66Zm2.3-3.76a.87.87,0,0,0-.28-.84l-.5-.53-2.77,2.62.51.53a.83.83,0,0,0,.82.32c.23,0,.4-.12,1.24-.91S22.86,65.13,22.91,64.9Z"/><path class="cls-18" d="M22.14,70.9l3.92-5.54L29.83,68,29,69.24l-2.4-1.7-.66.93L28,69.92l-.86,1.22-2.05-1.46-.69,1,2.41,1.71-.86,1.21Z"/><path class="cls-18" d="M33.18,74.27l-1-.35-.83,2.27-1.57-.57,2.34-6.37,2.53.92a2.19,2.19,0,1,1-1.51,4.1Zm.92-2.72-.89-.32-.47,1.29.89.32a.68.68,0,0,0,.91-.39A.69.69,0,0,0,34.1,71.55Z"/><path class="cls-18" d="M40.61,77.72a2.75,2.75,0,0,1-3.75-.58,3.49,3.49,0,0,1-.27-2.76,3.5,3.5,0,0,1,1.09-2.56,2.75,2.75,0,0,1,3.75.58,3.49,3.49,0,0,1,.27,2.76A3.46,3.46,0,0,1,40.61,77.72Zm-.55-4.5a.84.84,0,0,0-.62-.39.82.82,0,0,0-.7.19c-.18.17-.31.39-.5,1.61s-.13,1.46,0,1.68a.84.84,0,0,0,.62.4.81.81,0,0,0,.7-.2c.19-.17.31-.38.5-1.6S40.18,73.44,40.06,73.22Z"/><path class="cls-18" d="M46.62,78.44,45.3,76l-.56,0,.12,2.52-1.67.08-.33-6.78,2.69-.13A2.18,2.18,0,0,1,48,73.76a2,2,0,0,1-1,1.83l1.6,2.76Zm-1.07-5.25-.95,0,.07,1.37.94,0a.69.69,0,1,0-.06-1.37Z"/><path class="cls-18" d="M55.22,76.65,54.05,77l-4.24-5.76,1.64-.54L53.72,74l-.11-4,1.65-.54Z"/><path class="cls-18" d="M58.51,75.32l-3-6.08L57,68.5l3,6.08Z"/><path class="cls-18" d="M65,70.61a2.57,2.57,0,0,1-1.12,1.6L61.8,73.66,57.9,68.1,60,66.65a2.52,2.52,0,0,1,1.88-.5C63,66.34,63.37,67.1,64,68S65.17,69.51,65,70.61ZM61.6,67.79a.86.86,0,0,0-.88.15l-.6.42,2.19,3.12.6-.42a.85.85,0,0,0,.44-.77c0-.24-.07-.41-.73-1.36S61.82,67.87,61.6,67.79Z"/><path class="cls-18" d="M70,66.73l-1-.46-1.44,1.51.51.94L66.9,70l-3.23-6.47.88-.93,6.63,2.88ZM66,64.8l.89,1.69.82-.86Z"/><polygon class="cls-19" points="44.21 29.97 54.72 29.97 54.72 33.89 48.6 33.89 48.6 52.46 44.21 52.46 44.21 29.97"/><path class="cls-19" d="M39.86,34.3a4.38,4.38,0,0,0-3.51-1.45,3.94,3.94,0,0,0-3,1.38l-2.14-1.7a6.67,6.67,0,0,1,5-2.81c2.46-.15,4.17,1.1,5.67,2.73Z"/><path class="cls-20" d="M44.52,58.14a11.77,11.77,0,0,1-11.3-8.33H30a14.93,14.93,0,0,0,24,8.06l-2.24-2.24A11.77,11.77,0,0,1,44.52,58.14Z"/><polygon class="cls-20" points="12.62 39.73 13.98 42.49 17.03 42.93 14.83 45.08 15.35 48.11 12.62 46.68 9.9 48.11 10.42 45.08 8.21 42.93 11.26 42.49 12.62 39.73"/><polygon class="cls-20" points="75.65 39.73 77.01 42.49 80.06 42.93 77.85 45.08 78.37 48.11 75.65 46.68 72.92 48.11 73.44 45.08 71.24 42.93 74.29 42.49 75.65 39.73"/><g class="cls-4"><path id="SVGID-19" data-name="SVGID" class="cls-8" d="M1289.23-560.45l54.42.33c20.35.12,31.54-5.91,37.84-16.22,5.74-9.39,9.77-20.73,2.5-28.09-15.43-15.61-32.58,3.15-32.58,3.15s3.9-40.63-25.67-40.59c-31.28,0-31.3,58.64-31.3,58.64s-21.19-21.86-27-5.1c-1.68,4.83.06,9.7,3,14,6.23,9,16.59,13.89,18.75,13.9"/><g class="cls-22"><rect id="SVGID-20" data-name="SVGID" class="cls-10" x="-299.74" y="-966.81" width="2370.38" height="1675.03" transform="matrix(0.01, -1, 1, 0.01, 1009.49, 756.9)"/></g></g></svg>