<svg xmlns="http://www.w3.org/2000/svg" xmlns:xlink="http://www.w3.org/1999/xlink" width="900" height="60" viewBox="0 0 900 60">
    <defs>
        <path id="a" d="M0 59h57.848V0H0z"/>
        <path id="c" d="M2.877.071H54.59a2.477 2.477 0 0 1 2.477 2.477v33.38a2.477 2.477 0 0 1-2.477 2.477H2.877A2.477 2.477 0 0 1 .4 35.928V2.548A2.477 2.477 0 0 1 2.877.07z"/>
        <circle id="e" cx="30" cy="30" r="25.971"/>
    </defs>
    <g fill="none" fill-rule="evenodd">
        <path d="M180 0h60v60h-60z"/>
        <path fill="#CFE6F0" d="M222.052 42.736c-2.463 1.25-6.135 1.946-10.498 1.972-4.363-.026-8.035-.721-10.498-1.972-2.836-1.43-4.1-3.595-3-6.311.518 1.437 1.554 1.618 3 2.58 2.463 1.65 6.135 2.571 10.498 2.6 4.363-.029 8.035-.95 10.498-2.6 1.446-.962 2.482-1.143 3-2.58 1.1 2.716-.164 4.881-3 6.311M191.477 40.149v14.46c0 .866-.646 1.62-1.566 1.827l-7.696 1.734V37.46l7.449.82c1.035.114 1.813.916 1.813 1.869"/>
        <path fill="#4F5661" fill-rule="nonzero" d="M189.686 55.426c.464-.105.762-.452.762-.817v-14.46c0-.405-.365-.781-.896-.84l-6.308-.693v18.26l6.442-1.45zm2.82-15.277v14.46c0 1.367-.995 2.528-2.37 2.838l-7.696 1.733a1.03 1.03 0 0 1-1.254-1.01V37.46c0-.615.532-1.095 1.141-1.028l7.448.819c1.54.169 2.73 1.397 2.73 2.898z"/>
        <path fill="#4F5661" fill-rule="nonzero" d="M236.068 41.215l.07.093-17.717 11.833c-.75.494-2.716.907-4.065.907l-15.659-.025c-1.989 0-3.585-.675-4.856-1.808-.524-.468-1.843-2.329-2.364-2.329-.569 0-1.03.464-1.03 1.035 0 .572.461 1.036 1.03 1.036-1.043-.61-1.043-.61-.871-.482a8.059 8.059 0 0 0 .441.694c.387.547.86 1.089 1.43 1.596 1.629 1.453 3.7 2.328 6.219 2.328l15.658.026c1.714 0 4.048-.49 5.2-1.249l18.639-12.448a1.04 1.04 0 0 0 .248-1.492l-.752-.99c-1.764-2.22-4.825-2.859-7.3-1.539l-.092.056-11.023 7.464a1.04 1.04 0 0 0-.28 1.437c.318.474.957.6 1.429.28l10.976-7.43a3.76 3.76 0 0 1 4.669 1.007z"/>
        <path fill="#4F5661" fill-rule="nonzero" d="M233.876 37.897a1.04 1.04 0 0 0-.33 1.426c.3.485.935.634 1.418.332l2.346-1.47a1.04 1.04 0 0 0 .314-1.451l-.988-1.502c-1.83-2.35-4.972-3.011-7.51-1.634-.5.272-.688.9-.418 1.403.27.503.894.691 1.394.42a3.837 3.837 0 0 1 4.867 1.023l.357.544-1.45.909zM192.506 43.673a3.096 3.096 0 0 1 3.087-3.106c.568 0 1.03-.464 1.03-1.035 0-.572-.462-1.036-1.03-1.036-2.842 0-5.145 2.317-5.145 5.177 0 .572.46 1.036 1.029 1.036.568 0 1.029-.464 1.029-1.036zM204.865 49.886h9.262c1.136 0 2.058.927 2.058 2.07 0 1.145-.922 2.072-2.058 2.072h-12.35c-.568 0-1.028.463-1.028 1.035 0 .572.46 1.036 1.029 1.036h12.349c2.273 0 4.116-1.855 4.116-4.142 0-2.288-1.843-4.142-4.116-4.142h-9.262c-.568 0-1.03.464-1.03 1.036 0 .571.462 1.035 1.03 1.035z"/>
        <path fill="#53C27C" d="M217.214 29.867c0-2.287-1.47-3.631-4.766-4.357-2.877-.623-3.1-1.231-3.1-2.025 0-.906.906-1.537 2.202-1.537 1.25 0 2.337.414 3.418 1.304l.486.402 1.596-2.135-.456-.37c-1.172-.95-2.325-1.48-3.69-1.677v-1.844a.873.873 0 0 0-.868-.876h-.868a.873.873 0 0 0-.868.876v1.899c-2.167.457-3.643 2.045-3.643 4.128 0 2.951 2.354 3.874 4.901 4.433 2.74.584 2.945 1.159 2.945 1.968 0 .973-.96 1.652-2.333 1.652-1.578 0-2.77-.5-4.11-1.723l-.463-.423-1.703 2.035.438.395c1.233 1.112 2.525 1.792 3.968 2.095v1.94c0 .483.39.876.868.876h.868c.48 0 .868-.393.868-.876v-1.812c2.569-.293 4.31-1.99 4.31-4.348"/>
        <path fill="#4F5661" fill-rule="nonzero" d="M211.821 42.638v-2.07h-.535v2.07c.118 0 .195 0 .268-.006.073.005.15.006.267.006zm-.259-2.081l.12.008c.01.001.045.002.14.002v2.071h-.536v-2.07c.095 0 .13-.002.14-.003l.12-.008a24.41 24.41 0 0 0 .016 0zm-12.574-2.102c-1.811-1.604-3.077-3.621-3.707-5.945-.837-3.02-.595-6.496.754-10.249.982-2.739 2.685-5.2 4.9-7.382a27.554 27.554 0 0 1 5.235-4.027c.24-.141.417-.238.519-.29l.942 1.84c-.071.037-.217.117-.427.24a25.513 25.513 0 0 0-4.828 3.717c-2.01 1.979-3.539 4.188-4.405 6.606-1.21 3.367-1.422 6.408-.706 8.995.524 1.934 1.57 3.601 3.085 4.943 2.599 2.316 6.522 3.613 11.204 3.654 4.681-.041 8.605-1.338 11.206-3.656 1.512-1.34 2.558-3.007 3.084-4.947.715-2.581.503-5.622-.707-8.99-.843-2.351-2.214-4.502-3.97-6.438a24.716 24.716 0 0 0-3.41-3.11c-.404-.306-.779-.569-1.113-.788a9.83 9.83 0 0 0-.397-.25l1.028-1.793c.357.207.956.6 1.718 1.174 1.26.95 2.517 2.074 3.693 3.37 1.929 2.126 3.445 4.504 4.387 7.132 1.348 3.753 1.59 7.228.755 10.243-.631 2.33-1.897 4.347-3.706 5.95-2.992 2.665-7.378 4.12-12.507 4.173a.758.758 0 0 1-.122 0c-5.13-.052-9.515-1.508-12.505-4.172z"/>
        <path fill="#4F5661" d="M208.163 11.779l-.284.08c.065-.06.166-.087.284-.08"/>
        <path fill="#CFE6F0" d="M216.435 12.205a14.017 14.017 0 0 1-4.88.882c-1.159 0-2.899-.145-4.882-.882V7.793c1.095.407 2.784.882 4.881.882a14 14 0 0 0 4.881-.882v4.412z"/>
        <path fill="#4F5661" fill-rule="nonzero" d="M215.406 9.207a14.808 14.808 0 0 1-3.852.503 14.8 14.8 0 0 1-3.852-.503v2.257c1.33.416 2.614.587 3.852.587a12.79 12.79 0 0 0 3.852-.587V9.207zm1.386 3.969a14.868 14.868 0 0 1-5.238.946c-1.675 0-3.42-.27-5.237-.946l-.673-.25v-6.62l1.386.515c1.37.51 2.864.818 4.524.818a12.84 12.84 0 0 0 4.524-.818l1.386-.515v6.62l-.672.25z"/>
        <path fill="#4F5661" fill-rule="nonzero" d="M212.096 2.256c1.373 0 1.373-2.07 0-2.07h-1.084c-1.372 0-1.372 2.07 0 2.07h6.718c-.188.291-.372.588-.55.887a22.425 22.425 0 0 0-.822 1.495c-.608 1.224-.952 2.262-.952 3.13h2.058c0-.465.259-1.245.735-2.204.213-.43.464-.884.745-1.355a31.062 31.062 0 0 1 1.568-2.367c.509-.683.025-1.657-.823-1.657h-8.677v2.071h1.084V.186h-8.677c-.848 0-1.332.973-.823 1.656a31.062 31.062 0 0 1 1.568 2.367c.28.471.532.926.745 1.355.476.959.735 1.74.735 2.205h2.058c0-.869-.344-1.907-.952-3.131-.239-.48-.515-.98-.821-1.495-.179-.299-.363-.596-.55-.887h6.717z"/>
        <path d="M240 0h60v60h-60z"/>
        <path fill="#CFE6F0" d="M252 51a7 7 0 0 0-7-7v7h7zM284 33h10v-3h-10z"/>
        <path fill="#4F5661" fill-rule="nonzero" d="M278 7c0-1.654-1.346-3-3-3h-12c-1.654 0-3 1.346-3 3v5h2V7a1 1 0 0 1 1-1h12a1 1 0 0 1 1 1v5h2V7zm-14 1v5a1 1 0 0 1-1 1h-4a1 1 0 0 1-1-1V7c0-2.758 2.242-5 5-5h12c2.758 0 5 2.242 5 5v6a1 1 0 0 1-1 1h-4a1 1 0 0 1-1-1V8h-10z"/>
        <path fill="#4F5661" fill-rule="nonzero" d="M254 28h-11c-.548 0-1-.452-1-1V15c0-.548.452-1 1-1h52c.548 0 1 .452 1 1v12c0 .548-.452 1-1 1h-11a1 1 0 0 0 0 2h11c1.652 0 3-1.348 3-3V15c0-1.652-1.348-3-3-3h-52c-1.652 0-3 1.348-3 3v12c0 1.652 1.348 3 3 3h11a1 1 0 0 0 0-2z"/>
        <path fill="#4F5661" fill-rule="nonzero" d="M278 28h-18a1 1 0 0 0 0 2h18a1 1 0 0 0 0-2z"/>
        <path fill="#4F5661" fill-rule="nonzero" d="M265 28h-5a1 1 0 0 0 0 2h5a1 1 0 0 0 0-2zM278 28h-5a1 1 0 0 0 0 2h5a1 1 0 0 0 0-2zM245 30h9a1 1 0 0 0 0-2h-10a1 1 0 0 0-1 1v21c0 1.647 1.302 3 2.93 3h29.39a1 1 0 0 0 0-2h-29.39c-.506 0-.93-.44-.93-1V30zM293 35.93a1 1 0 0 0 2 0V29a1 1 0 0 0-1-1h-10a1 1 0 0 0 0 2h9v5.93z"/>
        <path fill="#CFE6F0" d="M245 33h9v-3h-9zM260 33h18v-3h-18z"/>
        <path fill="#4F5661" fill-rule="nonzero" d="M259 26h-4v6h4v-6zm.25 8h-4.5c-1.039 0-1.75-.948-1.75-2v-6c0-1.052.711-2 1.75-2h4.5c1.039 0 1.75.948 1.75 2v6c0 1.052-.711 2-1.75 2z"/>
        <path fill="#53C27C" d="M299 49c0 5.523-4.478 10-10 10s-10-4.477-10-10 4.478-10 10-10 10 4.477 10 10"/>
        <path fill="#53C27C" fill-rule="nonzero" d="M298 49a9 9 0 1 0-18 0 9 9 0 0 0 18 0zm2 0c0 6.075-4.925 11-11 11s-11-4.925-11-11 4.925-11 11-11 11 4.925 11 11z"/>
        <path fill="#4F5661" fill-rule="nonzero" d="M283 26h-4v6h4v-6zm.25 8h-4.5c-1.039 0-1.75-.948-1.75-2v-6c0-1.052.711-2 1.75-2h4.5c1.039 0 1.75.948 1.75 2v6c0 1.052-.711 2-1.75 2z"/>
        <path fill="#FFF" d="M293.05 51.363c0-1.881-1.974-2.727-3.682-3.296-1.427-.481-2.08-.948-2.08-1.633 0-.467.547-1.021 1.55-1.021.97 0 2.31.729 2.45.802.212.117.476 0 .616-.175l.67-.831c.123-.146.07-.394-.106-.482-.287-.178-1.266-.713-2.593-.903v-1.386a.438.438 0 0 0-.437-.438h-.875a.438.438 0 0 0-.438.438v1.369c-2.203.265-3.143 1.582-3.143 2.743 0 1.72 1.655 2.596 3.31 3.15 1.482.496 2.238 1.007 2.238 1.75 0 .627-.686 1.123-1.602 1.123-1.146 0-2.572-.86-2.661-.904-.158-.102-.458-.102-.6.102l-.633.904c-.16.233-.07.307.088.438.303.238 1.315.905 3.003 1.088v1.362c0 .24.196.437.438.437h.875a.437.437 0 0 0 .437-.437v-1.375c1.97-.283 3.175-1.51 3.175-2.825"/>
        <path d="M300 0h60v60h-60z"/>
        <g>
            <path fill="#CFE6F0" d="M312.044 1.569a22.863 22.863 0 0 0-7.025 16.541c0 1.417.123 2.793.377 4.138h11.858"/>
            <path fill="#D3E5EF" d="M305.02 22.248h.377"/>
            <path fill="#53C27C" d="M322.353 21.567s5.098-1.388 2.662-7.23c0 0 13.297-2.916 17.73 7.735l-20.392-.505z"/>
            <path fill="#4F5661" fill-rule="nonzero" d="M316.365 14.765a4.403 4.403 0 0 1 1.92-1.6c2.089-.892 4.37.085 5.139 2.185.78 2.133-.297 4.602-2.417 5.507a4.103 4.103 0 0 1-1.414.327 1.029 1.029 0 0 0-.97 1.082c.026.57.503 1.012 1.065.985a6.118 6.118 0 0 0 2.11-.486c3.12-1.333 4.702-4.956 3.537-8.135-1.174-3.212-4.69-4.718-7.841-3.373a6.449 6.449 0 0 0-2.816 2.345 1.044 1.044 0 0 0 .27 1.437 1.01 1.01 0 0 0 1.417-.274zM344.791 13.972h3.052v-2.069h-3.052a6.008 6.008 0 0 0-4.224 1.742l-.108.127-26.063 35.793 1.64 1.229 26.01-35.722a3.983 3.983 0 0 1 2.745-1.1z"/>
            <path fill="#4F5661" fill-rule="nonzero" d="M352.941 13.972c.563 0 1.02-.463 1.02-1.034 0-.57-.457-1.035-1.02-1.035h-4.078v2.07h4.078zm0 2.07h-5.098c-.563 0-1.02-.464-1.02-1.035v-4.138c0-.571.457-1.035 1.02-1.035h5.098c1.689 0 3.059 1.39 3.059 3.104 0 1.713-1.37 3.103-3.059 3.103z"/>
            <path stroke="#4F5661" stroke-linejoin="round" stroke-width="2.073" d="M339.686 49.145L330.51 29.49"/>
            <path fill="#4F5661" fill-rule="nonzero" d="M316.235 53.8c0-2-1.598-3.62-3.568-3.62s-3.569 1.62-3.569 3.62 1.598 3.62 3.569 3.62c1.97 0 3.568-1.62 3.568-3.62zm2.04 0c0 3.142-2.511 5.69-5.608 5.69-3.097 0-5.608-2.548-5.608-5.69 0-3.142 2.51-5.69 5.608-5.69 3.097 0 5.608 2.548 5.608 5.69z"/>
            <path fill="#CFE6F0" d="M312.667 55.352c-.844 0-1.53-.696-1.53-1.552 0-.856.686-1.552 1.53-1.552.843 0 1.53.696 1.53 1.552 0 .856-.687 1.552-1.53 1.552"/>
            <path fill="#4F5661" fill-rule="nonzero" d="M344.784 53.8c0-2-1.598-3.62-3.568-3.62s-3.569 1.62-3.569 3.62 1.598 3.62 3.569 3.62c1.97 0 3.568-1.62 3.568-3.62zm2.04 0c0 3.142-2.511 5.69-5.608 5.69-3.097 0-5.608-2.548-5.608-5.69 0-3.142 2.51-5.69 5.608-5.69 3.097 0 5.608 2.548 5.608 5.69z"/>
            <path fill="#CFE6F0" d="M341.216 55.352c-.844 0-1.53-.696-1.53-1.552 0-.856.686-1.552 1.53-1.552.843 0 1.53.696 1.53 1.552 0 .856-.687 1.552-1.53 1.552"/>
            <path fill="#4F5661" fill-rule="nonzero" d="M349.505 21.214a1.03 1.03 0 0 1 1.003 1.22c-2.017 11.207-11.694 19.47-23.057 19.47C314.5 41.903 304 31.25 304 18.11c0-6.629 2.689-12.826 7.344-17.293.63-.605 1.67-.185 1.719.694a42.565 42.565 0 0 0 2.1 11.098c1.192 3.607 2.405 6.442 3.681 8.605h30.661zm-40.407 2.069c-.563 0-1.02-.463-1.02-1.035 0-.571.457-1.034 1.02-1.034h9.746c.097.164.194.324.292.481.301.483.16 1.122-.316 1.427a1.004 1.004 0 0 1-.528.16 1.029 1.029 0 0 1-.879-.48 27.02 27.02 0 0 1-.914-1.588c-1.139-2.135-2.216-4.761-3.27-7.947a44.559 44.559 0 0 1-2.015-9.318 21.831 21.831 0 0 0-5.175 14.161c0 11.998 9.587 21.724 21.412 21.724 9.957 0 18.497-6.95 20.795-16.551h-39.148z"/>
        </g>
        <path d="M360 0h60v60h-60z"/>
        <g>
            <path fill="#CFE6F0" d="M420 57c0 1.104-13.208 2-29.5 2s-29.5-.896-29.5-2 13.208-2 29.5-2 29.5.896 29.5 2z"/>
            <path fill="#4F5661" fill-rule="nonzero" d="M369 3.649l2 2.62v1.627a1 1 0 0 0 2 0V5.931a1 1 0 0 0-.205-.606l-3-3.931a1 1 0 0 0-1.59 0l-3 3.93a1 1 0 0 0-.205.607v1.965a1 1 0 1 0 2 0V6.27l2-2.62zM367 55V15.759a1 1 0 0 0-2 0v40.24a1 1 0 0 0 1 1h6a1 1 0 0 0 1-1V15.76a1 1 0 0 0-2 0v39.24h-4z"/>
            <path fill="#4F5661" fill-rule="nonzero" d="M414.667 14l2.666-2-2.666-2H362v4h52.667zM360 15V9a1 1 0 0 1 1-1h54a1 1 0 0 1 .6.2l4 3a1 1 0 0 1 0 1.6l-4 3a1 1 0 0 1-.6.2h-54a1 1 0 0 1-1-1z"/>
            <path fill="#4F5661" fill-rule="nonzero" d="M381 21a1 1 0 0 1-1-1v-5a1 1 0 0 1 1-1h4a1 1 0 0 1 1 1v5a1 1 0 0 1-1 1h-4zm3-2v-3h-2v3h2zM411 21a1 1 0 0 1-1-1v-5a1 1 0 0 1 1-1h4a1 1 0 0 1 1 1v5a1 1 0 0 1-1 1h-4zm3-2v-3h-2v3h2zM370 11h-2a1 1 0 0 0 0 2h2a1 1 0 0 0 0-2z"/>
            <path fill="#FF8979" d="M417 44h-38a2 2 0 0 1-2-2V19h42v23a2 2 0 0 1-2 2"/>
            <path fill="#FFF" d="M387.885 30.863c.522 0 .97-.476.97-1 0-.525-.448-.95-.97-.95H386v1.95h1.885zm-3.885-3.5a.24.24 0 0 1 .241-.238h3.81c1.53 0 2.777 1.213 2.777 2.7 0 1.15-.777 2.075-1.885 2.513l1.745 3.175c.09.162 0 .362-.217.362h-1.694a.235.235 0 0 1-.204-.112l-1.694-3.313H386v3.187a.248.248 0 0 1-.242.238h-1.517a.24.24 0 0 1-.24-.238v-8.274zM392.186 27.363c0-.125.1-.238.236-.238h5.155c.137 0 .237.113.237.238v1.362c0 .125-.1.238-.237.238h-3.449v1.55h2.839c.125 0 .237.112.237.237v1.363a.237.237 0 0 1-.237.237h-2.839v1.688h3.449c.137 0 .237.112.237.237v1.362c0 .126-.1.238-.237.238h-5.155a.237.237 0 0 1-.236-.238v-8.274zM399.28 27.225c0-.125.111-.225.236-.225h.311l4.968 4.8h.013v-4.437c0-.126.1-.238.236-.238h1.494c.125 0 .237.112.237.238v8.412c0 .125-.112.225-.237.225h-.198a.364.364 0 0 1-.163-.063l-4.918-4.962h-.012v4.662c0 .126-.1.238-.237.238h-1.482a.245.245 0 0 1-.236-.238l-.013-8.412zM410.017 28.962h-1.78a.237.237 0 0 1-.237-.237v-1.363c0-.125.1-.237.237-.237h5.527c.137 0 .236.112.236.237v1.363a.236.236 0 0 1-.236.237h-1.78v6.675a.246.246 0 0 1-.237.238h-1.494a.246.246 0 0 1-.236-.238v-6.675z"/>
        </g>
        <path d="M420 0h60v60h-60z"/>
        <g>
            <path stroke="#CFE6F0" stroke-linecap="round" stroke-linejoin="round" stroke-width="2" d="M442 55h-16"/>
            <path fill="#CFE6F0" d="M428 55a3.5 3.5 0 1 1-6.999.001A3.5 3.5 0 0 1 428 55"/>
            <path stroke="#CFE6F0" stroke-linecap="round" stroke-linejoin="round" stroke-width="2" d="M428 55a3.5 3.5 0 1 1-6.999.001A3.5 3.5 0 0 1 428 55zM474 55h-16"/>
            <path fill="#CFE6F0" d="M472 55a3.5 3.5 0 1 0 6.999.001A3.5 3.5 0 0 0 472 55"/>
            <path stroke="#CFE6F0" stroke-linecap="round" stroke-linejoin="round" stroke-width="2" d="M472 55a3.5 3.5 0 1 0 6.999.001A3.5 3.5 0 0 0 472 55z"/>
            <path fill="#53C27C" d="M454 55a4 4 0 1 1-8 0 4 4 0 0 1 8 0"/>
            <path stroke="#53C27C" stroke-linecap="round" stroke-linejoin="round" stroke-width="2" d="M454 55a4 4 0 1 1-8 0 4 4 0 0 1 8 0z"/>
            <path stroke="#4F5661" stroke-linecap="round" stroke-linejoin="round" stroke-width="2" d="M450 47c10.303-7 17-20 17-29.5C467 8.388 459.389 1 450 1s-17 7.388-17 16.5c0 9.5 6.697 22.5 17 29.5z"/>
            <path fill="#53C27C" d="M462 18c0 6.628-5.373 12-12 12s-12-5.372-12-12c0-6.627 5.373-12 12-12s12 5.373 12 12"/>
            <path fill="#FFF" d="M454.628 20.7c0-2.15-2.255-3.116-4.208-3.767-1.63-.549-2.376-1.083-2.376-1.866 0-.534.624-1.167 1.772-1.167 1.106 0 2.638.833 2.798.916.242.134.544 0 .705-.199l.766-.95c.14-.167.08-.45-.122-.55-.329-.205-1.446-.814-2.963-1.033V10.5a.5.5 0 0 0-.5-.5h-1c-.277 0-.5.223-.5.5v1.564c-2.518.304-3.593 1.81-3.593 3.136 0 1.967 1.892 2.967 3.784 3.6 1.692.567 2.558 1.15 2.558 2 0 .716-.786 1.284-1.832 1.284-1.31 0-2.94-.984-3.04-1.034-.182-.117-.524-.117-.685.117l-.725 1.033c-.18.267-.08.35.1.5.347.272 1.503 1.034 3.433 1.243V25.5a.5.5 0 0 0 .5.5h1a.5.5 0 0 0 .5-.5v-1.57c2.251-.324 3.628-1.725 3.628-3.23"/>
        </g>
        <path d="M480 0h60v60h-60z"/>
        <g>
            <path fill="#53C27C" d="M506 37h8V27h-8zM506 58h8V37h-8z"/>
            <path stroke="#4F5661" stroke-linecap="round" stroke-linejoin="round" stroke-width="2" d="M533 30v8h-46v-8c0-1.1.9-2 2-2h42c1.1 0 2 .9 2 2zM531 41v16c0 1.1-.9 2-2 2h-38a2 2 0 0 1-2-2V41M508.786 28c-6.725 0-12.143-2.297-15.786-5.744M510 27.282c0-7.323-4-13.282-8.5-9.769-4.235 3.306 1.214 9.051 8.5 9.77zM511.214 28c6.725 0 12.143-2.297 15.786-5.744M510 27.282c0-7.323 4.253-13.06 8.5-9.769 4.5 3.487-1.214 9.051-8.5 9.77z"/>
            <path stroke="#CFE6F0" stroke-linecap="round" stroke-linejoin="round" stroke-width="2" d="M510 1v11M507 5l3-4 3 4z"/>
            <path fill="#CFE6F0" d="M490.588 7.133L486 9.12l3.193 3.847z"/>
            <path stroke="#CFE6F0" stroke-linecap="round" stroke-linejoin="round" stroke-width="2" d="M490.588 7.133L486 9.12l3.193 3.847zM496.36 15s-1.864-3.213-6.432-5.107"/>
            <g fill="#CFE6F0">
                <path d="M529.772 7.263l4.587 1.988-3.193 3.847z"/>
                <path fill-rule="nonzero" d="M531.674 10.92l1.064-1.282-1.529-.662.465 1.944zm-1.504-4.575l4.587 1.988a1 1 0 0 1 .371 1.556l-3.193 3.847a1 1 0 0 1-1.742-.406L528.8 7.495a1 1 0 0 1 1.37-1.15z"/>
                <path fill-rule="nonzero" d="M524.865 15.632c.09-.155.301-.462.642-.87a12.83 12.83 0 0 1 2.199-2.06 14.506 14.506 0 0 1 3.108-1.755 1 1 0 0 0-.766-1.848 16.503 16.503 0 0 0-3.535 1.999c-1.75 1.3-2.846 2.613-3.378 3.53a1 1 0 1 0 1.73 1.004z"/>
            </g>
        </g>
        <path d="M540 0h60v60h-60z"/>
        <g>
            <path fill="#CFE6F0" d="M597 59.988h-54a1 1 0 1 1 0-2h54a1 1 0 1 1 0 2"/>
            <path fill="#FFF" d="M570 58.988h15.17c.481 0 .894-.386.983-.918l2.625-15.75c.116-.692-.357-1.332-.983-1.332h-35.59c-.626 0-1.099.64-.983 1.332l2.625 15.75c.089.532.502.918.983.918H570z"/>
            <path fill="#4F5661" d="M552.205 41.988c.03.001-.014.067.003.168l2.625 15.75c.01.058.034.088.042.093l30.281-.01c-.016-.006.003-.034.011-.084l2.625-15.749c.017-.1-.026-.167-.043-.18l-35.544.012zm32.965 18h-30.34c-.972 0-1.8-.737-1.97-1.753l-2.625-15.75a2.204 2.204 0 0 1 .484-1.795c.378-.446.92-.702 1.486-.702h35.59c.566 0 1.108.256 1.486.702.416.49.592 1.144.484 1.794l-2.625 15.75c-.17 1.017-.998 1.754-1.97 1.754z"/>
            <path fill="#CFE6F0" d="M572 49.488c0 .828-.896 1.5-2 1.5s-2-.672-2-1.5.896-1.5 2-1.5 2 .672 2 1.5"/>
            <path fill="#CFE6F0" d="M570 48.988c-.62 0-1 .323-1 .5s.38.5 1 .5 1-.323 1-.5-.38-.5-1-.5m0 3c-1.683 0-3-1.098-3-2.5s1.317-2.5 3-2.5 3 1.098 3 2.5-1.317 2.5-3 2.5M578.573 7.592c-1.226-3.836-4.177-6.604-8.604-6.604-5.424 0-9.029 4.199-9.029 9.364 0 0 1.552.94 4.498-1.865a15.298 15.298 0 0 0 4.941 2.326c4.327 1.15 7.17.062 8.678-.45"/>
            <path fill="#FF8979" d="M564.436 27.42l-3.495 2.265 5.06 7.303 3.244-1.635M575.714 27.42l3.344 2.265-5.197 7.303-3.343-1.635z"/>
            <path fill="#4F5661" d="M569.999 26.155c-3.957 0-10.059-4.445-10.059-10.352V13.09a1 1 0 1 1 2 0v2.714c0 4.53 4.951 8.352 8.059 8.352 3.108 0 8.059-3.822 8.059-8.352v-4.05c-1.74.508-4.378.983-7.936.037a16.428 16.428 0 0 1-4.598-2.027c-3.043 2.57-4.891 1.583-5.102 1.454a1 1 0 0 1-.482-.855C559.94 4.455 564.252 0 569.969 0c4.523 0 8.096 2.728 9.556 7.298a.998.998 0 0 1-.647 1.256.995.995 0 0 1-1.257-.647C576.421 4.153 573.632 2 569.969 2c-4.369 0-7.614 3.102-7.991 7.494.525-.096 1.45-.463 2.771-1.72a.998.998 0 0 1 1.272-.089c.955.685 2.53 1.616 4.615 2.171 3.857 1.028 6.39.158 7.903-.362l.197-.068a1 1 0 0 1 1.322.948v5.43c0 5.906-6.102 10.351-10.059 10.351"/>
            <path fill="#4F5661" d="M569.999 36.478c-.337 0-.651-.17-.836-.45l-5.284-8.06a.99.99 0 0 1-.164-.549V22.89a1 1 0 1 1 2 0v4.232l4.284 6.534 4.284-6.534V22.89a1 1 0 1 1 2 0v4.53a.99.99 0 0 1-.164.548l-5.284 8.06a1.001 1.001 0 0 1-.836.45"/>
            <path fill="#4F5661" d="M554 37.988a1 1 0 0 1-1-1c0-4.775 3.813-6.522 6.597-7.798.234-.107.464-.212.685-.316l3.816-2.995a.995.995 0 0 1 1.403.17.997.997 0 0 1-.169 1.402l-3.903 3.064a1.043 1.043 0 0 1-.188.118c-.261.124-.532.248-.811.376-2.67 1.222-5.43 2.487-5.43 5.98a1 1 0 0 1-1 1M586.715 37.988a1 1 0 0 1-1-1c0-3.492-2.76-4.757-5.43-5.979-.28-.128-.55-.252-.811-.376a1.043 1.043 0 0 1-.188-.118l-3.903-3.064a.997.997 0 0 1-.17-1.403.995.995 0 0 1 1.404-.169l3.816 2.995c.22.104.45.21.685.316 2.784 1.276 6.597 3.023 6.597 7.798a1 1 0 0 1-1 1M569.999 20.871a4.023 4.023 0 0 1-3.479-2.01 1 1 0 1 1 1.734-.999 1.991 1.991 0 0 0 1.745 1.01 1.99 1.99 0 0 0 1.744-1.009 1 1 0 0 1 1.735.996 4.022 4.022 0 0 1-3.479 2.012"/>
        </g>
        <path d="M600 0h60v60h-60z"/>
        <g>
            <path fill="#FF8979" d="M650 11h-40V5a1 1 0 0 1 1-1h38a1 1 0 0 1 1 1v6z"/>
            <path fill="#CFE6F0" d="M606.854 59.929c-3.188 0-9.572-.903-5.581-2.71 1.173-.532 3.667-.93 6.596-1.219v3.929M653.888 59.929c2.79 0 8.376-.903 4.883-2.71-1.026-.532-3.209-.93-5.771-1.219v3.929"/>
            <path stroke="#4F5661" stroke-linecap="round" stroke-linejoin="round" stroke-width="2.006" d="M653 29v30h-46V29.02M644 46v3"/>
            <path stroke="#4F5661" stroke-linecap="round" stroke-linejoin="round" stroke-width="2.006" d="M636 59h12V36h-12z"/>
            <path fill="#CFE6F0" d="M613 48h17V36h-17z"/>
            <path stroke="#4F5661" stroke-linecap="round" stroke-linejoin="round" stroke-width="2.006" d="M613 48h17V36h-17zM653.342 26c-2.107 0-4.017-1.039-4.984-2.711l-.865-1.497-.866 1.497c-.969 1.672-2.873 2.711-4.972 2.711-2.107 0-4.017-1.039-4.983-2.711l-.865-1.497-.868 1.497c-.967 1.672-2.872 2.711-4.97 2.711-2.107 0-4.017-1.039-4.984-2.711l-.866-1.497-.866 1.497c-.968 1.672-2.873 2.711-4.97 2.711-2.108 0-4.018-1.039-4.984-2.711l-.866-1.497-.866 1.497c-.968 1.672-2.873 2.711-4.97 2.711-1.607 0-3.14-.617-4.207-1.692-.907-.914-1.4-2.086-1.39-3.299v-.722L610.558 10h38.906L659 20.253l-.063.747c0 2.757-2.51 5-5.595 5z"/>
        </g>
        <path d="M660 0h60v60h-60z"/>
        <g>
            <path fill="#CFE6F0" d="M667 59h6V21h-6zM707 59h6V21h-6z"/>
            <path stroke="#4F5661" stroke-linecap="round" stroke-linejoin="round" stroke-width="2" d="M701 21h-4v-6h-14v6h-4v-6c0-2.206 1.794-4 4-4h14c2.206 0 4 1.794 4 4v6zM664 59h-1c-1.1 0-2-.923-2-2.051V23.051c0-1.128.9-2.051 2-2.051h54c1.1 0 2 .923 2 2.051v33.898c0 1.128-.9 2.051-2 2.051h-53z"/>
            <path fill="#F4877A" d="M698 39h-6v-6h-4v6h-6v4h6v6h4v-6h6z"/>
            <path stroke="#FF8979" stroke-linecap="round" stroke-linejoin="round" stroke-width="2" d="M698 39h-6v-6h-4v6h-6v4h6v6h4v-6h6z"/>
            <path stroke="#4F5661" stroke-linecap="round" stroke-linejoin="round" stroke-width="2" d="M667 21h6v-4h-6zM707 21h6v-4h-6z"/>
        </g>
        <path d="M720 0h60v60h-60z"/>
        <g>
            <g transform="translate(721 1)">
                <path fill="#CFE6F0" d="M7.53 59c-3.298 0-9.9-.935-5.773-2.807 1.214-.55 3.794-.963 6.822-1.262V59h-1.05zM50.322 59c3.296 0 9.895-.935 5.769-2.807-1.213-.55-3.792-.963-6.819-1.262V59"/>
                <mask id="b" fill="#fff">
                    <use xlink:href="#a"/>
                </mask>
                <path fill="#4F5661" fill-rule="nonzero" d="M16.717 53.914a1.017 1.017 0 0 1-1.017-1.017V32.552c0-.562.456-1.018 1.017-1.018h11.19c.562 0 1.017.456 1.017 1.018v20.345c0 .561-.455 1.017-1.017 1.017h-11.19zm10.173-2.035V33.57h-9.155v18.31h9.155z" mask="url(#b)"/>
                <path fill="#CFE6F0" d="M34.01 43.741h9.156v-11.19H34.01z" mask="url(#b)"/>
                <path fill="#4F5661" fill-rule="nonzero" d="M34.01 44.759a1.017 1.017 0 0 1-1.017-1.018v-11.19c0-.561.456-1.017 1.017-1.017h9.156c.561 0 1.017.456 1.017 1.018v11.19c0 .561-.456 1.017-1.017 1.017H34.01zm8.138-2.035V33.57h-7.12v9.155h7.12zM22.82 41.707v3.052a1.017 1.017 0 0 0 2.035 0v-3.052a1.017 1.017 0 1 0-2.034 0z" mask="url(#b)"/>
                <path fill="#FF8979" d="M43.166 11.19V5.086c0-.561.455-1.017 1.017-1.017h6.103c.562 0 1.017.456 1.017 1.017V18.31" mask="url(#b)"/>
                <path fill="#4F5661" fill-rule="nonzero" d="M53.602 26.032l1.795-2.142L29.495 2.236a.906.906 0 0 0-1.128-.012L2.45 23.89l1.795 2.142L28.27 5.892a1.017 1.017 0 0 1 1.307 0l24.025 20.14zM28.924 7.998L4.773 28.245a1.017 1.017 0 0 1-1.433-.126L.237 24.416a1.017 1.017 0 0 1 .127-1.434L27.077.651a2.95 2.95 0 0 1 3.709.012l26.697 22.32c.432.36.489 1.002.128 1.433l-3.103 3.703c-.36.43-1.003.487-1.433.126L28.924 7.998zM13.666 59a1.017 1.017 0 0 1-1.018-1.017v-5.086c0-.562.456-1.018 1.018-1.018h17.293c.562 0 1.017.456 1.017 1.018v5.086c0 .562-.455 1.017-1.017 1.017H13.666zm16.275-2.034v-3.052H14.683v3.052H29.94z" mask="url(#b)"/>
                <path fill="#4F5661" fill-rule="nonzero" d="M9.597 56.966V24.414a1.017 1.017 0 1 0-2.035 0v33.569c0 .562.456 1.017 1.017 1.017h40.69c.562 0 1.017-.455 1.017-1.017v-33.57a1.017 1.017 0 0 0-2.034 0v32.553H9.597z" mask="url(#b)"/>
            </g>
        </g>
        <path d="M780 0h60v60h-60z"/>
        <g>
            <g transform="translate(781.206 11.729)">
                <mask id="d" fill="#fff">
                    <use xlink:href="#c"/>
                </mask>
                <path fill="#CFE6F0" d="M12.59 38.035c-9.185 5.399 5.171 5.879 10.342 6.614L19.977 37.3l1.478-2.939h-1.478l1.031-3.138s-3.834.4-6.306 3.858l-2.111 2.954z" mask="url(#d)"/>
                <path stroke="#4F5661" stroke-linecap="round" stroke-linejoin="round" stroke-width="1.667" d="M8.353 41.602l6.402-6.587.717-.742c1.388-1.61 3.42-2.63 5.244-2.814l.288-.235 3.153-1.536 2.93 15.603-18.734-3.689z" mask="url(#d)"/>
                <path fill="#CFE6F0" d="M51.224 43.394c1.037-.115-10.125.227-16.197 1.095l3.405-6.935-1.874-2.669 1.874-.15-1.212-3.71s4.504.473 7.408 4.561l6.596 7.808z" mask="url(#d)"/>
                <path stroke="#4F5661" stroke-linecap="round" stroke-linejoin="round" stroke-width="1.667" d="M30.819 41.602l6.637-7.197.716-.743c1.389-1.609 3.42-2.63 5.244-2.814l.289-.235 3.476-1.285 2.606 15.353-18.968-3.079z" mask="url(#d)" transform="matrix(-1 0 0 1 80.606 0)"/>
                <path stroke="#4F5661" stroke-linecap="round" stroke-linejoin="round" stroke-width="1.667" d="M25.113 32.263s2.172 1.103 3.842 1.103c.255 0 2.223-.029 3.96-1.153M20.716 31.422l-.739 2.94h2.216L19.977 37.3l3.26 7.344M37.069 31.422l.738 2.94h-2.215l2.215 2.938-3.258 7.344M24.167 30.006V26.25M33.333 30.006V26.25" mask="url(#d)"/>
                <path fill="#CFE6F0" d="M36.859 11.282c-1.152-3.645-3.927-6.276-8.09-6.276-5.1 0-8.49 3.99-8.49 8.9 0 0 1.46-.007 4.23-2.673 1 .725 2.575 1.653 4.646 2.21 4.067 1.095 6.74.96 8.16.473" mask="url(#d)"/>
                <path stroke="#4F5661" stroke-linecap="round" stroke-linejoin="round" stroke-width="1.667" d="M36.859 11.282c-1.152-3.645-3.927-6.276-8.09-6.276-5.1 0-8.49 3.99-8.49 8.9 0 0 1.46-.007 4.23-2.672 1 .724 2.575 1.652 4.646 2.21 4.067 1.094 6.74.96 8.16.472v5.161c0 4.91-5.182 8.89-8.518 8.89-3.367 0-8.517-3.98-8.517-8.89v-2.58" mask="url(#d)"/>
                <g stroke="#4F5661" stroke-linecap="round" stroke-width="1.291" mask="url(#d)">
                    <path d="M27.292 18.117a2.289 2.289 0 0 1-2.294 2.284 2.289 2.289 0 0 1-2.294-2.284 2.289 2.289 0 0 1 2.294-2.284 2.289 2.289 0 0 1 2.294 2.284zM34.938 18.117a2.289 2.289 0 0 1-2.294 2.284 2.289 2.289 0 0 1-2.294-2.284 2.289 2.289 0 0 1 2.294-2.284 2.289 2.289 0 0 1 2.294 2.284zM27.292 18.117c0-.84.685-1.523 1.53-1.523.843 0 1.528.682 1.528 1.523M20.297 16.314l.73.405 1.677.924M37 16.69l-.527.232-1.21.53"/>
                </g>
            </g>
            <path stroke="#396598" stroke-width="1.667" d="M783.333 10.833a2.5 2.5 0 0 0-2.5 2.5v43.334a2.5 2.5 0 0 0 2.5 2.5h53.334a2.5 2.5 0 0 0 2.5-2.5V13.333a2.5 2.5 0 0 0-2.5-2.5h-53.334z"/>
            <path fill="#396598" d="M781.25 51.667h57.87v4.166a3.333 3.333 0 0 1-3.334 3.334h-51.203a3.333 3.333 0 0 1-3.333-3.334v-4.166z"/>
        </g>
        <path d="M840 0h60v60h-60z"/>
        <g>
            <path fill="#53C27C" d="M884 53h9V18h-9z"/>
            <path stroke="#53C27C" stroke-linecap="round" stroke-linejoin="round" stroke-width="2.005" d="M884 53h9V18h-9z"/>
            <path fill="#D3E5EF" d="M872 53h7V31h-7z"/>
            <path stroke="#CFE6F0" stroke-linejoin="round" stroke-width="2.005" d="M872 53h7V31h-7z"/>
            <path fill="#D3E5EF" d="M860 53h7V41h-7z"/>
            <path stroke="#CFE6F0" stroke-linejoin="round" stroke-width="2.005" d="M860 53h7V41h-7z"/>
            <path fill="#D3E5EF" d="M848 53h7v-8h-7z"/>
            <path stroke="#CFE6F0" stroke-linejoin="round" stroke-width="2.005" d="M848 53h7v-8h-7z"/>
            <g stroke="#4F5661" stroke-linecap="round" stroke-linejoin="round" stroke-width="2.005">
                <path d="M852 28s20-5 36-24M881 3h8v8"/>
                <path d="M841 12v45a2 2 0 0 0 2 2h56"/>
            </g>
        </g>
        <path d="M120 0h60v60h-60z"/>
        <g>
            <path stroke="#0DC36A" stroke-width="2" d="M175 30c0 13.808-11.192 25-25 25s-25-11.192-25-25 11.192-25 25-25 25 11.192 25 25"/>
            <path fill="#0DC36A" d="M162.691 20l-15.803 15.789-7.809-6.948L136 32.158l9.24 8.172.02-.022L147.09 42 166 23.107z"/>
        </g>
        <path d="M60 0h60v60H60z"/>
        <g>
            <path stroke="#4F5661" stroke-linecap="round" stroke-linejoin="round" stroke-width="2" d="M103.86 14h5.11v40h-39V14h6.11"/>
            <path stroke="#4F5661" stroke-linecap="round" stroke-linejoin="round" stroke-width="2" d="M99.62 8h13.47c1.02 0 1.85.82 1.85 1.82v47.36c0 1-.83 1.82-1.85 1.82H66.85c-1.02 0-1.85-.82-1.85-1.82V9.82c0-1 .83-1.82 1.85-1.82h13.29"/>
            <path fill="#CFE6F0" d="M92.97 24h-9a1 1 0 1 1 0-2h9a1 1 0 0 1 0 2M90.97 28h-7a1 1 0 1 1 0-2h7a1 1 0 0 1 0 2M92.97 34.974h-9a1 1 0 1 1 0-2h9a1 1 0 1 1 0 2M90.97 38.974h-7a1 1 0 1 1 0-2h7a1 1 0 1 1 0 2"/>
            <path stroke="#4F5661" stroke-linecap="round" stroke-linejoin="round" stroke-width="2" d="M101.264 12.294h-.118c-3.118 0-5.647-1.882-5.647-5.646A5.653 5.653 0 0 0 89.852 1a5.653 5.653 0 0 0-5.612 6.259c-.244 3.355-2.502 5.035-5.447 5.035h-.117a2.825 2.825 0 0 0-2.824 2.824V17h28.236v-1.882a2.824 2.824 0 0 0-2.824-2.824z"/>
            <path fill="#4F5661" d="M89.855 4.687c1.016 0 1.844.827 1.844 1.844a1.847 1.847 0 0 1-1.844 1.844 1.846 1.846 0 0 1-1.844-1.844c0-1.017.827-1.844 1.844-1.844"/>
            <path fill="#53C27C" d="M105.366 21.75l-1.307-1.268-4.358 4.495-2.158-1.983-1.218 1.355 2.957 2.699.003-.004.489.474z"/>
            <path fill="#FF8979" d="M77.393 21.469l-1.477 1.363-.636-.761 2.238-1.852h.965v8.043h-1.09z"/>
            <path fill="#53C27C" d="M105.366 32.267L104.059 31 99.7 35.495l-2.158-1.983-1.218 1.355 2.957 2.699.003-.005.489.474z"/>
            <path fill="#FF8979" d="M74.848 38.62l3.227-3.203c.113-.107.223-.222.33-.347.105-.125.2-.256.283-.39.083-.138.15-.282.2-.433.048-.15.072-.31.072-.478a1.26 1.26 0 0 0-.108-.533 1.15 1.15 0 0 0-.295-.403 1.345 1.345 0 0 0-.443-.256 1.585 1.585 0 0 0-.539-.09c-.394 0-.72.11-.977.328-.258.22-.42.523-.489.91l-1.18-.103c.051-.356.156-.664.311-.926a2.237 2.237 0 0 1 1.375-1.039 3.58 3.58 0 0 1 .971-.125c.348 0 .676.047.983.142.306.094.575.234.806.42.231.186.413.417.545.693.133.276.2.601.2.972 0 .264-.04.512-.12.744-.08.23-.184.448-.313.652a3.974 3.974 0 0 1-.443.58c-.166.182-.34.36-.522.533l-2.647 2.557h4.044v.954h-5.27V38.62z"/>
            <path fill="#CFE6F0" d="M92.97 46.035h-9a1 1 0 0 1 0-2h9a1 1 0 1 1 0 2M90.97 50.035h-7a1 1 0 0 1 0-2h7a1 1 0 1 1 0 2"/>
            <path fill="#53C27C" d="M105.366 43.785l-1.307-1.268-4.358 4.495-2.158-1.983-1.218 1.355 2.957 2.7.003-.006.489.475z"/>
            <path fill="#FF8979" d="M76.007 48.332c.128.386.3.674.515.863.215.19.534.283.957.283a1.617 1.617 0 0 0 1.086-.403c.143-.124.256-.276.339-.454.083-.178.125-.377.125-.597 0-.333-.07-.599-.21-.8a1.334 1.334 0 0 0-.54-.454 2.371 2.371 0 0 0-.727-.2 7.205 7.205 0 0 0-.784-.045v-.954c.417 0 .758-.028 1.023-.085.265-.057.473-.138.625-.245a.848.848 0 0 0 .318-.397c.06-.159.09-.337.09-.533 0-.433-.13-.758-.386-.978-.257-.22-.58-.329-.965-.329-.296 0-.563.085-.801.255a1.584 1.584 0 0 0-.54.677l-1.113-.375c.212-.516.535-.896.97-1.142a2.915 2.915 0 0 1 1.46-.369c.327 0 .639.043.938.13.299.088.562.221.789.403.228.182.408.411.54.687.133.277.199.601.199.972 0 .424-.127.803-.381 1.136-.254.333-.585.56-.993.682v.022c.249.046.473.129.67.25.196.121.363.272.5.454.136.183.238.385.306.609.069.223.102.459.102.709 0 .386-.073.726-.221 1.017a2.152 2.152 0 0 1-.591.728c-.246.192-.53.338-.852.436-.322.099-.66.149-1.016.149-.614 0-1.154-.141-1.62-.421-.465-.281-.79-.723-.971-1.329l1.159-.352z"/>
        </g>
        <path d="M0 0h60v60H0z"/>
        <g>
            <path stroke="#4F5661" stroke-width="2" d="M30 58.967c15.998 0 28.967-12.97 28.967-28.967a29.25 29.25 0 0 0-.242-3.762c-1.038-8.005-5.381-15.157-11.89-19.814A28.826 28.826 0 0 0 30 1.034C14.002 1.033 1.033 14.001 1.033 30c0 15.998 12.97 28.967 28.967 28.967z"/>
            <mask id="f" fill="#fff">
                <use xlink:href="#e"/>
            </mask>
            <g mask="url(#f)">
                <path stroke="#4F5661" stroke-linecap="round" stroke-linejoin="round" stroke-width="2" d="M21.118 40.305c-6.56.836-7.582-2.807-7.582-2.807s1.547-1.305 2.284-3.85c1.297-4.474.616-11.956 4.213-18.128 2.807-4.82 9.96-2.743 9.96-2.743M39.034 40.305c6.559.836 7.581-2.807 7.581-2.807s-1.546-1.305-2.284-3.85c-1.296-4.474-.616-11.956-4.212-18.128-2.808-4.82-9.96-2.743-9.96-2.743"/>
                <path fill="#CFE6F0" d="M46.39 51.18c-3.548 4.467-10.066 7.288-16.848 7.288-6.79 0-13.062-3.26-16.849-7.288l3.927-5.055c1.178-1.608 3.305-2.58 5.069-2.761h2.877l3.127 5.415a2.132 2.132 0 0 0 3.697 0l3.127-5.415h2.877c1.764.187 3.884 1.161 5.054 2.768l3.942 5.048z"/>
                <path stroke="#4F5661" stroke-linecap="round" stroke-linejoin="round" stroke-width="1.921" d="M29.542 58.468c-6.79 0-12.566-1.828-16.849-7.287l3.927-5.056c1.178-1.607 3.305-2.58 5.069-2.76M29.542 58.468c6.54-.607 13.296-.818 17.579-6.277l-4.658-6.066c-1.177-1.607-2.753-2.406-4.294-2.776"/>
                <path stroke="#4F5661" stroke-linecap="round" stroke-width="1.921" d="M27.071 34.06a2.836 2.836 0 0 0 4.94 0"/>
                <path stroke="#4F5661" stroke-linecap="round" stroke-linejoin="round" stroke-width="1.921" d="M24.968 43.325l3.538 5.785a1.695 1.695 0 0 0 2.839-.05l3.673-5.905v-4.28c1.802-1.122 3.37-3.07 3.37-5.291v-9.146c-1.867-.623-8.846-5.358-8.846-5.358s-8.424 5.04-8.424 5.337v9.584c0 3.42 3.74 6.21 6.284 6.304"/>
                <path fill="#4F5661" d="M30.553 43.104h-1.996c-1.105 0-2-.92-2-2.056 0-1.137.895-2.058 2-2.058h1.996c1.105 0 1.998.92 1.998 2.058 0 1.135-.893 2.056-1.998 2.056z"/>
            </g>
        </g>
    </g>
</svg>
