<?xml version="1.0" encoding="UTF-8"?>
<svg width="136px" height="112px" viewBox="0 0 136 112" version="1.1" xmlns="http://www.w3.org/2000/svg" xmlns:xlink="http://www.w3.org/1999/xlink">
    <!-- Generator: Sketch 53.2 (72643) - https://sketchapp.com -->
    <title>planeacion-tributaria</title>
    <desc>Created with Sketch.</desc>
    <defs>
        <linearGradient x1="50.0473806%" y1="99.997641%" x2="50.0473806%" y2="-0.0142947503%" id="linearGradient-1">
            <stop stop-color="#808080" stop-opacity="0.25" offset="0%"></stop>
            <stop stop-color="#808080" stop-opacity="0.12" offset="54%"></stop>
            <stop stop-color="#808080" stop-opacity="0.1" offset="100%"></stop>
        </linearGradient>
    </defs>
    <g id="Page-1" stroke="none" stroke-width="1" fill="none" fill-rule="evenodd">
        <g id="planeacion-tributaria">
            <path d="M78.2151132,15.3385953 C72.7657067,20.7464158 65.6973847,20.3973626 59.5033242,17.5832249 C53.3092637,14.7690873 47.6194943,9.75875325 41.5844975,6.19807585 C36.5544781,3.22430761 31.2548351,1.26619984 25.8407204,0.381078002 C18.1491041,-0.866495179 9.55966128,0.653306153 4.20098007,9.39967931 C-1.76685641,19.1347584 -1.30851714,36.6976494 5.14358011,45.6410957 C8.42736299,50.1871388 12.7267974,52.4184076 16.475989,55.9673942 C20.2251807,59.5163808 23.6986618,65.4068635 23.3793561,72.2543201 C23.0836153,78.6007432 19.6466599,83.4641075 16.089523,86.5187412 C13.3406657,88.8786085 9.95555329,91.4555903 9.62446503,96.3440063 C9.30398102,101.073762 12.1506331,104.779739 14.868856,106.887419 C23.7363658,113.764938 34.6634567,113.698133 43.5003321,106.720408 C46.6509727,104.223592 49.5447548,100.910091 52.8497462,98.9761018 C61.5275578,93.8789219 71.0902352,99.0111741 80.2794073,100.886709 C88.0874605,102.472263 96.0449415,101.651378 103.608758,98.4800787 C108.15916,96.5744816 112.727235,93.6618074 115.923828,88.2356156 C118.229663,84.3225447 119.66595,79.3723347 121.013868,74.4805785 C122.451333,69.2664909 123.83342,64.0151041 125.16013,58.7264181 C125.955449,55.5532066 126.738985,52.3165308 126.945179,48.9195243 C127.317506,42.7651639 125.748077,36.6809483 123.610731,31.486902 C118.536008,19.1447791 109.988982,10.4735609 100.73265,8.27068404 C91.4763174,6.06780716 81.6838813,10.370014 74.5048038,19.7844317" id="Path" fill="#00EFAB" opacity="0.1"></path>
            <g id="Group" opacity="0.1" transform="translate(61.000000, 8.000000)" fill="#000000">
                <path d="M0.861776062,0.25210728 L0.155675676,40.0490421 C0.155675676,40.0490421 25.716139,40.0490421 47.4644015,46.9099617 L47.8869498,6.70605364 C47.8869498,6.70605364 13.006332,-1.39559387 0.861776062,0.25210728 Z" id="Path"></path>
            </g>
            <path d="M60.7100757,7.22168352 L60,47.1213668 C60,47.1213668 85.7043681,47.1213668 107.575073,54 L108,13.6922928 C108,13.6922928 72.9230052,5.5697283 60.7100757,7.22168352 Z" id="Path" fill="#F7F7FD"></path>
            <g id="Group" opacity="0.1" transform="translate(12.000000, 11.000000)" fill="#000000">
                <path d="M26.8785906,0.127160121 L26.8785906,40.4295468 C26.8785906,40.4295468 18.7314765,39.4454381 1.62,60.9318127 L0.0924161074,20.629426 C0.0924161074,20.629426 17.9033557,1.10942598 26.8785906,0.127160121 Z" id="Path"></path>
            </g>
            <path d="M39,10 L39,50.4318664 C39,50.4318664 30.7878501,49.444596 13.5397781,71 L12,30.5681336 C12,30.5681336 29.9531187,10.9854216 39,10 Z" id="Path" fill="#F7F7FD"></path>
            <g id="Group" opacity="0.2" transform="translate(68.000000, 15.000000)" fill="#00EFAB">
                <polygon id="Path" points="0.0904255319 0.0835483871 16.9873404 3.85677419 16.9873404 6.93 0.0904255319 2.87903226"></polygon>
            </g>
            <polygon id="Path" fill="#FFFFFF" points="68 20 99 26.4940671 99 29 68 22.2794599"></polygon>
            <polygon id="Path" fill="#FFFFFF" points="68 25 99 31.4922259 99 34 68 27.2776187"></polygon>
            <g id="Group" opacity="0.2" transform="translate(19.000000, 25.000000)" fill="#00EFAB">
                <polygon id="Path" points="11.8165714 0.161265823 11.9142857 2.29139241 0.0445714286 13.8511392 0.24 11.4179747"></polygon>
            </g>
            <g id="Group" opacity="0.2" transform="translate(19.000000, 28.000000)" fill="#00EFAB">
                <polygon id="Path" points="11.9142857 0.0407594937 11.9142857 2.06810127 0.0445714286 13.8334177 0.0445714286 11.1964557"></polygon>
            </g>
            <ellipse id="Oval" fill="#00EFAB" opacity="0.1" cx="48" cy="91.5" rx="11" ry="1.5"></ellipse>
            <path d="M24.7543889,81 C24.7543889,81 25.7536024,82.2832887 24.2920934,84.2171582 C22.8305844,86.1510277 21.625704,87.7917784 22.1080202,89 C22.1080202,89 24.3121141,85.4003575 26.1121544,85.3503128 C27.9121948,85.3002681 26.7291551,83.1733691 24.7543889,81 Z" id="Path" fill="#00EFAB"></path>
            <path d="M24.7246102,81 C24.8131841,81.1234787 24.8826495,81.2588727 24.9307969,81.4018754 C26.7017936,83.4201831 27.6462024,85.3045323 25.943321,85.3527573 C24.3582606,85.395624 22.4455106,88.1480241 22,88.8428221 C22.0147276,88.8946193 22.0331372,88.9482027 22.0533876,89 C22.0533876,89 24.2827815,85.4027685 26.1034839,85.3527573 C27.9241862,85.3027461 26.722044,83.1719134 24.7246102,81 Z" id="Path" fill="#000000" opacity="0.1"></path>
            <path d="M26.1901232,82.2616758 C26.1901232,82.6695274 26.1062894,83 26.001497,83 C25.8967047,83 25.8098768,82.6695274 25.8098768,82.2616758 C25.8098768,81.8538242 25.9176632,82.0456595 26.0224555,82.0456595 C26.1272478,82.0456595 26.1901232,81.8522121 26.1901232,82.2616758 Z" id="Path" fill="#FFD037"></path>
            <path d="M25.7630051,83.0011888 C25.3728839,83.1347558 25.0319671,83.2153375 25.002093,83.1822218 C24.9722188,83.149106 25.2656884,83.0122274 25.6558096,82.8786604 C26.0459308,82.7450934 25.8912882,82.8422331 25.9211623,82.8786604 C25.9510365,82.9150878 26.1531263,82.8687257 25.7630051,83.0011888 Z" id="Path" fill="#FFD037"></path>
            <path d="M18.2470656,81 C18.2470656,81 17.251243,82.2788569 18.7076563,84.2203617 C20.1640695,86.1618665 21.3747131,87.7925876 20.8922762,89 C20.8922762,89 18.6876306,85.4027685 16.8871397,85.3527573 C15.0866488,85.3027461 16.2736256,83.1719134 18.2470656,81 Z" id="Path" fill="#00EFAB"></path>
            <path d="M18.2751552,81 C18.1873832,81.1239425 18.1179717,81.2592197 18.0689507,81.4018754 C16.2978016,83.4201831 15.3533115,85.3045323 17.0563395,85.3527573 C18.6433775,85.395624 20.5544511,88.1480241 21,88.8428221 C20.9855408,88.896227 20.9677097,88.9487187 20.9466078,89 C20.9466078,89 18.7170219,85.4027685 16.8961628,85.3527573 C15.0753037,85.3027461 16.2793905,83.1719134 18.2751552,81 Z" id="Path" fill="#000000" opacity="0.1"></path>
            <path d="M15.8098768,82.2616758 C15.8098768,82.6695274 15.8937106,83 15.998503,83 C16.1032953,83 16.1901232,82.6695274 16.1901232,82.2616758 C16.1901232,81.8538242 16.0823368,82.0456595 15.9775445,82.0456595 C15.8727522,82.0456595 15.8098768,81.8522121 15.8098768,82.2616758 Z" id="Path" fill="#FFD037"></path>
            <path d="M16.2380345,83.0011888 C16.6285235,83.1347558 16.9680027,83.2153375 16.997905,83.1822218 C17.0278073,83.149106 16.7340611,83.0122274 16.343572,82.8786604 C15.953083,82.7450934 16.1078714,82.8422331 16.0779691,82.8786604 C16.0480668,82.9150878 15.8475454,82.8687257 16.2380345,83.0011888 Z" id="Path" fill="#FFD037"></path>
            <path d="M17,88.429644 C17,88.429644 19.6873057,88.3486756 20.4990959,87.7801743 C21.3108862,87.2116729 24.6315282,86.5346395 24.8327263,87.4459644 C25.0339243,88.3572893 28.870683,91.9750251 25.8369668,91.9991434 C22.8032506,92.0232616 18.788038,91.5340059 17.9797469,91.0481957 C17.1714557,90.5623854 17,88.429644 17,88.429644 Z" id="Path" fill="#A8A8A8"></path>
            <path d="M25.8915647,91.7358321 C22.8571279,91.7560975 18.8409616,91.3449989 18.0324785,90.9367954 C17.4164913,90.627024 17.1714964,89.5138732 17.0892481,89 L17,89 C17,89 17.1749964,90.7934899 17.9782296,91.2002459 C18.7814629,91.6070019 22.8028791,92.019548 25.8373158,91.9992826 C26.7122976,91.9992826 27.0167912,91.7358321 26.9992916,91.3536841 C26.8785441,91.5867365 26.5443011,91.7314895 25.8915647,91.7358321 Z" id="Path" fill="#000000" opacity="0.2"></path>
            <ellipse id="Oval" fill="#00EFAB" opacity="0.1" cx="72.5" cy="76.5" rx="17.5" ry="3.5"></ellipse>
            <path d="M69.979938,35.4901741 C69.892613,35.6549374 69.8286748,35.8286334 69.7895823,36.0072993 C69.778161,36.0522179 69.7667396,36.0993824 69.7553183,36.1487928 C69.6411048,36.6642336 69.5649626,37.3127456 69.5249879,37.6900618 C69.5059523,37.8787198 69.4964345,38 69.4964345,38 C69.4964345,38 65.3676192,37.7557552 66.0833566,37.1426165 C66.2678884,36.9733458 66.3991412,36.764285 66.4640681,36.5362156 C66.4850072,36.4705222 66.5021392,36.4048287 66.5173677,36.3374509 C66.55149,36.1845687 66.5737501,36.0297996 66.5839922,35.874228 C66.5839922,35.8354857 66.5839922,35.7967434 66.5839922,35.7563167 C66.5933013,35.5036723 66.5799344,35.2507726 66.5440175,35 C66.5440175,35 67.8860252,35 68.8987176,35.0960135 C69.580191,35.1650758 70.1112834,35.2846715 69.979938,35.4901741 Z" id="Path" fill="#D38884"></path>
            <path d="M62.9345039,53.9995604 C61.7384215,53.9571841 62.620512,51.2398027 62.7580858,50.874307 C62.8956595,50.5088113 62.5541529,49.6136116 62.5541529,49.6136116 C62.5541529,49.6136116 62.1495242,47.0251249 62.1495242,46.8556196 C62.1288617,46.5027362 62.0834099,46.1521024 62.013569,45.8068058 C61.9714649,45.4542997 62.0278756,45.0961376 62.1754205,44.7791801 C62.3129942,44.5443447 62.2919535,43.6032373 62.2919535,43.6032373 L62.2919535,42.3849182 L62.5590085,42 L63.2404032,42.7062719 L63.4297694,42.9004967 L63.7631835,44.2636016 L63.6450319,46.2164435 L63.5819098,48.1180807 L63.9946311,50.7489437 C63.9946311,50.7489437 64.1386789,54.0437024 62.9345039,53.9995604 Z" id="Path" fill="#D38884"></path>
            <polygon id="Path" fill="#000000" opacity="0.1" points="63 42 62 41.5498282 62 41.3745704 62.2603175 41 62.9301587 41.6838488"></polygon>
            <path d="M62.4857143,39 C62.3700147,39.3972719 62.2861694,39.8112513 62.2357143,40.2343542 C62.1892107,40.6402861 62.1101404,41.0375994 62,41.418775 L63,42 L62.4857143,39 Z" id="Path" fill="#4C4981"></path>
            <path d="M62.4857143,39 C62.3700147,39.3972719 62.2861694,39.8112513 62.2357143,40.2343542 C62.1892107,40.6402861 62.1101404,41.0375994 62,41.418775 L63,42 L62.4857143,39 Z" id="Path" fill="#000000" opacity="0.05"></path>
            <path d="M72,68.27934 L71.9034138,68.5090083 C71.9034138,68.5090083 71.7985012,69.2702475 71.7985012,69.2887692 C71.7985012,69.3072908 71.4954205,69.8147836 71.4954205,69.8147836 L70.734388,70 L70.4113239,69.9555481 C70.3941212,69.746305 70.3652002,69.5384591 70.3247294,69.3332211 C70.3130724,69.275804 70.3014155,69.2165348 70.286428,69.1572655 C70.1726958,68.68244 69.9934949,68.230084 69.755204,67.816299 C69.755204,67.816299 69.1906744,66.2678902 68.9891757,66.0660044 C68.7876769,65.8641185 68.0199833,63.821182 68.101582,63.3285065 C68.1448793,63.0580906 68.1099084,62.1505304 68.0699417,61.3948476 C68.0366361,60.7780771 68,60.2594713 68,60.2594713 L69.9167361,59 L70.1398834,59.3908065 L70.2731057,59.622327 C70.2731057,59.622327 70.2731057,59.6667789 70.2647794,59.7408655 L70.2647794,59.7686479 C70.2427475,60.0836349 70.1868392,60.3945478 70.0982515,60.6947298 C70.0982515,60.6947298 69.9550375,61.8393669 70.0982515,62.0412527 C70.2414654,62.2431386 70.6977519,64.941741 70.7993339,66.1900993 C70.7993339,66.2289948 70.7993339,66.2678902 70.7993339,66.3030813 C70.8393006,66.8772521 71.1590341,67.3884492 71.480433,67.7625863 L71.480433,67.7625863 C71.5004163,67.7885166 71.5220649,67.8125947 71.5437136,67.8366728 C71.6864746,67.9957246 71.8389321,68.1436315 72,68.27934 L72,68.27934 Z" id="Path" fill="#D38884"></path>
            <path d="M71.1411992,68.9611089 L71.516441,69 L72.4003868,68.8379539 C72.4003868,68.8379539 72.7524178,68.392327 72.7524178,68.3777429 C72.7524178,68.3631587 72.8742747,67.6955287 72.8742747,67.6955287 L72.9864603,67.4945915 L73,67.4702846 C72.7838905,67.3448671 72.5807273,67.2044745 72.3926499,67.0505852 L72.3926499,67.0505852 C72.3713733,67.0343805 72.3500967,67.0181759 72.3307544,67.0003509 C72.311412,66.9825258 72.4564797,67.6485353 71.7833656,67.9385979 C71.4564797,68.079578 71.1876209,68.1881489 71,68.2626901 L71.1411992,68.9611089 Z" id="Path" fill="#000000" opacity="0.1"></path>
            <path d="M73,67.4687753 L72.8802947,67.6942417 C72.8802947,67.6942417 72.7642726,68.3609084 72.7642726,68.377129 C72.7642726,68.3933496 72.4290976,68.837794 72.4290976,68.837794 L71.587477,69 L71.1031308,68.9497161 C71.1031308,68.863747 71.0865562,68.7420925 71.0626151,68.594485 C71.0478821,68.5052717 71.0276243,68.406326 71,68.2992701 C71.1841621,68.2262774 71.4696133,68.1062449 71.8360958,67.9391727 C72.4788214,67.648824 72.3572744,67 72.3572744,67 C72.4963202,67.1220226 72.6432827,67.2368409 72.7974217,67.3438767 C72.8858195,67.3990268 72.9576427,67.4428224 73,67.4687753 Z" id="Path" fill="#CEDDF9"></path>
            <path d="M73,67.1508325 L72.8764259,67.4231146 C72.8764259,67.4231146 72.756654,68.2282076 72.756654,68.2477963 C72.756654,68.2673849 72.4106464,68.8041136 72.4106464,68.8041136 L71.5418251,69 L71.0418251,68.9392752 C71.0418251,68.8354554 71.0247148,68.6885406 71,68.510284 C71.1063165,68.5152793 71.2119598,68.530361 71.3155894,68.5553379 C71.3155894,68.5553379 72.5019011,68.8158668 72.5589354,67.8481881 C72.5931559,67.2997062 72.7034221,67.0842311 72.7908745,67 C72.8821293,67.0666014 72.9562738,67.1194907 73,67.1508325 Z" id="Path" fill="#000000" opacity="0.1"></path>
            <path d="M71.9939004,67.593582 C71.9939004,67.593582 71.7249234,67.535476 71.671128,68.3780133 C71.6173326,69.2205506 70.5362186,68.9949625 70.5362186,68.9949625 C70.5362186,68.9949625 70.005206,68.8650785 70,69.0821216 C70.0177253,69.2828213 70.0656832,69.4798053 70.1422975,69.6665998 C70.1422975,69.6665998 70.1735335,70.1690459 70.274183,70.288676 C70.3748324,70.408306 70.310625,70.8526462 70.310625,70.8526462 C70.310625,70.8526462 70.3522731,71.1841923 71.1887047,70.8526462 C71.1887047,70.8526462 71.934899,70.7005451 72.5544137,69.7862298 C72.5752377,69.7554678 72.4815296,69.6614728 73.0229542,69.4700647 C73.5643789,69.2786566 75.1053567,68.0515942 74.9942952,67.451735 C74.9697813,67.2487998 74.8252309,67.0795833 74.6264041,67.0210668 C74.4626939,66.9780701 74.2883163,67.00146 74.1422456,67.0860089 C73.9959494,67.1639743 73.8446554,67.2324791 73.689323,67.2910889 C73.4830834,67.3733202 73.2654766,67.424592 73.0437783,67.44319 C72.8737726,67.4574707 72.7057141,67.4889688 72.5422663,67.537185 C72.3679444,67.6041701 72.178514,67.6236521 71.9939004,67.593582 Z" id="Path" fill="#CC8294"></path>
            <path d="M67.9341736,61.8963783 C67.7865751,62.0014669 67.6592137,62.1259629 67.5568036,62.2652582 C67.1794336,62.7614017 66.952154,63.454896 66.6991445,63.7536888 C66.3689458,64.1410127 66.270315,64.8935278 66.270315,64.8935278 C66.182405,65.387827 64.9645291,68.0290074 64.6343303,68.4974849 C64.3041316,68.9659624 63.845284,70.2404427 63.845284,70.2404427 C63.5644006,70.5429242 63.5815538,70.9929577 63.6094277,71.2069081 C63.6094277,71.2437961 63.6094277,71.2733065 63.6222926,71.2935949 C63.6351575,71.3138833 63.6222926,71.3286385 63.6222926,71.3286385 L63.6222926,71.3415493 L63.1720216,72 L61.739731,71.8284708 L61,71.3968813 C61.0605772,71.3122439 61.1143079,71.2241191 61.1608111,71.1331321 C61.5574784,70.3732394 61.8383617,69.0157612 61.8383617,69.0157612 C61.8383617,69.0157612 62.2371732,67.4664655 62.2071551,67.1049631 C62.2172124,66.611716 62.2565731,66.1192336 62.3250833,65.6294433 C62.3250833,65.6294433 63.452905,62.6691818 63.8131218,62.1896378 C63.9632553,62.0001425 64.0561086,61.7814437 64.0832844,61.5533199 C64.0902451,61.5074043 64.0902451,61.4609056 64.0832844,61.4149899 L64.5678617,61 C64.5678617,61 68.5559764,61.4703219 67.9341736,61.8963783 Z" id="Path" fill="#D38884"></path>
            <path d="M63,71.0921584 C63,71.0921584 63,71.1338025 63,71.2025153 L63,71.2566526 L62.6565822,72 L61.5641864,71.8063549 L61,71.3191188 C61.0462017,71.2235688 61.0871817,71.1240817 61.1226492,71.0213634 C61.3973835,70.9214176 62.0253475,71.2045975 62.0253475,71.2045975 C62.0253475,71.2045975 62.7040065,71.3690917 62.9901881,71.1046516 C62.9901881,71.1025694 62.9934587,71.0963228 63,71.0921584 Z" id="Path" fill="#000000" opacity="0.1"></path>
            <path d="M62.3876926,72.7015093 L61.1424191,73 L60,72.1524339 L60.058774,71.6752173 C60.1385194,71.6262109 60.2093322,71.5638965 60.2681562,71.4909638 C60.3515188,71.3927573 60.4084267,71.2747733 60.433458,71.1482522 C60.4995788,70.796328 61.5850605,71.1814179 61.5850605,71.1814179 C61.5850605,71.1814179 62.3785092,71.3325057 62.6870725,71.0800784 C62.6654048,71.3114587 62.6853118,71.544862 62.7458465,71.7691866 C62.7752625,71.8784924 62.8398263,71.9749988 62.9295151,72.0437243 C63.2472619,72.262986 62.3876926,72.7015093 62.3876926,72.7015093 Z" id="Path" fill="#CEDDF9"></path>
            <path d="M62.3876926,73.6043956 L61.1424191,74 L60,72.8766789 L60.058774,72.2442002 C60.1385194,72.1792496 60.2093322,72.0966614 60.2681562,72 C60.3508071,72 60.4408048,72 60.5179456,72 C60.7016143,72.02442 61.1607859,73.1111111 61.1607859,73.1111111 C62.2885115,73.2112332 62.6301352,72.7203907 62.7458465,72.3589744 C62.7752625,72.5038428 62.8398263,72.6317475 62.9295151,72.7228327 C63.2472619,73.023199 62.3876926,73.6043956 62.3876926,73.6043956 Z" id="Path" fill="#000000" opacity="0.1"></path>
            <path d="M60.1518465,72.7403672 C60.1518465,72.7403672 59.7221759,72.0256983 59.5405265,72.0112443 C59.3869442,72.0033131 59.2329988,72.0033131 59.0794165,72.0112443 C59.0794165,72.0112443 58.6043335,73.0471128 58.4296707,73.1354427 C58.2550078,73.2237725 58,73.7200258 58,73.7200258 C58,73.7200258 59.2575726,74.8442242 60.4732262,74.6242026 C60.8610979,74.6293363 61.2424465,74.7167225 61.5875753,74.8795562 C62.1499897,75.1493638 64.4992053,74.9454021 64.7856524,74.4716328 C64.9987411,74.1151013 65.0843259,73.8565356 64.89569,73.6686339 C64.781286,73.5596886 64.6167052,73.5082486 64.4537929,73.5305181 C64.1586127,73.5674561 63.4948938,73.5610321 62.9132664,72.904179 C62.9132664,72.904179 61.8408364,72.0016083 61.753505,72.0000023 C61.6661736,71.9983963 61.8251168,72.8431511 60.1518465,72.7403672 Z" id="Path" fill="#CC8294"></path>
            <path d="M70,59.6336174 L69.989019,59.6429125 C69.8967789,59.7141751 69.2467057,60.2176607 69.0490483,60.253292 C68.7222314,60.3403131 68.4025542,60.4401327 68.0915081,60.5522851 C68.0915081,60.5522851 67.6918009,60.9287374 67.3733529,60.9473277 C67.2770695,60.9571342 67.1827309,60.9748105 67.0922401,61 C67.0483163,60.4841208 67,60.0503486 67,60.0503486 L69.5278184,59 L69.8221083,59.3268784 C69.8879941,59.4585593 69.9626647,59.580945 69.9868228,59.6196747 L70,59.6336174 Z" id="Path" fill="#000000" opacity="0.1"></path>
            <path d="M63.363001,51.4277984 C63.363001,51.4277984 62.5462487,52.5140345 63.363001,53.9555293 C63.8022959,54.7658797 64.3696058,55.4967485 65.0420834,56.1187014 L67.8241461,62 C67.8241461,62 68.5533892,61.5945215 68.819563,61.5722016 C69.0857367,61.5498816 69.4157192,61.0997633 69.4157192,61.0997633 C69.673821,60.9643406 69.9392004,60.8438699 70.2105943,60.7389246 C70.3929051,60.6942847 71,59.9949273 71,59.9949273 C71,59.9949273 70.695541,59.3197497 70.762996,59.1393304 C70.830451,58.9589111 70.5642772,58.5069327 70.5642772,58.5069327 C70.4814872,58.2810131 70.4204296,58.0474144 70.3819664,57.8094352 C70.3819664,57.6234359 70.0939154,57.2012175 70.0939154,57.2012175 C70.0939154,57.2012175 69.8076874,56.7492391 69.8076874,56.50186 C69.8076874,56.2544809 69.3792571,55.2779844 69.3792571,55.2779844 L69.2680475,51 L63.363001,51.4277984 Z" id="Path" fill="#CEDDF9"></path>
            <path d="M71,59.9949273 C71,59.9949273 70.3875709,60.6924248 70.2107684,60.7389246 C69.9394344,60.8438699 69.6741136,60.9643406 69.4160688,61.0997633 C69.4160688,61.0997633 69.0843363,61.5498816 68.820044,61.5722016 C68.6296729,61.6125686 68.4456682,61.6795395 68.2732323,61.7712208 C68.0362806,61.8809604 67.823024,62 67.823024,62 L65.0397525,56.1187014 C64.7961407,55.9019826 64.5700038,55.6656215 64.3635287,55.411904 C63.9865952,54.9586168 63.6510376,54.4711321 63.3610406,53.9555293 C63.0420639,53.4327185 62.9287606,52.8061051 63.0438898,52.2015556 C63.095583,51.9244667 63.2036233,51.6615129 63.3610406,51.4296584 L65.3404989,51.286439 L69.2830113,51 L69.31582,52.2666554 L69.3887282,55.2779844 C69.3887282,55.2779844 69.4525229,55.4286439 69.5327219,55.6276632 C69.6580021,55.9043507 69.7504012,56.1953364 69.8079505,56.49442 C69.8079505,56.7436591 70.0941153,57.1937775 70.0941153,57.1937775 C70.0941153,57.1937775 70.3821028,57.6215759 70.3821028,57.8019953 C70.420755,58.0405367 70.4817927,58.2747334 70.5643733,58.5013527 C70.5643733,58.5013527 70.8304884,58.9514711 70.764871,59.1300304 C70.6992536,59.3085898 71,59.9949273 71,59.9949273 Z" id="Path" fill="#000000" opacity="0.05"></path>
            <path d="M65.9497866,61.7063679 C65.8369772,61.7881704 65.739635,61.8850799 65.6613631,61.9935094 C64.5814134,62.0624233 63.3261153,61.5627972 63,61.4307121 C63.0053201,61.3949708 63.0053201,61.3587755 63,61.3230341 L63.3703621,61 C63.3703621,61 66.42503,61.3747196 65.9497866,61.7063679 Z" id="Path" fill="#000000" opacity="0.1"></path>
            <path d="M71,53.08132 C71,53.08132 70.7890295,53.6823145 70.7194093,53.939377 C70.649789,54.1964395 70.4894515,55.4657965 70.4894515,55.4657965 L70.4008439,55.8203655 L68.9409283,61.6707539 L68.6223629,62.9418838 C68.0611814,63.2007192 66.6561181,62.5110825 66.6561181,62.5110825 C65.0189873,62.6635471 63,61.7824432 63,61.7824432 C63,61.7824432 63.3312236,60.8800651 63.2552743,60.4297625 C63.1793249,59.9794598 63.7151899,59.6124809 63.7151899,59.6124809 C63.5886076,59.2047266 64.0464135,57.4212445 64.0464135,57.4212445 C64.0464135,57.4212445 64.149789,56.7564277 64.5337553,56.5844617 C64.9177215,56.4124957 64.4831224,56.1554332 64.3797468,56.0029685 C64.3434691,55.8717864 64.355988,55.7344078 64.4156118,55.609397 C64.4488119,55.5102041 64.4882484,55.4125605 64.5337553,55.3168775 C63.5590717,54.4978231 63.4092827,53.2178291 63.407173,52.5069182 C63.4045041,52.3334723 63.4136611,52.1600404 63.4345992,51.9874747 L65.5443038,51.6772268 L70.1540084,51 L70.6244726,52.2161717 L70.6244726,52.2161717 L70.742616,52.521101 L71,53.08132 Z" id="Path" fill="#CEDDF9"></path>
            <path d="M68.982585,35.7113276 C68.9067816,35.949609 68.8512795,36.2008089 68.8173448,36.4591961 C68.8074304,36.5241575 68.797516,36.592367 68.7876016,36.6638246 C68.4389448,36.9975639 68.2241326,37 67.7779842,37 C67.6243108,37 67.5383859,36.5663825 67.3929746,36.5127893 C67.3929746,36.5127893 67.1748576,35.3532278 67.1137187,36.3300853 C66.6940087,36.2034105 66.3321327,36.6857491 66.0347004,36.2643118 L66.0347004,36.2643118 C66.0347004,36.2082826 66.0347004,36.1522533 66.0347004,36.0937881 C66.0427813,35.7284128 66.0311781,35.3626683 66,35 C66,35 67.1649432,35 68.0440208,35.1388551 C68.6355806,35.2411693 69.0966007,35.4141291 68.982585,35.7113276 Z" id="Path" fill="#000000" opacity="0.1"></path>
            <path d="M69.9999544,34.499364 C69.9988606,35.2502587 69.6607738,35.9610353 69.0788597,36.4358268 C68.4969457,36.9106183 67.7326237,37.0993117 66.9965163,36.9499094 L66.9965163,36.9499094 C65.8669711,36.7172243 65.0429771,35.7426535 65.0016244,34.5904704 C64.9602716,33.4382872 65.7122805,32.407187 66.8222402,32.0941735 C67.9321999,31.78116 69.1123613,32.2673797 69.6794147,33.2713129 C69.8920397,33.6455195 70.0025768,34.069009 69.9999544,34.499364 Z" id="Path" fill="#D38884"></path>
            <path d="M69,38.5765247 C68.9837995,38.8342923 68.9756992,39 68.9756992,39 C68.9756992,39 65.4618017,38.6662831 66.0709421,37.8285386 C66.2279909,37.5972603 66.3396958,37.3116161 66.3949529,37 L67.9194239,37.3544304 C67.9194239,37.3544304 68.3503583,37.8285386 68.6840894,38.2750288 C68.7791266,38.395698 68.8854333,38.4971541 69,38.5765247 Z" id="Path" fill="#000000" opacity="0.1"></path>
            <path d="M71,51.9870138 C70.7949875,52.0140314 70.5865632,51.9987899 70.3877551,51.942242 C70.3016655,51.9150265 70.2188263,51.8785667 70.1407089,51.8335106 C69.7497315,51.6011238 68.4500537,51.8868103 68.4500537,51.8868103 C68.4500537,51.8868103 64.9097744,52.1191971 64.7529538,51.8868103 C64.6648765,51.752495 64.0397422,51.7716829 63.528464,51.8121907 C63.3136412,51.8292466 63.1310419,51.8505665 63,51.8633584 C63.0609253,51.5457494 63.1882608,51.2443426 63.3737916,50.978583 L65.7067669,50.8144198 L70.4006445,50 L70.8796992,51.4625445 L70.8796992,51.4625445 C70.9107452,51.6392924 70.9508981,51.8143451 71,51.9870138 L71,51.9870138 Z" id="Path" fill="#000000" opacity="0.1"></path>
            <path d="M67.6426291,37.3503549 L65.4788274,37 C65.4014525,37.1702199 65.2521923,37.2983194 65.0705975,37.3503549 C64.7831889,37.4153692 63.4962578,38.0727361 62.9196101,38.8601316 L62.3429625,39.649333 C62.3429625,39.649333 61.8761524,40.2182082 62.0317558,40.6769202 C62.1873591,41.1356323 62.36493,42.6905578 62.36493,42.6905578 L62.5864359,44.4188548 C62.5864359,44.4188548 63.0074803,45.6667683 62.8756751,46.213972 C62.7438699,46.7611758 62.9415777,49.058348 62.9415777,49.058348 L62.4985658,51.9027239 C62.4985658,51.9027239 64.0051722,51.705875 64.1461306,51.9027239 C64.2870889,52.0995728 67.2966405,51.9027239 67.2966405,51.9027239 C67.2966405,51.9027239 68.395017,51.6607262 68.7373444,51.8575751 C68.9611986,51.9766821 69.2175245,52.022831 69.4695954,51.9894096 C69.4695954,51.9894096 69.2041544,51.0864331 69.3579271,50.5897961 C69.5116998,50.093159 69.4695954,49.1667051 69.4695954,49.1667051 C69.4695954,49.1667051 69.6911013,47.8321059 69.579433,47.5919141 C69.4677648,47.3517224 69.8247371,46.4758352 69.8247371,46.4758352 L71,40.3717142 C71,40.3717142 70.8572111,39.2773067 70.2293058,38.9052804 C69.6014006,38.5332541 68.8929477,38.4230909 68.5158385,38.074542 C68.1387292,37.7259931 67.6426291,37.3503549 67.6426291,37.3503549 Z" id="Path" fill="#4C4981"></path>
            <path d="M69,42.4743864 L69,43.1669213 L69.6868706,44.9086466 L69.9354699,46.5239843 C69.9354699,46.5239843 70.3829486,47.6770549 70.3829486,48.0821878 C70.3829486,48.4873207 71.4749439,50.4108364 71.4749439,50.4108364 C71.4749439,50.4108364 71.773263,51.0618193 71.6241034,51.1864755 C71.4749439,51.3111318 70.1822277,54.0812715 71.8082511,53.9981673 C73.4342745,53.9150631 72.9241856,51.0202672 72.9241856,51.0202672 L72.701367,49.761585 C72.701367,49.761585 72.388316,46.6140138 72.388316,46.383746 C72.388316,46.383746 71.9868742,45.0419596 71.9426788,44.7476322 C71.8984834,44.4533049 71.6075302,42.9643549 71.6075302,42.9643549 L71.3626138,42 L69,42.4743864 Z" id="Path" fill="#D38884"></path>
            <polygon id="Path" fill="#000000" opacity="0.1" points="68 46 65.7108922 47.648688 65 49 65.9472769 47.7886297"></polygon>
            <path d="M67,48 C67,48 66.009901,48.7356538 65.5445545,48.7356538 C65.0792079,48.7356538 64,50 64,50 C64,50 65.529703,48.8711195 65.650165,48.9068674 C65.7706271,48.9426152 67,48 67,48 Z" id="Path" fill="#000000" opacity="0.1"></path>
            <path d="M64.9565626,49 C64.9565626,49 63.7377759,49.8969803 64.051673,49.9939035 C64.3655701,50.0908267 66,49 66,49 L64.9565626,49 Z" id="Path" fill="#000000" opacity="0.1"></path>
            <path d="M67.7132367,44 C67.7132367,44 66.7939074,45.0152864 67.0427167,44.9998252 C67.291526,44.984364 68,44.4054274 68,44.4054274 L67.7132367,44 Z" id="Path" fill="#000000" opacity="0.1"></path>
            <path d="M68,47 C68,47 66.9615008,47.7797204 67.0011046,47.97756 C67.0407084,48.1753995 68,47 68,47 Z" id="Path" fill="#000000" opacity="0.1"></path>
            <path d="M68.1901232,47 C68.1901232,47 67.6298685,47.8139576 67.8694743,47.9830544 C68.1090801,48.1521512 68.1901232,47 68.1901232,47 Z" id="Path" fill="#000000" opacity="0.1"></path>
            <path d="M68.0009031,43 C68.0009031,43 67.6449891,43.9111617 67.9047913,43.9726651 C68.1645935,44.0341686 68.1901232,43.9726651 68.1901232,43.9726651 L68.0009031,43 Z" id="Path" fill="#000000" opacity="0.1"></path>
            <path d="M68.1901232,41 C68.1233172,41.3428736 68.0316554,41.677567 67.9162553,42 C67.8732985,41.8356854 67.8377837,41.6685244 67.8098768,41.4992987 C67.9227765,41.3174648 68.0501684,41.1501875 68.1901232,41 L68.1901232,41 Z" id="Path" fill="#000000" opacity="0.1"></path>
            <path d="M70,33.2709674 C69.9535862,33.3658479 69.8928944,33.4539977 69.8197786,33.5327242 C69.6970207,33.6364731 69.5879775,33.7536458 69.4949839,33.8817333 C69.4217933,34.0731112 69.3823281,34.2743818 69.378137,34.4776477 C69.3424888,34.6781423 69.2078178,34.900914 68.9820459,34.9064833 C68.8709743,34.89769 68.7630663,34.8673449 68.6651731,34.8173746 C68.5656145,34.7689874 68.4463992,34.7725015 68.3502807,34.8266568 C68.2877661,34.8862663 68.2516747,34.9658692 68.2492774,35.0494285 C68.2219004,35.2239273 68.2112954,35.400378 68.2175901,35.576655 C68.2175901,35.6471994 68.2175901,35.7158873 68.2294729,35.7864317 C68.2848001,36.0082899 68.2703543,36.2404236 68.1878833,36.454747 C68.0845417,36.6099239 67.9281703,36.7277104 67.7442613,36.7889046 C67.5445598,36.8661244 67.3358256,36.9209598 67.1223983,36.9522705 L67.1223983,36.9522705 C66.7157765,36.9990521 66.3054918,37.0114783 65.8964964,36.9893992 C65.8587401,36.9903579 65.8211254,36.9846912 65.7855909,36.9726913 C65.7680882,36.9661668 65.7519862,36.9567333 65.73806,36.9448448 C65.7833511,36.7339082 65.8078797,36.5195182 65.8113368,36.304376 C65.0605107,35.6210886 64.8039742,34.5900041 65.154868,33.6658628 C65.5057617,32.7417214 66.3995735,32.0944274 67.4421048,32.0094575 C68.484636,31.9244875 69.4842164,32.4174633 70,33.2709674 Z" id="Path" fill="#000000" opacity="0.1"></path>
            <path d="M69.7178667,30.0038053 C69.4390436,29.9743081 69.1759605,30.1240632 68.9016345,30.1853267 C68.3372426,30.3101226 67.7593592,30.0514547 67.1792273,30.0537237 C66.6804881,30.082299 66.1953216,30.2283952 65.762626,30.4802989 C65.4126881,30.6471387 65.0933525,30.872706 64.8182252,31.1473898 C64.5418945,31.4265504 64.3811214,31.8013127 64.3685105,32.1956756 C64.4068548,32.4216661 64.3999739,32.6531161 64.3482734,32.8763807 C64.2899147,32.9889213 64.220618,33.0953316 64.1414046,33.1940431 C63.9961309,33.4294207 63.9607722,33.7173516 64.044716,33.9813919 C64.1609626,34.2398198 64.3181753,34.4773998 64.5101707,34.6847872 C64.8834338,35.1680878 65.1172855,35.7466871 65.4523229,36.2594849 C65.5984772,36.4821171 65.7624193,36.6923227 65.9425119,36.8880026 C65.9719633,36.9226882 66.0078682,36.9512107 66.0481949,36.9719562 C66.0878594,36.9860534 66.1298656,36.992219 66.1718664,36.9901083 C66.8824156,37.0105295 67.6176991,37.0264126 68.272034,36.7450545 C68.4816457,36.6717218 68.6596234,36.5274037 68.7757144,36.3366314 C68.8700977,36.0748975 68.8872804,35.791169 68.825183,35.5197854 C68.7953971,35.2175423 68.8021928,34.9127639 68.8454202,34.6121786 C68.8482599,34.5107406 68.8892626,34.414198 68.9600974,34.3421656 C69.069392,34.2737678 69.2065556,34.2694425 69.3198692,34.3308205 C69.4310269,34.3899062 69.5524031,34.4268812 69.6773923,34.4397333 C69.9224868,34.4397333 70.0776384,34.1583752 70.127107,33.9133214 C70.0720866,33.4647387 70.2644455,33.0216855 70.6285389,32.7583918 C70.9701563,32.320895 71.0845819,31.7452509 70.9365935,31.2086533 C70.7746962,30.6981245 70.28001,30.0605308 69.7178667,30.0038053 Z" id="Path" fill="#1E1637"></path>
            <path d="M69.9873054,40.3761244 C69.9455546,40.6669672 69.9455546,40.9634193 69.9873054,41.2542621 C69.9684994,41.489603 69.9873054,42.7874907 69.9873054,42.7874907 C69.3604381,42.573225 67.7666279,43 67.7666279,43 L67.5770005,42.362472 C67.4687618,42.205178 67.387948,42.0264302 67.338791,41.8355893 C67.2793072,41.629235 67.2301264,41.4193276 67.1914771,41.2068427 C67.108721,40.7652501 67.046473,40.3191414 67.0049841,39.870317 C66.9250585,39.1941509 67.823046,38.4652966 68.503197,38.0613532 C69.1833481,37.6574098 69.778872,39.3803161 69.778872,39.3803161 C69.778872,39.3803161 70.0625295,40.042432 69.9873054,40.3761244 Z" id="Path" fill="#000000" opacity="0.1"></path>
            <path d="M69.9873054,40.3781132 C69.9456885,40.6689422 69.9456885,40.965344 69.9873054,41.256173 C69.9684994,41.489737 69.9873054,42.7875095 69.9873054,42.7875095 C69.3604381,42.575019 67.7666279,43 67.7666279,43 L67.5770005,42.3625285 C67.4684401,42.2054762 67.3875938,42.0266726 67.338791,41.8356926 C67.2793041,41.6299521 67.2301228,41.4206476 67.1914771,41.2087578 C67.1088423,40.7671795 67.0465952,40.3211175 67.0049841,39.8723507 C66.9250585,39.1944884 67.823046,38.4674548 68.503197,38.0617911 C69.1833481,37.6561275 69.778872,39.3806371 69.778872,39.3806371 C69.778872,39.3806371 70.0625295,40.0374259 69.9873054,40.3781132 Z" id="Path" fill="#4C4981"></path>
            <path d="M70.9379511,32.3547571 C70.8909329,32.2297769 70.8232153,32.1104537 70.7366216,32 C70.7501943,32.0309275 70.7637671,32.0600358 70.7750778,32.0909634 C70.9239584,32.5212001 70.8088429,32.9827437 70.465166,33.3335228 C70.0988776,33.5446281 69.905359,33.8998622 69.9607112,34.2595298 C69.922255,34.4560106 69.766168,34.6725034 69.5082853,34.6797805 C69.3814162,34.6711632 69.2581609,34.6414256 69.1463445,34.5924556 C69.032626,34.5450371 68.8964552,34.5484809 68.786666,34.601552 C68.7152601,34.6599682 68.6740356,34.7379775 68.6712974,34.819864 C68.6276066,35.0608556 68.6207694,35.3052428 68.6509382,35.5475709 C68.6758216,35.7695215 68.7301127,36.0078455 68.6011713,36.2043263 C68.4819426,36.3555448 68.3037416,36.4707079 68.0944543,36.5317944 C67.4361747,36.7573835 66.6964583,36.7446486 65.9816254,36.7282752 C65.9392267,36.7293388 65.8969741,36.7237783 65.8572083,36.7119018 C65.8157,36.6964734 65.779281,36.673416 65.7508882,36.644589 C65.5678324,36.4889932 65.4027698,36.3203181 65.257744,36.140652 C64.9206867,35.7294976 64.6854252,35.2674037 64.3099117,34.8780806 C64.2081159,34.7725631 64.0836988,34.6688649 64,34.5578896 L64,34.5797208 C64.1153262,34.7876469 64.2736573,34.9783407 64.4682608,35.1436936 C64.8415122,35.5311975 65.0790358,35.9951106 65.4138309,36.406265 C65.5609327,36.5852183 65.7266635,36.7538029 65.9092373,36.910202 C65.9380365,36.9379615 65.9734074,36.9608422 66.0132952,36.9775148 C66.0532396,36.9886847 66.0954665,36.9936243 66.1377123,36.992069 C66.8525453,37.0084424 67.5945237,37.0211773 68.2505413,36.7955881 C68.4614167,36.7367909 68.6404674,36.6210786 68.7572583,36.46812 C68.8522105,36.2582653 68.8694969,36.0307756 68.8070251,35.8131839 C68.7793552,35.5707822 68.7861858,35.3266325 68.8273843,35.085477 C68.8321622,35.0044931 68.8731289,34.9276178 68.9427529,34.8689842 C69.0527064,34.8141438 69.1906969,34.8106758 69.3046936,34.8598879 C69.4165215,34.907262 69.5386294,34.9369081 69.6643722,34.9472127 C69.9132064,34.9472127 70.0670312,34.7216236 70.1167981,34.5251428 C70.1204701,34.3258566 70.1655816,34.1284694 70.2502637,33.941158 C70.355802,33.8152127 70.4804232,33.700322 70.621253,33.5991358 C70.9673353,33.248622 71.0849625,32.7864381 70.9379511,32.3547571 Z" id="Path" fill="#000000" opacity="0.2"></path>
            <path d="M87.6985358,31.8672719 L85.8471171,35.2704967 C85.8471171,35.2704967 85.5749757,35.9099916 85.3992623,36.0286225 C85.223549,36.1472535 84.445696,38.1676865 84.445696,38.1676865 L82.459278,40.8146392 L82.459278,40.8146392 L82.3242787,41 L81.5464257,40.8146392 L81,39.0500041 L81.0321427,38.5384082 L81.0321427,38.4735319 C81.0321427,38.4735319 82.2578505,37.3613669 82.5321347,37.2779545 C82.5321347,37.2779545 82.7464193,37.3001978 83.15356,36.43827 C83.5607007,35.5763421 83.9335558,35.3909813 83.9335558,35.3909813 L84.1478404,34.7681689 L86.4471139,31.6003523 C86.4471139,31.6003523 88.3756751,29.2110512 88.9006723,30.2713152 C89.4256695,31.3315791 87.6985358,31.8672719 87.6985358,31.8672719 Z" id="Path" fill="#FFD2C6"></path>
            <path d="M80.9943975,55.0350186 C80.9897015,55.095846 80.9736084,55.1546017 80.9473274,55.2068707 C80.7850167,55.4919891 79.8712074,61.2939517 79.8712074,61.2939517 C79.9442473,61.6845248 79.7381127,62.4656709 79.6050179,62.8210924 C79.4719231,63.1765139 79.1765176,65.0200187 79.1765176,65.0200187 C79.1765176,65.0200187 79.1034778,68.9960523 78.9135743,69.6170635 C78.7236707,70.2380746 78.9736292,71.5699287 78.9736292,71.5699287 C78.955775,72.1811756 79.2609192,72.8295268 79.4427072,73.1576082 L79.4784155,73.2200999 C79.5368474,73.3216489 79.5758019,73.3802348 79.5758019,73.3802348 C79.6258321,73.498736 79.6960722,73.6032095 79.7819365,73.6868347 L79.8241373,73.725892 C80.0749531,73.9275041 80.3553054,74.0699828 80.6502988,74.145758 L80.6795148,74.145758 C80.7963785,74.1770039 80.8742876,74.1906739 80.8742876,74.1906739 L80.9473274,74.6710788 L80.1666129,74.8663653 L78.6766006,74.9893958 C78.6766006,74.9893958 76.9203988,75.1514836 77.3196831,74.2082497 C77.3473265,74.1452852 77.3711929,74.0800233 77.3910998,74.0129632 L77.3910998,74.0129632 C77.4065692,73.9669393 77.420112,73.9200117 77.4316775,73.8723569 C77.6718973,72.9681803 77.5095866,71.8687171 77.5095866,71.8687171 L77.1703572,68.6582066 C76.6103853,65.6761814 77.6102193,62.3582633 77.6102193,62.3582633 C77.6102193,62.3582633 77.5241946,62.0926736 77.7157212,61.4189351 C77.9072479,60.7451966 77.7157212,59.2707833 77.7157212,59.2707833 C77.7157212,59.2707833 77.6134655,57.3725983 77.4803707,56.4332701 C77.4279158,56.0375678 77.4099642,55.6363546 77.4268082,55.2361637 C77.433225,55.0020576 77.4511102,54.7686105 77.4803707,54.5370379 L80.8418255,54 C80.8418255,54 81.0349752,54.6581156 80.9943975,55.0350186 Z" id="Path" fill="#FFD2C6"></path>
            <path d="M81,74.6581593 L80.1529394,74.8611163 L78.5363038,74.9889793 C78.5363038,74.9889793 76.6308576,75.1574337 77.0640737,74.177151 C77.0940663,74.1117134 77.1199609,74.0438881 77.1415595,73.9741939 L77.1415595,73.9741939 C77.1583434,73.9263623 77.1730372,73.8775915 77.1855855,73.8280649 C77.5157535,73.8406097 77.8418434,73.9160466 78.1506359,74.0513176 C78.6930365,74.2928365 79.101598,73.6636696 79.101598,73.6636696 L79.3657541,73.0832124 L79.404497,73 C79.4678945,73.1055377 79.5101594,73.1664248 79.5101594,73.1664248 C79.5740576,73.3090421 79.6663985,73.4321569 79.7795987,73.5256588 L79.7338116,73.6332261 L79.4784607,74.2542747 C79.4784607,74.2542747 79.8060143,74.2928365 80.2533187,74.3760489 C80.4329769,74.4295788 80.6178555,74.3132783 80.6759685,74.1101752 L80.7076672,74.1101752 C80.8344622,74.1426483 80.9189921,74.1568553 80.9189921,74.1568553 L81,74.6581593 Z" id="Path" fill="#000000" opacity="0.1"></path>
            <path d="M81.9873768,75.1343887 C81.9231412,75.4945119 80.1156231,75.6043056 80.1156231,75.6043056 C80.1156231,75.6043056 79.1092655,75.4857284 78.8273426,75.7733878 C78.5454197,76.0610472 77.71571,75.9929751 77.6835922,75.9929751 C77.6514744,75.9929751 77.2143155,75.9732123 77.0430206,75.0070281 C76.8717257,74.0408439 77.2660609,73.9090915 77.2839041,73.8937204 L77.2839041,73.8937204 C77.6337361,73.899973 77.9798975,73.9824971 78.3063206,74.1374623 C78.8558918,74.3987712 79.2698545,73.7180505 79.2698545,73.7180505 L79.5767578,73 C79.6409934,73.1141854 79.6838171,73.1800616 79.6838171,73.1800616 C79.7485601,73.3343649 79.8421217,73.4675678 79.9568184,73.5687312 L79.6516994,74.3570496 C79.6516994,74.3570496 79.9835832,74.3987712 80.436801,74.4866061 C80.5467959,74.5175886 80.6622835,74.4862224 80.751465,74.4011441 C80.8406465,74.3160658 80.8941178,74.1862466 80.8971561,74.0474315 C80.8980564,74.0276842 80.8980564,74.0078903 80.8971561,73.9881429 C80.8971561,73.9881429 81.179079,74.0891531 81.5288061,74.2077302 C81.854136,74.3229924 82.0534588,74.7257747 81.9873768,75.1343887 L81.9873768,75.1343887 Z" id="Path" fill="#626696"></path>
            <path d="M84.9317273,59.61744 C84.8901251,59.8948002 84.8467894,60.6140238 84.8467894,60.6140238 C84.9941307,61.2165649 84.6162435,62.6473609 84.6162435,62.6473609 L84.4272999,63.4641388 C84.5105044,64.5066305 83.9072717,67.0564313 83.9072717,67.0564313 C83.9072717,67.0564313 83.5033831,69.4206878 83.2936383,70.4402255 C83.1681452,71.0070073 83.2063273,71.6028991 83.4028443,72.144556 L83.4184451,72.1866383 C83.4184451,72.2057666 83.4271122,72.2248948 83.4305791,72.2440231 C83.4368371,72.2720576 83.4449481,72.2995484 83.4548471,72.3262748 C83.5018054,72.4666551 83.571724,72.5963272 83.661125,72.7088405 C83.6955508,72.7547825 83.7332267,72.7976369 83.7737978,72.8370001 L83.7737978,72.8370001 C83.9713845,73.0301763 84.1977535,73.1841963 84.4429008,73.2922533 L84.4429008,73.2922533 L84.5486399,73.3381612 C84.6582168,73.3829922 84.7698945,73.4213039 84.8831914,73.452931 L84.8831914,73.452931 L84.9213268,73.452931 L84.8363888,74 L83.7235284,73.6843832 L82.2327807,73.150704 L81.5099414,72.7031021 C81.5099414,72.7031021 81.5099414,72.659107 81.532476,72.5749425 C81.5333235,72.5698845 81.5333235,72.5646979 81.532476,72.5596399 C81.532476,72.5232961 81.5463434,72.4812139 81.5550105,72.4314804 C81.6694167,71.7141695 81.9536989,69.7076121 81.8115578,68.2232569 C81.638215,66.3926797 82.3315861,63.8658328 82.4927948,63.2652046 C82.5929983,62.92076 82.6358696,62.5591435 82.619335,62.1978461 C82.3454535,61.7578955 82.2830501,59.9961801 82.2830501,59.9961801 C82.2830501,59.9961801 81.7786227,58.8599598 81.3626001,57.6548776 C81.2239631,57.2615326 81.1234422,56.8531004 81.0627171,56.4364057 C81.0134522,56.1432038 80.9931103,55.8449763 81.0020471,55.5469403 C81.0020471,55.5469403 84.3839642,52.1401921 84.7549177,55.437909 C84.7670517,55.5507659 84.7791857,55.6559715 84.7913197,55.7611771 C85.1206709,58.7930108 84.9715962,59.3477311 84.9317273,59.61744 Z" id="Path" fill="#FFD2C6"></path>
            <path d="M85,73.4029228 L84.9255319,74 L83.949848,73.6555324 L82.6428571,73.0730689 L82,72.5678497 C82,72.5678497 82,72.519833 82.0197568,72.4279749 C82.0204999,72.4224546 82.0204999,72.4167939 82.0197568,72.4112735 C82.0197568,72.3716075 82.0319149,72.3256785 82.0395137,72.2713987 L82.1306991,72.2713987 L82.1306991,72.2713987 C82.3163787,72.2466449 82.5037029,72.2816699 82.6778116,72.3736952 C82.8905775,72.4822547 83.1702128,72.6075157 83.2264438,72.5553236 C83.3251531,72.4972946 83.4323278,72.4715659 83.5395137,72.480167 L83.674772,72.0626305 L83.6960486,72 C83.7368687,72.1534415 83.7982054,72.2950514 83.8768997,72.4175365 C83.9095063,72.4699801 83.9445329,72.5194907 83.9817629,72.565762 L83.9817629,72.7098121 L83.9741641,72.9185804 C84.1201556,73.0462766 84.2781476,73.1460134 84.443769,73.2150313 C84.4866805,73.229706 84.5315566,73.229706 84.5744681,73.2150313 L84.5744681,73.2150313 L84.6671733,73.2651357 C84.7632433,73.3140648 84.861155,73.3558785 84.9604863,73.3903967 L84.9604863,73.3903967 L85,73.4029228 Z" id="Path" fill="#000000" opacity="0.1"></path>
            <path d="M85.3201823,73.9666718 C84.9749611,73.8835041 84.1418015,73.7481527 84.0067988,73.85252 C83.8717961,73.9568873 82.7165587,73.85252 82.7165587,73.85252 C82.4704519,73.8492727 82.2443328,73.7372779 82.1206182,73.5573562 C81.8795419,73.2409927 82.0743315,72.2185191 82.0743315,72.2185191 L82.1591904,72.2185191 L82.3019075,72.2054732 L82.3019075,72.2054732 C82.5373773,72.1862129 82.7749315,72.2129948 82.9962071,72.2837487 C83.2662126,72.3701779 83.6210768,72.4680222 83.6924354,72.4272537 C83.8173534,72.38084 83.9535168,72.3601607 84.0897291,72.3669164 L84.2825901,72 C84.3348358,72.1196781 84.4126272,72.2302272 84.5120947,72.3261479 C84.5529927,72.3669754 84.5974771,72.4051344 84.6451688,72.4402996 L84.6278113,72.7126331 C84.8132792,72.8124749 85.0137015,72.8909015 85.2237518,72.9458289 C85.3284024,72.9794083 85.4466221,72.947664 85.5091861,72.8691841 C85.5180847,72.8563281 85.5252032,72.8426486 85.5304008,72.8284156 L85.5304008,72.8284156 C85.6865331,72.8906684 85.8510251,72.9366655 86.0202678,72.9653977 L86.0202678,72.9653977 C86.4687821,72.9258282 86.8820453,73.1746261 86.9845728,73.545941 C87.1677908,74.0009173 85.6654035,74.0498395 85.3201823,73.9666718 Z" id="Path" fill="#626696"></path>
            <path d="M80.9936791,54.796851 L80.7919047,54.8479697 C80.633428,54.887779 80.471016,54.9159533 80.3065554,54.9321653 C79.2631454,55.0539482 77.5453362,54.9802771 77,54.9517107 C77.0071865,54.7714747 77.0272169,54.5917459 77.059987,54.4134604 L80.8246248,54 C80.8246248,54 81.0391238,54.5066769 80.9936791,54.796851 Z" id="Path" fill="#000000" opacity="0.1"></path>
            <path d="M84,54.9659303 C84,54.9659303 82.5472414,55.2127675 81.3640077,55.495166 C80.9702337,55.5892989 80.5993979,55.6897072 80.333696,55.7838401 C80.1668878,55.8390112 79.9961729,55.8788938 79.823319,55.903075 C78.5062786,56.1122591 76.1665727,55.9177179 76.1665727,55.9177179 C75.5243005,53.6376113 76.9464747,50.7655137 76.9464747,50.7655137 C76.9139788,50.5375031 77.242761,49.8367364 77.242761,49.8367364 L77.242761,49.8137261 L77.4453826,49 L82.8454392,49 L82.9123426,49.3493374 L83.0499723,50.0605633 L83.8986892,54.4680721 L84,54.9659303 Z" id="Path" fill="#626696"></path>
            <path d="M85,55.4441472 L84.968867,55.4551387 L84.3626902,55.6859589 C83.7070668,55.9450428 81.7456909,56 81.06626,56 C81.0142121,55.7593161 80.9927211,55.5145066 81.0021628,55.2698544 C81.0021628,55.2698544 84.5751268,52.4733184 84.9670357,55.1803527 C84.9743611,55.2714246 84.9871805,55.3640668 85,55.4441472 Z" id="Path" fill="#000000" opacity="0.1"></path>
            <path d="M86,56.2890919 L85.8620297,56.3473939 L85.2001719,56.6238581 C84.4723284,56.9398173 82.2608038,57 81.552956,57 L81.366996,57 C81.041066,56.9905965 80.7131365,56.7028479 80.7131365,56.6238581 C80.7131365,56.5824825 80.6791438,56.3793659 80.6511499,56.2063407 C80.6251554,56.0671682 80.6051597,55.9468028 80.6051597,55.9468028 C79.8460171,55.639434 79.1109987,55.2818297 78.4056326,54.8766792 C77.8517516,54.5212251 77.9917216,51.9954326 78.0976988,50.7259538 C78.1356906,50.2877485 78.1696833,50 78.1696833,50 L83.8884539,50.3140785 L84.688282,50.3573348 L85.1461835,50.4532509 L85.2681573,50.4777002 C85.2681573,50.4777002 85.5980864,52.7345513 85.7600516,52.9226222 C85.9220168,53.1106932 85.8160395,53.7426115 85.7960438,54.1037077 C85.7957747,54.2586811 85.7776732,54.413172 85.7420555,54.5644815 C85.7420555,54.5644815 85.9780047,55.1963998 85.9240163,55.5499731 C85.8992774,55.7986489 85.9250637,56.049481 86,56.2890919 L86,56.2890919 Z" id="Path" fill="#626696"></path>
            <circle id="Oval" fill="#FFD2C6" cx="80" cy="36" r="2"></circle>
            <path d="M78.6006642,35.0076082 C78.6006642,35.0076082 78.7351598,37.6182893 78.3582399,38.2180404 C77.9275094,38.8288008 77.4741207,39.4066345 77,39.9490866 L77.3022001,41.7224681 L79.007472,42 L81,38.9871329 L80.5466999,38.2086325 C80.5466999,38.2086325 80.1996679,36.5410894 80.4852636,35.7084938 C80.7708593,34.8758982 78.6006642,35.0076082 78.6006642,35.0076082 Z" id="Path" fill="#FFD2C6"></path>
            <path d="M83,40.7910864 L83,40.7910864 L82.907489,41 L82.3744493,40.7910864 L82,38.8022284 L82.0220264,38.2256267 L82.1321586,38 C82.1321586,38 82.7195301,38.0188022 82.6945668,38.7792479 C82.6696035,39.4435933 82.9368576,40.5383008 83,40.7910864 Z" id="Path" fill="#000000" opacity="0.1"></path>
            <path d="M86,50.7358966 C86,50.7358966 85.368306,50.8527636 84.6448087,50.9312836 C83.9213115,51.0098036 83.0863388,51.0518026 82.7431694,50.8838064 C82.168306,50.5989432 79.0535519,50.6811152 78.1530055,50.710332 L78,50.710332 L78.231694,50 L84.4065574,50 L84.4830601,50.3049497 L85.357377,50.3469488 L85.8579235,50.4400771 C85.9497268,50.6190297 86,50.7358966 86,50.7358966 Z" id="Path" fill="#000000" opacity="0.1"></path>
            <path d="M82.4266341,39 C82.4266341,39 83.1345752,39.0165528 83.1027178,39.6860216 C83.0708605,40.3554905 83.4885457,41.5068297 83.4885457,41.5068297 L83.3274891,41.8912226 C83.3274891,41.8912226 83.1027178,42.8273754 83.2797031,43.0609538 C83.4566884,43.2945322 84.0991449,43.2945322 83.7292457,45.2164963 C83.7292457,45.2164963 83.6496023,46.6547508 83.8425163,47.1219077 C84.0354302,47.5890645 84.0354302,48.7091373 84.3239162,49.1781334 C84.5873134,49.677382 84.8133422,50.1969579 85,50.7322575 C85,50.7322575 82.9098039,51.2159671 82.3629194,50.8830719 C81.8160349,50.5501766 78.4550845,50.7157047 78.4550845,50.7157047 C78.4550845,50.7157047 78.4710131,50.130839 78.4550845,50.0627886 C78.4235507,49.9158239 78.4524144,49.7618511 78.5347278,49.6379334 C78.6479984,49.477923 78.8249837,49.211239 78.7276418,48.9776606 C78.6302999,48.7440821 78.9683418,48.3983125 78.7913565,48.0359901 C78.6143712,47.6736677 78.400219,47.6019389 78.4373859,47.4033053 C78.4566134,47.1732018 78.3850703,46.9448523 78.2391624,46.7706204 C78.111733,46.6032532 77.2427353,44.8376211 77.2427353,44.8376211 L77.0976074,44.0136595 C77.0976074,44.0136595 75.9790604,43.1621098 76.0002987,42.7611642 C76.0215369,42.3602186 76.4232935,41.802941 76.4232935,41.802941 L77.499364,40.6994209 C77.499364,40.6994209 78.0958043,41.3670505 78.6745462,41.1334721 C79.2532881,40.8998937 80.4974946,39.7798208 80.4974946,39.7798208 C80.4974946,39.7798208 80.9417276,39.5296896 80.9735849,39.3457696 C81.0054423,39.1618496 81.2797695,39.3292168 81.2797695,39.3292168 C81.2797695,39.3292168 81.6815261,39.0993168 81.7611694,39.1802416 C81.8975476,39.2541448 82.0446021,39.3044624 82.1965532,39.3292168 L82.4266341,39 Z" id="Path" fill="#FFCDE5"></path>
            <path d="M75.9610021,42 L75.5670402,42.2694902 C75.2676348,42.8196885 75.0989362,43.4166452 75.0710157,44.0247222 C74.9666062,44.939114 74.7996084,45.8472953 74.5709086,46.7444454 L73.7911499,47.9553782 C73.7911499,47.9553782 72.5112841,50.2903687 72.3439013,50.9109052 C72.1765186,51.5314418 71.4171723,52.5792622 71.4171723,52.5792622 C71.4171723,52.5792622 68.8390695,54.5915736 70.6374136,54.9550308 C72.4357577,55.3184879 72.4929128,53.3593653 72.4929128,53.3593653 C72.4929128,53.3593653 72.9011635,52.956903 72.9807723,52.6820939 C73.0603812,52.4072849 75.3302548,48.9039127 75.3302548,48.9039127 C75.3302548,48.9039127 76.1283849,47.9606971 75.9610021,47.4607219 C75.9610021,47.4607219 77,45.3331679 77,44.8012794 C76.9806521,44.356322 76.9247153,43.9131345 76.8326172,43.4751041 L77,42.3634571 L75.9610021,42 Z" id="Path" fill="#FFD2C6"></path>
            <path d="M81,47 C81,47 79.3587174,47.9427363 79.0396815,47.9933123 C78.7206457,48.0438882 80.4301614,47.7910083 80.4301614,47.7910083 L81,47 Z" id="Path" fill="#000000" opacity="0.1"></path>
            <path d="M82,47 C82,47 79.9158824,48.0546982 79,47.8648526 C79,47.8595791 81.28,48.5108552 82,47 Z" id="Path" fill="#000000" opacity="0.1"></path>
            <path d="M81.9911116,48 C81.9911116,48 80.1079502,48.9022622 79,48.7552568 C79,48.7552568 81.5893469,49.1477206 81.9911116,48.9386763 L80.8336045,48.6945665 C80.8336045,48.6945665 82.1185436,48.1753275 81.9911116,48 Z" id="Path" fill="#000000" opacity="0.1"></path>
            <path d="M79.9514475,31.0567777 C79.3916616,30.9214346 78.7996738,31.0306891 78.3279749,31.356398 C77.9996727,31.6099229 77.7868174,31.9981883 77.4116148,32.1878888 C77.2167524,32.2696639 77.0167069,32.338952 76.8127338,32.3953182 C76.0733443,32.6925663 75.6372039,33.4487588 75.7574766,34.2249525 C75.8152001,34.5440747 75.9667242,34.8383764 76.0424863,35.1539528 C76.1759718,35.7159626 76.0569171,36.3045658 75.9126084,36.8648027 C75.5088499,38.4181832 74.896152,39.9117163 74.0907114,41.3059207 C74.027272,41.3923366 73.9954808,41.4973219 74.0005185,41.6037681 C74.0208287,41.6752992 74.0593146,41.7405786 74.1123577,41.7934685 C74.8699783,42.6533257 76.096602,42.9494003 77.2600907,42.9884041 C77.6871965,43.0299058 78.1178697,42.9595627 78.5083608,42.7845204 C78.7495482,42.6481104 78.957121,42.4610503 79.1162611,42.2366939 C79.5187989,41.6953637 79.7188705,41.0340587 79.6826726,40.36451 C79.652007,39.8237751 79.4680135,39.2777215 79.6069106,38.7547155 C79.6207029,38.6816764 79.6543638,38.6136718 79.7043189,38.5579235 C79.8287852,38.4320475 80.0362289,38.4657326 80.213007,38.4444578 C80.6946372,38.3894979 81.0049009,37.8913126 81.0626243,37.4179479 C81.1203478,36.9445832 80.9994893,36.4694456 80.9958816,35.9996268 C80.9940218,35.3705841 81.1941262,34.7569975 81.5677047,34.2462273 C81.7282481,34.0299333 81.9284764,33.8171852 81.9861999,33.5459312 C82.0547465,33.2055342 81.8545182,32.9555551 81.6813478,32.687847 C81.4125729,32.2694422 81.2808912,31.7818944 80.8714153,31.4627721 C80.6011747,31.2587722 80.2861244,31.1197362 79.9514475,31.0567777 Z" id="Path" fill="#000000" opacity="0.1"></path>
            <path d="M79.9438637,31.0557519 C79.3872352,30.9220628 78.7990178,31.0314188 78.330421,31.3557084 C78.0019572,31.6112927 77.7889972,31.9999938 77.4118054,32.1899071 C77.2164993,32.2703939 77.0164063,32.3391494 76.8126298,32.3957944 C76.0743531,32.6930542 75.6383127,33.4480832 75.7568535,34.2239318 C75.8146053,34.5434121 75.966204,34.838044 76.0420033,35.1539745 C76.1755545,35.7166149 76.058246,36.3058786 75.9120616,36.8667441 C75.5083048,38.4188446 74.8959124,39.9110693 74.0910731,41.3039708 C74.0262534,41.3898254 73.9943001,41.4954125 74.0008358,41.6021525 C74.0193793,41.6740888 74.0574284,41.7397265 74.1109253,41.7920658 C74.8689186,42.6546626 76.0961457,42.9492945 77.2602067,42.9883421 C77.6873432,43.0298527 78.1180656,42.9600694 78.5090908,42.7860046 C78.7500943,42.6482751 78.9576512,42.4605058 79.1172901,42.2357884 C79.5192508,41.6935533 79.7187626,41.0315749 79.6821756,40.3615039 C79.6496901,39.8290366 79.4656061,39.2734959 79.6045715,38.7499031 C79.6198748,38.6772777 79.6533732,38.609559 79.7020278,38.5528902 C79.82836,38.426873 80.034101,38.4605959 80.2127708,38.4410721 C80.6928332,38.3860505 81.0032495,37.8855313 81.0610013,37.4134104 C81.1187532,36.9412895 80.9978352,36.4638439 80.9960305,35.9934978 C80.993314,35.3641671 81.1936179,34.7502034 81.5681349,34.2399058 C81.7269525,34.0215943 81.9290841,33.8086074 81.9868359,33.5299495 C82.0536115,33.1891705 81.8532847,32.9406858 81.6800291,32.6709024 C81.411122,32.2538031 81.2793756,31.7639333 80.8696983,31.444453 C80.5960459,31.2458009 80.2790256,31.1127036 79.9438637,31.0557519 Z" id="Path" fill="#985C7E"></path>
            <path d="M79,51 C79,51 79.3752013,53.3597693 80,54 L79,51 Z" id="Path" fill="#000000" opacity="0.1"></path>
            <g id="Group" opacity="0.1" transform="translate(74.000000, 33.000000)" fill="#000000">
                <path d="M1.94608696,1.91362069 C1.92521739,1.83396552 1.90086957,1.75241379 1.87478261,1.67275862 C1.9026087,1.75431034 1.92,1.82637931 1.94608696,1.91362069 Z" id="Path"></path>
                <path d="M7.71130435,0.119482759 C7.71857925,0.182452254 7.71857925,0.246168435 7.71130435,0.309137931 C7.65913043,0.599310345 7.4626087,0.826896552 7.30782609,1.05827586 C6.9479735,1.60484577 6.75508361,2.26111045 6.75652174,2.93396552 C6.75652174,3.44413793 6.87478261,3.95241379 6.81913043,4.4512069 C6.76347826,4.95 6.47130435,5.49051724 6.00173913,5.54741379 C5.82782609,5.57017241 5.63130435,5.53413793 5.51130435,5.6687931 C5.46391588,5.72923735 5.43104655,5.80157821 5.41565217,5.87931034 C5.28173913,6.4387931 5.46086957,7.01724138 5.49043478,7.60137931 C5.52278075,8.317872 5.32744133,9.02459265 4.9373913,9.60224138 C4.78444381,9.8427049 4.58421524,10.0429155 4.35130435,10.1882759 C3.97547074,10.3756298 3.56078421,10.4508912 3.14956522,10.4063793 C2.05217391,10.3665517 0.888695652,10.0574138 0.151304348,9.17172414 C0.131754149,9.22461213 0.125743092,9.28229755 0.133913043,9.33862069 C0.151782342,9.41548796 0.18844805,9.48562485 0.24,9.54155172 C0.970434783,10.4632759 2.15304348,10.7781034 3.27478261,10.8198276 C3.68638963,10.8641836 4.10145218,10.7896169 4.47826087,10.6036207 C4.71050216,10.4564505 4.91051293,10.2558104 5.06434783,10.0156897 C5.45169435,9.4362867 5.64395252,8.72893249 5.60869565,8.01293103 C5.5773913,7.44396552 5.4,6.85034483 5.53391304,6.29086207 C5.54865997,6.21325855 5.58094044,6.14089805 5.62782609,6.08034483 C5.74956522,5.94568966 5.94782609,5.98172414 6.12,5.96086207 C6.5826087,5.90206897 6.88173913,5.36724138 6.9373913,4.86275862 C6.99304348,4.35827586 6.87652174,3.84810345 6.87478261,3.34551724 C6.87216489,2.67304858 7.06518631,2.01700039 7.42608696,1.47172414 C7.57913043,1.23844828 7.77391304,1.01086207 7.82956522,0.713103448 C7.85840617,0.50610401 7.81630486,0.294772815 7.71130435,0.119482759 L7.71130435,0.119482759 Z" id="Path"></path>
            </g>
            <ellipse id="Oval" fill="#00EFAB" opacity="0.1" cx="34" cy="68.5" rx="4" ry="1"></ellipse>
            <path d="M36.6009447,62 C36.6009447,62 32.4826017,64.9019882 34.6104122,68.30867 C34.7332715,68.7442332 35.0475892,69.0226278 35.3893162,68.9985536 C35.3893162,68.9985536 35.2729283,68.7116109 35.7160978,68.4816497 C35.8740595,68.3988346 36.0243118,68.2909102 36.1637438,68.160111 C36.3510498,67.9836258 36.4909489,67.7285116 36.5621487,67.4335964 L36.5621487,67.4335964 C36.5621487,67.4335964 37.4052153,65.89713 36.7516522,63.0541584 C36.7516522,63.0541584 36.8367049,62.2401365 36.7620972,62.1200682 L36.2622259,63.0541584 C36.2622259,63.0541584 36.7800031,63.5283262 36.8396892,64.2243149 C36.8396892,64.2243149 36.3010219,63.0561935 36.1831418,63.1905071 C36.1592673,63.2169628 35.9354443,63.7013059 35.9354443,63.7013059 C35.9354443,63.7013059 36.8307363,64.5316082 36.8978832,65.6081522 C36.8978832,65.6081522 36.3935354,64.1001766 35.8533759,63.8844608 L35.5459923,64.6435362 C35.5459923,64.6435362 36.5248449,65.4575582 36.6352642,66.6785911 C36.6352642,66.6785911 36.0667538,65.1278793 35.4863062,64.8165159 L35.2580067,65.6183275 C35.2580067,65.6183275 36.2010476,66.4323495 36.2875925,67.4498769 C36.2875925,67.4498769 35.4982434,65.748571 35.2147343,65.8035175 C35.2147343,65.8035175 35.037168,66.5564878 35.065519,66.7884841 C35.065519,66.7884841 35.7340036,67.3990005 35.7459409,67.9952716 C35.7459409,67.9952716 35.1296816,66.932973 35.0341837,67.0041999 C35.0341837,67.0041999 34.9953878,68.0705686 35.1833991,68.6322438 C34.9894886,68.1315005 34.8953309,67.5701198 34.910335,67.0041999 C34.7194496,67.2341453 34.5824413,67.5356646 34.5164066,67.8711332 C34.5164066,67.8711332 34.3388403,67.2830024 34.9222722,66.7457479 C34.9222722,66.7457479 34.9774819,65.9154455 35.0446288,65.8136928 C35.0446288,65.8136928 34.413448,66.2329141 34.1493369,66.749818 C34.1493369,66.749818 34.247819,65.9805673 35.1043149,65.597977 L35.3221693,64.783955 C35.3221693,64.783955 34.4656733,65.2784734 34.2000701,65.7139751 C34.2000701,65.7139751 34.3910657,64.9508295 35.3937927,64.5845197 L35.6922233,63.8356195 C35.6922233,63.8356195 34.9312252,64.1856489 34.559679,64.5845197 C34.559679,64.5845197 34.8476646,63.9271969 35.7832447,63.6260088 L36.0249735,63.1559112 C36.0249735,63.1559112 35.4713847,63.4265734 35.3176929,63.522221 C35.1640011,63.6178686 35.1326659,63.5710623 35.1326659,63.5710623 C35.4147348,63.2455541 35.7579164,63.0340884 36.1234556,62.9605459 C36.1234556,62.9605459 36.6382485,62.0508764 36.6009447,62 Z" id="Path" fill="#00EFAB"></path>
            <path d="M40.3000169,66.6868097 C40.8253758,66.9954016 41.6470443,67.1957156 42.6814014,66.5334161 L42.6704943,67.9969717 C42.7450262,69.0021511 43.9938897,72.6583333 43.9938897,72.6583333 L44.8755473,75.6684576 C45.5079254,77.7940056 45.8347303,79.9975664 45.8462796,82.2138538 C45.8236909,82.9116129 45.9189294,83.6082031 46.1280465,84.2747422 C46.597052,85.5379839 45.9462614,87.1621517 45.659041,87.7630937 C45.1355,87.9435568 44.5955983,88.0789041 44.2047604,88.1691357 C44.1602668,88.1793754 44.1165352,88.1926406 44.0738751,88.2088376 L44.0738751,88.1998144 C44.0738751,88.1998144 42.7504798,88.7213527 42.1614961,88.6491675 C41.7233941,88.5950286 41.4488986,89.1382225 41.797926,89.5370459 C41.5126233,89.6242613 41.2145945,89.6633028 40.9162683,89.6525423 C40.3272847,89.580357 40.0346107,90.5855364 41.1362283,90.8724728 C42.2378458,91.1594091 48.4912525,90.8724728 48.4912525,90.8724728 C48.8533634,90.6928553 49.0470673,90.2926732 48.9620759,89.8997767 C49.4419885,89.8817304 49.7419339,89.8672934 49.7419339,89.8672934 C49.7419339,89.8672934 50.8453693,89.365606 49.7419339,88.0031096 L49.6837626,88.0482254 L49.447442,87.3588564 L49.447442,86.4258623 C49.447442,86.4258623 50.8453693,79.748728 50.4036316,78.9691275 C49.9618938,78.1895269 49.7419339,74.1652 49.7419339,74.1652 L49.8891798,69.7907748 C50.2872891,68.973277 50.4927062,67.6937937 50.5963237,66.6922236 C50.7461241,66.214159 50.8406542,65.7207284 50.8780906,65.2214494 C50.8944513,64.9868474 50.9089941,64.739613 50.9180833,64.4833554 C50.9239211,63.9218861 50.8335589,63.363518 50.6508593,62.8321181 C51.1481748,62.0960045 51.7050669,61.4013306 52.3160106,60.754988 C52.8315777,60.2791763 53.0789119,59.582368 52.9777083,58.8908043 L52.6141381,56.4527479 L51.7306626,52.3020969 C51.8415515,51.1471332 51.5997774,50.483029 51.3307355,50.1076658 C51.3943602,49.7359118 51.4543493,49.3623532 51.4997956,48.9887946 C51.695169,47.3619266 51.6078569,45.7138396 51.2416608,44.1162912 C51.1144112,43.5586603 50.9398975,42.9865923 50.5472418,42.5643087 C50.1000505,42.0860815 49.3765459,41.7937313 49.2111214,41.1675244 C49.1855911,41.0088469 49.1516102,40.8516237 49.1093218,40.6965157 C48.9475331,40.2850599 48.436717,40.1370801 47.9895257,40.0829412 C47.1933071,39.9872958 46.0426075,39.9133059 45.2772924,40.2237024 C44.7446621,40.4420628 44.0047968,41.037591 43.7157585,41.6782349 C43.5415061,41.9450022 43.4764795,42.2677708 43.5339735,42.5805504 C43.561834,42.687612 43.6046668,42.7902707 43.661223,42.885533 C43.5431141,43.1927674 43.4815419,43.5185606 43.4794379,43.8474012 C43.4854092,44.9972868 44.1992056,46.0265541 45.2791102,46.4424604 C45.2954709,46.4965994 45.3118315,46.5507383 45.3263743,46.6048772 C45.3595636,46.7329176 45.3832591,46.8631997 45.3972705,46.9946775 C45.3845455,47.2491305 45.3681849,47.5035834 45.3554599,47.7562317 C45.348529,47.7910481 45.3394221,47.8254024 45.3281922,47.8590957 C44.6950963,48.137385 44.0779113,48.4500591 43.4794379,48.7956991 C43.9211757,49.4399523 43.4067239,52.164945 43.4067239,52.164945 C42.3032885,52.8110028 41.199853,54.4604355 42.3760025,56.1802487 C43.552152,57.9000619 42.8904543,59.7443947 42.8904543,59.7443947 L42.7086692,62.5487911 L42.7086692,62.5487911 L42.7086692,62.5487911 L42.6723122,63.1082266 L42.686855,63.1082266 L42.6723122,63.3211731 L42.7032156,63.3211731 L42.7032156,63.5503612 C42.1851282,63.7308243 41.4307201,64.1170153 40.981711,64.8136028 C40.7682856,65.1592643 40.5090434,65.4748907 40.2109422,65.7520109 C40.0628751,65.870656 39.9846058,66.0551049 40.0025255,66.2431644 C40.0204453,66.4312238 40.1321659,66.5978314 40.3000169,66.6868097 L40.3000169,66.6868097 Z M49.180218,59.2372934 C49.1360359,58.7525651 49.2265746,58.265089 49.4419885,57.8278767 C49.6146843,57.8278767 49.789198,57.8278767 49.9618938,57.8278767 C49.9800723,57.9487869 50.0000687,58.0642833 50.0255186,58.1689519 C50.1745824,58.8077912 49.5783273,59.1091646 49.180218,59.2372934 Z" id="Shape" fill="url(#linearGradient-1)" fill-rule="nonzero"></path>
            <path d="M50.6774003,87.5591398 L51,88.3960573 L49.9577548,89.3028674 L46.4960118,90 L44,89.7903226 L44.1612999,89.0232975 L44.1612999,89.0232975 C44.2580358,88.6871024 44.5639042,88.4261847 44.9533235,88.3476703 C45.9872969,88.1379928 47.9353028,87.6630824 48.3468242,87 L50.6774003,87.5591398 Z" id="Path" fill="#DB8B8B"></path>
            <path d="M50.6774003,87.5591398 L51,88.3960573 L49.9577548,89.3028674 L46.4960118,90 L44,89.7903226 L44.1612999,89.0232975 L44.1612999,89.0232975 C44.2580358,88.6871024 44.5639042,88.4261847 44.9533235,88.3476703 C45.9872969,88.1379928 47.9353028,87.6630824 48.3468242,87 L50.6774003,87.5591398 Z" id="Path" fill="#000000" opacity="0.1"></path>
            <path d="M45.2689105,89.4414063 L45.6805918,88.8641036 L45.2689105,88.1979852 C45.2689105,88.1979852 44.037385,88.719778 43.4884765,88.6476151 C42.939568,88.5754523 42.6668731,89.5857319 43.6943172,89.8725329 C44.7217613,90.1593339 50.5433582,89.8725329 50.5433582,89.8725329 C50.5433582,89.8725329 51.5708023,89.3692434 50.5433582,88 L49.6566598,88.719778 C49.6566598,88.719778 48.1489208,89.5857319 47.3959309,89.4414063 L45.2689105,89.4414063 Z" id="Path" fill="#2E3037"></path>
            <path d="M43,90.7921147 L45.4945379,91 L48.9542368,90.3028674 L50,89.3960573 L49.9152642,89.1738351 L49.7953942,88.8620072 L49.6796575,88.5591398 L47.3463242,88 C47.2279834,88.16765 47.065866,88.3088403 46.873044,88.4121864 C46.1145557,88.8602151 44.7525834,89.1845878 43.9548273,89.3476703 L43.8535577,89.3727599 C43.6984912,89.4167304 43.5570958,89.4909082 43.4402126,89.5896057 C43.2999887,89.7083139 43.2005356,89.8584559 43.1529377,90.0232975 L43,90.7921147 Z" id="Path" fill="#DB8B8B"></path>
            <path d="M43,90.7723258 L45.4945379,91 L48.9542368,90.2365064 L50,89.2433759 L49.9152642,89 L48.9542368,89.7006869 C48.9542368,89.7006869 47.1851196,90.6192345 46.2984942,90.4661433 L43.806023,90.4661433 L44.2875701,89.8537782 L43.8535577,89.2178606 C43.6984912,89.2660168 43.5570958,89.3472557 43.4402126,89.4553484 C43.2999887,89.5853566 43.2005356,89.7497908 43.1529377,89.9303238 L43,90.7723258 Z" id="Path" fill="#000000" opacity="0.1"></path>
            <path d="M44.2711322,90.4414063 L44.6810212,89.8641036 L44.2711322,89.1979852 C44.2711322,89.1979852 43.0397061,89.719778 42.4890828,89.6476151 C41.9384594,89.5754523 41.6675457,90.5857319 42.6949068,90.8725329 C43.722268,91.1593339 49.543395,90.8725329 49.543395,90.8725329 C49.543395,90.8725329 50.5707562,90.3692434 49.543395,89 L48.6532499,89.7123766 C48.6532499,89.7123766 47.1473917,90.5783306 46.3927034,90.4340049 L44.2711322,90.4414063 Z" id="Path" fill="#2E3037"></path>
            <path d="M46,49.9587977 C46,49.9587977 48.9935932,50.330894 48.5627336,48.8386728 C48.4412505,48.4147399 48.409334,47.9613778 48.4698345,47.5190735 C48.5480727,46.9711241 48.7293676,46.451663 49,46 L46.1938067,46.52362 C46.3613378,46.8601928 46.4890891,47.2229563 46.5734116,47.6015485 C46.9017619,49.1858348 46,49.9587977 46,49.9587977 Z" id="Path" fill="#DB8B8B"></path>
            <path d="M51,66 C51,66 50.9311562,68.9861508 50.2444837,70.4453333 L50.0997352,74.6801732 C50.0997352,74.6801732 50.3062665,78.5689479 50.717564,79.3342159 C51.1288614,80.099484 49.8243601,86.5569905 49.8243601,86.5569905 L49.8243601,87.66654 C49.8243601,87.66654 47.6266549,88.5013779 47,87.5291842 L47.6284201,79.2646461 L47.3583407,67.80168 L51,66 Z" id="Path" fill="#474463"></path>
            <path d="M51,66 C51,66 50.9311562,68.9861508 50.2444837,70.4453333 L50.0997352,74.6801732 C50.0997352,74.6801732 50.3062665,78.5689479 50.717564,79.3342159 C51.1288614,80.099484 49.8243601,86.5569905 49.8243601,86.5569905 L49.8243601,87.66654 C49.8243601,87.66654 47.6266549,88.5013779 47,87.5291842 L47.6284201,79.2646461 L47.3583407,67.80168 L51,66 Z" id="Path" fill="#000000" opacity="0.1"></path>
            <path d="M53.1973062,55 L53.6225187,56.1327273 L53.9783832,58.54 C54.0762092,59.2201103 53.8383131,59.90542 53.339652,60.38 C52.487402,61.2290909 51.3504604,63 51.3504604,63 L50,58.9690909 C50,58.9690909 51.3504604,58.7563636 51.1369416,57.8363636 C50.9234229,56.9163636 50.9945958,55.2163636 50.9945958,55.2163636 L53.1973062,55 Z" id="Path" fill="#FC6681"></path>
            <path d="M53.1973062,55 L53.6225187,56.1327273 L53.9783832,58.54 C54.0762092,59.2201103 53.8383131,59.90542 53.339652,60.38 C52.487402,61.2290909 51.3504604,63 51.3504604,63 L50,58.9690909 C50,58.9690909 51.3504604,58.7563636 51.1369416,57.8363636 C50.9234229,56.9163636 50.9945958,55.2163636 50.9945958,55.2163636 L53.1973062,55 Z" id="Path" fill="#000000" opacity="0.05"></path>
            <path d="M46,88.3345653 C47.0608204,89.477906 48.7072136,88.8291402 49,88.6996779 L48.8811881,88.4538451 L46.4858557,88 C46.3643705,88.1360789 46.1979455,88.2506809 46,88.3345653 L46,88.3345653 Z" id="Path" fill="#000000" opacity="0.1"></path>
            <path d="M43,68.9755243 C43.0715395,69.9812302 44.2840414,73.6460592 44.2840414,73.6460592 L45.1406805,76.6613315 C45.7554115,78.7929018 46.0721252,81.0001964 46.0816994,83.2196409 C46.0635126,83.9186955 46.158298,84.6160818 46.3623542,85.2845673 C46.9346698,86.8641713 45.791873,89.0195189 45.791873,89.0195189 C46.7915909,90.8150268 48.5048691,89.5952625 48.5048691,89.5952625 L48.5048691,88.4456207 C48.5048691,88.4456207 49.8622843,82.1954817 49.504587,80.973872 C49.1468898,79.7522623 49.0056452,76.447273 49.0056452,76.447273 L49.0056452,70.4850058 C50.1465504,69.3358079 50.8391816,67.8125846 50.9573882,66.1927638 C50.9757317,65.9584067 50.9885721,65.7111322 50.9977438,65.4546311 C51.0564428,63.8325844 49.9540015,61.9337379 49.5302679,61.2546558 C49.4275446,61.0922666 49.3633425,61 49.3633425,61 L43.0495273,63.5170327 L43.0348526,63.5170327 L43.0348526,63.7624618 L43.0348526,64.3068347 L43,68.9755243 Z" id="Path" fill="#474463"></path>
            <path d="M46,46.5839335 C46.1791014,46.9592747 46.3156757,47.3638232 46.4058219,47.7860238 C47.0635981,48.100407 47.7954325,48.0672066 48.4332192,47.6940489 C48.5168608,47.0829836 48.7106767,46.5036881 49,46 L46,46.5839335 Z" id="Path" fill="#000000" opacity="0.1"></path>
            <circle id="Oval" fill="#DB8B8B" cx="46.5" cy="44.5" r="3.5"></circle>
            <path d="M43,63.9286606 L43.0346133,63.9286606 C46.5673337,64.4755399 51,61.6986994 51,61.6986994 C50.8815541,61.5471169 50.7788491,61.3888373 50.6928069,61.2252816 C50.5716604,61.0816238 50.4959438,61 50.4959438,61 L43.05841,63.2299612 L43.03894,63.4519779 L43,63.9286606 Z" id="Path" fill="#000000" opacity="0.1"></path>
            <path d="M43.509904,49.6658993 C43.509904,49.6658993 47.3442544,47.2436958 48.5772267,48.2407509 L50.2886133,50.5202565 C50.2886133,50.5202565 51.3843933,50.8751716 51.1786048,53.1546772 L52,57.2855952 L49.5375732,57.9277352 C49.5375732,57.9277352 48.0829825,59.3510542 49.2526352,61.4201721 C49.2526352,61.4201721 45.6240734,64.554035 42.7447928,63.9137244 L42.9488225,60.5658148 C42.9488225,60.5658148 43.5661881,58.7144025 42.4704081,57.005688 C41.3746282,55.2969735 42.401812,53.6577784 43.4289957,53.0156383 C43.4325135,53.0046616 43.9126867,50.3062099 43.509904,49.6658993 Z" id="Path" fill="#FC6681"></path>
            <path d="M43.2439067,63 C43.2439067,63 41.6986436,63.2402384 40.9610027,64.2058416 C40.7492744,64.4962163 40.490299,64.7616231 40.1912082,64.9947535 C40.0547369,65.0964667 39.9848781,65.2450093 40.0027545,65.3954676 C40.020631,65.5459259 40.1241438,65.6806359 40.2819948,65.7588665 C40.8664333,66.0456026 41.8196924,66.223844 43.0226145,65.4132332 C45.0842263,64.0245004 43.2439067,63 43.2439067,63 Z" id="Path" fill="#DB8B8B"></path>
            <path d="M47.3282123,51.0538442 C47.3282123,51.0538442 48.6980592,50.9098164 49.0392021,54.6489995 C49.380345,58.3881825 49.9289872,59.2505028 49.9289872,59.2505028 C49.9289872,59.2505028 50.2718885,61.191185 49.4506837,62.3415608 C48.629479,63.4919366 47.0538912,65.9348695 47.0538912,65.9348695 C47.0538912,65.9348695 45.3429014,66.4389668 45,64.6423124 L47.1224715,60.4728925 C47.1224715,60.4728925 47.4653728,59.0363076 46.644168,58.0299596 C45.8229633,57.0236115 45.2057408,50.3355518 47.3282123,51.0538442 Z" id="Path" fill="#000000" opacity="0.1"></path>
            <path d="M46.3277472,51.0546384 C46.3277472,51.0546384 47.6973205,50.9106005 48.0383952,54.6482002 C48.3794699,58.3857999 48.9297606,59.2500275 48.9297606,59.2500275 C48.9297606,59.2500275 49.2708353,61.1908464 48.4497946,62.3413032 C47.6287539,63.49176 46.0534809,65.934865 46.0534809,65.934865 C46.0534809,65.934865 44.3428329,66.4389977 44,64.6422168 L46.1220474,60.4725033 C46.1220474,60.4725033 46.4648803,59.0339706 45.6438396,58.0275517 C44.8227988,57.0211328 44.2056997,50.3307555 46.3277472,51.0546384 Z" id="Path" fill="#FC6681"></path>
            <path d="M45.0136714,53 C45.0136714,53 44.8698366,55.1916991 45.515249,56.3937743 C46.1606613,57.5958495 46.1625054,59.1501946 45.515249,60" id="Path" fill="#000000" opacity="0.1"></path>
            <path d="M45,51 C45,51 45.5008026,50.5302115 46.9373997,50.4712991 C48.3739968,50.4123867 49,50 49,50" id="Path" fill="#000000" opacity="0.1"></path>
            <path d="M48.3889545,40.0768497 C48.8358566,40.1281534 49.3490366,40.27145 49.5099972,40.6659579 C49.5525991,40.8151322 49.5867325,40.9663057 49.6122544,41.1188459 C49.7788959,41.7203378 50.5041651,42.0033927 50.9510672,42.461588 C51.3468408,42.8667105 51.5191632,43.4168986 51.6479316,43.9511649 C52.0149728,45.4862502 52.102676,47.0681207 51.9073621,48.6304177 C51.7634445,49.7732523 51.4699282,50.8983958 51.3866075,52.0447686 C51.3032867,53.1911413 51.454779,54.3994323 52.1270259,55.3635883 C52.4148612,55.7775563 52.7954855,56.1419896 53,56.6019539 C52.5777153,56.9221599 51.9944702,56.9681563 51.4509917,56.9858473 C50.819774,57.0047176 50.1885562,57.0047176 49.5573385,56.9858473 C49.2231629,56.9989099 48.890723,56.9344858 48.5896817,56.7983233 C48.3767508,56.6717284 48.2020418,56.4963309 48.0821826,56.2888243 C47.7204949,55.7138689 47.6277059,55.0239223 47.6428551,54.3552049 C47.6580043,53.6864875 47.7716235,53.0248465 47.7848791,52.3578981 C47.7848791,51.9934648 47.7621553,51.6078024 47.5387042,51.3105947 C47.3549594,51.1119095 47.1471622,50.9338096 46.9194796,50.7798666 C46.1317199,50.127071 45.8609274,49.0779984 45.8344163,48.0943823 C45.8079052,47.1107662 45.9802276,46.123612 45.8912259,45.141765 C45.8571401,44.7578716 45.7018606,44.2961382 45.2985124,44.2218362 C45.1712224,44.2153018 45.0446293,44.1999272 44.9197818,44.1758398 C44.5940735,44.0590796 44.6262656,43.6309589 44.5410512,43.3178294 C44.4369002,42.9640106 44.1168729,42.6951084 44.0259775,42.3395206 C43.8138883,41.5062774 44.9481866,40.5120468 45.6923923,40.2166081 C46.436598,39.9211695 47.5898328,39.9848568 48.3889545,40.0768497 Z" id="Path" fill="#000000" opacity="0.1"></path>
            <path d="M48.3938003,40.0739749 C48.8402328,40.1270568 49.3509819,40.2703777 49.5136649,40.6631832 C49.5564136,40.812937 49.5905128,40.9647348 49.6158147,41.1179175 C49.782281,41.7195116 50.506788,42.0026146 50.9532205,42.4591183 C51.3485781,42.8643096 51.5207194,43.4145912 51.6493525,43.9489483 C52.016008,45.4842943 52.103619,47.0664336 51.9085104,48.628996 C51.764744,49.7720246 51.4715362,50.8973594 51.388303,52.0439268 C51.3050699,53.1904943 51.4564029,54.3989905 52.1279433,55.3633104 C52.4154761,55.7773486 52.7957004,56.1418438 53,56.6018863 C52.5781591,56.9221467 51.9955269,56.9681509 51.4526196,56.9858448 C50.8220652,57.0047184 50.1883581,57.0047184 49.5514981,56.9858448 C49.2176738,56.9989097 48.8855833,56.9344747 48.5848583,56.7982891 C48.3726586,56.6718629 48.1982267,56.4971384 48.0778926,56.2904729 C47.7146933,55.7136504 47.6238934,55.0235867 47.6390267,54.3547556 C47.65416,53.6859246 47.7676598,53.0241712 47.7809015,52.3571096 C47.7809015,51.9943838 47.7582015,51.6068864 47.5349853,51.3096282 C47.3509427,51.1113556 47.1434216,50.9332751 46.9164114,50.7788099 C46.1294796,50.1259035 45.8570801,49.0784221 45.8305968,48.0928695 C45.8041135,47.1073169 45.9781465,46.1217644 45.8892384,45.1397506 C45.8551884,44.755792 45.7000721,44.2939801 45.2971478,44.2196656 C45.1699915,44.21313 45.0435315,44.1977528 44.9188152,44.1736613 C44.5934491,44.0568813 44.6256074,43.6286879 44.5404826,43.3155051 C44.4364411,42.9616263 44.11675,42.6926784 44.0259502,42.3370301 C43.8140839,41.5054149 44.9471901,40.5092459 45.6906137,40.2137571 C46.4340373,39.9182683 47.5955185,39.989044 48.3938003,40.0739749 Z" id="Path" fill="#472727"></path>
            <ellipse id="Oval" fill="#00EFAB" opacity="0.1" cx="131.5" cy="104.5" rx="4.5" ry="1"></ellipse>
            <ellipse id="Oval" fill="#00EFAB" opacity="0.1" cx="116.5" cy="106.5" rx="4.5" ry="1"></ellipse>
            <ellipse id="Oval" fill="#00EFAB" opacity="0.1" cx="95.5" cy="104.5" rx="4.5" ry="1"></ellipse>
            <ellipse id="Oval" fill="#00EFAB" opacity="0.1" cx="122.5" cy="111.5" rx="3.5" ry="1"></ellipse>
            <ellipse id="Oval" fill="#00EFAB" opacity="0.1" cx="105.5" cy="111.5" rx="3.5" ry="1"></ellipse>
            <path d="M116.431024,108 C116.431024,108 122.830284,87.4133154 115.429119,79.1667007 C109.89298,72.9985315 103.609689,73.7355027 100.790288,74.5023259 C99.3161129,74.8881032 98.0887313,75.8893767 97.4328631,77.2412468 C96.4499702,79.3234237 96.6267769,82.7060283 103.573567,86.6520894 C115.202883,93.2587099 115.931022,102.324389 115.931022,102.324389 L116.431024,108 Z" id="Path" fill="#00EFAB"></path>
            <path d="M101,77 C101,77 119.548577,82.8629736 115.393232,108" id="Path" stroke="#565987"></path>
            <path d="M112,78 C112,78 109.312939,79.6 110.168003,82" id="Path" stroke="#565987"></path>
            <path d="M105,80 C105,80 106.354212,78.3721242 108,79.2703286" id="Path" stroke="#565987"></path>
            <path d="M110,87.5993914 C110,87.5993914 112.38374,86.0140041 113,88" id="Path" stroke="#565987"></path>
            <path d="M117,91.0124082 C117,91.0124082 115.037467,90.81444 115,92" id="Path" stroke="#565987"></path>
            <path d="M116,106 C116,106 108.70981,91.6910825 106.70695,92.0050937 C105.756377,92.1531785 105.318078,93.0559606 105.118347,93.9676634 C104.872632,95.1402131 105.011607,96.3574849 105.51596,97.4503326 C106.547904,99.7358343 109.321949,104.083818 116,106 Z" id="Path" fill="#00EFAB"></path>
            <path d="M106,96 C106,96 113.54192,106.536398 115,107" id="Path" stroke="#565987"></path>
            <path d="M107,97 L109,97" id="Path" stroke="#565987"></path>
            <path d="M109,100.876724 L112,101.123276" id="Path" stroke="#565987"></path>
            <path d="M110.190123,97 L109.809877,99" id="Path" stroke="#565987"></path>
            <path d="M112.055136,102 L111.944864,103" id="Path" stroke="#565987"></path>
            <path d="M115,106 C115,106 122.29019,91.6910825 124.29305,92.0050937 C125.245472,92.1531785 125.683771,93.0559606 125.881653,93.9676634 C126.127368,95.1402131 125.988393,96.3574849 125.48404,97.4503326 C124.442849,99.7358343 121.668804,104.083818 115,106 Z" id="Path" fill="#00EFAB"></path>
            <path d="M124,96 C124,96 116.456553,106.536398 115,107" id="Path" stroke="#565987"></path>
            <path d="M126,97 L124,97" id="Path" stroke="#565987"></path>
            <path d="M124,100.876724 L121,101.123276" id="Path" stroke="#565987"></path>
            <path d="M121.809877,97 L122.190123,99" id="Path" stroke="#565987"></path>
            <path d="M118.944864,102 L119.055136,103" id="Path" stroke="#565987"></path>
            <path d="M103.389032,110.242845 C103.210336,110.06168 103.080342,109.817021 103.016414,109.541546 C102.956287,109.256716 103.065392,108.958553 103.277579,108.827835 C103.517119,108.714055 103.776621,108.920928 103.966257,109.129869 C104.155893,109.338811 104.382125,109.576715 104.631646,109.533271 C104.366313,109.232753 104.246468,108.781709 104.315586,108.343752 C104.327192,108.255397 104.357638,108.172528 104.403751,108.10378 C104.536828,107.925869 104.778032,108.002412 104.937726,108.141017 C105.436768,108.583725 105.584817,109.440179 105.588144,110.209746 C105.613131,109.92649 105.613131,109.640685 105.588144,109.357429 C105.568591,109.068826 105.665129,108.786888 105.845982,108.604412 C105.966297,108.523284 106.101765,108.483308 106.238562,108.488563 C106.467024,108.448184 106.698542,108.530125 106.875673,108.714055 C107.068635,108.970577 107.018731,109.402942 106.85072,109.686357 C106.661487,109.951687 106.436273,110.17365 106.185331,110.342144 C105.997046,110.482613 105.836243,110.673406 105.714568,110.900701 C105.700934,110.932662 105.689256,110.965856 105.679635,111 L104.254038,111 C103.939641,110.797127 103.648683,110.542447 103.389032,110.242845 L103.389032,110.242845 Z" id="Path" fill="#00EFAB"></path>
            <path d="M131.388951,104.232502 C131.210203,104.051336 131.080171,103.806677 131.016223,103.531203 C130.956699,103.24754 131.064944,102.950781 131.275802,102.81956 C131.515413,102.703711 131.774991,102.910584 131.966347,103.119526 C132.157702,103.328467 132.382338,103.566371 132.631932,103.533271 C132.36652,103.232753 132.246641,102.781709 132.315779,102.343752 C132.327388,102.255397 132.357843,102.172528 132.403969,102.10378 C132.537086,101.925869 132.778361,102.002412 132.938101,102.141017 C133.437291,102.583725 133.585383,103.440179 133.588711,104.209746 C133.613706,103.92649 133.613706,103.640685 133.588711,103.357429 C133.569153,103.068826 133.665719,102.786888 133.846626,102.604412 C133.966975,102.523284 134.102484,102.483308 134.239321,102.488563 C134.467362,102.447724 134.698587,102.529751 134.874955,102.714055 C135.069639,102.970577 135.018056,103.402942 134.849996,103.686357 C134.660825,103.951843 134.435522,104.17383 134.18441,104.342144 C133.99607,104.482613 133.835219,104.673406 133.713508,104.900701 C133.69987,104.932662 133.688189,104.965856 133.678565,105 L132.252548,105 C131.938154,104.793769 131.647653,104.535594 131.388951,104.232502 L131.388951,104.232502 Z" id="Path" fill="#00EFAB"></path>
            <path d="M122.389884,110.242845 C122.211104,110.061795 122.08082,109.817171 122.016379,109.541546 C121.956377,109.256716 122.065257,108.958553 122.277003,108.827835 C122.516046,108.714055 122.775009,108.920928 122.965912,109.129869 C123.156815,109.338811 123.380917,109.576715 123.629921,109.533271 C123.363995,109.233679 123.244181,108.781813 123.314517,108.343752 C123.325364,108.255121 123.355833,108.172017 123.402498,108.10378 C123.5353,107.925869 123.774343,108.002412 123.933705,108.141017 C124.431711,108.583725 124.581113,109.440179 124.582773,110.209746 C124.611022,109.926943 124.614362,109.641138 124.592734,109.357429 C124.57253,109.069135 124.668278,108.787099 124.848377,108.604412 C124.968527,108.523562 125.103653,108.483604 125.240142,108.488563 C125.468144,108.447918 125.699268,108.529889 125.87593,108.714055 C126.068493,108.970577 126.018692,109.402942 125.85103,109.686357 C125.661954,109.951376 125.437254,110.173294 125.187021,110.342144 C124.998436,110.48148 124.837781,110.672492 124.717235,110.900701 C124.702941,110.932241 124.691261,110.965512 124.682375,111 L123.258076,111 C122.942519,110.797736 122.650456,110.543026 122.389884,110.242845 L122.389884,110.242845 Z" id="Path" fill="#00EFAB"></path>
            <path d="M96.349132,98 C96.349132,98 95.7476922,98.8009153 96.6255702,100.011823 C97.5034481,101.222731 98.2281643,102.244851 97.9330479,103 C97.9330479,103 96.6087597,100.751716 95.5310245,100.71167 C94.4532893,100.671625 95.1630629,99.3463005 96.349132,98 Z" id="Path" fill="#00EFAB"></path>
            <path d="M96.3635432,98 C96.3098611,98.077218 96.2678305,98.1620473 96.2388248,98.2517162 C95.174939,99.5122044 94.6080371,100.690694 95.6303501,100.719298 C96.584635,100.747902 97.7278871,102.467963 98,102.900839 C97.9921527,102.934768 97.9814042,102.967946 97.9678756,103 C97.9678756,103 96.6280975,100.751716 95.5377562,100.71167 C94.4474149,100.671625 95.1636009,99.3463005 96.3635432,98 Z" id="Path" fill="#000000" opacity="0.1"></path>
            <path d="M95.8593088,99.2607738 C95.8593088,99.6690032 95.9239507,100 96,100 C96.0760493,100 96.1406912,99.6690032 96.1406912,99.2607738 C96.1406912,98.8525445 96.0646419,99.0456259 95.9847901,99.0456259 C95.9049384,99.0456259 95.8593088,98.8525445 95.8593088,99.2607738 Z" id="Path" fill="#FFD037"></path>
            <path d="M94.9002755,100.002936 C95.0487931,100.134826 95.1778892,100.215845 95.1893136,100.18193 C95.200738,100.148015 95.089921,100.012357 94.9414034,99.878582 C94.7928858,99.7448075 94.8511504,99.8427832 94.839726,99.878582 C94.8283016,99.9143808 94.7517579,99.8691613 94.9002755,100.002936 Z" id="Path" fill="#FFD037"></path>
            <path d="M98.650973,98 C98.650973,98 99.25013,98.8009153 98.3728597,100.011823 C97.4955894,101.222731 96.7732413,102.244851 97.0662869,103 C97.0662869,103 98.3896585,100.751716 99.4685143,100.71167 C100.54737,100.671625 99.8362212,99.3463005 98.650973,98 Z" id="Path" fill="#00EFAB"></path>
            <path d="M98.6368576,98 C98.6894577,98.0775537 98.7307834,98.1623206 98.7595747,98.2517162 C99.8243817,99.5122044 100.390768,100.690694 99.3674965,100.719298 C98.4235186,100.747902 97.2737536,102.467963 97,102.900839 C97,102.935164 97.0207675,102.967582 97.0320952,103 C97.0320952,103 98.3706558,100.751716 99.4618942,100.71167 C100.553133,100.671625 99.8357095,99.3463005 98.6368576,98 Z" id="Path" fill="#000000" opacity="0.1"></path>
            <path d="M99.1406912,99.2607738 C99.1406912,99.6690032 99.0798517,100 99,100 C98.9201483,100 98.8593088,99.6690032 98.8593088,99.2607738 C98.8593088,98.8525445 98.9391606,99.0456259 99.0152099,99.0456259 C99.0912591,99.0456259 99.1406912,98.8525445 99.1406912,99.2607738 Z" id="Path" fill="#FFD037"></path>
            <path d="M100.099691,100.002936 C99.9511176,100.134826 99.8208304,100.215845 99.8105446,100.18193 C99.8002587,100.148015 99.9099743,100.012357 100.058547,99.878582 C100.207121,99.7448075 100.148834,99.8427832 100.160263,99.878582 C100.171692,99.9143808 100.248264,99.8691613 100.099691,100.002936 Z" id="Path" fill="#FFD037"></path>
            <path d="M100,102.857765 C100,102.857765 98.1168735,102.808327 97.5519356,102.467555 C96.9869977,102.126783 94.6581979,101.720681 94.5180096,102.268036 C94.3778213,102.81539 91.6891352,104.985384 93.8149757,104.999509 C95.9408163,105.013634 98.7487671,104.720535 99.3157974,104.429201 C99.8828277,104.137868 100,102.857765 100,102.857765 Z" id="Path" fill="#A8A8A8"></path>
            <path d="M93.774752,104.82316 C95.9007527,104.836347 98.7110075,104.562709 99.2780805,104.290718 C99.7070472,104.084665 99.8807263,103.342873 99.9372244,103 L100,103 C100,103 99.8807263,104.195109 99.3157458,104.4671 C98.7507654,104.73909 95.938418,105.012729 93.8145099,104.999542 C93.2014014,104.999542 92.9879643,104.82316 93.0005195,104.569302 C93.0863128,104.724254 93.3185826,104.819863 93.774752,104.82316 Z" id="Path" fill="#000000" opacity="0.2"></path>
        </g>
    </g>
</svg>