<svg id="Capa_1" data-name="Capa 1" xmlns="http://www.w3.org/2000/svg" xmlns:xlink="http://www.w3.org/1999/xlink" viewBox="0 0 33.43 35.44"><defs><style>.cls-1,.cls-2,.cls-5{fill:none;}.cls-2{clip-path:url(#clip-path);}.cls-11,.cls-13,.cls-3,.cls-4{fill:#3cb28d;}.cls-3{clip-path:url(#clip-path-2);}.cls-3,.cls-4,.cls-5{clip-rule:evenodd;}.cls-6{opacity:0.28;}.cls-7{clip-path:url(#clip-path-4);}.cls-8{clip-path:url(#clip-path-5);}.cls-9{clip-path:url(#clip-path-6);}.cls-10{clip-path:url(#clip-path-7);}.cls-11{fill-rule:evenodd;}.cls-12{clip-path:url(#clip-path-8);}.cls-14{clip-path:url(#clip-path-9);}.cls-15{clip-path:url(#clip-path-10);}.cls-16{clip-path:url(#clip-path-11);}.cls-17{clip-path:url(#clip-path-16);}.cls-18{clip-path:url(#clip-path-17);}.cls-19{fill:#2aa0b1;}.cls-20{font-size:29.72px;fill:#fff;font-family:ProximaNova-Bold, Proxima Nova;font-weight:700;}.cls-21{clip-path:url(#clip-path-18);}.cls-22{clip-path:url(#clip-path-19);}</style><clipPath id="clip-path"><path id="SVGID" class="cls-1" d="M-618.61,92.15"/></clipPath><clipPath id="clip-path-2"><path id="SVGID-2" data-name="SVGID" class="cls-4" d="M-618.61,92.15"/></clipPath><clipPath id="clip-path-4"><path id="SVGID-4" data-name="SVGID" class="cls-2" d="M-148.38,92.19s34.47-49.37,32-72.12C-117.8,7-123.61,9.43-128.54,11.86c-3.65,1.8-6.83,3.61-7.35-.92-1.25-10.63,33.81-74-13-98.93-21.91-11.67-39.67-10.13-55.85-8.57-18.42,1.76-34.81,3.54-53-14.14-6.51-6.32,4.93-57.77-22.58-105.71-13.8-24.06-46.43-51.48-77.94-63.34-69.94-26.32-121.81-16.6-159.61,7.52-45.49,29-70.63,78.88-82.43,111.91-6.06,17-20.67,11-36.89,5-15.71-5.79-32.94-11.59-45.41,3.43-49.68,59.86,49.5,220.23,64,244Z"/></clipPath><clipPath id="clip-path-5"><path id="SVGID-5" data-name="SVGID" class="cls-1" d="M-220.3-586.71l54.42.32c20.35.12,31.53-5.91,37.84-16.22,5.74-9.38,9.77-20.73,2.49-28.09-15.43-15.6-32.57,3.16-32.57,3.16s3.9-40.64-25.67-40.6c-31.28,0-31.3,58.65-31.3,58.65s-21.19-21.87-27-5.11c-1.68,4.83.06,9.7,3,14,6.22,9,16.59,13.89,18.75,13.91"/></clipPath><clipPath id="clip-path-6"><path id="SVGID-6" data-name="SVGID" class="cls-1" d="M-588.89-602.74l-56.41-.33c-21.09-.13-32.61-6.51-39-17.28-5.83-9.8-9.88-21.6-2.24-29.15,16.18-16,33.72,3.68,33.72,3.68s-3.54-42.17,27.11-41.76c32.42.42,31.72,61.17,31.72,61.17s22.23-22.41,28-5c1.68,5-.18,10.06-3.31,14.46-6.57,9.22-17.37,14.2-19.61,14.18"/></clipPath><clipPath id="clip-path-7"><path id="SVGID-7" data-name="SVGID" class="cls-1" d="M-638.15-313.31c14,.37,23,15.18,17.47,28-7.27,16.94-22.27,52.5-24.3,61.88-2.68,12.44-40.62-28.26-24.41-66,7.65-17.81,20.27-24.14,31.24-23.86"/></clipPath><clipPath id="clip-path-8"><path id="SVGID-8" data-name="SVGID" class="cls-3" d="M-148.38,92.19s34.47-49.37,32-72.12C-117.8,7-123.61,9.43-128.54,11.86c-3.65,1.8-6.83,3.61-7.35-.92-1.25-10.63,33.81-74-13-98.93-21.91-11.67-39.67-10.13-55.85-8.57-18.42,1.76-34.81,3.54-53-14.14-6.51-6.32,4.93-57.77-22.58-105.71-13.8-24.06-46.43-51.48-77.94-63.34-69.94-26.32-121.81-16.6-159.61,7.52-45.49,29-70.63,78.88-82.43,111.91-6.06,17-20.67,11-36.89,5-15.71-5.79-32.94-11.59-45.41,3.43-49.68,59.86,49.5,220.23,64,244Z"/></clipPath><clipPath id="clip-path-9"><path id="SVGID-9" data-name="SVGID" class="cls-4" d="M-220.3-586.71l54.42.32c20.35.12,31.53-5.91,37.84-16.22,5.74-9.38,9.77-20.73,2.49-28.09-15.43-15.6-32.57,3.16-32.57,3.16s3.9-40.64-25.67-40.6c-31.28,0-31.3,58.65-31.3,58.65s-21.19-21.87-27-5.11c-1.68,4.83.06,9.7,3,14,6.22,9,16.59,13.89,18.75,13.91"/></clipPath><clipPath id="clip-path-10"><path id="SVGID-10" data-name="SVGID" class="cls-4" d="M-588.89-602.74l-56.41-.33c-21.09-.13-32.61-6.51-39-17.28-5.83-9.8-9.88-21.6-2.24-29.15,16.18-16,33.72,3.68,33.72,3.68s-3.54-42.17,27.11-41.76c32.42.42,31.72,61.17,31.72,61.17s22.23-22.41,28-5c1.68,5-.18,10.06-3.31,14.46-6.57,9.22-17.37,14.2-19.61,14.18"/></clipPath><clipPath id="clip-path-11"><path id="SVGID-11" data-name="SVGID" class="cls-4" d="M-638.15-313.31c14,.37,23,15.18,17.47,28-7.27,16.94-22.27,52.5-24.3,61.88-2.68,12.44-40.62-28.26-24.41-66,7.65-17.81,20.27-24.14,31.24-23.86"/></clipPath><clipPath id="clip-path-16"><path class="cls-5" d="M129.37-381.34v-.45H112.11a1.25,1.25,0,0,1-1.26-1.26v-17.26a1.26,1.26,0,0,1,1.26-1.26h17.26a1.27,1.27,0,0,1,1.26,1.26V-383a1.26,1.26,0,0,1-1.26,1.26v.91a2.17,2.17,0,0,0,2.16-2.17v-17.26a2.16,2.16,0,0,0-2.16-2.16H112.11a2.17,2.17,0,0,0-2.17,2.16V-383a2.17,2.17,0,0,0,2.17,2.17h17.26v-.46"/></clipPath><clipPath id="clip-path-17"><path class="cls-5" d="M121.24-384.29a1.47,1.47,0,0,1-1.16-.58l-7.52-9.58a1.67,1.67,0,0,1,.2-2.25,1.46,1.46,0,0,1,2.13.22l6.19,7.88,13.34-22.22a1.47,1.47,0,0,1,2.09-.49,1.66,1.66,0,0,1,.47,2.2L122.52-385a1.48,1.48,0,0,1-1.18.74h-.1"/></clipPath><clipPath id="clip-path-18"><path id="SVGID-16" data-name="SVGID" class="cls-1" d="M-1219-602.74l-56.42-.33c-21.09-.13-32.61-6.51-39-17.28-5.83-9.8-9.87-21.6-2.23-29.15,16.18-16,33.72,3.68,33.72,3.68s-3.54-42.17,27.11-41.76c32.42.42,31.72,61.17,31.72,61.17s22.23-22.41,28-5c1.68,5-.19,10.06-3.32,14.46-6.56,9.22-17.37,14.2-19.6,14.18"/></clipPath><clipPath id="clip-path-19"><path id="SVGID-17" data-name="SVGID" class="cls-4" d="M-1219-602.74l-56.42-.33c-21.09-.13-32.61-6.51-39-17.28-5.83-9.8-9.87-21.6-2.23-29.15,16.18-16,33.72,3.68,33.72,3.68s-3.54-42.17,27.11-41.76c32.42.42,31.72,61.17,31.72,61.17s22.23-22.41,28-5c1.68,5-.19,10.06-3.32,14.46-6.56,9.22-17.37,14.2-19.6,14.18"/></clipPath></defs><title>Mesa de trabajo 8</title><g class="cls-6"><path id="SVGID-19" data-name="SVGID" class="cls-11" d="M-618.61,92.15"/><path id="SVGID-20" data-name="SVGID" class="cls-11" d="M-148.38,92.19s34.47-49.37,32-72.12C-117.8,7-123.61,9.43-128.54,11.86c-3.65,1.8-6.83,3.61-7.35-.92-1.25-10.63,33.81-74-13-98.93-21.91-11.67-39.67-10.13-55.85-8.57-18.42,1.76-34.81,3.54-53-14.14-6.51-6.32,4.93-57.77-22.58-105.71-13.8-24.06-46.43-51.48-77.94-63.34-69.94-26.32-121.81-16.6-159.61,7.52-45.49,29-70.63,78.88-82.43,111.91-6.06,17-20.67,11-36.89,5-15.71-5.79-32.94-11.59-45.41,3.43-49.68,59.86,49.5,220.23,64,244Z"/><g class="cls-12"><rect id="SVGID-21" data-name="SVGID" class="cls-13" x="-1101.13" y="-347.55" width="1398.55" height="988.29" transform="translate(-546.06 -256.13) rotate(-89.66)"/></g><path id="SVGID-22" data-name="SVGID" class="cls-11" d="M-220.3-586.71l54.42.32c20.35.12,31.53-5.91,37.84-16.22,5.74-9.38,9.77-20.73,2.49-28.09-15.43-15.6-32.57,3.16-32.57,3.16s3.9-40.64-25.67-40.6c-31.28,0-31.3,58.65-31.3,58.65s-21.19-21.87-27-5.11c-1.68,4.83.06,9.7,3,14,6.22,9,16.59,13.89,18.75,13.91"/><g class="cls-14"><rect id="SVGID-23" data-name="SVGID" class="cls-13" x="-1809.28" y="-993.08" width="2370.38" height="1675.03" transform="matrix(0.01, -1, 1, 0.01, -464.83, -778.71)"/></g><path id="SVGID-24" data-name="SVGID" class="cls-11" d="M-588.89-602.74l-56.41-.33c-21.09-.13-32.61-6.51-39-17.28-5.83-9.8-9.88-21.6-2.24-29.15,16.18-16,33.72,3.68,33.72,3.68s-3.54-42.17,27.11-41.76c32.42.42,31.72,61.17,31.72,61.17s22.23-22.41,28-5c1.68,5-.18,10.06-3.31,14.46-6.57,9.22-17.37,14.2-19.61,14.18"/><g class="cls-15"><rect id="SVGID-25" data-name="SVGID" class="cls-13" x="-1404.2" y="-1019.03" width="2457.07" height="1736.29" transform="translate(-23.74 -325.66) rotate(-89.66)"/></g><path id="SVGID-26" data-name="SVGID" class="cls-11" d="M-638.15-313.31c14,.37,23,15.18,17.47,28-7.27,16.94-22.27,52.5-24.3,61.88-2.68,12.44-40.62-28.26-24.41-66,7.65-17.81,20.27-24.14,31.24-23.86"/><g class="cls-16"><rect id="SVGID-27" data-name="SVGID" class="cls-13" x="-1448.32" y="-480.8" width="2282.99" height="1613.27" transform="translate(-630.84 17.09) rotate(-89.66)"/></g></g><circle class="cls-19" cx="16.72" cy="16.72" r="16.72"/><polygon class="cls-19" points="24.92 27.83 29.31 24.7 29.83 30.07 30.35 35.44 25.44 33.2 20.53 30.96 24.92 27.83"/><text class="cls-20" transform="translate(10.18 26.74)">?</text><g class="cls-6"><path id="SVGID-28" data-name="SVGID" class="cls-11" d="M-1219-602.74l-56.42-.33c-21.09-.13-32.61-6.51-39-17.28-5.83-9.8-9.87-21.6-2.23-29.15,16.18-16,33.72,3.68,33.72,3.68s-3.54-42.17,27.11-41.76c32.42.42,31.72,61.17,31.72,61.17s22.23-22.41,28-5c1.68,5-.19,10.06-3.32,14.46-6.56,9.22-17.37,14.2-19.6,14.18"/><g class="cls-22"><rect id="SVGID-29" data-name="SVGID" class="cls-13" x="-2034.31" y="-1019.03" width="2457.07" height="1736.29" transform="translate(-650.11 -955.75) rotate(-89.66)"/></g></g></svg>