<svg id="Capa_1" data-name="Capa 1" xmlns="http://www.w3.org/2000/svg" xmlns:xlink="http://www.w3.org/1999/xlink" viewBox="0 0 27.27 30.68"><defs><style>.cls-1,.cls-3{fill:none;}.cls-11,.cls-2,.cls-9{fill:#3cb28d;}.cls-2,.cls-3{clip-rule:evenodd;}.cls-4{fill:#fff;}.cls-5{opacity:0.28;}.cls-6{clip-path:url(#clip-path);}.cls-7{clip-path:url(#clip-path-2);}.cls-8{clip-path:url(#clip-path-3);}.cls-9{fill-rule:evenodd;}.cls-10{clip-path:url(#clip-path-4);}.cls-12{clip-path:url(#clip-path-5);}.cls-13{clip-path:url(#clip-path-6);}.cls-14{clip-path:url(#clip-path-10);}.cls-15{clip-path:url(#clip-path-11);}.cls-16{fill:#a9a4c5;}.cls-17{clip-path:url(#clip-path-12);}</style><clipPath id="clip-path"><path id="SVGID" class="cls-1" d="M-330.25-175.15l54.43.32c20.34.12,31.53-5.9,37.83-16.22,5.74-9.38,9.78-20.73,2.5-28.09-15.43-15.6-32.57,3.16-32.57,3.16s3.89-40.63-25.68-40.6c-31.28,0-31.3,58.65-31.3,58.65s-21.18-21.87-27-5.11c-1.67,4.83.07,9.7,3,14,6.23,9,16.59,13.9,18.75,13.91"/></clipPath><clipPath id="clip-path-2"><path id="SVGID-2" data-name="SVGID" class="cls-1" d="M-698.83-191.18l-56.42-.33c-21.09-.13-32.61-6.51-39-17.27-5.83-9.8-9.87-21.61-2.24-29.16,16.19-16,33.73,3.68,33.73,3.68s-3.54-42.17,27.11-41.76c32.42.42,31.72,61.17,31.72,61.17s22.23-22.41,28-5c1.68,5-.19,10.06-3.32,14.46-6.56,9.22-17.37,14.2-19.6,14.18"/></clipPath><clipPath id="clip-path-3"><path id="SVGID-3" data-name="SVGID" class="cls-1" d="M-748.09,98.25c14,.37,23,15.18,17.47,28-7.27,16.94-22.28,52.5-24.3,61.88-2.68,12.44-40.62-28.26-24.41-66,7.65-17.81,20.26-24.14,31.24-23.86"/></clipPath><clipPath id="clip-path-4"><path id="SVGID-4" data-name="SVGID" class="cls-2" d="M-330.25-175.15l54.43.32c20.34.12,31.53-5.9,37.83-16.22,5.74-9.38,9.78-20.73,2.5-28.09-15.43-15.6-32.57,3.16-32.57,3.16s3.89-40.63-25.68-40.6c-31.28,0-31.3,58.65-31.3,58.65s-21.18-21.87-27-5.11c-1.67,4.83.07,9.7,3,14,6.23,9,16.59,13.9,18.75,13.91"/></clipPath><clipPath id="clip-path-5"><path id="SVGID-5" data-name="SVGID" class="cls-2" d="M-698.83-191.18l-56.42-.33c-21.09-.13-32.61-6.51-39-17.27-5.83-9.8-9.87-21.61-2.24-29.16,16.19-16,33.73,3.68,33.73,3.68s-3.54-42.17,27.11-41.76c32.42.42,31.72,61.17,31.72,61.17s22.23-22.41,28-5c1.68,5-.19,10.06-3.32,14.46-6.56,9.22-17.37,14.2-19.6,14.18"/></clipPath><clipPath id="clip-path-6"><path id="SVGID-6" data-name="SVGID" class="cls-2" d="M-748.09,98.25c14,.37,23,15.18,17.47,28-7.27,16.94-22.28,52.5-24.3,61.88-2.68,12.44-40.62-28.26-24.41-66,7.65-17.81,20.26-24.14,31.24-23.86"/></clipPath><clipPath id="clip-path-10"><path class="cls-3" d="M19.42,30.22v-.45H2.16A1.27,1.27,0,0,1,.9,28.51V11.25A1.27,1.27,0,0,1,2.16,10H19.42a1.26,1.26,0,0,1,1.26,1.26V28.51a1.25,1.25,0,0,1-1.26,1.26v.91a2.17,2.17,0,0,0,2.17-2.17V11.25a2.17,2.17,0,0,0-2.17-2.16H2.16A2.16,2.16,0,0,0,0,11.25V28.51a2.17,2.17,0,0,0,2.16,2.17H19.42v-.46"/></clipPath><clipPath id="clip-path-11"><rect class="cls-1" x="-279.5" y="-389.7" width="676.01" height="956.65"/></clipPath><clipPath id="clip-path-12"><path class="cls-3" d="M11.3,27.27a1.49,1.49,0,0,1-1.17-.58L2.62,17.11a1.65,1.65,0,0,1,.2-2.24A1.45,1.45,0,0,1,5,15.08L11.14,23,24.48.74A1.46,1.46,0,0,1,26.56.25,1.64,1.64,0,0,1,27,2.45L12.58,26.53a1.49,1.49,0,0,1-1.19.73H11.3"/></clipPath></defs><title>Mesa de trabajo 11</title><rect class="cls-4" width="27.27" height="30.68"/><g class="cls-5"><path id="SVGID-10" data-name="SVGID" class="cls-9" d="M-330.25-175.15l54.43.32c20.34.12,31.53-5.9,37.83-16.22,5.74-9.38,9.78-20.73,2.5-28.09-15.43-15.6-32.57,3.16-32.57,3.16s3.89-40.63-25.68-40.6c-31.28,0-31.3,58.65-31.3,58.65s-21.18-21.87-27-5.11c-1.67,4.83.07,9.7,3,14,6.23,9,16.59,13.9,18.75,13.91"/><g class="cls-10"><rect id="SVGID-11" data-name="SVGID" class="cls-11" x="-1919.22" y="-581.52" width="2370.38" height="1675.03" transform="matrix(0.01, -1, 1, 0.01, -985.67, -479.54)"/></g><path id="SVGID-12" data-name="SVGID" class="cls-9" d="M-698.83-191.18l-56.42-.33c-21.09-.13-32.61-6.51-39-17.27-5.83-9.8-9.87-21.61-2.24-29.16,16.19-16,33.73,3.68,33.73,3.68s-3.54-42.17,27.11-41.76c32.42.42,31.72,61.17,31.72,61.17s22.23-22.41,28-5c1.68,5-.19,10.06-3.32,14.46-6.56,9.22-17.37,14.2-19.6,14.18"/><g class="cls-12"><rect id="SVGID-13" data-name="SVGID" class="cls-11" x="-1514.15" y="-607.47" width="2457.07" height="1736.29" transform="translate(-544.59 -26.48) rotate(-89.66)"/></g><path id="SVGID-14" data-name="SVGID" class="cls-9" d="M-748.09,98.25c14,.37,23,15.18,17.47,28-7.27,16.94-22.28,52.5-24.3,61.88-2.68,12.44-40.62-28.26-24.41-66,7.65-17.81,20.26-24.14,31.24-23.86"/><g class="cls-13"><rect id="SVGID-15" data-name="SVGID" class="cls-11" x="-1558.26" y="-69.24" width="2282.99" height="1613.27" transform="translate(-1151.69 316.27) rotate(-89.66)"/></g></g><g class="cls-14"><g class="cls-15"><rect class="cls-16" x="-5.68" y="3.41" width="32.95" height="32.95"/></g></g><g class="cls-17"><g class="cls-15"><rect class="cls-11" x="-3.41" y="-5.68" width="36.36" height="38.63"/></g></g></svg>