<svg xmlns="http://www.w3.org/2000/svg" viewBox="0 0 144.06 31.99"><defs><style>.cls-1{fill:#006a65;}.cls-2{fill:#8bc8a9;}</style></defs><title>aplicacion-principal</title><g id="Capa_2" data-name="Capa 2"><g id="Capa_1-2" data-name="Capa 1"><polygon class="cls-1" points="14.09 0.27 24.48 0.27 24.48 4.14 18.43 4.14 18.43 22.51 14.09 22.51 14.09 0.27"/><path class="cls-1" d="M43.82,22.51l-4.35-8.87H36.35v8.87H32V.27h8.71c4.53,0,7.22,3.09,7.22,6.81a6,6,0,0,1-4.06,5.84l5,9.59ZM40.44,4.14H36.35V10h4.09A2.9,2.9,0,0,0,43.6,7.08,2.9,2.9,0,0,0,40.44,4.14Z"/><path class="cls-1" d="M56,22.51V.27h4.34V22.51Z"/><path class="cls-1" d="M79.1,22.51H69.79V.27h8.93c4.34,0,6.87,2.43,6.87,6.24a5.16,5.16,0,0,1-2.75,4.6,5.15,5.15,0,0,1,3.07,5C85.91,20.26,83.06,22.51,79.1,22.51ZM78.38,4.14H74.13V9.26h4.25c1.84,0,2.87-1,2.87-2.56S80.22,4.14,78.38,4.14Zm.28,9H74.13v5.46h4.53a2.63,2.63,0,0,0,2.9-2.75A2.61,2.61,0,0,0,78.66,13.17Z"/><path class="cls-1" d="M101.58,22.69c-4.56,0-8.18-3.09-8.18-7.81V.27h4.34V14.73c0,2.56,1.5,4.09,3.84,4.09s3.87-1.53,3.87-4.09V.27h4.31V14.88C109.76,19.6,106.14,22.69,101.58,22.69Z"/><path class="cls-1" d="M127.12,4.14V22.51h-4.34V4.14H117V.27h16V4.14Z"/><path class="cls-1" d="M139.44,22.51V.27h4.34V22.51Z"/><path class="cls-1" d="M9.79,4.55A4.33,4.33,0,0,0,6.32,3.11a3.93,3.93,0,0,0-3,1.36L1.21,2.79A6.61,6.61,0,0,1,6.17,0C8.61-.13,10.3,1.1,11.78,2.72Z"/><path class="cls-2" d="M14.39,28.12A11.63,11.63,0,0,1,3.22,19.88H0a14.78,14.78,0,0,0,23.78,8l-2.22-2.22A11.63,11.63,0,0,1,14.39,28.12Z"/><path class="cls-2" d="M32.94,31.21a2.5,2.5,0,0,1-.72-.1,1.46,1.46,0,0,1-.55-.36l.44-.45a.89.89,0,0,0,.37.23,1.66,1.66,0,0,0,.47.07c.4,0,.61-.15.61-.44a.37.37,0,0,0-.08-.26.48.48,0,0,0-.15-.11l-.18-.05-.42-.06a1.13,1.13,0,0,1-.68-.3.91.91,0,0,1-.24-.68,1,1,0,0,1,.32-.77,1.3,1.3,0,0,1,.88-.29,1.91,1.91,0,0,1,.63.09,1.26,1.26,0,0,1,.49.32l-.43.43a.63.63,0,0,0-.32-.19,1.26,1.26,0,0,0-.38-.06.58.58,0,0,0-.4.13.42.42,0,0,0-.14.32.59.59,0,0,0,0,.14.54.54,0,0,0,.11.14.61.61,0,0,0,.29.11l.41.06a1.17,1.17,0,0,1,.62.23.94.94,0,0,1,.25.36,1.33,1.33,0,0,1,.06.42,1,1,0,0,1-.36.79A1.44,1.44,0,0,1,32.94,31.21Z"/><path class="cls-2" d="M36.55,31.18V27.67h.68v3.51Z"/><path class="cls-2" d="M42.19,31.18V29.13l-.66,1.33h-.45l-.67-1.33v2.05h-.67V27.67h.66l.9,1.9.89-1.9h.68v3.51Z"/><path class="cls-2" d="M46.71,29.86h-.66v1.32h-.68V27.67h1.34a1.13,1.13,0,0,1,.84.31,1.09,1.09,0,0,1,.3.78,1.06,1.06,0,0,1-.31.78A1.1,1.1,0,0,1,46.71,29.86Zm0-1.58h-.63v1h.63a.48.48,0,0,0,.36-.13.45.45,0,0,0,.14-.35.46.46,0,0,0-.5-.48Z"/><path class="cls-2" d="M50.12,31.18V27.67h.68v2.9h1.57v.61Z"/><path class="cls-2" d="M54.61,31.18V27.67h2.28v.61h-1.6v.82h1.36v.61H55.29v.86h1.6v.61Z"/><path class="cls-2" d="M59.18,32V30.47h.69v1Z"/><path class="cls-2" d="M66.47,29.86h-.66v1.32h-.68V27.67h1.34a1.13,1.13,0,0,1,.84.31,1.09,1.09,0,0,1,.3.78,1.06,1.06,0,0,1-.31.78A1.1,1.1,0,0,1,66.47,29.86Zm0-1.58h-.63v1h.63a.48.48,0,0,0,.36-.13.45.45,0,0,0,.14-.35.46.46,0,0,0-.5-.48Z"/><path class="cls-2" d="M71.85,31.18l-.2-.62H70.42l-.21.62H69.5l1.26-3.51h.53l1.26,3.51ZM71,28.7,70.61,30h.86Z"/><path class="cls-2" d="M76.52,31.18l-.68-1.4h-.48v1.4h-.68V27.67H76a1.09,1.09,0,0,1,.81.3,1,1,0,0,1,.31.77,1,1,0,0,1-.18.59.92.92,0,0,1-.45.33l.77,1.52ZM76,28.28h-.63v.92H76a.48.48,0,0,0,.36-.13.42.42,0,0,0,.13-.33.45.45,0,0,0-.13-.34A.52.52,0,0,0,76,28.28Z"/><path class="cls-2" d="M81.52,31.18l-.2-.62H80.09l-.21.62h-.7l1.25-3.51H81l1.27,3.51Zm-.8-2.48L80.28,30h.86Z"/><path class="cls-2" d="M88.5,28.28v2.9h-.67v-2.9h-.91v-.61H89.4v.61Z"/><path class="cls-2" d="M93.75,30.82a1.27,1.27,0,0,1-.42.29,1.21,1.21,0,0,1-.52.1,1.27,1.27,0,0,1-.52-.1,1.37,1.37,0,0,1-.44-.31.9.9,0,0,1-.26-.51,4.79,4.79,0,0,1,0-.87,4.93,4.93,0,0,1,0-.87,1,1,0,0,1,.26-.51,1.54,1.54,0,0,1,.44-.31,1.42,1.42,0,0,1,.52-.09,1.46,1.46,0,0,1,.52.09,1.54,1.54,0,0,1,.44.31,1,1,0,0,1,.26.52,4.7,4.7,0,0,1,.06.86,5.94,5.94,0,0,1,0,.87A1.07,1.07,0,0,1,93.75,30.82Zm-.5-2.38a.55.55,0,0,0-.44-.19.7.7,0,0,0-.25.05.53.53,0,0,0-.32.44,5,5,0,0,0,0,.68,5.16,5.16,0,0,0,0,.7.65.65,0,0,0,.16.32.5.5,0,0,0,.41.16.49.49,0,0,0,.4-.15.76.76,0,0,0,.17-.35,5.22,5.22,0,0,0,0-.68,5,5,0,0,0,0-.68A.69.69,0,0,0,93.25,28.44Z"/><path class="cls-2" d="M98.64,30.85a1.09,1.09,0,0,1-.4.25,1.44,1.44,0,0,1-.51.08H96.48V27.67h1.25a1.44,1.44,0,0,1,.51.08,1.14,1.14,0,0,1,.43.28,1,1,0,0,1,.26.47,3.27,3.27,0,0,1,.06.69v.44a3.41,3.41,0,0,1-.06.71A1.1,1.1,0,0,1,98.64,30.85Zm-.47-2.35a.56.56,0,0,0-.21-.17.85.85,0,0,0-.3,0h-.51v2.29h.51a.58.58,0,0,0,.47-.16.73.73,0,0,0,.16-.36,5.28,5.28,0,0,0,0-.64,4.74,4.74,0,0,0,0-.61A.68.68,0,0,0,98.17,28.5Z"/><path class="cls-2" d="M103.47,30.82a1.14,1.14,0,0,1-.41.29,1.21,1.21,0,0,1-.52.1,1.24,1.24,0,0,1-.52-.1,1.37,1.37,0,0,1-.44-.31,1,1,0,0,1-.27-.51,5.94,5.94,0,0,1,0-.87,4.75,4.75,0,0,1,.06-.87,1,1,0,0,1,.26-.51,1.54,1.54,0,0,1,.44-.31,1.38,1.38,0,0,1,.52-.09,1.36,1.36,0,0,1,.51.09,1.42,1.42,0,0,1,.44.31,1,1,0,0,1,.27.52,4.7,4.7,0,0,1,.06.86,4.6,4.6,0,0,1-.06.87A.94.94,0,0,1,103.47,30.82Zm-.5-2.38a.51.51,0,0,0-.43-.19.66.66,0,0,0-.25.05.53.53,0,0,0-.32.44,5,5,0,0,0,0,.68,5.16,5.16,0,0,0,0,.7.65.65,0,0,0,.16.32.5.5,0,0,0,.41.16.49.49,0,0,0,.4-.15.76.76,0,0,0,.17-.35,5.22,5.22,0,0,0,0-.68,5,5,0,0,0,0-.68A.6.6,0,0,0,103,28.44Z"/><path class="cls-2" d="M109,31.18V27.67h2.28v.61h-1.6v.82h1.36v.61h-1.36v.86h1.6v.61Z"/><path class="cls-2" d="M113.67,31.18V27.67h.68v2.9h1.56v.61Z"/><path class="cls-2" d="M123.45,31.18V29.13l-.66,1.33h-.46l-.67-1.33v2.05H121V27.67h.66l.91,1.9.89-1.9h.67v3.51Z"/><path class="cls-2" d="M127.85,31.21a1.25,1.25,0,0,1-.91-.34,1.16,1.16,0,0,1-.37-.89V27.67h.68V30a.64.64,0,0,0,.16.47.56.56,0,0,0,.44.18.6.6,0,0,0,.44-.17.71.71,0,0,0,.16-.48V27.67h.67V30a1.18,1.18,0,0,1-.36.89A1.29,1.29,0,0,1,127.85,31.21Z"/><path class="cls-2" d="M133.61,31.18,132.25,29v2.15h-.68V27.67h.6l1.37,2.15V27.67h.68v3.51Z"/><path class="cls-2" d="M138.88,30.85a1,1,0,0,1-.4.25,1.44,1.44,0,0,1-.51.08h-1.25V27.67H138a1.37,1.37,0,0,1,.51.08,1.07,1.07,0,0,1,.43.28,1,1,0,0,1,.26.47,3.27,3.27,0,0,1,.06.69v.44a3.41,3.41,0,0,1-.06.71A1,1,0,0,1,138.88,30.85Zm-.47-2.35a.56.56,0,0,0-.21-.17.84.84,0,0,0-.29,0h-.51v2.29h.51a.56.56,0,0,0,.46-.16.73.73,0,0,0,.16-.36,4.81,4.81,0,0,0,0-.64,4.3,4.3,0,0,0,0-.61A.68.68,0,0,0,138.41,28.5Z"/><path class="cls-2" d="M143.71,30.82a1.14,1.14,0,0,1-.41.29,1.21,1.21,0,0,1-.52.1,1.24,1.24,0,0,1-.52-.1,1.37,1.37,0,0,1-.44-.31.9.9,0,0,1-.26-.51,4.6,4.6,0,0,1-.06-.87,4.75,4.75,0,0,1,.06-.87,1,1,0,0,1,.26-.51,1.54,1.54,0,0,1,.44-.31,1.38,1.38,0,0,1,.52-.09,1.46,1.46,0,0,1,.52.09,1.54,1.54,0,0,1,.44.31,1,1,0,0,1,.26.52,4.7,4.7,0,0,1,.06.86,5.94,5.94,0,0,1-.05.87A1,1,0,0,1,143.71,30.82Zm-.5-2.38a.51.51,0,0,0-.43-.19.7.7,0,0,0-.25.05.53.53,0,0,0-.32.44,5,5,0,0,0,0,.68,5.16,5.16,0,0,0,0,.7.65.65,0,0,0,.16.32.5.5,0,0,0,.41.16.49.49,0,0,0,.4-.15.76.76,0,0,0,.17-.35,5.22,5.22,0,0,0,0-.68,5,5,0,0,0,0-.68A.6.6,0,0,0,143.21,28.44Z"/></g></g></svg>