<svg xmlns="http://www.w3.org/2000/svg" viewBox="0 0 184.21 95.78"><defs><style>.cls-1{fill:#006a65;}.cls-2{fill:#fff;}.cls-3{fill:#8bc8a9;}</style></defs><title>plicacion sobre fondo</title><g id="Capa_2" data-name="Capa 2"><g id="Capa_1-2" data-name="Capa 1"><rect class="cls-1" width="184.21" height="95.78" rx="4.78" ry="4.78"/><polygon class="cls-2" points="33.17 32.06 43.56 32.06 43.56 35.93 37.51 35.93 37.51 54.3 33.17 54.3 33.17 32.06"/><path class="cls-2" d="M62.9,54.3l-4.35-8.87H55.43V54.3H51.09V32.06H59.8c4.53,0,7.22,3.09,7.22,6.81A6,6,0,0,1,63,44.71l5,9.59ZM59.52,35.93H55.43V41.8h4.09a2.94,2.94,0,1,0,0-5.87Z"/><path class="cls-2" d="M75.12,54.3V32.06h4.34V54.3Z"/><path class="cls-2" d="M98.18,54.3H88.87V32.06H97.8c4.34,0,6.87,2.44,6.87,6.25a5.15,5.15,0,0,1-2.74,4.59,5.17,5.17,0,0,1,3.06,5C105,52.05,102.14,54.3,98.18,54.3Zm-.72-18.37H93.21v5.13h4.25c1.84,0,2.87-1,2.87-2.57S99.3,35.93,97.46,35.93Zm.28,9H93.21v5.47h4.53a2.74,2.74,0,1,0,0-5.47Z"/><path class="cls-2" d="M120.66,54.49c-4.56,0-8.18-3.1-8.18-7.81V32.06h4.34V46.52c0,2.56,1.5,4.09,3.84,4.09s3.87-1.53,3.87-4.09V32.06h4.31V46.68C128.84,51.39,125.22,54.49,120.66,54.49Z"/><path class="cls-2" d="M146.2,35.93V54.3h-4.34V35.93H136V32.06h16v3.87Z"/><path class="cls-2" d="M158.52,54.3V32.06h4.34V54.3Z"/><path class="cls-2" d="M28.87,36.34A4.35,4.35,0,0,0,25.4,34.9a3.9,3.9,0,0,0-3,1.37l-2.12-1.69a6.64,6.64,0,0,1,5-2.78c2.44-.14,4.13,1.09,5.61,2.71Z"/><path class="cls-3" d="M33.47,59.91A11.63,11.63,0,0,1,22.3,51.67H19.08a14.78,14.78,0,0,0,23.78,8l-2.21-2.21A11.74,11.74,0,0,1,33.47,59.91Z"/><path class="cls-3" d="M52,63a2.2,2.2,0,0,1-.72-.1,1.46,1.46,0,0,1-.55-.36l.44-.44a.87.87,0,0,0,.37.22,1.41,1.41,0,0,0,.47.07c.4,0,.61-.14.61-.43a.38.38,0,0,0-.08-.27.72.72,0,0,0-.15-.11l-.18,0-.42-.06a1.14,1.14,0,0,1-.68-.31.89.89,0,0,1-.24-.67,1,1,0,0,1,.32-.78,1.3,1.3,0,0,1,.88-.29,1.91,1.91,0,0,1,.63.09,1.38,1.38,0,0,1,.49.32l-.43.43a.7.7,0,0,0-.32-.19,1.24,1.24,0,0,0-.38,0,.58.58,0,0,0-.4.12.42.42,0,0,0-.14.32.59.59,0,0,0,0,.14.42.42,0,0,0,.11.14.61.61,0,0,0,.29.11l.41.06a1.17,1.17,0,0,1,.62.23,1.12,1.12,0,0,1,.25.36,1.4,1.4,0,0,1,.06.43.94.94,0,0,1-.36.78A1.44,1.44,0,0,1,52,63Z"/><path class="cls-3" d="M55.63,63V59.46h.68V63Z"/><path class="cls-3" d="M61.27,63v-2l-.66,1.33h-.45l-.67-1.33v2h-.67V59.46h.66l.9,1.9.89-1.9H62V63Z"/><path class="cls-3" d="M65.79,61.65h-.66V63h-.68V59.46h1.34a1.13,1.13,0,0,1,.84.31,1.1,1.1,0,0,1-.84,1.88Zm0-1.58h-.63v1h.63a.52.52,0,0,0,.36-.12.48.48,0,0,0,.14-.35.45.45,0,0,0-.14-.35A.49.49,0,0,0,65.76,60.07Z"/><path class="cls-3" d="M69.2,63V59.46h.68v2.91h1.57V63Z"/><path class="cls-3" d="M73.7,63V59.46H76v.61h-1.6v.83h1.37v.61H74.37v.86H76V63Z"/><path class="cls-3" d="M78.26,63.79V62.27H79v1Z"/><path class="cls-3" d="M85.55,61.65h-.66V63h-.68V59.46h1.34a1.13,1.13,0,0,1,.84.31,1.1,1.1,0,0,1-.84,1.88Zm0-1.58h-.63v1h.63a.52.52,0,0,0,.36-.12.48.48,0,0,0,.14-.35.45.45,0,0,0-.14-.35A.49.49,0,0,0,85.52,60.07Z"/><path class="cls-3" d="M90.93,63l-.2-.63H89.5l-.21.63h-.71l1.26-3.52h.53L91.63,63Zm-.81-2.48-.43,1.27h.86Z"/><path class="cls-3" d="M95.6,63l-.68-1.41h-.48V63h-.68V59.46h1.36a1.06,1.06,0,0,1,.81.31,1,1,0,0,1,.31.77.93.93,0,0,1-.18.58,1,1,0,0,1-.45.34L96.38,63Zm-.53-2.91h-.63V61h.63a.52.52,0,0,0,.36-.12.45.45,0,0,0,.13-.34.42.42,0,0,0-.13-.33A.48.48,0,0,0,95.07,60.07Z"/><path class="cls-3" d="M100.6,63l-.2-.63H99.17L99,63h-.7l1.26-3.52H100L101.31,63Zm-.8-2.48-.44,1.27h.86Z"/><path class="cls-3" d="M107.58,60.07V63h-.67V60.07H106v-.61h2.48v.61Z"/><path class="cls-3" d="M112.83,62.62a1.44,1.44,0,0,1-.42.29,1.38,1.38,0,0,1-.52.09,1.46,1.46,0,0,1-.52-.09,1.41,1.41,0,0,1-.44-.32.9.9,0,0,1-.26-.5,7.59,7.59,0,0,1,0-1.74,1,1,0,0,1,.26-.51,1.32,1.32,0,0,1,.44-.31,1.31,1.31,0,0,1,1.48.31,1,1,0,0,1,.27.51,6.15,6.15,0,0,1,0,.87,5.94,5.94,0,0,1,0,.87A1.12,1.12,0,0,1,112.83,62.62Zm-.5-2.39a.57.57,0,0,0-.44-.19.7.7,0,0,0-.25.05.53.53,0,0,0-.32.44,7.95,7.95,0,0,0,0,1.38.64.64,0,0,0,.16.33.53.53,0,0,0,.41.15.48.48,0,0,0,.4-.15.68.68,0,0,0,.17-.35,5.8,5.8,0,0,0,0-1.36A.69.69,0,0,0,112.33,60.23Z"/><path class="cls-3" d="M117.72,62.64a1.09,1.09,0,0,1-.4.25,1.44,1.44,0,0,1-.51.09h-1.25V59.46h1.25a1.7,1.7,0,0,1,.51.08,1.17,1.17,0,0,1,.43.29,1,1,0,0,1,.26.47,3.1,3.1,0,0,1,.06.68v.45a3.37,3.37,0,0,1-.06.7A1,1,0,0,1,117.72,62.64Zm-.47-2.35a.54.54,0,0,0-.21-.16.65.65,0,0,0-.29-.06h-.51v2.3h.51a.57.57,0,0,0,.46-.17.73.73,0,0,0,.16-.36,4.71,4.71,0,0,0,0-.64,4.4,4.4,0,0,0,0-.61A.68.68,0,0,0,117.25,60.29Z"/><path class="cls-3" d="M122.55,62.62a1.28,1.28,0,0,1-.41.29,1.38,1.38,0,0,1-.52.09,1.18,1.18,0,0,1-1-.41,1,1,0,0,1-.27-.5,5.94,5.94,0,0,1,0-.87,4.6,4.6,0,0,1,.06-.87.9.9,0,0,1,.26-.51,1.23,1.23,0,0,1,.44-.31,1.21,1.21,0,0,1,.52-.1,1.19,1.19,0,0,1,.51.1,1.15,1.15,0,0,1,.44.31.91.91,0,0,1,.27.51,4.75,4.75,0,0,1,.06.87,4.6,4.6,0,0,1-.06.87A1,1,0,0,1,122.55,62.62Zm-.5-2.39a.54.54,0,0,0-.43-.19.66.66,0,0,0-.25.05.53.53,0,0,0-.32.44,8,8,0,0,0,0,1.38.64.64,0,0,0,.16.33.53.53,0,0,0,.41.15.49.49,0,0,0,.4-.15.76.76,0,0,0,.17-.35,7.72,7.72,0,0,0,0-1.36A.6.6,0,0,0,122.05,60.23Z"/><path class="cls-3" d="M128.11,63V59.46h2.28v.61h-1.6v.83h1.36v.61h-1.36v.86h1.6V63Z"/><path class="cls-3" d="M132.75,63V59.46h.68v2.91H135V63Z"/><path class="cls-3" d="M142.53,63v-2l-.66,1.33h-.46l-.67-1.33v2h-.67V59.46h.66l.91,1.9.89-1.9h.67V63Z"/><path class="cls-3" d="M146.93,63a1.25,1.25,0,0,1-.91-.34,1.13,1.13,0,0,1-.37-.89V59.46h.68v2.28a.68.68,0,0,0,.16.48.59.59,0,0,0,.44.17.6.6,0,0,0,.44-.17.69.69,0,0,0,.16-.48V59.46h.67v2.31a1.15,1.15,0,0,1-.36.89A1.29,1.29,0,0,1,146.93,63Z"/><path class="cls-3" d="M152.7,63l-1.37-2.16V63h-.68V59.46h.6l1.37,2.15V59.46h.68V63Z"/><path class="cls-3" d="M158,62.64a1,1,0,0,1-.4.25,1.44,1.44,0,0,1-.51.09H155.8V59.46h1.25a1.6,1.6,0,0,1,.51.08,1.09,1.09,0,0,1,.43.29.88.88,0,0,1,.26.47,3.1,3.1,0,0,1,.06.68v.45a3.37,3.37,0,0,1-.06.7A1,1,0,0,1,158,62.64Zm-.47-2.35a.42.42,0,0,0-.21-.16.65.65,0,0,0-.29-.06h-.51v2.3H157a.56.56,0,0,0,.46-.17.73.73,0,0,0,.16-.36,4.71,4.71,0,0,0,0-.64,4.4,4.4,0,0,0,0-.61A.68.68,0,0,0,157.49,60.29Z"/><path class="cls-3" d="M162.8,62.62a1.44,1.44,0,0,1-.42.29,1.35,1.35,0,0,1-.52.09,1.46,1.46,0,0,1-.52-.09,1.41,1.41,0,0,1-.44-.32.9.9,0,0,1-.26-.5,4.79,4.79,0,0,1,0-.87,5.94,5.94,0,0,1,0-.87.91.91,0,0,1,.27-.51,1.2,1.2,0,0,1,.43-.31,1.24,1.24,0,0,1,.52-.1,1.21,1.21,0,0,1,.52.1,1.23,1.23,0,0,1,.44.31,1,1,0,0,1,.27.51,6.15,6.15,0,0,1,0,.87,5.94,5.94,0,0,1,0,.87A1,1,0,0,1,162.8,62.62Zm-.5-2.39a.57.57,0,0,0-.44-.19.7.7,0,0,0-.25.05.53.53,0,0,0-.19.15.56.56,0,0,0-.13.29,8,8,0,0,0,0,1.38.73.73,0,0,0,.16.33.53.53,0,0,0,.41.15.48.48,0,0,0,.4-.15.68.68,0,0,0,.17-.35,4.59,4.59,0,0,0,0-.67,3.53,3.53,0,0,0,0-.69A.69.69,0,0,0,162.3,60.23Z"/></g></g></svg>