<svg id="Capa_1" data-name="Capa 1" xmlns="http://www.w3.org/2000/svg" xmlns:xlink="http://www.w3.org/1999/xlink" viewBox="0 0 354.15 54.8"><defs><style>.cls-1,.cls-2,.cls-5{fill:none;}.cls-2{clip-path:url(#clip-path);}.cls-11,.cls-13,.cls-3,.cls-4{fill:#3cb28d;}.cls-3{clip-path:url(#clip-path-2);}.cls-3,.cls-4,.cls-5{clip-rule:evenodd;}.cls-6{opacity:0.28;}.cls-7{clip-path:url(#clip-path-4);}.cls-8{clip-path:url(#clip-path-5);}.cls-9{clip-path:url(#clip-path-6);}.cls-10{clip-path:url(#clip-path-7);}.cls-11,.cls-22{fill-rule:evenodd;}.cls-12{clip-path:url(#clip-path-8);}.cls-14{clip-path:url(#clip-path-9);}.cls-15{clip-path:url(#clip-path-10);}.cls-16{clip-path:url(#clip-path-11);}.cls-17{clip-path:url(#clip-path-16);}.cls-18{clip-path:url(#clip-path-17);}.cls-19{fill:#006862;}.cls-20{fill:#00a287;}.cls-21,.cls-22{fill:#1b1912;}.cls-23{fill:#7d8081;}.cls-24{fill:#feea10;}.cls-25{fill:#e1251b;}.cls-26{fill:#1b120c;}.cls-27{fill:#2aa0b1;}.cls-28{fill:#767e80;}.cls-29{clip-path:url(#clip-path-18);}.cls-30{clip-path:url(#clip-path-19);}.cls-31{clip-path:url(#clip-path-21);}.cls-32{clip-path:url(#clip-path-22);}</style><clipPath id="clip-path"><path id="SVGID" class="cls-1" d="M-597.26,615.34"/></clipPath><clipPath id="clip-path-2"><path id="SVGID-2" data-name="SVGID" class="cls-4" d="M-597.26,615.34"/></clipPath><clipPath id="clip-path-4"><path id="SVGID-4" data-name="SVGID" class="cls-2" d="M-127,615.38S-92.56,566-95,543.26c-1.42-13.06-7.23-10.64-12.15-8.21-3.66,1.8-6.83,3.61-7.36-.92-1.24-10.63,33.81-74-13-98.93-21.91-11.67-39.67-10.13-55.85-8.57-18.42,1.76-34.81,3.54-53-14.14-6.51-6.32,4.93-57.77-22.58-105.71-13.8-24.06-46.42-51.48-77.94-63.34-69.94-26.32-121.8-16.6-159.61,7.52-45.49,29-70.63,78.88-82.43,111.91-6.06,17-20.66,11-36.89,5-15.71-5.79-32.94-11.59-45.41,3.43-49.67,59.86,49.5,220.23,64,244Z"/></clipPath><clipPath id="clip-path-5"><path id="SVGID-5" data-name="SVGID" class="cls-1" d="M-198.95-63.52l54.42.32c20.35.12,31.54-5.91,37.84-16.22,5.74-9.38,9.77-20.73,2.49-28.09-15.42-15.6-32.57,3.16-32.57,3.16s3.9-40.64-25.67-40.6c-31.28,0-31.3,58.65-31.3,58.65s-21.19-21.87-27-5.11c-1.68,4.83.06,9.7,3,14,6.23,9,16.59,13.89,18.75,13.91"/></clipPath><clipPath id="clip-path-6"><path id="SVGID-6" data-name="SVGID" class="cls-1" d="M-567.53-79.55l-56.42-.33C-645-80-656.56-86.39-663-97.16c-5.83-9.8-9.87-21.6-2.24-29.15,16.18-16,33.72,3.68,33.72,3.68s-3.54-42.17,27.11-41.76c32.42.42,31.72,61.17,31.72,61.17s22.23-22.41,28-5c1.68,5-.18,10.06-3.31,14.46-6.57,9.22-17.37,14.2-19.6,14.18"/></clipPath><clipPath id="clip-path-7"><path id="SVGID-7" data-name="SVGID" class="cls-1" d="M-616.8,209.88c14,.37,23,15.18,17.48,28-7.27,16.94-22.28,52.5-24.31,61.88-2.67,12.44-40.62-28.26-24.41-66,7.65-17.81,20.27-24.14,31.24-23.86"/></clipPath><clipPath id="clip-path-8"><path id="SVGID-8" data-name="SVGID" class="cls-3" d="M-127,615.38S-92.56,566-95,543.26c-1.42-13.06-7.23-10.64-12.15-8.21-3.66,1.8-6.83,3.61-7.36-.92-1.24-10.63,33.81-74-13-98.93-21.91-11.67-39.67-10.13-55.85-8.57-18.42,1.76-34.81,3.54-53-14.14-6.51-6.32,4.93-57.77-22.58-105.71-13.8-24.06-46.42-51.48-77.94-63.34-69.94-26.32-121.8-16.6-159.61,7.52-45.49,29-70.63,78.88-82.43,111.91-6.06,17-20.66,11-36.89,5-15.71-5.79-32.94-11.59-45.41,3.43-49.67,59.86,49.5,220.23,64,244Z"/></clipPath><clipPath id="clip-path-9"><path id="SVGID-9" data-name="SVGID" class="cls-4" d="M-198.95-63.52l54.42.32c20.35.12,31.54-5.91,37.84-16.22,5.74-9.38,9.77-20.73,2.49-28.09-15.42-15.6-32.57,3.16-32.57,3.16s3.9-40.64-25.67-40.6c-31.28,0-31.3,58.65-31.3,58.65s-21.19-21.87-27-5.11c-1.68,4.83.06,9.7,3,14,6.23,9,16.59,13.89,18.75,13.91"/></clipPath><clipPath id="clip-path-10"><path id="SVGID-10" data-name="SVGID" class="cls-4" d="M-567.53-79.55l-56.42-.33C-645-80-656.56-86.39-663-97.16c-5.83-9.8-9.87-21.6-2.24-29.15,16.18-16,33.72,3.68,33.72,3.68s-3.54-42.17,27.11-41.76c32.42.42,31.72,61.17,31.72,61.17s22.23-22.41,28-5c1.68,5-.18,10.06-3.31,14.46-6.57,9.22-17.37,14.2-19.6,14.18"/></clipPath><clipPath id="clip-path-11"><path id="SVGID-11" data-name="SVGID" class="cls-4" d="M-616.8,209.88c14,.37,23,15.18,17.48,28-7.27,16.94-22.28,52.5-24.31,61.88-2.67,12.44-40.62-28.26-24.41-66,7.65-17.81,20.27-24.14,31.24-23.86"/></clipPath><clipPath id="clip-path-16"><path class="cls-5" d="M150.72,141.85v-.45H133.46a1.25,1.25,0,0,1-1.26-1.26V122.88a1.26,1.26,0,0,1,1.26-1.26h17.26a1.27,1.27,0,0,1,1.26,1.26v17.26a1.26,1.26,0,0,1-1.26,1.26v.91a2.17,2.17,0,0,0,2.16-2.17V122.88a2.16,2.16,0,0,0-2.16-2.16H133.46a2.16,2.16,0,0,0-2.16,2.16v17.26a2.17,2.17,0,0,0,2.16,2.17h17.26v-.46"/></clipPath><clipPath id="clip-path-17"><path class="cls-5" d="M142.59,138.9a1.47,1.47,0,0,1-1.16-.58l-7.51-9.58a1.65,1.65,0,0,1,.2-2.25,1.45,1.45,0,0,1,2.12.22l6.19,7.88,13.34-22.22a1.48,1.48,0,0,1,2.09-.49,1.64,1.64,0,0,1,.47,2.2l-14.46,24.07a1.48,1.48,0,0,1-1.18.74h-.1"/></clipPath><clipPath id="clip-path-18"><path id="SVGID-16" data-name="SVGID" class="cls-1" d="M1416.66-63.52l54.43.32c20.35.12,31.53-5.91,37.84-16.22,5.73-9.38,9.77-20.73,2.49-28.09-15.43-15.6-32.57,3.16-32.57,3.16s3.9-40.64-25.68-40.6c-31.28,0-31.3,58.65-31.3,58.65s-21.18-21.87-27-5.11c-1.67,4.83.07,9.7,3,14,6.22,9,16.59,13.89,18.74,13.91"/></clipPath><clipPath id="clip-path-19"><path id="SVGID-17" data-name="SVGID" class="cls-4" d="M1416.66-63.52l54.43.32c20.35.12,31.53-5.91,37.84-16.22,5.73-9.38,9.77-20.73,2.49-28.09-15.43-15.6-32.57,3.16-32.57,3.16s3.9-40.64-25.68-40.6c-31.28,0-31.3,58.65-31.3,58.65s-21.18-21.87-27-5.11c-1.67,4.83.07,9.7,3,14,6.22,9,16.59,13.89,18.74,13.91"/></clipPath><clipPath id="clip-path-21"><path id="SVGID-19" data-name="SVGID" class="cls-1" d="M-1197.64-79.55l-56.42-.33c-21.09-.13-32.61-6.51-39-17.28-5.84-9.8-9.88-21.6-2.24-29.15,16.18-16,33.72,3.68,33.72,3.68s-3.54-42.17,27.11-41.76c32.42.42,31.72,61.17,31.72,61.17s22.23-22.41,28-5c1.68,5-.19,10.06-3.32,14.46-6.56,9.22-17.36,14.2-19.6,14.18"/></clipPath><clipPath id="clip-path-22"><path id="SVGID-20" data-name="SVGID" class="cls-4" d="M-1197.64-79.55l-56.42-.33c-21.09-.13-32.61-6.51-39-17.28-5.84-9.8-9.88-21.6-2.24-29.15,16.18-16,33.72,3.68,33.72,3.68s-3.54-42.17,27.11-41.76c32.42.42,31.72,61.17,31.72,61.17s22.23-22.41,28-5c1.68,5-.19,10.06-3.32,14.46-6.56,9.22-17.36,14.2-19.6,14.18"/></clipPath></defs><title>Mesa de trabajo 6</title><g class="cls-6"><path id="SVGID-22" data-name="SVGID" class="cls-11" d="M-597.26,615.34"/><path id="SVGID-23" data-name="SVGID" class="cls-11" d="M-127,615.38S-92.56,566-95,543.26c-1.42-13.06-7.23-10.64-12.15-8.21-3.66,1.8-6.83,3.61-7.36-.92-1.24-10.63,33.81-74-13-98.93-21.91-11.67-39.67-10.13-55.85-8.57-18.42,1.76-34.81,3.54-53-14.14-6.51-6.32,4.93-57.77-22.58-105.71-13.8-24.06-46.42-51.48-77.94-63.34-69.94-26.32-121.8-16.6-159.61,7.52-45.49,29-70.63,78.88-82.43,111.91-6.06,17-20.66,11-36.89,5-15.71-5.79-32.94-11.59-45.41,3.43-49.67,59.86,49.5,220.23,64,244Z"/><g class="cls-12"><rect id="SVGID-24" data-name="SVGID" class="cls-13" x="-1079.78" y="175.64" width="1398.55" height="988.29" transform="translate(-1048.02 285.31) rotate(-89.66)"/></g><path id="SVGID-25" data-name="SVGID" class="cls-11" d="M-198.95-63.52l54.42.32c20.35.12,31.54-5.91,37.84-16.22,5.74-9.38,9.77-20.73,2.49-28.09-15.42-15.6-32.57,3.16-32.57,3.16s3.9-40.64-25.67-40.6c-31.28,0-31.3,58.65-31.3,58.65s-21.19-21.87-27-5.11c-1.68,4.83.06,9.7,3,14,6.23,9,16.59,13.89,18.75,13.91"/><g class="cls-14"><rect id="SVGID-26" data-name="SVGID" class="cls-13" x="-1787.93" y="-469.89" width="2370.38" height="1675.03" transform="matrix(0.01, -1, 1, 0.01, -966.78, -237.27)"/></g><path id="SVGID-27" data-name="SVGID" class="cls-11" d="M-567.53-79.55l-56.42-.33C-645-80-656.56-86.39-663-97.16c-5.83-9.8-9.87-21.6-2.24-29.15,16.18-16,33.72,3.68,33.72,3.68s-3.54-42.17,27.11-41.76c32.42.42,31.72,61.17,31.72,61.17s22.23-22.41,28-5c1.68,5-.18,10.06-3.31,14.46-6.57,9.22-17.37,14.2-19.6,14.18"/><g class="cls-15"><rect id="SVGID-28" data-name="SVGID" class="cls-13" x="-1382.85" y="-495.84" width="2457.07" height="1736.29" transform="translate(-525.7 215.78) rotate(-89.66)"/></g><path id="SVGID-29" data-name="SVGID" class="cls-11" d="M-616.8,209.88c14,.37,23,15.18,17.48,28-7.27,16.94-22.28,52.5-24.31,61.88-2.67,12.44-40.62-28.26-24.41-66,7.65-17.81,20.27-24.14,31.24-23.86"/><g class="cls-16"><rect id="SVGID-30" data-name="SVGID" class="cls-13" x="-1426.97" y="42.39" width="2282.99" height="1613.27" transform="translate(-1132.8 558.53) rotate(-89.66)"/></g></g><path class="cls-19" d="M8.88,20.62h6.55v2.44H11.62V34.64H8.88Zm18.74,14-2.73-5.59h-2v5.59H20.18v-14h5.49a4.24,4.24,0,0,1,4.55,4.31,3.77,3.77,0,0,1-2.56,3.69l3.13,6.05ZM25.49,23.06H22.92v3.69h2.57a1.85,1.85,0,1,0,0-3.69Zm9.84,11.58v-14h2.74v14Zm14.54,0H44v-14h5.63c2.74,0,4.34,1.54,4.34,3.94a3.23,3.23,0,0,1-1.74,2.89,3.26,3.26,0,0,1,1.93,3.15C54.16,33.22,52.37,34.64,49.87,34.64Zm-.46-11.58H46.73V26.3h2.68a1.63,1.63,0,1,0,0-3.24Zm.18,5.7H46.73v3.45h2.86a1.66,1.66,0,0,0,1.83-1.73A1.65,1.65,0,0,0,49.59,28.76Zm14.45,6a4.87,4.87,0,0,1-5.16-4.92V20.62h2.75v9.12a2.44,2.44,0,1,0,4.87,0V20.62h2.71v9.23A4.88,4.88,0,0,1,64,34.76Zm16.1-11.7V34.64H77.4V23.06H73.74V20.62H83.79v2.44Zm7.77,11.58v-14h2.74v14ZM6.17,23.32A2.72,2.72,0,0,0,4,22.41a2.47,2.47,0,0,0-1.88.86L.76,22.21a4.21,4.21,0,0,1,3.13-1.76,4.32,4.32,0,0,1,3.54,1.71Z"/><path class="cls-20" d="M9.07,38.18A7.34,7.34,0,0,1,2,33H0a9.31,9.31,0,0,0,15,5l-1.4-1.4A7.33,7.33,0,0,1,9.07,38.18Z"/><path class="cls-21" d="M331.38,22.61h-.46c-2.47,0-4.78,1.81-4.88,5.35-.09,3.21,1.58,5.46,4.41,5.46a3.46,3.46,0,0,0,3.15-1.62c.13,1.08.71,1.42,1.88,1.42V22.61Zm2.11,6.25a2.62,2.62,0,0,1-2.67,2.86c-1.64,0-2.81-1.1-2.73-3.74s1.29-3.66,2.91-3.66h2.49Z"/><path class="cls-21" d="M314.9,22.53v7.36c0,1.07-.88,1.61-2,1.61s-2.05-.54-2.05-1.61V24.38a1.65,1.65,0,0,0-1.86-1.86v7.82c0,2,1.78,2.94,3.86,2.94s4-1,4-2.94V24.62c0-1.55-.57-2.09-1.86-2.09"/><path class="cls-21" d="M319.43,26.59v6.56h1.86V26.52a2,2,0,0,1,2.19-2.25H324c1.63,0,1.89-.84,1.89-1.75h-2.59c-2.3,0-3.89,1.34-3.89,4.07"/><path class="cls-21" d="M304.15,27.28l-2.27-.62c-.63-.17-1.19-.45-1.19-1.21s.48-1.18,1.49-1.18h2c.9,0,1.95-.29,1.95-1.74h-3.79c-2.34,0-3.67,1.18-3.67,2.87s1,2.47,2.78,2.94l2,.52a1.28,1.28,0,0,1,1.11,1.26c0,.79-.5,1.27-1.73,1.28l-3.78,0v1.72h3.85c2.34,0,3.67-1.26,3.67-2.91s-.65-2.48-2.4-3"/><path class="cls-22" d="M346.45,35.54s0,0,0,.05A2.47,2.47,0,0,1,345.33,37a1.83,1.83,0,0,1-1.65.19.07.07,0,0,1,0-.06s0,0,.05-.05a7.34,7.34,0,0,0,2.72-1.53h0Zm.12-1.87a16.64,16.64,0,0,1-3.44,1.4,9.5,9.5,0,0,1-3.55.52A1.93,1.93,0,0,1,338.4,35s0,0,0-.05a.06.06,0,0,1,.05-.06h.28c.61,0,1.69-.07,3-.26a29.14,29.14,0,0,0,4.9-1s0,0,0,.07m.11.63s0,0,0,.06a5.23,5.23,0,0,1-1,.9,10.19,10.19,0,0,1-1.5.87,9.44,9.44,0,0,1-1.58.63,4.28,4.28,0,0,1-1.52.16,1.63,1.63,0,0,1-.84-.32.05.05,0,0,1,0,0,.1.1,0,0,1,.06-.05,21.28,21.28,0,0,0,3.64-.92,11.64,11.64,0,0,0,2.71-1.29M352.47,29s0,0,0,.07c-.53.44-2.92,2.43-4.22,3.49l0,0c-.37.28-.63.35-.66-.27,0-.15,0-.27,0-.27s0-.13.07-.16c.41-.26,1.22-.71,1.86-1.09,1.15-.68,2.49-1.5,3-1.81m-1.76,2.66a0,0,0,0,1,0,.07c-.52.59-2.42,2.7-3.29,3.62-.09.09-.14.05-.1,0a6.79,6.79,0,0,0,.24-.72.67.67,0,0,1,.19-.44c1.12-.94,2.19-1.88,2.9-2.46Zm2.36-3.7s.05,0,.05,0,0,0,0,.05c-.24.16-5.6,2.37-5.65,2.39a.62.62,0,0,1-.86-.26l-.23-.36s-.08-.09.08-.13c0,0,1.51-.41,2.85-.75,1.55-.38,3.31-.83,3.77-1m.56-.76a0,0,0,0,1,0,0,0,0,0,0,1,0,0l-7.91,1.09h-.26a1.55,1.55,0,0,1-1-.53,1.65,1.65,0,0,1-.34-.54s0,0,0,0,0,0,.05,0h9.45m.49-.66s0,0,0,0,0,0,0,0l-10.88-.76a1,1,0,0,1-.25-.05,2.14,2.14,0,0,1-1.41-1.45.06.06,0,0,1,0-.06.07.07,0,0,1,.06,0l12.5,2.28m-2-1.9c0,.05,0,.06,0,.05l-2.33-1.14c-.8-.4-6.32-3-6.7-3.2l-.65-.33-.28-.16a1.94,1.94,0,0,1-.54-.46,2.48,2.48,0,0,1-.28-.51,2.79,2.79,0,0,1-.14-1,.08.08,0,0,1,0,0h.07l.69.42.37.23,2,1.23c2.81,1.76,6.76,4.27,7.79,4.92m1.2,1.13a.05.05,0,0,1,0,0,0,0,0,0,1-.06,0l-1.79-.49-9.16-2.48h0a2.25,2.25,0,0,1-1-.64A1.6,1.6,0,0,1,341,22a2.47,2.47,0,0,1-.31-1l0,0s0,0,.07,0l1.17.46c2.78,1.07,10.14,3.94,11.34,4.42"/><path class="cls-23" d="M299,15H300a.84.84,0,0,1,.89.95.81.81,0,0,1-.72.89h0c.59,0,.7.4.7.89v.38a.85.85,0,0,0,.12.49h-.25a1.22,1.22,0,0,1-.09-.49v-.37c0-.52-.14-.82-.72-.82h-.77V18.6H299Zm.89,1.76c.4,0,.85-.13.85-.81a.69.69,0,0,0-.71-.78h-.81v1.59Z"/><path class="cls-23" d="M301.6,17.26c0,.43,0,1.22.62,1.22s.65-.55.65-.75h.19a.85.85,0,0,1-.82.93c-.68,0-.85-.56-.85-1.46s.28-1.3.88-1.3.82.51.82,1.36Zm1.28-.17c0-.48-.08-1-.62-1s-.66.68-.66,1Z"/><path class="cls-23" d="M304.63,16.7v-.08c0-.24-.06-.55-.49-.55a.46.46,0,0,0-.51.49.51.51,0,0,0,.39.52l.41.15a.69.69,0,0,1,.48.7.73.73,0,0,1-.77.73c-.73,0-.78-.53-.78-.84v-.07h.19v.09c0,.37.15.64.59.64a.5.5,0,0,0,.55-.55.53.53,0,0,0-.39-.54l-.39-.15a.68.68,0,0,1,.23-1.34c.58,0,.68.39.68.72v.08Z"/><path class="cls-23" d="M305.29,16h.19v.46h0a.66.66,0,0,1,.67-.52c.63,0,.82.6.82,1.37s-.21,1.39-.83,1.39a.64.64,0,0,1-.66-.57h0v1.39h-.19Zm.83,2.52c.52,0,.64-.54.64-1.21,0-.85-.24-1.2-.6-1.2s-.68.38-.68,1.2.17,1.21.64,1.21"/><path class="cls-23" d="M308.84,18.28c0,.12.05.17.12.17a.25.25,0,0,0,.12,0v.15a.37.37,0,0,1-.2.05.26.26,0,0,1-.23-.29v-.17h0a.7.7,0,0,1-.69.49c-.46,0-.66-.33-.66-.74a.66.66,0,0,1,.53-.73l.57-.15c.23-.06.26-.17.26-.39,0-.48-.22-.58-.51-.58s-.58.27-.58.64h-.19a.71.71,0,0,1,.75-.81c.58,0,.72.31.72.69Zm-.19-1.22h0c-.07.1-.14.12-.33.17l-.39.11a.52.52,0,0,0-.42.58c0,.34.15.56.48.56s.67-.35.67-.88Z"/><rect class="cls-23" x="309.4" y="14.99" width="0.19" height="3.6"/><path class="cls-23" d="M311.56,18.09h0a.63.63,0,0,1-.66.57c-.62,0-.83-.57-.83-1.39s.19-1.37.84-1.37a.67.67,0,0,1,.65.52h0V15h.19V18.6h-.19Zm-.64.39c.47,0,.64-.44.64-1.21s-.25-1.2-.65-1.2-.63.39-.63,1.2.12,1.21.64,1.21"/><path class="cls-23" d="M313.69,18.28c0,.12.05.17.12.17a.22.22,0,0,0,.12,0v.15a.34.34,0,0,1-.2.05.26.26,0,0,1-.23-.29v-.17h0a.69.69,0,0,1-.69.49c-.46,0-.66-.33-.66-.74a.66.66,0,0,1,.53-.73l.58-.15c.22-.06.25-.17.25-.39,0-.48-.22-.58-.51-.58-.44,0-.57.27-.57.64h-.19c0-.36.13-.81.74-.81s.72.31.72.69Zm-.19-1.22h0c-.06.1-.13.12-.33.17l-.39.11a.52.52,0,0,0-.42.58c0,.34.15.56.49.56s.66-.35.66-.88Z"/><path class="cls-23" d="M315.67,18.09h0a.65.65,0,0,1-.67.57c-.61,0-.82-.57-.82-1.39s.18-1.37.83-1.37a.68.68,0,0,1,.66.52h0V15h.19V18.6h-.19Zm-.65.39c.47,0,.65-.44.65-1.21s-.26-1.2-.66-1.2-.63.39-.63,1.2.12,1.21.64,1.21"/><path class="cls-23" d="M317.19,18.66c-.7,0-.87-.62-.87-1.39s.17-1.37.9-1.37.86.62.86,1.37-.17,1.39-.89,1.39m0-2.59c-.5,0-.67.45-.67,1.21s.17,1.2.67,1.2.67-.44.67-1.2-.16-1.21-.67-1.21"/><path class="cls-23" d="M319.75,16h.19v.46h0a.67.67,0,0,1,.68-.52c.62,0,.81.6.81,1.37s-.2,1.39-.82,1.39a.65.65,0,0,1-.67-.57h0v1.39h-.19Zm.84,2.52c.52,0,.64-.54.64-1.21,0-.85-.25-1.2-.61-1.2s-.68.38-.68,1.2.18,1.21.65,1.21"/><path class="cls-23" d="M322.69,18.66c-.7,0-.87-.62-.87-1.39s.17-1.37.9-1.37.87.62.87,1.37-.17,1.39-.9,1.39m0-2.59c-.5,0-.67.45-.67,1.21s.17,1.2.67,1.2.68-.44.68-1.2-.17-1.21-.68-1.21"/><path class="cls-23" d="M324,16h.2v.46h0a.66.66,0,0,1,.66-.52H325v.17h-.11c-.45,0-.67.42-.67.85V18.6H324Z"/><path class="cls-23" d="M325.49,16.09h.21v.51h-.21Zm0,2h.21v.51h-.21Z"/><path class="cls-24" d="M277.35,27.4A27.4,27.4,0,1,0,250,54.8a27.39,27.39,0,0,0,27.39-27.4"/><path class="cls-21" d="M237,25.76a6.1,6.1,0,0,0-1-2.11,4.85,4.85,0,0,0-1.75-1.48,5.25,5.25,0,0,0-2.49-.56,5.77,5.77,0,0,0-2.31.45,5.38,5.38,0,0,0-1.81,1.25,5.3,5.3,0,0,0-1.17,1.87,6.52,6.52,0,0,0-.4,2.31,6.61,6.61,0,0,0,.39,2.36,5.47,5.47,0,0,0,1.14,1.87,5.15,5.15,0,0,0,1.8,1.21,6.39,6.39,0,0,0,2.36.41,5.89,5.89,0,0,0,3.24-.86,4.23,4.23,0,0,0,1.18-1.17A6.16,6.16,0,0,0,237,29.6l.08-.23s0-.1-.08-.1H234.1c-.15,0-.16.09-.16.09l0,.09a1,1,0,0,1-.22.39,2.3,2.3,0,0,1-1.85.8,3.12,3.12,0,0,1-1-.14,2.09,2.09,0,0,1-.71-.42,2.06,2.06,0,0,1-.45-.74,4.27,4.27,0,0,1-.17-.89h7.55c.11,0,.11-.14.11-.14v-.1c0-.19,0-.37,0-.56a7.41,7.41,0,0,0-.23-1.89m-7-.71a2,2,0,0,1,.66-.52,2.35,2.35,0,0,1,1-.21,2.62,2.62,0,0,1,.85.13,1.48,1.48,0,0,1,.56.37,2.85,2.85,0,0,1,.61,1.26h-4.16a1.76,1.76,0,0,1,.08-.37,2,2,0,0,1,.35-.66"/><path class="cls-21" d="M247.89,33l-4.06-5.84,3.66-5.21s0-.06-.08-.06h-3.7c-.12,0-.15.07-.15.07l-1.66,2.49L240.22,22a.21.21,0,0,0-.18-.08h-3.79c-.12,0-.06.07-.06.07l.26.37,3.39,4.9-4,5.78s-.08.11.05.11h3.72a.22.22,0,0,0,.2-.13l2-3,2,3a.28.28,0,0,0,.21.13h3.76c.15,0,.07-.12.07-.12"/><path class="cls-21" d="M252.57,21.87h-4.28c-.15,0-.12.1-.12.1l.61,11s0,.14.13.14h3c.13,0,.13-.14.13-.14l.61-11s0-.12-.1-.12"/><path class="cls-21" d="M260.7,24.39a.13.13,0,0,0,.11-.14V22a.1.1,0,0,0-.11-.11h-2V18.79s0-.13-.12-.13h-3.26c-.12,0-.12.13-.12.13v3.08h-1.64c-.15,0-.13.1-.13.1v2.29a.11.11,0,0,0,.11.13h1.66v6a3,3,0,0,0,.31,1.43,2.13,2.13,0,0,0,.84.87,3.12,3.12,0,0,0,1.17.4,8.07,8.07,0,0,0,1.33.1l.9,0a5.54,5.54,0,0,0,.86-.09l.13,0s.1,0,.1-.14V30.31c0-.14-.11-.09-.11-.09l-.22,0a2.7,2.7,0,0,1-.41.06l-.44,0a2.51,2.51,0,0,1-.55-.05.57.57,0,0,1-.25-.12.59.59,0,0,1-.11-.24,2.47,2.47,0,0,1-.05-.54v-5Z"/><path class="cls-21" d="M272.21,25.07A5.18,5.18,0,0,0,271,23.2a5.29,5.29,0,0,0-1.84-1.2,7,7,0,0,0-4.76,0,5.4,5.4,0,0,0-1.82,1.2,5.32,5.32,0,0,0-1.18,1.87,7,7,0,0,0-.42,2.42,6.9,6.9,0,0,0,.42,2.42,5.28,5.28,0,0,0,1.18,1.86A5,5,0,0,0,264.44,33a6.41,6.41,0,0,0,2.37.41,6.5,6.5,0,0,0,2.38-.41A5,5,0,0,0,271,31.77a5.14,5.14,0,0,0,1.18-1.86,6.9,6.9,0,0,0,.41-2.42,7,7,0,0,0-.41-2.42m-4.29,5.29a2.22,2.22,0,0,1-1.11.25,2.18,2.18,0,0,1-1.1-.25,2,2,0,0,1-.69-.67,3,3,0,0,1-.39-1,6,6,0,0,1-.12-1.2,6.11,6.11,0,0,1,.12-1.2,2.86,2.86,0,0,1,.39-1,2,2,0,0,1,.7-.68,2,2,0,0,1,1.09-.26,2.14,2.14,0,0,1,1.11.26,2,2,0,0,1,.7.68,2.51,2.51,0,0,1,.38,1,5.44,5.44,0,0,1,.13,1.2,5.32,5.32,0,0,1-.13,1.2,2.63,2.63,0,0,1-.38,1,1.88,1.88,0,0,1-.7.67"/><path class="cls-25" d="M253.12,35.78A2.1,2.1,0,1,0,251,37.87a2.1,2.1,0,0,0,2.09-2.09"/><path class="cls-26" d="M232.16,18.75l-1.64,2.05s-.1.12,0,.12h1.94a.39.39,0,0,0,.25-.08l2.75-2.09s.1-.09,0-.09h-3.09a.25.25,0,0,0-.21.09"/><path class="cls-21" d="M275.35,23a1.36,1.36,0,0,1-.18.68,1.29,1.29,0,0,1-.51.5,1.37,1.37,0,0,1-1.87-.5,1.39,1.39,0,0,1,0-1.37,1.27,1.27,0,0,1,.5-.5,1.39,1.39,0,0,1,1.88.5,1.37,1.37,0,0,1,.18.69m-.26,0a1.07,1.07,0,0,0-.33-.79,1,1,0,0,0-.78-.33,1.07,1.07,0,0,0-.79.33,1.11,1.11,0,0,0,.79,1.89,1.11,1.11,0,0,0,1.11-1.1m-1.73-.74H274a.6.6,0,0,1,.4.11.42.42,0,0,1,0,.56.57.57,0,0,1-.31.16l.13.06a1.32,1.32,0,0,1,.12.16l.23.42h-.43a2.19,2.19,0,0,0-.29-.5.19.19,0,0,0-.14-.08h0v.58h-.36Zm.36.63h.15a.33.33,0,0,0,.23-.06.15.15,0,0,0,.06-.13.18.18,0,0,0-.06-.13.36.36,0,0,0-.21-.05h-.17Z"/><path class="cls-27" d="M149.69,29.34c.07,1.61,1.46,2.11,2.94,2.11,1.12,0,2.64-.25,2.64-1.62s-1.78-1.63-3.57-2-3.57-1-3.57-3.08,2.17-3.11,4.08-3.11c2.4,0,4.32.76,4.47,3.43h-1.79c-.13-1.4-1.35-1.84-2.54-1.84s-2.32.29-2.32,1.39c0,1.29,1.9,1.5,3.57,1.9s3.57,1,3.57,3.11c0,2.59-2.43,3.44-4.65,3.44-2.45,0-4.52-1-4.62-3.7Z"/><path class="cls-27" d="M167.94,29.32A4.4,4.4,0,0,1,163.27,33c-3.48,0-5.13-2.41-5.23-5.75s2.15-5.68,5.13-5.68c3.86,0,5.05,3.62,4.94,6.26h-8.17a3.2,3.2,0,0,0,3.4,3.58,2.63,2.63,0,0,0,2.83-2.13Zm-1.73-3a3.14,3.14,0,0,0-3.15-3.08,3.1,3.1,0,0,0-3.12,3.08Z"/><path class="cls-27" d="M179.47,31.86c0,3.54-1.63,5.36-5.07,5.36-2.05,0-4.42-.82-4.52-3.21h1.79c.09,1.31,1.65,1.77,2.83,1.77,2.35,0,3.28-1.68,3.28-4.14v-.71h-.05a3.63,3.63,0,0,1-3.4,2c-3.25,0-4.87-2.55-4.87-5.53,0-2.58,1.26-5.77,5-5.77a3.58,3.58,0,0,1,3.26,1.82h0V21.87h1.69Zm-1.78-4.76c0-1.92-.84-3.9-3.1-3.9s-3.23,1.88-3.23,4,.71,4.16,3.08,4.16,3.25-2.18,3.25-4.23"/><path class="cls-27" d="M190.08,32.79h-1.69V31.05h0a3.77,3.77,0,0,1-3.54,2c-2.88,0-3.76-1.65-3.76-4V21.87h1.79v7.39a2.06,2.06,0,0,0,2.22,2.19c2.18,0,3.23-1.45,3.23-3.42V21.87h1.8Z"/><path class="cls-27" d="M192.19,21.87h1.69v2.3h0a4,4,0,0,1,4-2.56v1.9c-2.9,0-3.95,1.65-3.95,4.42v4.86h-1.8Z"/><path class="cls-27" d="M203.09,21.61c3.46,0,5.3,2.52,5.3,5.73s-1.84,5.7-5.3,5.7-5.3-2.51-5.3-5.7,1.84-5.73,5.3-5.73m0,9.84c1.88,0,3.4-1.47,3.4-4.11s-1.52-4.14-3.4-4.14-3.4,1.48-3.4,4.14,1.52,4.11,3.4,4.11"/><path class="cls-27" d="M211.08,29.34c.06,1.61,1.45,2.11,2.93,2.11,1.12,0,2.64-.25,2.64-1.62s-1.77-1.63-3.57-2-3.57-1-3.57-3.08,2.18-3.11,4.08-3.11c2.41,0,4.33.76,4.48,3.43h-1.8c-.13-1.4-1.35-1.84-2.53-1.84s-2.33.29-2.33,1.39c0,1.29,1.9,1.5,3.57,1.9s3.57,1,3.57,3.11c0,2.59-2.43,3.44-4.64,3.44-2.45,0-4.52-1-4.63-3.7Z"/><path class="cls-27" d="M130.4,20.48a7,7,0,1,0,7.14,7,7.06,7.06,0,0,0-7.14-6.95"/><path class="cls-27" d="M142.76,19.84h-5.4A10.35,10.35,0,0,1,137.44,35h5.35a14.34,14.34,0,0,0,0-15.12"/><path class="cls-27" d="M121.32,27.43a10.43,10.43,0,0,1,3.31-7.59h-5.38a14.37,14.37,0,0,0,0,15.12h5.35a10.44,10.44,0,0,1-3.24-7.53"/><path class="cls-28" d="M288.94,28a1.23,1.23,0,1,1-1.23-1.23A1.24,1.24,0,0,1,288.94,28"/><path class="cls-28" d="M107.21,28A1.24,1.24,0,1,1,106,26.78,1.23,1.23,0,0,1,107.21,28"/><g class="cls-6"><path id="SVGID-31" data-name="SVGID" class="cls-11" d="M1416.66-63.52l54.43.32c20.35.12,31.53-5.91,37.84-16.22,5.73-9.38,9.77-20.73,2.49-28.09-15.43-15.6-32.57,3.16-32.57,3.16s3.9-40.64-25.68-40.6c-31.28,0-31.3,58.65-31.3,58.65s-21.18-21.87-27-5.11c-1.67,4.83.07,9.7,3,14,6.22,9,16.59,13.89,18.74,13.91"/><g class="cls-30"><rect id="SVGID-32" data-name="SVGID" class="cls-13" x="-172.31" y="-469.89" width="2370.38" height="1675.03" transform="matrix(0.01, -1, 1, 0.01, 639.25, 1378.31)"/></g></g><g class="cls-6"><path id="SVGID-33" data-name="SVGID" class="cls-11" d="M-1197.64-79.55l-56.42-.33c-21.09-.13-32.61-6.51-39-17.28-5.84-9.8-9.88-21.6-2.24-29.15,16.18-16,33.72,3.68,33.72,3.68s-3.54-42.17,27.11-41.76c32.42.42,31.72,61.17,31.72,61.17s22.23-22.41,28-5c1.68,5-.19,10.06-3.32,14.46-6.56,9.22-17.36,14.2-19.6,14.18"/><g class="cls-32"><rect id="SVGID-34" data-name="SVGID" class="cls-13" x="-2012.96" y="-495.84" width="2457.07" height="1736.29" transform="translate(-1152.07 -414.31) rotate(-89.66)"/></g></g></svg>