<?xml version="1.0" encoding="UTF-8"?>
<svg width="55px" height="67px" viewBox="0 0 55 67" version="1.1" xmlns="http://www.w3.org/2000/svg" xmlns:xlink="http://www.w3.org/1999/xlink">
    <!-- Generator: Sketch 53.2 (72643) - https://sketchapp.com -->
    <title>documento</title>
    <desc>Created with Sketch.</desc>
    <defs>
        <linearGradient x1="50%" y1="100%" x2="50%" y2="0%" id="linearGradient-1">
            <stop stop-color="#808080" stop-opacity="0.25" offset="0%"></stop>
            <stop stop-color="#808080" stop-opacity="0.12" offset="54%"></stop>
            <stop stop-color="#808080" stop-opacity="0.1" offset="100%"></stop>
        </linearGradient>
        <linearGradient x1="49.9972224%" y1="100%" x2="49.9972224%" y2="0%" id="linearGradient-2">
            <stop stop-color="#B3B3B3" stop-opacity="0.25" offset="0%"></stop>
            <stop stop-color="#B3B3B3" stop-opacity="0.1" offset="54%"></stop>
            <stop stop-color="#B3B3B3" stop-opacity="0.05" offset="100%"></stop>
        </linearGradient>
        <linearGradient x1="50.0056123%" y1="100%" x2="50.0056123%" y2="0%" id="linearGradient-3">
            <stop stop-color="#B3B3B3" stop-opacity="0.25" offset="0%"></stop>
            <stop stop-color="#B3B3B3" stop-opacity="0.1" offset="54%"></stop>
            <stop stop-color="#B3B3B3" stop-opacity="0.05" offset="100%"></stop>
        </linearGradient>
    </defs>
    <g id="PAGOS" stroke="none" stroke-width="1" fill="none" fill-rule="evenodd">
        <g id="documento" fill-rule="nonzero">
            <g id="Group-7">
                <rect id="Rectangle" fill="#E0E0E0" x="22" y="2" width="13" height="1"></rect>
                <rect id="Rectangle" fill="#E0E0E0" x="22" y="5" width="13" height="1"></rect>
                <rect id="Rectangle" fill="#E0E0E0" x="22" y="9" width="13" height="1"></rect>
                <rect id="Rectangle" fill="#6C63FF" opacity="0.5" x="22" y="12" width="13" height="1"></rect>
                <rect id="Rectangle" fill="#E0E0E0" x="22" y="15" width="13" height="1"></rect>
                <rect id="Rectangle" fill="#E0E0E0" x="22" y="19" width="13" height="1"></rect>
                <g id="Group" opacity="0.5" transform="translate(37.000000, 49.000000)" fill="url(#linearGradient-1)">
                    <circle id="Oval" cx="9.03313433" cy="8.97761194" r="8.96686567"></circle>
                </g>
                <circle id="Oval" fill="#3AD29F" cx="45.5" cy="57.5" r="8.5"></circle>
                <path d="M36.0313316,57.378187 C36.0313316,52.7593768 40.4795474,48.5010765 44.9843342,48.5010765 C45.6744996,48.5010765 46.3437772,48.3226062 46.9860748,48.4867989 C46.9947781,48.2851275 47,47.100085 47,46.8966289 L47,0 L8.00696258,0 L0,8.43271955 L0,63 L36.8146214,63 C36.0226284,61.7114448 36.0313316,59.0147592 36.0313316,57.378187 Z" id="Path" fill="url(#linearGradient-2)"></path>
                <path d="M35.8303238,57.3666892 C35.8303238,51.6404748 40.4200447,46.9984609 46.0817524,46.9984609 C46.3910476,46.9984609 46.6950857,47.0135258 47,47.040111 L47,23 L1,23 L1,61 L36.4778286,61 C36.048344,59.837959 35.8290174,58.6072623 35.8303238,57.3666892 L35.8303238,57.3666892 Z" id="Path" fill="#FFFFFF"></path>
                <polygon id="Path" fill="#FFFFFF" points="47 24 1 24 1 8.76290341 8.43878521 1 47 1"></polygon>
                <rect id="Rectangle" fill="#E0E0E0" x="32" y="6" width="13" height="1"></rect>
                <rect id="Rectangle" fill="#E0E0E0" x="32" y="9" width="13" height="1"></rect>
                <rect id="Rectangle" fill="#E0E0E0" x="32" y="13" width="13" height="1"></rect>
                <rect id="Rectangle" fill="#6C63FF" opacity="0.5" x="32" y="16" width="13" height="1"></rect>
                <rect id="Rectangle" fill="#E0E0E0" x="7" y="13" width="13" height="1"></rect>
                <rect id="Rectangle" fill="#6C63FF" opacity="0.5" x="8" y="31" width="13" height="1"></rect>
                <rect id="Rectangle" fill="#E0E0E0" x="8" y="35" width="13" height="1"></rect>
                <rect id="Rectangle" fill="#69F0AE" opacity="0.5" x="8" y="33" width="33" height="1"></rect>
                <rect id="Rectangle" fill="#6C63FF" opacity="0.5" x="8" y="39" width="13" height="1"></rect>
                <rect id="Rectangle" fill="#E0E0E0" x="8" y="44" width="13" height="1"></rect>
                <rect id="Rectangle" fill="#E0E0E0" x="8" y="42" width="33" height="1"></rect>
                <rect id="Rectangle" fill="#6C63FF" opacity="0.5" x="8" y="49" width="13" height="1"></rect>
                <rect id="Rectangle" fill="#E0E0E0" x="8" y="53" width="13" height="1"></rect>
                <rect id="Rectangle" fill="#E0E0E0" x="7" y="51" width="27" height="1"></rect>
                <polygon id="Path" fill="url(#linearGradient-3)" points="1 9 9 9 9 1"></polygon>
                <polygon id="Path" fill="#E8E8E8" points="1 9 9 9 9 1"></polygon>
                <rect id="Rectangle" fill="#6C63FF" opacity="0.5" x="7" y="18" width="13" height="1"></rect>
                <rect id="Rectangle" fill="#E0E0E0" x="7" y="23" width="13" height="1"></rect>
                <rect id="Rectangle" fill="#E0E0E0" x="8" y="20" width="33" height="1"></rect>
                <path d="M49.8099717,57.3067881 L49.4249333,56.9021996 C49.2915035,56.7691443 49.1356645,56.7025978 48.957776,56.7025978 C48.7762186,56.7025978 48.622232,56.7691254 48.4955645,56.9021996 L46.9859493,58.4881874 L46.9859493,54.6905383 C46.9859493,54.5034825 46.920826,54.3416698 46.7907234,54.2050056 C46.6606207,54.0683604 46.5066162,54 46.3286378,54 L45.6713802,54 C45.4933838,54 45.3393073,54.0684171 45.2092946,54.2050056 C45.079156,54.3416698 45.0141586,54.5034825 45.0141586,54.6905383 L45.0141586,58.4881874 L43.5045254,56.9021996 C43.3778759,56.7691443 43.2238534,56.7025978 43.0423679,56.7025978 C42.8643895,56.7025978 42.7085864,56.7691254 42.5751386,56.9021996 L42.195154,57.3067881 C42.0650154,57.4433389 42,57.6070977 42,57.797649 C42,57.9919226 42.0650873,58.1537731 42.1951,58.2832006 L45.5378424,61.8003415 C45.6645459,61.9334724 45.8185685,62 46,62 C46.1779964,62 46.3337635,61.9334724 46.4671933,61.8003415 L49.8099537,58.2832006 C49.9366213,58.1501265 50,57.9882948 50,57.797649 C50.000018,57.6106877 49.9366393,57.4470611 49.8099717,57.3067881 Z" id="Path" fill="#FFFFFF"></path>
            </g>
        </g>
    </g>
</svg>