<?xml version="1.0" encoding="UTF-8"?>
<svg width="37px" height="37px" viewBox="0 0 37 37" version="1.1" xmlns="http://www.w3.org/2000/svg" xmlns:xlink="http://www.w3.org/1999/xlink">
    <!-- Generator: Sketch 53.2 (72643) - https://sketchapp.com -->
    <title>faq-1</title>
    <desc>Created with Sketch.</desc>
    <g id="PAGOS" stroke="none" stroke-width="1" fill="none" fill-rule="evenodd">
        <g id="faq-1" transform="translate(0.000000, 0.000000)" fill="#1FBE92" fill-rule="nonzero">
            <path d="M18.5,0 C8.29914831,0 0,8.29914831 0,18.5 C0,28.7008517 8.29914831,37 18.5,37 C28.7008517,37 37,28.7008517 37,18.5 C37,8.29914831 28.7010256,0 18.5,0 Z M18.5,34.5654371 C9.64155786,34.5654371 2.43473683,27.3584421 2.43473683,18.5 C2.43473683,9.64155786 9.64155786,2.43473683 18.5,2.43473683 C27.3584421,2.43473683 34.5652632,9.64155786 34.5652632,18.5 C34.5652632,27.3584421 27.3584421,34.5654371 18.5,34.5654371 Z" id="Shape"></path>
            <path d="M20.2292203,17.4221759 L20.2292203,10.602077 C20.9247834,10.8545017 21.5316671,11.317652 21.9536408,11.9439946 C22.3271482,12.4980933 23.0894404,12.6515044 23.6562866,12.2866812 C24.2233084,11.9218581 24.3802974,11.1769394 24.00679,10.6228407 C23.123683,9.31249762 21.7629361,8.4229195 20.2292203,8.10940499 L20.2292203,6.20120502 C20.2292203,5.53779665 19.6788808,5 19,5 C18.3211192,5 17.7707797,5.53779665 17.7707797,6.20120502 L17.7707797,8.10580138 C15.0501639,8.66007169 13,11.021126 13,13.8417269 C13,16.6623279 15.0503395,19.0237254 17.7707797,19.5779957 L17.7707797,26.3980946 C17.0752166,26.1456699 16.4683329,25.6825196 16.0463592,25.056177 C15.6728518,24.5020783 14.9105596,24.3484956 14.3437134,24.7134904 C13.7766916,25.0783135 13.6197026,25.8232322 13.99321,26.3773309 C14.876317,27.687674 16.2370639,28.5772521 17.7707797,28.8907666 L17.7707797,30.798795 C17.7707797,31.4622034 18.3211192,32 19,32 C19.6788808,32 20.2292203,31.4622034 20.2292203,30.798795 L20.2292203,28.8943702 C22.9498361,28.3400999 25,25.9790456 25,23.1584447 C25,20.3378437 22.9498361,17.9764462 20.2292203,17.4221759 Z M15.4584406,13.8417269 C15.4584406,12.3568659 16.423203,11.0914822 17.7707797,10.602935 L17.7707797,17.0805189 C16.423203,16.5919716 15.4584406,15.3265879 15.4584406,13.8417269 L15.4584406,13.8417269 Z M20.2292203,26.397065 L20.2292203,19.9194811 C21.576797,20.4080284 22.5415594,21.6734121 22.5415594,23.1582731 C22.5415594,24.6431341 21.5769726,25.9085178 20.2292203,26.397065 Z" id="Shape"></path>
        </g>
    </g>
</svg>