<?xml version="1.0" encoding="UTF-8"?>
<svg width="34px" height="35px" viewBox="0 0 34 35" version="1.1" xmlns="http://www.w3.org/2000/svg" xmlns:xlink="http://www.w3.org/1999/xlink">
    <!-- Generator: Sketch 53.2 (72643) - https://sketchapp.com -->
    <title>faq-2</title>
    <desc>Created with Sketch.</desc>
    <g id="PAGOS" stroke="none" stroke-width="1" fill="none" fill-rule="evenodd">
        <g id="faq-2" fill="#1FBE92" fill-rule="nonzero">
            <path d="M32.9632397,2.04934584 L26.1687354,2.04934584 L26.1687354,1.03172303 C26.1687354,0.462039962 25.7043622,0 25.1318023,0 C24.5592424,0 24.0948692,0.462039962 24.0948692,1.03172303 L24.0948692,2.04934584 L18.0369331,2.04934584 L18.0369331,1.03172303 C18.0369331,0.462039962 17.5725599,0 17,0 C16.4274401,0 15.9630669,0.462039962 15.9630669,1.03172303 L15.9630669,2.04934584 L10.1626358,2.04934584 L10.1626358,1.03172303 C10.1626358,0.462039962 9.69826261,0 9.12570271,0 C8.55314281,0 8.0887696,0.462039962 8.0887696,1.03172303 L8.0887696,2.04934584 L1.03693312,2.04934584 C0.464373214,2.04934584 0,2.5113858 0,3.08106887 L0,26.3931946 C0,26.9628776 0.464373214,27.4249176 1.03693312,27.4249176 L7.40128294,27.4249176 C8.42110666,31.7605617 12.3362205,35 17,35 C21.6637795,35 25.5788933,31.7603897 26.598717,27.4249176 L32.9630668,27.4249176 C33.5356267,27.4249176 34,26.9628776 34,26.3931946 L34,3.08106887 C34.0001728,2.5113858 33.5359724,2.04934584 32.9632397,2.04934584 Z M8.0887696,4.11279189 L8.0887696,5.0451256 C8.0887696,5.61480866 8.55314281,6.07684863 9.12570271,6.07684863 C9.69826261,6.07684863 10.1626358,5.61480866 10.1626358,5.0451256 L10.1626358,4.11279189 L15.9630669,4.11279189 L15.9630669,5.0451256 C15.9630669,5.61480866 16.4274401,6.07684863 17,6.07684863 C17.5725599,6.07684863 18.0369331,5.61480866 18.0369331,5.0451256 L18.0369331,4.11279189 L24.0948692,4.11279189 L24.0948692,5.0451256 C24.0948692,5.61480866 24.5592424,6.07684863 25.1318023,6.07684863 C25.7043622,6.07684863 26.1687354,5.61480866 26.1687354,5.0451256 L26.1687354,4.11279189 L31.9263065,4.11279189 L31.9263065,8.33185126 L2.07386623,8.33185126 L2.07386623,4.11279189 L8.0887696,4.11279189 L8.0887696,4.11279189 Z M17,32.9365539 C12.7067512,32.9365539 9.21384203,29.4611949 9.21384203,25.1895177 C9.21384203,20.9178405 12.7067512,17.4424814 17,17.4424814 C21.2932487,17.4424814 24.7861579,20.9176685 24.7861579,25.1895177 C24.7861579,29.4613669 21.2934215,32.9365539 17,32.9365539 Z M26.8557036,25.3614715 C26.8567405,25.304039 26.8600242,25.2471222 26.8600242,25.1895177 C26.8600242,19.7800219 22.4368131,15.3790354 17,15.3790354 C11.5631868,15.3790354 7.13997579,19.7800219 7.13997579,25.1895177 C7.13997579,25.2471222 7.14343224,25.304039 7.14429635,25.3614715 L2.07369341,25.3614715 L2.07369341,10.3954693 L31.9261337,10.3954693 L31.9261337,25.3614715 L26.8557036,25.3614715 L26.8557036,25.3614715 Z" id="Shape"></path>
            <path d="M17.8611685,25.1124199 L17.8611685,20.0470656 C17.8611685,19.4689109 17.4444218,19 16.9305842,19 C16.4167466,19 16,19.4689109 16,20.0470656 L16,25.5462541 C16,25.823901 16.0980215,26.0902047 16.2725061,26.286704 L18.4112988,28.6933843 C18.593073,28.8977366 18.8311474,29 19.069377,29 C19.3074515,29 19.545681,28.8977366 19.7274551,28.6933843 C20.0908483,28.2845052 20.0908483,27.6215381 19.7274551,27.212659 L17.8611685,25.1124199 Z" id="Path"></path>
        </g>
    </g>
</svg>