<?xml version="1.0" encoding="UTF-8"?>
<svg width="30px" height="28px" viewBox="0 0 30 28" version="1.1" xmlns="http://www.w3.org/2000/svg" xmlns:xlink="http://www.w3.org/1999/xlink">
    <title>errors</title>
    <g id="Page-1" stroke="none" stroke-width="1" fill="none" fill-rule="evenodd">
        <g id="04-DIAN" transform="translate(-678.000000, -674.000000)" fill="#000000" fill-rule="nonzero">
            <g id="Group-12" transform="translate(678.000000, 674.000000)">
                <g id="errors" transform="translate(0.000000, -0.000000)">
                    <path d="M29.5217446,21.7509473 L18.0549813,1.77407446 C17.417366,0.663259384 16.2753185,0 14.9999707,0 C13.7246815,0 12.5825754,0.663259384 11.9449601,1.77407446 L0.478255435,21.7508884 C-0.159418478,22.8618214 -0.159418478,24.1882223 0.478255435,25.2990963 C1.11592935,26.4099703 2.25791819,27.0731707 3.53326602,27.0731707 L26.4666754,27.0731707 C27.7419646,27.0731707 28.8840121,26.4099113 29.5217446,25.2991552 C30.1594185,24.1882223 30.1594185,22.8618214 29.5217446,21.7509473 Z M27.9996006,24.4152416 C27.6796211,24.9726529 27.1065759,25.3054024 26.4666754,25.3054024 L3.53326602,25.3054024 C2.89330695,25.3054024 2.32026176,24.9726529 2.00034082,24.4152416 C1.68041988,23.8578302 1.68041988,23.1923313 2.00034082,22.6349199 L13.4671627,2.65804705 C13.7870836,2.10063571 14.3601288,1.76788624 15.0000293,1.76788624 C15.6398712,1.76788624 16.212975,2.10063571 16.5328959,2.65804705 L27.9996592,22.6349199 C28.3195215,23.1923313 28.3195215,23.8578302 27.9996006,24.4152416 Z" id="Shape"></path>
                    <rect id="Rectangle" x="13.902439" y="8.7804878" width="1.82926829" height="8.7804878"></rect>
                    <path d="M15,19.3902439 C14.3947992,19.3902439 13.902439,19.8826041 13.902439,20.4878049 C13.902439,21.0930056 14.3947992,21.5853659 15,21.5853659 C15.6051459,21.5853659 16.097561,21.0930056 16.097561,20.4878049 C16.097561,19.8826041 15.6052008,19.3902439 15,19.3902439 Z" id="Path"></path>
                </g>
            </g>
        </g>
    </g>
</svg>
